<svg width="21" height="20" viewBox="0 0 21 20" fill="none" xmlns="http://www.w3.org/2000/svg">
<g clip-path="url(#clip0_5331_7531)">
<path d="M10.25 1.88124C12.8957 1.88124 13.209 1.89284 14.2494 1.93925C15.2164 1.9818 15.7386 2.14425 16.0867 2.27963C16.5469 2.45755 16.8796 2.67415 17.2238 3.01839C17.5719 3.3665 17.7847 3.69527 17.9626 4.15555C18.098 4.50366 18.2604 5.02969 18.303 5.99279C18.3494 7.03712 18.361 7.35042 18.361 9.99218C18.361 12.6378 18.3494 12.9511 18.303 13.9916C18.2604 14.9585 18.098 15.4807 17.9626 15.8288C17.7847 16.2891 17.5681 16.6217 17.2238 16.966C16.8757 17.3141 16.5469 17.5268 16.0867 17.7047C15.7386 17.8401 15.2125 18.0026 14.2494 18.0451C13.2051 18.0915 12.8918 18.1031 10.25 18.1031C7.60441 18.1031 7.29111 18.0915 6.25065 18.0451C5.28368 18.0026 4.76152 17.8401 4.41341 17.7047C3.95313 17.5268 3.62049 17.3102 3.27625 16.966C2.92814 16.6179 2.71541 16.2891 2.53749 15.8288C2.40211 15.4807 2.23966 14.9547 2.19711 13.9916C2.1507 12.9472 2.13909 12.6339 2.13909 9.99218C2.13909 7.34655 2.1507 7.03325 2.19711 5.99279C2.23966 5.02582 2.40211 4.50366 2.53749 4.15555C2.71541 3.69527 2.93201 3.36263 3.27625 3.01839C3.62436 2.67028 3.95313 2.45755 4.41341 2.27963C4.76152 2.14425 5.28755 1.9818 6.25065 1.93925C7.29111 1.89284 7.60441 1.88124 10.25 1.88124ZM10.25 0.0981445C7.56186 0.0981445 7.22535 0.109748 6.16942 0.156163C5.11736 0.202577 4.39407 0.372764 3.76747 0.61644C3.1138 0.87172 2.56069 1.20823 2.01145 1.76133C1.45835 2.31057 1.12184 2.86368 0.866562 3.51348C0.622886 4.14395 0.452699 4.86337 0.406285 5.91543C0.35987 6.97523 0.348267 7.31174 0.348267 9.99991C0.348267 12.6881 0.35987 13.0246 0.406285 14.0805C0.452699 15.1326 0.622886 15.8559 0.866562 16.4825C1.12184 17.1361 1.45835 17.6893 2.01145 18.2385C2.56069 18.7877 3.1138 19.1281 3.7636 19.3795C4.39407 19.6232 5.11349 19.7934 6.16556 19.8398C7.22149 19.8862 7.55799 19.8978 10.2462 19.8978C12.9343 19.8978 13.2708 19.8862 14.3268 19.8398C15.3788 19.7934 16.1021 19.6232 16.7287 19.3795C17.3785 19.1281 17.9316 18.7877 18.4809 18.2385C19.0301 17.6893 19.3705 17.1361 19.6219 16.4863C19.8656 15.8559 20.0358 15.1365 20.0822 14.0844C20.1286 13.0285 20.1402 12.692 20.1402 10.0038C20.1402 7.31561 20.1286 6.9791 20.0822 5.92317C20.0358 4.87111 19.8656 4.14781 19.6219 3.52122C19.3782 2.86368 19.0417 2.31057 18.4886 1.76133C17.9394 1.21209 17.3863 0.87172 16.7365 0.620308C16.106 0.376632 15.3866 0.206445 14.3345 0.160031C13.2747 0.109748 12.9382 0.0981445 10.25 0.0981445Z" fill="#FF8B20"/>
<path d="M10.25 4.91365C7.44196 4.91365 5.16377 7.19183 5.16377 9.99991C5.16377 12.808 7.44196 15.0862 10.25 15.0862C13.0581 15.0862 15.3363 12.808 15.3363 9.99991C15.3363 7.19183 13.0581 4.91365 10.25 4.91365ZM10.25 13.2992C8.42826 13.2992 6.95073 11.8217 6.95073 9.99991C6.95073 8.17814 8.42826 6.70061 10.25 6.70061C12.0718 6.70061 13.5493 8.17814 13.5493 9.99991C13.5493 11.8217 12.0718 13.2992 10.25 13.2992Z" fill="#FF8B20"/>
<path d="M16.7249 4.71254C16.7249 5.37008 16.1911 5.89998 15.5374 5.89998C14.8799 5.89998 14.35 5.36621 14.35 4.71254C14.35 4.055 14.8838 3.5251 15.5374 3.5251C16.1911 3.5251 16.7249 4.05886 16.7249 4.71254Z" fill="#FF8B20"/>
</g>
<defs>
<clipPath id="clip0_5331_7531">
<rect width="19.8035" height="19.8035" fill="white" transform="translate(0.348267 0.0981445)"/>
</clipPath>
</defs>
</svg>
