<svg width="40" height="40" viewBox="0 0 40 40" fill="none" xmlns="http://www.w3.org/2000/svg">
<path opacity="0.4" d="M25.8 5H12.5333C6.78333 5 3.33333 8.43333 3.33333 14.2V27.45C3.33333 33.2333 6.78333 36.6667 12.5333 36.6667H25.7833C31.55 36.6667 34.9833 33.2333 34.9833 27.4667V14.2C35 8.43333 31.55 5 25.8 5Z" fill="#FF8B20"/>
<path d="M35.0333 4.96667C32.05 1.96667 29.1333 1.9 26.0667 4.96667L24.1833 6.83333C24.0167 7 23.9667 7.23333 24.0333 7.45C25.2 11.5333 28.4667 14.8 32.55 15.9667C32.6 15.9833 32.6833 15.9833 32.7333 15.9833C32.9 15.9833 33.0667 15.9167 33.1833 15.8L35.0333 13.9333C36.55 12.4167 37.3 10.9667 37.3 9.48333C37.3 7.98333 36.55 6.5 35.0333 4.96667Z" fill="#FF8B20"/>
<path d="M29.7667 17.3667C29.3167 17.15 28.8833 16.9333 28.4833 16.6833C28.15 16.4833 27.8167 16.2667 27.5 16.0333C27.2333 15.8667 26.9333 15.6167 26.6333 15.3667C26.6 15.35 26.5 15.2667 26.3667 15.1333C25.85 14.7167 25.3 14.15 24.7833 13.5333C24.75 13.5 24.65 13.4 24.5667 13.25C24.4 13.0667 24.15 12.75 23.9333 12.4C23.75 12.1667 23.5333 11.8333 23.3333 11.4833C23.0833 11.0667 22.8667 10.65 22.6667 10.2167C22.45 9.75 22.2833 9.31667 22.1333 8.9L13.1667 17.8667C12.5833 18.45 12.0167 19.55 11.9 20.3667L11.1833 25.3333C11.0333 26.3833 11.3167 27.3667 11.9667 28.0167C12.5167 28.5667 13.2667 28.85 14.1 28.85C14.2833 28.85 14.4667 28.8333 14.65 28.8167L19.6 28.1167C20.4167 28 21.5167 27.45 22.1 26.85L31.0667 17.8833C30.65 17.75 30.2333 17.5667 29.7667 17.3667Z" fill="#FF8B20"/>
</svg>
