<svg width="40" height="40" viewBox="0 0 40 40" fill="none" xmlns="http://www.w3.org/2000/svg">
<path opacity="0.4" d="M20 36.6667C29.2047 36.6667 36.6667 29.2047 36.6667 20C36.6667 10.7952 29.2047 3.33333 20 3.33333C10.7952 3.33333 3.33333 10.7952 3.33333 20C3.33333 29.2047 10.7952 36.6667 20 36.6667Z" fill="#FF8B20"/>
<path d="M17.6333 25.9667C17.3 25.9667 16.9833 25.8333 16.75 25.6L12.0333 20.8833C11.55 20.4 11.55 19.6 12.0333 19.1167C12.5167 18.6333 13.3167 18.6333 13.8 19.1167L17.6333 22.95L26.2 14.3833C26.6833 13.9 27.4833 13.9 27.9667 14.3833C28.45 14.8667 28.45 15.6667 27.9667 16.15L18.5167 25.6C18.2833 25.8333 17.9667 25.9667 17.6333 25.9667Z" fill="#FF8B20"/>
</svg>
