<svg width="40" height="40" viewBox="0 0 40 40" fill="none" xmlns="http://www.w3.org/2000/svg">
<path opacity="0.4" d="M30.7833 28.05L31.4333 33.3166C31.6 34.7 30.1167 35.6666 28.9333 34.9499L21.95 30.8C21.1833 30.8 20.4333 30.75 19.7 30.65C20.9333 29.2 21.6667 27.3666 21.6667 25.3833C21.6667 20.65 17.5667 16.8167 12.5 16.8167C10.5667 16.8167 8.78334 17.3667 7.3 18.3333C7.25 17.9167 7.23332 17.5 7.23332 17.0666C7.23332 9.48331 13.8167 3.33333 21.95 3.33333C30.0833 3.33333 36.6667 9.48331 36.6667 17.0666C36.6667 21.5666 34.35 25.55 30.7833 28.05Z" fill="#FF8B20"/>
<path d="M21.6667 25.3833C21.6667 27.3666 20.9333 29.2 19.7 30.65C18.05 32.65 15.4333 33.9333 12.5 33.9333L8.14999 36.5166C7.41666 36.9666 6.48332 36.35 6.58332 35.5L6.99999 32.2167C4.76666 30.6667 3.33333 28.1833 3.33333 25.3833C3.33333 22.45 4.9 19.8667 7.3 18.3333C8.78334 17.3667 10.5667 16.8167 12.5 16.8167C17.5667 16.8167 21.6667 20.65 21.6667 25.3833Z" fill="#FF8B20"/>
</svg>
