<svg width="40" height="40" viewBox="0 0 40 40" fill="none" xmlns="http://www.w3.org/2000/svg">
<path d="M34.1667 27.9167H30.4167V24.1667C30.4167 23.4833 29.85 22.9167 29.1667 22.9167C28.4833 22.9167 27.9167 23.4833 27.9167 24.1667V27.9167H24.1667C23.4833 27.9167 22.9167 28.4833 22.9167 29.1667C22.9167 29.85 23.4833 30.4167 24.1667 30.4167H27.9167V34.1667C27.9167 34.85 28.4833 35.4167 29.1667 35.4167C29.85 35.4167 30.4167 34.85 30.4167 34.1667V30.4167H34.1667C34.85 30.4167 35.4167 29.85 35.4167 29.1667C35.4167 28.4833 34.85 27.9167 34.1667 27.9167Z" fill="#FF8B20"/>
<path opacity="0.4" d="M36.6667 14.2V6.63334C36.6667 4.28334 35.6 3.33334 32.95 3.33334H26.2167C23.5667 3.33334 22.5 4.28334 22.5 6.63334V14.1833C22.5 16.55 23.5667 17.4833 26.2167 17.4833H32.95C35.6 17.5 36.6667 16.55 36.6667 14.2Z" fill="#FF8B20"/>
<path d="M17.5 14.2V6.63334C17.5 4.28334 16.4333 3.33334 13.7833 3.33334H7.05C4.39999 3.33334 3.33333 4.28334 3.33333 6.63334V14.1833C3.33333 16.55 4.39999 17.4833 7.05 17.4833H13.7833C16.4333 17.5 17.5 16.55 17.5 14.2Z" fill="#FF8B20"/>
<path opacity="0.4" d="M17.5 32.95V26.2167C17.5 23.5667 16.4333 22.5 13.7833 22.5H7.05C4.39999 22.5 3.33333 23.5667 3.33333 26.2167V32.95C3.33333 35.6 4.39999 36.6667 7.05 36.6667H13.7833C16.4333 36.6667 17.5 35.6 17.5 32.95Z" fill="#FF8B20"/>
</svg>
