<?xml version="1.0" encoding="UTF-8"?>
<svg xmlns="http://www.w3.org/2000/svg" width="40" height="41" viewBox="0 0 40 41" fill="none">
  <circle cx="16.6666" cy="25.1287" r="11.3333" fill="url(#paint0_linear_375_4117)"></circle>
  <path opacity="0.4" d="M13.6317 27.152C13.6317 28.2694 14.5376 29.1753 15.655 29.1753H17.6783C18.7957 29.1753 19.7015 28.2694 19.7015 27.152C19.7015 26.0346 18.7957 25.1287 17.6783 25.1287H15.655C14.5376 25.1287 13.6317 24.2229 13.6317 23.1055C13.6317 21.988 14.5376 21.0822 15.655 21.0822H17.6783C18.7957 21.0822 19.7015 21.988 19.7015 23.1055M16.6666 20.0706V30.1869" stroke="#FFF6F2" stroke-linecap="round" stroke-linejoin="round"></path>
  <circle cx="26" cy="13.7955" r="9.33333" fill="url(#paint1_linear_375_4117)"></circle>
  <path fill-rule="evenodd" clip-rule="evenodd" d="M27.7921 22.9569C27.2121 23.0697 26.6129 23.1287 26 23.1287C20.8453 23.1287 16.6666 18.9501 16.6666 13.7954C22.183 13.7954 26.7789 17.7366 27.7921 22.9569Z" fill="#FFCA41"></path>
  <defs>
    <linearGradient id="paint0_linear_375_4117" x1="16.6666" y1="13.7954" x2="16.6666" y2="36.4621" gradientUnits="userSpaceOnUse">
      <stop stop-color="#FF8B20"></stop>
      <stop offset="1" stop-color="#FDB572"></stop>
    </linearGradient>
    <linearGradient id="paint1_linear_375_4117" x1="18" y1="6.71503" x2="37.0914" y2="8.03975" gradientUnits="userSpaceOnUse">
      <stop stop-color="#FDD774"></stop>
      <stop offset="1" stop-color="#FFE49D"></stop>
    </linearGradient>
  </defs>
</svg>
