<?xml version="1.0" encoding="UTF-8"?>
<svg xmlns="http://www.w3.org/2000/svg" width="40" height="41" viewBox="0 0 40 41" fill="none">
  <path d="M32.1184 13.7377C30.985 12.4843 29.0917 11.8577 26.345 11.8577H26.025V11.8043C26.025 9.56435 26.025 6.79102 21.0117 6.79102H18.985C13.9717 6.79102 13.9717 9.57768 13.9717 11.8043V11.871H13.6517C10.8917 11.871 9.01169 12.4977 7.87836 13.751C6.55836 15.2177 6.59836 17.191 6.73169 18.5377L6.74503 18.631L6.85582 19.7943C6.87008 19.9441 6.95092 20.0794 7.07668 20.162C7.38366 20.3636 7.97431 20.7465 8.31836 20.9377C8.50503 21.0577 8.70503 21.1644 8.90503 21.271C11.185 22.5244 13.6917 23.3643 16.2384 23.7777C16.3584 25.031 16.905 26.4977 19.825 26.4977C22.745 26.4977 23.3184 25.0443 23.4117 23.751C26.1317 23.311 28.7584 22.3643 31.1317 20.9777C31.2117 20.9377 31.265 20.8977 31.3317 20.8577C31.8815 20.5469 32.4528 20.1611 32.9687 19.7868C33.0815 19.7049 33.1538 19.5789 33.1692 19.4404L33.1984 19.1777L33.265 18.551C33.2784 18.471 33.2784 18.4043 33.2917 18.311C33.3984 16.9643 33.3717 15.1243 32.1184 13.7377ZM21.4517 22.871C21.4517 24.2843 21.4517 24.4977 19.8117 24.4977C18.1717 24.4977 18.1717 24.2443 18.1717 22.8843V21.2043H21.4517V22.871ZM15.8784 11.8577V11.8043C15.8784 9.53768 15.8784 8.69768 18.985 8.69768H21.0117C24.1184 8.69768 24.1184 9.55102 24.1184 11.8043V11.871H15.8784V11.8577Z" fill="#2D264B"></path>
  <path d="M32.1184 13.7377C30.985 12.4843 29.0917 11.8577 26.345 11.8577H26.025V11.8043C26.025 9.56435 26.025 6.79102 21.0117 6.79102H18.985C13.9717 6.79102 13.9717 9.57768 13.9717 11.8043V11.871H13.6517C10.8917 11.871 9.01169 12.4977 7.87836 13.751C6.55836 15.2177 6.59836 17.191 6.73169 18.5377L6.74503 18.631L6.85582 19.7943C6.87008 19.9441 6.95092 20.0794 7.07668 20.162C7.38366 20.3636 7.97431 20.7465 8.31836 20.9377C8.50503 21.0577 8.70503 21.1644 8.90503 21.271C11.185 22.5244 13.6917 23.3643 16.2384 23.7777C16.3584 25.031 16.905 26.4977 19.825 26.4977C22.745 26.4977 23.3184 25.0443 23.4117 23.751C26.1317 23.311 28.7584 22.3643 31.1317 20.9777C31.2117 20.9377 31.265 20.8977 31.3317 20.8577C31.8815 20.5469 32.4528 20.1611 32.9687 19.7868C33.0815 19.7049 33.1538 19.5789 33.1692 19.4404L33.1984 19.1777L33.265 18.551C33.2784 18.471 33.2784 18.4043 33.2917 18.311C33.3984 16.9643 33.3717 15.1243 32.1184 13.7377ZM21.4517 22.871C21.4517 24.2843 21.4517 24.4977 19.8117 24.4977C18.1717 24.4977 18.1717 24.2443 18.1717 22.8843V21.2043H21.4517V22.871ZM15.8784 11.8577V11.8043C15.8784 9.53768 15.8784 8.69768 18.985 8.69768H21.0117C24.1184 8.69768 24.1184 9.55102 24.1184 11.8043V11.871H15.8784V11.8577Z" fill="url(#paint0_linear_375_4095)"></path>
  <path d="M32.1022 22.6132C32.4552 22.4437 32.8604 22.7246 32.825 23.1146L32.3194 28.684C32.0394 31.3507 30.9461 34.0707 25.0794 34.0707H14.9194C9.05272 34.0707 7.95938 31.3507 7.67938 28.6974L7.19867 23.4095C7.16363 23.0241 7.56032 22.7439 7.91244 22.9046C9.37008 23.5697 12.493 24.9476 14.3218 25.4086C14.4865 25.4502 14.6205 25.5678 14.6894 25.7231C15.4811 27.5071 17.2516 28.4574 19.8261 28.4574C22.3751 28.4574 24.1688 27.4706 24.9626 25.6833C25.0316 25.5279 25.166 25.4102 25.3308 25.3685C27.2704 24.8781 30.5833 23.3423 32.1022 22.6132Z" fill="#FFCA41"></path>
  <defs>
    <linearGradient id="paint0_linear_375_4095" x1="20" y1="6.79102" x2="20" y2="26.4977" gradientUnits="userSpaceOnUse">
      <stop stop-color="#FF8B20"></stop>
      <stop offset="1" stop-color="#FDB572"></stop>
    </linearGradient>
  </defs>
</svg>
