<?xml version="1.0" encoding="UTF-8"?>
<svg xmlns="http://www.w3.org/2000/svg" width="40" height="41" viewBox="0 0 40 41" fill="none">
  <path fill-rule="evenodd" clip-rule="evenodd" d="M7.54779 21.8143C7.54779 27.0024 7.54779 29.5964 8.86899 31.4149C9.29568 32.0022 9.81215 32.5186 10.3994 32.9453C12.2179 34.2665 14.8119 34.2665 20 34.2665C25.188 34.2665 27.7821 34.2665 29.6005 32.9453C30.1878 32.5186 30.7043 32.0022 31.131 31.4149C32.4522 29.5964 32.4522 27.0024 32.4522 21.8143V19.0472C32.4522 17.8864 32.4522 16.8555 32.4374 15.9341L32.3404 15.9341C31.1615 15.9342 30.4435 15.9343 29.8241 15.8362C26.42 15.297 23.7501 12.6272 23.211 9.22307C23.1129 8.60368 23.1129 7.88562 23.113 6.70679L23.113 6.60977C22.1916 6.59497 21.1607 6.59497 20 6.59497C14.8119 6.59497 12.2179 6.59497 10.3994 7.91617C9.81215 8.34286 9.29568 8.85933 8.86899 9.44663C7.54779 11.2651 7.54779 13.8591 7.54779 19.0472V21.8143ZM23.6691 19.9488C24.0743 19.5435 24.0743 18.8865 23.6691 18.4813C23.2638 18.076 22.6068 18.076 22.2016 18.4813L20.0003 20.6825L17.799 18.4813C17.3938 18.076 16.7368 18.076 16.3315 18.4813C15.9263 18.8865 15.9263 19.5435 16.3315 19.9488L18.5328 22.15L16.3315 24.3513C15.9263 24.7565 15.9263 25.4135 16.3315 25.8188C16.7368 26.224 17.3938 26.224 17.799 25.8188L20.0003 23.6175L22.2016 25.8188C22.6068 26.224 23.2638 26.224 23.6691 25.8188C24.0743 25.4135 24.0743 24.7565 23.6691 24.3513L21.4678 22.15L23.6691 19.9488Z" fill="#2D264B"></path>
  <path fill-rule="evenodd" clip-rule="evenodd" d="M7.54779 21.8143C7.54779 27.0024 7.54779 29.5964 8.86899 31.4149C9.29568 32.0022 9.81215 32.5186 10.3994 32.9453C12.2179 34.2665 14.8119 34.2665 20 34.2665C25.188 34.2665 27.7821 34.2665 29.6005 32.9453C30.1878 32.5186 30.7043 32.0022 31.131 31.4149C32.4522 29.5964 32.4522 27.0024 32.4522 21.8143V19.0472C32.4522 17.8864 32.4522 16.8555 32.4374 15.9341L32.3404 15.9341C31.1615 15.9342 30.4435 15.9343 29.8241 15.8362C26.42 15.297 23.7501 12.6272 23.211 9.22307C23.1129 8.60368 23.1129 7.88562 23.113 6.70679L23.113 6.60977C22.1916 6.59497 21.1607 6.59497 20 6.59497C14.8119 6.59497 12.2179 6.59497 10.3994 7.91617C9.81215 8.34286 9.29568 8.85933 8.86899 9.44663C7.54779 11.2651 7.54779 13.8591 7.54779 19.0472V21.8143ZM23.6691 19.9488C24.0743 19.5435 24.0743 18.8865 23.6691 18.4813C23.2638 18.076 22.6068 18.076 22.2016 18.4813L20.0003 20.6825L17.799 18.4813C17.3938 18.076 16.7368 18.076 16.3315 18.4813C15.9263 18.8865 15.9263 19.5435 16.3315 19.9488L18.5328 22.15L16.3315 24.3513C15.9263 24.7565 15.9263 25.4135 16.3315 25.8188C16.7368 26.224 17.3938 26.224 17.799 25.8188L20.0003 23.6175L22.2016 25.8188C22.6068 26.224 23.2638 26.224 23.6691 25.8188C24.0743 25.4135 24.0743 24.7565 23.6691 24.3513L21.4678 22.15L23.6691 19.9488Z" fill="url(#paint0_linear_375_4127)"></path>
  <path d="M30.1487 13.7863C30.5754 13.8539 31.1023 13.8585 32.3618 13.8587C32.2312 11.8669 31.9118 10.5213 31.131 9.44656C30.7043 8.85927 30.1878 8.34279 29.6005 7.9161C28.5258 7.13528 27.1802 6.81592 25.1884 6.6853C25.1886 7.94483 25.1932 8.47167 25.2608 8.89835C25.6593 11.4144 27.6327 13.3878 30.1487 13.7863Z" fill="#FFCA41"></path>
  <defs>
    <linearGradient id="paint0_linear_375_4127" x1="20" y1="6.59497" x2="20" y2="34.2665" gradientUnits="userSpaceOnUse">
      <stop stop-color="#FF8B20"></stop>
      <stop offset="1" stop-color="#FDB572"></stop>
    </linearGradient>
  </defs>
</svg>
