<?xml version="1.0" encoding="UTF-8"?>
<svg xmlns="http://www.w3.org/2000/svg" width="40" height="41" viewBox="0 0 40 41" fill="none">
  <path d="M13.6667 15.6868C13.6667 12.189 16.5022 9.35343 20 9.35343C23.4978 9.35343 26.3333 12.189 26.3333 15.6868C26.3333 19.1846 23.4978 22.0201 20 22.0201C16.5022 22.0201 13.6667 19.1846 13.6667 15.6868Z" fill="#FF8B20"></path>
  <path fill-rule="evenodd" clip-rule="evenodd" d="M18.8616 6.68677H21.1384C23.0795 6.68676 24.6013 6.68676 25.8218 6.79243C27.0651 6.90007 28.0891 7.12302 29.0076 7.62456C30.2975 8.32893 31.3578 9.38924 32.0622 10.6792C32.5638 11.5977 32.7867 12.6217 32.8943 13.8649C33 15.0855 33 16.6072 33 18.5483V22.7532C33 22.8317 33 22.8794 32.9996 22.921C32.9709 25.5778 31.5918 27.9089 29.5204 29.2615C28.3379 30.0336 26.9283 30.4882 25.4161 30.5045C25.3747 30.5049 25.3272 30.5049 25.2494 30.5049L25.2337 30.505L25.2321 30.505C25.1428 30.5054 25.0574 30.5418 24.9951 30.6058L24.5139 31.1057C23.6531 32 22.9367 32.7444 22.2899 33.2558C21.608 33.7948 20.8833 34.1747 20 34.1747C19.1167 34.1747 18.392 33.7948 17.7101 33.2558C17.0633 32.7444 16.3468 32 15.4861 31.1057L15.006 30.6069L15.0049 30.6058C14.9426 30.5418 14.8572 30.5054 14.7679 30.505L14.7663 30.505L14.7506 30.5049C14.6728 30.5049 14.6253 30.5049 14.5839 30.5045C13.0717 30.4882 11.6621 30.0336 10.4796 29.2615C8.40815 27.9089 7.02912 25.5778 7.00045 22.921C7 22.8796 7 22.8321 7 22.7541V18.5483C6.99999 16.6072 6.99999 15.0855 7.10566 13.8649C7.2133 12.6217 7.43625 11.5977 7.9378 10.6792C8.64216 9.38924 9.70247 8.32893 10.9924 7.62456C11.9109 7.12302 12.9349 6.90007 14.1782 6.79243C15.3987 6.68676 16.9205 6.68676 18.8616 6.68677ZM14.3507 8.78498C13.2392 8.8812 12.5258 9.06599 11.9509 9.37992C10.9975 9.90054 10.2138 10.6842 9.69315 11.6377C9.37923 12.2126 9.19444 12.926 9.09821 14.0374C9.00087 15.1616 9 16.597 9 18.5959V22.7467C9 22.8343 9.00002 22.8702 9.00033 22.8994C9.01717 24.4601 9.66366 25.8695 10.7001 26.8853C11.8309 25.1606 13.7814 24.0201 16 24.0201H24C26.2186 24.0201 28.1691 25.1606 29.2999 26.8853C30.3363 25.8695 30.9828 24.4601 30.9997 22.8994C31 22.8702 31 22.8343 31 22.7467V18.5959C31 16.597 30.9991 15.1616 30.9018 14.0374C30.8056 12.926 30.6208 12.2126 30.3068 11.6377C29.7862 10.6842 29.0025 9.90054 28.0491 9.37992C27.4742 9.06599 26.7608 8.8812 25.6493 8.78498C24.5251 8.68764 23.0898 8.68677 21.0909 8.68677H18.9091C16.9102 8.68677 15.4749 8.68764 14.3507 8.78498Z" fill="#FF8B20"></path>
</svg>
