<?xml version="1.0" encoding="UTF-8"?>
<svg xmlns="http://www.w3.org/2000/svg" width="130" height="34" viewBox="0 0 130 34" fill="none">
  <path d="M16.1211 30.2734V4.12598L2.94556 17.098L16.1211 30.2734Z" fill="#B0B7C9"></path>
  <path d="M16.1211 30.2731V17.0975L29.2966 17.0977L16.1211 30.2731Z" fill="#C12559"></path>
  <path d="M16.1211 30.2731V17.0975L29.2966 17.0977L16.1211 30.2731Z" fill="#838DA7"></path>
  <path d="M20.4187 13.6918V4.39091H22.5712V13.6918H20.4187Z" fill="#69748F"></path>
  <path d="M28.9771 6.43709C30.6646 6.43709 31.9401 7.42033 31.9401 9.59938V13.6918H29.8674V9.91827C29.8674 8.76231 29.3359 8.23083 28.4191 8.23083C27.4226 8.23083 26.7051 8.84203 26.7051 10.1574V13.6918H24.6323V6.54339H26.6121V7.38047C27.1701 6.76927 28.0072 6.43709 28.9771 6.43709Z" fill="#69748F"></path>
  <path d="M37.0344 5.36085C36.4232 5.36085 36.091 5.69303 36.091 6.39723V6.70283H37.9246V8.29726H36.1442V13.6918H34.0714V8.29726H32.9686V6.70283H34.0714V6.38395C34.0714 4.77623 35.0547 3.72656 36.8351 3.72656C37.4197 3.72656 38.0309 3.84614 38.4162 4.11188L37.8715 5.61331C37.6456 5.45386 37.3533 5.36085 37.0344 5.36085ZM38.961 3.83286H41.0338V13.6918H38.961V3.83286Z" fill="#69748F"></path>
  <path d="M48.0955 6.54339H50.1682V13.6918H48.2018V12.8414C47.657 13.4659 46.8598 13.798 45.9828 13.798C44.1891 13.798 42.9268 12.7882 42.9268 10.5826V6.54339H44.9996V10.277C44.9996 11.4728 45.5311 12.0043 46.4479 12.0043C47.4045 12.0043 48.0955 11.3931 48.0955 10.0777V6.54339Z" fill="#69748F"></path>
  <path d="M59.0907 10.1441C59.0907 10.3036 59.0641 10.5295 59.0508 10.7022H53.6431C53.8424 11.5924 54.5997 12.1372 55.6892 12.1372C56.4466 12.1372 56.9914 11.9113 57.483 11.4463L58.5858 12.6421C57.9214 13.3994 56.9249 13.798 55.6361 13.798C53.1647 13.798 51.557 12.2435 51.557 10.1176C51.557 7.97838 53.1913 6.43709 55.3704 6.43709C57.4697 6.43709 59.0907 7.84551 59.0907 10.1441ZM55.3836 8.00495C54.4403 8.00495 53.7626 8.57629 53.6165 9.49309H57.1375C56.9914 8.58958 56.3137 8.00495 55.3836 8.00495Z" fill="#69748F"></path>
  <path d="M64.8155 6.43709C66.5029 6.43709 67.7785 7.42033 67.7785 9.59938V13.6918H65.7057V9.91827C65.7057 8.76231 65.1742 8.23083 64.2574 8.23083C63.2609 8.23083 62.5434 8.84203 62.5434 10.1574V13.6918H60.4707V6.54339H62.4504V7.38047C63.0085 6.76927 63.8455 6.43709 64.8155 6.43709Z" fill="#69748F"></path>
  <path d="M73.1898 13.798C70.8646 13.798 69.2037 12.2701 69.2037 10.1176C69.2037 7.96509 70.8646 6.43709 73.1898 6.43709C74.6912 6.43709 75.8737 7.08815 76.3919 8.2574L74.7842 9.12105C74.3989 8.44342 73.8275 8.13782 73.1765 8.13782C72.1268 8.13782 71.303 8.8686 71.303 10.1176C71.303 11.3665 72.1268 12.0973 73.1765 12.0973C73.8275 12.0973 74.3989 11.805 74.7842 11.1141L76.3919 11.991C75.8737 13.1337 74.6912 13.798 73.1898 13.798Z" fill="#69748F"></path>
  <path d="M84.4967 10.1441C84.4967 10.3036 84.4702 10.5295 84.4569 10.7022H79.0491C79.2484 11.5924 80.0058 12.1372 81.0953 12.1372C81.8526 12.1372 82.3974 11.9113 82.889 11.4463L83.9918 12.6421C83.3275 13.3994 82.331 13.798 81.0421 13.798C78.5708 13.798 76.9631 12.2435 76.9631 10.1176C76.9631 7.97838 78.5973 6.43709 80.7764 6.43709C82.8757 6.43709 84.4967 7.84551 84.4967 10.1441ZM80.7897 8.00495C79.8463 8.00495 79.1687 8.57629 79.0225 9.49309H82.5436C82.3974 8.58958 81.7198 8.00495 80.7897 8.00495Z" fill="#69748F"></path>
  <path d="M87.8565 7.48676C88.3614 6.79584 89.2117 6.43709 90.3145 6.43709V8.35041C90.1418 8.33712 90.0089 8.32384 89.8495 8.32384C88.7068 8.32384 87.9495 8.94832 87.9495 10.3169V13.6918H85.8767V6.54339H87.8565V7.48676Z" fill="#69748F"></path>
  <path d="M42.18 26.8307H40.9045L40.8912 20.0543L37.5296 25.7013H36.9184L33.5568 20.0942V26.8307H32.2812V17.5298H33.3708L37.2506 24.067L41.0772 17.5298H42.1667L42.18 26.8307Z" fill="#69748F"></path>
  <path d="M47.2168 19.7222C49.1434 19.7222 50.2329 20.6522 50.2329 22.5788V26.8307H49.0238V25.9006C48.5986 26.5383 47.8147 26.9104 46.7119 26.9104C45.1175 26.9104 44.1076 26.06 44.1076 24.8376C44.1076 23.7082 44.8384 22.7781 46.9378 22.7781H48.9574V22.5257C48.9574 21.4495 48.3329 20.825 47.0706 20.825C46.2336 20.825 45.3832 21.1173 44.8384 21.5823L44.307 20.6257C45.0377 20.041 46.0874 19.7222 47.2168 19.7222ZM46.9245 25.9271C47.8811 25.9271 48.6385 25.4887 48.9574 24.6782V23.6949H46.9909C45.7287 23.6949 45.3699 24.1866 45.3699 24.7845C45.3699 25.4887 45.9545 25.9271 46.9245 25.9271Z" fill="#69748F"></path>
  <path d="M53.6829 20.9711C54.1347 20.1473 55.0116 19.7222 56.2473 19.7222V20.9578C56.141 20.9446 56.048 20.9446 55.955 20.9446C54.5865 20.9446 53.7361 21.7816 53.7361 23.3229V26.8307H52.4606V19.7886H53.6829V20.9711Z" fill="#69748F"></path>
  <path d="M63.0678 26.8307L60.4237 23.5488L58.9621 24.9041V26.8307H57.6866V16.9718H58.9621V23.2963L62.802 19.7886H64.3433L61.3803 22.6984L64.6356 26.8307H63.0678Z" fill="#69748F"></path>
  <path d="M71.8072 23.3495C71.8072 23.4558 71.794 23.6152 71.7807 23.7348H66.0673C66.2267 24.9705 67.2233 25.7943 68.6184 25.7943C69.4422 25.7943 70.1331 25.5153 70.6513 24.9439L71.3555 25.7677C70.7177 26.5118 69.7478 26.9104 68.5785 26.9104C66.3065 26.9104 64.7917 25.409 64.7917 23.3096C64.7917 21.2236 66.2932 19.7222 68.3261 19.7222C70.359 19.7222 71.8072 21.1837 71.8072 23.3495ZM68.3261 20.7984C67.1037 20.7984 66.2002 21.6222 66.0673 22.818H70.5848C70.452 21.6355 69.5618 20.7984 68.3261 20.7984Z" fill="#69748F"></path>
  <path d="M77.0065 25.502L77.4051 26.4188C77.0198 26.7509 76.4351 26.9104 75.8638 26.9104C74.4421 26.9104 73.6316 26.1265 73.6316 24.7048V20.8383H72.4358V19.7886H73.6316V18.2473H74.9071V19.7886H76.9268V20.8383H74.9071V24.6516C74.9071 25.409 75.3057 25.8341 76.01 25.8341C76.382 25.8341 76.7407 25.7146 77.0065 25.502Z" fill="#69748F"></path>
  <path d="M79.4521 18.4333C78.9605 18.4333 78.5884 18.0746 78.5884 17.6095C78.5884 17.1445 78.9605 16.7725 79.4521 16.7725C79.9437 16.7725 80.3158 17.1312 80.3158 17.583C80.3158 18.0613 79.957 18.4333 79.4521 18.4333ZM78.8143 26.8307V19.7886H80.0899V26.8307H78.8143Z" fill="#69748F"></path>
  <path d="M86.1526 19.7222C87.8667 19.7222 89.0758 20.7054 89.0758 22.7781V26.8307H87.8002V22.9243C87.8002 21.5425 87.1093 20.8648 85.9002 20.8648C84.5449 20.8648 83.668 21.6753 83.668 23.2033V26.8307H82.3925V19.7886H83.6148V20.8515C84.133 20.1341 85.0365 19.7222 86.1526 19.7222Z" fill="#69748F"></path>
  <path d="M96.8698 19.7886H98.0789V25.874C98.0789 28.3587 96.8167 29.488 94.425 29.488C93.1362 29.488 91.8341 29.1293 91.0634 28.4384L91.6746 27.4551C92.3257 28.0132 93.3488 28.3719 94.3851 28.3719C96.046 28.3719 96.8034 27.6013 96.8034 26.0069V25.4488C96.1922 26.1796 95.2754 26.5383 94.2656 26.5383C92.2327 26.5383 90.6914 25.1565 90.6914 23.1236C90.6914 21.0907 92.2327 19.7222 94.2656 19.7222C95.3152 19.7222 96.2719 20.1075 96.8698 20.8781V19.7886ZM94.4117 25.4222C95.8201 25.4222 96.8299 24.4789 96.8299 23.1236C96.8299 21.7551 95.8201 20.8383 94.4117 20.8383C92.99 20.8383 91.9802 21.7551 91.9802 23.1236C91.9802 24.4789 92.99 25.4222 94.4117 25.4222Z" fill="#69748F"></path>
  <path d="M107.492 17.5298H108.462V26.8307H107.492V22.539H101.672V26.8307H100.689V17.5298H101.672V21.6753H107.492V17.5298Z" fill="#69748F"></path>
  <path d="M116.52 19.8417H117.463V26.8307H116.56V25.5551C116.068 26.4055 115.165 26.8971 114.049 26.8971C112.268 26.8971 111.099 25.9006 111.099 23.8942V19.8417H112.042V23.8012C112.042 25.2894 112.813 26.0467 114.142 26.0467C115.603 26.0467 116.52 25.1034 116.52 23.5089V19.8417Z" fill="#69748F"></path>
  <path d="M123.573 19.7886C125.566 19.7886 127.054 21.2236 127.054 23.3362C127.054 25.4488 125.566 26.8971 123.573 26.8971C122.417 26.8971 121.447 26.3922 120.876 25.4488V26.8307H119.973V16.9718H120.916V21.1704C121.501 20.2669 122.457 19.7886 123.573 19.7886ZM123.507 26.06C124.982 26.06 126.111 24.9705 126.111 23.3362C126.111 21.7019 124.982 20.6124 123.507 20.6124C122.019 20.6124 120.903 21.7019 120.903 23.3362C120.903 24.9705 122.019 26.06 123.507 26.06Z" fill="#69748F"></path>
</svg>
