<?xml version="1.0" encoding="UTF-8"?>
<svg xmlns="http://www.w3.org/2000/svg" width="130" height="34" viewBox="0 0 130 34" fill="none">
  <g clip-path="url(#clip0_301_3357)">
    <path d="M39.1093 21.5983C37.2512 21.5983 35.5102 20.8096 33.9284 19.5257L34.3136 17.7133L34.3303 17.6461C34.6733 15.7164 35.7614 12.4772 39.1093 12.4772C41.62 12.4772 43.6623 14.5247 43.6623 17.0419C43.6538 19.5508 41.6118 21.5983 39.1093 21.5983ZM39.1093 7.85388C34.8323 7.85388 31.5181 10.6397 30.1708 15.2212C28.1118 12.1248 26.5549 8.40773 25.6428 5.27783H21.0395V17.2852C21.0395 19.6515 19.1145 21.5813 16.7543 21.5813C14.394 21.5813 12.4692 19.6515 12.4692 17.2852V5.27783H7.86553V17.2852C7.84878 22.2025 11.8411 26.2384 16.7456 26.2384C21.6502 26.2384 25.6425 22.2025 25.6425 17.2852V15.2715C26.538 17.1426 27.6343 19.0305 28.9652 20.7088L26.1445 33.9999H30.8567L32.8988 24.3588C34.6898 25.5084 36.7488 26.2301 39.1091 26.2301C44.1558 26.2301 48.2653 22.085 48.2653 17.0251C48.2653 11.9737 44.156 7.85388 39.1093 7.85388Z" fill="#B1B7C9"></path>
    <path d="M62.3178 8.37424L65.289 20.3816L68.5616 8.37424H72.4617L67.4317 25.7267H63.5314L60.4433 13.6437L57.3631 25.7182H53.463L48.4326 8.36596H52.3329L55.6053 20.3734L58.5765 8.36596H62.3176V8.37447L62.3178 8.37424ZM81.7937 7.85397C76.7302 7.85397 72.6292 11.9738 72.6292 17.042C72.6292 22.1186 76.7385 26.2302 81.7937 26.2302C86.8574 26.2302 90.9667 22.1186 90.9667 17.042C90.9667 11.9655 86.8574 7.85397 81.7937 7.85397ZM81.7937 22.4542C78.8143 22.4542 76.4038 20.0376 76.4038 17.0505C76.4038 14.0632 78.8225 11.6467 81.7937 11.6467C84.7733 11.6467 87.1836 14.0632 87.1836 17.0505C87.1836 20.0293 84.7733 22.4542 81.7937 22.4542ZM102.106 12.2593C99.487 12.2593 97.3695 14.3905 97.3695 17.0084V25.7182H93.4439V8.37424H97.3695V11.0425C97.3695 11.0425 99.0433 8.36574 102.483 8.36574H103.688V12.2593H102.106ZM115.28 16.3708C118.067 14.7932 119.959 11.7976 119.959 8.36574H116.033C116.033 11.2606 113.69 13.6101 110.802 13.6101H110.275V0H106.35V25.718H110.275V17.5455H110.744C111.129 17.5455 111.631 17.7973 111.857 18.1076L117.431 25.7182H122.135L115.28 16.3708Z" fill="#838DA7"></path>
  </g>
  <defs>
    <clipPath id="clip0_301_3357">
      <rect width="130" height="34" fill="white"></rect>
    </clipPath>
  </defs>
</svg>
