<?xml version="1.0" encoding="UTF-8"?>
<svg xmlns="http://www.w3.org/2000/svg" width="99" height="68" viewBox="0 0 99 68" fill="none">
  <g filter="url(#filter0_d_1079_3201)">
    <rect x="4" y="13.1558" width="88.2252" height="50.4144" rx="3" transform="rotate(-8.57569 4 13.1558)" fill="#FFD872"></rect>
    <rect x="5.13794" y="13.9955" width="86.2252" height="48.4144" rx="2" transform="rotate(-8.57569 5.13794 13.9955)" stroke="black" stroke-width="2"></rect>
    <path d="M27.2119 31.9951L23.1271 23.0497L25.2862 22.724L27.8133 28.9865L27.8909 28.9748L28.6186 22.2215L30.4674 21.9427L33.1517 28.1954L33.2339 28.1831L33.7997 21.4402L35.9589 21.1146L34.6937 30.8668L32.7673 31.1573L30.0653 25.3134L29.9922 25.3245L29.1383 31.7046L27.2119 31.9951ZM38.9408 30.2264L37.531 20.8775L43.8305 19.9275L44.0762 21.5572L39.7533 22.2091L40.0893 24.4368L44.0881 23.8337L44.3338 25.4634L40.335 26.0664L40.6716 28.2986L45.0128 27.644L45.2586 29.2736L38.9408 30.2264ZM52.4267 28.1927L50.3086 28.5121L52.1261 18.6765L54.6733 18.2924L59.3059 27.1553L57.1878 27.4747L53.7584 20.6153L53.6854 20.6263L52.4267 28.1927ZM51.7402 24.5379L56.7432 23.7834L56.9759 25.3264L51.9728 26.0808L51.7402 24.5379ZM60.9454 26.908L59.5355 17.5592L63.2239 17.003C63.93 16.8965 64.5516 16.9319 65.0888 17.1092C65.6285 17.2831 66.0639 17.58 66.3949 18.0001C66.7285 18.4166 66.9419 18.9338 67.0351 19.5516C67.1287 20.1724 67.0754 20.7267 66.875 21.2144C66.6742 21.6991 66.3376 22.0985 65.8652 22.4125C65.3958 22.7261 64.802 22.937 64.0838 23.0453L61.6142 23.4177L61.3746 21.8291L63.5247 21.5049C63.902 21.448 64.2077 21.349 64.4416 21.2079C64.6756 21.0668 64.8378 20.8836 64.9283 20.6583C65.0219 20.4325 65.0455 20.166 64.9992 19.8586C64.9524 19.5482 64.8505 19.2959 64.6936 19.1017C64.5397 18.907 64.3283 18.7739 64.0592 18.7025C63.7926 18.6275 63.4692 18.6187 63.0888 18.6761L61.7558 18.8771L62.9219 26.61L60.9454 26.908ZM65.3525 21.8922L68.3176 25.7963L66.1356 26.1253L63.2207 22.2137L65.3525 21.8922ZM69.8954 25.5583L68.4856 16.2095L74.7851 15.2595L75.0309 16.8892L70.7079 17.5411L71.0439 19.7687L75.0427 19.1657L75.2884 20.7954L71.2896 21.3984L71.6262 23.6306L75.9674 22.976L76.2132 24.6056L69.8954 25.5583ZM28.0206 48.0541L26.6108 38.7052L28.5873 38.4071L29.169 42.2644L33.1815 41.6594L32.5999 37.802L34.5719 37.5047L35.9817 46.8535L34.0097 47.1509L33.4273 43.289L29.4148 43.8941L29.9972 47.756L28.0206 48.0541ZM38.6923 36.8833L40.1021 46.2321L38.1255 46.5302L36.7157 37.1814L38.6923 36.8833ZM42.2425 45.9094L40.8327 36.5605L44.5211 36.0043C45.2272 35.8978 45.8488 35.9332 46.386 36.1106C46.9257 36.2844 47.3611 36.5813 47.6921 37.0014C48.0257 37.418 48.2391 37.9351 48.3323 38.5529C48.4259 39.1737 48.3725 39.728 48.1722 40.2158C47.9714 40.7005 47.6348 41.0998 47.1624 41.4138C46.693 41.7274 46.0992 41.9383 45.381 42.0466L42.9114 42.419L42.6718 40.8305L44.8219 40.5062C45.1992 40.4493 45.5049 40.3503 45.7388 40.2092C45.9728 40.0681 46.135 39.8849 46.2255 39.6596C46.3191 39.4339 46.3427 39.1673 46.2963 38.8599C46.2495 38.5495 46.1477 38.2972 45.9908 38.103C45.8369 37.9083 45.6254 37.7753 45.3563 37.7038C45.0898 37.6288 44.7663 37.62 44.3859 37.6774L43.053 37.8784L44.2191 45.6113L42.2425 45.9094ZM46.6497 40.8935L49.6148 44.7976L47.4328 45.1267L44.5179 41.215L46.6497 40.8935ZM51.7594 34.9128L53.1692 44.2616L51.1926 44.5597L49.7828 35.2108L51.7594 34.9128ZM61.7194 33.4108L63.1292 42.7596L61.422 43.0171L56.4673 37.7463L56.3989 37.7566L57.2862 43.6407L55.3096 43.9388L53.8998 34.59L55.6344 34.3284L60.5564 39.5994L60.6386 39.587L59.7519 33.7075L61.7194 33.4108ZM70.5215 35.1741C70.424 34.9615 70.3047 34.7788 70.1633 34.6258C70.0215 34.4698 69.858 34.345 69.6727 34.2516C69.49 34.1547 69.2873 34.0903 69.0647 34.0585C68.8451 34.0263 68.6074 34.0294 68.3518 34.068C67.874 34.14 67.4719 34.322 67.1456 34.614C66.8223 34.9055 66.5944 35.2932 66.4619 35.7769C66.329 36.2576 66.3116 36.8236 66.4098 37.4748C66.508 38.1261 66.6905 38.665 66.9571 39.0917C67.2238 39.5183 67.5563 39.8246 67.9547 40.0104C68.3526 40.1931 68.7981 40.2473 69.2911 40.173C69.7385 40.1055 70.1085 39.9688 70.4011 39.7628C70.6963 39.5534 70.9056 39.2899 71.0289 38.9725C71.1553 38.6547 71.1884 38.2964 71.1283 37.8978L71.5389 37.8965L69.1287 38.26L68.9043 36.7718L72.8164 36.1819L72.994 37.3596C73.1179 38.1813 73.0509 38.9135 72.793 39.5562C72.5346 40.1959 72.1252 40.7214 71.5648 41.1327C71.0038 41.541 70.3308 41.8043 69.5456 41.9227C68.6692 42.0549 67.8701 41.9778 67.1484 41.6913C66.4262 41.4018 65.8256 40.9275 65.3465 40.2683C64.8699 39.6056 64.5573 38.7813 64.4086 37.7953C64.2943 37.0375 64.302 36.3454 64.4316 35.7189C64.5638 35.0889 64.7981 34.537 65.1343 34.063C65.4706 33.589 65.8872 33.204 66.3841 32.9081C66.8811 32.6121 67.4384 32.4176 68.0562 32.3244C68.5857 32.2446 69.0904 32.2478 69.5703 32.3342C70.0497 32.4175 70.4871 32.5726 70.8823 32.7993C71.2806 33.0256 71.6215 33.315 71.905 33.6675C72.188 34.017 72.3963 34.4182 72.53 34.8712L70.5215 35.1741ZM76.908 31.1203L77.6399 37.5834L75.5583 37.8973L74.3517 31.5058L76.908 31.1203ZM77.0617 40.808C76.7086 40.8612 76.3873 40.7836 76.0975 40.5752C75.8103 40.3633 75.6414 40.0791 75.5908 39.7225C75.5354 39.3761 75.6139 39.0608 75.8263 38.7766C76.0417 38.492 76.3259 38.3231 76.6789 38.2699C77.0137 38.2194 77.3275 38.2982 77.6203 38.5061C77.9161 38.7136 78.0917 38.9906 78.1471 39.3371C78.1798 39.5749 78.15 39.8004 78.0577 40.0135C77.9679 40.2231 77.8359 40.4002 77.6616 40.5448C77.4868 40.6863 77.2869 40.774 77.0617 40.808Z" fill="#161B26"></path>
  </g>
  <defs>
    <filter id="filter0_d_1079_3201" x="0" y="0" width="98.7565" height="68.0065" color-interpolation-filters="sRGB">
      <feFlood flood-opacity="0" result="BackgroundImageFix"></feFlood>
      <feColorMatrix in="SourceAlpha" type="matrix" values="0 0 0 0 0 0 0 0 0 0 0 0 0 0 0 0 0 0 127 0" result="hardAlpha"></feColorMatrix>
      <feOffset dx="-4" dy="5"></feOffset>
      <feComposite in2="hardAlpha" operator="out"></feComposite>
      <feColorMatrix type="matrix" values="0 0 0 0 0.0862745 0 0 0 0 0.105882 0 0 0 0 0.14902 0 0 0 1 0"></feColorMatrix>
      <feBlend mode="normal" in2="BackgroundImageFix" result="effect1_dropShadow_1079_3201"></feBlend>
      <feBlend mode="normal" in="SourceGraphic" in2="effect1_dropShadow_1079_3201" result="shape"></feBlend>
    </filter>
  </defs>
</svg>
