<?xml version="1.0" encoding="UTF-8"?>
<svg xmlns="http://www.w3.org/2000/svg" width="39" height="38" viewBox="0 0 39 38" fill="none">
  <g clip-path="url(#clip0_16_11273)">
    <path fill-rule="evenodd" clip-rule="evenodd" d="M23.9841 2.22437C26.1246 2.22436 27.8029 2.22435 29.1517 2.33456C30.5252 2.44677 31.6599 2.67907 32.6869 3.20236C34.3753 4.06263 35.7479 5.43532 36.6082 7.12369C37.1315 8.15072 37.3638 9.28538 37.476 10.6589C37.5862 12.0076 37.5862 13.6858 37.5862 15.8263V15.9314C37.5862 18.0718 37.5862 19.7502 37.476 21.0989C37.3638 22.4724 37.1315 23.6071 36.6082 24.6341C35.7479 26.3225 34.3753 27.6951 32.6869 28.5554C31.6599 29.0787 30.5252 29.311 29.1517 29.4232C27.8029 29.5334 26.1248 29.5334 23.9843 29.5334H20.4205V32.3953C21.3949 32.4635 22.3647 32.6168 23.3188 32.8553L25.7761 33.4696C26.4032 33.6264 26.7844 34.2619 26.6276 34.889C26.4709 35.516 25.8354 35.8973 25.2083 35.7405L22.7511 35.1262C21.6018 34.8389 20.426 34.6952 19.2501 34.6952C18.0743 34.6952 16.8985 34.8389 15.7492 35.1262L13.2919 35.7405C12.6648 35.8973 12.0294 35.516 11.8726 34.889C11.7159 34.2619 12.0971 33.6264 12.7242 33.4696L15.1815 32.8553C16.1356 32.6168 17.1054 32.4635 18.0797 32.3953V29.5334H14.5161C12.3757 29.5334 10.6973 29.5334 9.34856 29.4232C7.97508 29.311 6.84041 29.0787 5.81339 28.5554C4.12502 27.6951 2.75233 26.3225 1.89206 24.6341C1.36876 23.6071 1.13647 22.4724 1.02425 21.0989C0.91405 19.7501 0.914056 18.0719 0.914063 15.9313V15.8265C0.914056 13.6859 0.91405 12.0077 1.02425 10.6589C1.13647 9.28538 1.36876 8.15072 1.89206 7.12369C2.75233 5.43532 4.12502 4.06263 5.81339 3.20236C6.84041 2.67907 7.97508 2.44677 9.34856 2.33456C10.6974 2.22435 12.3756 2.22436 14.5162 2.22437H23.9841ZM18.0797 23.6815C18.0797 24.3279 18.6038 24.8519 19.2501 24.8519H28.6132C29.2596 24.8519 29.7836 24.3279 29.7836 23.6815C29.7836 23.0351 29.2596 22.5111 28.6132 22.5111L19.2501 22.5111C18.6037 22.5111 18.0797 23.0351 18.0797 23.6815ZM13.0081 23.6815C13.0081 24.5433 12.3094 25.242 11.4476 25.242C10.5857 25.242 9.88704 24.5433 9.88704 23.6815C9.88704 22.8196 10.5857 22.121 11.4476 22.121C12.3094 22.121 13.0081 22.8196 13.0081 23.6815Z" fill="white"></path>
  </g>
  <defs>
    <clipPath id="clip0_16_11273">
      <rect x="0.25" width="38" height="38" rx="6" fill="white"></rect>
    </clipPath>
  </defs>
</svg>
