<?xml version="1.0" encoding="UTF-8"?>
<svg xmlns="http://www.w3.org/2000/svg" width="31" height="30" viewBox="0 0 31 30" fill="none">
  <path d="M24.8791 6.11252L17.5541 2.85002C16.4791 2.37502 14.8541 2.37502 13.7791 2.85002L6.4541 6.11252C4.6041 6.93752 4.3291 8.06252 4.3291 8.66252C4.3291 9.26252 4.6041 10.3875 6.4541 11.2125L13.7791 14.475C14.3166 14.7125 14.9916 14.8375 15.6666 14.8375C16.3416 14.8375 17.0166 14.7125 17.5541 14.475L24.8791 11.2125C26.7291 10.3875 27.0041 9.26252 27.0041 8.66252C27.0041 8.06252 26.7416 6.93752 24.8791 6.11252Z" fill="#161B26"></path>
  <path d="M15.6674 21.3C15.1924 21.3 14.7174 21.2 14.2799 21.0125L5.85488 17.2625C4.56738 16.6875 3.56738 15.15 3.56738 13.7375C3.56738 13.225 3.97988 12.8125 4.49238 12.8125C5.00488 12.8125 5.41738 13.225 5.41738 13.7375C5.41738 14.4125 5.97988 15.2875 6.60488 15.5625L15.0299 19.3125C15.4299 19.4875 15.8924 19.4875 16.2924 19.3125L24.7174 15.5625C25.3424 15.2875 25.9049 14.425 25.9049 13.7375C25.9049 13.225 26.3174 12.8125 26.8299 12.8125C27.3424 12.8125 27.7549 13.225 27.7549 13.7375C27.7549 15.1375 26.7549 16.6875 25.4674 17.2625L17.0424 21.0125C16.6174 21.2 16.1424 21.3 15.6674 21.3Z" fill="#161B26"></path>
  <path d="M15.6674 27.5C15.1924 27.5 14.7174 27.4 14.2799 27.2125L5.85488 23.4625C4.46738 22.85 3.56738 21.4625 3.56738 19.9375C3.56738 19.425 3.97988 19.0125 4.49238 19.0125C5.00488 19.0125 5.41738 19.425 5.41738 19.9375C5.41738 20.725 5.87988 21.4375 6.60488 21.7625L15.0299 25.5125C15.4299 25.6875 15.8924 25.6875 16.2924 25.5125L24.7174 21.7625C25.4299 21.45 25.9049 20.725 25.9049 19.9375C25.9049 19.425 26.3174 19.0125 26.8299 19.0125C27.3424 19.0125 27.7549 19.425 27.7549 19.9375C27.7549 21.4625 26.8549 22.8375 25.4674 23.4625L17.0424 27.2125C16.6174 27.4 16.1424 27.5 15.6674 27.5Z" fill="#161B26"></path>
</svg>
