<?xml version="1.0" encoding="UTF-8"?>
<svg xmlns="http://www.w3.org/2000/svg" width="39" height="38" viewBox="0 0 39 38" fill="none">
  <path fill-rule="evenodd" clip-rule="evenodd" d="M11.6721 2.12052C13.6749 1.90354 16.1992 1.90355 19.4195 1.90356H19.5782C22.7986 1.90355 25.3229 1.90354 27.3256 2.12052C29.3694 2.34195 31.0253 2.80192 32.4392 3.82916C33.2952 4.45105 34.0479 5.20379 34.6698 6.05975C35.697 7.47363 36.157 9.12959 36.3784 11.1733C36.5954 13.176 36.5954 15.7004 36.5954 18.9207V19.0106C36.5954 20.6489 36.5954 22.1006 36.5688 23.3847C36.4906 27.1619 36.1951 29.841 34.6698 31.9404C34.0479 32.7964 33.2952 33.5491 32.4392 34.171C31.0253 35.1983 29.3694 35.6582 27.3256 35.8797C25.3229 36.0966 22.7986 36.0966 19.5784 36.0966H19.4195C16.1992 36.0966 13.6748 36.0966 11.6721 35.8797C9.62837 35.6582 7.97241 35.1983 6.55853 34.171C5.73363 33.5717 5.0046 32.8509 4.39617 32.0332C4.37325 32.0024 4.35051 31.9715 4.32794 31.9404C3.3007 30.5266 2.84073 28.8706 2.6193 26.8268C2.40232 24.8241 2.40233 22.2998 2.40234 19.0794V18.9207C2.40233 15.7004 2.40232 13.1761 2.6193 11.1733C2.84073 9.12959 3.3007 7.47363 4.32794 6.05975C4.94983 5.20379 5.70257 4.45105 6.55853 3.82916C7.97241 2.80192 9.62837 2.34195 11.6721 2.12052ZM33.957 22.0716L33.8464 21.9649C33.3626 21.5001 33.005 21.1855 32.6687 20.9467C28.9008 18.2715 23.7034 18.9799 20.789 22.566C20.437 22.9991 20.0847 23.5762 19.5308 24.545L18.6221 24.2606C16.5258 23.8413 15.4776 23.6317 14.5156 23.6521C11.9411 23.7068 9.52074 24.8905 7.89697 26.8892C7.35567 27.5554 6.91681 28.3882 6.14958 29.9179C6.2442 30.0853 6.34615 30.2434 6.45585 30.3944L6.50627 30.463C6.95599 31.0673 7.49484 31.6001 8.10454 32.0431C8.99532 32.6903 10.1355 33.0676 11.9554 33.2647C13.8 33.4646 16.182 33.4664 19.4989 33.4664C22.8157 33.4664 25.1977 33.4646 27.0423 33.2647C28.8623 33.0676 30.0024 32.6903 30.8932 32.0431C31.5259 31.5835 32.0822 31.0271 32.5419 30.3944C33.5268 29.0388 33.8599 27.1584 33.9391 23.3303C33.9475 22.9289 33.9531 22.5099 33.957 22.0716ZM17.7454 17.2466C15.8085 17.2466 14.2384 15.6765 14.2384 13.7396C14.2384 11.8028 15.8085 10.2326 17.7454 10.2326C19.6822 10.2326 21.2524 11.8028 21.2524 13.7396C21.2524 15.6765 19.6822 17.2466 17.7454 17.2466Z" fill="white"></path>
</svg>
