<?xml version="1.0" encoding="UTF-8"?>
<svg xmlns="http://www.w3.org/2000/svg" width="39" height="38" viewBox="0 0 39 38" fill="none">
  <path fill-rule="evenodd" clip-rule="evenodd" d="M13.9526 0.749074C10.2795 1.81751 7.01398 3.9689 4.58265 6.92224C2.15132 9.87557 0.667218 13.4935 0.324219 17.3035H9.00993C9.51346 11.5059 11.1944 5.87202 13.9499 0.74636L13.9526 0.749074ZM9.00993 20.6964H0.324219C0.666501 24.5065 2.14996 28.1248 4.58082 31.0786C7.01167 34.0324 10.2769 36.1844 13.9499 37.2535C11.1944 32.1278 9.51346 26.4939 9.00993 20.6964ZM18.3036 37.9782C15.0107 32.7599 12.9929 26.8395 12.4136 20.6964H26.0801C25.5009 26.8395 23.4831 32.7599 20.1901 37.9782C19.5616 38.0087 18.9321 38.0087 18.3036 37.9782ZM24.5465 37.2508C28.2191 36.1819 31.4841 34.0303 33.9149 31.077C36.3457 28.1237 37.8294 24.506 38.1722 20.6964H29.4865C28.983 26.4939 27.302 32.1278 24.5465 37.2535V37.2508ZM29.4865 17.3035H38.1722C37.8299 13.4934 36.3465 9.87508 33.9156 6.92126C31.4848 3.96743 28.2195 1.81542 24.5465 0.74636C27.3021 5.87199 28.983 11.5059 29.4865 17.3035ZM18.3036 0.0216456C18.933 -0.00916832 19.5635 -0.00916832 20.1928 0.0216456C23.4848 5.24016 25.5017 11.1606 26.0801 17.3035H12.4164C13.0054 11.1231 15.0275 5.19779 18.3036 0.0216456Z" fill="white"></path>
</svg>
