<svg width="512" height="512" viewBox="0 0 512 512" fill="none" xmlns="http://www.w3.org/2000/svg">
<path d="M103.145 80.1047C103.145 81.3392 102.654 82.5231 101.781 83.396C100.908 84.2689 99.7246 84.7593 98.4901 84.7593H77.6843C76.4498 84.7593 75.2659 84.2689 74.393 83.396C73.5201 82.5231 73.0298 81.3392 73.0298 80.1047C73.0298 78.8702 73.5201 77.6863 74.393 76.8135C75.2659 75.9406 76.4498 75.4502 77.6843 75.4502H98.4901C99.7246 75.4502 100.908 75.9406 101.781 76.8135C102.654 77.6863 103.145 78.8702 103.145 80.1047ZM142.289 75.4502H121.484C120.249 75.4502 119.065 75.9406 118.192 76.8135C117.319 77.6863 116.829 78.8702 116.829 80.1047C116.829 81.3392 117.319 82.5231 118.192 83.396C119.065 84.2689 120.249 84.7593 121.484 84.7593H142.289C143.524 84.7593 144.708 84.2689 145.581 83.396C146.454 82.5231 146.944 81.3392 146.944 80.1047C146.944 78.8702 146.454 77.6863 145.581 76.8135C144.708 75.9406 143.524 75.4502 142.289 75.4502ZM186.089 75.4502H165.283C164.048 75.4502 162.864 75.9406 161.992 76.8135C161.119 77.6863 160.628 78.8702 160.628 80.1047C160.628 81.3392 161.119 82.5231 161.992 83.396C162.864 84.2689 164.048 84.7593 165.283 84.7593H186.182C187.416 84.7593 188.6 84.2689 189.473 83.396C190.346 82.5231 190.836 81.3392 190.836 80.1047C190.836 78.8702 190.346 77.6863 189.473 76.8135C188.6 75.9406 187.416 75.4502 186.182 75.4502H186.089ZM435.898 75.4502H294.819C293.584 75.4502 292.4 75.9406 291.528 76.8135C290.655 77.6863 290.164 78.8702 290.164 80.1047C290.164 81.3392 290.655 82.5231 291.528 83.396C292.4 84.2689 293.584 84.7593 294.819 84.7593H435.898C437.133 84.7593 438.316 84.2689 439.189 83.396C440.062 82.5231 440.553 81.3392 440.553 80.1047C440.553 78.8702 440.062 77.6863 439.189 76.8135C438.316 75.9406 437.133 75.4502 435.898 75.4502ZM484.073 77.2189V434.781C484.06 445.307 479.873 455.399 472.43 462.842C464.987 470.285 454.896 474.472 444.369 474.484H67.6305C57.1043 474.472 47.0128 470.285 39.5696 462.842C32.1265 455.399 27.9395 445.307 27.9272 434.781V77.2189C27.8576 75.87 27.8576 74.5184 27.9272 73.1694C28.9501 63.3963 33.5526 54.3471 40.8485 47.7644C48.1444 41.1818 57.6178 37.5312 67.4443 37.5156H444.369C454.896 37.5279 464.987 41.7149 472.43 49.158C479.873 56.6012 484.06 66.6927 484.073 77.2189ZM474.764 434.781V122.927H37.2363V434.781C37.2486 442.838 40.4548 450.562 46.1521 456.259C51.8495 461.957 59.5732 465.163 67.6305 465.175H444.369C452.427 465.163 460.15 461.957 465.848 456.259C471.545 450.562 474.751 442.838 474.764 434.781ZM474.764 77.2189C474.751 69.1616 471.545 61.4379 465.848 55.7406C460.15 50.0432 452.427 46.837 444.369 46.8247H67.6305C59.5732 46.837 51.8495 50.0432 46.1521 55.7406C40.4548 61.4379 37.2486 69.1616 37.2363 77.2189V113.431H474.764V77.2189ZM406.854 183.808H425.472C426.706 183.808 427.89 183.318 428.763 182.445C429.636 181.572 430.126 180.388 430.126 179.153C430.126 177.919 429.636 176.735 428.763 175.862C427.89 174.989 426.706 174.499 425.472 174.499H406.854C405.619 174.499 404.435 174.989 403.562 175.862C402.69 176.735 402.199 177.919 402.199 179.153C402.199 180.388 402.69 181.572 403.562 182.445C404.435 183.318 405.619 183.808 406.854 183.808ZM278.435 183.808H372.364C373.598 183.808 374.782 183.318 375.655 182.445C376.528 181.572 377.018 180.388 377.018 179.153C377.018 177.919 376.528 176.735 375.655 175.862C374.782 174.989 373.598 174.499 372.364 174.499H278.435C277.2 174.499 276.016 174.989 275.144 175.862C274.271 176.735 273.78 177.919 273.78 179.153C273.78 180.388 274.271 181.572 275.144 182.445C276.016 183.318 277.2 183.808 278.435 183.808ZM278.435 225.699H425.565C426.799 225.699 427.983 225.208 428.856 224.336C429.729 223.463 430.22 222.279 430.22 221.044C430.22 219.81 429.729 218.626 428.856 217.753C427.983 216.88 426.799 216.39 425.565 216.39H278.435C277.2 216.39 276.016 216.88 275.144 217.753C274.271 218.626 273.78 219.81 273.78 221.044C273.78 222.279 274.271 223.463 275.144 224.336C276.016 225.208 277.2 225.699 278.435 225.699ZM218.996 413.091H71.8661C70.6317 413.091 69.4478 413.581 68.5749 414.454C67.702 415.327 67.2116 416.511 67.2116 417.745C67.2116 418.98 67.702 420.164 68.5749 421.037C69.4478 421.91 70.6317 422.4 71.8661 422.4H218.996C220.231 422.4 221.415 421.91 222.288 421.037C223.16 420.164 223.651 418.98 223.651 417.745C223.651 416.511 223.16 415.327 222.288 414.454C221.415 413.581 220.231 413.091 218.996 413.091ZM218.996 370.316H132.654C131.42 370.316 130.236 370.806 129.363 371.679C128.49 372.552 128 373.736 128 374.97C128 376.205 128.49 377.389 129.363 378.261C130.236 379.134 131.42 379.625 132.654 379.625H218.996C220.231 379.625 221.415 379.134 222.288 378.261C223.16 377.389 223.651 376.205 223.651 374.97C223.651 373.736 223.16 372.552 222.288 371.679C221.415 370.806 220.231 370.316 218.996 370.316ZM71.8661 379.625H107.427C108.661 379.625 109.845 379.134 110.718 378.261C111.591 377.389 112.081 376.205 112.081 374.97C112.081 373.736 111.591 372.552 110.718 371.679C109.845 370.806 108.661 370.316 107.427 370.316H71.8661C70.6317 370.316 69.4478 370.806 68.5749 371.679C67.702 372.552 67.2116 373.736 67.2116 374.97C67.2116 376.205 67.702 377.389 68.5749 378.261C69.4478 379.134 70.6317 379.625 71.8661 379.625ZM119.11 251.345C108.841 246.144 100.624 237.635 95.7852 227.19C90.9468 216.745 89.7694 204.974 92.443 193.778C95.1166 182.581 101.485 172.612 110.521 165.48C119.556 158.348 130.732 154.469 142.243 154.469C153.754 154.469 164.929 158.348 173.965 165.48C183.001 172.612 189.369 182.581 192.043 193.778C194.716 204.974 193.539 216.745 188.701 227.19C183.862 237.635 175.645 246.144 165.376 251.345C179.718 256.012 192.333 264.869 201.592 276.775C210.852 288.681 216.33 303.088 217.321 318.138C217.359 318.772 217.267 319.408 217.05 320.005C216.833 320.603 216.496 321.149 216.06 321.611C215.624 322.074 215.098 322.442 214.514 322.693C213.931 322.944 213.302 323.073 212.666 323.072H71.8661C71.2306 323.073 70.6017 322.944 70.0179 322.693C69.4342 322.442 68.9081 322.074 68.472 321.611C68.036 321.149 67.6992 320.603 67.4824 320.005C67.2656 319.408 67.1734 318.772 67.2116 318.138C68.2173 303.099 73.6958 288.705 82.9435 276.803C92.1913 264.901 104.786 256.036 119.11 251.345ZM142.382 247.622C150.668 247.622 158.767 245.165 165.656 240.562C172.545 235.959 177.914 229.416 181.085 221.762C184.255 214.107 185.085 205.684 183.468 197.558C181.852 189.432 177.862 181.968 172.004 176.11C166.145 170.251 158.681 166.261 150.555 164.645C142.429 163.029 134.006 163.858 126.352 167.029C118.697 170.199 112.154 175.569 107.551 182.458C102.948 189.346 100.492 197.446 100.492 205.731C100.528 216.819 104.929 227.446 112.743 235.313C120.558 243.179 131.156 247.651 142.243 247.761L142.382 247.622ZM77.2188 313.623H207.546C205.182 298.033 197.308 283.808 185.352 273.528C173.396 263.248 158.15 257.595 142.382 257.595C126.615 257.595 111.369 263.248 99.4131 273.528C87.457 283.808 79.5825 298.033 77.2188 313.623ZM441.809 329.449V349.091C441.818 351.887 440.946 354.615 439.316 356.887C437.687 359.16 435.384 360.862 432.733 361.751L417.932 366.685C417.381 366.855 416.876 367.149 416.456 367.544C416.037 367.94 415.713 368.426 415.511 368.966C415.267 369.482 415.14 370.047 415.14 370.618C415.14 371.19 415.267 371.754 415.511 372.271L422.493 386.234C423.735 388.743 424.161 391.578 423.71 394.341C423.259 397.104 421.955 399.657 419.98 401.641L406.016 415.604C404.036 417.586 401.483 418.895 398.718 419.346C395.953 419.797 393.117 419.367 390.609 418.118L376.646 411.136C376.12 410.894 375.549 410.768 374.97 410.768C374.392 410.768 373.82 410.894 373.294 411.136C372.76 411.347 372.278 411.673 371.884 412.092C371.49 412.51 371.193 413.01 371.014 413.556L366.266 428.218C365.419 430.905 363.742 433.254 361.475 434.926C359.208 436.599 356.469 437.51 353.652 437.527H334.103C331.286 437.51 328.547 436.599 326.281 434.926C324.014 433.254 322.336 430.905 321.489 428.218L316.509 413.231C316.33 412.684 316.033 412.184 315.639 411.766C315.245 411.347 314.763 411.021 314.228 410.81C313.703 410.568 313.131 410.443 312.553 410.443C311.974 410.443 311.402 410.568 310.877 410.81L296.913 417.792C294.413 419.038 291.584 419.465 288.828 419.014C286.071 418.563 283.526 417.256 281.553 415.279L267.59 401.315C265.741 399.339 264.534 396.85 264.127 394.174C263.72 391.499 264.132 388.764 265.309 386.327L272.291 372.364C272.535 371.847 272.662 371.283 272.662 370.711C272.662 370.14 272.535 369.575 272.291 369.059C272.089 368.519 271.765 368.033 271.346 367.637C270.926 367.242 270.421 366.948 269.87 366.778L255.069 361.844C252.425 360.932 250.137 359.207 248.532 356.917C246.927 354.627 246.087 351.887 246.132 349.091V329.588C246.117 326.791 246.986 324.059 248.616 321.786C250.247 319.512 252.554 317.811 255.209 316.928L269.964 311.855C270.52 311.685 271.031 311.391 271.458 310.996C271.885 310.601 272.218 310.115 272.43 309.574C272.685 309.06 272.817 308.495 272.817 307.921C272.817 307.348 272.685 306.783 272.43 306.269L265.495 292.305C264.235 289.808 263.8 286.976 264.252 284.216C264.703 281.456 266.019 278.911 268.009 276.945L281.972 262.982C283.934 260.986 286.48 259.666 289.241 259.214C292.003 258.762 294.837 259.201 297.332 260.468L311.296 267.404C311.819 267.655 312.391 267.786 312.972 267.786C313.552 267.786 314.124 267.655 314.647 267.404C315.5 266.953 316.161 266.209 316.509 265.309L321.443 250.508C322.284 247.817 323.959 245.464 326.227 243.79C328.496 242.117 331.238 241.209 334.057 241.199H353.745C356.564 241.209 359.306 242.117 361.575 243.79C363.843 245.464 365.518 247.817 366.359 250.508L371.2 265.309C371.384 265.852 371.684 266.35 372.077 266.767C372.471 267.185 372.949 267.513 373.481 267.729C374.003 267.981 374.576 268.112 375.156 268.112C375.736 268.112 376.309 267.981 376.832 267.729L390.982 260.655C393.479 259.395 396.311 258.959 399.071 259.411C401.831 259.863 404.377 261.178 406.342 263.168L420.305 277.132C422.283 279.104 423.59 281.649 424.041 284.406C424.492 287.163 424.064 289.991 422.819 292.492L415.884 306.455C415.632 306.978 415.501 307.551 415.501 308.131C415.501 308.711 415.632 309.284 415.884 309.807C416.103 310.331 416.433 310.802 416.85 311.187C417.268 311.573 417.764 311.864 418.304 312.041L433.105 316.975C435.648 317.949 437.829 319.682 439.353 321.938C440.877 324.195 441.67 326.866 441.623 329.588L441.809 329.449ZM432.5 329.449C432.504 328.604 432.24 327.78 431.747 327.095C431.253 326.409 430.556 325.897 429.754 325.632L414.999 320.698C413.187 320.094 411.525 319.107 410.128 317.804C408.731 316.5 407.63 314.912 406.902 313.145C406.173 311.379 405.833 309.476 405.905 307.567C405.977 305.658 406.46 303.786 407.319 302.08L414.254 288.582C414.632 287.825 414.763 286.97 414.629 286.135C414.496 285.3 414.104 284.528 413.51 283.927L399.546 269.964C398.945 269.369 398.173 268.978 397.338 268.844C396.504 268.711 395.648 268.842 394.892 269.219L380.928 276.154C379.219 277.013 377.346 277.495 375.435 277.567C373.523 277.639 371.619 277.3 369.85 276.573C368.092 275.832 366.512 274.728 365.212 273.332C363.912 271.936 362.923 270.28 362.31 268.474L357.655 253.719C357.384 252.921 356.87 252.228 356.186 251.735C355.502 251.243 354.681 250.977 353.838 250.973H334.289C333.447 250.977 332.626 251.243 331.942 251.735C331.257 252.228 330.744 252.921 330.473 253.719L325.818 268.474C325.205 270.28 324.216 271.936 322.916 273.332C321.616 274.728 320.035 275.832 318.278 276.573C316.509 277.3 314.604 277.639 312.693 277.567C310.782 277.495 308.909 277.013 307.2 276.154L293.236 269.219C292.48 268.842 291.624 268.711 290.789 268.844C289.955 268.978 289.183 269.369 288.582 269.964L274.618 283.927C274.024 284.528 273.632 285.3 273.499 286.135C273.365 286.97 273.496 287.825 273.873 288.582L280.809 302.545C281.656 304.258 282.131 306.13 282.203 308.04C282.276 309.949 281.943 311.852 281.228 313.623C280.5 315.389 279.4 316.977 278.002 318.278C276.604 319.58 274.942 320.564 273.129 321.164L258.188 325.818C257.386 326.083 256.688 326.595 256.195 327.281C255.702 327.966 255.438 328.79 255.441 329.635V349.091C255.438 349.935 255.702 350.759 256.195 351.445C256.688 352.131 257.386 352.642 258.188 352.908L272.942 357.841C274.76 358.433 276.426 359.414 277.825 360.716C279.224 362.019 280.322 363.611 281.041 365.382C281.776 367.147 282.123 369.05 282.058 370.961C281.994 372.872 281.52 374.747 280.669 376.46L273.687 390.423C273.296 391.176 273.157 392.035 273.291 392.874C273.425 393.712 273.825 394.484 274.432 395.078L288.396 409.041C288.997 409.636 289.769 410.027 290.603 410.161C291.438 410.294 292.294 410.163 293.05 409.786L307.014 402.804C308.864 401.883 310.904 401.404 312.972 401.408C314.715 401.402 316.441 401.75 318.045 402.432C319.813 403.165 321.404 404.266 322.713 405.663C324.021 407.059 325.016 408.719 325.632 410.531L330.286 425.286C330.558 426.084 331.071 426.777 331.755 427.27C332.44 427.762 333.26 428.028 334.103 428.032H353.745C354.588 428.028 355.409 427.762 356.093 427.27C356.777 426.777 357.291 426.084 357.562 425.286L362.217 410.531C362.832 408.719 363.828 407.059 365.136 405.663C366.444 404.266 368.036 403.165 369.804 402.432C371.561 401.695 373.456 401.347 375.36 401.412C377.264 401.476 379.132 401.951 380.835 402.804L394.798 409.786C395.558 410.15 396.41 410.273 397.242 410.14C398.074 410.007 398.845 409.624 399.453 409.041L413.417 395.078C414.024 394.484 414.424 393.712 414.558 392.874C414.692 392.035 414.553 391.176 414.161 390.423L407.18 376.46C406.328 374.747 405.854 372.872 405.79 370.961C405.726 369.05 406.073 367.147 406.807 365.382C407.527 363.611 408.624 362.019 410.023 360.716C411.422 359.414 413.089 358.433 414.906 357.841L429.661 352.908C430.463 352.642 431.16 352.131 431.654 351.445C432.147 350.759 432.411 349.935 432.407 349.091L432.5 329.449ZM391.633 339.223C391.661 348.63 388.899 357.833 383.697 365.67C378.495 373.507 371.086 379.626 362.408 383.253C353.729 386.88 344.169 387.853 334.938 386.048C325.706 384.244 317.217 379.743 310.543 373.114C303.869 366.486 299.31 358.027 297.442 348.808C295.574 339.589 296.481 330.023 300.049 321.32C303.617 312.616 309.685 305.166 317.486 299.911C325.287 294.655 334.471 291.83 343.878 291.793C356.494 291.793 368.593 296.805 377.514 305.726C386.435 314.647 391.447 326.747 391.447 339.363L391.633 339.223ZM382.324 339.223C382.333 331.654 380.097 324.252 375.899 317.954C371.7 311.656 365.728 306.745 358.738 303.842C351.747 300.939 344.053 300.175 336.628 301.646C329.203 303.117 322.382 306.757 317.026 312.106C311.671 317.455 308.022 324.272 306.542 331.695C305.062 339.118 305.817 346.814 308.712 353.808C311.606 360.801 316.51 366.78 322.803 370.986C329.096 375.192 336.495 377.437 344.064 377.437C354.143 377.376 363.792 373.345 370.919 366.218C378.046 359.091 382.077 349.442 382.138 339.363L382.324 339.223ZM358.4 342.435C359.776 344.371 360.449 346.72 360.308 349.091C360.328 351.331 359.662 353.524 358.4 355.375C357.11 357.278 355.323 358.791 353.233 359.75C351.066 360.768 348.732 361.383 346.345 361.565V365.103C346.355 365.447 346.294 365.791 346.166 366.111C346.038 366.431 345.845 366.722 345.6 366.964C345.352 367.199 345.059 367.382 344.74 367.502C344.42 367.621 344.079 367.676 343.738 367.663C343.404 367.675 343.071 367.62 342.759 367.5C342.447 367.38 342.162 367.198 341.923 366.964C341.67 366.727 341.473 366.438 341.344 366.116C341.216 365.794 341.159 365.448 341.178 365.103V361.565C337.156 361.258 333.21 360.299 329.495 358.726C328.867 358.474 328.33 358.035 327.959 357.469C327.617 356.881 327.467 356.2 327.532 355.523C327.596 354.845 327.87 354.205 328.317 353.692C328.764 353.178 329.36 352.818 330.022 352.66C330.684 352.503 331.379 352.557 332.009 352.815C334.953 354.116 338.105 354.889 341.318 355.095V342.481C339.122 341.903 336.975 341.156 334.894 340.247C332.963 339.396 331.269 338.086 329.961 336.431C328.555 334.627 327.83 332.386 327.913 330.1C327.905 327.945 328.467 325.825 329.542 323.956C330.654 322.02 332.26 320.414 334.196 319.302C336.345 318.14 338.702 317.413 341.132 317.161V313.67C341.029 313.09 341.129 312.493 341.414 311.978C341.7 311.464 342.155 311.064 342.701 310.845C343.248 310.627 343.853 310.603 344.415 310.778C344.977 310.954 345.461 311.317 345.786 311.808C346.031 312.051 346.224 312.341 346.352 312.661C346.48 312.982 346.541 313.325 346.531 313.67V317.068C349.932 317.233 353.29 317.908 356.492 319.069C357.15 319.274 357.721 319.691 358.117 320.256C358.513 320.82 358.71 321.499 358.679 322.188C358.683 323.01 358.385 323.805 357.841 324.422C357.557 324.762 357.201 325.035 356.799 325.22C356.396 325.405 355.957 325.498 355.514 325.492C355.079 325.461 354.653 325.351 354.257 325.167C351.763 324.308 349.164 323.791 346.531 323.631V336.524C348.821 337.05 351.062 337.766 353.233 338.665C355.248 339.462 357.026 340.76 358.4 342.435ZM341.457 323.817C339.774 324.065 338.176 324.72 336.803 325.725C336.205 326.173 335.725 326.757 335.4 327.43C335.076 328.102 334.919 328.842 334.941 329.588C334.907 330.269 335.048 330.946 335.349 331.557C335.651 332.168 336.103 332.692 336.663 333.079C338.101 333.995 339.671 334.685 341.318 335.127L341.457 323.817ZM353.373 349.091C353.394 348.477 353.238 347.87 352.925 347.342C352.611 346.815 352.153 346.388 351.604 346.112C349.983 345.187 348.246 344.482 346.438 344.017V355.095C351.092 354.351 353.373 352.349 353.373 349.091Z" fill="url(#paint0_linear_2037_227)"/>
<defs>
<linearGradient id="paint0_linear_2037_227" x1="255.974" y1="37.5156" x2="255.974" y2="474.484" gradientUnits="userSpaceOnUse">
<stop stop-color="#F9CF2F"/>
<stop offset="1" stop-color="#0B559B"/>
</linearGradient>
</defs>
</svg>
