<svg width="108" height="102" viewBox="0 0 108 102" fill="none" xmlns="http://www.w3.org/2000/svg">
<circle cx="54" cy="51" r="51" fill="#F7CE30"/>
<g clip-path="url(#clip0_1851_158)">
<path d="M76.6702 70.2151L79.6276 66.9969C80.4748 66.0749 80.901 65.0188 80.8944 63.8581L80.8235 51.5567C80.8146 49.9966 79.5423 48.7336 77.9839 48.7336H77.9676C77.2113 48.7379 76.5006 49.038 75.9662 49.5785C75.4317 50.119 75.1399 50.8332 75.1442 51.5895L75.1853 58.716C74.1762 58.4629 73.0625 58.7307 72.2763 59.5197L66.8358 64.9801C66.0281 65.7908 65.7024 66.9619 65.8942 68.3665L66.1661 70.3576C65.8922 70.3261 65.6165 70.3823 65.3738 70.5242C65.0776 70.6975 64.8667 70.9753 64.7801 71.3064L64.3163 73.0787C64.137 73.7632 64.5481 74.466 65.2327 74.6454L74.8224 77.1556C74.9304 77.184 75.0399 77.1979 75.1488 77.1979C75.3736 77.1979 75.5958 77.1382 75.7953 77.0215C76.0915 76.8482 76.3023 76.5704 76.3889 76.2392L76.8528 74.4669C76.9395 74.1357 76.8919 73.7902 76.7186 73.4941C76.5453 73.1979 76.2675 72.9871 75.9363 72.9004L75.7952 72.8635C75.7 71.7707 75.9671 70.98 76.6702 70.2151ZM74.8587 75.4207L66.0509 73.1151L66.3102 72.1248L75.118 74.4304L74.8587 75.4207ZM67.9302 70.8045L67.5661 68.1382C67.4466 67.2627 67.603 66.6008 68.0311 66.1712L73.4716 60.7108C74.0025 60.178 74.868 60.1764 75.4008 60.7073C75.9337 61.2382 75.9353 62.1036 75.4044 62.6364L72.4982 65.5532C72.1693 65.8833 72.1703 66.4175 72.5005 66.7464C72.8307 67.0754 73.3649 67.0743 73.6936 66.7442L76.5998 63.8273C77.6826 62.7406 77.7747 61.0357 76.8793 59.8429L76.8317 51.5797C76.8299 51.2742 76.9487 50.9847 77.1662 50.7648C77.3837 50.5448 77.6716 50.4227 77.977 50.421H77.9836C78.616 50.421 79.1322 50.9335 79.1358 51.5664L79.2067 63.8678C79.211 64.6088 78.9499 65.2402 78.3849 65.855L75.4274 69.0731C74.539 70.0401 74.1046 71.1228 74.0935 72.4179L67.9302 70.8045ZM43.2196 71.3064C43.133 70.9753 42.9222 70.6976 42.626 70.5242C42.3833 70.3822 42.1076 70.326 41.8337 70.3575L42.1056 68.3664C42.2974 66.9618 41.9718 65.7907 41.164 64.98L35.7235 59.5196C34.9374 58.7308 33.8236 58.463 32.8146 58.7161L32.8555 51.5895C32.8598 50.8333 32.568 50.119 32.0337 49.5785C31.4993 49.038 30.7885 48.7379 30.0322 48.7336H30.016C28.4577 48.7336 27.1853 49.9967 27.1763 51.5568L27.1055 63.8581C27.0989 65.0189 27.5251 66.075 28.3723 66.9969L31.3297 70.2151C32.0327 70.98 32.2999 71.7706 32.2046 72.8635L32.0636 72.9004C31.7324 72.9871 31.4545 73.1979 31.2813 73.4941C31.108 73.7902 31.0603 74.1356 31.147 74.4668L31.611 76.2392C31.6977 76.5704 31.9085 76.8481 32.2046 77.0214C32.4043 77.1381 32.6263 77.1979 32.8512 77.1979C32.96 77.1979 33.0696 77.1839 33.1775 77.1556L42.7673 74.6453C43.4518 74.4661 43.8629 73.7633 43.6838 73.0788L43.2196 71.3064ZM32.5721 69.0731L29.6146 65.8549C29.0498 65.2402 28.7885 64.6088 28.7928 63.8677L28.8636 51.5664C28.8673 50.9335 29.3836 50.421 30.0159 50.421H30.0224C30.3278 50.4227 30.6159 50.5448 30.8332 50.7647C31.0507 50.9847 31.1695 51.2741 31.1677 51.5797L31.1202 59.8428C30.2248 61.0355 30.317 62.7405 31.3997 63.8272L34.3059 66.7441C34.6349 67.0742 35.1691 67.0751 35.4991 66.7463C35.8292 66.4174 35.8301 65.8831 35.5013 65.5531L32.5951 62.6363C32.0643 62.1034 32.0657 61.2381 32.5986 60.7071C33.1314 60.1762 33.9969 60.1779 34.5278 60.7106L39.9683 66.1711C40.3965 66.6007 40.5529 67.2626 40.4334 68.1381L40.0693 70.8044L33.9059 72.4179C33.8947 71.1227 33.4606 70.04 32.5721 69.0731ZM33.1409 75.4207L32.8816 74.4304L41.6894 72.1248L41.9487 73.1151L33.1409 75.4207ZM68.3756 61.571C68.9235 61.023 68.9234 60.1314 68.3756 59.5834L67.2156 58.4234C68.0185 57.096 68.6098 55.6692 68.9801 54.1665H70.6193C71.3943 54.1665 72.0249 53.5359 72.0249 52.7609V50.5787C72.0249 50.1127 71.6471 49.7349 71.1811 49.7349H65.1954C64.7294 49.7349 64.3516 50.1127 64.3516 50.5787C64.3516 56.2866 59.7078 60.9303 54 60.9303C48.2921 60.9303 43.6483 56.2865 43.6483 50.5787C43.6483 50.1127 43.2705 49.7349 42.8046 49.7349H36.8188C36.3528 49.7349 35.975 50.1127 35.975 50.5787V52.7609C35.975 53.5359 36.6056 54.1665 37.3806 54.1665H39.0196C39.3901 55.6699 39.9815 57.0967 40.7841 58.4236L39.6243 59.5835C39.0764 60.1314 39.0762 61.023 39.6243 61.5711L42.8844 64.8314C43.1497 65.0967 43.5026 65.2427 43.8783 65.2427C44.2541 65.2427 44.607 65.0967 44.8722 64.8315L46.0321 63.6717C47.3596 64.4745 48.7864 65.066 50.2892 65.4363V67.0751C50.2892 67.8501 50.9197 68.4807 51.6946 68.4807H56.3053C57.0803 68.4807 57.7108 67.8501 57.7108 67.0751V65.4362C59.2141 65.0656 60.6409 64.4742 61.9678 63.6716L63.1277 64.8315C63.6757 65.3793 64.5674 65.3793 65.1153 64.8315L68.3756 61.571ZM64.1214 63.4388L62.6827 62.0001C62.3982 61.7155 61.9523 61.6714 61.6177 61.8949C60.119 62.8953 58.465 63.5809 56.7019 63.9325C56.3073 64.0112 56.0232 64.3575 56.0232 64.7599V66.7931H51.9766V64.7599C51.9766 64.3575 51.6924 64.0111 51.2978 63.9324C49.5356 63.5811 47.8816 62.8956 46.382 61.8949C46.0473 61.6717 45.6016 61.7156 45.317 62.0002L43.8783 63.4389L41.0169 60.5774L42.4556 59.1387C42.7401 58.8543 42.7841 58.4083 42.5607 58.0737C41.5604 56.575 40.8748 54.9209 40.5233 53.1579C40.4446 52.7633 40.0981 52.4791 39.6958 52.4791H37.6624V51.4225H41.9899C42.4245 57.6688 47.6451 62.6179 53.9999 62.6179C60.3547 62.6179 65.5753 57.6688 66.0098 51.4225H70.3373V52.4791H68.3039C67.9015 52.4791 67.555 52.7632 67.4763 53.1579C67.125 54.9201 66.4396 56.574 65.4389 58.0736C65.2155 58.4082 65.2596 58.8541 65.5442 59.1385L66.9829 60.5773L64.1214 63.4388ZM36.1822 46.4947H46.0594L45.6911 52.3709C45.6387 53.2066 45.9364 54.0144 46.5291 54.6455C47.1599 55.3172 48.049 55.7023 48.9682 55.7023C49.8873 55.7023 50.7764 55.3172 51.4072 54.6455C52.0001 54.0145 52.2977 53.2066 52.2453 52.3709L51.877 46.4947H54.9045C54.9726 46.8551 55.1861 47.1643 55.4819 47.359L54.5086 51.9966C54.3334 52.8319 54.5601 53.69 55.1471 54.4129C56.0223 55.4909 57.6239 56.1875 59.2273 56.1875C60.8308 56.1875 62.4323 55.4909 63.3076 54.4128C63.8945 53.6899 64.1212 52.8318 63.946 51.9966L62.9728 47.359C63.2687 47.1643 63.4821 46.8551 63.5503 46.4947H71.8175C75.0489 46.4947 77.6777 43.8658 77.6777 40.6345C77.6777 39.116 77.094 37.6739 76.0343 36.574C75.1471 35.6533 74.0081 35.0563 72.7714 34.8526C72.4956 33.2912 71.7194 31.8603 70.5428 30.7673C69.1841 29.505 67.4138 28.8097 65.5581 28.8097C63.9197 28.8097 62.364 29.3469 61.0989 30.3206C60.2905 27.1538 57.4105 24.8027 53.9997 24.8027C50.5888 24.8027 47.7089 27.1538 46.9006 30.3206C45.6355 29.347 44.0797 28.8098 42.4414 28.8098C40.5857 28.8098 38.8154 29.5051 37.4567 30.7674C36.2802 31.8604 35.5039 33.2913 35.2281 34.8527C33.9915 35.0564 32.8525 35.6534 31.9653 36.5741C30.9056 37.6739 30.3219 39.116 30.3219 40.6346C30.3219 43.866 32.9508 46.4947 36.1822 46.4947ZM48.0267 42.082C48.0489 41.7389 47.8595 41.4171 47.5495 41.2685C46.4155 40.7245 45.6827 39.561 45.6827 38.3041C45.6827 37.5776 45.9271 36.8828 46.3522 36.3208V37.9403C46.3522 38.1996 46.4714 38.4445 46.6755 38.6044L48.4478 39.9935C48.7533 40.233 49.1832 40.233 49.4888 39.9935L51.2611 38.6044C51.4651 38.4444 51.5843 38.1996 51.5843 37.9403V36.3207C52.0095 36.8828 52.2538 37.5775 52.2538 38.3041C52.2538 39.561 51.521 40.7245 50.3869 41.2684C50.077 41.4171 49.8882 41.7389 49.9097 42.082L50.5612 52.4765C50.584 52.8423 50.4478 53.2023 50.1774 53.4902C49.8641 53.8236 49.4235 54.0148 48.9683 54.0148C48.5131 54.0148 48.0723 53.8236 47.7592 53.4902C47.4888 53.2023 47.3525 52.8422 47.3754 52.4765C47.3754 52.4765 47.3553 52.4765 48.0267 42.082ZM58.4127 38.078L58.1501 37.3043L58.8743 34.9323H59.5914L60.3057 37.3069L60.055 38.053C60.0259 38.1396 60.0111 38.2304 60.0111 38.3218V43.4054H58.4574V38.3492C58.4574 38.257 58.4422 38.1653 58.4127 38.078ZM61.8867 45.0928V45.8904H56.568V45.0928H61.8867ZM61.9977 53.349C61.4388 54.0374 60.3255 54.4999 59.2274 54.4999C58.1294 54.4999 57.0162 54.0374 56.4573 53.3491C56.1894 53.0192 56.0895 52.6808 56.1604 52.3431L57.1603 47.5778H61.2945L62.2945 52.3431C62.3653 52.6807 62.2655 53.0191 61.9977 53.349ZM36.0138 36.4656C36.4409 36.4484 36.7877 36.1145 36.821 35.6884C37.0489 32.7774 39.5176 30.4972 42.4415 30.4972C44.1706 30.4972 45.7803 31.2747 46.8578 32.6304C47.0807 32.9109 47.4566 33.0199 47.795 32.9025C48.1335 32.785 48.3609 32.4666 48.3621 32.1083C48.3728 29.0104 50.9019 26.4901 53.9999 26.4901C57.0978 26.4901 59.627 29.0104 59.6377 32.1083C59.639 32.4666 59.8662 32.7851 60.2048 32.9025C60.5431 33.02 60.9189 32.911 61.142 32.6304C62.2196 31.2747 63.8292 30.4971 65.5583 30.4971C68.4821 30.4971 70.9509 32.7773 71.1788 35.6883C71.2122 36.1145 71.5589 36.4483 71.9861 36.4655C74.1941 36.5542 75.9903 38.4243 75.9903 40.6343C75.9903 42.9351 74.1185 44.807 71.8176 44.807H63.5743V44.7359C63.5743 44.0022 62.9774 43.4052 62.2436 43.4052H61.6987V38.4597L61.991 37.5898C62.0467 37.4241 62.0496 37.2452 61.9992 37.0778L61.0268 33.8453C60.9196 33.4887 60.5912 33.2447 60.2188 33.2447H58.2499C57.8788 33.2447 57.5513 33.4871 57.443 33.842L56.4569 37.0714C56.4053 37.2406 56.408 37.4215 56.4649 37.5889L56.7701 38.4883V43.4052H56.2114C55.4777 43.4052 54.8807 44.0022 54.8807 44.7359V44.807H51.7714L51.6272 42.5065C53.0494 41.6025 53.9414 40.0101 53.9414 38.3039C53.9414 36.3954 52.8274 34.6321 51.1033 33.8116C50.8419 33.6872 50.535 33.7055 50.2901 33.8601C50.0453 34.0146 49.8969 34.284 49.8969 34.5735V37.5294L48.9684 38.2573L48.0398 37.5294V34.5735C48.0398 34.284 47.8914 34.0147 47.6466 33.8601C47.4018 33.7056 47.0949 33.6873 46.8335 33.8117C45.1094 34.6322 43.9953 36.3955 43.9953 38.304C43.9953 40.0102 44.8874 41.6026 46.3094 42.5066L46.1652 44.8071H36.1823C33.8815 44.8071 32.0096 42.9352 32.0096 40.6344C32.0096 38.4244 33.8058 36.5543 36.0138 36.4656Z" fill="black"/>
</g>
<defs>
<clipPath id="clip0_1851_158">
<rect width="54" height="54" fill="white" transform="translate(27 24)"/>
</clipPath>
</defs>
</svg>
