<svg width="108" height="102" viewBox="0 0 108 102" fill="none" xmlns="http://www.w3.org/2000/svg">
<circle cx="54" cy="51" r="51" fill="#F7CE30"/>
<g clip-path="url(#clip0_1851_154)">
<path d="M74.6254 34.8243C74.0943 34.8244 73.5637 34.8568 73.0365 34.9212L73.0308 34.9213C73.0172 34.9215 73.0037 34.92 72.9904 34.917C72.9971 34.7404 73.0004 34.5629 73.0004 34.3847C73.0004 26.8493 67.0004 20.7188 59.6254 20.7188C56.5628 20.7575 53.604 21.8347 51.2333 23.7741C48.8627 25.7135 47.2206 28.4002 46.5759 31.3945C46.571 31.4179 46.5602 31.4396 46.5444 31.4576C45.9629 31.3509 45.3729 31.2975 44.7817 31.298C43.2317 31.2978 41.7026 31.6556 40.3137 32.3435C38.9248 33.0315 37.7135 34.0309 36.7744 35.2639L36.7602 35.2648C36.7475 35.2648 36.7348 35.2631 36.7225 35.2598C35.6303 34.9707 34.5053 34.8243 33.3754 34.8243C26.0004 34.8243 20.0004 40.9549 20.0004 48.4903C19.975 51.8096 21.1661 55.0233 23.3487 57.5243C25.5313 60.0252 28.5543 61.6403 31.8465 62.0643C31.7413 61.6135 31.6881 61.152 31.6879 60.6891V59.9016C28.9958 59.4508 26.5531 58.0535 24.7999 55.9613C23.0468 53.8692 22.0983 51.2197 22.1254 48.4903C22.1254 42.1164 27.1622 36.9493 33.3754 36.9493C34.3216 36.949 35.2638 37.0716 36.1785 37.3139C36.3683 37.3643 36.5638 37.3898 36.7602 37.3898C37.083 37.3936 37.4024 37.3231 37.6935 37.1835C37.9846 37.044 38.2397 36.8393 38.439 36.5853C39.1813 35.6053 40.1399 34.8101 41.2401 34.2615C42.3403 33.713 43.5523 33.426 44.7817 33.423C45.2585 33.4229 45.7343 33.4666 46.2031 33.5536C46.3248 33.5763 46.4484 33.5877 46.5723 33.5878C47.0647 33.5762 47.5386 33.3978 47.9164 33.0818C48.2942 32.7657 48.5535 32.3308 48.6519 31.8482C49.1796 29.3207 50.5556 27.0497 52.5516 25.4119C54.5476 23.774 57.0436 22.8679 59.6254 22.8438C65.8386 22.8438 70.8754 28.0108 70.8754 34.3847C70.8754 34.5498 70.872 34.7141 70.8653 34.8775C70.8577 35.1631 70.9081 35.4473 71.0134 35.7129C71.1187 35.9786 71.2768 36.2201 71.478 36.4229C71.6793 36.6257 71.9196 36.7856 72.1844 36.8929C72.4492 37.0002 72.733 37.0528 73.0186 37.0474C73.111 37.0473 73.2033 37.0417 73.295 37.0304C73.7364 36.9764 74.1807 36.9493 74.6254 36.9493C80.8386 36.9493 85.8754 42.1164 85.8754 48.4903C85.9025 51.2197 84.954 53.8692 83.2008 55.9613C81.4477 58.0535 79.005 59.4508 76.3129 59.9016V60.6891C76.3127 61.152 76.2595 61.6134 76.1543 62.0643C79.4465 61.6402 82.4695 60.0252 84.6521 57.5243C86.8347 55.0233 88.0258 51.8096 88.0004 48.4903C88.0004 40.9549 82.0004 34.8243 74.6254 34.8243Z" fill="black"/>
<path d="M75.2049 74.826L68.9562 68.5774C68.3781 67.9992 67.628 67.6239 66.8186 67.5079C66.0092 67.3919 65.184 67.5414 64.4667 67.9339L63.7289 67.196C65.828 64.6939 66.8791 61.4774 66.6625 58.2186C66.446 54.9598 64.9786 51.9107 62.5668 49.7083C60.1551 47.506 56.9856 46.3207 53.7205 46.4002C50.4555 46.4798 47.3475 47.8179 45.0458 50.135C42.7441 52.4521 41.4268 55.5691 41.3692 58.8346C41.3115 62.1001 42.5179 65.2616 44.7364 67.6585C46.9548 70.0555 50.0137 71.5025 53.2739 71.6972C56.5341 71.8919 59.7435 70.8193 62.2314 68.7035L62.9643 69.4363C62.5718 70.1536 62.4223 70.9788 62.5383 71.7882C62.6544 72.5976 63.0296 73.3476 63.6078 73.9258L69.8564 80.1745C70.5657 80.8837 71.5276 81.2822 72.5306 81.2822C73.5337 81.2822 74.4956 80.8837 75.2049 80.1745C75.9141 79.4652 76.3126 78.5033 76.3126 77.5003C76.3126 76.4972 75.9141 75.5353 75.2049 74.826ZM61.5131 66.4827C61.157 66.8332 60.7767 67.1583 60.3751 67.4554V59.9975C60.7802 59.7636 61.0968 59.4026 61.2758 58.9704C61.4548 58.5383 61.4862 58.0591 61.3652 57.6072C61.2441 57.1554 60.9773 56.7561 60.6062 56.4714C60.2351 56.1866 59.7804 56.0322 59.3126 56.0322C58.8448 56.0322 58.3901 56.1866 58.019 56.4714C57.6478 56.7561 57.3811 57.1554 57.26 57.6072C57.1389 58.0591 57.1703 58.5383 57.3493 58.9704C57.5283 59.4026 57.845 59.7636 58.2501 59.9975V68.6998C56.9109 69.2899 55.4635 69.5947 54.0001 69.5947C52.5366 69.5947 51.0893 69.2899 49.7501 68.6998V59.9975C50.1552 59.7636 50.4718 59.4026 50.6508 58.9704C50.8298 58.5383 50.8612 58.0591 50.7402 57.6072C50.6191 57.1554 50.3523 56.7561 49.9812 56.4714C49.6101 56.1866 49.1554 56.0322 48.6876 56.0322C48.2198 56.0322 47.7651 56.1866 47.394 56.4714C47.0228 56.7561 46.7561 57.1554 46.635 57.6072C46.5139 58.0591 46.5453 58.5383 46.7243 58.9704C46.9033 59.4026 47.22 59.7636 47.6251 59.9975V67.4554C45.9147 66.1729 44.6315 64.4038 43.9433 62.3797C43.2552 60.3557 43.1941 58.1711 43.7682 56.1118C44.3423 54.0525 45.5248 52.2145 47.1609 50.8385C48.797 49.4624 50.8104 48.6124 52.9376 48.3997V61.3894C52.5325 61.6233 52.2159 61.9843 52.0368 62.4165C51.8578 62.8487 51.8264 63.3279 51.9475 63.7797C52.0686 64.2316 52.3354 64.6308 52.7065 64.9156C53.0776 65.2004 53.5323 65.3547 54.0001 65.3547C54.4679 65.3547 54.9226 65.2003 55.2937 64.9156C55.6649 64.6308 55.9316 64.2315 56.0527 63.7797C56.1738 63.3278 56.1424 62.8486 55.9633 62.4165C55.7843 61.9843 55.4677 61.6233 55.0626 61.3894V48.3997C57.0634 48.6002 58.9663 49.3646 60.5499 50.6039C62.1335 51.8432 63.3328 53.5066 64.0084 55.4005C64.684 57.2945 64.8082 59.3414 64.3665 61.3032C63.9247 63.2649 62.9353 65.061 61.5131 66.4827ZM69.0772 76.3901L65.1104 72.4232C64.9565 72.2693 64.8345 72.0867 64.7512 71.8857C64.668 71.6846 64.6251 71.4692 64.6251 71.2516C64.6251 71.034 64.668 70.8185 64.7512 70.6175C64.8345 70.4165 64.9566 70.2338 65.1104 70.08C65.2643 69.9261 65.4469 69.8041 65.648 69.7208C65.849 69.6375 66.0644 69.5947 66.282 69.5947C66.4996 69.5947 66.7151 69.6375 66.9161 69.7208C67.1171 69.8041 67.2998 69.9261 67.4536 70.08L71.4205 74.0468L69.0772 76.3901ZM73.7023 78.6719C73.5484 78.8257 73.3657 78.9478 73.1647 79.031C72.9637 79.1143 72.7482 79.1572 72.5306 79.1572C72.313 79.1572 72.0976 79.1143 71.8966 79.031C71.6955 78.9478 71.5129 78.8257 71.359 78.6719L70.5797 77.8925L72.9229 75.5493L73.7023 76.3286C73.8561 76.4825 73.9782 76.6651 74.0614 76.8662C74.1447 77.0672 74.1876 77.2826 74.1876 77.5002C74.1876 77.7178 74.1447 77.9333 74.0614 78.1343C73.9782 78.3353 73.8561 78.518 73.7023 78.6719Z" fill="black"/>
<path d="M33.8125 57.2485V60.689C33.8137 61.6466 34.1716 62.5693 34.8164 63.2772C35.4613 63.9852 36.3467 64.4274 37.3 64.5177C37.5667 65.318 37.8907 66.098 38.2696 66.8518C37.6586 67.5896 37.3446 68.5287 37.3888 69.4856C37.4331 70.4426 37.8324 71.3487 38.5089 72.027L40.9417 74.4598C41.6194 75.1374 42.5257 75.5376 43.4831 75.5819C44.4405 75.6263 45.3799 75.3115 46.1174 74.6994C46.871 75.0782 47.6509 75.4021 48.4511 75.6687C48.5413 76.622 48.9836 77.5075 49.6915 78.1523C50.3994 78.7971 51.3222 79.1551 52.2798 79.1562H55.7202C56.6778 79.1551 57.6006 78.7972 58.3085 78.1523C59.0164 77.5075 59.4587 76.6221 59.549 75.6688C60.2467 75.4332 60.929 75.154 61.5917 74.8327C61.1565 74.2691 60.8281 73.6307 60.6225 72.9489C59.9647 73.2624 59.2852 73.5286 58.5895 73.7453C58.256 73.8496 57.9645 74.0577 57.7578 74.3394C57.5511 74.6211 57.4399 74.9616 57.4405 75.311C57.4405 75.7672 57.2592 76.2048 56.9366 76.5274C56.614 76.85 56.1765 77.0312 55.7202 77.0312H52.2798C51.8235 77.0312 51.386 76.85 51.0634 76.5274C50.7408 76.2048 50.5595 75.7672 50.5595 75.311C50.5601 74.9616 50.4489 74.6211 50.2422 74.3394C50.0355 74.0577 49.744 73.8496 49.4105 73.7453C48.51 73.4652 47.6372 73.1028 46.8032 72.6625C46.4934 72.4991 46.1394 72.4394 45.7931 72.492C45.4468 72.5446 45.1266 72.7069 44.8793 72.955L44.877 72.9572C44.7173 73.117 44.5276 73.2437 44.3189 73.3301C44.1102 73.4166 43.8865 73.4611 43.6606 73.4611C43.4347 73.4611 43.211 73.4166 43.0023 73.3301C42.7936 73.2437 42.604 73.117 42.4442 72.9572L40.0115 70.5244C39.8517 70.3647 39.725 70.1751 39.6386 69.9664C39.5521 69.7576 39.5076 69.534 39.5076 69.308C39.5076 69.0821 39.5521 68.8585 39.6386 68.6497C39.7251 68.441 39.8518 68.2514 40.0115 68.0917L40.0138 68.0894C40.2618 67.8421 40.424 67.5218 40.4766 67.1756C40.5292 66.8293 40.4695 66.4753 40.3062 66.1655C39.866 65.3315 39.5035 64.4587 39.2234 63.5582C39.1192 63.2247 38.911 62.9333 38.6293 62.7265C38.3476 62.5198 38.0072 62.4086 37.6578 62.4092C37.2015 62.4092 36.764 62.228 36.4414 61.9054C36.1187 61.5828 35.9375 61.1452 35.9375 60.689V57.2485C35.9375 57.0226 35.982 56.7989 36.0684 56.5902C36.1549 56.3815 36.2816 56.1919 36.4413 56.0321C36.6011 55.8724 36.7907 55.7457 36.9994 55.6592C37.2081 55.5728 37.4318 55.5283 37.6577 55.5283C38.0071 55.5289 38.3476 55.4177 38.6293 55.2109C38.911 55.0042 39.1192 54.7128 39.2234 54.3793C39.5035 53.4788 39.866 52.6059 40.3062 51.7719C40.4695 51.4621 40.5293 51.1081 40.4766 50.7618C40.424 50.4156 40.2618 50.0953 40.0138 49.848L40.0115 49.8457C39.6889 49.5231 39.5077 49.0856 39.5077 48.6294C39.5077 48.1732 39.6889 47.7356 40.0115 47.413L42.4443 44.9802C42.7669 44.6576 43.2044 44.4764 43.6606 44.4764C44.1169 44.4764 44.5544 44.6576 44.877 44.9802L44.8794 44.9826C45.1267 45.2306 45.4469 45.3929 45.7932 45.4455C46.1395 45.4981 46.4935 45.4384 46.8033 45.275C47.6373 44.8347 48.5101 44.4722 49.4106 44.1921C49.7441 44.0879 50.0355 43.8797 50.2422 43.598C50.4489 43.3163 50.5601 42.9759 50.5595 42.6265C50.5595 42.1703 50.7408 41.7327 51.0634 41.4101C51.386 41.0875 51.8235 40.9063 52.2798 40.9062H55.7202C56.1765 40.9063 56.614 41.0875 56.9366 41.4101C57.2592 41.7327 57.4405 42.1703 57.4405 42.6265C57.4399 42.9759 57.5511 43.3163 57.7578 43.598C57.9646 43.8797 58.256 44.0879 58.5895 44.1921C59.49 44.4722 60.3628 44.8347 61.1968 45.275C61.5066 45.4384 61.8606 45.4981 62.2069 45.4455C62.5531 45.3929 62.8734 45.2306 63.1207 44.9825L63.123 44.9802C63.4456 44.6576 63.8832 44.4764 64.3394 44.4764C64.7956 44.4764 65.2332 44.6576 65.5558 44.9802L67.9885 47.413C68.1482 47.5727 68.2749 47.7624 68.3614 47.9711C68.4478 48.1798 68.4923 48.4035 68.4923 48.6294C68.4923 48.8553 68.4478 49.079 68.3614 49.2877C68.2749 49.4964 68.1482 49.686 67.9885 49.8458L67.9862 49.8481C67.7382 50.0954 67.576 50.4156 67.5234 50.7619C67.4708 51.1081 67.5305 51.4621 67.6938 51.7719C68.134 52.606 68.4965 53.4788 68.7766 54.3793C68.8808 54.7128 69.089 55.0042 69.3707 55.211C69.6524 55.4177 69.9928 55.5289 70.3422 55.5283C70.7985 55.5283 71.236 55.7095 71.5586 56.0321C71.8813 56.3547 72.0625 56.7923 72.0625 57.2485V60.689C72.0625 61.1452 71.8813 61.5828 71.5586 61.9054C71.236 62.228 70.7985 62.4092 70.3423 62.4092C69.9929 62.4086 69.6524 62.5198 69.3707 62.7266C69.089 62.9333 68.8808 63.2247 68.7766 63.5582C68.5598 64.254 68.2937 64.9334 67.9802 65.5913C68.662 65.7969 69.3004 66.1253 69.864 66.5605C70.1853 65.8978 70.4645 65.2155 70.7 64.5177C71.6533 64.4274 72.5388 63.9852 73.1836 63.2772C73.8284 62.5693 74.1863 61.6466 74.1875 60.689V57.2485C74.1863 56.2909 73.8284 55.3682 73.1836 54.6603C72.5388 53.9523 71.6533 53.5101 70.7 53.4198C70.4333 52.6195 70.1093 51.8394 69.7305 51.0857C70.3415 50.3478 70.6555 49.4087 70.6112 48.4518C70.567 47.4948 70.1676 46.5887 69.4911 45.9104L67.0584 43.4776C66.3806 42.8 65.4743 42.3998 64.5169 42.3555C63.5595 42.3112 62.6201 42.6259 61.8826 43.2381C61.129 42.8593 60.3491 42.5354 59.549 42.2688C59.4587 41.3155 59.0164 40.43 58.3085 39.7852C57.6006 39.1403 56.6778 38.7824 55.7202 38.7812H52.2798C51.3222 38.7824 50.3994 39.1404 49.6915 39.7852C48.9836 40.43 48.5413 41.3154 48.451 42.2687C47.6508 42.5354 46.8708 42.8593 46.1172 43.2382C45.3798 42.626 44.4404 42.3112 43.4831 42.3555C42.5257 42.3998 41.6194 42.7999 40.9417 43.4776L38.5089 45.9104C37.8323 46.5887 37.4329 47.4949 37.3886 48.4519C37.3443 49.4089 37.6584 50.3481 38.2694 51.0859C37.8906 51.8396 37.5666 52.6195 37.3 53.4198C36.3467 53.5101 35.4612 53.9523 34.8164 54.6602C34.1716 55.3682 33.8137 56.2909 33.8125 57.2485Z" fill="black"/>
</g>
<defs>
<clipPath id="clip0_1851_154">
<rect width="68" height="68" fill="white" transform="translate(20 17)"/>
</clipPath>
</defs>
</svg>
