<svg width="512" height="512" viewBox="0 0 512 512" fill="none" xmlns="http://www.w3.org/2000/svg">
<path d="M360.23 137.039H430.92C436.56 137.039 441.13 141.619 441.13 147.259V191.689C441.13 197.329 436.56 201.909 430.92 201.909H395.01" stroke="url(#paint0_linear_1794_533)" stroke-width="15" stroke-miterlimit="10" stroke-linecap="round" stroke-linejoin="round"/>
<path d="M232.23 201.909H196.91C191.26 201.909 186.69 197.329 186.69 191.689V147.259C186.69 141.619 191.26 137.039 196.91 137.039H267.59" stroke="url(#paint1_linear_1794_533)" stroke-width="15" stroke-miterlimit="10" stroke-linecap="round" stroke-linejoin="round"/>
<path d="M216.018 80.3894V37.7324" stroke="url(#paint2_linear_1794_533)" stroke-width="15" stroke-miterlimit="10" stroke-linecap="round" stroke-linejoin="round"/>
<path d="M123.324 80.3887H504.5" stroke="url(#paint3_linear_1794_533)" stroke-width="15" stroke-miterlimit="10" stroke-linecap="round" stroke-linejoin="round"/>
<path d="M133.309 403.463H494.516C500.03 403.463 504.5 398.993 504.5 393.479V47.7164C504.5 42.2024 500.03 37.7324 494.516 37.7324H426.761" stroke="url(#paint4_linear_1794_533)" stroke-width="15" stroke-miterlimit="10" stroke-linecap="round" stroke-linejoin="round"/>
<path d="M123.324 157.969V318.182" stroke="url(#paint5_linear_1794_533)" stroke-width="15" stroke-miterlimit="10" stroke-linecap="round" stroke-linejoin="round"/>
<path d="M393.93 37.7324H133.309C127.795 37.7324 123.325 42.2024 123.325 47.7164V125.139" stroke="url(#paint6_linear_1794_533)" stroke-width="15" stroke-miterlimit="10" stroke-linecap="round" stroke-linejoin="round"/>
<path d="M380.672 245.428C388.847 232.913 393.616 217.971 393.616 201.907C393.616 157.888 357.931 122.203 313.912 122.203C269.893 122.203 234.208 157.888 234.208 201.907C234.208 245.926 269.893 281.611 313.912 281.611C329.988 281.611 344.942 276.835 357.463 268.648" stroke="url(#paint7_linear_1794_533)" stroke-width="15" stroke-miterlimit="10" stroke-linecap="round" stroke-linejoin="round"/>
<path d="M334.783 183.443C334.783 175.151 328.061 168.428 319.768 168.428H308.059C299.767 168.428 293.044 175.15 293.044 183.443C293.044 189.603 296.806 195.137 302.533 197.404L325.292 206.411C331.019 208.678 334.781 214.212 334.781 220.372C334.781 228.664 328.059 235.387 319.766 235.387H308.057C299.765 235.387 293.042 228.665 293.042 220.372" stroke="url(#paint8_linear_1794_533)" stroke-width="15" stroke-miterlimit="10" stroke-linecap="round" stroke-linejoin="round"/>
<path d="M313.914 167.214V156.801" stroke="url(#paint9_linear_1794_533)" stroke-width="15" stroke-miterlimit="10" stroke-linecap="round" stroke-linejoin="round"/>
<path d="M313.914 247.013V236.6" stroke="url(#paint10_linear_1794_533)" stroke-width="15" stroke-miterlimit="10" stroke-linecap="round" stroke-linejoin="round"/>
<path d="M72.4839 474.269H68.0289C33.7969 474.269 6.37692 445.905 7.53592 411.693L9.76292 345.91C10.8669 313.297 37.6249 287.43 70.2559 287.43C102.887 287.43 129.645 313.297 130.749 345.91L132.976 411.693C134.135 445.905 106.715 474.269 72.4839 474.269Z" stroke="url(#paint11_linear_1794_533)" stroke-width="15" stroke-miterlimit="10" stroke-linecap="round" stroke-linejoin="round"/>
<path d="M70.2559 315.059V330.213" stroke="url(#paint12_linear_1794_533)" stroke-width="15" stroke-miterlimit="10" stroke-linecap="round" stroke-linejoin="round"/>
<path d="M70.2559 378.021V395.173" stroke="url(#paint13_linear_1794_533)" stroke-width="15" stroke-miterlimit="10" stroke-linecap="round" stroke-linejoin="round"/>
<path d="M70.2559 378.021C61.0159 378.021 53.5249 370.53 53.5249 361.29V346.942C53.5249 337.702 61.0159 330.211 70.2559 330.211C79.4959 330.211 86.9869 337.702 86.9869 346.942V361.29C86.9869 370.53 79.4959 378.021 70.2559 378.021Z" stroke="url(#paint14_linear_1794_533)" stroke-width="15" stroke-miterlimit="10" stroke-linecap="round" stroke-linejoin="round"/>
<path d="M70.2559 287.43V251.431C70.2559 222.122 94.0149 198.363 123.324 198.363C152.633 198.363 176.392 222.122 176.392 251.431V301.05C176.392 339.026 207.177 369.811 245.153 369.811C283.129 369.811 313.914 339.026 313.914 301.05V281.612" stroke="url(#paint15_linear_1794_533)" stroke-width="15" stroke-miterlimit="10" stroke-linecap="round" stroke-linejoin="round"/>
<path d="M431.271 269.708C440.168 269.708 447.381 262.496 447.381 253.598C447.381 244.701 440.168 237.488 431.271 237.488C422.374 237.488 415.161 244.701 415.161 253.598C415.161 262.496 422.374 269.708 431.271 269.708Z" stroke="url(#paint16_linear_1794_533)" stroke-width="15" stroke-miterlimit="10" stroke-linecap="round" stroke-linejoin="round"/>
<path d="M445.107 267.434L456.997 279.324" stroke="url(#paint17_linear_1794_533)" stroke-width="15" stroke-miterlimit="10" stroke-linecap="round" stroke-linejoin="round"/>
<path d="M412.031 308.49H456.545" stroke="url(#paint18_linear_1794_533)" stroke-width="15" stroke-miterlimit="10" stroke-linecap="round" stroke-linejoin="round"/>
<path d="M366.279 335.461H456.545" stroke="url(#paint19_linear_1794_533)" stroke-width="15" stroke-miterlimit="10" stroke-linecap="round" stroke-linejoin="round"/>
<path d="M366.279 362.43H456.545" stroke="url(#paint20_linear_1794_533)" stroke-width="15" stroke-miterlimit="10" stroke-linecap="round" stroke-linejoin="round"/>
<defs>
<linearGradient id="paint0_linear_1794_533" x1="400.68" y1="137.039" x2="400.68" y2="201.909" gradientUnits="userSpaceOnUse">
<stop stop-color="#F7CE30"/>
<stop offset="1" stop-color="#10589A"/>
</linearGradient>
<linearGradient id="paint1_linear_1794_533" x1="227.14" y1="137.039" x2="227.14" y2="201.909" gradientUnits="userSpaceOnUse">
<stop stop-color="#F7CE30"/>
<stop offset="1" stop-color="#10589A"/>
</linearGradient>
<linearGradient id="paint2_linear_1794_533" x1="216.518" y1="37.7324" x2="216.518" y2="80.3894" gradientUnits="userSpaceOnUse">
<stop stop-color="#F7CE30"/>
<stop offset="1" stop-color="#10589A"/>
</linearGradient>
<linearGradient id="paint3_linear_1794_533" x1="313.912" y1="80.3887" x2="313.912" y2="81.3887" gradientUnits="userSpaceOnUse">
<stop stop-color="#F7CE30"/>
<stop offset="1" stop-color="#10589A"/>
</linearGradient>
<linearGradient id="paint4_linear_1794_533" x1="318.904" y1="37.7324" x2="318.904" y2="403.463" gradientUnits="userSpaceOnUse">
<stop stop-color="#F7CE30"/>
<stop offset="1" stop-color="#10589A"/>
</linearGradient>
<linearGradient id="paint5_linear_1794_533" x1="123.824" y1="157.969" x2="123.824" y2="318.182" gradientUnits="userSpaceOnUse">
<stop stop-color="#F7CE30"/>
<stop offset="1" stop-color="#10589A"/>
</linearGradient>
<linearGradient id="paint6_linear_1794_533" x1="258.627" y1="37.7324" x2="258.627" y2="125.139" gradientUnits="userSpaceOnUse">
<stop stop-color="#F7CE30"/>
<stop offset="1" stop-color="#10589A"/>
</linearGradient>
<linearGradient id="paint7_linear_1794_533" x1="313.912" y1="122.203" x2="313.912" y2="281.611" gradientUnits="userSpaceOnUse">
<stop stop-color="#F7CE30"/>
<stop offset="1" stop-color="#10589A"/>
</linearGradient>
<linearGradient id="paint8_linear_1794_533" x1="313.912" y1="168.428" x2="313.912" y2="235.387" gradientUnits="userSpaceOnUse">
<stop stop-color="#F7CE30"/>
<stop offset="1" stop-color="#10589A"/>
</linearGradient>
<linearGradient id="paint9_linear_1794_533" x1="314.414" y1="156.801" x2="314.414" y2="167.214" gradientUnits="userSpaceOnUse">
<stop stop-color="#F7CE30"/>
<stop offset="1" stop-color="#10589A"/>
</linearGradient>
<linearGradient id="paint10_linear_1794_533" x1="314.414" y1="236.6" x2="314.414" y2="247.013" gradientUnits="userSpaceOnUse">
<stop stop-color="#F7CE30"/>
<stop offset="1" stop-color="#10589A"/>
</linearGradient>
<linearGradient id="paint11_linear_1794_533" x1="70.2559" y1="287.43" x2="70.2559" y2="474.269" gradientUnits="userSpaceOnUse">
<stop stop-color="#F7CE30"/>
<stop offset="1" stop-color="#10589A"/>
</linearGradient>
<linearGradient id="paint12_linear_1794_533" x1="70.7559" y1="315.059" x2="70.7559" y2="330.213" gradientUnits="userSpaceOnUse">
<stop stop-color="#F7CE30"/>
<stop offset="1" stop-color="#10589A"/>
</linearGradient>
<linearGradient id="paint13_linear_1794_533" x1="70.7559" y1="378.021" x2="70.7559" y2="395.173" gradientUnits="userSpaceOnUse">
<stop stop-color="#F7CE30"/>
<stop offset="1" stop-color="#10589A"/>
</linearGradient>
<linearGradient id="paint14_linear_1794_533" x1="70.2559" y1="330.211" x2="70.2559" y2="378.021" gradientUnits="userSpaceOnUse">
<stop stop-color="#F7CE30"/>
<stop offset="1" stop-color="#10589A"/>
</linearGradient>
<linearGradient id="paint15_linear_1794_533" x1="192.085" y1="198.363" x2="192.085" y2="369.811" gradientUnits="userSpaceOnUse">
<stop stop-color="#F7CE30"/>
<stop offset="1" stop-color="#10589A"/>
</linearGradient>
<linearGradient id="paint16_linear_1794_533" x1="431.271" y1="237.488" x2="431.271" y2="269.708" gradientUnits="userSpaceOnUse">
<stop stop-color="#F7CE30"/>
<stop offset="1" stop-color="#10589A"/>
</linearGradient>
<linearGradient id="paint17_linear_1794_533" x1="451.052" y1="267.434" x2="451.052" y2="279.324" gradientUnits="userSpaceOnUse">
<stop stop-color="#F7CE30"/>
<stop offset="1" stop-color="#10589A"/>
</linearGradient>
<linearGradient id="paint18_linear_1794_533" x1="434.288" y1="308.49" x2="434.288" y2="309.49" gradientUnits="userSpaceOnUse">
<stop stop-color="#F7CE30"/>
<stop offset="1" stop-color="#10589A"/>
</linearGradient>
<linearGradient id="paint19_linear_1794_533" x1="411.412" y1="335.461" x2="411.412" y2="336.461" gradientUnits="userSpaceOnUse">
<stop stop-color="#F7CE30"/>
<stop offset="1" stop-color="#10589A"/>
</linearGradient>
<linearGradient id="paint20_linear_1794_533" x1="411.412" y1="362.43" x2="411.412" y2="363.43" gradientUnits="userSpaceOnUse">
<stop stop-color="#F7CE30"/>
<stop offset="1" stop-color="#10589A"/>
</linearGradient>
</defs>
</svg>
