<svg width="508" height="508" viewBox="0 0 508 508" fill="none" xmlns="http://www.w3.org/2000/svg">
<path d="M328.702 478.115H276.408V373.526C276.408 369.044 273.42 366.056 268.937 366.056C264.455 366.056 261.467 369.044 261.467 373.526V478.115H59.761V448.232C59.761 443.75 56.7728 440.762 52.2904 440.762C47.8081 440.762 44.8199 443.75 44.8199 448.232V478.115H29.8787V153.891L108.32 111.309C112.055 109.067 113.549 104.585 111.308 100.85C109.067 97.1145 104.585 95.6204 100.849 97.8616L18.6728 142.685C16.4316 144.179 14.9375 146.42 14.9375 149.409V485.585C14.9375 490.067 17.9257 493.056 22.4081 493.056H328.702C333.185 493.056 336.173 490.067 336.173 485.585C336.173 481.103 333.185 478.115 328.702 478.115Z" fill="black"/>
<path d="M485.588 425.824C481.105 425.824 478.117 428.812 478.117 433.294V478.118H443.005V403.412C443.005 398.93 440.017 395.941 435.535 395.941C431.052 395.941 428.064 398.93 428.064 403.412V478.118H358.588C354.105 478.118 351.117 481.106 351.117 485.588C351.117 490.071 354.105 493.059 358.588 493.059H485.588C490.07 493.059 493.058 490.071 493.058 485.588V433.294C493.058 428.812 490.07 425.824 485.588 425.824Z" fill="black"/>
<path d="M489.322 142.687L437.027 114.299C433.292 112.058 428.81 113.552 426.569 117.287C424.327 121.023 425.822 125.505 429.557 126.999L478.116 153.893V403.411C478.116 407.893 481.104 410.881 485.586 410.881C490.069 410.881 493.057 407.893 493.057 403.411V149.411C493.057 146.423 491.563 144.181 489.322 142.687Z" fill="black"/>
<path d="M138.199 94.8752L253.993 30.6282L398.923 109.816C400.417 110.563 401.164 110.563 402.658 110.563C405.646 110.563 407.888 109.069 409.382 106.828C411.623 103.093 410.129 98.6105 406.393 96.3693L257.729 15.687C255.488 14.1929 252.499 14.1929 250.258 15.687L130.729 81.4282C126.993 83.6693 125.499 88.1517 127.741 91.887C129.982 94.8752 134.464 96.3693 138.199 94.8752Z" fill="black"/>
<path d="M341.4 144.927V168.832C341.4 187.509 354.847 203.197 372.03 206.185V221.874H345.883C345.883 221.874 345.883 221.874 345.136 221.874C344.389 221.874 344.389 221.874 344.389 221.874H316.747C308.53 221.874 301.806 228.597 301.806 236.815V243.538H283.877C279.394 243.538 276.406 246.527 276.406 251.009C276.406 255.491 279.394 258.48 283.877 258.48H301.806V265.203C301.806 273.421 308.53 280.144 316.747 280.144H390.706C392.2 280.144 392.947 280.144 393.694 280.891C393.694 284.627 391.453 291.35 380.247 298.074C376.512 300.315 375.765 304.797 378.006 308.532C379.5 310.774 381.742 312.268 384.73 312.268C386.224 312.268 387.718 312.268 388.465 311.521C395.189 307.785 399.671 303.303 402.659 298.821L409.383 332.438V333.932C411.624 340.656 418.347 345.138 425.071 345.138H426.565V373.527C426.565 378.009 429.553 380.997 434.036 380.997C438.518 380.997 441.506 378.009 441.506 373.527V342.897H442.253C448.23 342.897 453.459 339.909 456.447 335.427C459.436 330.944 460.183 325.715 458.689 320.485L448.23 275.662H454.953C459.436 275.662 462.424 272.674 462.424 268.191C462.424 263.709 459.436 260.721 454.953 260.721H440.759C438.518 260.721 436.277 261.468 434.783 263.709C433.289 265.203 432.542 268.191 433.289 269.685L445.989 323.474V324.221V326.462C445.989 326.462 445.242 327.209 444.494 327.209H436.277H427.312C426.565 327.209 425.818 326.462 425.818 326.462L416.853 280.891C416.853 280.144 416.853 280.144 416.853 279.397C413.118 269.685 403.406 262.962 392.947 262.962H354.847V234.574H419.094C422.83 234.574 425.818 236.815 427.312 240.55L428.059 242.791C428.806 245.78 431.794 247.274 434.783 247.274H457.942C462.424 247.274 465.412 244.285 465.412 239.803C465.412 235.321 462.424 232.332 457.942 232.332H439.265C434.783 224.862 427.312 219.632 418.347 219.632H388.465V203.944C406.394 200.209 419.094 184.521 419.094 166.591V142.685C419.094 138.203 416.106 135.215 411.624 135.215H349.618C345.136 137.456 341.4 140.444 341.4 144.927ZM338.412 264.456H317.494V237.562V236.068H338.412V264.456ZM356.342 152.397H403.406V168.832C403.406 181.532 392.947 191.991 380.247 191.991C367.547 191.991 357.089 181.532 357.089 168.832V152.397H356.342Z" fill="black"/>
<path d="M218.134 463.173C230.834 463.173 240.545 453.462 240.545 440.762V413.12V386.973C240.545 383.238 239.798 379.503 238.304 376.515L211.41 318.991C211.41 318.991 211.41 318.244 210.663 318.244C206.928 312.267 199.457 307.785 191.987 307.785H128.487C121.016 307.785 113.545 312.267 109.81 318.244C109.81 318.244 109.81 318.991 109.063 318.991L94.1219 353.356L83.6631 376.515C82.1689 379.503 81.4219 383.238 81.4219 386.973V413.868V440.762C81.4219 453.462 91.1336 463.173 103.834 463.173H104.581C117.281 463.173 126.992 453.462 126.992 440.762V434.785H194.228V440.762C194.975 453.462 205.434 463.173 218.134 463.173ZM225.604 440.762C225.604 444.497 222.616 448.232 217.387 448.232C212.904 448.232 209.916 445.244 209.916 440.762V434.785H215.145C218.881 434.785 222.616 434.038 225.604 433.291V440.762ZM112.798 440.762C112.798 444.497 109.81 448.232 105.328 448.232H104.581C100.845 448.232 97.1101 445.244 97.1101 440.762V433.291C100.098 434.038 103.834 434.785 107.569 434.785H112.798V440.762ZM107.569 419.844C100.845 419.844 97.1101 417.603 97.1101 413.12V386.226C97.1101 384.732 97.1101 383.238 97.8572 381.744L106.075 363.815C113.545 364.562 126.992 365.309 148.657 365.309C152.392 365.309 156.128 362.32 156.128 357.838C156.128 353.356 153.14 350.368 148.657 350.368C130.728 350.368 119.522 349.62 112.798 349.62L123.257 324.968C124.751 323.473 126.245 321.979 128.487 321.979H191.987C194.228 321.979 196.469 322.726 197.216 324.968L208.422 349.62C202.445 349.62 192.734 350.368 178.54 350.368C174.057 350.368 171.069 354.103 171.069 357.838C171.069 361.573 174.804 365.309 178.54 365.309C196.469 365.309 208.422 364.562 215.145 363.815L223.363 382.491C224.11 383.985 224.11 385.479 224.11 386.973V413.12C224.11 417.603 220.375 419.844 213.651 419.844H107.569Z" fill="black"/>
<path d="M125.505 390.711C124.758 389.964 124.011 389.217 123.264 389.217C121.022 388.469 119.528 388.469 117.287 389.217C116.54 389.964 115.793 389.964 115.046 390.711C114.299 391.458 113.552 392.205 113.552 392.952C113.552 393.699 112.805 395.193 112.805 395.94C112.805 398.181 113.552 399.675 115.046 401.17C115.793 401.917 116.54 402.664 117.287 402.664C118.781 403.411 119.528 403.411 120.275 403.411C121.022 403.411 122.516 403.411 123.264 402.664C124.011 402.664 124.758 401.917 125.505 401.17C126.999 399.675 127.746 398.181 127.746 395.94C127.746 395.193 127.746 393.699 126.999 392.952C126.999 392.205 126.252 391.458 125.505 390.711Z" fill="black"/>
<path d="M197.218 390.712C195.724 392.206 194.977 393.7 194.977 395.942C194.977 398.183 195.724 399.677 197.218 401.171C198.712 402.665 200.206 403.412 202.447 403.412C204.688 403.412 206.182 402.665 207.677 401.171C209.171 399.677 209.918 397.436 209.918 395.942C209.918 393.7 209.171 392.206 207.677 390.712C205.435 388.471 200.206 388.471 197.218 390.712Z" fill="black"/>
<path d="M44.8203 283.881V418.351C44.8203 422.834 47.8085 425.822 52.2909 425.822C56.7733 425.822 59.7615 422.834 59.7615 418.351V291.351H105.332C109.814 291.351 112.803 288.363 112.803 283.881C112.803 279.398 109.814 276.41 105.332 276.41H52.2909C47.8085 276.41 44.8203 279.398 44.8203 283.881Z" fill="black"/>
<path d="M268.941 351.116C273.424 351.116 276.412 348.128 276.412 343.645V283.881C276.412 279.398 273.424 276.41 268.941 276.41H134.471C129.988 276.41 127 279.398 127 283.881C127 288.363 129.988 291.351 134.471 291.351H261.471V343.645C261.471 348.128 264.459 351.116 268.941 351.116Z" fill="black"/>
<path d="M149.411 220.383C153.894 220.383 156.882 217.394 156.882 212.912C156.882 208.43 153.894 205.441 149.411 205.441H104.588C100.105 205.441 97.1172 208.43 97.1172 212.912V254C97.1172 258.483 100.105 261.471 104.588 261.471H216.647C221.129 261.471 224.117 258.483 224.117 254V212.912C224.117 208.43 221.129 205.441 216.647 205.441H179.294C174.811 205.441 171.823 208.43 171.823 212.912C171.823 217.394 174.811 220.383 179.294 220.383H209.176V246.53H112.058V220.383H149.411Z" fill="black"/>
</svg>
