<svg width="512" height="512" viewBox="0 0 512 512" fill="none" xmlns="http://www.w3.org/2000/svg">
<path d="M272 416C283.076 416 293.903 412.716 303.112 406.562C312.321 400.409 319.499 391.663 323.737 381.43C327.976 371.198 329.085 359.938 326.924 349.075C324.763 338.212 319.43 328.234 311.598 320.402C303.766 312.57 293.788 307.237 282.925 305.076C272.062 302.915 260.802 304.024 250.57 308.263C240.337 312.501 231.591 319.679 225.438 328.888C219.284 338.097 216 348.924 216 360C216.017 374.847 221.922 389.081 232.42 399.58C242.919 410.078 257.153 415.983 272 416ZM272 320C279.911 320 287.645 322.346 294.223 326.741C300.801 331.136 305.928 337.384 308.955 344.693C311.983 352.002 312.775 360.044 311.231 367.804C309.688 375.563 305.878 382.69 300.284 388.284C294.69 393.878 287.563 397.688 279.804 399.231C272.044 400.775 264.002 399.983 256.693 396.955C249.384 393.928 243.136 388.801 238.741 382.223C234.346 375.645 232 367.911 232 360C232.012 349.395 236.23 339.228 243.729 331.729C251.228 324.23 261.395 320.012 272 320Z" fill="black"/>
<path d="M383.328 389.047L401.862 384.603C403.61 384.183 405.166 383.188 406.279 381.777C407.392 380.366 407.997 378.621 407.997 376.823V343.177C407.997 341.379 407.392 339.634 406.279 338.223C405.166 336.812 403.61 335.816 401.862 335.397L383.329 330.954C380.341 330.238 377.565 328.824 375.229 326.829C372.892 324.834 371.06 322.315 369.884 319.476C368.708 316.638 368.22 313.561 368.461 310.498C368.702 307.435 369.664 304.472 371.27 301.853L381.293 285.495C382.232 283.963 382.628 282.159 382.416 280.375C382.205 278.59 381.399 276.929 380.129 275.658L356.338 251.869C355.067 250.599 353.406 249.793 351.622 249.582C349.837 249.371 348.034 249.766 346.502 250.705L330.145 260.729C327.525 262.334 324.562 263.296 321.499 263.537C318.436 263.777 315.36 263.29 312.522 262.113C309.683 260.937 307.164 259.106 305.169 256.769C303.174 254.432 301.76 251.657 301.044 248.669L296.6 230.135C296.181 228.387 295.185 226.831 293.774 225.718C292.363 224.605 290.618 224 288.82 224H255.174C253.376 224 251.631 224.605 250.22 225.718C248.809 226.831 247.813 228.387 247.395 230.135L242.951 248.668C242.235 251.656 240.821 254.432 238.826 256.769C236.831 259.105 234.312 260.937 231.473 262.113C228.635 263.289 225.558 263.777 222.495 263.536C219.432 263.295 216.469 262.333 213.85 260.728L197.492 250.704L189.133 264.347L205.489 274.37C210.262 277.295 215.66 279.048 221.24 279.487C226.821 279.926 232.426 279.037 237.598 276.895C242.769 274.752 247.36 271.415 250.995 267.158C254.629 262.9 257.204 257.843 258.51 252.399L261.482 240H282.512L285.485 252.399C286.791 257.843 289.366 262.9 293 267.157C296.634 271.415 301.225 274.751 306.396 276.894C311.567 279.037 317.173 279.926 322.753 279.487C328.334 279.049 333.731 277.296 338.504 274.371L349.484 267.643L364.355 282.513L357.627 293.492C354.702 298.265 352.949 303.663 352.51 309.243C352.071 314.824 352.96 320.429 355.103 325.601C357.246 330.772 360.582 335.363 364.839 338.997C369.097 342.632 374.154 345.207 379.598 346.513L391.997 349.485V370.515L379.598 373.488C374.154 374.793 369.097 377.369 364.84 381.003C360.582 384.637 357.246 389.228 355.103 394.399C352.96 399.57 352.071 405.175 352.51 410.756C352.948 416.336 354.701 421.734 357.626 426.507L364.354 437.487L349.484 452.358L338.505 445.63C333.732 442.705 328.334 440.952 322.754 440.513C317.173 440.074 311.568 440.963 306.396 443.105C301.225 445.248 296.634 448.585 293 452.842C289.365 457.1 286.79 462.157 285.484 467.601L282.512 480H261.482L258.509 467.601C257.204 462.157 254.629 457.1 250.994 452.843C247.36 448.585 242.769 445.249 237.598 443.106C232.427 440.963 226.822 440.074 221.241 440.513C215.661 440.951 210.263 442.704 205.49 445.629L189.133 455.652L197.492 469.295L213.85 459.271C216.469 457.666 219.432 456.704 222.495 456.463C225.558 456.223 228.634 456.71 231.473 457.887C234.311 459.063 236.831 460.894 238.825 463.231C240.82 465.568 242.234 468.343 242.95 471.331L247.395 489.865C247.813 491.613 248.809 493.169 250.22 494.282C251.631 495.395 253.376 496 255.174 496H288.82C290.618 496 292.363 495.395 293.774 494.282C295.185 493.169 296.181 491.613 296.6 489.865L301.043 471.332C301.759 468.344 303.173 465.568 305.168 463.231C307.163 460.895 309.682 459.063 312.521 457.887C315.359 456.711 318.436 456.223 321.499 456.464C324.562 456.705 327.525 457.667 330.145 459.272L346.502 469.296C348.034 470.235 349.838 470.63 351.622 470.419C353.407 470.208 355.068 469.402 356.339 468.132L380.128 444.342C381.398 443.071 382.204 441.41 382.415 439.625C382.627 437.841 382.231 436.037 381.292 434.505L371.269 418.147C369.663 415.528 368.701 412.565 368.46 409.502C368.22 406.439 368.707 403.363 369.884 400.525C371.06 397.686 372.891 395.167 375.228 393.172C377.565 391.177 380.34 389.763 383.328 389.047Z" fill="black"/>
<path d="M488 240H456V200C456 197.878 455.157 195.844 453.657 194.343C452.156 192.843 450.122 192 448 192H416C413.878 192 411.844 192.843 410.343 194.343C408.843 195.844 408 197.878 408 200V240H384V256H480V288H392V304H480V336H424V352H480V384H424V400H480V432H400V448H408V488C408 490.122 408.843 492.156 410.343 493.657C411.844 495.157 413.878 496 416 496H448C450.122 496 452.156 495.157 453.657 493.657C455.157 492.156 456 490.122 456 488V448H488C490.122 448 492.156 447.157 493.657 445.657C495.157 444.156 496 442.122 496 440V248C496 245.878 495.157 243.844 493.657 242.343C492.156 240.843 490.122 240 488 240ZM440 240H424V208H440V240ZM440 480H424V448H440V480Z" fill="black"/>
<path d="M138.281 245.719L133.719 261.055C151.874 266.455 160 274.46 160 279.998C160 284.967 153.74 290.836 143.663 295.314C131.064 300.914 114.137 303.998 96 303.998C56.9316 303.998 32 289.783 32 279.998C32 274.46 40.126 266.455 58.2812 261.055L53.7188 245.719C29.7481 252.85 16 265.344 16 279.998V458.284C16 469.673 25.2461 479.761 42.0361 486.689C56.581 492.692 75.7451 495.998 96 495.998C116.255 495.998 135.419 492.692 149.964 486.689C166.754 479.761 176 469.673 176 458.284V279.998C176 265.344 162.252 252.85 138.281 245.719ZM48 471.84C38.2766 467.801 32 462.488 32 458.284V440.575C37.0077 443.81 42.3777 446.445 48 448.428V471.84ZM88 479.803C79.9288 479.456 71.9007 478.434 64 476.747V452.898C71.9109 454.499 79.9358 455.474 88 455.814V479.803ZM128 476.747C120.099 478.434 112.071 479.456 104 479.803V455.814C112.064 455.474 120.089 454.499 128 452.898V476.747ZM160 458.284C160 462.488 153.723 467.801 144 471.84V448.428C149.622 446.445 154.992 443.81 160 440.575V458.284ZM160 415.998C160 420.967 153.74 426.836 143.663 431.314C131.064 436.914 114.137 439.998 96 439.998C56.9316 439.998 32 425.783 32 415.998V304.575C46.3565 314.073 69.2417 319.998 96 319.998C122.758 319.998 145.644 314.073 160 304.575V415.998Z" fill="black"/>
<path d="M64 328H48V416H64V328Z" fill="black"/>
<path d="M104 336H88V424H104V336Z" fill="black"/>
<path d="M144 328H128V416H144V328Z" fill="black"/>
<path d="M88 216C88 213.878 88.8429 211.843 90.3431 210.343C91.8434 208.843 93.8783 208 96 208C98.1217 208 100.157 208.843 101.657 210.343C103.157 211.843 104 213.878 104 216V280H120V216C120 209.635 117.471 203.53 112.971 199.029C108.47 194.529 102.365 192 96 192C89.6348 192 83.5303 194.529 79.0294 199.029C74.5286 203.53 72 209.635 72 216V280H88V216Z" fill="black"/>
<path d="M112 176H228L249.6 204.8C250.345 205.793 251.311 206.6 252.422 207.155C253.533 207.711 254.758 208 256 208C257.242 208 258.467 207.711 259.578 207.155C260.689 206.6 261.655 205.793 262.4 204.8L284 176H400C406.363 175.993 412.463 173.462 416.963 168.963C421.462 164.463 423.993 158.363 424 152V40C423.993 33.637 421.462 27.5368 416.963 23.0375C412.463 18.5382 406.363 16.0073 400 16H112C105.637 16.0073 99.5368 18.5382 95.0375 23.0375C90.5382 27.5368 88.0073 33.637 88 40V152C88.0073 158.363 90.5382 164.463 95.0375 168.963C99.5368 173.462 105.637 175.993 112 176ZM104 40C104.002 37.879 104.846 35.8456 106.346 34.3458C107.846 32.8461 109.879 32.0024 112 32H400C402.121 32.0024 404.154 32.8461 405.654 34.3458C407.154 35.8456 407.998 37.879 408 40V152C407.998 154.121 407.154 156.154 405.654 157.654C404.154 159.154 402.121 159.998 400 160H280C278.758 160 277.533 160.289 276.422 160.845C275.311 161.4 274.345 162.207 273.6 163.2L256 186.667L238.4 163.2C237.655 162.207 236.689 161.4 235.578 160.845C234.467 160.289 233.242 160 232 160H112C109.879 159.998 107.846 159.154 106.346 157.654C104.846 156.154 104.002 154.121 104 152V40Z" fill="black"/>
<path d="M176 144H208C220.73 144 232.939 138.943 241.941 129.941C250.943 120.939 256 108.73 256 96C256 83.2696 250.943 71.0606 241.941 62.0589C232.939 53.0571 220.73 48 208 48H176C163.27 48 151.061 53.0571 142.059 62.0589C133.057 71.0606 128 83.2696 128 96C128 108.73 133.057 120.939 142.059 129.941C151.061 138.943 163.27 144 176 144ZM238.987 88H223.321C221.828 79.1779 217.892 70.951 211.959 64.2537C218.321 65.0566 224.297 67.7482 229.115 71.981C233.933 76.2139 237.372 81.7936 238.987 88ZM223.321 104H238.987C237.372 110.206 233.933 115.786 229.115 120.019C224.297 124.252 218.321 126.943 211.959 127.746C217.892 121.049 221.828 112.822 223.321 104ZM176 64C182.329 64 188.516 65.8768 193.778 69.393C199.041 72.9092 203.142 77.9069 205.564 83.7541C207.986 89.6014 208.62 96.0355 207.385 102.243C206.15 108.45 203.103 114.152 198.627 118.627C194.152 123.103 188.45 126.15 182.243 127.385C176.035 128.62 169.601 127.986 163.754 125.564C157.907 123.142 152.909 119.041 149.393 113.778C145.877 108.516 144 102.329 144 96C144.01 87.5161 147.384 79.3824 153.383 73.3833C159.382 67.3842 167.516 64.0097 176 64Z" fill="black"/>
<path d="M320.001 99.3135L330.344 109.657C331.844 111.157 333.879 112 336.001 112C338.123 112 340.157 111.157 341.658 109.657L376.001 75.3145V96H392.001V56C392.001 53.8783 391.158 51.8435 389.658 50.3433C388.157 48.843 386.123 48.0001 384.001 48H344.001V64H364.687L336.001 92.6865L325.658 82.3428C324.157 80.843 322.123 80.0005 320.001 80.0005C317.879 80.0005 315.844 80.843 314.344 82.3428L266.344 130.343L277.658 141.657L320.001 99.3135Z" fill="black"/>
</svg>
