<svg width="512" height="512" viewBox="0 0 512 512" fill="none" xmlns="http://www.w3.org/2000/svg">
<path d="M472 465.136V279.792C476.95 276.097 480.973 271.301 483.75 265.783C486.527 260.265 487.982 254.177 488 248V232C488 229.878 487.156 227.844 485.656 226.344L456 196.688V40C455.987 29.3952 451.769 19.2285 444.27 11.7298C436.772 4.23106 426.605 0.0127029 416 0L96 0C85.3952 0.0127029 75.2285 4.23106 67.7298 11.7298C60.2311 19.2285 56.0127 29.3952 56 40V196.688L26.344 226.344C24.8436 227.844 24.0005 229.878 24 232V248C24.018 254.177 25.473 260.265 28.25 265.783C31.0269 271.301 35.0497 276.097 40 279.792V465.136C33.1508 466.904 27.0807 470.892 22.7384 476.477C18.3961 482.061 16.0265 488.926 16 496V504C16 506.122 16.8429 508.157 18.3431 509.657C19.8434 511.157 21.8783 512 24 512H488C490.122 512 492.157 511.157 493.657 509.657C495.157 508.157 496 506.122 496 504V496C495.973 488.926 493.604 482.061 489.262 476.477C484.919 470.892 478.849 466.904 472 465.136ZM472 248C472 254.365 469.471 260.47 464.971 264.971C460.47 269.471 454.365 272 448 272C441.635 272 435.53 269.471 431.029 264.971C426.529 260.47 424 254.365 424 248V240H472V248ZM144 312C129.153 312.017 114.919 317.922 104.421 328.421C93.9224 338.919 88.0169 353.153 88 368V464H56V287.2C63.4458 288.726 71.1732 288.082 78.2639 285.345C85.3546 282.608 91.5104 277.893 96 271.76C99.6792 276.795 104.495 280.891 110.055 283.715C115.615 286.539 121.764 288.01 128 288.01C134.236 288.01 140.385 286.539 145.945 283.715C151.505 280.891 156.321 276.795 160 271.76C163.679 276.795 168.495 280.891 174.055 283.715C179.615 286.539 185.764 288.01 192 288.01C198.236 288.01 204.385 286.539 209.945 283.715C215.505 280.891 220.321 276.795 224 271.76C227.679 276.795 232.495 280.891 238.055 283.715C243.615 286.539 249.764 288.01 256 288.01C262.236 288.01 268.385 286.539 273.945 283.715C279.505 280.891 284.321 276.795 288 271.76C291.679 276.795 296.495 280.891 302.055 283.715C307.615 286.539 313.764 288.01 320 288.01C326.236 288.01 332.385 286.539 337.945 283.715C343.505 280.891 348.321 276.795 352 271.76C355.679 276.795 360.495 280.891 366.055 283.715C371.615 286.539 377.764 288.01 384 288.01C390.236 288.01 396.385 286.539 401.945 283.715C407.505 280.891 412.321 276.795 416 271.76C420.49 277.893 426.645 282.608 433.736 285.345C440.827 288.082 448.554 288.726 456 287.2V464H200V368C199.983 353.153 194.078 338.919 183.579 328.421C173.081 317.922 158.847 312.017 144 312ZM176 408H184V464H104V368C104 357.391 108.214 347.217 115.716 339.716C123.217 332.214 133.391 328 144 328C154.609 328 164.783 332.214 172.284 339.716C179.786 347.217 184 357.391 184 368V392H176C173.878 392 171.843 392.843 170.343 394.343C168.843 395.843 168 397.878 168 400C168 402.122 168.843 404.157 170.343 405.657C171.843 407.157 173.878 408 176 408ZM104 248V240H152V248C152 254.365 149.471 260.47 144.971 264.971C140.47 269.471 134.365 272 128 272C121.635 272 115.53 269.471 111.029 264.971C106.529 260.47 104 254.365 104 248ZM168 248V240H216V248C216 254.365 213.471 260.47 208.971 264.971C204.47 269.471 198.365 272 192 272C185.635 272 179.53 269.471 175.029 264.971C170.529 260.47 168 254.365 168 248ZM232 248V240H280V248C280 254.365 277.471 260.47 272.971 264.971C268.47 269.471 262.365 272 256 272C249.635 272 243.53 269.471 239.029 264.971C234.529 260.47 232 254.365 232 248ZM296 248V240H344V248C344 254.365 341.471 260.47 336.971 264.971C332.47 269.471 326.365 272 320 272C313.635 272 307.53 269.471 303.029 264.971C298.529 260.47 296 254.365 296 248ZM360 248V240H408V248C408 254.365 405.471 260.47 400.971 264.971C396.47 269.471 390.365 272 384 272C377.635 272 371.53 269.471 367.029 264.971C362.529 260.47 360 254.365 360 248ZM72 40C72 33.6348 74.5286 27.5303 79.0294 23.0294C83.5303 18.5286 89.6348 16 96 16H416C422.365 16 428.47 18.5286 432.971 23.0294C437.471 27.5303 440 33.6348 440 40V192H172V132.048C176.409 129.482 180.447 126.325 184 122.664V144C184 146.122 184.843 148.157 186.343 149.657C187.843 151.157 189.878 152 192 152H209.136C210.882 158.861 214.864 164.944 220.454 169.289C226.043 173.634 232.921 175.993 240 175.993C247.079 175.993 253.957 173.634 259.546 169.289C265.136 164.944 269.118 158.861 270.864 152H337.136C338.882 158.861 342.864 164.944 348.454 169.289C354.043 173.634 360.921 175.993 368 175.993C375.079 175.993 381.957 173.634 387.546 169.289C393.136 164.944 397.118 158.861 398.864 152H416C418.122 152 420.157 151.157 421.657 149.657C423.157 148.157 424 146.122 424 144V128C423.987 115.274 418.926 103.072 409.927 94.0729C400.928 85.0739 388.726 80.0127 376 80H373.768L365.056 53.88C362.939 47.5055 358.866 41.9605 353.418 38.0326C347.969 34.1047 341.421 31.9939 334.704 32H257.296C250.581 32.0012 244.036 34.1148 238.589 38.0417C233.142 41.9685 229.068 47.5095 226.944 53.88L218.232 80H208C205.215 80.0262 202.456 80.5407 199.848 81.52C199.46 71.1777 196.218 61.1445 190.479 52.5314C184.741 43.9182 176.731 37.0614 167.336 32.72C166.117 32.1605 164.776 31.9167 163.438 32.011C162.099 32.1054 160.806 32.5348 159.677 33.2598C158.548 33.9848 157.62 34.9821 156.977 36.16C156.335 37.3378 155.999 38.6583 156 40V75.592H132V40C131.999 38.6597 131.661 37.3411 131.017 36.1654C130.373 34.9898 129.445 33.9946 128.316 33.2715C127.188 32.5483 125.896 32.1203 124.558 32.0268C123.221 31.9332 121.882 32.1771 120.664 32.736C111.326 37.0082 103.344 43.7691 97.5938 52.2773C91.8436 60.7856 88.5469 70.7127 88.0652 80.9706C87.5834 91.2284 89.9352 101.421 94.8627 110.431C99.7903 119.44 107.103 126.919 116 132.048V192H72V40ZM127.336 119.92C121.446 117.228 116.3 113.143 112.342 108.018C108.383 102.893 105.732 96.8819 104.616 90.5031C103.5 84.1242 103.953 77.5696 105.937 71.4051C107.92 65.2406 111.374 59.6514 116 55.12V83.616C116 85.7377 116.843 87.7726 118.343 89.2729C119.843 90.7731 121.878 91.616 124 91.616H164C166.122 91.616 168.157 90.7731 169.657 89.2729C171.157 87.7726 172 85.7377 172 83.616V55.096C176.626 59.6274 180.08 65.2166 182.063 71.3811C184.047 77.5456 184.5 84.1002 183.384 90.4791C182.268 96.8579 179.617 102.869 175.658 107.994C171.7 113.119 166.554 117.204 160.664 119.896C159.273 120.534 158.095 121.557 157.268 122.845C156.441 124.132 156.001 125.63 156 127.16V192H132V127.2C132.002 125.667 131.563 124.166 130.736 122.876C129.909 121.585 128.729 120.559 127.336 119.92ZM288 96V136H270.864C269.118 129.139 265.136 123.056 259.546 118.711C253.957 114.366 247.079 112.007 240 112.007C232.921 112.007 226.043 114.366 220.454 118.711C214.864 123.056 210.882 129.139 209.136 136H200V104C200 101.878 200.843 99.8434 202.343 98.3431C203.843 96.8429 205.878 96 208 96H288ZM235.104 80L242.12 58.944C243.181 55.758 245.218 52.9866 247.942 51.0225C250.665 49.0583 253.938 48.0009 257.296 48H288V80H235.104ZM256 144C256 147.165 255.062 150.258 253.304 152.889C251.545 155.52 249.047 157.571 246.123 158.782C243.199 159.993 239.982 160.31 236.879 159.693C233.775 159.075 230.924 157.551 228.686 155.314C226.449 153.076 224.925 150.225 224.307 147.121C223.69 144.018 224.007 140.801 225.218 137.877C226.429 134.953 228.48 132.455 231.111 130.696C233.742 128.938 236.835 128 240 128C244.243 128 248.313 129.686 251.314 132.686C254.314 135.687 256 139.757 256 144ZM376 96C384.487 96 392.626 99.3714 398.627 105.373C404.629 111.374 408 119.513 408 128V136H398.864C397.118 129.139 393.136 123.056 387.546 118.711C381.957 114.366 375.079 112.007 368 112.007C360.921 112.007 354.043 114.366 348.454 118.711C342.864 123.056 338.882 129.139 337.136 136H304V96H376ZM304 80V48H334.704C338.066 47.9958 341.344 49.0509 344.073 51.0154C346.801 52.98 348.842 55.7541 349.904 58.944L356.896 80H304ZM384 144C384 147.165 383.062 150.258 381.304 152.889C379.545 155.52 377.047 157.571 374.123 158.782C371.199 159.993 367.982 160.31 364.879 159.693C361.775 159.075 358.924 157.551 356.686 155.314C354.449 153.076 352.925 150.225 352.307 147.121C351.69 144.018 352.007 140.801 353.218 137.877C354.429 134.953 356.48 132.455 359.111 130.696C361.742 128.938 364.835 128 368 128C372.243 128 376.313 129.686 379.314 132.686C382.314 135.687 384 139.757 384 144ZM67.312 208H444.688L460.688 224H51.312L67.312 208ZM40 240H88V248C88 254.365 85.4714 260.47 80.9706 264.971C76.4697 269.471 70.3652 272 64 272C57.6348 272 51.5303 269.471 47.0294 264.971C42.5286 260.47 40 254.365 40 248V240ZM32 496C32 491.757 33.6857 487.687 36.6863 484.686C39.6869 481.686 43.7565 480 48 480H464C468.243 480 472.313 481.686 475.314 484.686C478.314 487.687 480 491.757 480 496H32Z" fill="black"/>
<path d="M240 440H416C418.122 440 420.157 439.157 421.657 437.657C423.157 436.157 424 434.122 424 432V320C424 317.878 423.157 315.843 421.657 314.343C420.157 312.843 418.122 312 416 312H240C237.878 312 235.843 312.843 234.343 314.343C232.843 315.843 232 317.878 232 320V432C232 434.122 232.843 436.157 234.343 437.657C235.843 439.157 237.878 440 240 440ZM336 328H408V368H336V328ZM336 384H408V424H336V384ZM248 328H320V368H248V328ZM248 384H320V424H248V384Z" fill="black"/>
</svg>
