<svg width="200" height="200" viewBox="0 0 200 200" fill="none" xmlns="http://www.w3.org/2000/svg">
<path d="M162.109 89.2578C141.432 89.2578 124.609 72.4355 124.609 51.7578C124.609 31.0801 141.432 14.2578 162.109 14.2578C182.787 14.2578 199.609 31.0801 199.609 51.7578C199.609 72.4355 182.787 89.2578 162.109 89.2578ZM162.109 18.9453C144.017 18.9453 129.297 33.6648 129.297 51.7578C129.297 69.8508 144.017 84.5703 162.109 84.5703C180.202 84.5703 194.922 69.8508 194.922 51.7578C194.922 33.6648 180.202 18.9453 162.109 18.9453Z" fill="black"/>
<path d="M179.688 85.1562C178.393 85.1562 177.344 84.1066 177.344 82.8125V81.0547C177.344 76.9855 175.759 73.1598 172.882 70.2824C170.004 67.4051 166.179 65.8203 162.109 65.8203C153.709 65.8203 146.875 72.6543 146.875 81.0547V82.8125C146.875 84.1066 145.825 85.1562 144.531 85.1562C143.237 85.1562 142.188 84.1066 142.188 82.8125V81.0547C142.188 70.0695 151.125 61.1328 162.109 61.1328C167.43 61.1328 172.434 63.2051 176.196 66.968C179.959 70.7305 182.031 75.7332 182.031 81.0547V82.8125C182.031 84.1066 180.982 85.1562 179.688 85.1562Z" fill="black"/>
<path d="M162.109 65.8203C154.355 65.8203 148.047 59.5121 148.047 51.7578C148.047 44.0035 154.355 37.6953 162.109 37.6953C169.864 37.6953 176.172 44.0035 176.172 51.7578C176.172 59.5121 169.864 65.8203 162.109 65.8203ZM162.109 42.3828C156.94 42.3828 152.734 46.5883 152.734 51.7578C152.734 56.9273 156.94 61.1328 162.109 61.1328C167.279 61.1328 171.484 56.9273 171.484 51.7578C171.484 46.5883 167.279 42.3828 162.109 42.3828Z" fill="black"/>
<path d="M37.8906 87.6953C17.2129 87.6953 0.390625 70.873 0.390625 50.1953C0.390625 29.5176 17.2129 12.6953 37.8906 12.6953C58.5684 12.6953 75.3906 29.5176 75.3906 50.1953C75.3906 70.873 58.5684 87.6953 37.8906 87.6953ZM37.8906 17.3828C19.7977 17.3828 5.07812 32.1023 5.07812 50.1953C5.07812 68.2883 19.7977 83.0078 37.8906 83.0078C55.9836 83.0078 70.7031 68.2883 70.7031 50.1953C70.7031 32.1023 55.9836 17.3828 37.8906 17.3828Z" fill="black"/>
<path d="M55.4688 83.5938C54.1746 83.5938 53.125 82.5441 53.125 81.25V79.4922C53.125 75.4227 51.5402 71.5973 48.6629 68.7199C45.7855 65.8426 41.9602 64.2578 37.8906 64.2578C29.4902 64.2578 22.6562 71.0918 22.6562 79.4922V81.25C22.6562 82.5441 21.6066 83.5938 20.3125 83.5938C19.0184 83.5938 17.9688 82.5441 17.9688 81.25V79.4922C17.9688 68.507 26.9055 59.5703 37.8906 59.5703C43.2121 59.5703 48.2152 61.6426 51.9777 65.4055C55.7402 69.1676 57.8125 74.1707 57.8125 79.4922V81.25C57.8125 82.5441 56.7629 83.5938 55.4688 83.5938Z" fill="black"/>
<path d="M37.8906 64.2578C30.1363 64.2578 23.8281 57.9496 23.8281 50.1953C23.8281 42.441 30.1363 36.1328 37.8906 36.1328C45.6449 36.1328 51.9531 42.441 51.9531 50.1953C51.9531 57.9496 45.6449 64.2578 37.8906 64.2578ZM37.8906 40.8203C32.7211 40.8203 28.5156 45.0258 28.5156 50.1953C28.5156 55.3648 32.7211 59.5703 37.8906 59.5703C43.0602 59.5703 47.2656 55.3648 47.2656 50.1953C47.2656 45.0258 43.0602 40.8203 37.8906 40.8203Z" fill="black"/>
<path d="M119.922 23.8281H84.7656C83.4715 23.8281 82.4219 22.7785 82.4219 21.4844C82.4219 20.1902 83.4715 19.1406 84.7656 19.1406H119.922C121.216 19.1406 122.266 20.1902 122.266 21.4844C122.266 22.7785 121.216 23.8281 119.922 23.8281Z" fill="black"/>
<path d="M97.6563 99.4138C97.0563 99.4138 96.4567 99.1849 95.9989 98.7274L84.2802 87.0087C83.3649 86.0935 83.3649 84.6095 84.2802 83.6942L95.9989 71.9755C96.9142 71.0603 98.3985 71.0603 99.3134 71.9755C100.229 72.8907 100.229 74.3747 99.3134 75.2899L89.252 85.3513L99.3134 95.4126C100.229 96.3278 100.229 97.8118 99.3134 98.7271C98.856 99.1849 98.2563 99.4138 97.6563 99.4138Z" fill="black"/>
<path d="M121.094 88.2812H85.9375C84.6434 88.2812 83.5938 87.2316 83.5938 85.9375C83.5938 84.6434 84.6434 83.5938 85.9375 83.5938H121.094C122.388 83.5938 123.438 84.6434 123.438 85.9375C123.438 87.2316 122.388 88.2812 121.094 88.2812Z" fill="black"/>
<path d="M108.203 34.9606C107.604 34.9606 107.004 34.7317 106.546 34.2743C105.63 33.3591 105.63 31.8751 106.546 30.9599L116.607 20.8981L106.546 10.8368C105.63 9.92158 105.63 8.4376 106.546 7.52236C107.461 6.60713 108.946 6.60713 109.86 7.52236L121.579 19.2411C122.495 20.1563 122.495 21.6403 121.579 22.5556L109.86 34.2743C109.403 34.7317 108.803 34.9606 108.203 34.9606Z" fill="black"/>
<path d="M159.766 183.789H40.2344C38.9402 183.789 37.8906 182.739 37.8906 181.445V122.852C37.8906 121.557 38.9402 120.508 40.2344 120.508H159.766C161.06 120.508 162.109 121.557 162.109 122.852V181.445C162.109 182.739 161.06 183.789 159.766 183.789ZM42.5781 179.102H157.422V125.195H42.5781V179.102Z" fill="black"/>
<path d="M169.141 193.164H30.8594C29.5652 193.164 28.5156 192.114 28.5156 190.82V113.477C28.5156 112.182 29.5652 111.133 30.8594 111.133H169.141C170.435 111.133 171.484 112.182 171.484 113.477V190.82C171.484 192.114 170.435 193.164 169.141 193.164ZM33.2031 188.477H166.797V115.82H33.2031V188.477Z" fill="black"/>
<path d="M70.7031 156.836H62.5C61.2059 156.836 60.1562 155.786 60.1562 154.492V138.086C60.1562 136.792 61.2059 135.742 62.5 135.742H70.7031C76.5187 135.742 81.25 140.473 81.25 146.289C81.25 152.105 76.5187 156.836 70.7031 156.836ZM64.8438 152.148H70.7031C73.934 152.148 76.5625 149.52 76.5625 146.289C76.5625 143.058 73.934 140.43 70.7031 140.43H64.8438V152.148Z" fill="black"/>
<path d="M70.7031 173.242H62.5C61.2059 173.242 60.1562 172.193 60.1562 170.898V154.492C60.1562 153.198 61.2059 152.148 62.5 152.148H70.7031C76.5187 152.148 81.25 156.88 81.25 162.695C81.25 168.511 76.5187 173.242 70.7031 173.242ZM64.8438 168.555H70.7031C73.934 168.555 76.5625 165.926 76.5625 162.695C76.5625 159.464 73.934 156.836 70.7031 156.836H64.8438V168.555Z" fill="black"/>
<path d="M129.297 156.836H121.094C119.8 156.836 118.75 155.786 118.75 154.492V138.086C118.75 136.792 119.8 135.742 121.094 135.742H129.297C135.112 135.742 139.844 140.473 139.844 146.289C139.844 152.105 135.112 156.836 129.297 156.836ZM123.438 152.148H129.297C132.528 152.148 135.156 149.52 135.156 146.289C135.156 143.058 132.528 140.43 129.297 140.43H123.438V152.148Z" fill="black"/>
<path d="M129.297 173.242H121.094C119.8 173.242 118.75 172.193 118.75 170.898V154.492C118.75 153.198 119.8 152.148 121.094 152.148H129.297C135.112 152.148 139.844 156.88 139.844 162.695C139.844 168.511 135.112 173.242 129.297 173.242ZM123.438 168.555H129.297C132.528 168.555 135.156 165.926 135.156 162.695C135.156 159.464 132.528 156.836 129.297 156.836H123.438V168.555Z" fill="black"/>
<path d="M107.031 173.828H90.625C89.3309 173.828 88.2812 172.779 88.2812 171.484V155.078C88.2812 153.784 89.3309 152.734 90.625 152.734H104.688V141.016H90.625C89.3309 141.016 88.2812 139.966 88.2812 138.672C88.2812 137.378 89.3309 136.328 90.625 136.328H107.031C108.325 136.328 109.375 137.378 109.375 138.672V155.078C109.375 156.372 108.325 157.422 107.031 157.422H92.9688V169.141H107.031C108.325 169.141 109.375 170.19 109.375 171.484C109.375 172.779 108.325 173.828 107.031 173.828Z" fill="black"/>
</svg>
