<svg width="456" height="456" viewBox="0 0 456 456" fill="none" xmlns="http://www.w3.org/2000/svg">
<path d="M21.375 441.75H292.125C294.015 441.75 295.827 440.999 297.163 439.663C298.499 438.327 299.25 436.515 299.25 434.625V406.125H342C343.89 406.125 345.702 405.374 347.038 404.038C348.374 402.702 349.125 400.89 349.125 399V21.375C349.125 19.4853 348.374 17.6731 347.038 16.3369C345.702 15.0007 343.89 14.25 342 14.25H42.75C40.8603 14.25 39.0481 15.0007 37.7119 16.3369C36.3757 17.6731 35.625 19.4853 35.625 21.375V71.25H21.375C19.4853 71.25 17.6731 72.0007 16.3369 73.3369C15.0007 74.6731 14.25 76.4853 14.25 78.375V434.625C14.25 436.515 15.0007 438.327 16.3369 439.663C17.6731 440.999 19.4853 441.75 21.375 441.75ZM49.875 28.5H334.875V391.875H299.25V377.625H320.625V363.375H299.25V349.125H320.625V334.875H299.25V320.625H320.625V306.375H299.25V292.125H320.625V277.875H299.25V263.625H320.625V249.375H299.25V235.125H320.625V220.875H299.25V206.625H320.625V192.375H299.25V178.125H320.625V163.875H299.25V142.5H320.625V128.25H299.25V106.875H320.625V92.625H299.25V78.375C299.25 76.4853 298.499 74.6731 297.163 73.3369C295.827 72.0007 294.015 71.25 292.125 71.25H49.875V28.5ZM28.5 85.5H285V427.5H28.5V85.5Z" fill="url(#paint0_linear_2037_241)"/>
<path d="M63.626 163.875L59.1373 191.235C58.8978 192.585 59.0528 193.975 59.5836 195.238C60.1144 196.502 60.9984 197.586 62.1298 198.36C63.2215 199.133 64.5089 199.583 65.8446 199.659C67.1802 199.734 68.5102 199.432 69.6822 198.787L92.6247 185.891L115.567 198.645C116.646 199.204 117.843 199.497 119.058 199.5C120.098 199.513 121.128 199.299 122.077 198.872C123.025 198.445 123.868 197.815 124.547 197.028C125.226 196.24 125.724 195.313 126.007 194.313C126.29 193.312 126.35 192.261 126.183 191.235L121.623 163.875L140.505 144.495C141.406 143.554 142.032 142.383 142.315 141.11C142.597 139.838 142.525 138.512 142.106 137.278C141.687 136.043 140.938 134.947 139.939 134.109C138.941 133.271 137.732 132.723 136.443 132.525L110.651 128.25L99.1085 103.597C98.5417 102.353 97.6291 101.299 96.4795 100.559C95.3298 99.8197 93.9917 99.4265 92.6247 99.4265C91.2578 99.4265 89.9197 99.8197 88.77 100.559C87.6204 101.299 86.7078 102.353 86.141 103.597L74.5985 128.25L48.806 132.24C47.5177 132.438 46.3085 132.986 45.3101 133.824C44.3116 134.662 43.5622 135.758 43.1434 136.993C42.7246 138.227 42.6524 139.553 42.9348 140.825C43.2171 142.098 43.8432 143.268 44.7447 144.21L63.626 163.875ZM80.5123 142.072C81.6609 141.894 82.7483 141.437 83.6798 140.741C84.6112 140.046 85.3583 139.133 85.856 138.082L92.6247 123.832L99.3935 138.082C99.8912 139.133 100.638 140.046 101.57 140.741C102.501 141.437 103.589 141.894 104.737 142.072L120.555 144.495L108.87 156.75C108.092 157.549 107.512 158.52 107.178 159.585C106.844 160.649 106.765 161.777 106.946 162.877L109.653 179.336L96.0447 171.855C94.9616 171.23 93.7329 170.9 92.4822 170.9C91.2315 170.9 90.0029 171.23 88.9197 171.855L75.311 179.336L78.3747 162.592C78.5561 161.492 78.4766 160.364 78.1424 159.3C77.8083 158.235 77.2289 157.264 76.451 156.465L64.6947 144.495L80.5123 142.072Z" fill="url(#paint1_linear_2037_241)"/>
<path d="M42.75 220.875H242.25V235.125H42.75V220.875Z" fill="url(#paint2_linear_2037_241)"/>
<path d="M42.75 249.375H156.75V263.625H42.75V249.375Z" fill="url(#paint3_linear_2037_241)"/>
<path d="M42.75 277.875H156.75V292.125H42.75V277.875Z" fill="url(#paint4_linear_2037_241)"/>
<path d="M42.75 306.375H156.75V320.625H42.75V306.375Z" fill="url(#paint5_linear_2037_241)"/>
<path d="M128.25 370.5H270.75V384.75H128.25V370.5Z" fill="url(#paint6_linear_2037_241)"/>
<path d="M78.375 342C71.3291 342 64.4413 344.089 58.5828 348.004C52.7243 351.918 48.1582 357.482 45.4618 363.992C42.7654 370.502 42.0599 377.665 43.4345 384.575C44.8091 391.486 48.2021 397.833 53.1843 402.816C58.1666 407.798 64.5144 411.191 71.4249 412.565C78.3355 413.94 85.4985 413.235 92.0081 410.538C98.5177 407.842 104.082 403.276 107.996 397.417C111.911 391.559 114 384.671 114 377.625C114 368.177 110.247 359.115 103.566 352.434C96.8847 345.753 87.8234 342 78.375 342ZM78.375 399C74.1474 399 70.0148 397.746 66.4997 395.398C62.9846 393.049 60.2449 389.711 58.6271 385.805C57.0093 381.899 56.586 377.601 57.4107 373.455C58.2355 369.309 60.2713 365.5 63.2606 362.511C66.25 359.521 70.0586 357.485 74.205 356.661C78.3513 355.836 82.6491 356.259 86.5549 357.877C90.4606 359.495 93.799 362.235 96.1477 365.75C98.4964 369.265 99.75 373.397 99.75 377.625C99.75 383.294 97.498 388.731 93.4894 392.739C89.4808 396.748 84.044 399 78.375 399Z" fill="url(#paint7_linear_2037_241)"/>
<path d="M434.625 28.5H391.875C389.985 28.5 388.173 29.2507 386.837 30.5869C385.501 31.9231 384.75 33.7353 384.75 35.625V400.924C384.754 402.289 385.149 403.624 385.89 404.771L407.265 438.473C407.911 439.472 408.797 440.295 409.843 440.864C410.888 441.433 412.06 441.732 413.25 441.732C414.44 441.732 415.612 441.433 416.657 440.864C417.703 440.295 418.589 439.472 419.235 438.473L440.61 404.771C441.351 403.624 441.746 402.289 441.75 400.924V35.625C441.75 33.7353 440.999 31.9231 439.663 30.5869C438.327 29.2507 436.515 28.5 434.625 28.5ZM413.25 421.301L403.631 406.125H422.869L413.25 421.301ZM427.5 78.375V391.875H399V71.25H427.5V78.375ZM427.5 57H399V42.75H427.5V57Z" fill="url(#paint8_linear_2037_241)"/>
<path d="M85.5 42.75H285V57H85.5V42.75Z" fill="url(#paint9_linear_2037_241)"/>
<defs>
<linearGradient id="paint0_linear_2037_241" x1="181.688" y1="14.25" x2="181.688" y2="441.75" gradientUnits="userSpaceOnUse">
<stop stop-color="#F9CF2F"/>
<stop offset="1" stop-color="#0B559B"/>
</linearGradient>
<linearGradient id="paint1_linear_2037_241" x1="92.6247" y1="99.4265" x2="92.6247" y2="199.67" gradientUnits="userSpaceOnUse">
<stop stop-color="#F9CF2F"/>
<stop offset="1" stop-color="#0B559B"/>
</linearGradient>
<linearGradient id="paint2_linear_2037_241" x1="142.5" y1="220.875" x2="142.5" y2="235.125" gradientUnits="userSpaceOnUse">
<stop stop-color="#F9CF2F"/>
<stop offset="1" stop-color="#0B559B"/>
</linearGradient>
<linearGradient id="paint3_linear_2037_241" x1="99.75" y1="249.375" x2="99.75" y2="263.625" gradientUnits="userSpaceOnUse">
<stop stop-color="#F9CF2F"/>
<stop offset="1" stop-color="#0B559B"/>
</linearGradient>
<linearGradient id="paint4_linear_2037_241" x1="99.75" y1="277.875" x2="99.75" y2="292.125" gradientUnits="userSpaceOnUse">
<stop stop-color="#F9CF2F"/>
<stop offset="1" stop-color="#0B559B"/>
</linearGradient>
<linearGradient id="paint5_linear_2037_241" x1="99.75" y1="306.375" x2="99.75" y2="320.625" gradientUnits="userSpaceOnUse">
<stop stop-color="#F9CF2F"/>
<stop offset="1" stop-color="#0B559B"/>
</linearGradient>
<linearGradient id="paint6_linear_2037_241" x1="199.5" y1="370.5" x2="199.5" y2="384.75" gradientUnits="userSpaceOnUse">
<stop stop-color="#F9CF2F"/>
<stop offset="1" stop-color="#0B559B"/>
</linearGradient>
<linearGradient id="paint7_linear_2037_241" x1="78.375" y1="342" x2="78.375" y2="413.25" gradientUnits="userSpaceOnUse">
<stop stop-color="#F9CF2F"/>
<stop offset="1" stop-color="#0B559B"/>
</linearGradient>
<linearGradient id="paint8_linear_2037_241" x1="413.25" y1="28.5" x2="413.25" y2="441.732" gradientUnits="userSpaceOnUse">
<stop stop-color="#F9CF2F"/>
<stop offset="1" stop-color="#0B559B"/>
</linearGradient>
<linearGradient id="paint9_linear_2037_241" x1="185.25" y1="42.75" x2="185.25" y2="57" gradientUnits="userSpaceOnUse">
<stop stop-color="#F9CF2F"/>
<stop offset="1" stop-color="#0B559B"/>
</linearGradient>
</defs>
</svg>
