<svg width="512" height="512" viewBox="0 0 512 512" fill="none" xmlns="http://www.w3.org/2000/svg">
<g clip-path="url(#clip0_1641_196)">
<path d="M71.1115 242.043H7.59375V442.294H71.1115V242.043Z" stroke="black" stroke-width="15.0189" stroke-miterlimit="10"/>
<path d="M504.408 242.043H440.891V442.294H504.408V242.043Z" stroke="black" stroke-width="15.0189" stroke-miterlimit="10"/>
<path d="M236.047 481.554L253.614 498.991C260.945 506.323 272.832 506.323 280.163 498.991C287.494 491.66 287.494 479.773 280.163 472.442L291.188 483.334C298.519 490.665 310.406 490.665 317.738 483.334C324.904 476.168 325.047 464.662 318.205 457.3L324.807 463.902C332.139 471.234 344.025 471.234 351.358 463.902C358.576 456.684 358.671 445.062 351.677 437.707L361.823 447.852C368.667 453.352 380.554 453.352 387.886 446.021C395.217 438.69 395.217 426.803 387.886 419.472L361.352 392.984" stroke="black" stroke-width="15.0189" stroke-miterlimit="10"/>
<path d="M71.1094 412.254H103.824" stroke="black" stroke-width="15.0189" stroke-miterlimit="10"/>
<path d="M105.935 262.066H71.1094" stroke="black" stroke-width="15.0189" stroke-miterlimit="10"/>
<path d="M250.241 227.426L208.561 227.95C200.681 228.05 193.155 231.242 187.607 236.839L162.598 262.066H122.172" stroke="black" stroke-width="15.0189" stroke-miterlimit="10"/>
<path d="M263.766 456.316L280.158 472.442" stroke="black" stroke-width="15.0189" stroke-miterlimit="10"/>
<path d="M290.344 429.758L318.204 457.299" stroke="black" stroke-width="15.0189" stroke-miterlimit="10"/>
<path d="M318.203 404.625L351.676 437.708" stroke="black" stroke-width="15.0189" stroke-miterlimit="10"/>
<path d="M189.831 364.435L151.412 402.853C144.081 410.185 144.081 422.071 151.412 429.403C158.744 436.734 170.631 436.734 177.475 431.234L217.053 391.656C224.57 384.139 224.57 371.952 217.053 364.434C209.535 356.918 197.347 356.918 189.831 364.435Z" stroke="black" stroke-width="15.0189" stroke-miterlimit="10"/>
<path d="M139.274 360.555L107.936 391.894C100.605 399.225 100.605 411.112 107.936 418.443C115.267 425.774 127.154 425.774 133.999 420.274L166.496 387.777C174.014 380.259 174.014 368.072 166.496 360.554C158.979 353.039 146.791 353.039 139.274 360.555Z" stroke="black" stroke-width="15.0189" stroke-miterlimit="10"/>
<path d="M217.049 391.653L178.631 430.071C171.3 437.403 171.3 449.289 178.631 456.621C185.962 463.952 197.849 463.952 204.694 458.452L244.272 418.874C251.789 411.357 251.789 399.17 244.272 391.652C236.754 384.137 224.567 384.137 217.049 391.653Z" stroke="black" stroke-width="15.0189" stroke-miterlimit="10"/>
<path d="M237.196 425.955L205.858 457.293C198.527 464.624 198.527 476.511 205.858 483.842C213.189 491.174 225.076 491.174 231.921 485.674L264.418 453.176C271.936 445.658 271.936 433.471 264.418 425.954C256.901 418.437 244.714 418.437 237.196 425.955Z" stroke="black" stroke-width="15.0189" stroke-miterlimit="10"/>
<path d="M347.328 379.012L382.433 414.068L440.889 412.255" stroke="black" stroke-width="15.0189" stroke-miterlimit="10"/>
<path d="M440.886 262.128H362.067L324.34 233.526C319.119 229.567 312.746 227.426 306.193 227.426H250.242L177.117 299.175L190.873 314.243C202.317 326.778 221.865 327.348 234.021 315.502L259.036 290.847L336.383 368.084" stroke="black" stroke-width="15.0189" stroke-miterlimit="10"/>
<path d="M259.039 290.848L297.624 329.377C309.209 340.947 327.927 341.106 339.707 329.736L346.332 323.342" stroke="black" stroke-width="15.0189" stroke-miterlimit="10"/>
<path d="M466.484 376.211H481.503" stroke="black" stroke-width="15.0189" stroke-miterlimit="10"/>
<path d="M30.9375 376.211H45.9564" stroke="black" stroke-width="15.0189" stroke-miterlimit="10"/>
<path d="M256.06 7.50781H153.306L143.294 90.6743H108.375V165.706H139.649" stroke="black" stroke-width="15.0189" stroke-miterlimit="10"/>
<path d="M351.117 165.706H403.62V90.6743H353.558L318.514 7.50781H270.016" stroke="black" stroke-width="15.0189" stroke-miterlimit="10"/>
<path d="M197.422 165.707H293.042" stroke="black" stroke-width="15.0189" stroke-miterlimit="10"/>
<path d="M168.658 192.968C184.636 192.968 197.589 180.015 197.589 164.037C197.589 148.058 184.636 135.105 168.658 135.105C152.68 135.105 139.727 148.058 139.727 164.037C139.727 180.015 152.68 192.968 168.658 192.968Z" stroke="black" stroke-width="15.0189" stroke-miterlimit="10"/>
<path d="M321.595 192.968C337.574 192.968 350.527 180.015 350.527 164.037C350.527 148.058 337.574 135.105 321.595 135.105C305.617 135.105 292.664 148.058 292.664 164.037C292.664 180.015 305.617 192.968 321.595 192.968Z" stroke="black" stroke-width="15.0189" stroke-miterlimit="10"/>
<path d="M314.569 90.6757L292.488 40.5508H182.613L176.578 90.6757H314.569Z" stroke="black" stroke-width="15.0189" stroke-miterlimit="10"/>
<path d="M237.648 40.5508V90.6757" stroke="black" stroke-width="15.0189" stroke-miterlimit="10"/>
<path d="M255 122.652H270.019" stroke="black" stroke-width="15.0189" stroke-miterlimit="10"/>
<path d="M376.148 122.652H403.62" stroke="black" stroke-width="15.0189" stroke-miterlimit="10"/>
<path d="M108.375 122.652H135.973" stroke="black" stroke-width="15.0189" stroke-miterlimit="10"/>
</g>
<defs>
<clipPath id="clip0_1641_196">
<rect width="512" height="512" fill="white"/>
</clipPath>
</defs>
</svg>
