<svg width="512" height="512" viewBox="0 0 512 512" fill="none" xmlns="http://www.w3.org/2000/svg">
<path fill-rule="evenodd" clip-rule="evenodd" d="M405.498 467.487H106.503C80.7512 467.487 59.8008 446.531 59.8008 420.779L59.8011 306.819C59.8011 303.914 62.1568 301.557 65.0626 301.557C67.9687 301.557 70.3244 303.914 70.3244 306.819L70.3247 420.779C70.3247 440.73 86.5537 456.963 106.503 456.963H405.498C425.44 456.963 441.672 440.731 441.672 420.779L441.673 306.819C441.673 303.914 444.029 301.557 446.934 301.557C449.839 301.557 452.196 303.914 452.196 306.819L452.196 420.779C452.196 446.531 431.25 467.487 405.498 467.487Z" fill="url(#paint0_linear_2037_276)"/>
<path fill-rule="evenodd" clip-rule="evenodd" d="M336.434 312.081H175.565C172.659 312.081 170.303 309.724 170.303 306.819C170.304 303.914 172.658 301.557 175.564 301.557H336.434C339.34 301.557 341.696 303.914 341.696 306.819C341.696 309.724 339.34 312.081 336.434 312.081ZM461.771 312.081H390.319C387.413 312.081 385.057 309.724 385.057 306.819C385.058 303.914 387.413 301.557 390.319 301.557H461.771C469.207 301.557 475.254 295.51 475.254 288.074L475.254 170.158C475.254 162.722 469.207 156.675 461.771 156.675H50.2245C42.7933 156.675 36.7463 162.722 36.7463 170.158L36.7466 288.074C36.7466 295.51 42.7927 301.557 50.2242 301.557H121.682C124.588 301.557 126.942 303.914 126.942 306.819C126.942 309.724 124.587 312.081 121.682 312.081H50.2245C36.9905 312.081 26.2227 301.311 26.2227 288.074V170.158C26.2227 156.921 36.9902 146.151 50.2242 146.151L461.771 146.151C475.008 146.151 485.778 156.921 485.778 170.158L485.778 288.074C485.778 301.31 475.008 312.081 461.771 312.081Z" fill="url(#paint1_linear_2037_276)"/>
<path fill-rule="evenodd" clip-rule="evenodd" d="M353.177 284.355C346.846 284.355 341.696 289.507 341.696 295.838V317.799C341.696 324.13 346.846 329.282 353.177 329.282H373.575C379.906 329.282 385.056 324.13 385.056 317.799L385.057 295.838C385.057 289.507 379.906 284.355 373.575 284.355H353.177ZM373.575 339.806H353.177C341.044 339.806 331.172 329.93 331.172 317.799L331.172 295.838C331.172 283.707 341.043 273.832 353.177 273.832L373.575 273.832C385.709 273.832 395.577 283.707 395.577 295.838L395.577 317.799C395.577 329.93 385.708 339.806 373.575 339.806Z" fill="url(#paint2_linear_2037_276)"/>
<path fill-rule="evenodd" clip-rule="evenodd" d="M313.855 156.675C310.949 156.675 308.593 154.317 308.593 151.413L308.593 97.4788C308.593 96.6568 308.26 95.8713 307.655 95.2684C307.049 94.6563 306.261 94.3274 305.436 94.3274H206.563C205.738 94.3274 204.95 94.6566 204.345 95.2684C203.74 95.8714 203.406 96.6568 203.406 97.4791V151.412C203.406 154.317 201.051 156.675 198.145 156.675C195.239 156.675 192.883 154.317 192.883 151.413V97.4788C192.883 93.8431 194.311 90.4176 196.904 87.823C199.496 85.229 202.927 83.8037 206.563 83.8037H305.437C309.074 83.8037 312.503 85.229 315.097 87.823C317.689 90.4176 319.116 93.8434 319.116 97.4791V151.412C319.116 154.317 316.761 156.675 313.855 156.675Z" fill="url(#paint3_linear_2037_276)"/>
<path fill-rule="evenodd" clip-rule="evenodd" d="M353.141 156.675C350.234 156.675 347.879 154.317 347.879 151.413L347.879 97.4788C347.879 86.1698 343.457 75.5183 335.43 67.4888C327.404 59.4588 316.752 55.0376 305.436 55.0376L206.563 55.0373C195.247 55.0373 184.596 59.4588 176.569 67.4888C168.542 75.5183 164.121 86.1698 164.121 97.4791L164.122 151.412C164.122 154.317 161.765 156.675 158.859 156.675C155.954 156.675 153.598 154.317 153.598 151.413L153.598 97.4788C153.598 83.3564 159.113 70.0645 169.128 60.0526C179.141 50.0312 192.437 44.514 206.563 44.514L305.437 44.5137C319.563 44.5137 332.857 50.0312 342.872 60.0526C352.887 70.0645 358.402 83.3564 358.402 97.4791V151.412C358.402 154.317 356.046 156.675 353.141 156.675Z" fill="url(#paint4_linear_2037_276)"/>
<path fill-rule="evenodd" clip-rule="evenodd" d="M138.423 284.355C132.091 284.355 126.941 289.507 126.941 295.838V317.799C126.941 324.13 132.091 329.282 138.423 329.282H158.821C165.151 329.282 170.301 324.13 170.301 317.799L170.302 295.838C170.302 289.507 165.151 284.355 158.821 284.355H138.423ZM158.821 339.806H138.423C126.289 339.806 116.418 329.93 116.418 317.799L116.418 295.838C116.418 283.707 126.288 273.832 138.423 273.832L158.82 273.832C170.954 273.832 180.825 283.707 180.825 295.838L180.825 317.799C180.825 329.93 170.954 339.806 158.821 339.806Z" fill="url(#paint5_linear_2037_276)"/>
<path fill-rule="evenodd" clip-rule="evenodd" d="M123.446 413.791H388.555V382.969H123.446V413.791ZM393.815 424.314H118.184C115.278 424.314 112.922 421.957 112.922 419.052L112.922 377.707C112.922 374.802 115.278 372.445 118.184 372.445H393.815C396.72 372.445 399.077 374.802 399.077 377.707V419.052C399.077 421.957 396.72 424.314 393.815 424.314Z" fill="url(#paint6_linear_2037_276)"/>
<path fill-rule="evenodd" clip-rule="evenodd" d="M337.804 402.591H314.313C311.406 402.591 309.051 400.234 309.051 397.329L309.051 377.707C309.051 374.802 311.406 372.445 314.313 372.445C317.219 372.445 319.574 374.802 319.574 377.707L319.574 392.067H332.542V377.707C332.542 374.802 334.898 372.445 337.804 372.445C340.709 372.445 343.065 374.802 343.065 377.707V397.329C343.065 400.234 340.709 402.591 337.804 402.591Z" fill="url(#paint7_linear_2037_276)"/>
<path fill-rule="evenodd" clip-rule="evenodd" d="M86.1283 242.352H136.348V188.154H86.1283V242.352ZM141.609 252.876H80.8664C77.9609 252.876 75.6055 250.519 75.6055 247.614L75.6058 182.892C75.6058 179.987 77.9603 177.63 80.8661 177.63H141.609C144.516 177.63 146.871 179.987 146.871 182.892V247.614C146.871 250.519 144.516 252.876 141.609 252.876Z" fill="url(#paint8_linear_2037_276)"/>
<path fill-rule="evenodd" clip-rule="evenodd" d="M111.239 220.519C109.837 220.519 108.437 219.962 107.403 218.857L77.0313 186.5C75.0418 184.381 75.1475 181.047 77.2658 179.055C79.3838 177.073 82.7139 177.173 84.7035 179.293L115.075 211.649C117.064 213.768 116.959 217.103 114.839 219.094C113.825 220.044 112.53 220.519 111.239 220.519Z" fill="url(#paint9_linear_2037_276)"/>
<path fill-rule="evenodd" clip-rule="evenodd" d="M111.237 220.519C109.947 220.519 108.653 220.045 107.638 219.094C105.519 217.103 105.413 213.769 107.402 211.649L137.773 179.292C139.763 177.173 143.093 177.073 145.211 179.055C147.33 181.046 147.435 184.381 145.446 186.5L115.075 218.857C114.04 219.962 112.64 220.519 111.237 220.519Z" fill="url(#paint10_linear_2037_276)"/>
<path fill-rule="evenodd" clip-rule="evenodd" d="M182.637 242.352H232.857V188.154H182.637V242.352ZM238.118 252.876H177.375C174.469 252.876 172.113 250.519 172.113 247.614L172.114 182.892C172.114 179.987 174.469 177.63 177.375 177.63H238.118C241.025 177.63 243.38 179.987 243.38 182.892V247.614C243.38 250.519 241.025 252.876 238.118 252.876Z" fill="url(#paint11_linear_2037_276)"/>
<path fill-rule="evenodd" clip-rule="evenodd" d="M207.744 220.519C206.342 220.519 204.942 219.962 203.907 218.857L173.535 186.5C171.546 184.381 171.652 181.047 173.77 179.055C175.889 177.073 179.218 177.173 181.208 179.293L211.58 211.649C213.569 213.768 213.464 217.103 211.344 219.094C210.329 220.044 209.035 220.519 207.744 220.519Z" fill="url(#paint12_linear_2037_276)"/>
<path fill-rule="evenodd" clip-rule="evenodd" d="M207.745 220.519C206.454 220.519 205.161 220.045 204.145 219.094C202.027 217.103 201.921 213.769 203.909 211.649L234.281 179.292C236.271 177.173 239.6 177.073 241.719 179.055C243.837 181.046 243.943 184.381 241.954 186.5L211.583 218.857C210.547 219.962 209.147 220.519 207.745 220.519Z" fill="url(#paint13_linear_2037_276)"/>
<path fill-rule="evenodd" clip-rule="evenodd" d="M279.144 242.352H329.365V188.154H279.144V242.352ZM334.626 252.876H273.882C270.977 252.876 268.621 250.519 268.621 247.614L268.621 182.892C268.621 179.987 270.976 177.63 273.882 177.63H334.626C337.532 177.63 339.888 179.987 339.888 182.892L339.888 247.614C339.888 250.519 337.532 252.876 334.626 252.876Z" fill="url(#paint14_linear_2037_276)"/>
<path fill-rule="evenodd" clip-rule="evenodd" d="M304.256 220.519C302.853 220.519 301.453 219.962 300.418 218.857L270.047 186.5C268.057 184.381 268.163 181.047 270.282 179.055C272.399 177.073 275.73 177.173 277.72 179.293L308.092 211.649C310.08 213.768 309.974 217.103 307.855 219.094C306.84 220.044 305.546 220.519 304.256 220.519Z" fill="url(#paint15_linear_2037_276)"/>
<path fill-rule="evenodd" clip-rule="evenodd" d="M304.253 220.519C302.962 220.519 301.669 220.045 300.653 219.094C298.534 217.103 298.429 213.769 300.417 211.649L330.79 179.292C332.778 177.173 336.109 177.073 338.227 179.055C340.346 181.046 340.451 184.381 338.463 186.5L308.091 218.857C307.055 219.962 305.655 220.519 304.253 220.519Z" fill="url(#paint16_linear_2037_276)"/>
<path fill-rule="evenodd" clip-rule="evenodd" d="M375.652 242.352H425.87V188.154H375.652V242.352ZM431.132 252.876H370.39C367.484 252.876 365.129 250.519 365.129 247.614V182.892C365.129 179.987 367.484 177.63 370.39 177.63H431.132C434.037 177.63 436.394 179.987 436.394 182.892V247.614C436.394 250.519 434.037 252.876 431.132 252.876Z" fill="url(#paint17_linear_2037_276)"/>
<path fill-rule="evenodd" clip-rule="evenodd" d="M400.768 220.519C399.361 220.519 397.963 219.962 396.921 218.857L366.555 186.5C364.565 184.381 364.671 181.047 366.789 179.055C368.907 177.073 372.237 177.173 374.227 179.293L404.595 211.649C406.586 213.768 406.486 217.103 404.367 219.094C403.353 220.044 402.056 220.519 400.768 220.519Z" fill="url(#paint18_linear_2037_276)"/>
<path fill-rule="evenodd" clip-rule="evenodd" d="M400.759 220.519C399.471 220.519 398.174 220.045 397.16 219.094C395.04 217.103 394.94 213.769 396.922 211.649L427.297 179.292C429.288 177.173 432.613 177.073 434.732 179.055C436.852 181.046 436.961 184.381 434.97 186.5L404.596 218.857C403.564 219.962 402.166 220.519 400.759 220.519Z" fill="url(#paint19_linear_2037_276)"/>
<defs>
<linearGradient id="paint0_linear_2037_276" x1="255.998" y1="301.557" x2="255.998" y2="467.487" gradientUnits="userSpaceOnUse">
<stop stop-color="#F9CF2F"/>
<stop offset="1" stop-color="#0B559B"/>
</linearGradient>
<linearGradient id="paint1_linear_2037_276" x1="256.001" y1="146.151" x2="256.001" y2="312.081" gradientUnits="userSpaceOnUse">
<stop stop-color="#F9CF2F"/>
<stop offset="1" stop-color="#0B559B"/>
</linearGradient>
<linearGradient id="paint2_linear_2037_276" x1="363.375" y1="273.832" x2="363.375" y2="339.806" gradientUnits="userSpaceOnUse">
<stop stop-color="#F9CF2F"/>
<stop offset="1" stop-color="#0B559B"/>
</linearGradient>
<linearGradient id="paint3_linear_2037_276" x1="256" y1="83.8037" x2="256" y2="156.675" gradientUnits="userSpaceOnUse">
<stop stop-color="#F9CF2F"/>
<stop offset="1" stop-color="#0B559B"/>
</linearGradient>
<linearGradient id="paint4_linear_2037_276" x1="256" y1="44.5137" x2="256" y2="156.675" gradientUnits="userSpaceOnUse">
<stop stop-color="#F9CF2F"/>
<stop offset="1" stop-color="#0B559B"/>
</linearGradient>
<linearGradient id="paint5_linear_2037_276" x1="148.622" y1="273.832" x2="148.622" y2="339.806" gradientUnits="userSpaceOnUse">
<stop stop-color="#F9CF2F"/>
<stop offset="1" stop-color="#0B559B"/>
</linearGradient>
<linearGradient id="paint6_linear_2037_276" x1="255.999" y1="372.445" x2="255.999" y2="424.314" gradientUnits="userSpaceOnUse">
<stop stop-color="#F9CF2F"/>
<stop offset="1" stop-color="#0B559B"/>
</linearGradient>
<linearGradient id="paint7_linear_2037_276" x1="326.058" y1="372.445" x2="326.058" y2="402.591" gradientUnits="userSpaceOnUse">
<stop stop-color="#F9CF2F"/>
<stop offset="1" stop-color="#0B559B"/>
</linearGradient>
<linearGradient id="paint8_linear_2037_276" x1="111.238" y1="177.63" x2="111.238" y2="252.876" gradientUnits="userSpaceOnUse">
<stop stop-color="#F9CF2F"/>
<stop offset="1" stop-color="#0B559B"/>
</linearGradient>
<linearGradient id="paint9_linear_2037_276" x1="96.0529" y1="177.633" x2="96.0529" y2="220.519" gradientUnits="userSpaceOnUse">
<stop stop-color="#F9CF2F"/>
<stop offset="1" stop-color="#0B559B"/>
</linearGradient>
<linearGradient id="paint10_linear_2037_276" x1="126.424" y1="177.633" x2="126.424" y2="220.519" gradientUnits="userSpaceOnUse">
<stop stop-color="#F9CF2F"/>
<stop offset="1" stop-color="#0B559B"/>
</linearGradient>
<linearGradient id="paint11_linear_2037_276" x1="207.746" y1="177.63" x2="207.746" y2="252.876" gradientUnits="userSpaceOnUse">
<stop stop-color="#F9CF2F"/>
<stop offset="1" stop-color="#0B559B"/>
</linearGradient>
<linearGradient id="paint12_linear_2037_276" x1="192.558" y1="177.633" x2="192.558" y2="220.519" gradientUnits="userSpaceOnUse">
<stop stop-color="#F9CF2F"/>
<stop offset="1" stop-color="#0B559B"/>
</linearGradient>
<linearGradient id="paint13_linear_2037_276" x1="222.932" y1="177.633" x2="222.932" y2="220.519" gradientUnits="userSpaceOnUse">
<stop stop-color="#F9CF2F"/>
<stop offset="1" stop-color="#0B559B"/>
</linearGradient>
<linearGradient id="paint14_linear_2037_276" x1="304.255" y1="177.63" x2="304.255" y2="252.876" gradientUnits="userSpaceOnUse">
<stop stop-color="#F9CF2F"/>
<stop offset="1" stop-color="#0B559B"/>
</linearGradient>
<linearGradient id="paint15_linear_2037_276" x1="289.069" y1="177.633" x2="289.069" y2="220.519" gradientUnits="userSpaceOnUse">
<stop stop-color="#F9CF2F"/>
<stop offset="1" stop-color="#0B559B"/>
</linearGradient>
<linearGradient id="paint16_linear_2037_276" x1="319.44" y1="177.633" x2="319.44" y2="220.519" gradientUnits="userSpaceOnUse">
<stop stop-color="#F9CF2F"/>
<stop offset="1" stop-color="#0B559B"/>
</linearGradient>
<linearGradient id="paint17_linear_2037_276" x1="400.761" y1="177.63" x2="400.761" y2="252.876" gradientUnits="userSpaceOnUse">
<stop stop-color="#F9CF2F"/>
<stop offset="1" stop-color="#0B559B"/>
</linearGradient>
<linearGradient id="paint18_linear_2037_276" x1="385.577" y1="177.633" x2="385.577" y2="220.519" gradientUnits="userSpaceOnUse">
<stop stop-color="#F9CF2F"/>
<stop offset="1" stop-color="#0B559B"/>
</linearGradient>
<linearGradient id="paint19_linear_2037_276" x1="415.948" y1="177.633" x2="415.948" y2="220.519" gradientUnits="userSpaceOnUse">
<stop stop-color="#F9CF2F"/>
<stop offset="1" stop-color="#0B559B"/>
</linearGradient>
</defs>
</svg>
