<svg width="500" height="500" viewBox="0 0 500 500" fill="none" xmlns="http://www.w3.org/2000/svg">
<g opacity="0.5">
<path fill-rule="evenodd" clip-rule="evenodd" d="M395.54 149.175L402.93 136.27C384.93 122.16 367.115 107.495 349.025 97.5448C347.708 96.7787 346.742 95.5279 346.335 94.0595C345.927 92.5912 346.109 91.0215 346.842 89.6857C347.576 88.3499 348.803 87.3537 350.26 86.9098C351.718 86.4659 353.292 86.6095 354.645 87.3098C373.98 97.9448 390.645 112.01 410.005 126.96C412.28 128.701 413.841 131.214 414.393 134.025C414.946 136.836 414.452 139.752 413.005 142.225L410.35 146.815L439.295 150.14L444.88 140.08L375.79 59.9448L257.5 41.9998L257.465 42.2598L285.465 76.5748L289.04 70.9748C290.432 68.7731 292.515 67.0951 294.962 66.2039C297.41 65.3127 300.084 65.2585 302.565 66.0498C303.99 66.557 305.162 67.5964 305.836 68.9497C306.511 70.303 306.634 71.8649 306.181 73.3074C305.728 74.7499 304.734 75.9607 303.407 76.6856C302.08 77.4105 300.524 77.593 299.065 77.1948L298.885 77.2348L279.61 107.395C284.288 108.395 288.886 109.731 293.37 111.395C323.621 121.923 351.766 137.729 376.5 158.08C379.718 160.887 382.658 163.996 385.28 167.365L395.56 149.175H395.54ZM192.375 429.93V400.93C192.375 389.413 196.951 378.367 205.094 370.224C213.238 362.08 224.283 357.505 235.8 357.505C247.317 357.505 258.363 362.08 266.507 370.224C274.65 378.367 279.225 389.413 279.225 400.93V429.9H306.585V195H167.53V429.93H192.375ZM267.53 429.93H204.07V400.93C204.07 392.514 207.413 384.444 213.364 378.493C219.314 372.543 227.385 369.2 235.8 369.2C244.216 369.2 252.286 372.543 258.237 378.493C264.187 384.444 267.53 392.514 267.53 400.93V429.9V429.93ZM58.3254 429.93V358.045H37.7404V314.635H58.3254V248.67H37.7404V205.26H155.835V195H138.865V155.055H155.695V132.055H269.795C266.252 128.248 263.52 123.76 261.765 118.865C261.226 117.759 261.033 116.516 261.211 115.298C261.39 114.08 261.931 112.945 262.765 112.04L278.85 86.8998L248.4 49.5998C246.899 47.7487 245.991 45.487 245.796 43.1111C245.602 40.7353 246.13 38.3561 247.311 36.2855C248.492 34.2148 250.271 32.5492 252.415 31.507C254.559 30.4648 256.967 30.0946 259.325 30.4448L377.53 48.3898C380.331 48.8002 382.884 50.2234 384.705 52.3898L463.705 144.07C465.242 145.874 466.201 148.098 466.459 150.453C466.717 152.809 466.262 155.188 465.152 157.282C464.042 159.375 462.329 161.088 460.234 162.196C458.14 163.305 455.761 163.759 453.405 163.5L445.695 162.615L442.82 167.8C444.015 170.026 444.592 172.531 444.49 175.055L444.07 198C443.944 200.239 443.142 202.388 441.769 204.162C440.396 205.936 438.517 207.251 436.38 207.935V248.645H415.58L415.755 314.61H436.38V358.02H415.79V429.925H440.715V469.7H33.4004V429.925L58.3254 429.93ZM287.5 133.25C286.12 132.03 284.82 130.83 283.6 129.665C276.67 123.035 272.135 119.405 272.1 119.12L272.205 118.96C273.745 117.045 282.205 119.915 287.45 121.69C288.065 121.9 288.635 122.09 289.805 122.465C318.504 132.503 345.22 147.495 368.74 166.76C375.74 173.005 379.675 177.26 379.135 178.26C378.595 179.26 372.75 178.21 363.585 175.575C348.976 170.933 334.898 164.76 321.585 157.16L315.205 153.48C305.631 147.732 296.578 141.156 288.15 133.83C287.957 133.635 287.752 133.453 287.535 133.285L287.5 133.25ZM281.785 143.75C286.04 147.405 290.92 151.25 296.34 155.06H167.39V143.745L281.785 143.75ZM314.855 166.75L315.855 167.3L323.575 171.435V183.315H150.575V166.75H314.855ZM335.25 177.17C343.373 180.988 351.765 184.201 360.36 186.785C375.065 191.015 385.755 190.285 389.295 183.9L389.45 183.61L404 157.845L433.155 161.19L432.62 162.15C430.089 162.31 427.648 163.151 425.555 164.585L406.295 177.085C404.739 178.272 403.504 179.829 402.704 181.615C401.903 183.401 401.562 185.358 401.711 187.31C401.86 189.261 402.495 191.145 403.557 192.788C404.62 194.432 406.077 195.783 407.795 196.72L423.2 205.27H318.28V195H335.25V177.15V177.17ZM451.83 151.58C455.83 152.035 455.6 152.515 452.99 149.49L451.83 151.58ZM336.135 78.2948C337.559 78.9068 338.681 80.0592 339.255 81.4986C339.829 82.9379 339.807 84.5463 339.195 85.9698C338.583 87.3934 337.431 88.5155 335.992 89.0894C334.552 89.6632 332.944 89.6418 331.52 89.0298L314.835 82.4998C313.408 81.9584 312.251 80.8786 311.612 79.4925C310.973 78.1065 310.903 76.5251 311.418 75.0883C311.933 73.6516 312.992 72.4743 314.366 71.8098C315.739 71.1453 317.319 71.0465 318.765 71.5348L336.135 78.3198V78.2948ZM431.915 174.36L413.375 186.39V186.5L432.285 197H432.435L432.775 173.925C432.474 174.049 432.186 174.203 431.915 174.385V174.36ZM404.105 314.635L403.93 248.67H318.28V314.635H404.105ZM318.28 326.33V346.33H424.685V326.33H318.28ZM318.28 358.045V429.925H404.095V358.045H318.28ZM70.0004 358.045V429.93H155.835V358.045H70.0004ZM155.835 346.35V326.35H49.4354V346.35H155.835ZM155.835 314.635V248.67H70.0004V314.635H155.835ZM218.215 283C216.694 282.955 215.25 282.32 214.19 281.228C213.13 280.136 212.536 278.674 212.536 277.152C212.536 275.63 213.13 274.168 214.19 273.077C215.25 271.985 216.694 271.349 218.215 271.305H232.265V238.69C232.243 237.908 232.377 237.129 232.66 236.399C232.944 235.67 233.371 235.005 233.916 234.443C234.462 233.882 235.114 233.435 235.835 233.131C236.556 232.826 237.33 232.669 238.113 232.669C238.896 232.669 239.67 232.826 240.391 233.131C241.112 233.435 241.764 233.882 242.309 234.443C242.855 235.005 243.282 235.67 243.565 236.399C243.849 237.129 243.983 237.908 243.96 238.69V283H218.215ZM237.06 216.69C248.941 216.688 260.556 220.209 270.436 226.808C280.315 233.407 288.016 242.788 292.564 253.764C297.113 264.74 298.304 276.818 295.988 288.471C293.671 300.124 287.952 310.828 279.552 319.23C271.152 327.633 260.449 333.355 248.796 335.674C237.144 337.993 225.065 336.805 214.088 332.26C203.111 327.714 193.729 320.016 187.127 310.138C180.526 300.26 177.001 288.646 177 276.765C177 260.835 183.328 245.557 194.591 234.292C205.854 223.027 221.131 216.692 237.06 216.69ZM271.265 242.55C278.032 249.316 282.641 257.936 284.508 267.321C286.375 276.706 285.417 286.434 281.756 295.275C278.094 304.115 271.893 311.672 263.937 316.988C255.981 322.304 246.627 325.142 237.058 325.142C227.489 325.142 218.135 322.304 210.179 316.988C202.223 311.672 196.022 304.115 192.36 295.275C188.698 286.434 187.741 276.706 189.608 267.321C191.475 257.936 196.084 249.316 202.85 242.55C211.923 233.478 224.228 228.382 237.058 228.382C249.888 228.382 262.193 233.478 271.265 242.55ZM429 441.62H45.0954V458H429V441.62ZM49.4354 237H155.835V217H49.4354V237ZM424.685 217H318.28V237H424.685V217Z" fill="black"/>
</g>
</svg>
