<svg width="512" height="512" viewBox="0 0 512 512" fill="none" xmlns="http://www.w3.org/2000/svg">
<path d="M338.139 453.68H173.859C172.268 453.68 170.742 453.047 169.617 451.922C168.492 450.797 167.859 449.271 167.859 447.68V264.52C167.859 262.928 168.492 261.402 169.617 260.277C170.742 259.152 172.268 258.52 173.859 258.52H338.139C339.731 258.52 341.257 259.152 342.382 260.277C343.507 261.402 344.139 262.928 344.139 264.52V447.68C344.139 449.271 343.507 450.797 342.382 451.922C341.257 453.047 339.731 453.68 338.139 453.68ZM179.859 441.68H332.139V270.52H179.859V441.68Z" fill="black"/>
<path d="M378.51 270.52H133.51C132.379 270.521 131.271 270.203 130.313 269.601C129.355 269 128.587 268.14 128.097 267.121C127.607 266.102 127.414 264.965 127.542 263.841C127.67 262.718 128.113 261.653 128.82 260.77L169.4 210.08C169.962 209.378 170.674 208.812 171.484 208.423C172.294 208.033 173.181 207.831 174.08 207.83H337.93C338.829 207.831 339.716 208.033 340.526 208.423C341.336 208.812 342.048 209.378 342.61 210.08L383.19 260.77C383.896 261.652 384.339 262.716 384.468 263.839C384.596 264.961 384.405 266.098 383.916 267.116C383.427 268.135 382.66 268.995 381.703 269.597C380.747 270.2 379.64 270.519 378.51 270.52ZM146 258.52H366L335 219.83H177L146 258.52Z" fill="black"/>
<path d="M173.86 453.679H48C46.4087 453.679 44.8826 453.047 43.7574 451.922C42.6321 450.797 42 449.271 42 447.679V345.189C42 343.598 42.6321 342.072 43.7574 340.947C44.8826 339.822 46.4087 339.189 48 339.189H173.86C175.451 339.189 176.977 339.822 178.103 340.947C179.228 342.072 179.86 343.598 179.86 345.189V447.679C179.86 449.271 179.228 450.797 178.103 451.922C176.977 453.047 175.451 453.679 173.86 453.679ZM54 441.679H167.86V351.189H54V441.679Z" fill="black"/>
<path d="M464.001 453.679H338.141C336.549 453.679 335.023 453.047 333.898 451.922C332.773 450.797 332.141 449.271 332.141 447.679V345.189C332.141 343.598 332.773 342.072 333.898 340.947C335.023 339.822 336.549 339.189 338.141 339.189H464.001C465.592 339.189 467.118 339.822 468.243 340.947C469.368 342.072 470.001 343.598 470.001 345.189V447.679C470.001 449.271 469.368 450.797 468.243 451.922C467.118 453.047 465.592 453.679 464.001 453.679ZM344.131 441.679H458.001V351.189H344.141L344.131 441.679Z" fill="black"/>
<path d="M173.86 311.68H48C46.4087 311.68 44.8826 311.048 43.7574 309.922C42.6321 308.797 42 307.271 42 305.68V214.09C42 212.499 42.6321 210.972 43.7574 209.847C44.8826 208.722 46.4087 208.09 48 208.09H173.86C174.99 208.091 176.097 208.41 177.053 209.013C178.01 209.615 178.776 210.475 179.265 211.493C179.754 212.512 179.946 213.648 179.817 214.771C179.689 215.894 179.246 216.958 178.54 217.84L146 258.52H173.88C175.471 258.52 176.997 259.152 178.123 260.277C179.248 261.402 179.88 262.929 179.88 264.52V305.68C179.88 306.469 179.724 307.251 179.421 307.981C179.119 308.71 178.675 309.372 178.116 309.93C177.556 310.487 176.893 310.929 176.162 311.229C175.432 311.529 174.65 311.682 173.86 311.68ZM54 299.68H167.86V270.52H133.5C132.369 270.521 131.261 270.203 130.303 269.601C129.345 269 128.577 268.14 128.087 267.121C127.597 266.102 127.404 264.965 127.532 263.841C127.66 262.717 128.103 261.653 128.81 260.77L161.37 220.09H54V299.68Z" fill="black"/>
<path d="M463.999 311.68H338.139C336.548 311.68 335.022 311.048 333.897 309.922C332.771 308.797 332.139 307.271 332.139 305.68V264.52C332.139 262.929 332.771 261.402 333.897 260.277C335.022 259.152 336.548 258.52 338.139 258.52H365.999L333.439 217.84C332.733 216.958 332.29 215.894 332.162 214.771C332.034 213.648 332.225 212.512 332.714 211.493C333.203 210.475 333.97 209.615 334.926 209.013C335.882 208.41 336.989 208.091 338.119 208.09H463.999C465.591 208.09 467.117 208.722 468.242 209.847C469.367 210.972 469.999 212.499 469.999 214.09V305.68C469.999 307.271 469.367 308.797 468.242 309.922C467.117 311.048 465.591 311.68 463.999 311.68ZM344.129 299.68H457.999V220.09H350.629L383.189 260.77C383.896 261.652 384.338 262.716 384.467 263.839C384.595 264.961 384.404 266.097 383.915 267.116C383.426 268.135 382.659 268.995 381.703 269.597C380.746 270.199 379.639 270.519 378.509 270.52H344.139L344.129 299.68Z" fill="black"/>
<path d="M294 453.68H218C216.409 453.68 214.883 453.048 213.757 451.922C212.632 450.797 212 449.271 212 447.68V377.68C212 376.088 212.632 374.562 213.757 373.437C214.883 372.312 216.409 371.68 218 371.68H294C295.591 371.68 297.117 372.312 298.243 373.437C299.368 374.562 300 376.088 300 377.68V447.68C300 449.271 299.368 450.797 298.243 451.922C297.117 453.048 295.591 453.68 294 453.68ZM223.92 441.68H288V383.68H224L223.92 441.68Z" fill="black"/>
<path d="M242.64 351.18H204.32C202.729 351.18 201.203 350.548 200.078 349.423C198.952 348.297 198.32 346.771 198.32 345.18V297C198.32 295.409 198.952 293.883 200.078 292.757C201.203 291.632 202.729 291 204.32 291H242.64C244.232 291 245.758 291.632 246.883 292.757C248.008 293.883 248.64 295.409 248.64 297V345.2C248.635 346.788 248.001 348.309 246.876 349.43C245.751 350.551 244.228 351.18 242.64 351.18ZM210.32 339.18H236.64V303H210.32V339.18Z" fill="black"/>
<path d="M307.679 351.18H269.359C267.768 351.18 266.242 350.548 265.117 349.423C263.992 348.297 263.359 346.771 263.359 345.18V297C263.359 295.409 263.992 293.883 265.117 292.757C266.242 291.632 267.768 291 269.359 291H307.679C309.271 291 310.797 291.632 311.922 292.757C313.047 293.883 313.679 295.409 313.679 297V345.2C313.674 346.788 313.04 348.309 311.915 349.43C310.79 350.551 309.267 351.18 307.679 351.18ZM275.359 339.18H301.679V303H275.359V339.18Z" fill="black"/>
<path d="M142.81 432.049H79C77.4087 432.049 75.8826 431.416 74.7574 430.291C73.6321 429.166 73 427.64 73 426.049V366.809C73 365.217 73.6321 363.691 74.7574 362.566C75.8826 361.441 77.4087 360.809 79 360.809H142.77C144.361 360.809 145.887 361.441 147.013 362.566C148.138 363.691 148.77 365.217 148.77 366.809V426.049C148.77 427.633 148.143 429.153 147.027 430.277C145.91 431.401 144.394 432.038 142.81 432.049ZM85 420.049H136.77V372.809H85V420.049Z" fill="black"/>
<path d="M110.92 432C109.329 432 107.803 431.368 106.677 430.243C105.552 429.118 104.92 427.591 104.92 426V366.83C104.92 365.239 105.552 363.713 106.677 362.587C107.803 361.462 109.329 360.83 110.92 360.83C112.511 360.83 114.037 361.462 115.163 362.587C116.288 363.713 116.92 365.239 116.92 366.83V426C116.92 427.591 116.288 429.118 115.163 430.243C114.037 431.368 112.511 432 110.92 432Z" fill="black"/>
<path d="M142.81 402.43H79C77.4087 402.43 75.8826 401.798 74.7574 400.672C73.6321 399.547 73 398.021 73 396.43C73 394.838 73.6321 393.312 74.7574 392.187C75.8826 391.062 77.4087 390.43 79 390.43H142.77C144.361 390.43 145.887 391.062 147.013 392.187C148.138 393.312 148.77 394.838 148.77 396.43C148.77 398.021 148.138 399.547 147.013 400.672C145.887 401.798 144.361 402.43 142.77 402.43H142.81Z" fill="black"/>
<path d="M432.999 432.049H369.189C367.598 432.049 366.072 431.416 364.947 430.291C363.822 429.166 363.189 427.64 363.189 426.049V366.809C363.189 365.217 363.822 363.691 364.947 362.566C366.072 361.441 367.598 360.809 369.189 360.809H432.999C434.591 360.809 436.117 361.441 437.242 362.566C438.367 363.691 438.999 365.217 438.999 366.809V426.049C438.999 427.64 438.367 429.166 437.242 430.291C436.117 431.416 434.591 432.049 432.999 432.049ZM375.229 420.049H426.999V372.809H375.189L375.229 420.049Z" fill="black"/>
<path d="M401.08 432C399.489 432 397.963 431.368 396.837 430.243C395.712 429.118 395.08 427.591 395.08 426V366.83C395.08 365.239 395.712 363.713 396.837 362.587C397.963 361.462 399.489 360.83 401.08 360.83C402.671 360.83 404.198 361.462 405.323 362.587C406.448 363.713 407.08 365.239 407.08 366.83V426C407.08 427.591 406.448 429.118 405.323 430.243C404.198 431.368 402.671 432 401.08 432Z" fill="black"/>
<path d="M432.999 402.43H369.189C367.598 402.43 366.072 401.798 364.947 400.672C363.822 399.547 363.189 398.021 363.189 396.43C363.189 394.838 363.822 393.312 364.947 392.187C366.072 391.062 367.598 390.43 369.189 390.43H432.999C434.591 390.43 436.117 391.062 437.242 392.187C438.367 393.312 438.999 394.838 438.999 396.43C438.999 398.021 438.367 399.547 437.242 400.672C436.117 401.798 434.591 402.43 432.999 402.43Z" fill="black"/>
<path d="M173.86 351.19H31C29.4087 351.19 27.8826 350.558 26.7574 349.432C25.6321 348.307 25 346.781 25 345.19V305.68C25 304.088 25.6321 302.562 26.7574 301.437C27.8826 300.312 29.4087 299.68 31 299.68H173.86C175.451 299.68 176.977 300.312 178.103 301.437C179.228 302.562 179.86 304.088 179.86 305.68V345.19C179.86 346.781 179.228 348.307 178.103 349.432C176.977 350.558 175.451 351.19 173.86 351.19ZM37 339.19H167.86V311.68H37V339.19Z" fill="black"/>
<path d="M481.001 351.19H338.141C336.549 351.19 335.023 350.558 333.898 349.432C332.773 348.307 332.141 346.781 332.141 345.19V305.68C332.141 304.088 332.773 302.562 333.898 301.437C335.023 300.312 336.549 299.68 338.141 299.68H481.001C482.592 299.68 484.118 300.312 485.243 301.437C486.368 302.562 487.001 304.088 487.001 305.68V345.19C487.001 346.781 486.368 348.307 485.243 349.432C484.118 350.558 482.592 351.19 481.001 351.19ZM344.141 339.19H475.001V311.68H344.141V339.19Z" fill="black"/>
<path d="M464.001 220.09H48.0007C47.0652 220.089 46.143 219.87 45.3075 219.449C44.472 219.029 43.7464 218.418 43.1887 217.667C42.631 216.916 42.2567 216.045 42.0955 215.124C41.9344 214.202 41.991 213.256 42.2607 212.36L87.4507 62.5903C87.8222 61.3566 88.5809 60.2753 89.6147 59.5063C90.6484 58.7372 91.9023 58.3214 93.1907 58.3203H418.811C420.099 58.3214 421.353 58.7372 422.387 59.5063C423.42 60.2753 424.179 61.3566 424.551 62.5903L469.751 212.36C470.02 213.256 470.077 214.202 469.916 215.124C469.755 216.045 469.38 216.916 468.823 217.667C468.265 218.418 467.539 219.029 466.704 219.449C465.868 219.87 464.946 220.089 464.011 220.09H464.001ZM56.0607 208.09H455.931L414.351 70.3203H97.6507L56.0607 208.09Z" fill="black"/>
<path d="M433.879 120.25H78.1191C76.5278 120.25 75.0017 119.618 73.8765 118.493C72.7513 117.367 72.1191 115.841 72.1191 114.25C72.1191 112.659 72.7513 111.133 73.8765 110.007C75.0017 108.882 76.5278 108.25 78.1191 108.25H433.879C435.47 108.25 436.997 108.882 438.122 110.007C439.247 111.133 439.879 112.659 439.879 114.25C439.879 115.841 439.247 117.367 438.122 118.493C436.997 119.618 435.47 120.25 433.879 120.25Z" fill="black"/>
<path d="M448.941 170.17H63.0605C61.4692 170.17 59.9431 169.538 58.8179 168.413C57.6927 167.287 57.0605 165.761 57.0605 164.17C57.0605 162.579 57.6927 161.052 58.8179 159.927C59.9431 158.802 61.4692 158.17 63.0605 158.17H448.941C450.532 158.17 452.058 158.802 453.183 159.927C454.308 161.052 454.941 162.579 454.941 164.17C454.941 165.761 454.308 167.287 453.183 168.413C452.058 169.538 450.532 170.17 448.941 170.17Z" fill="black"/>
<path d="M131.2 220.1C130.841 220.096 130.483 220.062 130.13 220C129.352 219.86 128.608 219.568 127.943 219.14C127.278 218.712 126.704 218.157 126.254 217.506C125.804 216.856 125.488 216.123 125.322 215.349C125.157 214.576 125.146 213.777 125.29 213L152.41 63.2495C152.694 61.6834 153.588 60.2942 154.896 59.3875C156.204 58.4807 157.819 58.1308 159.385 58.4145C160.951 58.6983 162.34 59.5926 163.247 60.9007C164.154 62.2087 164.504 63.8234 164.22 65.3895L137.1 215.16C136.852 216.544 136.125 217.797 135.046 218.7C133.968 219.603 132.607 220.098 131.2 220.1Z" fill="black"/>
<path d="M214.4 220.089H214C213.214 220.042 212.444 219.84 211.735 219.496C211.027 219.151 210.393 218.67 209.87 218.08C209.347 217.491 208.946 216.804 208.688 216.059C208.431 215.314 208.323 214.526 208.37 213.739L217.37 63.9692C217.418 63.1812 217.62 62.4103 217.965 61.7005C218.31 60.9906 218.792 60.3557 219.382 59.832C219.973 59.3082 220.661 58.906 221.407 58.6481C222.153 58.3903 222.942 58.2819 223.73 58.3291C224.518 58.3764 225.289 58.5784 225.999 58.9236C226.709 59.2688 227.344 59.7505 227.867 60.3411C228.391 60.9317 228.793 61.6196 229.051 62.3656C229.309 63.1117 229.418 63.9012 229.37 64.6892L220.37 214.469C220.274 215.989 219.603 217.414 218.495 218.458C217.386 219.501 215.923 220.085 214.4 220.089Z" fill="black"/>
<path d="M297.601 220.089C296.071 220.092 294.599 219.511 293.484 218.465C292.368 217.418 291.695 215.986 291.601 214.459L282.601 64.6794C282.553 63.8915 282.662 63.1019 282.92 62.3559C283.177 61.6098 283.58 60.9219 284.103 60.3313C284.627 59.7407 285.262 59.2591 285.972 58.9139C286.682 58.5687 287.453 58.3667 288.241 58.3194C289.029 58.2721 289.818 58.3805 290.564 58.6383C291.31 58.8962 291.998 59.2985 292.589 59.8222C293.179 60.3459 293.661 60.9808 294.006 61.6907C294.351 62.4005 294.553 63.1715 294.601 63.9594L303.601 213.729C303.648 214.516 303.54 215.304 303.283 216.049C303.025 216.794 302.624 217.481 302.101 218.071C301.578 218.66 300.944 219.141 300.236 219.486C299.527 219.831 298.757 220.032 297.971 220.079L297.601 220.089Z" fill="black"/>
<path d="M380.8 220.1C379.393 220.098 378.032 219.603 376.954 218.7C375.875 217.797 375.148 216.544 374.9 215.16L347.78 65.3895C347.496 63.8234 347.846 62.2087 348.753 60.9007C349.659 59.5926 351.049 58.6983 352.615 58.4145C354.181 58.1308 355.796 58.4807 357.104 59.3875C358.412 60.2942 359.306 61.6834 359.59 63.2495L386.71 213C386.854 213.776 386.844 214.574 386.679 215.347C386.514 216.12 386.198 216.853 385.749 217.503C385.3 218.154 384.728 218.709 384.064 219.137C383.399 219.566 382.657 219.859 381.88 220C381.523 220.062 381.162 220.095 380.8 220.1Z" fill="black"/>
</svg>
