<svg width="80" height="80" viewBox="0 0 80 80" fill="none" xmlns="http://www.w3.org/2000/svg">
<path d="M71.6215 53.448H66.4539V50.4534C67.081 50.1507 67.5242 49.502 67.5242 48.7561V47.502C67.5242 46.4642 66.6701 45.6102 65.6323 45.6102H59.1674C58.1296 45.6102 57.2755 46.4642 57.2755 47.502V48.7561C57.2755 49.502 57.708 50.1399 58.3458 50.4534V53.448H55.0161V23.8156H56.3242C57.2215 23.8156 57.9458 23.0804 57.9458 22.1831V21.0696C57.9458 20.475 57.6215 19.9345 57.1242 19.6642L32.4864 5.62097C31.9891 5.33989 31.3728 5.33989 30.8755 5.62097L6.24852 19.6534C5.71879 19.9345 5.40527 20.475 5.40527 21.0696V22.1831C5.40527 23.0804 6.14041 23.8156 7.03771 23.8156H8.335V53.448H6.21608C5.77284 53.448 5.40527 53.8048 5.40527 54.2588C5.40527 54.7129 5.77284 55.0696 6.21608 55.0696H9.14581H15.9026V60.8642C15.9026 64.2912 18.6918 67.0804 22.1188 67.0804H24.1837V71.621C24.1837 73.2642 25.5134 74.5939 27.1566 74.5939H49.3945H71.6323C73.2756 74.5939 74.6053 73.2642 74.6053 71.621V56.421C74.5945 54.7777 73.2647 53.448 71.6215 53.448ZM50.1945 65.2102H48.5945C48.4431 65.2102 48.3242 65.0912 48.3242 64.9399V64.021V60.2372V59.3183C48.3242 59.1669 48.4431 59.048 48.5945 59.048H50.1945C50.3458 59.048 50.4647 59.1669 50.4647 59.3183V60.2372V64.021V64.9399C50.4647 65.0804 50.335 65.2102 50.1945 65.2102ZM42.6377 61.8264V64.0102V66.2048C42.6377 67.5453 41.5458 68.6372 40.2053 68.6372H32.562C31.2215 68.6372 30.1296 67.5453 30.1296 66.2048V61.8156C30.1296 60.475 31.2215 59.3831 32.562 59.3831H40.2053C41.5458 59.3939 42.6377 60.4858 42.6377 61.8264ZM44.1728 61.048H46.6918V63.2102H44.2485V61.8264C44.2593 61.5561 44.2269 61.2966 44.1728 61.048ZM50.1945 57.4264V55.0696H59.8269V57.7723H58.5728C57.2431 57.7723 56.0647 58.4318 55.3188 59.4264H52.0755V59.3183C52.0864 58.2804 51.2431 57.4264 50.1945 57.4264ZM52.0864 61.048H54.6053C54.5512 61.2966 54.5296 61.5561 54.5296 61.8264V63.2102H52.0864V61.048ZM56.1404 61.8264C56.1404 60.4858 57.2323 59.3939 58.5728 59.3939H66.2161C67.5566 59.3939 68.6485 60.4858 68.6485 61.8264V66.2156C68.6485 67.5561 67.5566 68.648 66.2161 68.648H58.5728C57.2323 68.648 56.1404 67.5561 56.1404 66.2156V61.8264ZM63.3404 57.7723H61.4593V55.0696H63.3404V57.7723ZM58.8972 47.502C58.8972 47.3507 59.0161 47.2318 59.1674 47.2318H65.6323C65.7837 47.2318 65.9026 47.3507 65.9026 47.502V48.7561C65.9026 48.9075 65.7837 49.0264 65.6323 49.0264H59.1674C59.0161 49.0264 58.8972 48.9075 58.8972 48.7561V47.502ZM59.9674 50.6588H64.8431V53.448H59.9674V50.6588ZM9.95663 53.448V23.0048C9.95663 22.5615 9.58906 22.1939 9.14581 22.1939L7.0269 22.1831L7.03771 21.0696L31.6864 7.02637L56.3134 21.0696V22.1939H54.1945C53.7512 22.1939 53.3837 22.5615 53.3837 23.0048V53.448H47.4377V41.6426C48.8323 41.0048 49.8053 39.5993 49.8053 37.9669V25.8804C49.8053 23.6426 47.9891 21.8264 45.7512 21.8264H17.5782C15.3404 21.8264 13.5242 23.6426 13.5242 25.8804V37.9669C13.5242 39.5993 14.4972 41.0048 15.8918 41.6426V53.448H9.95663ZM34.7242 53.448V42.021H41.3404V53.448H34.7242ZM22.0107 53.448V42.021H28.6269V53.448H22.0107ZM24.1837 60.9615H22.281C22.1296 60.9615 22.0107 60.8426 22.0107 60.6912V55.0696H24.1837V60.9615ZM15.1458 37.9669V25.8804C15.1458 24.5399 16.2377 23.448 17.5782 23.448H45.7512C47.0918 23.448 48.1837 24.5399 48.1837 25.8804V37.9669C48.1837 39.3075 47.0918 40.3993 45.7512 40.3993H17.5782C16.2377 40.3993 15.1458 39.3075 15.1458 37.9669ZM30.2377 42.021H33.0918V53.448H30.2377V42.021ZM42.962 42.021H45.762C45.7837 42.021 45.8053 42.0102 45.8269 42.0102V53.4372H42.962V42.021ZM22.1188 65.4588C19.5891 65.4588 17.5242 63.3939 17.5242 60.8642V42.021C17.5458 42.021 17.5674 42.0318 17.5891 42.0318H20.3891V60.7021C20.3891 61.7399 21.2431 62.5939 22.281 62.5939H24.1837V65.4696H22.1188V65.4588ZM25.8053 71.621V55.0696H48.5837V57.4264C47.5458 57.4264 46.7026 58.2804 46.7026 59.3183V59.4264H43.4593C42.7242 58.4318 41.5458 57.7723 40.2053 57.7723H32.562C30.3242 57.7723 28.508 59.5885 28.508 61.8264V66.2156C28.508 68.4534 30.3242 70.2696 32.562 70.2696H40.2053C42.4431 70.2696 44.2593 68.4534 44.2593 66.2156V64.8318H46.7026V64.9399C46.7026 65.9777 47.5458 66.821 48.5837 66.8318V72.9723H27.1566C26.4107 72.9723 25.8053 72.3669 25.8053 71.621ZM72.9728 71.621C72.9728 72.3669 72.3674 72.9723 71.6215 72.9723H50.1945V66.8318C51.2323 66.8318 52.0755 65.9777 52.0755 64.9399V64.8318H54.5188V66.2156C54.5188 68.4534 56.335 70.2696 58.5728 70.2696H66.2161C68.4539 70.2696 70.2701 68.4534 70.2701 66.2156V61.8264C70.2701 59.5885 68.4539 57.7723 66.2161 57.7723H64.962V55.0696H71.6215C72.3674 55.0696 72.9728 55.675 72.9728 56.421V71.621Z" fill="black"/>
<path d="M18.6594 34.9935C19.6973 34.9935 20.5513 35.8476 20.5513 36.8854C20.5513 37.3286 20.9189 37.6962 21.3621 37.6962H25.5567C26 37.6962 26.3676 37.3286 26.3676 36.8854C26.3676 36.4421 26 36.0746 25.5567 36.0746H22.0757C21.773 34.7881 20.7567 33.7719 19.4703 33.4692V30.3989C20.7567 30.0962 21.773 29.08 22.0757 27.7935H27.2757C27.7189 27.7935 28.0865 27.4259 28.0865 26.9827C28.0865 26.5394 27.7189 26.1719 27.2757 26.1719H21.3621C20.9189 26.1719 20.5513 26.5394 20.5513 26.9827C20.5513 28.0205 19.6973 28.8746 18.6594 28.8746C18.2162 28.8746 17.8486 29.2421 17.8486 29.6854V34.1935C17.8486 34.6259 18.2162 34.9935 18.6594 34.9935Z" fill="black"/>
<path d="M36.0647 27.7828H41.2647C41.5674 29.0693 42.5836 30.0855 43.8701 30.3882V33.4585C42.5836 33.7612 41.5674 34.7774 41.2647 36.0639H37.7836C37.3404 36.0639 36.9728 36.4315 36.9728 36.8747C36.9728 37.318 37.3404 37.6855 37.7836 37.6855H41.9782C42.4215 37.6855 42.789 37.318 42.789 36.8747C42.789 35.8369 43.6431 34.9828 44.6809 34.9828C45.1242 34.9828 45.4917 34.6153 45.4917 34.172V29.6639C45.4917 29.2207 45.1242 28.8531 44.6809 28.8531C43.6431 28.8531 42.789 27.999 42.789 26.9612C42.789 26.518 42.4215 26.1504 41.9782 26.1504H36.0647C35.6215 26.1504 35.2539 26.518 35.2539 26.9612C35.2539 27.4044 35.6107 27.7828 36.0647 27.7828Z" fill="black"/>
<path d="M31.665 37.6961C33.611 37.6961 35.2001 36.1069 35.2001 34.1609C35.2001 32.5393 32.865 27.588 32.4001 26.615C32.1299 26.0528 31.211 26.0528 30.9407 26.615C30.4758 27.588 28.1407 32.5393 28.1407 34.1609C28.1299 36.1069 29.7191 37.6961 31.665 37.6961ZM31.665 28.8961C32.6164 31.015 33.5785 33.4366 33.5785 34.1609C33.5785 35.2204 32.7245 36.0744 31.665 36.0744C30.6055 36.0744 29.7515 35.2204 29.7515 34.1609C29.7515 33.4366 30.7245 31.015 31.665 28.8961Z" fill="black"/>
<path d="M31.6646 18.9406C33.7511 18.9406 35.4484 17.2433 35.4484 15.1568C35.4484 13.0703 33.7511 11.373 31.6646 11.373C29.5782 11.373 27.8809 13.0703 27.8809 15.1568C27.8809 17.2325 29.589 18.9406 31.6646 18.9406ZM31.6646 12.9839C32.8538 12.9839 33.8268 13.9568 33.8268 15.146C33.8268 16.3352 32.8538 17.3082 31.6646 17.3082C30.4755 17.3082 29.5025 16.3352 29.5025 15.146C29.5025 13.9568 30.4755 12.9839 31.6646 12.9839Z" fill="black"/>
</svg>
