<svg width="512" height="512" viewBox="0 0 512 512" fill="none" xmlns="http://www.w3.org/2000/svg">
<path fill-rule="evenodd" clip-rule="evenodd" d="M301.177 196.178V78.7778C301.177 69.8016 315.113 69.8016 315.113 78.7778V196.178C320.901 196.178 331.885 194.406 331.885 203.264C331.885 207.044 328.814 210.232 324.916 210.232H187.084C177.99 210.232 177.99 196.178 187.084 196.178H196.887V154.367C196.887 145.391 210.824 145.391 210.824 154.367V196.178H231.611V130.982C231.611 121.887 245.666 121.887 245.666 130.982V196.178H266.335V108.305C266.335 99.2106 280.39 99.2106 280.39 108.305V196.178H301.177ZM98.5025 382.316C93.4239 382.316 88.4633 381.372 83.8571 379.718L77.8336 390.23L98.3844 417.513L118.935 390.23L112.912 379.836C108.424 381.372 103.581 382.316 98.5025 382.316ZM71.6919 372.868C50.0781 355.624 57.0465 333.538 55.5111 327.987C46.771 314.286 43.9364 301.648 47.2435 290.664C50.3143 280.035 58.3457 274.011 62.5976 271.531C68.7392 259.484 82.4398 251.689 98.2663 251.689C113.975 251.689 127.675 259.366 133.935 271.531C138.187 274.011 146.455 280.035 149.762 290.901C153.069 301.885 150.234 314.286 141.612 327.987C139.959 333.538 147.045 355.86 125.195 372.986L131.337 383.734H138.069C170.312 383.734 196.533 409.954 196.533 442.197V493.693C196.533 497.59 193.344 500.661 189.564 500.661H7.20472C3.42526 500.661 0.236328 497.59 0.236328 493.693V442.197C0.236328 409.954 26.4564 383.734 58.7 383.734H65.4322L71.6919 372.868ZM69.4479 326.215C69.4479 342.868 68.503 355.033 84.802 364.836C103.109 375.82 127.557 360.939 127.557 339.207V326.215C126.258 288.775 70.7471 301.176 69.4479 326.215ZM61.2984 308.381C77.9517 284.995 120.943 280.271 136.179 306.727C141.494 286.885 124.486 285.113 122.124 279.326C114.565 261.019 81.8492 261.019 74.4084 279.326C72.0462 285.113 54.4481 287.239 61.2984 308.381ZM14.2912 486.724H35.6689V453.181C35.6689 444.205 49.7238 444.205 49.7238 453.181V486.724H147.045V453.181C147.045 444.205 161.1 444.205 161.1 453.181V486.724H182.478V442.197C182.478 417.631 162.635 397.789 138.069 397.789H130.864L103.936 433.339C101.337 436.883 95.4317 436.883 92.8333 433.339L65.9046 397.789H58.7C34.1334 397.789 14.1731 417.631 14.1731 442.197L14.2912 486.724ZM413.734 382.316C408.655 382.316 403.695 381.372 399.088 379.718L393.065 390.23L413.616 417.513L434.167 390.23L428.143 379.836C423.655 381.372 418.813 382.316 413.734 382.316ZM386.923 372.868C365.309 355.624 372.278 333.42 370.742 327.987C362.002 314.286 359.168 301.648 362.475 290.664C365.546 280.035 373.577 274.011 377.829 271.531C383.971 259.484 397.671 251.689 413.498 251.689C429.206 251.689 442.907 259.366 449.166 271.531C453.418 274.011 461.686 280.035 464.993 290.901C468.3 301.885 465.465 314.286 456.843 327.987C455.19 333.538 462.276 355.742 440.426 372.986L446.568 383.734H453.3C485.544 383.734 511.764 409.954 511.764 442.197V493.693C511.764 497.59 508.575 500.661 504.796 500.661H322.436C318.657 500.661 315.468 497.59 315.468 493.693V442.197C315.468 409.954 341.688 383.734 373.931 383.734H380.664L386.923 372.868ZM384.679 325.979C384.679 342.278 383.616 355.388 400.033 364.836C418.813 375.584 442.789 360.703 442.789 339.207V326.215C441.489 288.302 385.034 302.003 384.679 325.979ZM376.53 308.381C393.183 284.995 436.175 280.153 451.41 306.727C456.607 286.885 439.718 285.113 437.356 279.326C429.797 261.019 397.199 261.019 389.64 279.326C387.16 285.113 369.679 287.239 376.53 308.381ZM329.404 486.724H350.9V453.181C350.9 444.205 364.955 444.205 364.955 453.181V486.724H462.276V453.181C462.276 444.205 476.331 444.205 476.331 453.181V486.724H497.709V442.197C497.709 417.631 477.867 397.789 453.3 397.789H446.096L419.167 433.339C416.569 436.883 410.663 436.883 408.065 433.339L381.136 397.789H373.931C349.365 397.789 329.404 417.631 329.404 442.197V486.724ZM255.941 270.704L248.028 270.468V310.388H263.972V270.468L255.941 270.704ZM234.091 268.814C172.911 258.421 126.258 205.036 126.258 141.021C126.258 69.4472 184.485 11.3379 255.941 11.3379C327.515 11.3379 385.624 69.5653 385.624 141.021C385.624 205.036 339.089 258.421 277.909 268.814V310.388C285.704 310.388 298.696 308.026 298.696 317.357V469.953C298.696 473.85 295.625 477.039 291.728 477.039H220.272C216.375 477.039 213.304 473.85 213.304 469.953V317.357C213.304 308.026 226.414 310.388 234.091 310.388V268.814ZM255.941 25.2747C192.163 25.2747 140.313 77.2424 140.313 141.021C140.313 211.532 202.202 262.791 267.988 256.059C326.097 250.153 371.687 200.784 371.687 141.021C371.687 77.2424 319.838 25.2747 255.941 25.2747ZM270.941 324.443H227.241V346.884H284.76V324.443H270.941ZM227.241 462.984H284.76V360.821H227.241V462.984Z" fill="url(#paint0_linear_1792_115)"/>
<defs>
<linearGradient id="paint0_linear_1792_115" x1="256" y1="11.3379" x2="256" y2="500.661" gradientUnits="userSpaceOnUse">
<stop stop-color="#F6CD30"/>
<stop offset="1" stop-color="#26648F"/>
</linearGradient>
</defs>
</svg>
