<svg width="512" height="512" viewBox="0 0 512 512" fill="none" xmlns="http://www.w3.org/2000/svg">
<g clip-path="url(#clip0_2037_310)">
<path d="M219.831 104.86H213.143C214.165 99.4931 214.707 93.9592 214.707 88.2983C214.708 39.6104 175.098 0 126.41 0C77.7223 0 38.1108 39.6104 38.1108 88.2983C38.1108 93.9582 38.6529 99.4931 39.6751 104.86H27.2101C12.3057 104.86 0.179688 116.986 0.179688 131.89V484.969C0.179688 499.873 12.3057 511.999 27.2101 511.999H219.832C234.737 511.999 246.863 499.873 246.863 484.969V131.89C246.863 116.986 234.737 104.86 219.831 104.86ZM126.41 15.0024C166.826 15.0024 199.706 47.8828 199.706 88.2983C199.706 128.714 166.826 161.594 126.41 161.594C85.9946 161.594 53.1143 128.714 53.1143 88.2983C53.1143 47.8828 85.9936 15.0024 126.41 15.0024ZM27.2101 119.862H43.9488C56.6788 153.007 88.8391 176.598 126.41 176.598C163.981 176.598 196.141 153.007 208.872 119.862H219.832C226.464 119.862 231.86 125.258 231.86 131.89V439.713H15.1811V131.89C15.1811 125.257 20.577 119.862 27.2101 119.862ZM219.831 496.998H27.2101C20.578 496.998 15.1821 491.602 15.1821 484.97V454.717H231.861V484.97C231.86 491.602 226.464 496.998 219.831 496.998Z" fill="url(#paint0_linear_2037_310)"/>
<path d="M126.411 467.326H119.521C115.378 467.326 112.02 470.683 112.02 474.827C112.02 478.971 115.378 482.328 119.521 482.328H126.411C130.554 482.328 133.912 478.971 133.912 474.827C133.912 470.683 130.554 467.326 126.411 467.326Z" fill="url(#paint1_linear_2037_310)"/>
<path d="M504.32 391.417C508.462 391.417 511.821 388.06 511.821 383.916V131.89C511.821 116.986 499.695 104.86 484.79 104.86H472.324C473.346 99.4931 473.889 93.9592 473.889 88.2983C473.889 76.4514 471.576 64.9445 467.014 54.0978C465.409 50.2792 461.013 48.4889 457.192 50.0901C453.373 51.6964 451.579 56.0941 453.185 59.9127C456.968 68.9092 458.886 78.4597 458.886 88.2983C458.886 128.714 426.006 161.594 385.59 161.594C345.175 161.594 312.294 128.714 312.294 88.2983C312.294 47.8828 345.174 15.0024 385.589 15.0024C404.806 15.0024 422.975 22.4006 436.751 35.8368C439.716 38.7303 444.465 38.6693 447.358 35.7038C450.251 32.7383 450.192 27.9895 447.226 25.0971C430.633 8.91245 408.743 0 385.589 0C336.901 0 297.291 39.6104 297.291 88.2983C297.291 93.9582 297.833 99.4931 298.855 104.86H292.167C277.263 104.86 265.137 116.986 265.137 131.89V484.969C265.137 499.873 277.263 511.999 292.167 511.999H484.789C499.694 511.999 511.82 499.873 511.82 484.969V415.903C511.82 411.76 508.461 408.402 504.318 408.402C500.176 408.402 496.817 411.76 496.817 415.903V439.713H280.139V131.89C280.139 125.257 285.535 119.862 292.167 119.862H303.128C315.858 153.007 348.018 176.598 385.589 176.598C423.16 176.598 455.321 153.007 468.051 119.862H484.789C491.421 119.862 496.817 125.258 496.817 131.89V383.915C496.818 388.059 500.177 391.417 504.32 391.417ZM496.818 454.717V484.97C496.818 491.603 491.422 496.998 484.79 496.998H292.168C285.536 496.998 280.14 491.602 280.14 484.97V454.717H496.818Z" fill="url(#paint2_linear_2037_310)"/>
<path d="M385.591 482.328H392.481C396.624 482.328 399.982 478.971 399.982 474.827C399.982 470.683 396.624 467.326 392.481 467.326H385.591C381.448 467.326 378.09 470.683 378.09 474.827C378.09 478.971 381.448 482.328 385.591 482.328Z" fill="url(#paint3_linear_2037_310)"/>
<path d="M96.2556 113.119C100.127 114.595 104.461 112.65 105.935 108.779L109.922 98.3109H137.158L141.101 108.758C142.235 111.761 145.089 113.612 148.121 113.612C149 113.612 149.896 113.456 150.767 113.127C154.643 111.665 156.6 107.337 155.137 103.461L131.953 42.0268C131.927 41.9577 131.899 41.8877 131.871 41.8197C130.49 38.4652 127.256 36.2988 123.629 36.2988H123.618C119.987 36.3038 116.753 38.4782 115.379 41.8387C115.356 41.8957 115.334 41.9507 115.312 42.0088L91.9149 103.44C90.4407 107.31 92.384 111.644 96.2556 113.119ZM123.603 62.3901L131.497 83.3084H115.637L123.603 62.3901Z" fill="url(#paint4_linear_2037_310)"/>
<path d="M387.561 52.1545H369.462C365.319 52.1545 361.961 55.5121 361.961 59.6558V121.964C361.961 123.959 362.756 125.871 364.169 127.28C365.576 128.679 367.479 129.465 369.462 129.465H369.495C369.495 129.465 386.135 129.391 390.722 129.391C404.106 129.391 414.995 118.502 414.995 105.118C414.995 97.4029 411.372 90.5218 405.743 86.073C408.051 82.6105 409.4 78.4568 409.4 73.9931C409.399 61.9501 399.603 52.1545 387.561 52.1545ZM387.561 67.157C391.331 67.157 394.397 70.2235 394.397 73.9931C394.397 77.7627 391.331 80.8292 387.561 80.8292C386.239 80.8292 383.756 80.8362 381.044 80.8462H376.963V67.157H387.561ZM390.722 114.388C388.194 114.388 382.017 114.41 376.963 114.431V95.8636C378.322 95.8586 379.736 95.8526 381.093 95.8476H390.721C395.832 95.8476 399.991 100.006 399.991 105.118C399.991 110.23 395.833 114.388 390.722 114.388Z" fill="url(#paint5_linear_2037_310)"/>
<path d="M38.0442 370.439H208.998C213.141 370.439 216.499 367.081 216.499 362.938C216.499 358.794 213.141 355.437 208.998 355.437H204.696V208.666C204.696 201.456 198.831 195.59 191.621 195.59H156.995C149.786 195.59 143.92 201.456 143.92 208.666V296.862C143.92 301.006 147.279 304.363 151.422 304.363C155.564 304.363 158.923 301.006 158.923 296.862V210.592H189.694V355.437H158.923V328.851C158.923 324.708 155.564 321.35 151.422 321.35C147.279 321.35 143.92 324.708 143.92 328.851V355.437H108.9V248.375C108.9 241.166 103.035 235.301 95.8245 235.301H61.1989C53.9898 235.301 48.1238 241.166 48.1238 248.375V355.437H38.0442C33.9015 355.437 30.543 358.794 30.543 362.938C30.543 367.081 33.9015 370.439 38.0442 370.439ZM63.1263 250.303H93.8972V355.437H63.1263V250.303Z" fill="url(#paint6_linear_2037_310)"/>
<path d="M361.34 295.368H326.715C319.505 295.368 313.639 301.233 313.639 308.443V355.436H303.56C299.417 355.436 296.059 358.793 296.059 362.937C296.059 367.081 299.417 370.438 303.56 370.438H474.514C478.656 370.438 482.015 367.081 482.015 362.937C482.015 358.793 478.656 355.436 474.514 355.436H470.212V234.129C470.212 226.919 464.346 221.054 457.137 221.054H422.511C415.302 221.054 409.436 226.919 409.436 234.129V355.437H374.415V308.444C374.415 301.234 368.549 295.368 361.34 295.368ZM328.642 355.437V310.37H359.413V355.437H328.642ZM424.438 236.056H455.209V355.437H424.438V236.056Z" fill="url(#paint7_linear_2037_310)"/>
</g>
<defs>
<linearGradient id="paint0_linear_2037_310" x1="123.521" y1="0" x2="123.521" y2="511.999" gradientUnits="userSpaceOnUse">
<stop stop-color="#F9CF2F"/>
<stop offset="1" stop-color="#0B559B"/>
</linearGradient>
<linearGradient id="paint1_linear_2037_310" x1="122.966" y1="467.326" x2="122.966" y2="482.328" gradientUnits="userSpaceOnUse">
<stop stop-color="#F9CF2F"/>
<stop offset="1" stop-color="#0B559B"/>
</linearGradient>
<linearGradient id="paint2_linear_2037_310" x1="388.479" y1="0" x2="388.479" y2="511.999" gradientUnits="userSpaceOnUse">
<stop stop-color="#F9CF2F"/>
<stop offset="1" stop-color="#0B559B"/>
</linearGradient>
<linearGradient id="paint3_linear_2037_310" x1="389.036" y1="467.326" x2="389.036" y2="482.328" gradientUnits="userSpaceOnUse">
<stop stop-color="#F9CF2F"/>
<stop offset="1" stop-color="#0B559B"/>
</linearGradient>
<linearGradient id="paint4_linear_2037_310" x1="123.522" y1="36.2988" x2="123.522" y2="113.613" gradientUnits="userSpaceOnUse">
<stop stop-color="#F9CF2F"/>
<stop offset="1" stop-color="#0B559B"/>
</linearGradient>
<linearGradient id="paint5_linear_2037_310" x1="388.478" y1="52.1545" x2="388.478" y2="129.465" gradientUnits="userSpaceOnUse">
<stop stop-color="#F9CF2F"/>
<stop offset="1" stop-color="#0B559B"/>
</linearGradient>
<linearGradient id="paint6_linear_2037_310" x1="123.521" y1="195.59" x2="123.521" y2="370.439" gradientUnits="userSpaceOnUse">
<stop stop-color="#F9CF2F"/>
<stop offset="1" stop-color="#0B559B"/>
</linearGradient>
<linearGradient id="paint7_linear_2037_310" x1="389.037" y1="221.054" x2="389.037" y2="370.438" gradientUnits="userSpaceOnUse">
<stop stop-color="#F9CF2F"/>
<stop offset="1" stop-color="#0B559B"/>
</linearGradient>
<clipPath id="clip0_2037_310">
<rect width="512" height="512" fill="white"/>
</clipPath>
</defs>
</svg>
