<svg width="496" height="496" viewBox="0 0 496 496" fill="none" xmlns="http://www.w3.org/2000/svg">
<g clip-path="url(#clip0_1940_252)">
<path d="M496 80H0V0H496V80ZM16 64H480V16H16V64Z" fill="#FFBF31"/>
<path d="M48 32H32V48H48V32Z" fill="#FFBF31"/>
<path d="M80 32H64V48H80V32Z" fill="#FFBF31"/>
<path d="M112 32H96V48H112V32Z" fill="#FFBF31"/>
<path d="M144 432H0V96H16V416H144V432Z" fill="#0B559B"/>
<path d="M496 432H464V416H480V96H496V432Z" fill="#0B559B"/>
<path d="M448 496H256V480H432V416H400V400H448V496Z" fill="#0B559B"/>
<path d="M282.848 460.218L274.848 446.362L417.992 363.714L385.992 308.29L362.848 321.65L354.848 307.794L391.848 286.434L439.848 369.57L282.848 460.218Z" fill="#FFBF31"/>
<path d="M278.928 421.152L265.072 413.152L347.712 270.016L292.288 238.016L278.928 261.152L265.072 253.152L286.432 216.16L369.568 264.16L278.928 421.152Z" fill="#0B559B"/>
<path d="M168 448V216H248V448C248 470.088 230.088 488 208 488C185.912 488 168 470.088 168 448Z" fill="#0B559B"/>
<path d="M208 496C181.528 496 160 474.472 160 448V208H256V448C256 474.472 234.472 496 208 496ZM176 224V448C176 465.648 190.352 480 208 480C225.648 480 240 465.648 240 448V224H176Z" fill="#0B559B"/>
<path d="M216 440H200V456H216V440Z" fill="#0B559B"/>
<path d="M144 320H32V96H336V224H320V112H48V304H144V320Z" fill="#0B559B"/>
<path d="M304 128H64V144H304V128Z" fill="#0B559B"/>
<path d="M304 160H288V176H304V160Z" fill="#0B559B"/>
<path d="M272 160H64V176H272V160Z" fill="#0B559B"/>
</g>
<defs>
<clipPath id="clip0_1940_252">
<rect width="496" height="496" fill="white"/>
</clipPath>
</defs>
</svg>
