<svg width="512" height="512" viewBox="0 0 512 512" fill="none" xmlns="http://www.w3.org/2000/svg">
<path d="M480 72H32C23.5131 72 15.3737 75.3714 9.37258 81.3726C3.37142 87.3737 0 95.5131 0 104L0 380C0 388.487 3.37142 396.626 9.37258 402.627C15.3737 408.629 23.5131 412 32 412H220V432H184C181.878 432 179.843 432.843 178.343 434.343C176.843 435.843 176 437.878 176 440C176 442.122 176.843 444.157 178.343 445.657C179.843 447.157 181.878 448 184 448H328C330.122 448 332.157 447.157 333.657 445.657C335.157 444.157 336 442.122 336 440C336 437.878 335.157 435.843 333.657 434.343C332.157 432.843 330.122 432 328 432H292V412H480C488.487 412 496.626 408.629 502.627 402.627C508.629 396.626 512 388.487 512 380V104C512 95.5131 508.629 87.3737 502.627 81.3726C496.626 75.3714 488.487 72 480 72ZM32 88H480C484.243 88 488.313 89.6857 491.314 92.6863C494.314 95.6869 496 99.7565 496 104V364H16V104C16 99.7565 17.6857 95.6869 20.6863 92.6863C23.6869 89.6857 27.7565 88 32 88ZM276 412V432H236V412H276ZM480 396H32C27.7565 396 23.6869 394.314 20.6863 391.314C17.6857 388.313 16 384.243 16 380H496C496 384.243 494.314 388.313 491.314 391.314C488.313 394.314 484.243 396 480 396Z" fill="url(#paint0_linear_1794_521)"/>
<path d="M76.48 348H203.52C205.653 348.032 207.771 347.643 209.753 346.856C211.736 346.069 213.544 344.899 215.074 343.413C216.605 341.928 217.827 340.155 218.672 338.197C219.518 336.238 219.969 334.133 220 332V304C220 301.878 219.157 299.843 217.657 298.343C216.157 296.843 214.122 296 212 296C209.878 296 207.843 296.843 206.343 298.343C204.843 299.843 204 301.878 204 304V332C203.834 332.069 203.646 332.069 203.48 332H76.48C76 332 76 332 76 332V120C76.1665 119.931 76.3535 119.931 76.52 120H203.52H204V240C204 242.122 204.843 244.156 206.343 245.657C207.843 247.157 209.878 248 212 248C214.122 248 216.157 247.157 217.657 245.657C219.157 244.156 220 242.122 220 240V120C219.969 117.867 219.518 115.761 218.672 113.803C217.827 111.845 216.605 110.072 215.074 108.586C213.544 107.1 211.736 105.931 209.753 105.144C207.771 104.357 205.653 103.968 203.52 104H76.48C74.3473 103.968 72.2292 104.357 70.2467 105.144C68.2642 105.931 66.4561 107.1 64.9258 108.586C63.3954 110.072 62.1727 111.845 61.3276 113.803C60.4824 115.761 60.0313 117.867 60 120V332C60.0313 334.133 60.4824 336.238 61.3276 338.197C62.1727 340.155 63.3954 341.928 64.9258 343.413C66.4561 344.899 68.2642 346.069 70.2467 346.856C72.2292 347.643 74.3473 348.032 76.48 348Z" fill="url(#paint1_linear_1794_521)"/>
<path d="M276 252H436C440.243 252 444.313 250.314 447.314 247.314C450.314 244.313 452 240.243 452 236V120C452 115.757 450.314 111.687 447.314 108.686C444.313 105.686 440.243 104 436 104H276C271.757 104 267.687 105.686 264.686 108.686C261.686 111.687 260 115.757 260 120V236C260 240.243 261.686 244.313 264.686 247.314C267.687 250.314 271.757 252 276 252ZM276 120H436V236H276V120Z" fill="url(#paint2_linear_1794_521)"/>
<path d="M268 284H444C446.122 284 448.157 283.157 449.657 281.657C451.157 280.157 452 278.122 452 276C452 273.878 451.157 271.843 449.657 270.343C448.157 268.843 446.122 268 444 268H268C265.878 268 263.843 268.843 262.343 270.343C260.843 271.843 260 273.878 260 276C260 278.122 260.843 280.157 262.343 281.657C263.843 283.157 265.878 284 268 284Z" fill="url(#paint3_linear_1794_521)"/>
<path d="M268 316H444C446.122 316 448.157 315.157 449.657 313.657C451.157 312.157 452 310.122 452 308C452 305.878 451.157 303.843 449.657 302.343C448.157 300.843 446.122 300 444 300H268C265.878 300 263.843 300.843 262.343 302.343C260.843 303.843 260 305.878 260 308C260 310.122 260.843 312.157 262.343 313.657C263.843 315.157 265.878 316 268 316Z" fill="url(#paint4_linear_1794_521)"/>
<path d="M268 348H444C446.122 348 448.157 347.157 449.657 345.657C451.157 344.157 452 342.122 452 340C452 337.878 451.157 335.843 449.657 334.343C448.157 332.843 446.122 332 444 332H268C265.878 332 263.843 332.843 262.343 334.343C260.843 335.843 260 337.878 260 340C260 342.122 260.843 344.157 262.343 345.657C263.843 347.157 265.878 348 268 348Z" fill="url(#paint5_linear_1794_521)"/>
<path d="M292 156.44V214H308.24V189.68H335.12V214H351.36V142H307.36C297.12 142 292 146.84 292 156.44ZM308.24 161.84C308.24 158.8 309.68 157.44 312.88 157.44H335.08V174.36H308.24V161.84Z" fill="url(#paint6_linear_1794_521)"/>
<path d="M404.8 142H360.8V214H404.8C414.88 214 420 209.16 420 199.56V156.44C420 146.84 414.88 142 404.8 142ZM403.8 194C403.8 197.04 402.36 198.4 399.12 198.4H376.88V157.4H399.08C402.32 157.4 403.76 158.76 403.76 161.8L403.8 194Z" fill="url(#paint7_linear_1794_521)"/>
<path d="M170 150H125.4C115.2 150 110 154.8 110 164.24V221.08H126.4V197.08H153.6V221.08H170V150ZM153.6 182H126.4V169.56C126.4 166.56 127.84 165.2 131.12 165.2H153.6V182Z" fill="url(#paint8_linear_1794_521)"/>
<path d="M110 230.92V302H154.6C164.8 302 170 297.2 170 287.76V245.16C170 235.72 164.84 230.92 154.6 230.92H110ZM153.6 282.44C153.6 285.44 152.16 286.8 148.88 286.8H126.4V246.12H148.88C152.12 246.12 153.6 247.48 153.6 250.48V282.44Z" fill="url(#paint9_linear_1794_521)"/>
<path d="M212 280C216.418 280 220 276.418 220 272C220 267.582 216.418 264 212 264C207.582 264 204 267.582 204 272C204 276.418 207.582 280 212 280Z" fill="url(#paint10_linear_1794_521)"/>
<defs>
<linearGradient id="paint0_linear_1794_521" x1="256" y1="72" x2="256" y2="448" gradientUnits="userSpaceOnUse">
<stop stop-color="#F7CE30"/>
<stop offset="1" stop-color="#10589A"/>
</linearGradient>
<linearGradient id="paint1_linear_1794_521" x1="140" y1="103.998" x2="140" y2="348.002" gradientUnits="userSpaceOnUse">
<stop stop-color="#F7CE30"/>
<stop offset="1" stop-color="#10589A"/>
</linearGradient>
<linearGradient id="paint2_linear_1794_521" x1="356" y1="104" x2="356" y2="252" gradientUnits="userSpaceOnUse">
<stop stop-color="#F7CE30"/>
<stop offset="1" stop-color="#10589A"/>
</linearGradient>
<linearGradient id="paint3_linear_1794_521" x1="356" y1="268" x2="356" y2="284" gradientUnits="userSpaceOnUse">
<stop stop-color="#F7CE30"/>
<stop offset="1" stop-color="#10589A"/>
</linearGradient>
<linearGradient id="paint4_linear_1794_521" x1="356" y1="300" x2="356" y2="316" gradientUnits="userSpaceOnUse">
<stop stop-color="#F7CE30"/>
<stop offset="1" stop-color="#10589A"/>
</linearGradient>
<linearGradient id="paint5_linear_1794_521" x1="356" y1="332" x2="356" y2="348" gradientUnits="userSpaceOnUse">
<stop stop-color="#F7CE30"/>
<stop offset="1" stop-color="#10589A"/>
</linearGradient>
<linearGradient id="paint6_linear_1794_521" x1="321.68" y1="142" x2="321.68" y2="214" gradientUnits="userSpaceOnUse">
<stop stop-color="#F7CE30"/>
<stop offset="1" stop-color="#10589A"/>
</linearGradient>
<linearGradient id="paint7_linear_1794_521" x1="390.4" y1="142" x2="390.4" y2="214" gradientUnits="userSpaceOnUse">
<stop stop-color="#F7CE30"/>
<stop offset="1" stop-color="#10589A"/>
</linearGradient>
<linearGradient id="paint8_linear_1794_521" x1="140" y1="150" x2="140" y2="221.08" gradientUnits="userSpaceOnUse">
<stop stop-color="#F7CE30"/>
<stop offset="1" stop-color="#10589A"/>
</linearGradient>
<linearGradient id="paint9_linear_1794_521" x1="140" y1="230.92" x2="140" y2="302" gradientUnits="userSpaceOnUse">
<stop stop-color="#F7CE30"/>
<stop offset="1" stop-color="#10589A"/>
</linearGradient>
<linearGradient id="paint10_linear_1794_521" x1="212" y1="264" x2="212" y2="280" gradientUnits="userSpaceOnUse">
<stop stop-color="#F7CE30"/>
<stop offset="1" stop-color="#10589A"/>
</linearGradient>
</defs>
</svg>
