<svg width="512" height="512" viewBox="0 0 512 512" fill="none" xmlns="http://www.w3.org/2000/svg">
<path d="M48 100C52.4183 100 56 96.4183 56 92C56 87.5817 52.4183 84 48 84C43.5817 84 40 87.5817 40 92C40 96.4183 43.5817 100 48 100Z" fill="url(#paint0_linear_1802_649)"/>
<path d="M80 100C84.4183 100 88 96.4183 88 92C88 87.5817 84.4183 84 80 84C75.5817 84 72 87.5817 72 92C72 96.4183 75.5817 100 80 100Z" fill="url(#paint1_linear_1802_649)"/>
<path d="M138.492 273.433C140.063 274.878 142.13 275.663 144.265 275.624C145.325 275.603 146.371 275.37 147.34 274.94C148.31 274.51 149.184 273.891 149.912 273.12C150.651 272.381 151.235 271.503 151.629 270.536C152.024 269.568 152.221 268.532 152.21 267.487V225.296C152.243 221.28 151.395 217.306 149.726 213.653C148.137 210.159 145.905 206.994 143.146 204.326C140.388 201.68 137.142 199.596 133.589 198.191C129.958 196.734 126.08 195.989 122.167 196C118.182 195.958 114.231 196.723 110.55 198.251C106.869 199.779 103.537 202.037 100.753 204.888C98.0468 207.668 95.8979 210.94 94.4226 214.529C92.877 218.263 92.0549 222.256 92 226.297V267.861C91.9873 268.905 92.2029 269.939 92.6318 270.891C93.0608 271.843 93.6927 272.69 94.4832 273.371C96.0263 274.829 98.0721 275.636 100.195 275.624C101.262 275.623 102.318 275.406 103.299 274.987C104.28 274.567 105.167 273.954 105.905 273.183C106.689 272.456 107.315 271.575 107.742 270.595C108.17 269.615 108.39 268.557 108.388 267.487V253.215H136.072V267.861C136.044 268.91 136.246 269.953 136.664 270.916C137.082 271.878 137.706 272.737 138.492 273.433ZM108.388 236.938V225.671C108.383 223.859 108.764 222.067 109.504 220.413C110.204 218.81 111.218 217.362 112.485 216.157C113.756 214.969 115.226 214.016 116.828 213.34C118.475 212.632 120.25 212.269 122.042 212.274C123.943 212.257 125.825 212.641 127.567 213.402C129.225 214.127 130.739 215.145 132.037 216.406C133.325 217.668 134.339 219.181 135.016 220.852C135.723 222.58 136.081 224.43 136.072 226.297V236.938H108.388Z" fill="url(#paint2_linear_1802_649)"/>
<path d="M210.308 198.191C206.956 196.748 203.345 196.002 199.695 196H176.977C175.843 195.977 174.718 196.2 173.678 196.654C172.639 197.107 171.711 197.781 170.957 198.628C169.416 200.2 168.548 202.311 168.536 204.512V267.487C168.509 268.621 168.722 269.748 169.161 270.794C169.6 271.841 170.254 272.783 171.082 273.558C171.853 274.336 172.771 274.953 173.784 275.372C174.796 275.791 175.881 276.004 176.977 276H199.695C203.44 276.013 207.144 275.223 210.558 273.682C213.926 272.184 216.98 270.06 219.557 267.424C222.127 264.787 224.208 261.713 225.702 258.347C226.105 257.44 226.457 256.512 226.756 255.567C217.559 238.151 212.535 218.837 212.08 199.147C211.479 198.842 210.936 198.458 210.308 198.191ZM211.116 247.58C211.076 250.594 209.859 253.473 207.725 255.602C205.591 257.73 202.709 258.94 199.695 258.973H185.294V213.026H199.695C201.94 213.028 204.135 213.686 206.011 214.921C207.886 216.155 209.359 217.912 210.247 219.974C210.832 221.382 211.127 222.894 211.116 224.419L211.116 247.58Z" fill="url(#paint3_linear_1802_649)"/>
<path d="M60 172V300C60.0045 304.242 61.6917 308.309 64.6913 311.309C67.6909 314.308 71.7579 315.995 76 316H244C248.242 315.995 252.309 314.308 255.309 311.309C258.308 308.309 259.995 304.242 260 300V295.814C254.243 291.189 248.893 286.079 244.01 280.54L244.012 300H76V172H214.289C215.322 166.582 216.707 161.237 218.435 156H76C71.7579 156.005 67.6909 157.692 64.6913 160.691C61.6917 163.691 60.0045 167.758 60 172Z" fill="url(#paint4_linear_1802_649)"/>
<path d="M480 52H32C23.5161 52.0097 15.3824 55.3842 9.38331 61.3833C3.38424 67.3824 0.00970804 75.5161 0 84L0 332C0.00970804 340.484 3.38424 348.618 9.38331 354.617C15.3824 360.616 23.5161 363.99 32 364H220V380H180C177.878 380 175.843 380.843 174.343 382.343C172.843 383.843 172 385.878 172 388C172 390.122 172.843 392.157 174.343 393.657C175.843 395.157 177.878 396 180 396H332C334.122 396 336.157 395.157 337.657 393.657C339.157 392.157 340 390.122 340 388C340 385.878 339.157 383.843 337.657 382.343C336.157 380.843 334.122 380 332 380H292V364H398.114L384.707 348.152C384.663 348.103 384.626 348.049 384.582 348H32C27.7579 347.995 23.6909 346.308 20.6913 343.309C17.6917 340.309 16.0045 336.242 16 332V132H229.22C232.467 126.398 236.133 121.05 240.186 116H16V84C16.0045 79.7579 17.6917 75.6909 20.6913 72.6913C23.6909 69.6917 27.7579 68.0045 32 68H480C484.242 68.0045 488.309 69.6917 491.309 72.6913C494.308 75.6909 495.995 79.7579 496 84V116H439.814C443.867 121.05 447.533 126.398 450.779 132H496V286.073L512 304.18V84C511.99 75.5161 508.616 67.3824 502.617 61.3833C496.618 55.3842 488.484 52.0097 480 52ZM236 364H276V380H236V364Z" fill="url(#paint5_linear_1802_649)"/>
<path d="M408.472 326.725C408.181 326.426 408.018 326.025 408.015 325.608C408.013 325.19 408.173 324.788 408.461 324.485C408.461 324.485 452.492 288.641 452.605 288.54C452.974 288.205 453.445 288.007 453.942 287.978C454.439 287.949 454.931 288.091 455.336 288.38L494.004 332.142C495.411 333.721 497.388 334.678 499.499 334.804C501.611 334.93 503.687 334.215 505.273 332.814C506.858 331.413 507.825 329.441 507.96 327.33C508.096 325.219 507.389 323.14 505.996 321.548L467.105 277.546C464.171 274.537 460.285 272.636 456.108 272.168C451.931 271.699 447.721 272.69 444.192 274.974L431.584 260.431C447.296 238.082 454.294 210.759 451.261 183.609C448.227 156.459 435.371 131.354 415.115 113.024C394.858 94.6932 368.598 84.4017 341.28 84.0875C313.963 83.7732 287.473 93.4579 266.8 111.318C246.127 129.177 232.697 153.979 229.04 181.053C225.383 208.126 231.75 235.602 246.944 258.307C262.138 281.012 285.108 297.378 311.53 304.323C337.952 311.268 366.001 308.312 390.396 296.014L401.854 309.23L398.121 312.268C398.008 312.362 397.894 312.458 397.785 312.557C396.056 314.12 394.655 316.012 393.665 318.121C392.674 320.231 392.112 322.516 392.013 324.845C391.914 327.173 392.279 329.498 393.087 331.685C393.894 333.871 395.129 335.874 396.718 337.579L497.89 457.169C499.275 458.767 501.231 459.759 503.338 459.935C505.445 460.11 507.537 459.455 509.168 458.108C510.787 456.737 511.795 454.78 511.972 452.665C512.149 450.551 511.479 448.453 510.109 446.833C510.109 446.833 408.586 326.843 408.472 326.725ZM421.299 272.989L431.677 284.96L414.268 299.128L404.325 287.66C410.458 283.347 416.144 278.432 421.299 272.989ZM244 196.001C244 177.014 249.63 158.453 260.179 142.666C270.727 126.879 285.72 114.574 303.262 107.308C320.804 100.042 340.106 98.1412 358.728 101.845C377.351 105.55 394.456 114.693 407.882 128.118C421.308 141.544 430.451 158.65 434.155 177.272C437.859 195.894 435.958 215.197 428.692 232.738C421.426 250.28 409.122 265.273 393.335 275.822C377.547 286.37 358.987 292.001 340 292.001C314.548 291.972 290.147 281.848 272.149 263.851C254.152 245.854 244.029 221.453 244 196.001Z" fill="url(#paint6_linear_1802_649)"/>
<defs>
<linearGradient id="paint0_linear_1802_649" x1="48" y1="84" x2="48" y2="100" gradientUnits="userSpaceOnUse">
<stop stop-color="#F2CB32"/>
<stop offset="1" stop-color="#175C97"/>
</linearGradient>
<linearGradient id="paint1_linear_1802_649" x1="80" y1="84" x2="80" y2="100" gradientUnits="userSpaceOnUse">
<stop stop-color="#F2CB32"/>
<stop offset="1" stop-color="#175C97"/>
</linearGradient>
<linearGradient id="paint2_linear_1802_649" x1="122.105" y1="195.998" x2="122.105" y2="275.625" gradientUnits="userSpaceOnUse">
<stop stop-color="#F2CB32"/>
<stop offset="1" stop-color="#175C97"/>
</linearGradient>
<linearGradient id="paint3_linear_1802_649" x1="197.645" y1="195.998" x2="197.645" y2="276" gradientUnits="userSpaceOnUse">
<stop stop-color="#F2CB32"/>
<stop offset="1" stop-color="#175C97"/>
</linearGradient>
<linearGradient id="paint4_linear_1802_649" x1="160" y1="156" x2="160" y2="316" gradientUnits="userSpaceOnUse">
<stop stop-color="#F2CB32"/>
<stop offset="1" stop-color="#175C97"/>
</linearGradient>
<linearGradient id="paint5_linear_1802_649" x1="256" y1="52" x2="256" y2="396" gradientUnits="userSpaceOnUse">
<stop stop-color="#F2CB32"/>
<stop offset="1" stop-color="#175C97"/>
</linearGradient>
<linearGradient id="paint6_linear_1802_649" x1="370.016" y1="84.0801" x2="370.016" y2="459.963" gradientUnits="userSpaceOnUse">
<stop stop-color="#F2CB32"/>
<stop offset="1" stop-color="#175C97"/>
</linearGradient>
</defs>
</svg>
