<svg width="108" height="102" viewBox="0 0 108 102" fill="none" xmlns="http://www.w3.org/2000/svg">
<circle cx="54" cy="51" r="51" fill="#F7CE30"/>
<g clip-path="url(#clip0_1851_145)">
<path d="M79.0922 24.3125H28.9078C26.202 24.3125 24 26.5121 24 29.2145V63.159C24 64.4129 24.4875 65.6176 25.3477 66.5234C25.3605 66.6324 25.3781 66.7414 25.4039 66.8504C25.5738 67.55 26.0063 68.1418 26.6215 68.5168C27.0551 68.7781 27.5332 68.9035 28.0078 68.9035C28.7367 68.9035 29.4539 68.607 29.9707 68.0621H48.5309L48.0574 72.3641C47.8758 74.0246 46.7484 75.8117 44.7012 75.8117H40.4121C39.8941 75.8117 39.4746 76.2313 39.4746 76.7492C39.4746 77.2672 39.8941 77.6867 40.4121 77.6867H67.5891C68.107 77.6867 68.5266 77.2672 68.5266 76.7492C68.5266 76.2313 68.107 75.8117 67.5891 75.8117H63.3C61.2527 75.8117 60.1242 74.0246 59.9438 72.3629L59.4703 68.0609H79.0934C81.7992 68.0609 84.0012 65.8613 84.0012 63.159V29.2145C84 26.5121 81.798 24.3125 79.0922 24.3125ZM28.9078 26.1875H79.0934C80.7656 26.1875 82.1262 27.5457 82.1262 29.2145V31.6672H25.875V29.2145C25.875 27.5457 27.2355 26.1875 28.9078 26.1875ZM35.5816 53.7477C33.6621 52.584 32.3109 50.7441 31.7766 48.5668C31.2422 46.3895 31.5891 44.1336 32.7516 42.2164C34.3301 39.6148 37.1086 38.1758 39.9527 38.1758C41.4363 38.1758 42.9387 38.5672 44.2969 39.3898C46.2176 40.5523 47.5711 42.3922 48.1055 44.5707C48.6398 46.748 48.293 49.0016 47.1305 50.9176C44.7293 54.8785 39.5484 56.1477 35.5816 53.7477ZM39.9234 56.8355C43.4039 56.8355 46.8035 55.0742 48.7336 51.8902C50.1562 49.5453 50.5805 46.7867 49.9266 44.123C49.2727 41.457 47.618 39.2059 45.2672 37.7844C40.4215 34.8512 34.0875 36.4027 31.1484 41.2437C29.7246 43.5898 29.3016 46.3496 29.9555 49.0145C30.3902 50.784 31.268 52.3695 32.4949 53.6539L28.4813 60.268H25.875V33.5434H82.125V60.268H34.773L37.0969 56.4383C38.0262 56.7043 38.9777 56.8355 39.9234 56.8355ZM26.0754 64.2336C25.9453 63.8938 25.875 63.5305 25.875 63.159V62.1418H27.3434L26.0754 64.2336ZM27.5941 66.9137C27.409 66.8012 27.2777 66.6219 27.2262 66.4086C27.1746 66.1977 27.2074 65.9809 27.3199 65.7957L33.9316 54.9008C33.934 54.9031 33.9375 54.9043 33.941 54.9055C34.1578 55.0613 34.3805 55.2113 34.6113 55.3508C34.8457 55.4926 35.0836 55.6227 35.325 55.7434L28.7156 66.6348C28.4801 67.0203 27.9762 67.1445 27.5941 66.9137ZM58.0793 72.568C58.2176 73.8312 58.6957 74.9469 59.4082 75.8117H48.593C49.3043 74.9469 49.7836 73.8324 49.9219 72.5691L50.4176 68.0621H57.5836L58.0793 72.568ZM79.0922 66.1871H31.1812L33.6352 62.143H82.125V63.1602C82.125 64.8289 80.7645 66.1871 79.0922 66.1871ZM55.7062 64.1645C55.7062 64.6824 55.2867 65.102 54.7687 65.102H53.2313C52.7133 65.102 52.2938 64.6824 52.2938 64.1645C52.2938 63.6465 52.7133 63.227 53.2313 63.227H54.7687C55.2867 63.227 55.7062 63.6465 55.7062 64.1645ZM55.2598 41.9293C55.2598 41.4113 55.6793 40.9918 56.1973 40.9918H67.0371C67.5551 40.9918 67.9746 41.4113 67.9746 41.9293C67.9746 42.4473 67.5551 42.8668 67.0371 42.8668H56.1973C55.6793 42.8668 55.2598 42.4461 55.2598 41.9293ZM55.2598 46.5043C55.2598 45.9863 55.6793 45.5668 56.1973 45.5668H73.5152C74.0332 45.5668 74.4527 45.9863 74.4527 46.5043C74.4527 47.0223 74.0332 47.4418 73.5152 47.4418H56.1973C55.6793 47.4418 55.2598 47.0223 55.2598 46.5043ZM55.2598 51.0828C55.2598 50.5648 55.6793 50.1453 56.1973 50.1453H73.5152C74.0332 50.1453 74.4527 50.5648 74.4527 51.0828C74.4527 51.6008 74.0332 52.0203 73.5152 52.0203H56.1973C55.6793 52.0203 55.2598 51.6008 55.2598 51.0828ZM44.3484 51.1484C44.3484 50.6305 43.9289 50.2109 43.4109 50.2109H37.3922C37.4016 50.2027 37.4109 50.1945 37.4215 50.1863L38.4492 49.3566H41.2172H42.9445C43.7742 49.3566 44.4961 48.7965 44.7012 47.9914L45.675 44.1395C45.7453 43.8594 45.6832 43.5617 45.5063 43.3332C45.3281 43.1047 45.0551 42.9723 44.7668 42.9723H37.5234C37.3453 42.3711 36.8039 41.9668 36.1734 41.9668H34.8199C34.302 41.9668 33.8824 42.3863 33.8824 42.9043C33.8824 43.4223 34.302 43.8418 34.8199 43.8418H35.8219L37.0453 48.0805L36.2449 48.7273C35.5863 49.2582 35.3098 50.0035 35.5043 50.7148C35.7199 51.5363 36.4371 52.0871 37.2879 52.0871H43.4109C43.9289 52.0859 44.3484 51.6664 44.3484 51.1484ZM42.8977 47.4805H41.2195H38.8242L38.0637 44.8461H43.5621L42.8977 47.4805ZM55.2598 28.7973C55.2598 28.2793 55.6793 27.8598 56.1973 27.8598H74.6379C75.1559 27.8598 75.5754 28.2793 75.5754 28.7973C75.5754 29.3152 75.1559 29.7348 74.6379 29.7348H56.1973C55.6793 29.7348 55.2598 29.3152 55.2598 28.7973ZM34.0125 28.7973C34.0125 28.2793 34.432 27.8598 34.95 27.8598H35.359C35.877 27.8598 36.2965 28.2793 36.2965 28.7973C36.2965 29.3152 35.877 29.7348 35.359 29.7348H34.95C34.432 29.7348 34.0125 29.3152 34.0125 28.7973ZM37.3676 28.7973C37.3676 28.2793 37.7871 27.8598 38.3051 27.8598H38.7141C39.232 27.8598 39.6516 28.2793 39.6516 28.7973C39.6516 29.3152 39.232 29.7348 38.7141 29.7348H38.3051C37.7871 29.7348 37.3676 29.3152 37.3676 28.7973Z" fill="black"/>
</g>
<defs>
<clipPath id="clip0_1851_145">
<rect width="60" height="60" fill="white" transform="translate(24 21)"/>
</clipPath>
</defs>
</svg>
