<svg width="500" height="500" viewBox="0 0 500 500" fill="none" xmlns="http://www.w3.org/2000/svg">
<path d="M417.664 245.695C414.242 237.281 406.969 230.578 397.625 227.273C373.852 219.234 349.078 214.805 323.883 213.625C329.523 198.836 332.758 182.867 332.758 166.125C332.758 92.4375 272.813 32.5 199.133 32.5C125.406 32.5 65.4297 92.4453 65.4297 166.125C65.4297 197.406 76.3359 227.586 96.2109 251.43V311.109C96.2109 313.883 97.6797 316.445 100.07 317.852C101.289 318.563 102.656 318.922 104.023 318.922C105.336 318.922 106.656 318.594 107.836 317.93L154.164 291.992C163.492 295.367 173.156 297.547 183.016 298.742C177.805 334.703 182.508 370.148 197.602 406.836C201.18 415.375 208.68 422.078 218.234 425.227C248.016 434.844 278.125 439.727 307.734 439.727H310.977L358.844 466.523C360.031 467.188 361.344 467.516 362.656 467.516C364.023 467.516 365.391 467.156 366.609 466.445C369 465.039 370.469 462.477 370.469 459.703V432.555C379.719 430.445 388.742 427.937 397.336 425.094C406.82 422.094 414.313 415.359 417.875 406.656C440.266 352.516 440.195 299.844 417.664 245.695ZM150.398 276.211C150 276.383 149.617 276.594 149.258 276.828L111.836 297.781V248.125C111.836 245.438 110.484 243.07 108.414 241.664C90.75 220.586 81.0547 193.852 81.0547 166.117C81.0547 101.047 134.023 48.1172 199.133 48.1172C264.203 48.1172 317.133 101.055 317.133 166.117C317.133 231.227 264.203 284.195 199.133 284.195C184.586 284.195 170.43 281.57 157.055 276.383C155.031 275.391 152.609 275.258 150.398 276.211ZM403.43 400.703C401.617 405.133 397.672 408.586 392.523 410.219C382.484 413.539 371.898 416.359 361.07 418.602C357.445 419.352 354.844 422.547 354.844 426.25V446.367L316.828 425.086C315.664 424.437 314.352 424.094 313.016 424.094H307.742C279.766 424.094 251.266 419.469 223.094 410.367C217.883 408.648 213.852 405.164 212.047 400.844C197.906 366.469 193.586 333.344 198.664 299.805C198.828 299.805 198.984 299.828 199.148 299.828C250.141 299.828 294.516 271.078 317.031 228.953C342.898 229.547 368.32 233.859 392.539 242.047C397.578 243.836 401.477 247.312 403.242 251.648C424.094 301.82 424.164 350.57 403.43 400.703Z" fill="black"/>
<path d="M374.742 287.297H286.016C281.703 287.297 278.203 290.797 278.203 295.109C278.203 299.422 281.703 302.922 286.016 302.922H374.742C379.055 302.922 382.555 299.422 382.555 295.109C382.555 290.797 379.055 287.297 374.742 287.297Z" fill="black"/>
<path d="M374.742 324.688H236.031C231.719 324.688 228.219 328.188 228.219 332.5C228.219 336.812 231.719 340.312 236.031 340.312H374.742C379.055 340.312 382.555 336.812 382.555 332.5C382.555 328.188 379.055 324.688 374.742 324.688Z" fill="black"/>
<path d="M374.742 362.078H236.031C231.719 362.078 228.219 365.578 228.219 369.891C228.219 374.203 231.719 377.703 236.031 377.703H374.742C379.055 377.703 382.555 374.203 382.555 369.891C382.555 365.578 379.055 362.078 374.742 362.078Z" fill="black"/>
<path d="M251.773 211.875C254.922 210.781 257.031 207.82 257.031 204.492V159.688L268.969 155.109C271.992 153.953 273.984 151.047 273.984 147.813C273.984 144.578 271.992 141.672 268.969 140.516L201.883 114.813C200.086 114.117 198.094 114.117 196.289 114.813L129.203 140.516C126.18 141.672 124.188 144.578 124.188 147.813C124.188 151.047 126.18 153.953 129.203 155.109L141.141 159.688V204.484C141.141 207.812 143.258 210.781 146.398 211.867L196.531 229.187C197.359 229.477 198.219 229.617 199.086 229.617C199.953 229.617 200.812 229.477 201.641 229.187L251.773 211.875ZM199.086 130.492L244.336 147.828L199.086 165.164L153.836 147.828L199.086 130.492ZM156.773 198.922V165.68L196.297 180.82C197.195 181.164 198.148 181.336 199.094 181.336C200.039 181.336 200.992 181.164 201.891 180.82L241.414 165.68V198.922L199.094 213.547L156.773 198.922Z" fill="black"/>
</svg>
