<svg width="80" height="80" viewBox="0 0 80 80" fill="none" xmlns="http://www.w3.org/2000/svg">
<path fill-rule="evenodd" clip-rule="evenodd" d="M64.0541 29.8277H77.5C78.1041 29.8277 78.5938 29.338 78.5938 28.7339V26.4916C78.5938 24.3431 76.8458 22.5952 74.6973 22.5952H68.4164C68.7722 21.7919 69.2803 21.0536 69.9416 20.3922C71.3283 19.0053 71.3283 16.7486 69.9416 15.3616L64.6383 10.0583C63.9666 9.38656 63.0733 9.01656 62.123 9.01656C61.1727 9.01656 60.2795 9.38656 59.6077 10.0583C57.5106 12.1552 54.5027 12.7514 51.7573 11.6142C49.0122 10.4772 47.3069 7.92859 47.3069 4.96312C47.3069 3.00187 45.7112 1.40625 43.7498 1.40625H36.2502C34.2889 1.40625 32.6931 3.00187 32.6931 4.96328C32.6931 7.92875 30.9878 10.4773 28.2427 11.6144C25.4972 12.7516 22.4892 12.1553 20.3923 10.0584C19.0055 8.67172 16.7488 8.67172 15.3617 10.0584L10.0583 15.3617C8.67156 16.7486 8.67156 19.0053 10.0583 20.3922C12.1552 22.4891 12.7514 25.4972 11.6142 28.2425C10.4772 30.9877 7.92859 32.693 4.96328 32.693C3.00187 32.6931 1.40625 34.2888 1.40625 36.2502V43.7498C1.40625 45.7111 3.00187 47.3069 4.96328 47.3069C7.92875 47.3069 10.4772 49.0122 11.6142 51.7573C12.7514 54.5027 12.1552 57.5108 10.0583 59.6077C8.67156 60.9945 8.67141 63.2511 10.0583 64.6383L15.3616 69.9416C16.7484 71.3283 19.0052 71.3284 20.3922 69.9416C22.492 67.8416 25.5009 67.243 28.2448 68.3797C30.9886 69.5161 32.693 72.067 32.693 75.0366C32.693 76.998 34.2886 78.5936 36.25 78.5936H43.7497C45.7111 78.5936 47.3067 76.998 47.3067 75.0366C47.3067 72.0711 49.0122 69.5227 51.7573 68.3855C54.5027 67.2484 57.5106 67.8445 59.6077 69.9416C60.9947 71.3284 63.2514 71.3283 64.6381 69.9414L67.35 67.2295V72.9717C67.35 76.0716 69.872 78.5934 72.9717 78.5934C76.0714 78.5934 78.5938 76.0719 78.5938 72.972V33.2183C78.5938 32.6142 78.1041 32.1245 77.5 32.1245H66.8569C66.5669 32.1245 66.2886 32.2398 66.0834 32.4448C65.8784 32.65 65.7631 32.9281 65.7631 33.2183V37.1695H63.4662V30.4155C63.4662 30.0914 63.73 29.8277 64.0541 29.8277ZM63.0916 68.3948C62.5575 68.9289 61.6886 68.9287 61.1545 68.395C58.4202 65.6606 54.4986 64.8823 50.9203 66.3648C47.3422 67.8469 45.1194 71.1698 45.1194 75.0369C45.1194 75.792 44.505 76.4064 43.7498 76.4064H36.2502C35.495 76.4064 34.8806 75.792 34.8806 75.0369C34.8806 71.1656 32.6588 67.8403 29.082 66.3589C25.5052 64.8773 21.5828 65.6577 18.8455 68.3948C18.3113 68.9287 17.4423 68.9287 16.9084 68.3948L11.6052 63.0917C11.0713 62.5577 11.0711 61.6887 11.6052 61.1548C14.3395 58.4203 15.1175 54.4987 13.6353 50.9205C12.1531 47.3423 8.83031 45.1195 4.96328 45.1195C4.20812 45.1195 3.59375 44.5052 3.59375 43.75V36.2503C3.59375 35.4952 4.20812 34.8808 4.96328 34.8808C8.83031 34.8808 12.1533 32.658 13.6353 29.0798C15.1175 25.5016 14.3395 21.58 11.6052 18.8456C11.0711 18.3117 11.0713 17.4427 11.6052 16.9086L16.9084 11.6053C17.4425 11.0713 18.3114 11.0714 18.8455 11.6053C21.5798 14.3397 25.5014 15.1177 29.0797 13.6355C32.6578 12.1534 34.8806 8.83047 34.8806 4.96344C34.8806 4.20828 35.495 3.59391 36.2502 3.59391H43.7498C44.505 3.59391 45.1194 4.20828 45.1194 4.96344C45.1194 8.83047 47.3422 12.1534 50.9203 13.6355C54.4986 15.1175 58.4202 14.3398 61.1545 11.6053C61.4131 11.3467 61.7572 11.2044 62.1231 11.2044C62.4891 11.2044 62.833 11.3467 63.0916 11.6053L68.3948 16.9084C68.9287 17.4425 68.9289 18.3116 68.3948 18.8455C67.3198 19.9205 66.53 21.2036 66.0775 22.5952H60.1302C57.9817 22.5952 56.2337 24.3431 56.2337 26.4916V29.9078C55.3016 28.4113 54.1612 27.0416 52.8378 25.8416C50.4383 23.6658 47.5427 22.1444 44.4181 21.4042V20.6934C44.4181 20.0894 43.9284 19.5997 43.3244 19.5997H36.5716C35.8167 18.6836 34.6739 18.0986 33.3969 18.0986C32.1198 18.0986 30.9772 18.6836 30.2222 19.5997H23.4694C22.8653 19.5997 22.3756 20.0894 22.3756 20.6934V23.7292C22.3756 24.3333 22.8653 24.823 23.4694 24.823H28.3816C26.4462 26.3036 24.8148 28.1395 23.5644 30.2456L21.3325 28.9963C21.1694 28.9048 20.9853 28.8569 20.7983 28.8569H16.4306C15.8266 28.8569 15.3369 29.3466 15.3369 29.9506V44.8106C15.3369 45.4147 15.8266 45.9044 16.4306 45.9044H20.7983C20.9853 45.9044 21.1694 45.8562 21.3325 45.765L21.7109 45.5531C22.8127 49.1742 24.993 52.4327 27.9552 54.8397C31.3456 57.5948 35.6233 59.1122 40 59.1122C41.0042 59.1122 42.0094 59.0325 42.9966 58.8772C43.6292 59.4194 44.4142 59.6933 45.2008 59.6933C46.0697 59.6933 46.9384 59.3627 47.5998 58.7012C48.0422 58.2589 48.3128 57.7438 48.4177 57.1608C51.6122 55.5884 54.3472 53.1125 56.2337 50.0877V54.7331C56.2337 56.7272 57.8559 58.3494 59.85 58.3494C61.8441 58.3494 63.4662 56.7272 63.4662 54.7331V53.9994L67.3502 55.4609V64.1361L63.0916 68.3948ZM58.4212 49.9183H61.2787V54.7331C61.2787 55.5209 60.6378 56.1619 59.85 56.1619C59.0622 56.1619 58.4212 55.5209 58.4212 54.7331V49.9183ZM55.4906 47.7308V44.8733H64.4325V47.7308H55.4906ZM56.1172 37.1695C55.5131 37.1695 55.0234 37.6592 55.0234 38.2633V42.6858H54.3969C53.7928 42.6858 53.3031 43.1755 53.3031 43.7795V48.8245C53.3031 49.2191 53.5127 49.5637 53.8259 49.7561C52.3333 51.8619 50.3644 53.6219 48.1033 54.8609C48.0186 54.6428 47.9198 54.4191 47.8056 54.1895L46.18 50.9219C46.0736 50.708 45.9016 50.5416 45.6966 50.4369H49.3056C49.6519 50.4369 49.9778 50.2728 50.1841 49.9947C50.3903 49.7166 50.4528 49.3572 50.3523 49.0258L49.5784 46.4736V44.7692C49.5784 38.6502 44.8828 33.6094 38.9059 33.0556V31.0609C38.9059 30.4569 38.4163 29.9672 37.8122 29.9672H36.0086V25.3859C36.2139 25.2167 36.4025 25.0281 36.5717 24.8228H43.3244C43.9284 24.8228 44.4181 24.3331 44.4181 23.7291V23.6608C50.0223 25.1819 54.5777 29.587 56.2337 35.2006V37.1695H56.1172ZM42.5961 54.1895C42.1086 55.1694 41.8917 56.0455 41.9413 56.8139C41.2983 56.8872 40.6491 56.9247 40.0002 56.9247C32.3942 56.9247 25.6536 51.7275 23.6698 44.4566L25.2217 43.5878C25.5672 43.3944 25.7812 43.0294 25.7812 42.6334V41.7581H37.8123C39.4727 41.7581 40.8234 43.1089 40.8234 44.7692V46.4736L40.0495 49.0258C39.9491 49.3572 40.0114 49.7166 40.2178 49.9947C40.4242 50.2728 40.75 50.4369 41.0962 50.4369H44.7052C44.5002 50.5414 44.3281 50.708 44.2217 50.9219L42.5961 54.1895ZM37.4878 21.787H42.2306V22.6353H37.4878C37.5022 22.4959 37.5097 22.3544 37.5097 22.2112C37.5097 22.0681 37.5022 21.9266 37.4878 21.787ZM47.8311 48.2494H42.5706L42.7283 47.7295H47.6736L47.8311 48.2494ZM47.3909 45.542H43.0106V44.7692C43.0106 41.9027 40.6786 39.5706 37.812 39.5706H25.7812V35.1905H37.8123C43.0941 35.1905 47.3911 39.4875 47.3911 44.7692V45.542H47.3909ZM36.7184 33.003H30.0753V32.1548H36.7184V33.003ZM32.9728 29.9672V26.302C33.1123 26.3164 33.2538 26.3239 33.3969 26.3239C33.54 26.3239 33.6816 26.3164 33.8209 26.302V29.9672H32.9728ZM33.3969 24.1364C32.3353 24.1364 31.4717 23.2728 31.4717 22.2112C31.4717 21.1497 32.3353 20.2859 33.3969 20.2859C34.4584 20.2859 35.322 21.1495 35.322 22.2112C35.3222 23.2728 34.4584 24.1364 33.3969 24.1364ZM29.3059 22.6353H24.5631V21.787H29.3059C29.2916 21.9266 29.2841 22.068 29.2841 22.2112C29.2842 22.3544 29.2917 22.4959 29.3059 22.6353ZM30.7853 25.8031V29.9672H28.9817C28.3777 29.9672 27.888 30.4569 27.888 31.0609V33.0028H25.7812V32.1273C25.7812 31.8298 25.6605 31.55 25.4539 31.3472C26.7848 29.1111 28.6025 27.2205 30.7853 25.8031ZM23.5938 32.7686V41.9922L21.892 42.9447V31.8161L23.5938 32.7686ZM19.7045 43.7167H17.5244V31.0442H19.7045V43.7167ZM44.5545 55.1639L45.2008 53.8647L45.8472 55.1639C46.5769 56.6305 46.2098 56.9975 46.053 57.1542C45.5831 57.6242 44.8186 57.6242 44.3486 57.1542C44.192 56.9975 43.8248 56.6306 44.5545 55.1639ZM67.9506 34.312H76.4062V37.1695H67.9506V34.312ZM76.4062 39.357V72.972C76.4062 74.8656 74.8656 76.4062 72.972 76.4062C71.0784 76.4062 69.5378 74.8656 69.5378 72.972V54.7041C69.5378 54.2486 69.2555 53.8409 68.8292 53.6803L63.4664 51.6622V49.9183H65.5264C66.1305 49.9183 66.6202 49.4286 66.6202 48.8245V43.7795C66.6202 43.1755 66.1305 42.6858 65.5264 42.6858H57.2109V39.357H76.4062ZM58.4212 37.1695V26.4916C58.4212 25.5492 59.1878 24.7827 60.1302 24.7827H74.6973C75.6397 24.7827 76.4062 25.5492 76.4062 26.4916V27.6402H64.0541C62.5238 27.6402 61.2787 28.8852 61.2787 30.4155V37.1695H58.4212ZM71.5302 72.817C71.5302 72.0208 72.1756 71.3752 72.972 71.3752C73.7683 71.3752 74.4139 72.0206 74.4139 72.817C74.4139 73.6133 73.7684 74.2589 72.972 74.2589C72.1756 74.2589 71.5302 73.6133 71.5302 72.817Z" fill="black"/>
</svg>
