<svg width="500" height="500" viewBox="0 0 500 500" fill="none" xmlns="http://www.w3.org/2000/svg">
<path d="M387.235 250.848C408.813 243.64 427.635 229.935 441.121 211.613C454.607 193.291 462.098 171.247 462.567 148.501C463.037 125.755 456.461 103.421 443.742 84.5582C431.023 65.6953 412.782 51.2268 391.52 43.1349C370.257 35.043 347.012 33.7237 324.97 39.3578C302.928 44.9919 283.168 57.3037 268.396 74.6063C253.624 91.9088 244.564 113.356 242.457 136.008C240.349 158.661 245.298 181.411 256.624 201.142H147.767C147.452 201.144 147.139 201.181 146.833 201.252C146.734 201.274 146.641 201.312 146.544 201.341C146.342 201.398 146.145 201.47 145.954 201.556C145.847 201.606 145.748 201.667 145.645 201.725C145.476 201.82 145.315 201.927 145.161 202.044C145.062 202.119 144.969 202.199 144.876 202.283C144.813 202.341 144.741 202.386 144.681 202.447C144.603 202.528 144.546 202.623 144.475 202.708C144.425 202.767 144.363 202.813 144.317 202.875L33.5199 351.994C33.0449 352.633 32.7568 353.392 32.688 354.185C32.6191 354.979 32.7721 355.776 33.1299 356.487C33.4877 357.199 34.0362 357.797 34.7141 358.215C35.3921 358.633 36.1729 358.854 36.9693 358.854C36.9693 358.854 259.909 358.681 260.5 358.382C262.861 359.412 264.946 360.985 266.585 362.972C269.963 366.417 274.168 370.706 282.292 370.706C290.416 370.706 294.622 366.417 298 362.972C300.936 359.978 303.057 357.815 307.572 357.815C312.087 357.815 314.21 359.978 317.146 362.972C320.525 366.417 324.73 370.706 332.855 370.706C340.98 370.706 345.186 366.417 348.565 362.972C351.501 359.978 353.622 357.815 358.139 357.815C362.655 357.815 364.776 359.978 367.712 362.972C371.091 366.417 375.296 370.706 383.421 370.706C391.547 370.706 395.752 366.417 399.132 362.972C402.068 359.978 404.189 357.815 408.706 357.815C413.223 357.815 415.347 359.978 418.283 362.972C421.662 366.418 425.868 370.706 433.994 370.706C442.233 370.706 446.151 366.341 449.299 362.835C452.011 359.812 453.803 357.815 458.208 357.815C459.004 357.815 459.785 357.594 460.463 357.176C461.141 356.758 461.689 356.159 462.047 355.448C462.405 354.736 462.558 353.939 462.489 353.146C462.419 352.352 462.131 351.593 461.656 350.954L387.235 250.848ZM411.502 297.895C408.626 298.596 405.911 299.843 403.505 301.568C403.119 301.83 402.744 302.089 402.382 302.342C399.59 304.623 396.095 305.87 392.489 305.87C388.884 305.87 385.389 304.623 382.597 302.342C382.234 302.089 381.86 301.83 381.474 301.568C378.897 299.71 375.96 298.41 372.851 297.754L347.587 263.8C349.443 264.387 351.38 264.679 353.327 264.664C361.335 264.664 365.462 260.356 368.778 256.895C369.433 256.211 370.046 255.577 370.655 254.997C373.275 254.554 375.863 254.02 378.419 253.395L411.502 297.895ZM194.733 261.444C197.778 263.607 201.437 264.736 205.171 264.663C213.178 264.663 217.304 260.355 220.62 256.893C223.466 253.92 225.523 251.773 229.861 251.773L229.914 251.776L264.062 297.734C260.919 298.383 257.948 299.69 255.345 301.568C254.959 301.829 254.585 302.089 254.222 302.341C251.432 304.623 247.938 305.869 244.334 305.869C240.729 305.869 237.236 304.623 234.445 302.341C234.083 302.089 233.708 301.829 233.322 301.568C229.84 299.035 225.699 297.564 221.399 297.331L194.733 261.444ZM249.755 264.07C251.323 264.471 252.935 264.671 254.552 264.663C262.56 264.663 266.686 260.355 270.002 256.893C272.849 253.92 274.907 251.773 279.245 251.773C279.746 251.772 280.246 251.804 280.742 251.869L314.712 297.523C311.105 298.041 307.678 299.43 304.728 301.568C304.342 301.83 303.967 302.089 303.605 302.342C300.813 304.623 297.319 305.87 293.714 305.87C290.109 305.87 286.615 304.623 283.824 302.342C283.461 302.089 283.087 301.83 282.701 301.568C280.357 299.888 277.72 298.659 274.925 297.945L249.755 264.07ZM300.788 264.414C301.829 264.58 302.882 264.664 303.937 264.663C311.945 264.663 316.071 260.355 319.386 256.893C320.729 255.327 322.303 253.975 324.053 252.884C325.936 253.382 327.838 253.833 329.759 254.234L362.226 297.868C359.307 298.562 356.552 299.819 354.114 301.568C353.728 301.83 353.353 302.089 352.991 302.342C350.199 304.623 346.705 305.87 343.1 305.87C339.494 305.87 336 304.623 333.208 302.342C332.846 302.089 332.471 301.83 332.085 301.568C330.252 300.273 328.25 299.234 326.135 298.481L300.788 264.414ZM250.576 146.281C250.576 126.173 256.539 106.517 267.71 89.7978C278.882 73.0787 294.76 60.0478 313.337 52.3529C331.915 44.658 352.357 42.6447 372.078 46.5677C391.8 50.4906 409.915 60.1736 424.134 74.3921C438.352 88.6106 448.035 106.726 451.957 126.448C455.88 146.169 453.867 166.611 446.172 185.188C438.477 203.766 425.446 219.644 408.726 230.815C392.007 241.986 372.351 247.949 352.243 247.949C325.288 247.918 299.447 237.197 280.387 218.137C261.327 199.077 250.606 173.236 250.576 146.281ZM308.481 247.475C310.389 248.304 312.325 249.082 314.286 249.808C313.906 250.194 313.538 250.577 313.181 250.949C310.333 253.922 308.276 256.07 303.937 256.07C299.598 256.07 297.541 253.922 294.694 250.949C293.559 249.723 292.353 248.563 291.085 247.475C289.527 246.149 287.759 245.091 285.854 244.344L260.103 209.736H262.122C273.83 226.321 289.865 239.375 308.481 247.475ZM249.392 209.736L274.675 243.715C271.992 244.386 269.503 245.674 267.405 247.475C266.136 248.563 264.931 249.723 263.796 250.949C260.949 253.922 258.891 256.07 254.552 256.07C250.214 256.07 248.157 253.922 245.31 250.949C244.174 249.723 242.969 248.563 241.701 247.475C239.667 245.731 237.266 244.467 234.677 243.777L209.385 209.736H249.392ZM198.677 209.736L224.16 244.031C221.908 244.767 219.823 245.937 218.022 247.475C216.754 248.563 215.549 249.723 214.413 250.949C211.567 253.922 209.511 256.07 205.172 256.07C200.833 256.07 198.778 253.922 195.932 250.949C194.796 249.723 193.591 248.563 192.322 247.475C189.221 244.794 185.279 243.282 181.18 243.203L156.313 209.736H198.677ZM75.5464 350.26L147.782 252.696L220.614 350.26H75.5464ZM231.337 350.26L151.211 242.924C150.811 242.388 150.291 241.953 149.693 241.653C149.095 241.353 148.436 241.197 147.767 241.197H147.759C147.089 241.199 146.428 241.357 145.83 241.659C145.232 241.961 144.712 242.399 144.314 242.938L64.8531 350.26H45.5152L147.767 212.643L250.019 350.26H231.337ZM291.865 356.955C288.929 359.949 286.808 362.111 282.292 362.111C277.776 362.111 275.656 359.948 272.72 356.955C269.804 353.981 266.266 350.385 260.128 349.455L231.21 310.536C235.062 313.194 239.655 314.568 244.334 314.463C249.705 314.533 254.934 312.741 259.134 309.393C261.894 307.058 265.408 305.804 269.023 305.865C269.42 305.865 269.775 305.892 270.139 305.912L302.749 349.801C298.499 351.07 294.715 353.558 291.865 356.955ZM342.429 356.955C339.493 359.949 337.372 362.111 332.855 362.111C328.338 362.111 326.218 359.948 323.282 356.955C320.708 353.952 317.433 351.63 313.748 350.195L286.406 313.396C288.772 314.131 291.238 314.491 293.715 314.463C299.086 314.532 304.316 312.741 308.517 309.393C311.277 307.058 314.792 305.804 318.407 305.865C319.299 305.865 320.19 305.933 321.071 306.069L353.564 349.739C349.211 350.969 345.331 353.484 342.429 356.955ZM392.996 356.955C390.06 359.949 387.938 362.111 383.421 362.111C378.904 362.111 376.784 359.948 373.848 356.955C371.359 354.064 368.231 351.794 364.711 350.325L337.594 313.881C339.402 314.279 341.249 314.474 343.1 314.463C348.471 314.533 353.701 312.741 357.902 309.393C360.663 307.058 364.177 305.804 367.793 305.865C367.934 305.865 368.052 305.88 368.189 305.882L401.46 350.597C398.225 352.102 395.342 354.268 392.996 356.955ZM442.902 357.093C440.19 360.116 438.398 362.113 433.993 362.113C429.476 362.113 427.354 359.95 424.417 356.957C421.413 353.894 417.749 350.173 411.266 349.383L384.254 313.079C388.098 314.43 392.218 314.801 396.241 314.158C400.264 313.515 404.062 311.877 407.293 309.394C410.054 307.058 413.569 305.805 417.185 305.866V305.54L450.761 350.703C447.706 352.233 445.024 354.415 442.902 357.093Z" fill="black"/>
<path d="M384.176 385.682C383.705 385.04 383.064 384.542 382.325 384.245C381.586 383.947 380.779 383.861 379.994 383.997L377.719 384.385C372.508 384.404 367.458 386.195 363.4 389.464C360.695 391.8 357.222 393.052 353.649 392.98H353.646C349.771 392.98 347.507 391.628 343.758 389.386C338.795 386.422 332.424 383.142 326.84 383.905C321.613 383.914 316.547 385.706 312.477 388.985C309.771 391.321 306.297 392.574 302.723 392.5C298.473 392.5 293.806 390.064 289.292 387.709C286.445 386.128 283.481 384.767 280.426 383.639C279.551 383.344 278.604 383.339 277.726 383.625C276.848 383.91 276.085 384.471 275.55 385.224C275.016 385.978 274.738 386.883 274.759 387.806C274.779 388.73 275.097 389.622 275.664 390.351C280.391 396.422 323.24 455.804 325.997 455.946C329.212 456.123 332.28 457.349 334.732 459.436C338.89 462.786 344.085 464.582 349.424 464.516H349.429C355.648 464.516 359.468 462.218 363.511 459.786L364.183 459.382C366.631 457.727 369.433 456.67 372.363 456.296C375.294 455.922 378.271 456.242 381.056 457.229C383.003 458.028 384.859 459.031 386.595 460.221C390.573 463.204 395.382 464.872 400.353 464.993C405.694 465.06 410.892 463.263 415.051 459.912C417.756 457.575 421.231 456.322 424.805 456.396C425.047 456.396 425.289 456.375 425.528 456.335L428.209 455.878C428.932 455.754 429.612 455.448 430.183 454.988C430.754 454.528 431.198 453.929 431.472 453.249C431.747 452.568 431.842 451.829 431.75 451.101C431.657 450.374 431.38 449.682 430.945 449.091L384.176 385.682ZM410.108 452.885C407.402 455.222 403.927 456.474 400.353 456.401C396.611 456.401 394.341 454.961 391.2 452.966C388.964 451.451 386.57 450.181 384.061 449.18C381.154 448.084 378.073 447.521 374.966 447.518C369.585 447.6 364.329 449.153 359.768 452.01L359.081 452.422C355.453 454.605 353.263 455.923 349.429 455.923H349.426C345.852 455.995 342.378 454.743 339.673 452.407C336.362 449.773 332.401 448.083 328.208 447.516C325.03 443.598 296.902 404.618 292.727 398.891C295.886 400.264 299.28 401.013 302.723 401.095C308.064 401.162 313.262 399.365 317.421 396.014C320.126 393.677 323.601 392.425 327.175 392.498C327.417 392.498 327.659 392.477 327.898 392.437C329.391 392.18 332.589 392.727 339.351 396.764C343.49 399.238 347.399 401.574 353.646 401.574H353.651C358.99 401.641 364.186 399.844 368.343 396.493C371.049 394.156 374.524 392.904 378.098 392.977C378.341 392.977 378.583 392.956 378.822 392.915H378.833L419.686 448.307C416.195 449.11 412.925 450.673 410.108 452.885Z" fill="black"/>
<path d="M352.243 235.059C369.801 235.06 386.966 229.853 401.565 220.098C416.164 210.343 427.543 196.478 434.262 180.256C440.982 164.034 442.74 146.184 439.314 128.963C435.889 111.742 427.434 95.9237 415.018 83.508C402.602 71.0923 386.784 62.6371 369.563 59.2117C352.342 55.7862 334.492 57.5444 318.27 64.2637C302.048 70.9831 288.183 82.3619 278.428 96.9613C268.673 111.561 263.467 128.725 263.467 146.283C263.494 169.82 272.855 192.385 289.498 209.028C306.141 225.671 328.706 235.033 352.243 235.059ZM384.585 219.63L371.723 197.35L395.343 183.712L407.327 204.468C400.667 210.782 392.975 215.911 384.585 219.63ZM315.769 134.812L343.514 118.793L358.911 109.904C367.823 104.772 378.369 103.267 388.361 105.701C398.353 108.135 407.025 114.321 412.58 122.976C406.221 121.055 399.537 120.457 392.939 121.218C386.341 121.979 379.968 124.082 374.214 127.399L327.171 154.559L315.769 134.812ZM322.716 164.03L305.783 173.807L288.406 143.71L305.34 133.934L322.716 164.03ZM370.984 139.187L375.903 153.065L354.904 165.189L345.344 153.99L370.984 139.187ZM375.707 163.102L385.244 179.62L373.229 186.556L363.693 170.038L375.707 163.102ZM352.243 66.0989C367.525 66.0876 382.492 70.4471 395.378 78.6632C408.264 86.8793 418.532 98.6093 424.97 112.47C431.408 126.33 433.748 141.742 431.714 156.889C429.68 172.035 423.356 186.284 413.489 197.954L400.638 175.693C400.068 174.707 399.129 173.987 398.029 173.692C396.928 173.397 395.755 173.551 394.768 174.121L392.687 175.322L383.151 158.805L383.296 158.721C384.165 158.219 384.832 157.429 385.179 156.487C385.526 155.545 385.533 154.511 385.197 153.565L378.554 134.818C383.405 132.03 388.788 130.289 394.353 129.708C399.919 129.127 405.545 129.718 410.868 131.445L420.623 134.617C421.45 134.886 422.338 134.898 423.171 134.651C424.005 134.404 424.744 133.911 425.291 133.235C425.838 132.56 426.167 131.735 426.235 130.868C426.304 130.002 426.108 129.135 425.673 128.382L420.974 120.243C414.522 109.096 403.912 100.964 391.471 97.6307C379.031 94.2972 365.776 96.0346 354.615 102.462L311.472 127.37L310.633 125.916C310.351 125.427 309.975 124.999 309.528 124.655C309.08 124.312 308.569 124.06 308.024 123.914C307.479 123.768 306.91 123.73 306.351 123.804C305.791 123.878 305.252 124.061 304.763 124.344L280.387 138.417C279.898 138.699 279.47 139.074 279.126 139.522C278.783 139.97 278.531 140.481 278.385 141.026C278.239 141.571 278.201 142.139 278.275 142.699C278.349 143.258 278.532 143.797 278.814 144.286L300.488 181.826C301.058 182.813 301.996 183.533 303.097 183.828C304.198 184.123 305.371 183.968 306.357 183.398L330.733 169.324C331.72 168.755 332.44 167.816 332.735 166.715C333.03 165.615 332.876 164.442 332.306 163.455L331.466 162.002L337.775 158.36L350.688 173.487C351.34 174.251 352.239 174.762 353.228 174.932C354.218 175.103 355.235 174.921 356.105 174.419L356.25 174.335L365.787 190.853L363.704 192.055C362.718 192.625 361.998 193.563 361.703 194.664C361.408 195.765 361.562 196.938 362.132 197.924L376.448 222.722C365.423 226.214 353.772 227.279 342.297 225.844C330.821 224.41 319.791 220.509 309.964 214.411C300.137 208.313 291.746 200.162 285.366 190.516C278.985 180.87 274.767 169.957 273.001 158.528C271.235 147.099 271.962 135.422 275.132 124.3C278.302 113.178 283.841 102.873 291.369 94.0931C298.896 85.3129 308.234 78.265 318.741 73.4329C329.249 68.6008 340.678 66.0989 352.243 66.0989Z" fill="black"/>
</svg>
