<svg width="512" height="512" viewBox="0 0 512 512" fill="none" xmlns="http://www.w3.org/2000/svg">
<path d="M477.867 196.267V110.933C477.838 87.3808 458.752 68.2948 435.2 68.2665H375.125C361.058 68.2635 347.896 61.3266 339.942 49.7236L329.498 34.4916C318.361 18.246 299.931 8.53484 280.235 8.5332H197.632C177.936 8.53484 159.506 18.246 148.369 34.4916L137.924 49.7236C131.602 58.9384 121.906 65.2933 110.933 67.4132V59.7332C110.933 45.5947 99.4718 34.1332 85.3333 34.1332H59.7333C45.5948 34.1332 34.1333 45.5947 34.1333 59.7332V69.1199C14.2812 73.2025 0.0255854 90.6657 0 110.933V349.867C0.0376204 382.841 26.7591 409.562 59.7333 409.6H307.2V469.333C307.2 488.185 322.482 503.467 341.333 503.467H477.867C496.718 503.467 512 488.185 512 469.333V230.4C512 211.549 496.718 196.267 477.867 196.267ZM494.933 230.4V435.2C494.933 444.626 487.292 452.267 477.867 452.267H341.333C331.908 452.267 324.267 444.626 324.267 435.2V230.4C324.267 220.974 331.908 213.333 341.333 213.333H344.593L354.586 233.318C358.896 242.013 367.776 247.5 377.481 247.467H441.719C451.424 247.5 460.304 242.013 464.614 233.318L474.607 213.333H477.867C487.292 213.333 494.933 220.974 494.933 230.4ZM455.526 213.333L449.348 225.681C447.904 228.571 444.951 230.398 441.719 230.4H377.481C374.249 230.398 371.296 228.571 369.852 225.681L363.674 213.333H455.526ZM341.333 196.267C336.541 196.28 331.806 197.309 327.441 199.287C313.556 159.442 274.83 133.724 232.718 136.382C190.607 139.039 155.421 169.422 146.655 210.697C137.89 251.972 157.69 294.032 195.087 313.575C232.484 333.118 278.319 325.359 307.2 294.596V328.337C287.216 342.395 263.367 349.916 238.933 349.867C177.42 349.851 125.974 303.128 120.052 241.9C114.131 180.672 155.67 124.957 216.04 113.153C276.41 101.35 335.875 137.317 353.451 196.267H341.333ZM307.2 230.4V265.284C290.288 298.168 252.308 314.287 216.906 303.605C181.505 292.922 158.78 258.484 162.882 221.734C166.983 184.985 196.741 156.404 233.626 153.789C270.511 151.173 304.004 175.269 313.25 211.072C309.312 216.748 307.201 223.491 307.2 230.4ZM51.2 59.7332C51.2 55.0204 55.0205 51.1999 59.7333 51.1999H85.3333C90.0462 51.1999 93.8667 55.0204 93.8667 59.7332V68.2665H51.2V59.7332ZM17.0667 145.067H34.1333C48.2718 145.067 59.7333 156.528 59.7333 170.667V307.2C59.7333 321.338 48.2718 332.8 34.1333 332.8H17.0667V145.067ZM59.7333 392.533C36.1809 392.505 17.0949 373.419 17.0667 349.867H34.1333C57.6858 349.838 76.7718 330.752 76.8 307.2V170.667C76.7718 147.114 57.6858 128.028 34.1333 128H17.0667V110.933C17.0667 96.7947 28.5282 85.3332 42.6667 85.3332H102.741C122.44 85.3405 140.873 75.6272 152.004 59.3748L162.449 44.1428C170.403 32.5398 183.565 25.6029 197.632 25.5999H280.235C294.302 25.6029 307.464 32.5398 315.418 44.1428L325.862 59.3748C336.993 75.6272 355.427 85.3405 375.125 85.3332H435.2C449.339 85.3332 460.8 96.7947 460.8 110.933V196.267H371.038C353.297 127.556 285.876 83.8907 215.918 95.8044C145.961 107.718 96.7937 171.238 102.796 241.948C108.798 312.658 167.969 366.982 238.933 366.933C262.916 366.968 286.477 360.624 307.2 348.552V392.533H59.7333ZM477.867 486.4H341.333C331.908 486.4 324.267 478.759 324.267 469.333V464.589C329.432 467.66 335.324 469.298 341.333 469.333H477.867C483.876 469.298 489.768 467.66 494.933 464.589V469.333C494.933 478.759 487.292 486.4 477.867 486.4Z" fill="black"/>
<path d="M396.8 162.134H413.867C430.362 162.134 443.734 148.762 443.734 132.267C443.734 115.772 430.362 102.4 413.867 102.4H396.8C380.305 102.4 366.934 115.772 366.934 132.267C366.934 148.762 380.305 162.134 396.8 162.134ZM396.8 119.467H413.867C420.936 119.467 426.667 125.198 426.667 132.267C426.667 139.336 420.936 145.067 413.867 145.067H396.8C389.731 145.067 384 139.336 384 132.267C384 125.198 389.731 119.467 396.8 119.467Z" fill="black"/>
<path d="M221.866 59.7327H256C260.713 59.7327 264.533 55.9122 264.533 51.1993C264.533 46.4865 260.713 42.666 256 42.666H221.866C217.154 42.666 213.333 46.4865 213.333 51.1993C213.333 55.9122 217.154 59.7327 221.866 59.7327Z" fill="black"/>
<path d="M409.6 273.066C371.897 273.066 341.333 303.63 341.333 341.333C341.333 379.036 371.897 409.6 409.6 409.6C447.302 409.6 477.866 379.036 477.866 341.333C477.824 303.648 447.285 273.109 409.6 273.066ZM460.032 332.8H443.451C442.905 320.846 440.531 309.047 436.411 297.813C448.946 305.54 457.551 318.286 460.032 332.8ZM409.6 392.533C404.147 392.533 394.658 376.473 392.9 349.866H426.299C424.542 376.473 415.052 392.533 409.6 392.533ZM392.9 332.8C394.658 306.193 404.147 290.133 409.6 290.133C415.052 290.133 424.542 306.193 426.299 332.8H392.9ZM382.788 297.813C378.668 309.047 376.294 320.846 375.748 332.8H359.168C361.649 318.286 370.253 305.54 382.788 297.813ZM359.168 349.866H375.748C376.294 361.82 378.668 373.619 382.788 384.853C370.253 377.126 361.649 364.381 359.168 349.866ZM436.411 384.853C440.531 373.619 442.905 361.82 443.451 349.866H460.032C457.551 364.381 448.946 377.126 436.411 384.853Z" fill="black"/>
</svg>
