<svg width="512" height="512" viewBox="0 0 512 512" fill="none" xmlns="http://www.w3.org/2000/svg">
<path d="M360 472H128C114.768 472 104 461.232 104 448V288C104 283.584 100.416 280 96 280C91.584 280 88 283.584 88 288V448C88 470.056 105.944 488 128 488H360C364.416 488 368 484.416 368 480C368 475.584 364.416 472 360 472Z" fill="url(#paint0_linear_1792_101)"/>
<path d="M480 392C475.584 392 472 395.584 472 400V448C472 461.232 461.232 472 448 472H424C419.584 472 416 475.584 416 480C416 484.416 419.584 488 424 488H448C470.056 488 488 470.056 488 448V400C488 395.584 484.416 392 480 392Z" fill="url(#paint1_linear_1792_101)"/>
<path d="M448 88H288C283.584 88 280 91.584 280 96C280 100.416 283.584 104 288 104H448C461.232 104 472 114.768 472 128V152H288C283.584 152 280 155.584 280 160C280 164.416 283.584 168 288 168H472V304C472 308.416 475.584 312 480 312C484.416 312 488 308.416 488 304V128C488 105.944 470.056 88 448 88Z" fill="url(#paint2_linear_1792_101)"/>
<path d="M448 136C452.416 136 456 132.416 456 128C456 123.584 452.416 120 448 120H432C427.584 120 424 123.584 424 128C424 132.416 427.584 136 432 136H448Z" fill="url(#paint3_linear_1792_101)"/>
<path d="M400 136C404.416 136 408 132.416 408 128C408 123.584 404.416 120 400 120H384C379.584 120 376 123.584 376 128C376 132.416 379.584 136 384 136H400Z" fill="url(#paint4_linear_1792_101)"/>
<path d="M352 136C356.416 136 360 132.416 360 128C360 123.584 356.416 120 352 120H336C331.584 120 328 123.584 328 128C328 132.416 331.584 136 336 136H352Z" fill="url(#paint5_linear_1792_101)"/>
<path d="M453.72 394.96C474.232 383.264 485.664 360.576 483.568 335.76C483.368 333.416 482.152 331.28 480.232 329.92C459.936 315.48 434.592 313.776 414.08 325.48C408.752 328.52 404.136 332.376 400.128 336.752V308.656C419.856 297.536 431.992 277.88 431.992 256.008C431.992 232.392 417.952 211.224 395.352 200.752C393.216 199.76 390.76 199.76 388.624 200.752C366.024 211.224 351.984 232.4 351.984 256.008C351.984 277.976 364.232 297.712 384.12 308.8V336.816C380.096 332.408 375.464 328.528 370.112 325.472C349.6 313.768 324.256 315.472 303.96 329.912C302.04 331.272 300.824 333.416 300.624 335.752C298.528 360.568 309.96 383.256 330.464 394.952C339.52 400.12 349.512 402.664 359.6 402.664C367.888 402.664 376.2 400.832 384.12 397.368V479.992C384.12 484.408 387.704 487.992 392.12 487.992C396.536 487.992 400.12 484.408 400.12 479.992V397.56C408.024 400.944 416.328 402.672 424.576 402.672C434.664 402.672 444.656 400.12 453.704 394.96H453.72ZM384.136 379.6C369.608 388.408 352.4 389.048 338.416 381.064C324.408 373.072 316.192 357.904 316.408 340.88C330.96 332.032 348.2 331.384 362.2 339.376C375.792 347.128 383.864 361.648 384.144 378.064V379.6H384.136ZM392 295.032C377.104 286.776 368 272.128 368 256C368 239.872 377.104 225.216 392 216.968C406.896 225.224 416 239.872 416 256C416 272.128 406.896 286.784 392 295.032ZM400.136 379.632V376.792C400.808 360.904 408.776 346.92 422.016 339.368C436.016 331.376 453.256 332.032 467.808 340.872C468.024 357.896 459.808 373.064 445.792 381.056C431.832 389.024 414.656 388.4 400.136 379.632Z" fill="url(#paint6_linear_1792_101)"/>
<path d="M264 224V64C264 41.944 246.056 24 224 24H64C41.944 24 24 41.944 24 64C24 68.416 27.584 72 32 72C36.416 72 40 68.416 40 64C40 50.768 50.768 40 64 40H224C237.232 40 248 50.768 248 64V224C248 237.232 237.232 248 224 248H64C50.768 248 40 237.232 40 224V96C40 91.584 36.416 88 32 88C27.584 88 24 91.584 24 96V224C24 246.056 41.944 264 64 264H224C246.056 264 264 246.056 264 224Z" fill="url(#paint7_linear_1792_101)"/>
<path d="M256 320H144C139.584 320 136 323.584 136 328C136 332.416 139.584 336 144 336H256C260.416 336 264 332.416 264 328C264 323.584 260.416 320 256 320Z" fill="url(#paint8_linear_1792_101)"/>
<path d="M264 360C264 355.584 260.416 352 256 352H144C139.584 352 136 355.584 136 360C136 364.416 139.584 368 144 368H256C260.416 368 264 364.416 264 360Z" fill="url(#paint9_linear_1792_101)"/>
<path d="M144 384C139.584 384 136 387.584 136 392C136 396.416 139.584 400 144 400H224C228.416 400 232 396.416 232 392C232 387.584 228.416 384 224 384H144Z" fill="url(#paint10_linear_1792_101)"/>
<path d="M144 112C139.584 112 136 115.584 136 120V144C136 146.12 136.84 148.16 138.344 149.656L162.344 173.656C163.904 175.216 165.952 176 168 176C170.048 176 172.096 175.216 173.656 173.656C176.784 170.528 176.784 165.472 173.656 162.344L152 140.688V120C152 115.584 148.416 112 144 112Z" fill="url(#paint11_linear_1792_101)"/>
<path d="M177.344 123.56C174.896 127.232 175.888 132.208 179.56 134.656L203.56 150.656C204.92 151.568 206.464 152 207.992 152C210.576 152 213.112 150.752 214.656 148.44L230.656 124.44C233.104 120.768 232.112 115.792 228.44 113.344C224.76 110.888 219.792 111.88 217.344 115.56L212.72 122.504C203.552 93.272 176.216 72 144 72C104.304 72 72 104.304 72 144C72 183.696 104.304 216 144 216C169.624 216 193.52 202.208 206.36 180.008C208.568 176.184 207.264 171.288 203.44 169.072C199.608 166.856 194.72 168.168 192.504 171.992C182.512 189.272 163.92 200 143.992 200C113.112 200 87.992 174.88 87.992 144C87.992 113.12 113.112 88 143.992 88C169.08 88 190.376 104.584 197.472 127.368L188.432 121.344C184.752 118.88 179.792 119.888 177.344 123.56Z" fill="url(#paint12_linear_1792_101)"/>
<defs>
<linearGradient id="paint0_linear_1792_101" x1="228" y1="280" x2="228" y2="488" gradientUnits="userSpaceOnUse">
<stop stop-color="#F6CD30"/>
<stop offset="1" stop-color="#26648F"/>
</linearGradient>
<linearGradient id="paint1_linear_1792_101" x1="452" y1="392" x2="452" y2="488" gradientUnits="userSpaceOnUse">
<stop stop-color="#F6CD30"/>
<stop offset="1" stop-color="#26648F"/>
</linearGradient>
<linearGradient id="paint2_linear_1792_101" x1="384" y1="88" x2="384" y2="312" gradientUnits="userSpaceOnUse">
<stop stop-color="#F6CD30"/>
<stop offset="1" stop-color="#26648F"/>
</linearGradient>
<linearGradient id="paint3_linear_1792_101" x1="440" y1="120" x2="440" y2="136" gradientUnits="userSpaceOnUse">
<stop stop-color="#F6CD30"/>
<stop offset="1" stop-color="#26648F"/>
</linearGradient>
<linearGradient id="paint4_linear_1792_101" x1="392" y1="120" x2="392" y2="136" gradientUnits="userSpaceOnUse">
<stop stop-color="#F6CD30"/>
<stop offset="1" stop-color="#26648F"/>
</linearGradient>
<linearGradient id="paint5_linear_1792_101" x1="344" y1="120" x2="344" y2="136" gradientUnits="userSpaceOnUse">
<stop stop-color="#F6CD30"/>
<stop offset="1" stop-color="#26648F"/>
</linearGradient>
<linearGradient id="paint6_linear_1792_101" x1="392.096" y1="200.008" x2="392.096" y2="487.992" gradientUnits="userSpaceOnUse">
<stop stop-color="#F6CD30"/>
<stop offset="1" stop-color="#26648F"/>
</linearGradient>
<linearGradient id="paint7_linear_1792_101" x1="144" y1="24" x2="144" y2="264" gradientUnits="userSpaceOnUse">
<stop stop-color="#F6CD30"/>
<stop offset="1" stop-color="#26648F"/>
</linearGradient>
<linearGradient id="paint8_linear_1792_101" x1="200" y1="320" x2="200" y2="336" gradientUnits="userSpaceOnUse">
<stop stop-color="#F6CD30"/>
<stop offset="1" stop-color="#26648F"/>
</linearGradient>
<linearGradient id="paint9_linear_1792_101" x1="200" y1="352" x2="200" y2="368" gradientUnits="userSpaceOnUse">
<stop stop-color="#F6CD30"/>
<stop offset="1" stop-color="#26648F"/>
</linearGradient>
<linearGradient id="paint10_linear_1792_101" x1="184" y1="384" x2="184" y2="400" gradientUnits="userSpaceOnUse">
<stop stop-color="#F6CD30"/>
<stop offset="1" stop-color="#26648F"/>
</linearGradient>
<linearGradient id="paint11_linear_1792_101" x1="156.001" y1="112" x2="156.001" y2="176" gradientUnits="userSpaceOnUse">
<stop stop-color="#F6CD30"/>
<stop offset="1" stop-color="#26648F"/>
</linearGradient>
<linearGradient id="paint12_linear_1792_101" x1="151.999" y1="72" x2="151.999" y2="216" gradientUnits="userSpaceOnUse">
<stop stop-color="#F6CD30"/>
<stop offset="1" stop-color="#26648F"/>
</linearGradient>
</defs>
</svg>
