<svg width="108" height="102" viewBox="0 0 108 102" fill="none" xmlns="http://www.w3.org/2000/svg">
<circle cx="54" cy="51" r="51" fill="#F7CE30"/>
<g clip-path="url(#clip0_1851_188)">
<path d="M78.5 46.625H66.7671C68.0359 43.5135 68.875 40.7135 68.875 38.75C68.875 30.5478 62.2022 23.875 54 23.875C45.7978 23.875 39.125 30.5478 39.125 38.75C39.125 40.7135 39.9641 43.5135 41.2329 46.625H36.5V42.25C36.5 40.8027 35.3223 39.625 33.875 39.625H32.125C29.2296 39.625 26.875 41.9796 26.875 44.875V72.875C26.875 75.7704 29.2296 78.125 32.125 78.125H78.5C79.9473 78.125 81.125 76.9473 81.125 75.5V49.25C81.125 47.8027 79.9473 46.625 78.5 46.625ZM61.2564 62.9936L74.6377 76.375H70.9873L58.0828 63.4705C58.9735 61.9567 59.971 60.2207 60.9947 58.3675L70.9873 48.375H74.6377L61.2564 61.7564C60.9142 62.0985 60.9142 62.6515 61.2564 62.9936ZM50.5682 64.5695L38.7628 76.375H34.1454C35.2829 75.2086 37.1326 73.2714 40.245 70.0111L48.6196 61.2375C49.3161 62.4529 49.9741 63.5737 50.5682 64.5695ZM51.4966 66.1156C52.4749 67.7283 53.1434 68.7835 53.2615 68.969C53.4225 69.2219 53.7007 69.375 54 69.375C54.2993 69.375 54.5775 69.2219 54.7385 68.969C54.882 68.7441 55.8252 67.254 57.1614 65.0236L68.5127 76.375H41.2372L51.4966 66.1156ZM68.5127 48.375L63.7755 53.1123C64.577 51.5215 65.3391 49.9246 66.0216 48.375H68.5127ZM54 25.625C61.2371 25.625 67.125 31.5129 67.125 38.75C67.125 45.1375 56.8718 62.1948 54 66.8463C51.1282 62.1948 40.875 45.1375 40.875 38.75C40.875 31.5129 46.7629 25.625 54 25.625ZM28.625 44.875C28.625 42.9447 30.1947 41.375 32.125 41.375H33.875C34.358 41.375 34.75 41.767 34.75 42.25V66.75C34.75 67.233 34.358 67.625 33.875 67.625H32.125C30.7819 67.625 29.5543 68.1325 28.625 68.9646V44.875ZM28.625 72.875C28.625 70.9447 30.1947 69.375 32.125 69.375H33.875C35.3223 69.375 36.5 68.1973 36.5 66.75V48.375H41.9784C43.626 52.1165 45.7514 56.1467 47.7184 59.6476L38.9797 68.8028C35.681 72.259 32.6938 75.3889 31.7846 76.3409C30.0154 76.1659 28.625 74.6889 28.625 72.875ZM79.375 75.5C79.375 75.983 78.983 76.375 78.5 76.375H77.1123L63.1123 62.375L77.1123 48.375H78.5C78.983 48.375 79.375 48.767 79.375 49.25V75.5Z" fill="black"/>
<path d="M65.375 38.75C65.375 32.478 60.272 27.375 54 27.375C47.728 27.375 42.625 32.478 42.625 38.75C42.625 45.022 47.728 50.125 54 50.125C60.272 50.125 65.375 45.022 65.375 38.75ZM44.375 38.75C44.375 33.4431 48.6931 29.125 54 29.125C59.3069 29.125 63.625 33.4431 63.625 38.75C63.625 44.0569 59.3069 48.375 54 48.375C48.6931 48.375 44.375 44.0569 44.375 38.75Z" fill="black"/>
<path d="M46.125 36.125V38.75C46.125 39.2339 46.5161 39.625 47 39.625H48.75V40.5H46.125V42.25H49.625C50.1089 42.25 50.5 41.8589 50.5 41.375V38.75C50.5 38.2661 50.1089 37.875 49.625 37.875H47.875V37H50.5V35.25H47C46.5161 35.25 46.125 35.6411 46.125 36.125Z" fill="black"/>
<path d="M55.75 40.5H53.125V39.625H54.875V37.875H53.125V37H55.75V35.25H52.25C51.7661 35.25 51.375 35.6411 51.375 36.125V41.375C51.375 41.8589 51.7661 42.25 52.25 42.25H55.75V40.5Z" fill="black"/>
<path d="M57.5 42.25H61C61.4839 42.25 61.875 41.8589 61.875 41.375V36.125C61.875 35.6411 61.4839 35.25 61 35.25H57.5C57.0161 35.25 56.625 35.6411 56.625 36.125V41.375C56.625 41.8589 57.0161 42.25 57.5 42.25ZM58.375 37H60.125V40.5H58.375V37Z" fill="black"/>
</g>
<defs>
<clipPath id="clip0_1851_188">
<rect width="56" height="56" fill="white" transform="translate(26 23)"/>
</clipPath>
</defs>
</svg>
