<svg width="512" height="512" viewBox="0 0 512 512" fill="none" xmlns="http://www.w3.org/2000/svg">
<path d="M107.54 199.491C110.254 199.491 112.906 198.686 115.163 197.179C117.419 195.671 119.178 193.528 120.216 191.021C121.254 188.514 121.526 185.756 120.997 183.094C120.467 180.433 119.161 177.988 117.242 176.069C115.323 174.151 112.878 172.844 110.217 172.314C107.556 171.785 104.797 172.057 102.29 173.095C99.7829 174.134 97.6401 175.892 96.1326 178.148C94.625 180.405 93.8203 183.057 93.8203 185.771C93.8203 189.41 95.2658 192.899 97.8388 195.472C100.412 198.045 103.902 199.491 107.54 199.491Z" fill="url(#paint0_linear_1794_511)"/>
<path d="M226.4 172.051C223.686 172.051 221.034 172.855 218.777 174.363C216.521 175.871 214.763 178.013 213.724 180.52C212.686 183.027 212.414 185.786 212.943 188.447C213.473 191.109 214.779 193.554 216.698 195.472C218.617 197.391 221.062 198.698 223.723 199.227C226.384 199.757 229.143 199.485 231.65 198.446C234.157 197.408 236.3 195.649 237.807 193.393C239.315 191.137 240.12 188.484 240.12 185.771C240.121 183.969 239.767 182.184 239.078 180.519C238.389 178.854 237.378 177.341 236.104 176.066C234.83 174.792 233.317 173.782 231.652 173.092C229.986 172.403 228.202 172.049 226.4 172.051Z" fill="url(#paint1_linear_1794_511)"/>
<path d="M457.79 254C457.79 253.8 457.63 253.63 457.58 253.43C457.47 253.049 457.329 252.678 457.16 252.32C456.919 251.755 456.607 251.224 456.23 250.74C456.12 250.59 456.08 250.41 455.96 250.27C455.84 250.13 455.72 250.12 455.61 250.02C455.046 249.451 454.39 248.981 453.67 248.63C453.567 248.567 453.46 248.51 453.35 248.46C452.558 248.114 451.704 247.934 450.84 247.93C450.71 247.93 450.59 247.85 450.45 247.85H425.72V211.85C425.808 205.973 424.727 200.137 422.539 194.682C420.351 189.227 417.1 184.261 412.976 180.074C408.851 175.887 403.935 172.562 398.513 170.292C393.092 168.023 387.273 166.854 381.395 166.854C375.518 166.854 369.699 168.023 364.277 170.292C358.855 172.562 353.939 175.887 349.815 180.074C345.69 184.261 342.439 189.227 340.251 194.682C338.063 200.137 336.982 205.973 337.07 211.85V247.85H317.69L299.46 144C299.394 143.796 299.317 143.595 299.23 143.4C299.131 143.056 299.004 142.722 298.85 142.4C298.591 141.808 298.254 141.253 297.85 140.75C297.74 140.61 297.7 140.43 297.58 140.3C297.46 140.17 297.36 140.17 297.27 140.07C296.74 139.55 296.133 139.114 295.47 138.78C295.27 138.68 295.1 138.55 294.9 138.47C294.188 138.2 293.44 138.042 292.68 138C292.483 137.946 292.282 137.902 292.08 137.87H233.86V127.52C233.645 109.92 226.502 93.1135 213.981 80.7438C201.459 68.3741 184.566 61.4375 166.965 61.4375C149.364 61.4375 132.472 68.3741 119.95 80.7438C107.428 93.1135 100.285 109.92 100.07 127.52V137.78H55.0002C53.1383 137.782 51.3443 138.479 49.9699 139.735C48.5955 140.991 47.7396 142.715 47.5702 144.57L20.5702 443.24C20.474 444.272 20.5947 445.314 20.9247 446.297C21.2546 447.28 21.7865 448.183 22.4861 448.949C23.1857 449.714 24.0377 450.325 24.9872 450.742C25.9368 451.159 26.9631 451.373 28.0002 451.37H484C485.09 451.372 486.168 451.135 487.157 450.675C488.145 450.215 489.021 449.544 489.721 448.708C490.421 447.872 490.929 446.893 491.209 445.839C491.489 444.785 491.534 443.683 491.34 442.61L457.79 254ZM352 211.85C352 204.05 355.099 196.569 360.614 191.054C366.13 185.538 373.61 182.44 381.41 182.44C389.21 182.44 396.691 185.538 402.206 191.054C407.722 196.569 410.82 204.05 410.82 211.85V247.85H352V211.85ZM442.29 262.74L426.56 436.46H350.8L320.31 262.74H442.29ZM115 127.52C115 113.728 120.479 100.502 130.231 90.75C139.982 80.9981 153.209 75.5196 167 75.5196C180.791 75.5196 194.018 80.9981 203.77 90.75C213.522 100.502 219 113.728 219 127.52V137.78H115V127.52ZM61.8602 152.7H283.94L258.26 436.46H36.1802L61.8602 152.7ZM294.47 201.85L335.65 436.46H273.24L294.47 201.85ZM441.59 436.46L452.87 311.46L475.09 436.46H441.59Z" fill="url(#paint2_linear_1794_511)"/>
<path d="M118.65 331.09C119.375 330.278 119.777 329.229 119.78 328.14C119.777 327.068 119.45 326.022 118.84 325.14C118.168 324.146 117.154 323.434 115.99 323.14L115.06 323.08L108 301.59C106.467 297.004 105.1 292.824 103.9 289.05C102.63 285.14 101.45 281.93 100.28 279.27C99.3357 276.93 98.092 274.721 96.5801 272.7C93.5801 268.98 89.5801 268.85 86.4501 272.7C84.8924 274.745 83.5957 276.975 82.5901 279.34C81.3401 282.12 80.0701 285.34 78.8001 289.03C77.5301 292.72 76.1701 296.76 74.8001 301.18L59.4301 348.74L59.3401 349.79C59.3109 350.43 59.4355 351.067 59.7035 351.648C59.9714 352.229 60.3749 352.737 60.8801 353.13C61.7388 353.792 62.796 354.145 63.8801 354.13C64.9433 354.099 65.9814 353.8 66.8989 353.262C67.8164 352.723 68.5836 351.963 69.1301 351.05L74.9301 332.48H107.16L111.92 351C112.317 351.892 112.973 352.644 113.802 353.159C114.631 353.674 115.595 353.929 116.57 353.89C119.69 353.89 121.71 352.11 121.97 349.13V348.79L117.44 332C117.901 331.782 118.312 331.472 118.65 331.09ZM103.53 322.25H78.5301L87.3701 295.8L91.1201 285.05C91.4501 286.05 91.8201 287.17 92.2301 288.38C93.0301 290.82 93.9601 293.56 95.0101 296.58C96.0601 299.6 97.0101 302.47 98.2201 305.93L101.42 315.64C102.187 317.954 102.89 320.157 103.53 322.25Z" fill="url(#paint3_linear_1794_511)"/>
<path d="M188.94 342C188.61 338.78 188.38 335.35 188.23 331.72C188.08 328.09 187.96 324.03 187.89 319.61C187.83 318.1 187.79 316.53 187.79 314.89V309.61C187.79 302.61 187.94 294.61 188.23 285.61C188.52 276.61 189.02 266.87 189.79 255.55V255.26L189.72 254.98C189.465 253.65 188.701 252.473 187.59 251.7C186.612 251.059 185.46 250.738 184.292 250.781C183.124 250.824 181.998 251.229 181.07 251.94C180.482 252.349 179.995 252.889 179.649 253.517C179.302 254.144 179.104 254.843 179.07 255.56C178.62 261.19 178.27 266.18 177.99 270.56C177.71 274.94 177.55 278.72 177.43 281.98L177.14 288.87C176.973 292.83 176.847 295.916 176.76 298.13C176.238 297.789 175.697 297.479 175.14 297.2C173.612 296.444 172.015 295.837 170.37 295.39C168.601 294.931 166.808 294.567 165 294.3C163.174 294.028 161.335 293.861 159.49 293.8C155.7 293.626 151.912 294.179 148.33 295.43C144.692 296.658 141.35 298.634 138.52 301.23C135.543 304.018 133.186 307.401 131.6 311.16C129.783 315.599 128.898 320.364 129 325.16C128.975 327.937 129.284 330.707 129.92 333.41C130.477 335.767 131.338 338.043 132.48 340.18C133.512 342.098 134.749 343.899 136.17 345.55C137.503 347.083 138.999 348.468 140.63 349.68C142.155 350.752 143.779 351.677 145.48 352.44C147.069 353.16 148.706 353.768 150.38 354.26C151.909 354.71 153.471 355.044 155.05 355.26C156.1 355.406 157.159 355.483 158.22 355.49H159.28C162.909 355.159 166.476 354.332 169.88 353.03C173.262 351.733 176.431 349.937 179.28 347.7C179.818 348.614 180.455 349.466 181.18 350.24C182.144 351.375 183.223 352.407 184.4 353.32C184.959 353.706 185.588 353.978 186.253 354.119C186.917 354.259 187.603 354.266 188.27 354.14C189.043 354.057 189.791 353.813 190.464 353.424C191.138 353.034 191.722 352.508 192.18 351.88C193.01 350.78 193.57 348.88 191.45 345.79C189.22 342.9 189 342.1 188.94 342ZM177.27 330.64C177.064 332.711 176.407 334.712 175.345 336.502C174.282 338.292 172.84 339.827 171.12 341C169.345 342.222 167.388 343.153 165.32 343.76C161.442 345.036 157.258 345.036 153.38 343.76C151.074 343.105 148.906 342.037 146.98 340.61C144.575 338.834 142.65 336.487 141.379 333.781C140.108 331.075 139.531 328.095 139.7 325.11C139.618 321.921 140.19 318.749 141.38 315.79C142.367 313.4 143.858 311.251 145.75 309.49C147.553 307.853 149.678 306.613 151.99 305.85C154.378 305.049 156.881 304.644 159.4 304.65C162.934 304.743 166.413 305.545 169.63 307.01C171.184 307.614 172.619 308.487 173.87 309.59C175.055 310.654 176.109 311.856 177.01 313.17L177.12 315.83C177.12 316.64 177.19 318.61 177.25 321.7V322.93C177.323 326.676 177.33 329.256 177.27 330.67V330.64Z" fill="url(#paint4_linear_1794_511)"/>
<path d="M230.59 322.6C228.04 321.095 225.325 319.887 222.5 319C219.79 318.15 217.27 317.27 214.91 316.36C212.955 315.648 211.107 314.668 209.42 313.45C208.893 313.071 208.469 312.566 208.188 311.981C207.906 311.395 207.776 310.749 207.81 310.1C207.84 309.426 207.937 308.756 208.1 308.1C208.321 307.25 208.712 306.454 209.25 305.76C209.983 304.861 210.896 304.126 211.93 303.6C213.448 302.906 215.113 302.591 216.78 302.68C219.87 302.68 222.22 303.13 223.78 304.01C225.105 304.707 226.246 305.708 227.11 306.93C227.694 307.77 228.071 308.737 228.21 309.75C228.29 310.75 228.34 311.29 228.35 311.47L228.4 311.88C228.62 313.094 229.19 314.217 230.04 315.11C231.051 315.952 232.347 316.375 233.66 316.29C237.05 316.29 239.07 314.34 239.07 311.07C239.09 308.454 238.587 305.859 237.59 303.44C236.599 301.107 235.111 299.019 233.23 297.32C231.232 295.549 228.904 294.189 226.38 293.32C223.508 292.365 220.496 291.895 217.47 291.93C213.941 291.805 210.433 292.514 207.23 294C204.8 295.184 202.662 296.892 200.97 299C199.545 300.769 198.497 302.811 197.89 305C197.427 306.652 197.168 308.355 197.12 310.07C196.971 313.298 197.942 316.477 199.87 319.07C201.655 321.27 203.883 323.069 206.41 324.35C208.982 325.678 211.678 326.75 214.46 327.55C217.021 328.292 219.538 329.177 222 330.2C223.977 330.984 225.793 332.122 227.36 333.56C227.97 334.183 228.443 334.926 228.748 335.742C229.053 336.559 229.183 337.43 229.13 338.3C229.091 338.859 228.938 339.403 228.68 339.9C228.299 340.664 227.768 341.344 227.12 341.9C226.2 342.668 225.145 343.258 224.01 343.64C220.751 344.608 217.287 344.642 214.01 343.74C212.935 343.382 211.935 342.83 211.06 342.11C210.325 341.488 209.691 340.756 209.18 339.94C208.69 339.1 208.18 338.26 207.75 337.42C207.17 336.037 206.484 334.699 205.7 333.42C205.192 332.546 204.437 331.841 203.529 331.396C202.621 330.951 201.602 330.786 200.6 330.92C198.6 331.15 197.44 331.59 196.72 332.31C195.839 333.398 195.416 334.786 195.54 336.18C195.578 338.601 196.232 340.972 197.44 343.07C198.747 345.371 200.473 347.406 202.53 349.07C204.744 350.871 207.219 352.324 209.87 353.38C212.763 354.539 215.854 355.123 218.97 355.1C221.994 355.155 225.002 354.66 227.85 353.64C230.248 352.777 232.464 351.471 234.38 349.79C236.067 348.278 237.428 346.437 238.38 344.38C239.264 342.475 239.728 340.401 239.74 338.3C239.881 334.846 238.941 331.434 237.05 328.54C235.341 326.126 233.139 324.101 230.59 322.6Z" fill="url(#paint5_linear_1794_511)"/>
<defs>
<linearGradient id="paint0_linear_1794_511" x1="107.54" y1="172.051" x2="107.54" y2="199.491" gradientUnits="userSpaceOnUse">
<stop stop-color="#F7CE30"/>
<stop offset="1" stop-color="#10589A"/>
</linearGradient>
<linearGradient id="paint1_linear_1794_511" x1="226.4" y1="172.051" x2="226.4" y2="199.491" gradientUnits="userSpaceOnUse">
<stop stop-color="#F7CE30"/>
<stop offset="1" stop-color="#10589A"/>
</linearGradient>
<linearGradient id="paint2_linear_1794_511" x1="255.998" y1="61.4375" x2="255.998" y2="451.37" gradientUnits="userSpaceOnUse">
<stop stop-color="#F7CE30"/>
<stop offset="1" stop-color="#10589A"/>
</linearGradient>
<linearGradient id="paint3_linear_1794_511" x1="90.653" y1="269.861" x2="90.653" y2="354.131" gradientUnits="userSpaceOnUse">
<stop stop-color="#F7CE30"/>
<stop offset="1" stop-color="#10589A"/>
</linearGradient>
<linearGradient id="paint4_linear_1794_511" x1="160.957" y1="250.777" x2="160.957" y2="355.49" gradientUnits="userSpaceOnUse">
<stop stop-color="#F7CE30"/>
<stop offset="1" stop-color="#10589A"/>
</linearGradient>
<linearGradient id="paint5_linear_1794_511" x1="217.636" y1="291.916" x2="217.636" y2="355.104" gradientUnits="userSpaceOnUse">
<stop stop-color="#F7CE30"/>
<stop offset="1" stop-color="#10589A"/>
</linearGradient>
</defs>
</svg>
