<svg width="100" height="100" viewBox="0 0 100 100" fill="none" xmlns="http://www.w3.org/2000/svg">
<path d="M95.9845 70.3433L78.3126 52.6715C77.4337 51.7937 76.2423 51.3006 75.0001 51.3006C73.7579 51.3006 72.5665 51.7937 71.6876 52.6715L58.422 65.9371L43.7501 61.359V57.484C46.33 56.1616 48.5345 54.2096 50.1596 51.8089C51.7847 49.4081 52.7778 46.6361 53.047 43.7496H53.1251C54.7827 43.7496 56.3724 43.0911 57.5445 41.919C58.7166 40.7469 59.3751 39.1572 59.3751 37.4996C59.3751 35.842 58.7166 34.2523 57.5445 33.0802C56.3724 31.9081 54.7827 31.2496 53.1251 31.2496H54.6876C55.5156 31.2471 56.3091 30.9171 56.8946 30.3316C57.4801 29.7461 57.8101 28.9526 57.8126 28.1246V24.9996C57.8101 24.1716 57.4801 23.3781 56.8946 22.7926C56.3091 22.2071 55.5156 21.8771 54.6876 21.8746H54.6095C54.258 17.8701 52.5039 14.1183 49.6564 11.2808C48.5887 10.223 47.3918 9.30429 46.0939 8.54647C44.3367 7.54263 42.4169 6.85511 40.422 6.51522C40.1454 5.53905 39.5578 4.6798 38.7484 4.06794C37.9391 3.45607 36.9522 3.125 35.9376 3.125C34.923 3.125 33.9361 3.45607 33.1268 4.06794C32.3174 4.6798 31.7298 5.53905 31.4532 6.51522C27.7232 7.14016 24.3072 8.9889 21.744 11.7699C19.1808 14.551 17.6163 18.106 17.297 21.8746H17.1876C16.3596 21.8771 15.5661 22.2071 14.9806 22.7926C14.3951 23.3781 14.0651 24.1716 14.0626 24.9996V28.1246C14.0651 28.9526 14.3951 29.7461 14.9806 30.3316C15.5661 30.9171 16.3596 31.2471 17.1876 31.2496H18.7501C17.0925 31.2496 15.5028 31.9081 14.3307 33.0802C13.1586 34.2523 12.5001 35.842 12.5001 37.4996C12.5001 39.1572 13.1586 40.7469 14.3307 41.919C15.5028 43.0911 17.0925 43.7496 18.7501 43.7496H18.8282C19.0974 46.6361 20.0905 49.4081 21.7156 51.8089C23.3407 54.2096 25.5452 56.1616 28.1251 57.484V61.359L12.9845 66.0933C10.1206 66.9751 7.61618 68.7543 5.84085 71.1683C4.06553 73.5823 3.11343 76.5031 3.12511 79.4996V95.3121C3.12511 95.7265 3.28973 96.1239 3.58275 96.417C3.87578 96.71 4.27321 96.8746 4.68761 96.8746H85.9376C86.7656 96.8721 87.5591 96.5421 88.1446 95.9566C88.7301 95.3711 89.0601 94.5776 89.0626 93.7496V76.6715L89.3595 76.9683C89.7929 77.4056 90.309 77.7524 90.8777 77.9884C91.4464 78.2245 92.0563 78.3451 92.672 78.3433C93.9152 78.3433 95.1075 77.8495 95.9865 76.9704C96.8656 76.0913 97.3595 74.899 97.3595 73.6558C97.3613 73.0401 97.2406 72.4302 97.0046 71.8615C96.7685 71.2929 96.4218 70.7768 95.9845 70.3433ZM18.7501 40.6246C17.9232 40.6185 17.1319 40.2873 16.5472 39.7025C15.9624 39.1178 15.6312 38.3265 15.6251 37.4996C15.6276 36.6716 15.9576 35.8781 16.5431 35.2926C17.1286 34.7071 17.9221 34.3771 18.7501 34.3746V40.6246ZM56.2501 37.4996C56.244 38.3265 55.9128 39.1178 55.328 39.7025C54.7433 40.2873 53.952 40.6185 53.1251 40.6246V34.3746C53.9531 34.3771 54.7466 34.7071 55.3321 35.2926C55.9176 35.8781 56.2476 36.6716 56.2501 37.4996ZM40.6251 9.73397C41.7075 9.98455 42.7564 10.3622 43.7501 10.859V18.7496H46.8751V12.9996C47.0626 13.1715 47.2657 13.3121 47.4376 13.4996C49.7037 15.747 51.1319 18.7026 51.4845 21.8746H40.6251V9.73397ZM34.3751 7.8121C34.3751 7.3977 34.5397 7.00027 34.8328 6.70724C35.1258 6.41422 35.5232 6.2496 35.9376 6.2496C36.352 6.2496 36.7494 6.41422 37.0425 6.70724C37.3355 7.00027 37.5001 7.3977 37.5001 7.8121V21.8746H34.3751V7.8121ZM25.0001 12.984V18.7496H28.1251V10.859C29.1199 10.3646 30.1685 9.98709 31.2501 9.73397V21.8746H20.4064C20.7957 18.448 22.4305 15.284 25.0001 12.984ZM17.1876 28.1246V24.9996H54.6876V28.1246H17.1876ZM21.8751 42.1871V31.2496H50.0001V42.1871C50.0001 45.9167 48.5185 49.4936 45.8813 52.1308C43.2441 54.768 39.6672 56.2496 35.9376 56.2496C32.208 56.2496 28.6311 54.768 25.9939 52.1308C23.3567 49.4936 21.8751 45.9167 21.8751 42.1871ZM40.6251 58.7027V62.4996C40.6251 63.7428 40.1312 64.9351 39.2522 65.8142C38.3731 66.6932 37.1808 67.1871 35.9376 67.1871C34.6944 67.1871 33.5021 66.6932 32.623 65.8142C31.744 64.9351 31.2501 63.7428 31.2501 62.4996V58.7027C34.3109 59.5986 37.5643 59.5986 40.6251 58.7027ZM26.5626 65.109L28.422 64.5308C28.8624 66.1879 29.8381 67.6529 31.1973 68.6981C32.5565 69.7432 34.223 70.3098 35.9376 70.3098C37.6522 70.3098 39.3187 69.7432 40.6779 68.6981C42.0371 67.6529 43.0128 66.1879 43.4532 64.5308L45.3126 65.109V73.4371C45.3089 74.6792 44.8138 75.8693 43.9356 76.7476C43.0573 77.6258 41.8672 78.1209 40.6251 78.1246H31.2501C30.008 78.1209 28.8179 77.6258 27.9396 76.7476C27.0614 75.8693 26.5663 74.6792 26.5626 73.4371V65.109ZM15.6251 93.7496H6.25011V79.4996C6.24147 77.1674 6.98241 74.8941 8.36369 73.0149C9.74496 71.1356 11.6935 69.75 13.922 69.0621L15.6251 68.5308V93.7496ZM34.3751 93.7496H18.7501V87.4996H34.3751V93.7496ZM34.3751 84.3746H18.7501V67.5621L23.4376 66.0933V73.4371C23.4376 75.5091 24.2607 77.4962 25.7258 78.9614C27.191 80.4265 29.1781 81.2496 31.2501 81.2496H34.3751V84.3746ZM53.1251 93.7496H37.5001V87.4996H53.1251V93.7496ZM53.1251 71.609C52.8091 72.2452 52.6433 72.9455 52.6407 73.6558C52.6397 74.3666 52.8056 75.0678 53.1251 75.7027V84.3746H37.5001V81.2496H40.6251C42.6971 81.2496 44.6843 80.4265 46.1494 78.9614C47.6145 77.4962 48.4376 75.5091 48.4376 73.4371V66.0933L53.1251 67.5621V71.609ZM60.9376 93.7496H56.2501V78.1715C57.0242 78.3537 57.8316 78.3391 58.5986 78.1289C59.3656 77.9187 60.0677 77.5197 60.6407 76.9683L60.9376 76.6715V93.7496ZM78.1251 93.7496H71.8751V85.9371H78.1251V93.7496ZM85.9376 93.7496H81.2501V84.3746C81.2501 83.9602 81.0855 83.5628 80.7925 83.2697C80.4994 82.9767 80.102 82.8121 79.6876 82.8121H70.3126C69.8982 82.8121 69.5008 82.9767 69.2078 83.2697C68.9147 83.5628 68.7501 83.9602 68.7501 84.3746V93.7496H64.0626V73.5465L75.0001 62.609L85.9376 73.5465V93.7496ZM93.7814 74.7652C93.4859 75.051 93.0909 75.2108 92.6798 75.2108C92.2687 75.2108 91.8737 75.051 91.5782 74.7652L76.1095 59.2965C75.8133 59.006 75.415 58.8433 75.0001 58.8433C74.5852 58.8433 74.1869 59.006 73.8907 59.2965L58.422 74.7652C58.1265 75.051 57.7315 75.2108 57.3204 75.2108C56.9093 75.2108 56.5143 75.051 56.2189 74.7652C56.0733 74.6197 55.9583 74.4467 55.8805 74.2562C55.8027 74.0657 55.7637 73.8616 55.7657 73.6558C55.7637 73.4524 55.8028 73.2507 55.8807 73.0627C55.9586 72.8748 56.0736 72.7045 56.2189 72.5621L73.8907 54.8746C74.1857 54.5819 74.5845 54.4176 75.0001 54.4176C75.4157 54.4176 75.8145 54.5819 76.1095 54.8746L93.7814 72.5621C93.9266 72.7045 94.0416 72.8748 94.1195 73.0627C94.1974 73.2507 94.2365 73.4524 94.2345 73.6558C94.2365 73.8616 94.1975 74.0657 94.1197 74.2562C94.0419 74.4467 93.9269 74.6197 93.7814 74.7652Z" fill="black"/>
<path d="M70.3125 73.4375C70.3125 74.3646 70.5874 75.2709 71.1025 76.0417C71.6176 76.8126 72.3496 77.4134 73.2062 77.7682C74.0627 78.123 75.0052 78.2158 75.9145 78.0349C76.8238 77.8541 77.659 77.4076 78.3146 76.7521C78.9701 76.0965 79.4166 75.2613 79.5974 74.352C79.7783 73.4427 79.6855 72.5002 79.3307 71.6437C78.9759 70.7871 78.3751 70.0551 77.6042 69.54C76.8334 69.0249 75.9271 68.75 75 68.75C73.7568 68.75 72.5645 69.2439 71.6854 70.1229C70.8064 71.002 70.3125 72.1943 70.3125 73.4375ZM76.5625 73.4375C76.5625 73.7465 76.4709 74.0486 76.2992 74.3056C76.1275 74.5625 75.8835 74.7628 75.5979 74.8811C75.3124 74.9993 74.9983 75.0303 74.6952 74.97C74.3921 74.9097 74.1137 74.7609 73.8951 74.5424C73.6766 74.3238 73.5278 74.0454 73.4675 73.7423C73.4072 73.4392 73.4382 73.1251 73.5564 72.8396C73.6747 72.554 73.875 72.31 74.1319 72.1383C74.3889 71.9666 74.691 71.875 75 71.875C75.4144 71.875 75.8118 72.0396 76.1049 72.3326C76.3979 72.6257 76.5625 73.0231 76.5625 73.4375Z" fill="black"/>
<path d="M29.6875 40.625C31.4134 40.625 32.8125 39.2259 32.8125 37.5C32.8125 35.7741 31.4134 34.375 29.6875 34.375C27.9616 34.375 26.5625 35.7741 26.5625 37.5C26.5625 39.2259 27.9616 40.625 29.6875 40.625Z" fill="black"/>
<path d="M42.1875 40.625C43.9134 40.625 45.3125 39.2259 45.3125 37.5C45.3125 35.7741 43.9134 34.375 42.1875 34.375C40.4616 34.375 39.0625 35.7741 39.0625 37.5C39.0625 39.2259 40.4616 40.625 42.1875 40.625Z" fill="black"/>
<path d="M41.1031 48.0469L39.0328 45.7031C38.1662 46.4348 37.0686 46.8361 35.9344 46.8361C34.8002 46.8361 33.7026 46.4348 32.8359 45.7031L30.7656 48.0469C32.1929 49.3062 34.0309 50.0011 35.9344 50.0011C37.8378 50.0011 39.6758 49.3062 41.1031 48.0469Z" fill="black"/>
</svg>
