<svg width="80" height="80" viewBox="0 0 80 80" fill="none" xmlns="http://www.w3.org/2000/svg">
<path d="M31.875 37.5149V37.5H19.375V37.5149C14.8763 37.595 10.5885 39.4367 7.43307 42.6443C4.27765 45.8518 2.50642 50.1692 2.5 54.6686V76.25C2.5 76.5815 2.6317 76.8995 2.86612 77.1339C3.10054 77.3683 3.41848 77.5 3.75 77.5H47.5C47.8315 77.5 48.1495 77.3683 48.3839 77.1339C48.6183 76.8995 48.75 76.5815 48.75 76.25V54.6686C48.7436 50.1692 46.9724 45.8518 43.817 42.6442C40.6615 39.4367 36.3737 37.595 31.875 37.5149ZM21.875 40H29.375V45.625C29.375 46.6196 28.9799 47.5734 28.2767 48.2766C27.5734 48.9799 26.6196 49.375 25.625 49.375C24.6304 49.375 23.6766 48.9799 22.9733 48.2766C22.2701 47.5734 21.875 46.6196 21.875 45.625V40ZM12.5 75H5V61.0082H12.5V75ZM12.5 58.5082H5V54.6686C5.00267 52.0637 5.69881 49.5065 7.01691 47.2597C8.335 45.0128 10.2275 43.1575 12.5 41.8841V58.5082ZM30.625 75H20.625V61.0082H30.625V75ZM36.25 58.5082V75H33.125V59.7582C33.125 59.4267 32.9933 59.1088 32.7589 58.8744C32.5245 58.6399 32.2065 58.5082 31.875 58.5082H19.375C19.0435 58.5082 18.7255 58.6399 18.4911 58.8744C18.2567 59.1088 18.125 59.4267 18.125 59.7582V75H15V40.775C16.411 40.2998 17.8864 40.0435 19.375 40.015V45.625C19.375 47.2826 20.0335 48.8723 21.2056 50.0444C22.3777 51.2165 23.9674 51.875 25.625 51.875C27.2826 51.875 28.8723 51.2165 30.0444 50.0444C31.2165 48.8723 31.875 47.2826 31.875 45.625V40.0149C33.3636 40.0435 34.839 40.2998 36.25 40.775V58.5082ZM46.25 75H38.75V61.0082H46.25V75ZM46.25 58.5082H38.75V41.8832C41.0225 43.1566 42.9151 45.012 44.2332 47.2589C45.5512 49.5058 46.2474 52.063 46.25 54.668V58.5082Z" fill="black"/>
<path d="M69.3198 35.0452C69.109 34.9515 68.8764 34.918 68.6478 34.9484C68.4192 34.9787 68.2034 35.0717 68.0243 35.2171C67.8453 35.3625 67.7099 35.5546 67.6333 35.7721C67.5566 35.9897 67.5417 36.2242 67.5901 36.4497C67.6059 36.52 67.6141 36.5918 67.6144 36.6639V45.7551C67.6141 46.0262 67.5062 46.2861 67.3144 46.4778C67.1226 46.6695 66.8626 46.7772 66.5914 46.7774H60.9097C60.6386 46.7772 60.3786 46.6694 60.1868 46.4778C59.9951 46.2861 59.8872 46.0262 59.8868 45.7551V36.6639C59.8874 36.5918 59.8957 36.52 59.9118 36.4497C59.9602 36.2242 59.9452 35.9897 59.8686 35.7721C59.7919 35.5546 59.6566 35.3625 59.4775 35.2171C59.2985 35.0717 59.0827 34.9787 58.8541 34.9484C58.6254 34.918 58.3928 34.9515 58.1821 35.0452C56.0278 35.9969 54.1546 37.4868 52.7425 39.3716C51.3304 41.2564 50.4269 43.4728 50.1189 45.8076C49.8109 48.1425 50.1087 50.5173 50.9836 52.7039C51.8586 54.8904 53.2813 56.8151 55.1151 58.2929V76.2507C55.1151 76.5822 55.2468 76.9001 55.4812 77.1346C55.7156 77.369 56.0335 77.5007 56.3651 77.5007H71.1368C71.4683 77.5007 71.7863 77.369 72.0207 77.1346C72.2551 76.9001 72.3868 76.5822 72.3868 76.2507V58.2929C74.2204 56.815 75.6429 54.8903 76.5178 52.7038C77.3927 50.5173 77.6904 48.1425 77.3824 45.8077C77.0743 43.4729 76.1709 41.2566 74.759 39.3718C73.347 37.4869 71.4739 35.997 69.3198 35.0452ZM70.3964 56.6718C70.2384 56.7879 70.11 56.9396 70.0215 57.1146C69.9329 57.2895 69.8868 57.4829 69.8868 57.6789V75.0007H57.6144V57.6789C57.6144 57.4829 57.5683 57.2895 57.4798 57.1146C57.3912 56.9396 57.2628 56.7879 57.1048 56.6718C55.6545 55.6125 54.4796 54.2206 53.6786 52.6132C52.8776 51.0057 52.474 49.2296 52.5017 47.4338C52.5293 45.6381 52.9873 43.8752 53.8374 42.2931C54.6874 40.711 55.9046 39.356 57.3868 38.3418V45.7551C57.3879 46.689 57.7594 47.5844 58.4199 48.2447C59.0803 48.9051 59.9757 49.2765 60.9097 49.2774H66.5914C67.5254 49.2765 68.4208 48.9051 69.0813 48.2447C69.7418 47.5844 70.1133 46.689 70.1144 45.7551V38.3418C71.6192 39.375 72.8503 40.7587 73.7014 42.3735C74.5526 43.9883 74.9983 45.7858 75.0003 47.6112C75.0062 49.3783 74.5918 51.1214 73.7913 52.6968C72.9908 54.2722 71.8272 55.6347 70.3964 56.6718Z" fill="black"/>
<path d="M63.75 31.6672C66.2356 31.6644 68.6186 30.6758 70.3761 28.9183C72.1337 27.1607 73.1223 24.7777 73.125 22.2922C73.125 17.4655 65.5444 8.87965 64.6801 7.9159C64.5598 7.79058 64.4154 7.69087 64.2555 7.62276C64.0957 7.55464 63.9237 7.51953 63.75 7.51953C63.5763 7.51953 63.4043 7.55464 63.2445 7.62276C63.0846 7.69087 62.9402 7.79058 62.8199 7.9159C61.9556 8.87903 54.375 17.4659 54.375 22.2922C54.3777 24.7777 55.3663 27.1607 57.1239 28.9183C58.8814 30.6758 61.2644 31.6644 63.75 31.6672ZM63.75 10.6547C66.7285 14.1722 70.625 19.6574 70.625 22.2922C70.625 24.1155 69.9007 25.8642 68.6114 27.1535C67.322 28.4428 65.5734 29.1672 63.75 29.1672C61.9266 29.1672 60.178 28.4428 58.8886 27.1535C57.5993 25.8642 56.875 24.1155 56.875 22.2922C56.875 19.6603 60.7721 14.174 63.75 10.6547Z" fill="black"/>
<path d="M10.0645 18.1255H11.876V22.5005C11.876 26.1473 13.3246 29.6446 15.9032 32.2233C18.4819 34.8019 21.9792 36.2505 25.626 36.2505C29.2727 36.2505 32.77 34.8019 35.3487 32.2233C37.9273 29.6446 39.376 26.1473 39.376 22.5005V18.1255H46.3145C46.646 18.1255 46.9639 17.9938 47.1983 17.7594C47.4328 17.525 47.5645 17.2071 47.5645 16.8755C47.5645 16.544 47.4328 16.2261 47.1983 15.9917C46.9639 15.7572 46.646 15.6255 46.3145 15.6255H41.0285C40.4398 11.9644 38.5663 8.63272 35.7438 6.22778C32.9213 3.82284 29.3344 2.50195 25.6263 2.50195C21.9181 2.50195 18.3313 3.82284 15.5088 6.22778C12.6863 8.63272 10.8127 11.9644 10.2241 15.6255H10.0645C9.73293 15.6255 9.41499 15.7572 9.18057 15.9917C8.94615 16.2261 8.81445 16.544 8.81445 16.8755C8.81445 17.2071 8.94615 17.525 9.18057 17.7594C9.41499 17.9938 9.73293 18.1255 10.0645 18.1255ZM36.876 22.5005C36.876 25.4842 35.6907 28.3457 33.5809 30.4555C31.4711 32.5653 28.6096 33.7505 25.626 33.7505C22.6423 33.7505 19.7808 32.5653 17.671 30.4555C15.5612 28.3457 14.376 25.4842 14.376 22.5005V18.1255H36.876V22.5005ZM25.626 5.00054C28.6672 5.01903 31.609 6.08615 33.9548 8.0218C36.3006 9.95745 37.9068 12.6431 38.5023 15.6255H12.7501C13.3456 12.6432 14.9517 9.9576 17.2974 8.02196C19.6431 6.08632 22.5848 5.01915 25.626 5.00054Z" fill="black"/>
</svg>
