<svg width="105" height="105" viewBox="0 0 105 105" fill="none" xmlns="http://www.w3.org/2000/svg">
<path d="M41.9062 101.198H10.9062C9.30625 101.198 7.90625 99.8977 7.90625 98.1977V80.0977C7.90625 79.8977 8.00625 79.6977 8.10625 79.5977L25.8062 61.6977C26.1062 61.3977 26.6062 61.3977 26.9062 61.6977L44.6062 79.5977C44.7062 79.6977 44.8062 79.8977 44.8062 80.0977V98.2977C44.9062 99.7977 43.6063 101.198 41.9062 101.198ZM9.50625 80.3977V98.1977C9.50625 98.9977 10.2062 99.6977 11.0062 99.6977H42.0062C42.8062 99.6977 43.5062 98.9977 43.5062 98.1977V80.3977L26.5063 63.2977L9.50625 80.3977Z" fill="black"/>
<path d="M22.5063 96.5008H14.4062C13.3062 96.5008 12.4062 95.6008 12.4062 94.5008V84.3008C12.4062 83.2008 13.3062 82.3008 14.4062 82.3008H22.5063C23.6063 82.3008 24.5063 83.2008 24.5063 84.3008V94.5008C24.5063 95.6008 23.6063 96.5008 22.5063 96.5008ZM14.4062 83.8008C14.1062 83.8008 13.9062 84.0008 13.9062 84.3008V94.5008C13.9062 94.8008 14.1062 95.0008 14.4062 95.0008H22.5063C22.8063 95.0008 23.0063 94.8008 23.0063 94.5008V84.3008C23.0063 84.0008 22.8063 83.8008 22.5063 83.8008H14.4062Z" fill="black"/>
<path d="M39.7016 101.198H27.9016C27.5016 101.198 27.1016 100.898 27.1016 100.398V83.9977C27.1016 82.8977 28.0016 82.0977 29.0016 82.0977H38.5016C39.6016 82.0977 40.4016 82.9977 40.4016 83.9977V100.398C40.5016 100.798 40.1016 101.198 39.7016 101.198ZM28.7016 99.6977H39.0016V83.9977C39.0016 83.7977 38.8016 83.5977 38.6016 83.5977H29.1016C28.9016 83.5977 28.7016 83.7977 28.7016 83.9977V99.6977Z" fill="black"/>
<path d="M36.6047 95.2C36.2047 95.2 35.8047 94.9 35.8047 94.4V91.8C35.8047 91.4 36.1047 91 36.6047 91C37.1047 91 37.4047 91.3 37.4047 91.8V94.4C37.4047 94.8 37.0047 95.2 36.6047 95.2Z" fill="black"/>
<path d="M46.1031 81.7992C45.3031 81.7992 44.6031 81.4992 44.0031 80.8992L26.4031 63.1992L8.80313 80.9992C7.70313 82.1992 5.80312 82.1992 4.60312 80.9992C4.00312 80.3992 3.70312 79.6992 3.70312 78.8992C3.70312 78.0992 4.00312 77.3992 4.60312 76.7992L24.3031 56.8992C25.4031 55.7992 27.4031 55.7992 28.5031 56.8992L48.2031 76.7992C49.3031 77.9992 49.3031 79.7992 48.2031 80.9992C47.7031 81.4992 46.9031 81.7992 46.1031 81.7992ZM26.4031 61.3992C26.6031 61.3992 26.8031 61.4992 26.9031 61.5992L45.0031 79.8992C45.5031 80.4992 46.5031 80.4992 47.1031 79.8992C47.7031 79.2992 47.7031 78.3992 47.1031 77.7992L27.5031 57.9992C27.0031 57.4992 25.9031 57.4992 25.4031 57.9992L5.70312 77.8992C5.40312 78.1992 5.30313 78.4992 5.30313 78.8992C5.30313 79.2992 5.50312 79.6992 5.70312 79.8992C6.30312 80.4992 7.20313 80.4992 7.80313 79.8992L25.9031 61.5992C26.0031 61.4992 26.2031 61.3992 26.4031 61.3992Z" fill="black"/>
<path d="M94.1094 101.198H63.1094C61.5094 101.198 60.1094 99.8977 60.1094 98.1977V80.0977C60.1094 79.8977 60.2094 79.6977 60.3094 79.5977L78.0094 61.6977C78.3094 61.3977 78.8094 61.3977 79.1094 61.6977L96.8094 79.5977C96.9094 79.6977 97.0094 79.8977 97.0094 80.0977V98.2977C97.0094 99.7977 95.7094 101.198 94.1094 101.198ZM61.6094 80.3977V98.1977C61.6094 98.9977 62.3094 99.6977 63.1094 99.6977H94.1094C94.9094 99.6977 95.6094 98.9977 95.6094 98.1977V80.3977L78.6094 63.2977L61.6094 80.3977Z" fill="black"/>
<path d="M74.6078 96.5008H66.5078C65.4078 96.5008 64.5078 95.6008 64.5078 94.5008V84.3008C64.5078 83.2008 65.4078 82.3008 66.5078 82.3008H74.6078C75.7078 82.3008 76.6078 83.2008 76.6078 84.3008V94.5008C76.6078 95.6008 75.7078 96.5008 74.6078 96.5008ZM66.5078 83.8008C66.2078 83.8008 66.0078 84.0008 66.0078 84.3008V94.5008C66.0078 94.8008 66.2078 95.0008 66.5078 95.0008H74.6078C74.9078 95.0008 75.1078 94.8008 75.1078 94.5008V84.3008C75.1078 84.0008 74.9078 83.8008 74.6078 83.8008H66.5078Z" fill="black"/>
<path d="M91.9031 101.198H80.0031C79.6031 101.198 79.2031 100.898 79.2031 100.398V83.9977C79.2031 82.8977 80.1031 82.0977 81.1031 82.0977H90.6031C91.7031 82.0977 92.5031 82.9977 92.5031 83.9977V100.398C92.6031 100.798 92.3031 101.198 91.9031 101.198ZM80.8031 99.6977H91.1031V83.9977C91.1031 83.7977 90.9031 83.5977 90.7031 83.5977H81.2031C81.0031 83.5977 80.8031 83.7977 80.8031 83.9977V99.6977Z" fill="black"/>
<path d="M88.8078 95.2C88.4078 95.2 88.0078 94.9 88.0078 94.4V91.8C88.0078 91.4 88.3078 91 88.8078 91C89.3078 91 89.6078 91.3 89.6078 91.8V94.4C89.5078 94.8 89.2078 95.2 88.8078 95.2Z" fill="black"/>
<path d="M96.3094 68.8008C96.1094 68.8008 95.9094 68.7008 95.8094 68.6008L89.2094 62.0008C88.9094 61.7008 88.9094 61.2008 89.2094 60.9008C89.5094 60.6008 90.0094 60.6008 90.3094 60.9008L96.9094 67.5008C97.2094 67.8008 97.2094 68.3008 96.9094 68.6008C96.7094 68.7008 96.5094 68.8008 96.3094 68.8008Z" fill="black"/>
<path d="M87.8094 60.3008C87.6094 60.3008 87.4094 60.2008 87.3094 60.1008L86.2094 59.0008C85.9094 58.7008 85.9094 58.2008 86.2094 57.9008C86.5094 57.6008 87.0094 57.6008 87.3094 57.9008L88.4094 59.0008C88.7094 59.3008 88.7094 59.8008 88.4094 60.1008C88.2094 60.2008 88.0094 60.3008 87.8094 60.3008Z" fill="black"/>
<path d="M98.3063 81.7992C97.5063 81.7992 96.8062 81.4992 96.2062 80.8992L78.6062 63.1992L61.0062 80.9992C59.8062 82.1992 58.0062 82.1992 56.8062 80.9992C56.2062 80.3992 55.9062 79.6992 55.9062 78.8992C55.9062 78.0992 56.2062 77.3992 56.8062 76.7992L76.5062 56.8992C77.6062 55.7992 79.6062 55.7992 80.7062 56.8992L100.406 76.7992C101.006 77.3992 101.306 78.0992 101.306 78.8992C101.306 79.6992 101.006 80.3992 100.406 80.9992C99.8062 81.4992 99.1063 81.7992 98.3063 81.7992ZM78.6062 61.3992C78.8062 61.3992 79.0062 61.4992 79.1062 61.5992L97.2062 79.8992C97.7062 80.4992 98.7063 80.4992 99.3063 79.8992C99.9063 79.2992 99.9063 78.3992 99.3063 77.7992L79.6062 57.9992C79.1062 57.4992 78.0062 57.4992 77.5062 57.9992L57.8062 77.8992C57.2062 78.4992 57.2062 79.3992 57.8062 79.9992C58.4062 80.5992 59.3062 80.5992 59.9062 79.9992L78.0062 61.5992C78.2062 61.4992 78.4062 61.3992 78.6062 61.3992Z" fill="black"/>
<path d="M35.4072 35.2C35.2072 35.2 34.9072 35.1 34.8072 34.9C34.6072 34.6 34.7072 34.1 35.0072 33.9C35.4072 33.6 35.9072 33.3 36.4072 33.1C36.8072 32.9 37.2072 33 37.4072 33.4C37.6072 33.8 37.5072 34.2 37.1072 34.4C36.7072 34.6 36.3072 34.9 35.8072 35.2C35.6072 35.2 35.5072 35.2 35.4072 35.2Z" fill="black"/>
<path d="M28.2063 48.6984C27.8063 48.6984 27.4062 48.3984 27.4062 47.8984C27.4062 43.6984 29.0062 39.5984 31.8062 36.4984C32.1062 36.1984 32.6063 36.1984 32.9063 36.4984C33.2063 36.7984 33.2063 37.2984 32.9063 37.5984C30.3063 40.3984 28.9062 44.0984 28.9062 47.9984C29.0063 48.2984 28.6063 48.6984 28.2063 48.6984Z" fill="black"/>
<path d="M69.9062 53.3H35.0063C33.0063 53.3 31.4062 51.7 31.4062 49.7V47.9C31.4062 40.8 37.2062 35 44.3062 35H45.1062C45.5062 35 45.9063 35.3 45.9063 35.8C45.9063 36.3 45.6062 36.6 45.1062 36.6H44.3062C38.0062 36.6 32.9063 41.7 32.9063 48V49.8C32.9063 51 33.8063 51.9 35.0063 51.9H69.9062C71.1063 51.9 72.0062 51 72.0062 49.8V48C72.0062 41.7 66.9062 36.6 60.6062 36.6H60.1062C59.7062 36.6 59.3062 36.3 59.3062 35.8C59.3062 35.3 59.6062 35 60.1062 35H60.6062C67.7062 35 73.5062 40.8 73.5062 47.9V49.7C73.5062 51.7 71.9062 53.3 69.9062 53.3Z" fill="black"/>
<path d="M47.6047 34.3984C47.2047 34.3984 46.8047 34.0984 46.8047 33.5984V31.6984C46.8047 31.2984 47.1047 30.8984 47.6047 30.8984C48.1047 30.8984 48.4047 31.1984 48.4047 31.6984V33.5984C48.3047 34.0984 48.0047 34.3984 47.6047 34.3984Z" fill="black"/>
<path d="M57.7062 34.3984C57.3062 34.3984 56.9062 34.0984 56.9062 33.5984V31.6984C56.9062 31.2984 57.2062 30.8984 57.7062 30.8984C58.2062 30.8984 58.5062 31.1984 58.5062 31.6984V33.5984C58.5062 34.0984 58.1062 34.3984 57.7062 34.3984Z" fill="black"/>
<path d="M52.7047 38.6977H52.6047C52.2047 38.6977 51.8047 38.3977 51.8047 37.8977C51.8047 37.3977 52.1047 37.0977 52.6047 37.0977H52.7047C53.1047 37.0977 53.5047 37.3977 53.5047 37.8977C53.5047 38.3977 53.1047 38.6977 52.7047 38.6977Z" fill="black"/>
<path d="M56.9062 43.1992C56.5062 43.1992 56.0062 42.9992 55.7062 42.6992L52.4062 39.4992C52.1062 39.1992 51.9062 38.6992 51.9062 38.1992C51.9062 37.6992 52.1062 37.2992 52.5062 36.9992L56.5062 33.3992C57.2062 32.7992 58.2062 32.7992 58.8062 33.3992L60.4062 34.8992C60.9062 35.3992 61.1062 36.1992 60.8062 36.8992L58.5062 42.2992C58.3062 42.7992 57.8062 43.1992 57.2062 43.2992C57.2062 43.1992 57.1063 43.1992 56.9062 43.1992ZM57.7062 34.3992C57.6062 34.3992 57.6062 34.3992 57.5062 34.4992L53.5062 38.0992C53.4062 38.1992 53.4062 38.1992 53.4062 38.2992C53.4062 38.2992 53.4062 38.3992 53.5062 38.4992L56.8062 41.6992C56.9062 41.7992 57.0062 41.7992 57.0062 41.7992C57.0062 41.7992 57.1062 41.7992 57.2062 41.6992L59.5062 36.2992C59.5062 36.1992 59.5063 36.0992 59.4062 35.9992L57.8062 34.4992C57.8062 34.3992 57.7062 34.3992 57.7062 34.3992Z" fill="black"/>
<path d="M48.4081 43.1977C48.3081 43.1977 48.2081 43.1977 48.1081 43.1977C47.5081 43.0977 47.1081 42.6977 46.8081 42.1977L44.5081 36.7977C44.2081 36.0977 44.4081 35.2977 44.9081 34.7977L46.5081 33.2977C47.2081 32.6977 48.2081 32.6977 48.8081 33.2977L52.8081 36.8977C53.2081 37.1977 53.4081 37.6977 53.4081 38.0977C53.4081 38.5977 53.2081 38.9977 52.9081 39.3977L49.6081 42.5977C49.3081 42.9977 48.8081 43.1977 48.4081 43.1977ZM47.5081 34.3977L45.9081 35.9977C45.8081 36.0977 45.8081 36.1977 45.8081 36.2977L48.1081 41.6977C48.1081 41.7977 48.2081 41.7977 48.3081 41.7977C48.3081 41.7977 48.4081 41.7977 48.5081 41.6977L51.8081 38.4977C51.9081 38.3977 51.9081 38.3977 51.9081 38.2977C51.9081 38.2977 51.9081 38.1977 51.8081 38.0977L47.8081 34.4977C47.7081 34.3977 47.6081 34.3977 47.5081 34.3977Z" fill="black"/>
<path d="M52.7078 33.8992C47.1078 33.8992 42.5078 29.2992 42.5078 23.6992V19.9992C42.5078 19.6992 42.6078 19.4992 42.9078 19.3992C42.9078 19.3992 44.7078 18.1992 45.1078 13.9992C45.1078 13.6992 45.3078 13.4992 45.5078 13.3992C45.7078 13.2992 46.0078 13.2992 46.2078 13.3992C46.2078 13.3992 49.5078 15.2992 52.7078 15.3992H59.1078C59.5078 15.3992 59.8078 15.5992 59.8078 15.9992C60.0078 16.7992 60.8078 19.1992 62.2078 19.2992C62.6078 19.2992 62.9078 19.5992 62.9078 19.9992V23.7992C62.9078 29.3992 58.3078 33.8992 52.7078 33.8992ZM44.0078 20.2992V23.6992C44.0078 28.4992 47.9078 32.3992 52.7078 32.3992C57.5078 32.3992 61.4078 28.4992 61.4078 23.6992V20.4992C59.7078 19.9992 58.8078 17.7992 58.5078 16.6992H52.7078C50.1078 16.5992 47.7078 15.5992 46.4078 14.9992C45.8078 18.2992 44.6078 19.7992 44.0078 20.2992Z" fill="black"/>
<path d="M62.1047 24.7979C61.7047 24.7979 61.3047 24.4979 61.3047 23.9979V19.9979C61.3047 19.8979 61.3047 19.7979 61.4047 19.6979C61.6047 19.2979 61.8047 18.8979 61.9047 18.5979C62.0047 18.2979 62.4047 18.0979 62.7047 18.1979C64.3047 18.4979 65.4047 19.8979 65.4047 21.4979C65.5047 23.2979 64.0047 24.7979 62.1047 24.7979ZM62.9047 20.0979V23.0979C63.6047 22.7979 64.1047 22.0979 64.1047 21.2979C64.1047 20.5979 63.7047 19.9979 63.1047 19.5979C63.0047 19.7979 62.9047 19.9979 62.9047 20.0979Z" fill="black"/>
<path d="M43.2047 24.8C41.3047 24.8 39.8047 23.3 39.8047 21.4C39.8047 19.9 40.8047 18.6 42.2047 18.1C42.5047 18 42.9047 18.1 43.1047 18.4C43.5047 19 43.8047 19.4 43.8047 19.4C43.9047 19.5 44.0047 19.7 44.0047 19.9V24C44.0047 24.5 43.6047 24.8 43.2047 24.8ZM42.2047 19.8C41.7047 20.2 41.3047 20.7 41.3047 21.4C41.3047 22.2 41.8047 22.9 42.5047 23.2V20.3C42.4047 20.1 42.3047 20 42.2047 19.8Z" fill="black"/>
<path d="M43.2078 20.6982C43.0078 20.6982 42.8078 20.5982 42.6078 20.3982C42.6078 20.3982 42.2078 19.8982 41.7078 19.0982C40.8078 17.5982 39.6078 14.4982 40.9078 11.0982C41.3078 10.0982 42.1078 9.39823 43.1078 9.09823C44.0078 8.89823 44.6078 8.39823 45.1078 7.69823C46.1078 5.99822 47.5078 4.89823 49.1078 4.39823C55.1078 2.39823 59.4078 5.89823 61.5078 8.29823C62.3078 8.79823 66.4078 12.0982 63.4078 19.0982C63.2078 19.4982 63.0078 19.8982 62.8078 20.2982C62.7078 20.5982 62.4078 20.6982 62.1078 20.6982C59.9078 20.5982 58.9078 17.9982 58.5078 16.7982H52.7078C50.1078 16.6982 47.7078 15.6982 46.4078 15.0982C45.7078 19.2982 43.7078 20.4982 43.6078 20.5982C43.5078 20.6982 43.3078 20.6982 43.2078 20.6982ZM59.0078 15.2982C59.4078 15.2982 59.7078 15.4982 59.7078 15.8982C59.9078 16.5982 60.5078 18.5982 61.6078 19.0982C61.7078 18.8982 61.8078 18.6982 61.9078 18.4982C64.7078 12.1982 60.7078 9.59823 60.5078 9.49823C60.4078 9.49823 60.4078 9.39822 60.3078 9.39822C58.5078 7.29822 54.6078 4.19823 49.4078 5.89823C48.0078 6.39823 47.0078 7.59823 46.4078 8.49823C45.8078 9.59823 44.8078 10.2982 43.5078 10.5982C43.0078 10.7982 42.5078 11.0982 42.3078 11.6982C41.2078 14.5982 42.3078 17.0982 43.0078 18.3982C43.1078 18.4982 43.2078 18.6982 43.2078 18.7982C43.8078 18.0982 44.6078 16.6982 44.9078 13.8982C44.9078 13.5982 45.1078 13.3982 45.3078 13.2982C45.5078 13.1982 45.8078 13.1982 46.0078 13.2982C46.0078 13.2982 49.3078 15.1982 52.5078 15.2982H59.0078Z" fill="black"/>
<path d="M41.3046 71.5999C41.1046 71.5999 40.9046 71.4999 40.7046 71.2999C40.4046 70.9999 40.5046 70.4999 40.8046 70.1999L50.4046 62.3999C50.7046 62.0999 51.2046 62.1999 51.5046 62.4999C51.8046 62.7999 51.7046 63.2999 51.4046 63.5999L41.8046 71.3999C41.7046 71.5999 41.5046 71.5999 41.3046 71.5999Z" fill="black"/>
<path d="M52.7062 60.2969C52.3062 60.2969 51.9062 59.9969 51.9062 59.4969V52.5969C51.9062 52.1969 52.2062 51.7969 52.7062 51.7969C53.2062 51.7969 53.5062 52.0969 53.5062 52.5969V59.4969C53.4062 59.8969 53.1062 60.2969 52.7062 60.2969Z" fill="black"/>
<path d="M52.7047 64.5969C51.8047 64.5969 51.0047 64.1969 50.4047 63.4969C50.0047 62.9969 49.8047 62.2969 49.8047 61.6969C49.8047 60.0969 51.1047 58.7969 52.7047 58.7969C54.3047 58.7969 55.6047 60.0969 55.6047 61.6969C55.6047 62.3969 55.4047 62.9969 55.0047 63.4969C54.4047 64.1969 53.6047 64.5969 52.7047 64.5969ZM52.7047 60.2969C51.9047 60.2969 51.3047 60.8969 51.3047 61.6969C51.3047 61.9969 51.4047 62.2969 51.6047 62.5969C52.1047 63.2969 53.3047 63.2969 53.8047 62.5969C54.0047 62.2969 54.1047 61.9969 54.1047 61.6969C54.1047 60.8969 53.4047 60.2969 52.7047 60.2969Z" fill="black"/>
<path d="M63.8046 71.4999C63.6046 71.4999 63.5046 71.3999 63.3046 71.2999L53.8046 63.5999C53.5046 63.2999 53.4046 62.8999 53.7046 62.4999C54.0046 62.1999 54.4046 62.0999 54.8046 62.3999L64.3046 70.0999C64.6046 70.3999 64.7046 70.7999 64.4046 71.1999C64.3046 71.3999 64.0046 71.4999 63.8046 71.4999Z" fill="black"/>
<path d="M52.7062 60.2969C52.3062 60.2969 51.9062 59.9969 51.9062 59.4969V52.5969C51.9062 52.1969 52.2062 51.7969 52.7062 51.7969C53.2062 51.7969 53.5062 52.0969 53.5062 52.5969V59.4969C53.4062 59.8969 53.1062 60.2969 52.7062 60.2969Z" fill="black"/>
<path d="M93.0031 51.2992C90.3031 51.2992 88.2031 49.0992 88.2031 46.4992C88.2031 43.7992 90.4031 41.6992 93.0031 41.6992C95.7031 41.6992 97.8031 43.8992 97.8031 46.4992C97.8031 49.1992 95.6031 51.2992 93.0031 51.2992ZM93.0031 43.1992C91.2031 43.1992 89.7031 44.6992 89.7031 46.4992C89.7031 48.2992 91.2031 49.7992 93.0031 49.7992C94.8031 49.7992 96.3031 48.2992 96.3031 46.4992C96.3031 44.6992 94.8031 43.1992 93.0031 43.1992Z" fill="black"/>
<path d="M14.2 32.5977C13.8 32.5977 13.4 32.2977 13.3 31.7977C13 30.1977 12.2 28.6977 11 27.4977C9.8 26.2977 8.4 25.4977 6.8 25.1977C6.3 25.1977 6 24.7977 6 24.3977C6 23.9977 6.3 23.5977 6.8 23.4977C8.4 23.1977 9.9 22.3977 11.1 21.1977C12.3 19.9977 13.1 18.5977 13.4 16.8977C13.5 16.4977 13.9 16.0977 14.3 16.0977C14.7 16.0977 15.1 16.3977 15.2 16.8977C15.5 18.4977 16.3 19.9977 17.5 21.1977C18.7 22.3977 20.1 23.1977 21.8 23.4977C22.2 23.5977 22.6 23.9977 22.6 24.3977C22.6 24.7977 22.3 25.1977 21.8 25.2977C18.5 25.9977 15.9 28.4977 15.3 31.8977C15.1 32.2977 14.7 32.5977 14.2 32.5977ZM8.9 24.3977C10.1 24.8977 11.2 25.5977 12.1 26.5977C13 27.4977 13.8 28.5977 14.3 29.7977C15.3 27.3977 17.2 25.3977 19.7 24.3977C18.5 23.8977 17.4 23.1977 16.5 22.1977C15.6 21.2977 14.8 20.1977 14.4 18.9977C13.9 20.1977 13.2 21.2977 12.3 22.1977C11.2 23.0977 10.1 23.8977 8.9 24.3977Z" fill="black"/>
</svg>
