<svg width="200" height="200" viewBox="0 0 200 200" fill="none" xmlns="http://www.w3.org/2000/svg">
<path d="M197.925 71.7205L192.614 69.9885C192.233 68.8791 191.788 67.8037 191.283 66.7709L193.816 61.7979C194.352 60.7463 194.149 59.4701 193.315 58.6357L186.565 51.8752C185.73 51.0365 184.448 50.8342 183.395 51.3732L178.422 53.9158C177.376 53.4018 176.299 52.9529 175.198 52.5736L173.48 47.2682C173.116 46.1443 172.069 45.3826 170.888 45.3826H166.064V37.5561L171.075 24.3947H171.661C173.166 24.3947 174.386 23.1752 174.386 21.6705V11.326C174.386 9.82129 173.166 8.60176 171.661 8.60176H120.071C118.567 8.60176 117.347 9.82129 117.347 11.326V21.6705C117.347 23.1752 118.567 24.3947 120.071 24.3947H120.658L125.67 37.5561V61.6174H123.045C121.54 61.6174 120.32 62.8369 120.32 64.3416V85.0143H103.045L99.7008 41.29C99.5922 39.8701 98.4082 38.7736 96.9844 38.7736H95.6082V35.3088C95.6082 34.9049 95.773 34.6576 95.859 34.5826C101.216 34.4236 103.968 30.1182 103.918 25.9314C103.867 21.7303 100.995 17.4768 95.6027 17.4768H92.9668V15.2057C92.9668 10.492 89.2164 6.65723 84.6062 6.65723H64.0828C58.6266 6.65723 55.7719 10.9604 55.7719 15.2111C55.7719 19.4619 58.6266 23.765 64.0828 23.765H70.2855C72.2293 28.267 75.7176 28.8639 77.7379 28.7916C77.9078 29.1033 78.1086 29.5486 78.257 29.8783C79.0082 31.5443 80.1414 34.0584 82.9258 34.5264C83.0035 34.5869 83.1746 34.8338 83.1746 35.2533V38.7736H81.7984C80.3746 38.7736 79.1906 39.8701 79.082 41.29L75.7379 85.0143H59.577L57.5598 58.6959C57.4832 57.6959 56.8719 56.8584 56.0203 56.4494V55.7104C56.0203 54.4678 57.3855 53.4189 59.0566 53.3721C66.6367 53.1803 70.5363 47.8107 70.4703 42.6057C70.4043 37.3838 66.3172 32.0982 58.634 32.0982H49.9742C50.0109 30.208 49.4762 28.3174 48.3832 26.6072C46.2379 23.2498 42.3727 21.2455 38.0441 21.2455H17.091C9.30039 21.2455 5.22422 26.6107 5.22422 31.9104C5.22422 33.8053 5.74531 35.708 6.7707 37.3713C2.44375 38.3092 0.195312 41.8002 0.195312 45.2553C0.195312 49.2947 3.26914 53.3838 9.14453 53.3838H35.3375C37.0359 53.3838 38.4707 54.449 38.4707 55.71V56.4541C37.625 56.865 37.0187 57.6998 36.9426 58.6955L34.925 85.0139H13.5984C12.0938 85.0139 10.8742 86.2334 10.8742 87.7381V148.578C10.8742 150.083 12.0938 151.302 13.5984 151.302H21.4727V165.222C21.4727 166.727 22.6922 167.946 24.1969 167.946H24.8437V177.512C24.8437 179.017 26.0633 180.236 27.568 180.236H36.5773C36.5598 180.505 36.5473 180.775 36.5473 181.049C36.5473 187.828 42.0629 193.344 48.8422 193.344C55.6156 193.344 61.1262 187.828 61.1262 181.049C61.1262 180.776 61.1141 180.505 61.0961 180.236H109.782H116.349C116.331 180.505 116.319 180.775 116.319 181.049C116.319 187.828 121.834 193.344 128.614 193.344C135.393 193.344 140.909 187.828 140.909 181.049C140.909 180.776 140.896 180.505 140.879 180.236H151.734C153.238 180.236 154.458 179.017 154.458 177.512V155.01C154.458 154.416 154.263 153.838 153.904 153.364L152.34 151.302H168.687C170.191 151.302 171.411 150.083 171.411 148.578V112.73C172.368 112.542 173.17 111.855 173.478 110.901L175.197 105.596C176.297 105.217 177.374 104.768 178.42 104.254L183.394 106.796C184.447 107.335 185.729 107.133 186.564 106.294L193.314 99.5334C194.148 98.699 194.35 97.4225 193.815 96.3709L191.282 91.3982C191.787 90.3654 192.232 89.2897 192.613 88.1803L197.924 86.4486C199.045 86.083 199.804 85.0377 199.804 83.8588V74.31C199.805 73.1311 199.046 72.0857 197.925 71.7205ZM122.796 14.0502H168.937V18.9463H122.796V14.0502ZM165.244 24.3947L161.461 34.3303H130.271L126.488 24.3947H165.244ZM131.118 39.7787H160.615V45.4846C159.743 45.7221 159.024 46.3775 158.736 47.2674L157.017 52.5729C155.917 52.9521 154.839 53.401 153.793 53.915L148.82 51.3725C147.767 50.833 146.486 51.0361 145.65 51.8744L138.9 58.635C138.113 59.4228 137.897 60.6022 138.325 61.6166H131.118L131.118 39.7787ZM132.567 134.25L134.587 136.913C134.641 136.994 134.7 137.071 134.763 137.145L146.249 152.286H129.548V134.249L132.567 134.25ZM84.0242 29.1873C83.7848 28.8818 83.4398 28.1166 83.2246 27.6393C82.4824 25.9928 81.0992 22.9283 77.759 23.3303C76.9934 23.4205 75.7109 23.5689 74.8629 20.3475C74.548 19.1506 73.466 18.3166 72.2285 18.3166H64.0832C61.3586 18.3166 61.2207 15.7295 61.2207 15.2111C61.2207 14.6924 61.3586 12.1057 64.0832 12.1057H84.6066C86.2125 12.1057 87.5188 13.4963 87.5188 15.2057V20.201C87.5188 21.7057 88.7383 22.9252 90.243 22.9252H95.6031C98.2965 22.9252 98.4637 25.4838 98.4699 25.9967C98.4762 26.5096 98.3699 29.0725 95.6785 29.1369C92.584 29.2018 90.1602 31.9127 90.1602 35.3088V38.7736H88.6238V35.2533C88.6234 32.2225 86.693 29.708 84.0242 29.1873ZM84.323 44.2217H94.4605L97.5805 85.0139H81.2031L84.323 44.2217ZM35.3375 47.9354H9.14453C6.56094 47.9354 5.64414 46.4916 5.64414 45.2553C5.64414 44.0189 6.56094 42.5752 9.14453 42.5752H16.0187H17.091H26.5734C28.0781 42.5752 29.2977 41.3557 29.2977 39.851C29.2977 38.3463 28.0781 37.1268 26.5734 37.1268H17.091C12.6574 37.1268 10.6727 34.5068 10.6727 31.9104C10.6727 29.3139 12.6574 26.6939 17.091 26.6939H38.0453C40.5051 26.6939 42.6539 27.7584 43.793 29.5412C44.2801 30.3033 44.9715 31.8545 44.1273 33.6783C43.7367 34.5217 43.8035 35.5064 44.3039 36.2896C44.8043 37.0729 45.6699 37.5467 46.5996 37.5467H58.6352C63.0035 37.5467 64.9914 40.1221 65.0234 42.6748C65.0555 45.2107 63.1809 47.8174 58.9125 47.9256C54.2359 48.0564 50.5727 51.476 50.5727 55.7104V56.1803H43.9191V55.7104C43.9187 51.4229 40.0691 47.9354 35.3375 47.9354ZM42.182 61.6283H52.3203L54.1129 85.0139H40.3891L42.182 61.6283ZM16.3227 145.854V90.4627H37.4461H37.4512H37.4551H100.514H100.518H100.523H120.32V128.801H112.507V119.788C112.507 118.284 111.287 117.064 109.782 117.064H109.025V102.912C109.025 101.408 107.806 100.188 106.301 100.188H91.1379C89.6332 100.188 88.4137 101.408 88.4137 102.912V117.064H78.6328V102.912C78.6328 101.408 77.4133 100.188 75.9086 100.188H60.7344C59.2297 100.188 58.0102 101.408 58.0102 102.912V117.064H48.2293V102.912C48.2293 101.408 47.0098 100.188 45.5051 100.188H30.3309C28.8262 100.188 27.6066 101.408 27.6066 102.912V117.064H24.1969C22.6922 117.064 21.4727 118.284 21.4727 119.788V145.854H16.3227ZM88.1816 162.498V122.513H95.0449V162.498H88.1816ZM75.8695 162.498V122.513H82.7328V162.498H75.8695ZM63.5582 162.498V122.513H70.4215V162.498H63.5582ZM51.2465 162.498V122.513H58.1098V162.498H51.2465ZM38.9348 162.498V122.513H45.798V162.498H38.9348ZM27.568 162.498H26.9215V122.513H33.4863V162.498H27.568ZM42.7809 117.064H33.0551V105.637H42.7805L42.7809 117.064ZM73.1844 117.064H63.4586V105.637H73.1844V117.064ZM103.577 117.064H93.8617V105.637H103.577V117.064ZM100.493 122.513H107.058V131.526V162.498H100.493V122.513ZM48.8426 187.895C45.0672 187.895 41.9961 184.824 41.9961 181.049C41.9961 177.279 45.0672 174.213 48.8426 174.213C52.6117 174.213 55.6781 177.279 55.6781 181.049C55.6781 184.824 52.6117 187.895 48.8426 187.895ZM48.8426 168.764C44.3504 168.764 40.4156 171.185 38.2699 174.788H30.2922V167.946H107.058V174.788H59.4059C57.2621 171.185 53.3305 168.764 48.8426 168.764ZM128.614 187.895C124.839 187.895 121.768 184.824 121.768 181.049C121.768 177.279 124.839 174.213 128.614 174.213C132.389 174.213 135.461 177.279 135.461 181.049C135.461 184.824 132.389 187.895 128.614 187.895ZM139.187 174.788C137.042 171.185 133.107 168.764 128.614 168.764C124.122 168.764 120.188 171.185 118.042 174.788H112.506V165.222V134.249H124.1V155.01C124.1 156.515 125.319 157.735 126.824 157.735H149.011V174.788H139.187ZM139.572 134.47V120.811H152.249V145.854H148.208L139.572 134.47ZM157.697 145.854V118.087C157.697 116.582 156.478 115.362 154.973 115.362H136.848C135.343 115.362 134.124 116.582 134.124 118.087V128.813C134.056 128.808 133.988 128.801 133.92 128.801H125.769V67.0658H140.794C140.347 68.0084 139.947 68.9838 139.602 69.9885L134.29 71.7205C133.169 72.0861 132.411 73.1314 132.411 74.3103V83.8592C132.411 85.0385 133.169 86.0838 134.29 86.449L139.602 88.1807C139.982 89.29 140.427 90.3654 140.932 91.3986L138.399 96.3713C137.864 97.4229 138.066 98.6994 138.9 99.5338L145.65 106.294C146.486 107.133 147.767 107.335 148.82 106.796L153.794 104.254C154.84 104.768 155.917 105.217 157.017 105.596L158.736 110.902C159.1 112.026 160.146 112.787 161.328 112.787H165.964V145.854H157.697ZM194.356 81.8818L189.593 83.4354C188.734 83.7154 188.07 84.4029 187.82 85.2709C187.33 86.9709 186.664 88.5807 185.839 90.0561C185.395 90.8506 185.377 91.815 185.791 92.6256L188.063 97.0807L184.109 101.042L179.638 98.7604C178.828 98.3486 177.867 98.3678 177.073 98.8111C175.561 99.6568 173.952 100.327 172.293 100.803C171.423 101.052 170.734 101.716 170.453 102.576L168.906 107.339H163.31L161.763 102.576C161.482 101.717 160.793 101.052 159.923 100.803C158.263 100.327 156.655 99.6568 155.143 98.8111C154.35 98.3678 153.388 98.349 152.579 98.7604L148.107 101.042L144.153 97.0807L146.425 92.6256C146.839 91.815 146.821 90.8506 146.377 90.0561C145.552 88.5807 144.886 86.9709 144.396 85.2709C144.146 84.4033 143.482 83.7154 142.623 83.4354L137.86 81.8818V76.2877L142.623 74.7342C143.482 74.4541 144.146 73.7666 144.396 72.8986C144.886 71.1986 145.552 69.5889 146.377 68.1135C146.821 67.3189 146.839 66.3545 146.425 65.5439L145.273 63.2861C145.227 63.1748 145.171 63.0689 145.11 62.9658L144.153 61.0889L148.108 57.1279L152.579 59.4092C153.389 59.8213 154.35 59.8018 155.143 59.3584C156.655 58.5127 158.264 57.8428 159.924 57.367C160.794 57.1178 161.483 56.4533 161.763 55.5932L163.31 50.8303H168.907L170.454 55.5932C170.734 56.4533 171.423 57.1178 172.293 57.367C173.953 57.8424 175.561 58.5123 177.073 59.3584C177.866 59.8018 178.828 59.8205 179.638 59.4092L184.109 57.1279L188.064 61.0889L185.791 65.5439C185.377 66.3545 185.395 67.3189 185.839 68.1135C186.664 69.5889 187.331 71.1986 187.821 72.8986C188.071 73.7662 188.735 74.4541 189.593 74.7342L194.357 76.2877V81.8818H194.356ZM166.113 61.4404C156.384 61.4404 148.469 69.3557 148.469 79.0846C148.469 88.8076 156.384 96.7178 166.113 96.7178C175.836 96.7178 183.746 88.8076 183.746 79.0846C183.746 69.3557 175.836 61.4404 166.113 61.4404ZM166.113 91.2693C159.389 91.2693 153.918 85.8033 153.918 79.0846C153.918 72.36 159.389 66.8889 166.113 66.8889C172.832 66.8889 178.298 72.36 178.298 79.0846C178.298 85.8033 172.832 91.2693 166.113 91.2693Z" fill="black"/>
</svg>
