<svg width="500" height="500" viewBox="0 0 500 500" fill="none" xmlns="http://www.w3.org/2000/svg">
<path d="M470.2 314.898L372.8 217.498C361 205.698 341.75 205.698 329.95 217.498L232.55 314.898C226.2 321.248 226.2 331.498 232.55 337.848C238.9 344.198 249.15 344.198 255.5 337.848L256.15 337.198V434.448C256.15 436.498 257.85 438.198 259.9 438.198H442.85C444.9 438.198 446.6 436.498 446.6 434.448V337.198L447.25 337.848C450.3 340.898 454.4 342.598 458.7 342.598C463 342.598 467.1 340.898 470.15 337.848C473.2 334.798 475 330.698 475 326.398C475 322.098 473.3 317.948 470.2 314.898ZM338.35 430.648V380.148H364.35V430.648H338.35ZM439.1 373.548C439 373.648 438.9 373.648 438.8 373.748L420.75 392.198C419.8 393.148 419.45 394.548 419.85 395.848L424.3 411.248L413.2 415.698C411.3 416.448 410.35 418.648 411.1 420.598C411.7 422.048 413.1 422.948 414.6 422.948C415.05 422.948 415.55 422.848 416 422.698L430.25 416.998C432.05 416.298 433 414.348 432.45 412.498L427.65 395.948L439.1 384.248V430.698H371.9V376.398C371.9 374.348 370.2 372.648 368.15 372.648H334.65C332.6 372.648 330.9 374.348 330.9 376.398V430.648H263.65V408.498L272.85 399.648L277.75 408.698C278.55 410.148 280.2 410.898 281.8 410.598L298.1 407.348V420.798C298.1 422.848 299.8 424.548 301.85 424.548C303.9 424.548 305.6 422.848 305.6 420.798V402.748C305.6 401.648 305.1 400.548 304.25 399.848C303.4 399.148 302.25 398.848 301.15 399.048L283.1 402.698L277.15 391.748C276.6 390.698 275.6 389.998 274.45 389.848C273.3 389.648 272.1 390.048 271.3 390.848L263.8 398.098V329.698L340 253.498L360.5 271.498L339.8 283.898C338.05 284.948 337.45 287.198 338.45 288.948L345.2 300.948C345.9 302.148 347.15 302.848 348.45 302.848C349.05 302.848 349.7 302.698 350.3 302.348C352.1 301.348 352.75 299.048 351.75 297.248L346.8 288.398L368.75 275.248C369.8 274.648 370.45 273.548 370.55 272.348C370.65 271.148 370.2 269.998 369.3 269.198L345.4 248.148C349.25 245.048 354.9 245.248 358.45 248.798L439.25 329.598V373.548H439.1ZM464.9 332.548C461.6 335.848 455.85 335.848 452.55 332.548L363.6 243.598C360.25 240.248 355.8 238.548 351.35 238.548C346.9 238.548 342.5 240.248 339.1 243.598L250.2 332.548C246.9 335.848 241.15 335.848 237.85 332.548C234.45 329.148 234.45 323.598 237.85 320.198L335.25 222.798C344.15 213.898 358.6 213.898 367.5 222.798L464.9 320.198C466.55 321.848 467.45 324.048 467.45 326.348C467.45 328.648 466.55 330.898 464.9 332.548Z" fill="black"/>
<path d="M336.05 314.648H288.15C286.1 314.648 284.4 316.348 284.4 318.398V352.298C284.4 354.348 286.1 356.048 288.15 356.048H336.05C338.1 356.048 339.8 354.348 339.8 352.298V318.398C339.8 316.298 338.15 314.648 336.05 314.648ZM332.3 348.548H291.9V324.048L306.35 330.198L301.2 332.648C300.1 333.148 299.35 334.148 299.1 335.348C298.85 336.548 299.25 337.748 300.05 338.598L305.9 344.898C306.65 345.698 307.65 346.098 308.65 346.098C309.55 346.098 310.5 345.748 311.2 345.098C312.7 343.698 312.8 341.298 311.4 339.798L309.05 337.248L317.1 333.448C318.45 332.798 319.25 331.448 319.25 329.998C319.2 328.498 318.35 327.198 316.95 326.598L306.5 322.148H332.3V348.548Z" fill="black"/>
<path d="M362.95 318.398V352.298C362.95 354.348 364.65 356.048 366.7 356.048H414.6C416.65 356.048 418.35 354.348 418.35 352.298V318.398C418.35 316.348 416.65 314.648 414.6 314.648H366.7C364.6 314.648 362.95 316.298 362.95 318.398ZM410.85 348.548H394.4V322.148H410.85V348.548ZM370.45 322.148H386.9V348.548H370.45V322.148Z" fill="black"/>
<path d="M200.3 307.598C211.15 302.298 218.05 295.448 218.05 287.098C218.05 283.648 216.8 280.298 214.35 277.198C230.1 270.548 240.2 261.698 240.2 250.948C240.2 247.098 238.85 243.348 236.25 239.798C249.75 232.748 257.1 224.148 257.1 214.798C257.1 187.948 198.1 171.898 141.05 171.898C84 171.898 25 187.898 25 214.698C25 221.548 28.9 227.698 35.6 233.098C27 239.798 25 246.348 25 250.898C25 260.598 33.25 268.748 46.35 275.148C42.75 278.848 40.95 282.848 40.95 287.098C40.95 296.048 49.15 303.948 64 309.948C62.8 311.948 62.1 313.998 62 316.198C61.65 322.698 66.05 328.598 73.35 333.698C67 337.898 65.2 342.498 65 345.948C64.6 353.448 70.85 360.048 80.7 365.448C75.65 368.798 74.25 372.548 74.1 375.448C73.7 382.798 80.7 388.948 91.35 393.598C85.35 397.448 83.95 401.498 84 404.548C84.1 410.198 89.3 414.848 98.45 417.898C97.95 419.048 97.8 420.148 97.8 421.048C97.85 422.548 98.35 424.848 100.7 427.048C105.35 431.448 116.1 434.148 128.65 434.148C129.65 434.148 130.7 434.148 131.7 434.098C147.85 433.548 165.1 428.548 164.9 418.848C164.9 417.948 164.7 416.848 164.15 415.698C172.6 412.248 178.15 407.448 178.05 401.398C178 400.198 177.7 398.648 176.8 396.998C179 395.948 180.95 394.798 182.5 393.448C186.05 390.398 186.9 387.198 187.05 385.048C187.15 383.098 186.7 380.498 184.75 377.648C200.75 373.948 210.4 367.148 210.9 358.448C211.05 355.298 210 350.748 204.9 345.848C208.35 344.298 211.3 342.548 213.55 340.548C217.25 337.348 219.2 333.698 219.45 329.698C220 321.798 213.15 314.098 200.3 307.598ZM32.5 250.898C32.5 245.448 37.5 240.748 42.15 237.598C63.8 250.398 102.85 257.598 141.05 257.598C143.1 257.598 144.8 255.898 144.8 253.848C144.8 251.798 143.1 250.098 141.05 250.098C89.7 250.098 32.5 235.548 32.5 214.748C32.5 193.948 89.7 179.348 141.05 179.348C192.4 179.348 249.6 193.898 249.6 214.748C249.6 221.898 242.1 228.998 229 234.998C228.8 235.048 228.6 235.148 228.4 235.248C221.2 238.498 212.4 241.348 202.2 243.698C200.2 244.148 198.9 246.198 199.4 248.198C199.85 250.198 201.9 251.448 203.9 250.998C213.6 248.748 222.05 246.048 229.25 242.998C231.5 245.648 232.7 248.298 232.7 250.898C232.7 266.248 191.6 283.348 132.6 283.348C73.6 283.348 32.5 266.248 32.5 250.898ZM170.7 401.598C170.8 405.448 156.95 413.448 131.35 414.348C129.3 414.398 127.65 416.148 127.75 418.248C127.8 420.248 129.5 421.848 131.5 421.848H131.65C140.5 421.548 149.4 420.298 156.95 418.248C157.5 418.748 157.6 419.048 157.6 419.048C157.4 420.998 148.1 426.048 131.6 426.648C114.15 427.198 105.7 422.548 105.45 420.948C105.45 420.848 105.65 420.498 106.15 419.998C108.05 420.398 110 420.698 112.1 420.998C112.25 420.998 112.45 421.048 112.6 421.048C114.45 421.048 116.05 419.698 116.3 417.798C116.6 415.748 115.15 413.848 113.1 413.598C98.4 411.598 91.7 407.098 91.65 404.498C91.6 402.748 94.55 399.848 101.15 397.198C109.75 399.798 119.55 401.598 129.4 402.498C133.95 402.898 138.4 403.098 142.7 403.098C153.05 403.098 162.3 401.948 169.7 399.848C170.2 400.248 170.7 400.948 170.7 401.598ZM203.5 358.048C203.1 365.348 185 373.048 155.35 373.298C153.3 373.298 151.6 374.998 151.65 377.098C151.65 379.148 153.35 380.798 155.4 380.798H155.45C163 380.748 169.95 380.198 176.2 379.298C178.5 381.248 179.8 383.148 179.75 384.648C179.7 385.648 179.05 386.748 177.8 387.798C172.15 392.698 154.8 397.048 130.1 394.898C100.1 392.248 81.45 381.848 81.75 375.848C81.85 373.698 84.75 371.348 89.4 369.498C102.65 374.898 119.75 378.598 136.45 380.048H136.8C138.7 380.048 140.35 378.598 140.55 376.648C140.75 374.598 139.2 372.748 137.15 372.598C99.6 369.298 72.1 356.048 72.65 346.348C72.8 343.498 75.7 340.598 80.85 338.098C95.8 345.748 117.8 350.948 139.15 352.848C145.65 353.398 152 353.698 158.05 353.698C173.05 353.698 186.5 351.998 196.95 348.848C201.25 352.048 203.65 355.298 203.5 358.048ZM208.75 334.898C198.6 343.698 170.2 347.998 139.7 345.348C114.8 343.148 94.7 337.198 82.45 330.548C82.35 330.498 82.3 330.448 82.2 330.398C73.9 325.798 69.3 320.898 69.5 316.598C69.55 315.198 70.25 313.898 71.4 312.548C75.45 313.848 79.9 314.998 84.65 315.998C84.9 316.048 85.15 316.098 85.45 316.098C87.2 316.098 88.75 314.898 89.1 313.148C89.55 311.098 88.25 309.148 86.2 308.698C63.6 303.898 48.45 295.248 48.45 287.148C48.45 283.698 51.2 280.598 53.85 278.448C74.6 286.498 103.85 290.898 132.55 290.898C159.3 290.898 186.45 287.098 206.8 280.098C209.2 282.498 210.45 284.848 210.45 287.148C210.45 299.348 177.15 312.948 129.4 312.948C127.35 312.948 125.65 314.648 125.65 316.698C125.65 318.748 127.35 320.448 129.4 320.448C151.25 320.448 173.8 317.398 190.7 311.548C204.1 317.048 212.25 323.848 211.95 329.348C211.95 331.198 210.85 333.098 208.75 334.898Z" fill="black"/>
<path d="M401.2 166.099C401.9 166.699 402.75 167.049 403.7 167.049H403.9C404.9 166.999 405.8 166.549 406.5 165.799L423.35 146.799C424.7 145.249 424.6 142.899 423.05 141.499L335.05 63.449C333.5 62.049 331.15 62.199 329.75 63.749L312.9 82.749C312.25 83.499 311.9 84.449 311.95 85.449C312 86.449 312.45 87.349 313.2 88.049L401.2 166.099ZM332.9 71.549L415.3 144.599L403.45 157.999L321 84.899L332.9 71.549Z" fill="black"/>
<path d="M93.1 127.949C93.8 128.649 94.75 129.049 95.75 129.049C96.75 129.049 97.7 128.649 98.4 127.949L130.35 95.9992C131.8 94.5492 131.8 92.1492 130.35 90.6992L112.4 72.7492C111 71.3492 108.5 71.3492 107.1 72.7492L75.15 104.699C73.7 106.149 73.7 108.549 75.15 109.999L93.1 127.949ZM109.75 80.6992L122.4 93.3492L95.75 119.999L83.1 107.349L109.75 80.6992Z" fill="black"/>
<path d="M209.8 148.25H250.75C252.25 148.25 253.6 147.35 254.2 146C254.8 144.65 254.55 143.05 253.55 141.95L243 130.5L249.8 124.85L264.55 127.85C265.65 128.05 266.8 127.8 267.65 127.1C268.5 126.4 269 125.3 269 124.2V100.35C269 98.2996 267.3 96.5996 265.25 96.5996H209.8C207.75 96.5996 206.05 98.2996 206.05 100.35V144.55C206.05 146.6 207.75 148.25 209.8 148.25ZM213.55 104.1H261.5V119.6L249.45 117.15C248.3 116.95 247.2 117.2 246.3 117.95L235.1 127.25C234.3 127.9 233.85 128.85 233.75 129.9C233.7 130.9 234.05 131.95 234.75 132.7L242.15 140.75H213.5V104.1H213.55Z" fill="black"/>
<path d="M299.35 202.6C311.6 202.6 321.6 192.6 321.6 180.35C321.6 168.1 311.6 158.1 299.35 158.1C287.1 158.1 277.1 168.1 277.1 180.35C277.1 192.6 287.1 202.6 299.35 202.6ZM299.35 165.65C307.45 165.65 314.1 172.25 314.1 180.4C314.1 188.55 307.5 195.15 299.35 195.15C291.2 195.15 284.6 188.55 284.6 180.4C284.6 172.25 291.25 165.65 299.35 165.65Z" fill="black"/>
<path d="M62.6503 153.9C63.3503 154.5 64.2503 154.799 65.1003 154.799C66.1503 154.799 67.2003 154.35 67.9503 153.5C69.3003 151.95 69.1003 149.549 67.5503 148.199L40.4003 124.799C38.8503 123.449 36.4503 123.65 35.1003 125.2C33.7503 126.75 33.9503 129.15 35.5003 130.5L62.6503 153.9Z" fill="black"/>
<path d="M428.05 208.15C428.8 208.15 429.55 207.95 430.2 207.45L455.05 189.9C456.75 188.7 457.15 186.35 455.95 184.65C454.75 182.95 452.4 182.55 450.7 183.75L425.85 201.3C424.15 202.5 423.75 204.85 424.95 206.55C425.7 207.6 426.85 208.15 428.05 208.15Z" fill="black"/>
<path d="M171.95 97.8494C172.15 97.8494 172.35 97.8494 172.55 97.7994C174.6 97.4494 176 95.5494 175.65 93.4994L171 64.9994C170.65 62.9494 168.75 61.5494 166.7 61.8994C164.65 62.2494 163.25 64.1494 163.6 66.1994L168.25 94.6994C168.55 96.5494 170.15 97.8494 171.95 97.8494Z" fill="black"/>
</svg>
