<svg width="500" height="500" viewBox="0 0 500 500" fill="none" xmlns="http://www.w3.org/2000/svg">
<path d="M456.824 485.634H43.1757C40.3219 485.634 38.0127 483.325 38.0127 480.471V189.39C38.0127 186.536 40.3219 184.227 43.1757 184.227H456.824C459.678 184.227 461.987 186.536 461.987 189.39V480.471C461.987 483.325 459.678 485.634 456.824 485.634ZM48.3388 475.308H451.661V194.553H48.3388V475.308Z" fill="black"/>
<path d="M482.337 194.547H17.663C14.8093 194.547 12.5 192.238 12.5 189.384V135.747C12.5 134.844 12.737 133.962 13.1857 133.18L64.8666 43.0185C65.7842 41.4101 67.4935 40.4219 69.3439 40.4219H230.704V50.748H72.3338L22.8261 137.123V184.221H477.174V137.123L427.666 50.748H269.296V40.4219H430.656C432.507 40.4219 434.216 41.4101 435.133 43.0185L486.814 133.18C487.263 133.962 487.5 134.844 487.5 135.747V189.384C487.5 192.238 485.191 194.547 482.337 194.547Z" fill="black"/>
<path d="M17.665 130.586H132.61V140.911H17.665V130.586Z" fill="black"/>
<path d="M367.395 130.586H482.34V140.911H367.395V130.586Z" fill="black"/>
<path d="M335.664 140.91H164.336C162.389 140.91 160.605 139.816 159.727 138.077C158.85 136.337 159.021 134.255 160.176 132.687L245.84 16.3468C247.786 13.7047 252.213 13.7047 254.159 16.3468L339.824 132.687C340.978 134.255 341.15 136.337 340.272 138.077C339.395 139.816 337.61 140.91 335.664 140.91ZM174.551 130.584H325.449L250 28.1149L174.551 130.584Z" fill="black"/>
<path d="M207.16 72.4141H292.845V82.7391H207.16V72.4141Z" fill="black"/>
<path d="M244.835 77.5801H255.16V135.75H244.835V77.5801Z" fill="black"/>
<path d="M250 317.84C222.617 317.84 200.336 295.559 200.336 268.176C200.336 240.792 222.617 218.512 250 218.512C277.383 218.512 299.664 240.792 299.664 268.176C299.664 295.559 277.383 317.84 250 317.84ZM250 228.838C228.309 228.838 210.662 246.485 210.662 268.176C210.662 289.867 228.309 307.514 250 307.514C271.691 307.514 289.338 289.867 289.338 268.176C289.338 246.485 271.691 228.838 250 228.838Z" fill="black"/>
<path d="M171.576 317.84H77.0986C74.2448 317.84 71.9355 315.531 71.9355 312.677V223.675C71.9355 220.821 74.2448 218.512 77.0986 218.512H171.576C174.43 218.512 176.739 220.821 176.739 223.675V312.677C176.739 315.531 174.43 317.84 171.576 317.84ZM82.2616 307.514H166.413V228.838H82.2616V307.514Z" fill="black"/>
<path d="M119.175 223.676H129.5V312.676H119.175V223.676Z" fill="black"/>
<path d="M77.0898 263.006H171.575V273.331H77.0898V263.006Z" fill="black"/>
<path d="M422.901 317.84H328.424C325.57 317.84 323.261 315.531 323.261 312.677V223.675C323.261 220.821 325.57 218.512 328.424 218.512H422.901C425.755 218.512 428.064 220.821 428.064 223.675V312.677C428.064 315.531 425.755 317.84 422.901 317.84ZM333.587 307.514H417.738V228.838H333.587V307.514Z" fill="black"/>
<path d="M370.5 223.676H380.825V312.676H370.5V223.676Z" fill="black"/>
<path d="M331.16 263.016H420.16V273.341H331.16V263.016Z" fill="black"/>
<path d="M171.576 449.887H77.0986C74.2448 449.887 71.9355 447.577 71.9355 444.724V355.722C71.9355 352.868 74.2448 350.559 77.0986 350.559H171.576C174.43 350.559 176.739 352.868 176.739 355.722V444.724C176.739 447.577 174.43 449.887 171.576 449.887ZM82.2616 439.561H166.413V360.885H82.2616V439.561Z" fill="black"/>
<path d="M119.175 355.721H129.5V444.721H119.175V355.721Z" fill="black"/>
<path d="M77.0898 395.074H171.575V405.399H77.0898V395.074Z" fill="black"/>
<path d="M422.901 449.887H328.424C325.57 449.887 323.261 447.577 323.261 444.724V355.722C323.261 352.868 325.57 350.559 328.424 350.559H422.901C425.755 350.559 428.064 352.868 428.064 355.722V444.724C428.064 447.577 425.755 449.887 422.901 449.887ZM333.587 439.561H417.738V360.885H333.587V439.561Z" fill="black"/>
<path d="M370.5 355.721H380.825V444.721H370.5V355.721Z" fill="black"/>
<path d="M331.16 395.061H420.16V405.386H331.16V395.061Z" fill="black"/>
<path d="M302.16 485.634H197.84C194.986 485.634 192.677 483.324 192.677 480.471V364.479C192.677 352.781 202.196 343.262 213.894 343.262H286.106C297.803 343.262 307.323 352.781 307.323 364.479V480.471C307.323 483.324 305.013 485.634 302.16 485.634ZM203.003 475.308H296.996V364.479C296.996 358.474 292.111 353.588 286.106 353.588H213.894C207.889 353.588 203.003 358.474 203.003 364.479V475.308Z" fill="black"/>
<path d="M244.835 385.539H255.16V455.849H244.835V385.539Z" fill="black"/>
<path d="M222.095 401.99H277.9V412.315H222.095V401.99Z" fill="black"/>
<path d="M222.095 433.725H277.9V444.05H222.095V433.725Z" fill="black"/>
<path d="M226.647 258.375L240.146 244.876L247.447 252.177L233.948 265.676L226.647 258.375Z" fill="black"/>
<path d="M235.13 284.168L265.937 253.36L273.237 260.66L242.43 291.468L235.13 284.168Z" fill="black"/>
</svg>
