<svg width="512" height="512" viewBox="0 0 512 512" fill="none" xmlns="http://www.w3.org/2000/svg">
<path d="M245.156 42.0209C245.156 37.8779 248.513 34.5209 252.656 34.5209H403.409C407.552 34.5209 410.909 37.8779 410.909 42.0209C410.909 46.1639 407.552 49.5209 403.409 49.5209H252.656C248.514 49.5209 245.156 46.1629 245.156 42.0209ZM67.9196 49.5209H81.2506C85.3936 49.5209 88.7506 46.1639 88.7506 42.0209C88.7506 37.8779 85.3936 34.5209 81.2506 34.5209H67.9196C63.7766 34.5209 60.4196 37.8779 60.4196 42.0209C60.4196 46.1639 63.7766 49.5209 67.9196 49.5209ZM112.743 49.5209H126.074C130.217 49.5209 133.574 46.1639 133.574 42.0209C133.574 37.8779 130.217 34.5209 126.074 34.5209H112.743C108.6 34.5209 105.243 37.8779 105.243 42.0209C105.243 46.1639 108.601 49.5209 112.743 49.5209ZM157.566 49.5209H170.897C175.04 49.5209 178.397 46.1639 178.397 42.0209C178.397 37.8779 175.04 34.5209 170.897 34.5209H157.566C153.423 34.5209 150.066 37.8779 150.066 42.0209C150.066 46.1639 153.424 49.5209 157.566 49.5209ZM481.554 450.911C487.908 457.265 491.408 465.741 491.408 474.776C491.408 483.811 487.908 492.286 481.554 498.639C474.975 505.217 466.331 508.507 457.69 508.507C449.047 508.507 440.407 505.218 433.827 498.638L380.29 445.102H49.3546C31.7526 445.102 17.4336 430.783 17.4336 413.181V35.4129C17.4336 17.8109 31.7526 3.49194 49.3546 3.49194H424.67C442.272 3.49194 456.591 17.8109 456.591 35.4129V230.292H469.53C483.334 230.292 494.564 241.521 494.564 255.325C494.564 269.129 483.334 280.359 469.53 280.359H464.556V326.632C464.556 330.895 462.046 334.778 458.161 336.527C457.648 336.758 457.122 336.944 456.59 337.09V413.181C456.59 416.895 455.928 420.563 454.67 424.028L481.554 450.911ZM419.782 463.382L446.296 436.869L360 350.571C352.253 360.454 343.334 369.35 333.467 377.066L419.782 463.382ZM375.543 230.292C363.651 164.441 306.062 115.776 238.239 115.776C161.291 115.776 98.6886 178.378 98.6886 255.325C98.6886 332.273 161.291 394.875 238.239 394.875C306.061 394.875 363.65 346.21 375.543 280.359H357.066C351.633 306.216 337.793 329.759 317.629 347.198C295.597 366.253 267.401 376.747 238.237 376.747C171.285 376.747 116.816 322.277 116.816 255.325C116.816 188.373 171.285 133.904 238.237 133.904C267.401 133.904 295.596 144.398 317.629 163.453C337.792 180.891 351.633 204.435 357.066 230.292H375.543ZM238.238 148.904C179.557 148.904 131.817 196.644 131.817 255.325C131.817 314.007 179.557 361.747 238.238 361.747C287.299 361.747 330.284 327.323 341.677 280.359H306.438C296.048 308.656 268.784 327.96 238.239 327.96C198.187 327.96 165.603 295.376 165.603 255.325C165.603 215.274 198.187 182.69 238.239 182.69C268.783 182.69 296.049 201.997 306.438 230.292H341.677C330.285 183.328 287.299 148.904 238.238 148.904ZM441.592 410.949V330.391L433.259 323.007L420.006 334.752C417.985 336.544 415.408 337.481 412.801 337.481C411.297 337.481 409.783 337.169 408.361 336.53C404.473 334.782 401.962 330.897 401.962 326.634V280.361H390.766C387.34 301.431 379.702 320.964 368.785 338.142L441.592 410.949ZM449.558 280.359H416.961V317.407L428.284 307.372C431.124 304.856 435.393 304.856 438.233 307.372L449.557 317.407V280.359H449.558ZM469.531 245.292H300.982C297.616 245.292 294.662 243.049 293.757 239.807C286.843 215.009 264.013 197.691 238.238 197.691C206.458 197.691 180.602 223.545 180.602 255.326C180.602 287.107 206.457 312.961 238.238 312.961C264.011 312.961 286.842 295.643 293.757 270.846C294.661 267.604 297.615 265.361 300.982 265.361H469.531C475.064 265.361 479.565 260.86 479.565 255.328C479.565 249.793 475.064 245.292 469.531 245.292ZM32.4346 35.4129V65.5489H441.592V35.4129C441.592 26.0829 434.001 18.4919 424.671 18.4919H49.3546C40.0246 18.4919 32.4346 26.0829 32.4346 35.4129ZM365.289 430.103L321.03 385.844C296.994 401.098 268.54 409.875 238.24 409.875C153.021 409.875 83.6896 340.544 83.6896 255.325C83.6896 170.106 153.021 100.776 238.24 100.776C314.267 100.776 378.688 155.999 390.766 230.292H441.593V80.549H32.4346V413.182C32.4346 422.512 40.0256 430.103 49.3556 430.103H365.289ZM476.406 474.776C476.406 469.748 474.468 465.039 470.946 461.518L456.903 447.475L430.39 473.989L444.433 488.032C447.954 491.553 452.662 493.492 457.689 493.492C462.718 493.492 467.426 491.553 470.948 488.032C474.468 484.512 476.406 479.805 476.406 474.776ZM271.97 255.325C271.97 273.925 256.838 289.056 238.239 289.056C219.64 289.056 204.508 273.924 204.508 255.325C204.508 236.726 219.64 221.594 238.239 221.594C256.838 221.594 271.97 236.726 271.97 255.325ZM256.97 255.325C256.97 244.997 248.567 236.594 238.239 236.594C227.911 236.594 219.508 244.997 219.508 255.325C219.508 265.653 227.911 274.056 238.239 274.056C248.567 274.056 256.97 265.653 256.97 255.325Z" fill="url(#paint0_linear_2054_4)"/>
<defs>
<linearGradient id="paint0_linear_2054_4" x1="255.999" y1="3.49194" x2="255.999" y2="508.507" gradientUnits="userSpaceOnUse">
<stop stop-color="#F9CF2F"/>
<stop offset="1" stop-color="#0B559B"/>
</linearGradient>
</defs>
</svg>
