<svg width="512" height="512" viewBox="0 0 512 512" fill="none" xmlns="http://www.w3.org/2000/svg">
<path d="M484.76 1.8999H133.98C119.5 1.8999 107.74 13.6599 107.74 28.0799V60.9599H107.69V273.75H20.98C9.98 273.75 1 282.73 1 293.78V488.49C1 499.54 9.98 508.52 20.98 508.52H215.75C226.8 508.52 235.73 499.54 235.73 488.49V405.1H484.71C499.24 405.1 511 393.29 511 378.81V28.0799C511 13.6599 499.24 1.8999 484.76 1.8999ZM224.84 488.49C224.84 493.55 220.76 497.64 215.75 497.64H20.98C15.97 497.64 11.89 493.56 11.89 488.49V293.78C11.89 288.72 15.97 284.63 20.98 284.63H179.93V314.08C179.93 322.63 186.9 329.59 195.39 329.59H224.84V488.49ZM224.84 318.71H195.39C192.89 318.71 190.82 316.64 190.82 314.08V284.63H215.75C220.76 284.63 224.84 288.71 224.84 293.78V318.71ZM500.11 378.8C500.11 387.29 493.2 394.2 484.7 394.2H235.72V293.78C235.72 282.73 226.79 273.75 215.74 273.75H118.57V71.8499H500.1V378.8H500.11ZM500.11 60.9599H118.63V28.0799C118.63 19.6399 125.49 12.7799 133.98 12.7799H484.76C493.2 12.7799 500.11 19.6399 500.11 28.0799V60.9599ZM408.31 36.8299C408.16 45.2299 395.75 45.1799 395.61 36.8299C395.76 28.5399 408.16 28.4999 408.31 36.8299ZM438.59 36.8299C438.44 45.2299 426.03 45.1799 425.89 36.8299C426.04 28.5399 438.44 28.4999 438.59 36.8299ZM468.87 36.8299C468.72 45.2299 456.31 45.1799 456.17 36.8299C456.32 28.5399 468.72 28.4999 468.87 36.8299ZM159.41 228.4H461.69C468.66 228.4 474.32 222.74 474.32 215.83V110.11C474.32 103.14 468.66 97.4799 461.69 97.4799H159.41C152.44 97.4799 146.78 103.14 146.78 110.11V215.82C146.78 222.74 152.44 228.4 159.41 228.4ZM157.66 110.11C157.66 109.13 158.48 108.37 159.4 108.37H461.68C462.66 108.37 463.42 109.13 463.42 110.11V166.07L401.42 138.36C395.49 135.75 388.57 136.13 383.02 139.45L318.9 177.77C317.43 178.64 315.63 178.75 314.06 178.04L238.78 144.34C233.34 141.89 227.08 142.05 221.74 144.72L157.67 176.51V110.11H157.66ZM157.66 188.66L226.57 154.47C229.02 153.22 231.85 153.16 234.35 154.31L309.58 188C314.42 190.12 319.92 189.8 324.44 187.13L388.56 148.81C391.12 147.29 394.28 147.12 396.94 148.32L463.4 177.99V215.82C463.4 216.75 462.64 217.51 461.66 217.51H159.41C158.48 217.51 157.67 216.75 157.67 215.82V188.66H157.66ZM307.63 155.02C330.56 154.41 330.5 120.94 307.63 120.35C284.84 120.96 284.79 154.4 307.63 155.02ZM307.63 131.24C316.12 131.37 316.17 144 307.63 144.14C299.16 143.98 299.22 131.37 307.63 131.24ZM468.88 264.43H449.48C445.05 251.72 425.79 251.76 421.35 264.43H374.27C371.26 264.43 368.83 266.87 368.83 269.87C368.83 272.87 371.26 275.31 374.27 275.31H421.34C425.96 287.98 444.88 288.02 449.49 275.31H468.88C476 275.28 476 264.46 468.88 264.43ZM435.44 274.07C429.88 274.06 429.93 265.66 435.44 265.63C440.91 265.65 440.96 274.08 435.44 274.07ZM468.88 306.98H421.76C417.39 294.28 398.07 294.34 393.64 306.98H374.26C371.25 306.98 368.82 309.42 368.82 312.42C368.82 315.43 371.25 317.86 374.26 317.86H393.62C398.23 330.55 417.19 330.59 421.78 317.86H468.88C476 317.84 476.01 307.01 468.88 306.98ZM407.74 316.64C402.16 316.6 402.23 308.24 407.74 308.2C413.18 308.24 413.24 316.59 407.74 316.64ZM468.88 349.53H449.49C445.1 336.85 425.75 336.9 421.34 349.53H374.27C371.26 349.53 368.83 351.97 368.83 354.97C368.83 357.98 371.26 360.41 374.27 360.41H421.35C425.79 373.08 445.06 373.12 449.48 360.41H468.88C476 360.39 476 349.56 468.88 349.53ZM435.44 359.21C429.92 359.18 429.88 350.78 435.44 350.77C440.95 350.76 440.91 359.19 435.44 359.21ZM39.41 364.16C42.34 364.82 45.26 362.97 45.91 360.03L50.24 340.53H58.27L62.6 360.03C63.16 362.57 65.42 364.29 67.91 364.29C71.34 364.33 74.02 361.02 73.23 357.67L64.12 316.69C63.57 314.2 61.36 312.43 58.8 312.43H49.69C47.14 312.43 44.93 314.2 44.37 316.69L35.26 357.67C34.62 360.6 36.47 363.51 39.41 364.16ZM54.06 323.31H54.44L55.85 329.64H52.66L54.06 323.31ZM86.95 364.27H100.61C102.08 364.27 103.44 363.73 104.47 362.69L118.13 349.03C119.11 348 119.71 346.63 119.71 345.17V331.5C119.71 330.08 119.11 328.67 118.13 327.69L104.47 314.03C103.44 313 102.08 312.45 100.61 312.45H86.95C83.96 312.45 81.51 314.85 81.51 317.89V358.82C81.51 361.88 83.96 364.27 86.95 364.27ZM92.4 323.34H98.39L108.84 333.79V342.94L98.39 353.39H92.4V323.34ZM155.21 353.4V343.8H133.34C130.33 343.8 127.9 341.36 127.9 338.36V317.87C127.9 314.86 130.33 312.43 133.34 312.43H160.66C167.77 312.46 167.79 323.28 160.66 323.32H138.79V332.92H160.66C163.67 332.92 166.1 335.36 166.1 338.36V358.85C166.1 361.86 163.67 364.29 160.66 364.29H133.34C126.23 364.26 126.21 353.44 133.34 353.4C133.33 353.4 155.21 353.4 155.21 353.4ZM216.48 300.73L215.54 301.67C222.52 307.35 213.52 316.34 207.84 309.37C202.16 316.35 193.16 307.35 200.14 301.67C193.16 295.99 202.16 287 207.84 293.97C212.65 287.55 221.86 294.74 216.48 300.73ZM35.14 394.2C35.14 391.19 37.57 388.76 40.58 388.76H114.27C117.28 388.76 119.71 391.2 119.71 394.2C119.71 397.2 117.28 399.64 114.27 399.64H40.59C37.58 399.64 35.14 397.2 35.14 394.2ZM196.27 431.39C196.27 434.4 193.84 436.83 190.83 436.83H40.59C37.58 436.83 35.15 434.39 35.15 431.39C35.15 428.39 37.58 425.95 40.59 425.95H190.83C193.84 425.95 196.27 428.39 196.27 431.39ZM196.27 468.59C196.27 471.6 193.84 474.03 190.83 474.03H40.59C37.58 474.03 35.15 471.59 35.15 468.59C35.15 465.59 37.58 463.15 40.59 463.15H190.83C193.84 463.15 196.27 465.59 196.27 468.59ZM361.63 450.28L368.49 443.04C371.36 440.16 369.8 434.79 365.77 434L309.32 420.66C305.42 419.63 301.56 423.71 302.9 427.52L319.56 483.1C320.67 487.02 326.04 488.26 328.76 485.22L335.62 477.98L368.17 508.63C369.2 509.61 370.57 510.1 371.87 510.1C373.34 510.1 374.75 509.56 375.84 508.41L394.46 488.65C395.44 487.56 395.98 486.2 395.93 484.73C395.88 483.31 395.28 481.9 394.24 480.92L361.63 450.28ZM371.65 496.98L339.1 466.33C336.98 464.27 333.45 464.37 331.42 466.55L327.28 470.9L316.01 433.45L354.11 442.43L349.97 446.78C347.9 448.96 348.01 452.39 350.24 454.46L382.79 485.11L371.65 496.98ZM285.64 264.44H261.96C256.9 264.44 252.81 268.52 252.81 273.58V351.26C252.81 356.32 256.89 360.41 261.96 360.41H285.64C290.7 360.41 294.79 356.33 294.79 351.26V273.58C294.78 268.52 290.7 264.44 285.64 264.44ZM283.9 349.52H263.7V275.33H283.9V349.52ZM342.58 264.44H316.02C311.77 264.44 308.34 267.87 308.34 272.12V299.45C308.34 303.7 311.77 307.13 316.02 307.13H342.58C346.83 307.13 350.31 303.7 350.31 299.45V272.12C350.31 267.87 346.82 264.44 342.58 264.44ZM339.42 296.23H319.22V275.33H339.42V296.23ZM342.58 317.73H316.02C311.77 317.73 308.34 321.16 308.34 325.41V352.74C308.34 356.99 311.77 360.42 316.02 360.42H342.58C346.83 360.42 350.31 356.99 350.31 352.74V325.4C350.31 321.16 346.82 317.73 342.58 317.73ZM339.42 349.52H319.22V328.62H339.42V349.52Z" fill="url(#paint0_linear_2054_9)"/>
<defs>
<linearGradient id="paint0_linear_2054_9" x1="256" y1="1.8999" x2="256" y2="510.1" gradientUnits="userSpaceOnUse">
<stop stop-color="#F9CF2F"/>
<stop offset="1" stop-color="#0B559B"/>
</linearGradient>
</defs>
</svg>
