<svg width="108" height="102" viewBox="0 0 108 102" fill="none" xmlns="http://www.w3.org/2000/svg">
<circle cx="54" cy="51" r="51" fill="#F7CE30"/>
<g clip-path="url(#clip0_1851_192)">
<path d="M68 49C67.621 49 67.249 49.031 66.876 49.057L70.876 45.0511C72.8461 43.0795 74.1872 40.5679 74.7298 37.834C75.2723 35.1002 74.9919 32.2668 73.9241 29.6923C72.8562 27.1178 71.0488 24.9178 68.7305 23.3706C66.4122 21.8234 63.6872 20.9984 60.9 21H60.89C59.0376 20.9951 57.2027 21.3576 55.4913 22.0665C53.78 22.7754 52.2262 23.8167 50.92 25.13L44.51 31.549C42.7557 33.3047 41.4974 35.4935 40.863 37.893C38.4654 38.5157 36.2805 39.7744 34.539 41.536L28.115 47.9471C25.4734 50.5964 23.9925 54.1867 23.9981 57.9279C24.0036 61.6692 25.4951 65.255 28.1445 67.8965C30.7939 70.5381 34.3841 72.019 38.1253 72.0135C41.8666 72.0079 45.4524 70.5164 48.094 67.8671L52.056 63.9001C52.031 64.2651 52 64.629 52 65C52 68.1646 52.9384 71.258 54.6965 73.8892C56.4546 76.5204 58.9534 78.5711 61.8771 79.7821C64.8007 80.9931 68.0177 81.31 71.1214 80.6926C74.2251 80.0753 77.0761 78.5514 79.3137 76.3138C81.5513 74.0761 83.0752 71.2252 83.6926 68.1215C84.3099 65.0178 83.9931 61.8007 82.7821 58.8771C81.5711 55.9535 79.5203 53.4546 76.8891 51.6965C74.2579 49.9384 71.1645 49 68 49ZM45.924 32.963L52.335 26.543C53.4557 25.416 54.789 24.5225 56.2575 23.9143C57.726 23.3061 59.3005 22.9954 60.89 23H60.9C63.2915 22.9988 65.6296 23.7067 67.6188 25.0342C69.6079 26.3618 71.1588 28.2493 72.0752 30.4582C72.9917 32.6671 73.2325 35.0982 72.7674 37.444C72.3022 39.7898 71.152 41.945 69.462 43.637L63.435 49.673C61.0701 50.3813 58.9016 51.6283 57.1 53.3161C54.229 53.96 51.2217 53.532 48.6444 52.1126C46.067 50.6933 44.0976 48.3806 43.107 45.6101C43.3378 45.5563 43.5715 45.5163 43.807 45.49C43.832 45.49 43.857 45.48 43.882 45.477C44.045 45.46 44.207 45.46 44.37 45.456C44.487 45.456 44.605 45.4461 44.722 45.4501C44.863 45.4501 45.002 45.4711 45.142 45.4851C45.282 45.4991 45.418 45.514 45.555 45.538C45.692 45.562 45.807 45.588 45.932 45.618C46.08 45.653 46.226 45.694 46.371 45.74C46.484 45.776 46.597 45.814 46.708 45.857C46.863 45.917 47.015 45.986 47.165 46.057C47.265 46.104 47.365 46.149 47.454 46.202C47.621 46.294 47.781 46.402 47.939 46.507C48.011 46.557 48.086 46.6 48.156 46.653C48.3845 46.8233 48.6007 47.0094 48.803 47.21C48.825 47.232 48.85 47.248 48.872 47.269C49.9958 48.3646 51.4146 49.1089 52.9548 49.4108C54.4949 49.7127 56.0897 49.5592 57.544 48.969C58.5304 48.5552 59.4276 47.9545 60.186 47.2001L66.596 40.781C68.1057 39.2693 68.9537 37.2201 68.9537 35.0835C68.9537 32.947 68.1057 30.8978 66.596 29.386C65.079 27.8842 63.0298 27.0429 60.8951 27.0455C58.7604 27.0482 56.7133 27.8945 55.2 29.4L48.79 35.818C48.2345 36.3726 47.7628 37.0053 47.39 37.696C47.168 37.651 46.944 37.62 46.721 37.585C46.632 37.571 46.544 37.553 46.455 37.541C45.9641 37.4749 45.4701 37.4342 44.975 37.4191C44.875 37.4191 44.775 37.4191 44.675 37.4191C44.141 37.4092 43.6068 37.4292 43.075 37.479C43.6759 35.78 44.6493 34.237 45.924 32.963ZM41.272 46.4C41.9688 48.3159 43.0777 50.0554 44.5206 51.4956C45.9634 52.9359 47.7049 54.0417 49.622 54.7351C49.3892 55.1103 49.1173 55.4599 48.811 55.778L42.388 62.19C41.2529 63.3262 39.7129 63.965 38.1068 63.9657C36.5008 63.9665 34.9602 63.3292 33.824 62.194C32.6878 61.0589 32.0491 59.5189 32.0483 57.9129C32.0476 56.3068 32.6849 54.7662 33.82 53.6301L40.236 47.216C40.5499 46.9064 40.8974 46.6327 41.272 46.4ZM57.721 46.6241C57.0285 44.7061 55.9229 42.9637 54.4824 41.5204C53.0418 40.0772 51.3017 38.9682 49.385 38.272C49.6194 37.8979 49.894 37.5505 50.204 37.236L56.614 30.817C57.7511 29.6846 59.2897 29.0473 60.8945 29.0441C62.4993 29.041 64.0404 29.6721 65.182 30.8C66.3159 31.9367 66.9526 33.4766 66.9526 35.082C66.9526 36.6875 66.3159 38.2274 65.182 39.364L58.772 45.7831C58.453 46.0993 58.1006 46.3799 57.721 46.6201V46.6241ZM46.679 66.453C45.5567 67.5791 44.2236 68.4731 42.7558 69.084C41.2881 69.6949 39.7143 70.0107 38.1245 70.0134C34.9137 70.0189 31.8322 68.7486 29.558 66.482C27.2838 64.2155 26.0031 61.1384 25.9976 57.9276C25.9922 54.7167 27.2624 51.6353 29.529 49.361L35.955 42.9471C37.5784 41.3004 39.6505 40.1677 41.913 39.6901C43.8201 39.2679 45.8009 39.3125 47.687 39.82C49.5641 40.3269 51.291 41.2795 52.7209 42.5969C54.1508 43.9144 55.2414 45.5577 55.9 47.387C55.4294 47.4972 54.9473 47.5509 54.464 47.5471C54.423 47.5471 54.382 47.5471 54.341 47.5471C54.1403 47.5408 53.94 47.5245 53.741 47.498C53.67 47.489 53.6 47.4821 53.53 47.4711C53.346 47.4421 53.164 47.4021 52.984 47.3561C52.9 47.3351 52.817 47.3121 52.734 47.2871C52.566 47.2371 52.399 47.18 52.234 47.115C52.14 47.077 52.047 47.0351 51.955 46.9921C51.806 46.9241 51.655 46.855 51.515 46.774C51.403 46.711 51.296 46.6381 51.187 46.5681C51.078 46.4981 50.949 46.419 50.837 46.334C50.6157 46.1692 50.4061 45.9891 50.21 45.795C49.914 45.5006 49.5953 45.2297 49.257 44.9851C47.7072 43.8468 45.8 43.3034 43.8831 43.454C41.9661 43.6045 40.1671 44.4389 38.814 45.805L32.4 52.217C30.8954 53.7312 30.0519 55.7797 30.054 57.9143C30.0561 60.0489 30.9035 62.0958 32.411 63.607C33.9231 65.1147 35.9716 65.9608 38.1069 65.9595C40.2422 65.9582 42.2898 65.1096 43.8 63.6L50.227 57.184C50.7758 56.6248 51.2425 55.9905 51.613 55.3C52.5591 55.4987 53.5232 55.5993 54.49 55.6C54.695 55.6 54.899 55.5751 55.103 55.5661C54.0159 57.0428 53.1918 58.696 52.667 60.453L46.679 66.453ZM68 79C65.2311 79 62.5243 78.179 60.222 76.6406C57.9197 75.1023 56.1253 72.9158 55.0657 70.3576C54.006 67.7995 53.7288 64.9845 54.269 62.2688C54.8092 59.553 56.1426 57.0585 58.1005 55.1006C60.0584 53.1426 62.553 51.8092 65.2687 51.2691C67.9845 50.7289 70.7994 51.0061 73.3576 52.0657C75.9157 53.1254 78.1022 54.9198 79.6406 57.2221C81.1789 59.5244 82 62.2311 82 65C81.996 68.7119 80.5197 72.2705 77.8951 74.8952C75.2705 77.5198 71.7118 78.9961 68 79Z" fill="black"/>
<path d="M77.4188 57.6708L75.3278 55.5788C74.9548 55.2081 74.4503 55 73.9243 55C73.3984 55 72.8939 55.2081 72.5208 55.5788L70.5208 57.5788L66.9488 56.3888C66.4519 56.2202 65.9175 56.1946 65.4067 56.315C64.8959 56.4354 64.4292 56.697 64.0598 57.0698L64.0328 57.0978C63.5128 57.6289 63.2235 58.3438 63.2279 59.087C63.2322 59.8303 63.5297 60.5418 64.0558 61.0668L65.5438 62.5558L58.5958 69.5038C58.41 69.6895 58.2626 69.9101 58.1621 70.1528C58.0615 70.3955 58.0098 70.6556 58.0098 70.9183C58.0098 71.181 58.0615 71.4412 58.1621 71.6839C58.2626 71.9266 58.41 72.1471 58.5958 72.3328L60.6658 74.4028C61.0409 74.7778 61.5495 74.9884 62.0798 74.9884C62.6102 74.9884 63.1188 74.7778 63.4938 74.4028L70.4428 67.4538L71.8268 68.8378C72.1994 69.2098 72.7044 69.4188 73.2308 69.4188C73.7573 69.4188 74.2623 69.2098 74.6348 68.8378L77.4218 66.0508C77.6063 65.8664 77.7526 65.6474 77.8525 65.4064C77.9523 65.1655 78.0037 64.9072 78.0037 64.6463C78.0037 64.3855 77.9523 64.1272 77.8525 63.8862C77.7526 63.6452 77.6063 63.4262 77.4218 63.2418L76.0388 61.8588L77.4218 60.4748C77.792 60.1019 77.9995 59.5976 77.9989 59.0722C77.9983 58.5468 77.7898 58.0429 77.4188 57.6708ZM62.0768 72.9928L60.0068 70.9228L66.9558 63.9738L69.0258 66.0438L62.0768 72.9928ZM73.2378 67.4278L71.1468 65.3368L67.6628 61.8528L65.4628 59.6528C65.3861 59.5768 65.3252 59.4863 65.2836 59.3865C65.2421 59.2868 65.2207 59.1798 65.2207 59.0718C65.2207 58.9638 65.2421 58.8568 65.2836 58.7571C65.3252 58.6574 65.3861 58.5669 65.4628 58.4908L65.4808 58.4708C65.589 58.3677 65.7233 58.296 65.8692 58.2634C66.015 58.2308 66.167 58.2386 66.3088 58.2858L71.0708 59.8728C71.2139 59.9208 71.344 60.0013 71.4508 60.1078L73.8908 62.5378C73.8988 62.5468 73.9018 62.5578 73.9098 62.5658C73.9178 62.5738 73.9298 62.5768 73.9388 62.5858L76.0008 64.6408L73.2378 67.4278ZM72.8698 58.6998C72.7569 58.5958 72.6363 58.5005 72.5088 58.4148L73.9148 56.9968L76.0008 59.0648L74.6178 60.4488L72.8698 58.6998Z" fill="black"/>
</g>
<defs>
<clipPath id="clip0_1851_192">
<rect width="60" height="60" fill="white" transform="translate(24 21)"/>
</clipPath>
</defs>
</svg>
