<svg width="108" height="102" viewBox="0 0 108 102" fill="none" xmlns="http://www.w3.org/2000/svg">
<circle cx="54" cy="51" r="51" fill="#F7CE30"/>
<path d="M63.6193 64.1801C69.1593 56.9801 75.2193 47.6501 75.2193 41.3001C75.2193 29.6001 65.6993 20.0801 53.9993 20.0801C42.2993 20.0801 32.7793 29.6001 32.7793 41.3001C32.7793 47.6501 38.8393 56.9701 44.3793 64.1801C37.6293 65.7801 33.4893 68.9101 33.4893 72.5201C33.4893 77.7901 42.4993 81.9201 53.9893 81.9201C65.4793 81.9201 74.4893 77.7901 74.4893 72.5201C74.4993 68.9001 70.3693 65.7701 63.6193 64.1801ZM53.9993 21.9601C64.6693 21.9601 73.3393 30.6401 73.3393 41.3001C73.3393 50.8601 57.5093 68.8701 53.9993 72.7501C50.4893 68.8701 34.6593 50.8701 34.6593 41.3001C34.6593 30.6401 43.3293 21.9601 53.9993 21.9601ZM53.3193 74.7701C53.4993 74.9601 53.7393 75.0701 53.9993 75.0701C54.2593 75.0701 54.5093 74.9601 54.6793 74.7701C54.9193 74.5101 56.7793 72.5101 59.2793 69.5501C61.8393 70.2401 63.5893 71.4201 63.5893 72.5101C63.5893 74.2201 59.4893 76.1301 53.9993 76.1301C48.5093 76.1301 44.4093 74.2201 44.4093 72.5101C44.4093 71.4201 46.1593 70.2401 48.7193 69.5501C51.2093 72.5201 53.0693 74.5101 53.3193 74.7701ZM53.9993 80.0401C42.8593 80.0401 35.3693 76.1501 35.3693 72.5101C35.3693 69.7701 39.4793 67.1101 45.6593 65.8101C46.2593 66.5601 46.8393 67.2801 47.3993 67.9701C44.3193 68.9601 42.5293 70.6101 42.5293 72.5101C42.5293 75.6401 47.4593 78.0001 53.9993 78.0001C60.5393 78.0001 65.4693 75.6401 65.4693 72.5101C65.4693 70.6101 63.6793 68.9701 60.5993 67.9701C61.1593 67.2901 61.7393 66.5601 62.3393 65.8101C68.5193 67.1101 72.6293 69.7601 72.6293 72.5101C72.6293 76.1501 65.1393 80.0401 53.9993 80.0401Z" fill="black"/>
<path d="M69.1394 40.8295C69.1394 32.4795 62.3494 25.6895 53.9994 25.6895C45.6494 25.6895 38.8594 32.4795 38.8594 40.8295C38.8594 49.1795 45.6494 55.9695 53.9994 55.9695C62.3494 55.9695 69.1394 49.1695 69.1394 40.8295ZM40.7294 40.8295C40.7294 33.5195 46.6794 27.5595 53.9994 27.5595C61.3194 27.5595 67.2694 33.5095 67.2694 40.8295C67.2694 48.1495 61.3094 54.0895 53.9994 54.0895C46.6894 54.0895 40.7294 48.1395 40.7294 40.8295Z" fill="black"/>
<path d="M45.7789 39.8907C45.2189 39.8907 44.7589 39.4307 44.7589 38.8707C44.7589 38.3107 45.2189 37.8507 45.7789 37.8507C46.2189 37.8507 46.5989 38.1307 46.7389 38.5407C46.9089 39.0307 47.4389 39.2907 47.9289 39.1207C48.4189 38.9507 48.6789 38.4207 48.5089 37.9307C48.1089 36.7607 47.0089 35.9707 45.7689 35.9707C44.1789 35.9707 42.8789 37.2707 42.8789 38.8607C42.8789 40.4507 44.1789 41.7507 45.7689 41.7507C46.3289 41.7507 46.7889 42.2107 46.7889 42.7707C46.7889 43.3307 46.3289 43.7907 45.7689 43.7907C45.3589 43.7907 44.9889 43.5507 44.8289 43.1707C44.6289 42.6907 44.0789 42.4707 43.5989 42.6707C43.1189 42.8707 42.8989 43.4207 43.0989 43.9007C43.5489 44.9707 44.5989 45.6607 45.7589 45.6607C47.3489 45.6607 48.6489 44.3607 48.6489 42.7707C48.6489 41.1807 47.3789 39.8907 45.7789 39.8907Z" fill="black"/>
<path d="M55.8094 44.7307C55.8094 44.2107 55.3894 43.7907 54.8694 43.7907H52.4794V41.7607H54.8694C55.3894 41.7607 55.8094 41.3407 55.8094 40.8207C55.8094 40.3007 55.3894 39.8807 54.8694 39.8807H52.4794V37.8507H54.8694C55.3894 37.8507 55.8094 37.4307 55.8094 36.9107C55.8094 36.3907 55.3894 35.9707 54.8694 35.9707H51.5494C51.0294 35.9707 50.6094 36.3907 50.6094 36.9107V44.7207C50.6094 45.2407 51.0294 45.6607 51.5494 45.6607H54.8694C55.3894 45.6707 55.8094 45.2507 55.8094 44.7307Z" fill="black"/>
<path d="M61.43 45.6705C63.46 45.6705 65.11 44.0205 65.11 41.9905V39.6605C65.11 37.6305 63.46 35.9805 61.43 35.9805C59.4 35.9805 57.75 37.6305 57.75 39.6605V41.9905C57.76 44.0205 59.4 45.6705 61.43 45.6705ZM59.63 39.6605C59.63 38.6705 60.44 37.8605 61.43 37.8605C62.42 37.8605 63.23 38.6705 63.23 39.6605V41.9905C63.23 42.9805 62.42 43.7905 61.43 43.7905C60.44 43.7905 59.63 42.9805 59.63 41.9905V39.6605Z" fill="black"/>
</svg>
