<svg width="500" height="500" viewBox="0 0 500 500" fill="none" xmlns="http://www.w3.org/2000/svg">
<path d="M408.691 339.332H406.013V305.137C406.013 300.819 402.519 297.324 398.201 297.324H387.344V280.746C387.344 264.747 377.716 250.648 362.808 244.834L281.013 212.923V202.274C294.294 193.054 302.829 178.414 304.285 162.345H309.494C321.144 162.345 330.62 152.869 330.62 141.219C330.62 132.445 325.242 124.914 317.612 121.726V119.743C317.612 82.4577 287.285 52.1309 250 52.1309C212.719 52.1309 182.388 82.4577 182.388 119.743V121.727C174.76 124.916 169.384 132.447 169.384 141.219C169.384 152.869 178.86 162.345 190.51 162.345H195.715C197.171 178.414 205.703 193.055 218.987 202.274V212.922L145.422 241.623C145.425 241.622 145.42 241.624 145.422 241.623L137.192 244.834C122.288 250.648 112.656 264.747 112.656 280.746V297.324H101.795C97.4808 297.324 93.9827 300.819 93.9827 305.137V339.332H91.3086C82.5577 339.332 75.4395 346.45 75.4395 355.201V382.056C75.4395 390.807 82.5577 397.926 91.3086 397.926H93.9827V440.055C93.9827 444.373 97.4808 447.868 101.795 447.868H398.201C402.519 447.868 406.013 444.373 406.013 440.055V397.926H408.691C417.442 397.926 424.561 390.807 424.561 382.056V355.201C424.561 346.45 417.442 339.332 408.691 339.332ZM304.611 135.719H309.494C312.531 135.719 314.995 138.183 314.995 141.219C314.995 144.256 312.531 146.72 309.494 146.72H304.611V135.719ZM195.389 146.72H190.51C187.477 146.72 185.009 144.256 185.009 141.219C185.009 138.183 187.477 135.719 190.51 135.719H195.389V146.72ZM250 67.7559C270.681 67.7559 288.53 79.9276 296.896 97.4571H203.104C211.469 79.9276 229.316 67.7559 250 67.7559ZM198.013 120.094V119.743C198.013 117.481 198.208 115.268 198.489 113.082H301.511C301.792 115.268 301.987 117.481 301.987 119.743V120.094C300.139 120.094 198.013 120.094 198.013 120.094ZM211.014 157.478V154.57C211.014 154.557 211.021 154.546 211.021 154.533V135.68H288.979V154.533C288.979 154.546 288.986 154.557 288.986 154.57V157.478C288.986 171.409 281.448 184.379 269.318 191.322C269.314 191.324 269.311 191.328 269.308 191.33C257.62 198.043 242.366 198.043 230.694 191.329C230.688 191.325 230.68 191.325 230.674 191.321C218.548 184.377 211.014 171.408 211.014 157.478ZM265.388 209.876V214.881C254.684 224.326 245.338 224.334 234.612 214.881V209.876C244.553 212.791 255.44 212.791 265.388 209.876ZM188.325 241.656L191.33 254.287L174.751 265.258L161.957 251.943L188.325 241.656ZM128.281 280.746C128.281 271.232 134.007 262.847 142.868 259.391L146.191 258.094L167.999 280.784C169.521 282.363 171.57 283.179 173.637 283.179C175.125 283.179 176.628 282.752 177.944 281.882L204.506 264.304C207.241 262.496 208.553 259.17 207.794 255.981L203.021 235.922L225.278 227.239C233.282 233.993 241.568 237.617 250 237.617C258.437 237.617 266.721 233.988 274.721 227.239L306.541 239.654L290.459 262.016C289.085 263.923 288.643 266.349 289.253 268.615C289.871 270.881 291.473 272.758 293.617 273.711L323.189 286.895C324.226 287.36 325.302 287.574 326.363 287.574C329.353 287.574 332.207 285.85 333.504 282.943C335.266 278.999 333.488 274.383 329.552 272.628L308.746 263.351L321.568 245.516L357.132 259.391C365.99 262.847 371.719 271.232 371.719 280.746V297.324H128.281V280.746ZM91.0645 382.056L91.3086 354.957H101.682C101.722 354.957 101.755 354.98 101.795 354.98C101.835 354.98 101.869 354.957 101.909 354.957H103.882C108.704 354.957 112.629 358.886 112.629 363.708V373.557C112.629 378.379 108.704 382.301 103.882 382.301L91.0645 382.056ZM390.388 432.243H109.608V397.175C120.279 394.582 128.254 385.012 128.254 373.557V363.708C128.254 352.246 120.279 342.675 109.608 340.083V312.949H390.388V340.084C379.715 342.677 371.742 352.247 371.742 363.708V373.557C371.742 385.011 379.715 394.581 390.388 397.174V432.243ZM408.936 382.056C408.936 382.194 408.829 382.301 408.691 382.301H396.118C391.296 382.301 387.367 378.379 387.367 373.557V363.708C387.367 358.886 391.296 354.957 396.118 354.957L408.936 355.201V382.056Z" fill="black"/>
<path d="M309.67 352.294L253.517 323.974C251.305 322.86 248.696 322.86 246.483 323.974L190.331 352.294C186.478 354.232 184.929 358.932 186.871 362.785C188.813 366.638 193.508 368.186 197.365 366.241L200.52 364.65V414.291C200.52 418.609 204.018 422.103 208.332 422.103H291.664C295.983 422.103 299.477 418.609 299.477 414.291V364.648L302.635 366.241C303.765 366.813 304.962 367.08 306.145 367.08C309.006 367.08 311.753 365.509 313.126 362.785C315.071 358.932 313.523 354.232 309.67 352.294ZM283.852 406.478H216.145V356.771L250 339.698L283.852 356.769V406.478Z" fill="black"/>
</svg>
