<svg width="200" height="200" viewBox="0 0 200 200" fill="none" xmlns="http://www.w3.org/2000/svg">
<path d="M26.9766 114.633C29.0352 104.297 33.6484 94.4922 40.3164 86.2695C41.1328 85.2656 42.6094 85.1094 43.6133 85.9258C44.6172 86.7422 44.7734 88.2187 43.957 89.2227C37.7656 96.8555 33.4844 105.957 31.5742 115.547C31.3516 116.66 30.375 117.434 29.2773 117.434C29.125 117.434 28.9727 117.418 28.8164 117.387C27.5508 117.137 26.7266 115.902 26.9766 114.633ZM151.797 122.598C151.895 123.824 152.922 124.754 154.129 124.754C154.191 124.754 154.254 124.75 154.316 124.746C155.605 124.645 156.57 123.516 156.465 122.223C155.414 109.012 150.438 96.5781 142.07 86.2656C141.254 85.2617 139.777 85.1055 138.773 85.9219C137.77 86.7383 137.613 88.2148 138.43 89.2187C146.199 98.7969 150.82 110.336 151.797 122.598ZM109.422 185.508C103.547 187.352 97.4141 188.285 91.1953 188.285C81.2188 188.285 71.3281 185.816 62.5898 181.148C61.4492 180.539 60.0273 180.969 59.418 182.109C58.8086 183.25 59.2383 184.672 60.3789 185.281C69.793 190.313 80.4492 192.969 91.1914 192.969C97.8867 192.969 104.492 191.961 110.82 189.973C112.055 189.586 112.742 188.27 112.355 187.035C111.973 185.809 110.66 185.121 109.422 185.508ZM194.141 132.664V178.078C194.141 179.371 193.09 180.422 191.797 180.422H182.855C181.824 184.176 178.383 186.945 174.305 186.945C170.227 186.945 166.785 184.176 165.754 180.422H138.254H132.129C131.098 184.176 127.656 186.945 123.578 186.945C119.5 186.945 116.059 184.176 115.027 180.422H110.266C108.973 180.422 107.922 179.371 107.922 178.078V160.16C107.922 159.551 108.16 158.965 108.586 158.527L121.906 144.824C122.348 144.371 122.953 144.113 123.586 144.113H135.914V132.664C135.914 131.371 136.965 130.32 138.258 130.32H191.797C193.09 130.32 194.141 131.371 194.141 132.664ZM115.809 157.816H127.305V148.801H124.57L115.809 157.816ZM127.754 178.078C127.754 175.773 125.879 173.898 123.574 173.898C121.27 173.898 119.395 175.773 119.395 178.078C119.395 180.383 121.27 182.258 123.574 182.258C125.879 182.258 127.754 180.383 127.754 178.078ZM132.125 175.734H135.906V148.801H131.992V160.16C131.992 161.453 130.941 162.504 129.648 162.504H112.605V175.734H115.023C116.055 171.98 119.496 169.211 123.574 169.211C127.652 169.211 131.094 171.98 132.125 175.734ZM178.484 178.078C178.484 175.773 176.609 173.898 174.305 173.898C172 173.898 170.125 175.773 170.125 178.078C170.125 180.383 172 182.258 174.305 182.258C176.609 182.258 178.484 180.383 178.484 178.078ZM189.453 135.008H140.598V175.734H165.754C166.785 171.98 170.227 169.211 174.305 169.211C178.383 169.211 181.824 171.98 182.855 175.734H189.453V135.008ZM53.2852 170.102V184.605C53.2852 185.898 52.2344 186.949 50.9414 186.949H8.20312C6.91016 186.949 5.85938 185.898 5.85938 184.605V170.102C5.85938 159.887 14.1719 151.574 24.3867 151.574H34.7578C44.9727 151.574 53.2852 159.887 53.2852 170.102ZM48.5977 170.102C48.5977 162.473 42.3906 156.262 34.7578 156.262H24.3867C16.7578 156.262 10.5469 162.469 10.5469 170.102V182.262H15.9453V170.637C15.9453 169.344 16.9961 168.293 18.2891 168.293C19.582 168.293 20.6328 169.344 20.6328 170.637V182.262H38.5078V170.637C38.5078 169.344 39.5586 168.293 40.8516 168.293C42.1445 168.293 43.1953 169.344 43.1953 170.637V182.262H48.5938V170.102H48.5977ZM17.1797 135.684C17.1797 128.852 22.7383 123.289 29.5742 123.289C36.4102 123.289 41.9688 128.848 41.9688 135.684C41.9688 142.516 36.4102 148.078 29.5742 148.078C22.7383 148.078 17.1797 142.516 17.1797 135.684ZM21.8672 135.684C21.8672 139.934 25.3242 143.391 29.5742 143.391C33.8242 143.391 37.2813 139.934 37.2813 135.684C37.2813 131.434 33.8242 127.977 29.5742 127.977C25.3242 127.977 21.8672 131.434 21.8672 135.684ZM49.3633 82.4414V48.0547C49.3633 47.3125 49.7148 46.6172 50.3086 46.1758L70.8984 30.8594C71.6094 30.332 72.5586 30.2461 73.3477 30.6445C74.1406 31.043 74.6406 31.8516 74.6406 32.7383V44.3516L95.4844 29.0313C96.1953 28.5078 97.1445 28.4297 97.9297 28.8281C98.7187 29.2266 99.2148 30.0352 99.2148 30.918V46.6367H101.988L105.535 9.14844C105.648 7.94531 106.66 7.02734 107.867 7.02734H119.672C120.879 7.02734 121.891 7.94531 122.004 9.14844L125.551 46.6367H130.684C131.977 46.6367 133.027 47.6875 133.027 48.9805V82.4414C133.027 83.7344 131.977 84.7852 130.684 84.7852H51.707C50.4141 84.7852 49.3633 83.7383 49.3633 82.4414ZM76.9023 64.8867H66.2344V80.0977H76.9023V64.8867ZM106.695 46.6367H120.844L117.539 11.7148H110L106.695 46.6367ZM54.0508 80.0977H61.543V62.543C61.543 61.25 62.5938 60.1992 63.8867 60.1992H79.2422C80.5352 60.1992 81.5859 61.25 81.5859 62.543V80.0977H128.34V51.3242H96.8711C95.5781 51.3242 94.5273 50.2734 94.5273 48.9805V35.5508L73.6836 50.8711C72.9727 51.3945 72.0273 51.4727 71.2383 51.0742C70.4492 50.6758 69.9531 49.8672 69.9531 48.9844V37.4023L54.0508 49.2344V80.0977ZM101.793 72.0117C103.086 72.0117 104.137 70.9609 104.137 69.668V61.7539C104.137 60.4609 103.086 59.4102 101.793 59.4102C100.5 59.4102 99.4492 60.4609 99.4492 61.7539V69.668C99.4492 70.9648 100.5 72.0117 101.793 72.0117ZM110.93 72.0117C112.223 72.0117 113.273 70.9609 113.273 69.668V61.7539C113.273 60.4609 112.223 59.4102 110.93 59.4102C109.637 59.4102 108.586 60.4609 108.586 61.7539V69.668C108.586 70.9648 109.633 72.0117 110.93 72.0117ZM120.066 72.0117C121.359 72.0117 122.41 70.9609 122.41 69.668V61.7539C122.41 60.4609 121.359 59.4102 120.066 59.4102C118.773 59.4102 117.723 60.4609 117.723 61.7539V69.668C117.723 70.9648 118.77 72.0117 120.066 72.0117Z" fill="black"/>
</svg>
