<svg width="656" height="656" viewBox="0 0 656 656" fill="none" xmlns="http://www.w3.org/2000/svg">
<path fill-rule="evenodd" clip-rule="evenodd" d="M66.3681 200.016C64.6503 200.016 62.9291 199.362 61.6195 198.053C58.9776 195.433 58.9651 191.165 61.584 188.535L108.778 141.084C116.613 133.25 126.983 128.936 138.009 128.936L257.64 128.936C261.358 128.936 264.375 131.953 264.375 135.671C264.375 139.389 261.358 142.406 257.639 142.406L138.01 142.406C130.586 142.406 123.591 145.318 118.306 150.591L71.1378 198.029C69.8279 199.35 68.0972 200.017 66.3681 200.016Z" fill="url(#paint0_linear_1792_82)"/>
<path fill-rule="evenodd" clip-rule="evenodd" d="M588.993 200.016C587.262 200.016 585.531 199.35 584.221 198.029L537.031 150.579C531.861 145.294 524.88 142.406 517.349 142.406L397.722 142.406C394.001 142.406 390.984 139.389 390.984 135.671C390.987 131.952 394.001 128.936 397.72 128.936L517.351 128.936C528.364 128.936 539.04 133.379 546.617 141.12L593.764 188.534C596.394 191.165 596.382 195.433 593.739 198.053C592.43 199.362 590.71 200.017 588.993 200.016Z" fill="url(#paint1_linear_1792_82)"/>
<path fill-rule="evenodd" clip-rule="evenodd" d="M606.099 263.369H49.2615C40.6086 263.369 33.5674 256.331 33.5674 247.69L33.5681 202.239C33.5681 193.586 40.6068 186.547 49.2592 186.547L248.813 186.547C252.541 186.547 255.546 189.564 255.546 193.282C255.548 197 252.54 200.017 248.811 200.017L49.2615 200.017C48.0328 200.017 47.0376 201.011 47.0376 202.239L47.0384 247.689C47.0384 248.905 48.0316 249.899 49.2592 249.899L606.101 249.899C607.329 249.899 608.321 248.906 608.321 247.69V202.239C608.321 201.011 607.328 200.017 606.1 200.017L406.539 200.017C402.819 200.017 399.802 197.001 399.802 193.282C399.804 189.564 402.818 186.547 406.537 186.547L606.101 186.547C614.754 186.547 621.791 193.587 621.791 202.239V247.689C621.791 256.331 614.751 263.37 606.099 263.369Z" fill="url(#paint2_linear_1792_82)"/>
<path fill-rule="evenodd" clip-rule="evenodd" d="M49.7876 531.244C48.3011 531.244 47.0376 532.507 47.0376 533.992L47.0384 550.572C47.0384 552.057 48.3007 553.32 49.7857 553.32L605.565 553.319C606.546 553.319 607.2 552.817 607.503 552.502C607.809 552.197 608.322 551.543 608.322 550.572V533.992C608.322 532.506 607.059 531.244 605.563 531.244L49.7876 531.244ZM605.563 566.789H49.7876C40.8426 566.789 33.5674 559.517 33.5674 550.572L33.5681 533.992C33.5681 525.046 40.8403 517.774 49.7857 517.774L605.565 517.773C614.521 517.773 621.792 525.047 621.792 533.992V550.572C621.792 554.887 620.097 558.956 617.033 562.031C613.96 565.106 609.888 566.79 605.563 566.789Z" fill="url(#paint3_linear_1792_82)"/>
<path fill-rule="evenodd" clip-rule="evenodd" d="M66.3675 531.244C62.6499 531.244 59.6309 528.227 59.6309 524.509L59.6324 256.775C59.6324 253.057 62.6477 250.041 66.366 250.041C70.0847 250.04 73.1011 253.057 73.1011 256.776L73.1026 524.508C73.1026 528.226 70.0839 531.244 66.3675 531.244Z" fill="url(#paint4_linear_1792_82)"/>
<path fill-rule="evenodd" clip-rule="evenodd" d="M588.993 531.244C585.274 531.244 582.257 528.227 582.257 524.509L582.258 256.775C582.258 253.057 585.274 250.041 588.992 250.041C592.711 250.04 595.727 253.057 595.727 256.776L595.729 524.508C595.729 528.226 592.711 531.244 588.993 531.244Z" fill="url(#paint5_linear_1792_82)"/>
<path fill-rule="evenodd" clip-rule="evenodd" d="M534.855 531.244C531.138 531.244 528.119 528.227 528.119 524.509L528.12 335.902L432.6 335.82L432.518 524.509C432.518 528.227 429.513 531.244 425.783 531.244C422.066 531.244 419.048 528.227 419.048 524.509L419.048 335.902C419.048 328.43 425.128 322.35 432.599 322.35L528.038 322.35C535.511 322.35 541.589 328.43 541.589 335.902L541.59 524.509C541.59 528.227 538.573 531.244 534.855 531.244Z" fill="url(#paint6_linear_1792_82)"/>
<path fill-rule="evenodd" clip-rule="evenodd" d="M506.652 438.61C502.935 438.61 499.916 435.593 499.916 431.875L499.917 421.714C499.917 417.995 502.933 414.979 506.651 414.979C510.37 414.979 513.386 417.995 513.386 421.714L513.387 431.875C513.387 435.593 510.369 438.61 506.652 438.61Z" fill="url(#paint7_linear_1792_82)"/>
<path fill-rule="evenodd" clip-rule="evenodd" d="M342.915 444.352C339.197 444.352 336.18 441.336 336.18 437.617V336.567C336.18 336.321 336.016 335.959 335.56 335.959H142.29C142.043 335.959 141.668 336.123 141.668 336.567L141.669 437.616C141.669 441.336 138.652 444.352 134.933 444.352C131.217 444.352 128.198 441.336 128.198 437.617L128.199 336.567C128.199 328.802 134.512 322.489 142.288 322.489L335.562 322.488C343.338 322.488 349.65 328.803 349.65 336.567V437.616C349.65 441.336 346.633 444.352 342.915 444.352Z" fill="url(#paint8_linear_1792_82)"/>
<path fill-rule="evenodd" clip-rule="evenodd" d="M134.269 444.224C130.385 444.224 127.228 447.382 127.228 451.252C127.228 455.133 130.385 458.291 134.267 458.291H343.723C347.511 458.291 350.644 455.11 350.749 451.193C350.716 447.346 347.581 444.225 343.722 444.225L134.269 444.224ZM343.723 471.761H134.269C122.961 471.761 113.758 462.559 113.758 451.252C113.758 439.945 122.96 430.754 134.267 430.754L343.723 430.754C355.02 430.754 364.22 439.945 364.22 451.252C364.22 451.298 364.22 451.333 364.22 451.369C364.023 462.618 354.819 471.761 343.723 471.761Z" fill="url(#paint9_linear_1792_82)"/>
<path fill-rule="evenodd" clip-rule="evenodd" d="M302.82 444.352C299.103 444.352 296.085 441.337 296.085 437.618V329.084C296.085 325.366 299.102 322.35 302.82 322.35C306.54 322.349 309.555 325.366 309.555 329.085V437.617C309.555 441.336 306.538 444.353 302.82 444.352Z" fill="url(#paint10_linear_1792_82)"/>
<path fill-rule="evenodd" clip-rule="evenodd" d="M175.169 444.352C171.451 444.352 168.434 441.337 168.434 437.618V329.084C168.434 325.366 171.45 322.35 175.169 322.35C178.889 322.349 181.904 325.366 181.904 329.085V437.617C181.904 441.336 178.887 444.353 175.169 444.352Z" fill="url(#paint11_linear_1792_82)"/>
<path fill-rule="evenodd" clip-rule="evenodd" d="M327.679 102.042C286.871 102.042 253.674 135.238 253.674 176.035C253.674 216.843 286.871 250.04 327.679 250.04C368.477 250.039 401.672 216.843 401.672 176.035C401.673 135.238 368.476 102.043 327.679 102.042ZM327.679 263.509C279.447 263.509 240.204 224.269 240.204 176.035C240.204 127.813 279.446 88.5723 327.679 88.5723C375.914 88.5719 415.142 127.814 415.142 176.035C415.144 224.268 375.912 263.51 327.679 263.509Z" fill="url(#paint12_linear_1792_82)"/>
<path fill-rule="evenodd" clip-rule="evenodd" d="M327.679 165.394C321.81 165.394 317.039 170.176 317.039 176.035C317.04 181.904 321.809 186.675 327.679 186.675C333.549 186.675 338.32 181.904 338.32 176.035C338.321 170.176 333.549 165.394 327.679 165.394ZM327.679 200.145C314.385 200.145 303.568 189.329 303.568 176.035C303.57 162.739 314.385 151.924 327.679 151.924C340.976 151.923 351.79 162.74 351.79 176.035C351.791 189.329 340.974 200.145 327.679 200.145Z" fill="url(#paint13_linear_1792_82)"/>
<path fill-rule="evenodd" clip-rule="evenodd" d="M312.305 206.6C313.181 206.6 314.057 206.764 314.888 207.115C317.006 207.992 318.524 209.875 318.933 212.131C319.705 216.363 323.376 219.427 327.679 219.427C331.96 219.427 335.643 216.352 336.426 212.107C336.835 209.874 338.355 208.004 340.448 207.126C342.542 206.238 344.927 206.484 346.809 207.746C350.4 210.155 355.181 209.723 358.198 206.694C361.25 203.642 361.706 198.883 359.285 195.363C358.001 193.48 357.742 191.072 358.619 188.956C359.498 186.85 361.378 185.331 363.635 184.922C367.869 184.15 370.931 180.467 370.931 176.176C370.932 171.884 367.856 168.213 363.611 167.429C361.379 167.008 359.507 165.5 358.631 163.407C357.754 161.314 357.987 158.917 359.25 157.034C361.66 153.456 361.226 148.662 358.198 145.645C355.146 142.593 350.387 142.137 346.867 144.558C344.986 145.855 342.576 146.113 340.46 145.236C338.356 144.359 336.835 142.465 336.426 140.22C335.654 135.987 331.971 132.912 327.679 132.912C323.46 132.911 319.705 136.069 318.933 140.243C318.514 142.476 317.004 144.347 314.911 145.225C312.818 146.101 310.421 145.867 308.538 144.593C304.962 142.184 300.178 142.628 297.149 145.645C294.099 148.697 293.642 153.468 296.062 156.976C297.361 158.858 297.617 161.279 296.74 163.383C295.864 165.499 293.969 167.02 291.724 167.429C287.493 168.201 284.427 171.873 284.427 176.176C284.427 180.455 287.503 184.138 291.747 184.922C293.98 185.331 295.851 186.839 296.728 188.933C297.606 191.025 297.372 193.423 296.109 195.305C293.688 198.883 294.133 203.677 297.149 206.694C300.203 209.745 304.972 210.213 308.492 207.781C309.627 206.998 310.958 206.6 312.305 206.6ZM327.68 232.897C319.705 232.897 312.572 228.689 308.608 222.21C301.244 223.94 293.255 221.86 287.631 216.223C282.044 210.634 279.961 202.636 281.68 195.258C275.18 191.282 270.957 184.15 270.957 176.176C270.957 168.189 275.155 161.068 281.633 157.104C279.902 149.738 281.995 141.752 287.631 136.127C293.223 130.526 301.207 128.457 308.596 130.176C312.573 123.674 319.705 119.453 327.679 119.453C335.654 119.453 342.787 123.651 346.751 130.129C354.118 128.398 362.091 130.491 367.728 136.127C373.318 141.716 375.398 149.703 373.679 157.093C380.182 161.068 384.401 168.201 384.401 176.176C384.402 184.15 380.204 191.283 373.714 195.247C375.446 202.601 373.364 210.588 367.728 216.223C362.139 221.813 354.152 223.894 346.762 222.175C342.789 228.676 335.654 232.898 327.68 232.897Z" fill="url(#paint14_linear_1792_82)"/>
<defs>
<linearGradient id="paint0_linear_1792_82" x1="162.002" y1="128.936" x2="162.002" y2="200.016" gradientUnits="userSpaceOnUse">
<stop stop-color="#F6CD30"/>
<stop offset="1" stop-color="#26648F"/>
</linearGradient>
<linearGradient id="paint1_linear_1792_82" x1="493.357" y1="128.936" x2="493.357" y2="200.016" gradientUnits="userSpaceOnUse">
<stop stop-color="#F6CD30"/>
<stop offset="1" stop-color="#26648F"/>
</linearGradient>
<linearGradient id="paint2_linear_1792_82" x1="327.679" y1="186.547" x2="327.679" y2="263.369" gradientUnits="userSpaceOnUse">
<stop stop-color="#F6CD30"/>
<stop offset="1" stop-color="#26648F"/>
</linearGradient>
<linearGradient id="paint3_linear_1792_82" x1="327.68" y1="517.773" x2="327.68" y2="566.789" gradientUnits="userSpaceOnUse">
<stop stop-color="#F6CD30"/>
<stop offset="1" stop-color="#26648F"/>
</linearGradient>
<linearGradient id="paint4_linear_1792_82" x1="66.3667" y1="250.041" x2="66.3667" y2="531.244" gradientUnits="userSpaceOnUse">
<stop stop-color="#F6CD30"/>
<stop offset="1" stop-color="#26648F"/>
</linearGradient>
<linearGradient id="paint5_linear_1792_82" x1="588.993" y1="250.041" x2="588.993" y2="531.244" gradientUnits="userSpaceOnUse">
<stop stop-color="#F6CD30"/>
<stop offset="1" stop-color="#26648F"/>
</linearGradient>
<linearGradient id="paint6_linear_1792_82" x1="480.319" y1="322.35" x2="480.319" y2="531.244" gradientUnits="userSpaceOnUse">
<stop stop-color="#F6CD30"/>
<stop offset="1" stop-color="#26648F"/>
</linearGradient>
<linearGradient id="paint7_linear_1792_82" x1="506.652" y1="414.979" x2="506.652" y2="438.61" gradientUnits="userSpaceOnUse">
<stop stop-color="#F6CD30"/>
<stop offset="1" stop-color="#26648F"/>
</linearGradient>
<linearGradient id="paint8_linear_1792_82" x1="238.924" y1="322.488" x2="238.924" y2="444.352" gradientUnits="userSpaceOnUse">
<stop stop-color="#F6CD30"/>
<stop offset="1" stop-color="#26648F"/>
</linearGradient>
<linearGradient id="paint9_linear_1792_82" x1="238.989" y1="430.754" x2="238.989" y2="471.761" gradientUnits="userSpaceOnUse">
<stop stop-color="#F6CD30"/>
<stop offset="1" stop-color="#26648F"/>
</linearGradient>
<linearGradient id="paint10_linear_1792_82" x1="302.82" y1="322.35" x2="302.82" y2="444.352" gradientUnits="userSpaceOnUse">
<stop stop-color="#F6CD30"/>
<stop offset="1" stop-color="#26648F"/>
</linearGradient>
<linearGradient id="paint11_linear_1792_82" x1="175.169" y1="322.35" x2="175.169" y2="444.352" gradientUnits="userSpaceOnUse">
<stop stop-color="#F6CD30"/>
<stop offset="1" stop-color="#26648F"/>
</linearGradient>
<linearGradient id="paint12_linear_1792_82" x1="327.673" y1="88.5723" x2="327.673" y2="263.509" gradientUnits="userSpaceOnUse">
<stop stop-color="#F6CD30"/>
<stop offset="1" stop-color="#26648F"/>
</linearGradient>
<linearGradient id="paint13_linear_1792_82" x1="327.679" y1="151.924" x2="327.679" y2="200.145" gradientUnits="userSpaceOnUse">
<stop stop-color="#F6CD30"/>
<stop offset="1" stop-color="#26648F"/>
</linearGradient>
<linearGradient id="paint14_linear_1792_82" x1="327.679" y1="119.453" x2="327.679" y2="232.897" gradientUnits="userSpaceOnUse">
<stop stop-color="#F6CD30"/>
<stop offset="1" stop-color="#26648F"/>
</linearGradient>
</defs>
</svg>
