<svg width="550" height="550" viewBox="0 0 550 550" fill="none" xmlns="http://www.w3.org/2000/svg">
<path d="M493 530.729H57C36.047 530.729 19 513.682 19 492.729V57.3984C19 36.4454 36.046 19.3984 57 19.3984H493C513.953 19.3984 531 36.4454 531 57.3984V492.729C531 513.683 513.953 530.729 493 530.729ZM57 35.3984C44.87 35.3984 35 45.2674 35 57.3984V492.729C35 504.86 44.869 514.729 57 514.729H493C505.131 514.729 515 504.86 515 492.729V57.3984C515 45.2674 505.131 35.3984 493 35.3984H57Z" fill="url(#paint0_linear_1794_583)"/>
<path d="M87.7352 116.27C72.1612 116.27 59.4902 103.611 59.4902 88.052C59.4902 72.493 72.1612 59.834 87.7352 59.834C103.309 59.834 115.98 72.493 115.98 88.052C115.98 103.611 103.309 116.27 87.7352 116.27ZM87.7352 75.834C80.9832 75.834 75.4902 81.315 75.4902 88.052C75.4902 94.789 80.9832 100.27 87.7352 100.27C94.4872 100.27 99.9802 94.789 99.9802 88.052C99.9802 81.315 94.4872 75.834 87.7352 75.834Z" fill="url(#paint1_linear_1794_583)"/>
<path d="M168.714 116.27C153.14 116.27 140.469 103.611 140.469 88.052C140.469 72.493 153.14 59.834 168.714 59.834C184.288 59.834 196.959 72.493 196.959 88.052C196.959 103.611 184.289 116.27 168.714 116.27ZM168.714 75.834C161.962 75.834 156.469 81.315 156.469 88.052C156.469 94.789 161.962 100.27 168.714 100.27C175.466 100.27 180.959 94.789 180.959 88.052C180.959 81.315 175.466 75.834 168.714 75.834Z" fill="url(#paint2_linear_1794_583)"/>
<path d="M249.694 116.27C234.12 116.27 221.449 103.611 221.449 88.052C221.449 72.493 234.119 59.834 249.694 59.834C265.269 59.834 277.939 72.493 277.939 88.052C277.939 103.611 265.268 116.27 249.694 116.27ZM249.694 75.834C242.942 75.834 237.449 81.315 237.449 88.052C237.449 94.789 242.942 100.27 249.694 100.27C256.446 100.27 261.939 94.789 261.939 88.052C261.939 81.315 256.446 75.834 249.694 75.834Z" fill="url(#paint3_linear_1794_583)"/>
<path d="M482.51 116.27H310.429C306.011 116.27 302.429 112.688 302.429 108.27V67.834C302.429 63.416 306.011 59.834 310.429 59.834H482.51C486.928 59.834 490.51 63.416 490.51 67.834V108.27C490.51 112.688 486.928 116.27 482.51 116.27ZM318.429 100.27H474.51V75.834H318.429V100.27Z" fill="url(#paint4_linear_1794_583)"/>
<path d="M523 156.705H27C22.582 156.705 19 153.123 19 148.705C19 144.287 22.582 140.705 27 140.705H523C527.418 140.705 531 144.287 531 148.705C531 153.123 527.418 156.705 523 156.705Z" fill="url(#paint5_linear_1794_583)"/>
<path d="M482.51 490.294H67.4902C63.0722 490.294 59.4902 486.712 59.4902 482.294V436.805C59.4902 432.387 63.0722 428.805 67.4902 428.805H482.51C486.928 428.805 490.51 432.387 490.51 436.805V482.294C490.51 486.712 486.928 490.294 482.51 490.294ZM75.4902 474.294H474.51V444.805H75.4902V474.294Z" fill="url(#paint6_linear_1794_583)"/>
<path d="M482.51 399.316H67.4902C63.0722 399.316 59.4902 395.734 59.4902 391.316C59.4902 386.898 63.0722 383.316 67.4902 383.316H482.51C486.928 383.316 490.51 386.898 490.51 391.316C490.51 395.734 486.928 399.316 482.51 399.316Z" fill="url(#paint7_linear_1794_583)"/>
<path d="M482.51 358.88H67.4902C63.0722 358.88 59.4902 355.298 59.4902 350.88V189.139C59.4902 184.721 63.0722 181.139 67.4902 181.139H482.51C486.928 181.139 490.51 184.721 490.51 189.139V350.88C490.51 355.298 486.928 358.88 482.51 358.88ZM75.4902 342.88H474.51V197.139H75.4902V342.88Z" fill="url(#paint8_linear_1794_583)"/>
<path d="M380.442 318.446H359.353C354.935 318.446 351.353 314.864 351.353 310.446C351.353 306.028 354.935 302.446 359.353 302.446H380.442C387.659 302.446 393.53 296.966 393.53 290.228C393.53 283.49 387.659 278.01 380.442 278.01C364.402 278.01 351.353 265.352 351.353 249.792C351.353 234.232 364.402 221.574 380.442 221.574H401.53C405.948 221.574 409.53 225.156 409.53 229.574C409.53 233.992 405.948 237.574 401.53 237.574H380.442C373.225 237.574 367.353 243.055 367.353 249.792C367.353 256.529 373.225 262.01 380.442 262.01C396.481 262.01 409.53 274.668 409.53 290.228C409.53 305.788 396.481 318.446 380.442 318.446Z" fill="url(#paint9_linear_1794_583)"/>
<path d="M286.633 318.445H253.912C249.494 318.445 245.912 314.863 245.912 310.445V229.574C245.912 225.156 249.494 221.574 253.912 221.574H286.633C302.072 221.574 314.633 234.135 314.633 249.574V290.445C314.633 305.885 302.072 318.445 286.633 318.445ZM261.912 302.445H286.633C293.25 302.445 298.633 297.062 298.633 290.445V249.574C298.633 242.957 293.25 237.574 286.633 237.574H261.912V302.445Z" fill="url(#paint10_linear_1794_583)"/>
<path d="M201.19 318.445C196.772 318.445 193.19 314.863 193.19 310.445V254.846C193.19 245.322 184.954 237.574 174.83 237.574C164.706 237.574 156.469 245.322 156.469 254.846V310.445C156.469 314.863 152.887 318.445 148.469 318.445C144.051 318.445 140.469 314.863 140.469 310.445V254.846C140.469 236.5 155.883 221.574 174.83 221.574C193.776 221.574 209.19 236.5 209.19 254.846V310.445C209.19 314.863 205.609 318.445 201.19 318.445Z" fill="url(#paint11_linear_1794_583)"/>
<path d="M201.19 288.119H148.469C144.051 288.119 140.469 284.537 140.469 280.119C140.469 275.701 144.051 272.119 148.469 272.119H201.19C205.608 272.119 209.19 275.701 209.19 280.119C209.19 284.537 205.609 288.119 201.19 288.119Z" fill="url(#paint12_linear_1794_583)"/>
<defs>
<linearGradient id="paint0_linear_1794_583" x1="275" y1="19.3984" x2="275" y2="530.729" gradientUnits="userSpaceOnUse">
<stop stop-color="#F7CE30"/>
<stop offset="1" stop-color="#10589A"/>
</linearGradient>
<linearGradient id="paint1_linear_1794_583" x1="87.7352" y1="59.834" x2="87.7352" y2="116.27" gradientUnits="userSpaceOnUse">
<stop stop-color="#F7CE30"/>
<stop offset="1" stop-color="#10589A"/>
</linearGradient>
<linearGradient id="paint2_linear_1794_583" x1="168.714" y1="59.834" x2="168.714" y2="116.27" gradientUnits="userSpaceOnUse">
<stop stop-color="#F7CE30"/>
<stop offset="1" stop-color="#10589A"/>
</linearGradient>
<linearGradient id="paint3_linear_1794_583" x1="249.694" y1="59.834" x2="249.694" y2="116.27" gradientUnits="userSpaceOnUse">
<stop stop-color="#F7CE30"/>
<stop offset="1" stop-color="#10589A"/>
</linearGradient>
<linearGradient id="paint4_linear_1794_583" x1="396.47" y1="59.834" x2="396.47" y2="116.27" gradientUnits="userSpaceOnUse">
<stop stop-color="#F7CE30"/>
<stop offset="1" stop-color="#10589A"/>
</linearGradient>
<linearGradient id="paint5_linear_1794_583" x1="275" y1="140.705" x2="275" y2="156.705" gradientUnits="userSpaceOnUse">
<stop stop-color="#F7CE30"/>
<stop offset="1" stop-color="#10589A"/>
</linearGradient>
<linearGradient id="paint6_linear_1794_583" x1="275" y1="428.805" x2="275" y2="490.294" gradientUnits="userSpaceOnUse">
<stop stop-color="#F7CE30"/>
<stop offset="1" stop-color="#10589A"/>
</linearGradient>
<linearGradient id="paint7_linear_1794_583" x1="275" y1="383.316" x2="275" y2="399.316" gradientUnits="userSpaceOnUse">
<stop stop-color="#F7CE30"/>
<stop offset="1" stop-color="#10589A"/>
</linearGradient>
<linearGradient id="paint8_linear_1794_583" x1="275" y1="181.139" x2="275" y2="358.88" gradientUnits="userSpaceOnUse">
<stop stop-color="#F7CE30"/>
<stop offset="1" stop-color="#10589A"/>
</linearGradient>
<linearGradient id="paint9_linear_1794_583" x1="380.442" y1="221.574" x2="380.442" y2="318.446" gradientUnits="userSpaceOnUse">
<stop stop-color="#F7CE30"/>
<stop offset="1" stop-color="#10589A"/>
</linearGradient>
<linearGradient id="paint10_linear_1794_583" x1="280.273" y1="221.574" x2="280.273" y2="318.445" gradientUnits="userSpaceOnUse">
<stop stop-color="#F7CE30"/>
<stop offset="1" stop-color="#10589A"/>
</linearGradient>
<linearGradient id="paint11_linear_1794_583" x1="174.829" y1="221.574" x2="174.829" y2="318.445" gradientUnits="userSpaceOnUse">
<stop stop-color="#F7CE30"/>
<stop offset="1" stop-color="#10589A"/>
</linearGradient>
<linearGradient id="paint12_linear_1794_583" x1="174.829" y1="272.119" x2="174.829" y2="288.119" gradientUnits="userSpaceOnUse">
<stop stop-color="#F7CE30"/>
<stop offset="1" stop-color="#10589A"/>
</linearGradient>
</defs>
</svg>
