<svg width="512" height="512" viewBox="0 0 512 512" fill="none" xmlns="http://www.w3.org/2000/svg">
<path fill-rule="evenodd" clip-rule="evenodd" d="M224.009 119.996C221.887 119.996 219.852 120.839 218.352 122.339C216.852 123.84 216.009 125.874 216.009 127.996V135.996H192.009C189.887 135.996 187.852 136.839 186.352 138.339C184.852 139.84 184.009 141.874 184.009 143.996V223.996C184.009 226.118 184.852 228.152 186.352 229.653C187.852 231.153 189.887 231.996 192.009 231.996H320.009C322.13 231.996 324.165 231.153 325.665 229.653C327.166 228.152 328.009 226.118 328.009 223.996V143.996C328.009 141.874 327.166 139.84 325.665 138.339C324.165 136.839 322.13 135.996 320.009 135.996H296.009V127.996C296.009 125.874 295.166 123.84 293.665 122.339C292.165 120.839 290.13 119.996 288.009 119.996H224.009ZM232.009 135.996H280.009V143.996C280.009 146.118 280.852 148.152 282.352 149.653C283.852 151.153 285.887 151.996 288.009 151.996H312.009V215.996H200.009V151.996H224.009C226.13 151.996 228.165 151.153 229.665 149.653C231.166 148.152 232.009 146.118 232.009 143.996V135.996Z" fill="black"/>
<path fill-rule="evenodd" clip-rule="evenodd" d="M256.009 159.996C242.849 159.996 232.009 170.836 232.009 183.996C232.009 197.156 242.849 207.996 256.009 207.996C269.169 207.996 280.009 197.156 280.009 183.996C280.009 170.836 269.169 159.996 256.009 159.996ZM256.009 175.996C260.522 175.996 264.009 179.483 264.009 183.996C264.009 188.509 260.522 191.996 256.009 191.996C251.496 191.996 248.009 188.509 248.009 183.996C248.009 179.483 251.496 175.996 256.009 175.996Z" fill="black"/>
<path fill-rule="evenodd" clip-rule="evenodd" d="M296.009 159.996C293.887 159.996 291.852 160.839 290.352 162.339C288.852 163.839 288.009 165.874 288.009 167.996C288.009 170.118 288.852 172.153 290.352 173.653C291.852 175.153 293.887 175.996 296.009 175.996C298.131 175.996 300.165 175.153 301.666 173.653C303.166 172.153 304.009 170.118 304.009 167.996C304.009 165.874 303.166 163.839 301.666 162.339C300.165 160.839 298.131 159.996 296.009 159.996Z" fill="black"/>
<path fill-rule="evenodd" clip-rule="evenodd" d="M200.071 363.418C193.585 365.33 187.48 367.541 181.946 370.09C172.196 374.581 164.02 380.01 157.978 386.59C154.315 390.578 151.448 395.107 149.743 399.996H144.009C139.591 399.996 136.009 403.578 136.009 407.996C136.009 412.414 139.591 415.996 144.009 415.996H148.665C150.008 422.368 153.368 428.257 157.978 433.277C164.02 439.858 172.196 445.286 181.946 449.777C199.61 457.914 222.578 462.958 248.009 463.84V471.996C248.009 476.414 251.591 479.996 256.009 479.996C260.427 479.996 264.009 476.414 264.009 471.996V463.84C289.439 462.958 312.408 457.914 330.071 449.777C339.822 445.286 347.998 439.858 354.04 433.277C358.65 428.257 362.01 422.368 363.353 415.996H368.009C372.427 415.996 376.009 412.414 376.009 407.996C376.009 403.578 372.427 399.996 368.009 399.996H362.306C358.645 389.394 349.336 380.567 337.478 373.871C333.629 371.694 328.744 373.052 326.571 376.902C324.394 380.751 325.752 385.635 329.603 387.809C336.545 391.729 341.333 395.889 344.306 399.996H344.009C339.591 399.996 336.009 403.578 336.009 407.996C336.009 412.414 339.591 415.996 344.009 415.996H346.681C345.753 418.078 344.309 420.217 342.259 422.449C338.181 426.891 331.714 431.402 323.368 435.246C308.369 442.155 287.415 446.909 264.009 447.809C263.907 443.464 260.355 439.995 256.009 439.996C251.669 440.003 248.126 443.47 248.024 447.809C224.612 446.91 203.652 442.157 188.649 435.246C180.303 431.402 173.837 426.891 169.759 422.449C167.709 420.217 166.264 418.078 165.337 415.996H168.009C172.427 415.996 176.009 412.414 176.009 407.996C176.009 403.578 172.427 399.996 168.009 399.996H167.65C168.271 399.149 168.956 398.292 169.759 397.418C173.837 392.977 180.304 388.465 188.65 384.621C195.144 381.63 202.773 379.064 211.212 377.012C207.606 372.681 203.915 368.18 200.071 363.418Z" fill="black"/>
<path fill-rule="evenodd" clip-rule="evenodd" d="M256.009 31.9961C339.861 31.9961 408.009 100.144 408.009 183.996C408.009 228.589 370.732 286.139 334.415 334.621C298.098 383.104 261.821 421.496 261.821 421.496C261.074 422.287 260.172 422.916 259.173 423.346C258.173 423.777 257.097 423.999 256.009 423.999C254.921 423.999 253.844 423.777 252.844 423.346C251.845 422.916 250.944 422.287 250.196 421.496C250.196 421.496 156.816 323.249 119.196 240.887C118.758 239.931 118.513 238.898 118.475 237.847C118.437 236.796 118.606 235.748 118.973 234.762C119.341 233.777 119.898 232.874 120.615 232.104C121.331 231.335 122.193 230.714 123.149 230.277C124.105 229.84 125.138 229.594 126.189 229.556C127.24 229.518 128.288 229.687 129.274 230.054C130.259 230.422 131.162 230.979 131.932 231.696C132.701 232.412 133.322 233.274 133.759 234.23C167.193 307.429 246.782 393.804 256.134 403.887C263.821 395.594 290.662 366.332 321.603 325.027C357.285 277.392 392.009 218.932 392.009 183.996C392.009 108.791 331.214 47.9961 256.009 47.9961C180.803 47.9961 120.009 108.791 120.009 183.996C120.009 186.118 119.166 188.153 117.666 189.653C116.165 191.153 114.131 191.996 112.009 191.996C109.887 191.996 107.852 191.153 106.352 189.653C104.852 188.153 104.009 186.118 104.009 183.996C104.009 100.144 172.156 31.9961 256.009 31.9961Z" fill="black"/>
<path fill-rule="evenodd" clip-rule="evenodd" d="M115.906 204.633C118.028 204.633 120.063 205.476 121.563 206.976C123.063 208.476 123.906 210.511 123.906 212.633C123.906 214.755 123.063 216.79 121.563 218.29C120.063 219.79 118.028 220.633 115.906 220.633C113.785 220.633 111.75 219.79 110.25 218.29C108.749 216.79 107.906 214.755 107.906 212.633C107.906 210.511 108.749 208.476 110.25 206.976C111.75 205.476 113.785 204.633 115.906 204.633Z" fill="black"/>
<path fill-rule="evenodd" clip-rule="evenodd" d="M256.009 295.996C274.55 295.996 292.102 291.481 307.524 283.48C308.458 282.996 309.286 282.332 309.962 281.527C310.638 280.721 311.149 279.791 311.466 278.788C311.782 277.785 311.898 276.73 311.806 275.683C311.714 274.635 311.417 273.616 310.931 272.684C309.952 270.803 308.266 269.388 306.245 268.75C304.223 268.111 302.031 268.301 300.149 269.277C286.937 276.132 271.954 279.996 256.009 279.996C202.895 279.996 160.009 237.11 160.009 183.996C160.009 172.076 162.179 160.692 166.134 150.184C166.878 148.199 166.805 145.999 165.929 144.068C165.053 142.138 163.446 140.634 161.462 139.887C160.478 139.516 159.431 139.342 158.38 139.376C157.329 139.41 156.295 139.651 155.337 140.085C154.379 140.519 153.516 141.137 152.798 141.905C152.079 142.672 151.519 143.574 151.149 144.559C146.531 156.832 144.009 170.136 144.009 183.996C144.009 245.757 194.248 295.996 256.009 295.996ZM349.103 242.246C351.141 241.666 352.867 240.3 353.899 238.449C362.884 222.329 368.009 203.729 368.009 183.996C368.009 122.235 317.77 71.9961 256.009 71.9961C237.296 71.9961 219.597 76.6066 204.071 84.7461C202.192 85.7305 200.781 87.4208 200.148 89.4456C199.515 91.4703 199.712 93.6636 200.696 95.543C201.184 96.4754 201.85 97.3023 202.658 97.9768C203.465 98.6513 204.398 99.1599 205.402 99.4734C206.407 99.7869 207.463 99.8993 208.511 99.804C209.559 99.7086 210.577 99.4076 211.509 98.918C224.81 91.9444 239.916 87.9961 256.009 87.9961C309.123 87.9961 352.009 130.882 352.009 183.996C352.009 200.966 347.63 216.854 339.931 230.668C338.9 232.521 338.647 234.707 339.227 236.746C339.807 238.785 341.173 240.51 343.024 241.543C344.877 242.574 347.063 242.826 349.103 242.246Z" fill="black"/>
</svg>
