<svg width="80" height="80" viewBox="0 0 80 80" fill="none" xmlns="http://www.w3.org/2000/svg">
<g clip-path="url(#clip0_1663_2391)">
<path d="M78.7879 48.1212H77.2121V38.5455C77.2121 27.6364 69.5758 18.4242 59.0303 16.2424V15.3939C59.0303 13.4545 57.4545 11.8788 55.5152 11.8788H52.1212C50.1818 11.8788 48.6061 13.4545 48.6061 15.3939V15.7576H45.8182V12.3636C45.8182 11.6364 45.3333 11.1515 44.6061 11.1515H43.5152V8.36364H46.7879C49.0909 8.36364 51.0303 6.42424 51.0303 4.12121C51.0303 1.81818 49.0909 0 46.7879 0H33.2121C30.9091 0 28.9697 1.93939 28.9697 4.24242C28.9697 6.54545 30.9091 8.48485 33.2121 8.48485H36.4849V11.2727H35.3939C34.6667 11.2727 34.1818 11.7576 34.1818 12.4848V15.8788H31.3939V15.5152C31.3939 13.5758 29.8182 12 27.8788 12H24.6061C22.6667 12 21.0909 13.5758 21.0909 15.5152V16.3636C10.4242 18.5455 2.90909 27.7576 2.90909 38.6667V48.2424H1.21212C0.484848 48.2424 0 48.7273 0 49.4545C0 50.1818 0.484848 50.6667 1.21212 50.6667H13.4545C14.1818 50.6667 14.6667 50.1818 14.6667 49.4545C14.6667 48.7273 14.1818 48.2424 13.4545 48.2424H12V39.3939C12 33.4545 15.6364 28.2424 21.0909 26.0606C21.3333 27.7576 22.7879 29.0909 24.6061 29.0909H27.8788C29.8182 29.0909 31.3939 27.5152 31.3939 25.5758V25.0909H34.1818V27.8788C34.1818 28.6061 34.6667 29.0909 35.3939 29.0909H44.6061C45.3333 29.0909 45.8182 28.6061 45.8182 27.8788V25.0909H48.6061V25.4545C48.6061 27.3939 50.1818 28.9697 52.1212 28.9697H55.3939C57.2121 28.9697 58.6667 27.6364 58.9091 25.9394C64.3636 28.1212 68 33.3333 68 39.2727V48.1212H66.5455C65.8182 48.1212 65.3333 48.6061 65.3333 49.3333C65.3333 50.0606 65.8182 50.5455 66.5455 50.5455H78.7879C79.5152 50.5455 80 50.0606 80 49.3333C80 48.7273 79.5152 48.1212 78.7879 48.1212ZM31.3939 4.24242C31.3939 3.27273 32.2424 2.42424 33.2121 2.42424H46.7879C47.7576 2.42424 48.6061 3.27273 48.6061 4.24242C48.6061 5.21212 47.7576 6.06061 46.7879 6.06061C41.9394 6.06061 38.1818 6.06061 33.2121 6.06061C32.2424 5.93939 31.3939 5.21212 31.3939 4.24242ZM38.9091 8.36364H41.0909V11.1515H38.9091V8.36364ZM9.57576 39.3939V48.2424H5.21212V38.6667C5.21212 29.0909 11.7576 20.9697 20.9697 18.7879V23.5151C14.1818 25.697 9.57576 32.1212 9.57576 39.3939ZM27.8788 26.5455H24.6061C24 26.5455 23.5152 26.0606 23.5152 25.4545V15.3939C23.5152 14.7879 24 14.303 24.6061 14.303H27.8788C28.4848 14.303 28.9697 14.7879 28.9697 15.3939V25.4545C28.9697 26.0606 28.4848 26.5455 27.8788 26.5455ZM31.3939 22.5455V18.1818H34.1818V22.5455H31.3939ZM43.3939 26.5455H36.6061V13.5758H43.3939V26.5455ZM45.8182 22.5455V18.1818H48.6061V22.5455H45.8182ZM56.6061 25.4545C56.6061 26.0606 56.1212 26.5455 55.5152 26.5455H52.1212C51.5152 26.5455 51.0303 26.0606 51.0303 25.4545C51.0303 21.9394 51.0303 18.9091 51.0303 15.3939C51.0303 14.7879 51.5152 14.303 52.1212 14.303H55.3939C56 14.303 56.4848 14.7879 56.4848 15.3939V25.4545H56.6061ZM59.0303 23.3939V18.6667C68.2424 20.7273 74.7879 28.8485 74.7879 38.5455V48.1212H70.4242V39.2727C70.5455 32.1212 65.8182 25.697 59.0303 23.3939Z" fill="black"/>
<path d="M40.0001 31.0312C36.0001 31.0312 32.0001 32.7282 29.2122 35.6373C26.4243 38.4252 24.9698 42.1828 25.091 46.1828C25.2122 52.2434 29.9395 60.7282 33.8183 66.7888C29.3334 68.0009 26.5455 70.304 26.5455 73.0919C26.5455 77.0919 32.3637 80.1222 40.1213 80.1222C43.5152 80.1222 46.788 79.5161 49.3334 78.304C52.1213 76.9706 53.6971 75.1525 53.6971 73.0919C53.6971 70.304 50.9092 68.0009 46.3031 66.7888C50.3031 60.607 55.0304 51.8797 55.0304 46.1828C55.0304 37.8191 48.2425 31.0312 40.0001 31.0312ZM30.9092 37.3343C33.3334 34.91 36.6061 33.4555 40.0001 33.4555C46.9092 33.4555 52.6061 39.1525 52.6061 46.0616C52.6061 53.4555 43.1516 67.1525 40.0001 71.5161C35.6364 65.5767 27.6364 53.4555 27.394 46.0616C27.394 42.7888 28.6061 39.7585 30.9092 37.3343ZM51.1516 72.9706C51.1516 74.0616 50.0607 75.1525 48.1213 76.0009C45.9395 76.9706 43.0304 77.5767 40.0001 77.5767C33.4546 77.5767 28.8486 75.1525 28.8486 72.9706C28.8486 71.3949 31.394 69.6979 35.1516 68.8494C37.2122 71.8797 38.9092 74.0616 39.0304 74.304C39.2728 74.5464 39.6364 74.7888 40.0001 74.7888C40.3637 74.7888 40.7274 74.6676 40.9698 74.304C41.2122 74.0616 42.788 72.0009 44.8486 68.8494C48.4849 69.6979 51.1516 71.2737 51.1516 72.9706Z" fill="black"/>
<path d="M40.0005 54.5459C44.7277 54.5459 48.4853 50.7883 48.4853 46.061C48.4853 41.3337 44.7277 37.5762 40.0005 37.5762C35.2732 37.5762 31.5156 41.3337 31.5156 46.061C31.5156 50.6671 35.2732 54.5459 40.0005 54.5459ZM40.0005 40.0004C43.2732 40.0004 46.0611 42.6671 46.0611 46.061C46.0611 49.455 43.3944 52.1216 40.0005 52.1216C36.6065 52.1216 33.9399 49.455 33.9399 46.061C33.9399 42.6671 36.7277 40.0004 40.0005 40.0004Z" fill="black"/>
</g>
<defs>
<clipPath id="clip0_1663_2391">
<rect width="80" height="80" fill="white"/>
</clipPath>
</defs>
</svg>
