<svg width="512" height="512" viewBox="0 0 512 512" fill="none" xmlns="http://www.w3.org/2000/svg">
<path d="M76.0555 316.137C73.7195 316.137 71.5915 314.777 70.6155 312.657L29.7195 224.561C26.2875 217.601 24.5195 209.969 24.5195 202.001C24.5195 198.809 24.7995 195.729 25.3515 192.833C25.3675 192.705 25.3835 192.585 25.4075 192.457C29.9435 168.089 51.2715 150.393 76.1195 150.393C104.576 150.393 127.72 173.545 127.72 202.001C127.72 209.833 126 217.361 122.616 224.385L81.4875 312.665C80.5035 314.785 78.3835 316.137 76.0555 316.137ZM37.2715 194.337C37.2555 194.497 37.2315 194.649 37.1995 194.809C36.7515 197.033 36.5275 199.457 36.5275 202.001C36.5275 208.121 37.8795 213.969 40.5515 219.393L76.0715 295.905L111.784 219.241C114.416 213.785 115.728 208.009 115.728 202.001C115.728 180.161 97.9595 162.393 76.1275 162.393C57.1595 162.393 40.8715 175.809 37.2715 194.337Z" fill="black"/>
<path d="M76.1272 228.28C60.8392 228.28 48.4072 215.84 48.4072 200.552C48.4072 185.272 60.8392 172.832 76.1272 172.832C91.4152 172.832 103.855 185.272 103.855 200.552C103.847 215.84 91.4152 228.28 76.1272 228.28ZM76.1272 184.832C67.4632 184.832 60.4072 191.888 60.4072 200.552C60.4072 209.224 67.4552 216.28 76.1272 216.28C84.7992 216.28 91.8552 209.224 91.8552 200.552C91.8472 191.888 84.7992 184.832 76.1272 184.832Z" fill="black"/>
<path d="M255.927 188.137C253.591 188.137 251.463 186.777 250.487 184.657L209.599 96.5606C206.167 89.6006 204.399 81.9686 204.399 74.0006C204.399 70.8086 204.679 67.7286 205.231 64.8326C205.247 64.7046 205.263 64.5846 205.287 64.4566C205.287 64.4566 205.287 64.4566 205.287 64.4486C209.823 40.0806 231.151 22.3926 255.999 22.3926C284.455 22.3926 307.599 45.5446 307.599 74.0006C307.599 81.8326 305.879 89.3606 302.495 96.3846L261.367 184.665C260.383 186.785 258.263 188.137 255.927 188.137ZM217.143 66.3366C217.127 66.4966 217.103 66.6486 217.071 66.8086C216.623 69.0326 216.399 71.4566 216.399 74.0006C216.399 80.1206 217.751 85.9686 220.423 91.3926L255.943 167.905L291.655 91.2406C294.287 85.7846 295.599 80.0086 295.599 74.0006C295.599 52.1606 277.831 34.3926 255.999 34.3926C237.031 34.3926 220.743 47.8086 217.143 66.3366Z" fill="black"/>
<path d="M255.999 100.28C240.711 100.28 228.279 87.84 228.279 72.552C228.279 57.272 240.711 44.832 255.999 44.832C271.287 44.832 283.727 57.272 283.727 72.552C283.727 87.84 271.287 100.28 255.999 100.28ZM255.999 56.832C247.335 56.832 240.279 63.888 240.279 72.552C240.279 81.224 247.327 88.28 255.999 88.28C264.671 88.28 271.727 81.224 271.727 72.552C271.727 63.888 264.671 56.832 255.999 56.832Z" fill="black"/>
<path d="M255.927 460.137C253.591 460.137 251.463 458.777 250.487 456.657L209.599 368.561C206.167 361.601 204.399 353.969 204.399 346.001C204.399 342.809 204.679 339.729 205.231 336.833C205.247 336.705 205.263 336.585 205.287 336.457C209.823 312.089 231.151 294.393 255.999 294.393C284.455 294.393 307.599 317.545 307.599 346.001C307.599 353.833 305.879 361.361 302.495 368.385L261.367 456.665C260.383 458.785 258.263 460.137 255.927 460.137ZM217.143 338.337C217.127 338.497 217.103 338.649 217.071 338.809C216.623 341.033 216.399 343.457 216.399 346.001C216.399 352.121 217.751 357.969 220.423 363.393L255.943 439.905L291.655 363.241C294.287 357.785 295.599 352.009 295.599 346.001C295.599 324.161 277.831 306.393 255.999 306.393C237.031 306.393 220.743 319.809 217.143 338.337Z" fill="black"/>
<path d="M255.999 372.28C240.711 372.28 228.279 359.84 228.279 344.552C228.279 329.272 240.711 316.832 255.999 316.832C271.287 316.832 283.727 329.272 283.727 344.552C283.727 359.84 271.287 372.28 255.999 372.28ZM255.999 328.832C247.335 328.832 240.279 335.888 240.279 344.552C240.279 353.224 247.327 360.28 255.999 360.28C264.671 360.28 271.727 353.224 271.727 344.552C271.727 335.888 264.671 328.832 255.999 328.832Z" fill="black"/>
<path d="M435.807 316.137C433.471 316.137 431.343 314.777 430.367 312.657L389.471 224.561C386.039 217.625 384.271 209.985 384.271 202.001C384.271 198.825 384.551 195.737 385.095 192.833C385.111 192.697 385.127 192.577 385.151 192.449C389.695 168.081 411.023 150.393 435.871 150.393C464.327 150.393 487.471 173.545 487.471 202.001C487.471 209.825 485.759 217.353 482.375 224.377L441.231 312.665C440.255 314.785 438.135 316.137 435.807 316.137ZM397.007 194.337C396.991 194.489 396.967 194.633 396.935 194.793C396.495 197.033 396.271 199.465 396.271 202.001C396.271 208.129 397.623 213.977 400.287 219.385L435.807 295.905L471.527 219.241C474.151 213.777 475.463 208.009 475.463 202.001C475.463 180.161 457.695 162.393 435.863 162.393C416.911 162.393 400.623 175.809 397.007 194.337Z" fill="black"/>
<path d="M435.872 228.28C420.584 228.28 408.144 215.84 408.144 200.552C408.144 185.272 420.584 172.832 435.872 172.832C451.16 172.832 463.592 185.272 463.592 200.552C463.592 215.84 451.16 228.28 435.872 228.28ZM435.872 184.832C427.2 184.832 420.144 191.888 420.144 200.552C420.144 209.224 427.2 216.28 435.872 216.28C444.536 216.28 451.592 209.224 451.592 200.552C451.592 191.888 444.544 184.832 435.872 184.832Z" fill="black"/>
<path d="M256 489.609C254.584 489.609 253.16 489.105 252.024 488.105L80.0239 336.105C78.6719 334.913 77.9279 333.169 77.9999 331.361C78.0799 329.553 78.9679 327.873 80.4159 326.801L252.416 198.801C254.528 197.225 257.416 197.201 259.544 198.777L434.208 326.777C435.68 327.857 436.576 329.545 436.656 331.361C436.728 333.185 435.976 334.937 434.6 336.137L259.936 488.137C258.808 489.121 257.408 489.609 256 489.609ZM93.5119 332.009L256.032 475.633L421.064 332.009L256.024 211.073L93.5119 332.009Z" fill="black"/>
</svg>
