<svg width="108" height="102" viewBox="0 0 108 102" fill="none" xmlns="http://www.w3.org/2000/svg">
<circle cx="54" cy="51" r="51" fill="#F7CE30"/>
<path d="M27.5756 33.1081H26.7982C26.205 33.1081 25.7246 32.6274 25.7246 32.0345C25.7246 31.4413 26.2052 30.9609 26.7982 30.9609H27.5756C28.1688 30.9609 28.6492 31.4415 28.6492 32.0345C28.6494 32.6274 28.1688 33.1081 27.5756 33.1081Z" fill="#373429"/>
<path d="M32.9272 33.1081H32.1498C31.5566 33.1081 31.0762 32.6274 31.0762 32.0345C31.0762 31.4413 31.5567 30.9609 32.1498 30.9609H32.9272C33.5204 30.9609 34.0008 31.4415 34.0008 32.0345C34.0008 32.6274 33.5202 33.1081 32.9272 33.1081Z" fill="#373429"/>
<path d="M38.2788 33.1081H37.5013C36.9081 33.1081 36.4277 32.6274 36.4277 32.0345C36.4277 31.4413 36.9083 30.9609 37.5013 30.9609H38.2788C38.872 30.9609 39.3524 31.4415 39.3524 32.0345C39.3524 32.6274 38.8718 33.1081 38.2788 33.1081Z" fill="#373429"/>
<path d="M44.6863 37.6917H21.7731C21.1799 37.6917 20.6992 37.2111 20.6992 36.6181C20.6992 36.0252 21.1799 35.5445 21.7731 35.5445H44.2222L48.212 31.2993C48.4146 31.0833 48.6976 30.9609 48.9943 30.9609H78.7476C79.3405 30.9609 79.8212 31.4415 79.8212 32.0345C79.8212 32.6274 79.3405 33.1081 78.7476 33.1081H49.4584L45.4688 37.3534C45.266 37.5693 44.9828 37.6917 44.6863 37.6917Z" fill="#373429"/>
<path d="M73.7807 63.9995C73.5488 63.9995 73.3194 63.9244 73.1293 63.7798L70.901 62.0798C70.4419 61.7297 70.342 61.0797 70.6743 60.6077L71.2361 59.81L70.0139 58.9212C69.6056 58.6245 69.4591 58.0821 69.6635 57.62L69.8702 57.1505L67.8478 55.7657C67.5999 55.5958 67.4346 55.3303 67.3918 55.033C67.349 54.7353 67.4328 54.4337 67.6228 54.2009L68.762 52.8051L68.2273 51.1724C68.1639 50.9791 68.1568 50.7723 68.2068 50.5752L68.9474 47.6432C69.0225 47.3461 69.2208 47.0953 69.4927 46.9536C69.7644 46.8119 70.083 46.7931 70.37 46.9024C76.6883 49.3057 81.0509 55.2134 81.485 61.9534C81.506 62.279 81.3777 62.5965 81.1366 62.8161C80.8949 63.0356 80.5657 63.1357 80.2449 63.0824L79.4309 62.9508C78.7887 62.8459 77.8878 62.6988 77.4056 62.6391C76.9107 62.9186 75.9776 63.2977 74.1338 63.9398C74.0189 63.9797 73.8994 63.9995 73.7807 63.9995ZM75.9715 61.7485C75.9916 61.871 76.0353 61.9956 76.1075 62.1164C76.0393 62.0018 75.9937 61.8768 75.9715 61.7485ZM73.0248 60.999L73.9698 61.7196C74.8883 61.3891 75.8354 61.023 76.2221 60.8372C76.5878 60.3556 76.9476 60.3733 79.193 60.7366C78.423 55.8036 75.2402 51.5342 70.722 49.386L70.3651 50.7997L70.9857 52.695C71.0994 53.0428 71.0286 53.4248 70.797 53.7084L70.0247 54.6542L71.8189 55.8831C72.245 56.1749 72.4032 56.7295 72.1944 57.2021L71.9776 57.6943L73.3543 58.6958C73.8286 59.0407 73.9381 59.7028 73.6006 60.1822L73.0248 60.999Z" fill="#373429"/>
<path d="M68.0857 79.9125C67.757 79.9125 67.4403 79.7611 67.2344 79.4932L65.2242 76.877C65.0192 76.6097 64.9511 76.2622 65.0405 75.9375C65.1299 75.6128 65.3664 75.3492 65.6796 75.2249L67.5981 74.4632L68.0891 73.0155L67.9121 69.9383C67.8954 69.6444 68.0002 69.3561 68.2019 69.1415L69.9772 67.2524C70.2128 67.0021 70.5533 66.8803 70.8948 66.9224L73.1542 67.2096C76.151 66.9141 76.3286 66.9141 76.3877 66.9141C76.7236 66.9141 76.9261 66.9141 79.0223 68.4419C79.0471 68.4599 79.0709 68.4792 79.0944 68.4993L79.6891 69.016C80.0486 69.3284 80.1597 69.8405 79.961 70.2738C77.775 75.0465 73.4309 78.6382 68.3406 79.8817C68.2559 79.9024 68.1704 79.9125 68.0857 79.9125ZM67.7933 76.6961L68.4996 77.6155C72.411 76.4626 75.7539 73.7167 77.6538 70.1018C77.1136 69.7105 76.4867 69.2757 76.1713 69.0786C75.6601 69.1233 74.3871 69.2455 73.2447 69.3586C73.1647 69.3661 73.0833 69.3645 73.0036 69.3553L71.167 69.1216L70.0824 70.2759L70.2448 73.1009C70.2528 73.239 70.2338 73.3769 70.1894 73.5075L69.4719 75.6228C69.3707 75.921 69.1438 76.1601 68.8511 76.2759L67.7933 76.6961Z" fill="#373429"/>
<path d="M45.6471 72.5025H26.0806C23.1134 72.5025 20.6992 70.0885 20.6992 67.1217V30.9869C20.6992 28.0195 23.1134 25.6055 26.0806 25.6055H81.9181C84.8852 25.6055 87.2992 28.0195 87.2992 30.9869V67.1217C87.2992 69.6193 85.5283 71.8257 83.0877 72.3684C82.5119 72.4985 81.9351 72.1322 81.8065 71.5536C81.6776 70.9747 82.0426 70.4011 82.6212 70.2723C84.0876 69.9464 85.152 68.6212 85.152 67.1218V30.9869C85.152 29.2036 83.7013 27.7528 81.9181 27.7528H26.0806C24.2974 27.7528 22.8467 29.2035 22.8467 30.9869V67.1217C22.8467 68.9046 24.2972 70.3552 26.0806 70.3552H45.6473C46.2403 70.3552 46.7209 70.8359 46.7209 71.4288C46.7209 72.022 46.2402 72.5025 45.6471 72.5025Z" fill="#373429"/>
<path d="M43.735 48.4368H26.9837C26.3906 48.4368 25.9102 47.9561 25.9102 47.3632V42.1283C25.9102 41.5351 26.3907 41.0547 26.9837 41.0547H43.735C44.3279 41.0547 44.8086 41.5352 44.8086 42.1283V47.3632C44.8086 47.9561 44.3279 48.4368 43.735 48.4368ZM28.0573 46.2894H42.6612V43.2019H28.0573V46.2894Z" fill="#373429"/>
<path d="M41.1175 57.6492H29.6008C27.5658 57.6492 25.9102 55.9936 25.9102 53.9586C25.9102 51.9233 27.5658 50.2676 29.6008 50.2676H41.1175C43.1527 50.2676 44.8086 51.9233 44.8086 53.9586C44.8086 55.9936 43.1527 57.6492 41.1175 57.6492ZM29.6008 52.4148C28.7498 52.4148 28.0575 53.1071 28.0575 53.9586C28.0575 54.8096 28.7498 55.5019 29.6008 55.5019H41.1175C41.9687 55.5019 42.6614 54.8096 42.6614 53.9586C42.6614 53.1073 41.9687 52.4148 41.1175 52.4148H29.6008Z" fill="#373429"/>
<path d="M41.1175 66.8641H29.6008C27.5658 66.8641 25.9102 65.2084 25.9102 63.1731C25.9102 61.1381 27.5658 59.4824 29.6008 59.4824H41.1175C43.1527 59.4824 44.8086 61.1381 44.8086 63.1731C44.8086 65.2084 43.1527 66.8641 41.1175 66.8641ZM29.6008 61.6296C28.7498 61.6296 28.0575 62.322 28.0575 63.173C28.0575 64.0242 28.7498 64.7167 29.6008 64.7167H41.1175C41.9687 64.7167 42.6614 64.0244 42.6614 63.173C42.6614 62.322 41.9687 61.6296 41.1175 61.6296H29.6008Z" fill="#373429"/>
<path d="M64.2244 80.3938C54.6763 80.3938 46.9082 72.6257 46.9082 63.0774C46.9082 58.5739 48.6379 54.3035 51.7786 51.0532C51.9975 50.8259 52.3025 50.7057 52.6217 50.7282C52.9367 50.7488 53.2265 50.9073 53.4143 51.1614L58.0609 57.4495L64.2784 49.0353V46.8921C64.2784 46.5945 64.4018 46.3104 64.6195 46.1074C64.8372 45.9049 65.1248 45.8 65.4261 45.821C74.4624 46.4433 81.5409 54.023 81.5409 63.0775C81.5408 72.6257 73.7729 80.3938 64.2244 80.3938ZM52.4733 53.5009C50.2608 56.2056 49.0555 59.5606 49.0555 63.0774C49.0555 71.4417 55.8603 78.2466 64.2244 78.2466C72.5887 78.2466 79.3936 71.4419 79.3936 63.0774C79.3936 55.5348 73.7841 49.16 66.4259 48.086V49.3885C66.4259 49.6184 66.352 49.8419 66.2157 50.0264L58.9245 59.894C58.5194 60.4425 57.6025 60.4425 57.1975 59.894L52.4733 53.5009Z" fill="#373429"/>
<path d="M50.7494 73.2217C50.3967 73.2217 50.0612 73.0475 49.8595 72.7485C47.9285 69.886 46.9082 66.5418 46.9082 63.0771C46.9082 58.5732 48.6391 54.3041 51.7817 51.0558C52.0015 50.8294 52.3067 50.7083 52.6247 50.7313C52.9396 50.7518 53.2294 50.9104 53.4169 51.1645L58.4378 57.96C58.4808 58.0175 58.5169 58.0783 58.5462 58.1415C58.5935 58.1616 59.6084 58.625 59.6084 58.625C59.8906 58.7542 60.1034 58.9987 60.1918 59.296C60.2803 59.5934 60.2355 59.9142 60.0694 60.1763L58.3701 62.8583C58.3113 62.9513 58.2379 63.0353 58.1535 63.1061L57.592 63.5775V65.1545C57.592 65.4573 57.464 65.7462 57.2393 65.9501L56.7289 66.4131L57.2129 67.1124C57.3647 67.3315 57.4294 67.5991 57.3944 67.8639L56.9411 71.3013C56.8806 71.7597 56.5334 72.1279 56.0798 72.2153L50.9525 73.2021C50.8847 73.2153 50.8166 73.2217 50.7494 73.2217ZM52.4751 53.503C50.2614 56.2061 49.0555 59.5601 49.0555 63.0771C49.0555 65.8767 49.8157 68.586 51.2604 70.9564L54.9134 70.2531L55.2116 67.9941L54.4272 66.8614C54.1207 66.4184 54.1898 65.8166 54.5891 65.4546L55.4447 64.6786V63.077C55.4447 62.7595 55.5851 62.4588 55.828 62.2546L56.6453 61.5684L57.5225 60.1848C57.3965 60.1118 57.2855 60.0132 57.197 59.8932C57.1872 59.8802 56.9799 59.7853 56.9799 59.7853C56.6892 59.6529 56.4727 59.3974 56.3894 59.0888C56.3592 58.9775 56.3473 58.8639 56.3537 58.752L52.4751 53.503Z" fill="#373429"/>
<path d="M58.0601 60.3293C57.7196 60.3293 57.3992 60.1678 57.1965 59.8936L49.9055 50.026C49.7692 49.8414 49.6953 49.618 49.6953 49.3881V44.5759C49.6953 39.9633 53.4477 36.2109 58.0603 36.2109C62.6728 36.2109 66.4252 39.9633 66.4252 44.5759V49.3881C66.4252 49.618 66.3514 49.8414 66.2151 50.026L58.9239 59.8936C58.7211 60.1678 58.4007 60.3293 58.0601 60.3293ZM51.8425 49.0345L58.0601 57.4488L64.2776 49.0345V44.5759C64.2776 41.1473 61.4887 38.3583 58.0601 38.3583C54.6316 38.3583 51.8425 41.1473 51.8425 44.5759V49.0345Z" fill="#373429"/>
<path d="M58.0619 49.9121C57.4687 49.9121 56.9883 49.4315 56.9883 48.8385V42.597C56.9883 42.0038 57.4688 41.5234 58.0619 41.5234C58.6549 41.5234 59.1355 42.004 59.1355 42.597V48.8385C59.1355 49.4315 58.6549 49.9121 58.0619 49.9121Z" fill="#373429"/>
<path d="M78.2433 38.3581H72.7396C72.1464 38.3581 71.666 37.8776 71.666 37.2845C71.666 36.6915 72.1466 36.2109 72.7396 36.2109H78.2433C78.8365 36.2109 79.3169 36.6916 79.3169 37.2845C79.317 37.8776 78.8365 38.3581 78.2433 38.3581Z" fill="#373429"/>
<path d="M79.838 43.3718H71.7416C71.1487 43.3718 70.668 42.8912 70.668 42.2982C70.668 41.7052 71.1487 41.2246 71.7416 41.2246H79.838C80.4312 41.2246 80.9118 41.7053 80.9118 42.2982C80.9118 42.8912 80.4311 43.3718 79.838 43.3718Z" fill="#373429"/>
<path d="M79.8388 47.4405H78.2435C77.6505 47.4405 77.1699 46.9597 77.1699 46.3666C77.1699 45.7737 77.6506 45.293 78.2435 45.293H79.8388C80.432 45.293 80.9125 45.7737 80.9125 46.3666C80.9125 46.9597 80.4318 47.4405 79.8388 47.4405Z" fill="#373429"/>
</svg>
