<svg width="656" height="656" viewBox="0 0 656 656" fill="none" xmlns="http://www.w3.org/2000/svg">
<path fill-rule="evenodd" clip-rule="evenodd" d="M245.514 249.707H321.304V145.725H245.514V249.707ZM327.703 262.505H243.912C237.741 262.505 232.711 257.483 232.711 251.308L232.712 144.125C232.712 137.948 237.738 132.926 243.912 132.926H327.703C331.237 132.926 334.103 135.792 334.103 139.326L334.106 256.106C334.106 259.64 331.236 262.507 327.703 262.505Z" fill="black"/>
<path fill-rule="evenodd" clip-rule="evenodd" d="M411.482 262.505H327.703C324.157 262.505 321.302 259.642 321.302 256.107C321.303 252.572 324.156 249.707 327.702 249.707L409.88 249.706V145.725H327.703C324.157 145.725 321.302 142.861 321.302 139.326C321.303 135.791 324.155 132.926 327.702 132.926H411.482C417.656 132.926 422.68 137.951 422.68 144.127L422.681 251.306C422.681 257.483 417.654 262.507 411.482 262.505Z" fill="black"/>
<path fill-rule="evenodd" clip-rule="evenodd" d="M392.599 171.768H351.371C347.837 171.768 344.97 168.904 344.97 165.369C344.972 161.832 347.836 158.968 351.37 158.968L392.599 158.967C396.133 158.967 399 161.834 399 165.369C399.002 168.903 396.132 171.769 392.599 171.768Z" fill="black"/>
<path fill-rule="evenodd" clip-rule="evenodd" d="M392.599 204.114H351.371C347.837 204.114 344.97 201.25 344.97 197.716C344.972 194.181 347.836 191.314 351.37 191.314L392.599 191.312C396.133 191.312 399 194.181 399 197.716C399.002 201.249 396.132 204.116 392.599 204.114Z" fill="black"/>
<path fill-rule="evenodd" clip-rule="evenodd" d="M392.599 236.464H351.371C347.837 236.464 344.97 233.599 344.97 230.065C344.972 226.53 347.836 223.664 351.37 223.664L392.599 223.662C396.133 223.662 399 226.531 399 230.065C399.002 233.599 396.132 236.466 392.599 236.464Z" fill="black"/>
<path fill-rule="evenodd" clip-rule="evenodd" d="M304.022 171.768H262.794C259.26 171.768 256.392 168.904 256.392 165.369C256.392 161.832 259.259 158.968 262.792 158.968L304.022 158.967C307.557 158.967 310.421 161.834 310.421 165.369C310.422 168.903 307.555 171.769 304.022 171.768Z" fill="black"/>
<path fill-rule="evenodd" clip-rule="evenodd" d="M304.022 204.114H262.794C259.26 204.114 256.392 201.25 256.392 197.716C256.392 194.181 259.259 191.314 262.792 191.314L304.022 191.312C307.557 191.312 310.421 194.181 310.421 197.716C310.422 201.249 307.555 204.116 304.022 204.114Z" fill="black"/>
<path fill-rule="evenodd" clip-rule="evenodd" d="M304.022 236.464H262.794C259.26 236.464 256.392 233.599 256.392 230.065C256.392 226.53 259.259 223.664 262.792 223.664L304.022 223.662C307.557 223.662 310.421 226.531 310.421 230.065C310.422 233.599 307.555 236.466 304.022 236.464Z" fill="black"/>
<path fill-rule="evenodd" clip-rule="evenodd" d="M327.703 43.3794C242.592 43.3794 173.361 112.616 173.361 197.717C173.363 282.815 242.591 352.052 327.702 352.052C412.801 352.049 482.03 282.816 482.03 197.717C482.03 112.614 412.8 43.3814 327.703 43.3794ZM327.703 364.851C235.538 364.851 160.561 289.876 160.561 197.717C160.561 105.554 235.538 30.5801 327.702 30.5801C419.855 30.5774 494.83 105.556 494.83 197.717C494.832 289.875 419.854 364.852 327.703 364.851Z" fill="black"/>
<path fill-rule="evenodd" clip-rule="evenodd" d="M392.694 145.726C389.625 145.726 386.918 143.517 386.398 140.393C376.572 82.3659 352.983 43.3804 327.702 43.3804C302.408 43.3785 278.819 82.3667 268.992 140.393C268.407 143.878 265.085 146.221 261.619 145.636C258.14 145.045 255.791 141.742 256.378 138.256C267.447 72.8433 295.447 30.5801 327.702 30.5801C359.944 30.5774 387.945 72.8452 399.012 138.256C399.6 141.742 397.252 145.045 393.771 145.636C393.411 145.696 393.051 145.726 392.694 145.726ZM327.702 364.851C295.447 364.851 267.445 322.586 256.378 257.175C255.791 253.689 258.138 250.385 261.619 249.795C265.101 249.204 268.405 251.554 268.992 255.038C278.82 313.062 302.407 352.052 327.702 352.052C352.984 352.05 376.571 313.065 386.398 255.038C386.985 251.55 390.291 249.207 393.771 249.795C397.254 250.383 399.598 253.69 399.012 257.175C387.945 322.585 359.943 364.852 327.702 364.851Z" fill="black"/>
<path fill-rule="evenodd" clip-rule="evenodd" d="M239.111 204.114H166.963C163.429 204.114 160.561 201.25 160.561 197.716C160.561 194.181 163.427 191.315 166.961 191.315L239.111 191.312C242.661 191.312 245.511 194.181 245.511 197.716C245.513 201.249 242.658 204.116 239.111 204.114ZM488.433 204.114H416.282C412.748 204.114 409.88 201.25 409.88 197.716C409.88 194.181 412.746 191.315 416.28 191.315L488.433 191.312C491.964 191.312 494.83 194.181 494.83 197.716C494.832 201.249 491.964 204.116 488.433 204.114Z" fill="black"/>
<path fill-rule="evenodd" clip-rule="evenodd" d="M462.697 116.835H192.695C189.161 116.835 186.295 113.969 186.295 110.435C186.296 106.899 189.161 104.034 192.695 104.034L462.697 104.033C466.231 104.033 469.095 106.9 469.095 110.435C469.096 113.967 466.229 116.835 462.697 116.835Z" fill="black"/>
<path fill-rule="evenodd" clip-rule="evenodd" d="M462.697 291.399H192.695C189.161 291.399 186.295 288.535 186.295 285C186.296 281.463 189.161 278.6 192.695 278.6L462.697 278.598C466.231 278.598 469.095 281.465 469.095 285C469.096 288.534 466.229 291.4 462.697 291.399Z" fill="black"/>
<path fill-rule="evenodd" clip-rule="evenodd" d="M272.805 419.433C270.981 419.433 269.445 420.969 269.445 422.786V608.658C269.445 610.476 270.979 612.013 272.805 612.013L382.587 612.012C384.411 612.012 385.944 610.477 385.944 608.659L385.947 422.784C385.947 420.969 384.411 419.432 382.584 419.432L272.805 419.433ZM382.587 624.811H272.805C263.901 624.811 256.645 617.567 256.645 608.66L256.646 422.784C256.646 413.877 263.898 406.632 272.805 406.632L382.587 406.631C391.491 406.631 398.745 413.879 398.745 422.786L398.746 608.658C398.746 617.565 391.491 624.813 382.587 624.811Z" fill="black"/>
<path fill-rule="evenodd" clip-rule="evenodd" d="M343.183 445.276H312.21C308.676 445.276 305.808 442.41 305.808 438.877C305.808 435.34 308.675 432.475 312.208 432.475L343.183 432.475C346.718 432.475 349.583 435.342 349.583 438.877C349.586 442.408 346.716 445.277 343.183 445.276Z" fill="black"/>
<path fill-rule="evenodd" clip-rule="evenodd" d="M343.183 598.972H312.21C308.676 598.972 305.808 596.106 305.808 592.572C305.808 589.035 308.675 586.17 312.208 586.17H343.183C346.718 586.17 349.583 589.037 349.583 592.572C349.586 596.106 346.716 598.972 343.183 598.972Z" fill="black"/>
<path fill-rule="evenodd" clip-rule="evenodd" d="M327.704 419.433C324.158 419.433 321.303 416.568 321.303 413.033L321.304 358.452C321.304 354.918 324.156 352.053 327.703 352.053C331.238 352.05 334.103 354.918 334.103 358.453L334.106 413.031C334.106 416.565 331.237 419.433 327.704 419.433Z" fill="black"/>
<path fill-rule="evenodd" clip-rule="evenodd" d="M64.0227 509.321H208.672V419.473H64.0227V509.321ZM215.071 522.123H57.623C54.089 522.123 51.2217 519.259 51.2217 515.724L51.2239 413.074C51.2239 409.537 54.0882 406.674 57.6219 406.674L215.071 406.672C218.605 406.672 221.47 409.539 221.47 413.074L221.47 515.724C221.47 519.258 218.603 522.125 215.071 522.123Z" fill="black"/>
<path fill-rule="evenodd" clip-rule="evenodd" d="M123.893 449.891V478.905L150.306 464.397L123.893 449.891ZM117.494 496.12C116.36 496.12 115.225 495.824 114.225 495.229C112.28 494.077 111.091 491.982 111.091 489.721L111.092 439.075C111.092 436.813 112.278 434.719 114.225 433.568C116.174 432.415 118.585 432.378 120.572 433.466L166.696 458.786C168.737 459.912 170.014 462.062 170.014 464.398C170.015 466.734 168.734 468.885 166.694 470.009L120.572 495.328C119.612 495.856 118.545 496.121 117.494 496.12Z" fill="black"/>
<path fill-rule="evenodd" clip-rule="evenodd" d="M455.87 448.474L519.02 476.897L582.182 448.474L519.02 420.051L455.87 448.474ZM519.02 490.317C518.126 490.317 517.233 490.131 516.392 489.753L437.656 454.309C435.349 453.277 433.882 450.994 433.882 448.475C433.882 445.957 435.348 443.672 437.655 442.639L516.395 407.195C518.075 406.442 519.979 406.444 521.646 407.196L600.399 442.639C602.691 443.671 604.17 445.958 604.17 448.475C604.17 450.994 602.69 453.278 600.396 454.311L521.648 489.753C520.82 490.128 519.926 490.319 519.02 490.317Z" fill="black"/>
<path fill-rule="evenodd" clip-rule="evenodd" d="M597.77 515.663C594.236 515.663 591.369 512.798 591.369 509.263L591.371 448.475C591.371 444.941 594.236 442.076 597.769 442.076C601.304 442.076 604.169 444.942 604.169 448.476L604.17 509.261C604.17 512.798 601.303 515.664 597.77 515.663Z" fill="black"/>
<path fill-rule="evenodd" clip-rule="evenodd" d="M569.596 522.161H468.458C464.924 522.161 462.056 519.298 462.056 515.763V461.156C462.056 457.622 464.923 454.756 468.456 454.756C471.992 454.754 474.856 457.623 474.856 461.158L474.857 509.362H563.197V461.156C563.197 457.622 566.061 454.756 569.595 454.756C573.13 454.754 575.995 457.623 575.995 461.158L575.995 515.762C575.995 519.296 573.128 522.163 569.596 522.161Z" fill="black"/>
<path fill-rule="evenodd" clip-rule="evenodd" d="M263.047 574.807H136.363C132.829 574.807 129.96 571.943 129.96 568.408L129.961 515.722C129.961 512.185 132.827 509.322 136.361 509.322C139.894 509.32 142.761 512.188 142.761 515.723L142.763 562.006H263.048C266.582 562.006 269.447 564.873 269.447 568.408C269.447 571.942 266.58 574.809 263.047 574.807ZM519.035 574.807H392.348C388.814 574.807 385.947 571.943 385.947 568.408C385.949 564.871 388.814 562.008 392.347 562.008L512.633 562.006V515.723C512.633 512.185 515.5 509.322 519.033 509.322C522.567 509.32 525.434 512.188 525.434 515.723L525.435 568.408C525.435 571.942 522.566 574.809 519.035 574.807Z" fill="black"/>
</svg>
