<svg width="2864" height="2864" viewBox="0 0 2864 2864" fill="none" xmlns="http://www.w3.org/2000/svg">
<path d="M671.25 2282.25H581.75V2371.75H671.25V2282.25Z" fill="url(#paint0_linear_1815_11)"/>
<path d="M492.25 2282.25H402.75V2371.75H492.25V2282.25Z" fill="url(#paint1_linear_1815_11)"/>
<path d="M313.25 2282.25H223.75V2371.75H313.25V2282.25Z" fill="url(#paint2_linear_1815_11)"/>
<path d="M2595.5 671.25H1716.07C1734.69 621.354 1745.25 568.638 1745.25 514.938V492.25C1745.25 245.499 1544.5 44.75 1297.75 44.75C1051 44.75 850.25 245.499 850.25 492.25V514.938C850.25 568.638 860.811 621.354 879.427 671.25H268.5C145.124 671.25 44.75 771.624 44.75 895V2327C44.75 2450.38 145.124 2550.75 268.5 2550.75H850.25V2729.75H671.25V2819.25H2192.75V2729.75H2013.75V2550.75H2595.5C2718.88 2550.75 2819.25 2450.38 2819.25 2327V895C2819.25 771.624 2718.88 671.25 2595.5 671.25ZM939.75 492.25C939.75 294.858 1100.36 134.25 1297.75 134.25C1495.14 134.25 1655.75 294.858 1655.75 492.25V514.938C1655.75 579.781 1638.12 643.505 1604.74 699.129L1297.75 1210.76L990.765 699.129C957.381 643.505 939.75 579.826 939.75 514.938V492.25ZM268.5 760.75H923.372L996.538 882.694C935.633 861.527 871.372 850.25 805.5 850.25C484.732 850.25 223.75 1111.23 223.75 1432C223.75 1752.77 484.732 2013.75 805.5 2013.75C1071.14 2013.75 1302.81 1834.3 1368.9 1577.39L1282.22 1555.11C1226.33 1772.41 1030.23 1924.25 805.5 1924.25C534.091 1924.25 313.25 1703.41 313.25 1432C313.25 1312.38 356.255 1202.66 427.452 1117.23L491.131 1180.91C435.955 1249.82 402.75 1337.04 402.75 1432C402.75 1654.09 583.451 1834.75 805.5 1834.75C1027.55 1834.75 1208.25 1654.09 1208.25 1432C1208.25 1209.95 1027.55 1029.25 805.5 1029.25C710.541 1029.25 623.323 1062.45 554.408 1117.63L490.728 1053.95C576.156 982.755 685.883 939.75 805.5 939.75C904.89 939.75 1000.16 969.285 1081.83 1024.86L1294.62 1379.55C1296.5 1396.92 1297.75 1414.37 1297.75 1432V1476.75H1767.62L1934.18 1698.84L2109.16 1305.13L2212.17 1476.75H2640.25V1387.25H2262.83L2097.3 1111.37L1914.27 1523.16L1812.38 1387.25H1385.55C1382.64 1348.59 1374.99 1310.68 1364.47 1273.54L1672.13 760.75H2595.5C2669.52 760.75 2729.75 820.983 2729.75 895V2192.75H819.059L684.809 2103.25H134.25V895C134.25 820.983 194.483 760.75 268.5 760.75ZM684.72 1374.5C676.307 1391.99 671.25 1411.33 671.25 1432C671.25 1506.02 731.483 1566.25 805.5 1566.25C879.517 1566.25 939.75 1506.02 939.75 1432C939.75 1357.98 879.517 1297.75 805.5 1297.75C784.825 1297.75 765.494 1302.81 747.996 1311.22L618.266 1181.49C670.579 1142.29 735.242 1118.75 805.5 1118.75C978.235 1118.75 1118.75 1259.27 1118.75 1432C1118.75 1604.69 978.235 1745.25 805.5 1745.25C632.765 1745.25 492.25 1604.69 492.25 1432C492.25 1361.74 515.789 1297.08 554.99 1244.77L684.72 1374.5ZM805.5 1387.25C830.157 1387.25 850.25 1407.34 850.25 1432C850.25 1456.66 830.157 1476.75 805.5 1476.75C780.843 1476.75 760.75 1456.66 760.75 1432C760.75 1407.34 780.843 1387.25 805.5 1387.25ZM2595.5 2461.25H1029.25V2550.75H1924.25V2729.75H939.75V2461.25H268.5C194.483 2461.25 134.25 2401.02 134.25 2327V2192.75H657.691L791.941 2282.25H2729.75V2327C2729.75 2401.02 2669.52 2461.25 2595.5 2461.25Z" fill="url(#paint3_linear_1815_11)"/>
<path d="M2640.25 1834.75H1566.25V1924.25H2640.25V1834.75Z" fill="url(#paint4_linear_1815_11)"/>
<path d="M2640.25 2013.75H1566.25V2103.25H2640.25V2013.75Z" fill="url(#paint5_linear_1815_11)"/>
<path d="M1297.75 760.75C1445.83 760.75 1566.25 640.328 1566.25 492.25C1566.25 344.172 1445.83 223.75 1297.75 223.75C1149.67 223.75 1029.25 344.172 1029.25 492.25C1029.25 640.328 1149.67 760.75 1297.75 760.75ZM1297.75 313.25C1396.47 313.25 1476.75 393.531 1476.75 492.25C1476.75 590.969 1396.47 671.25 1297.75 671.25C1199.03 671.25 1118.75 590.969 1118.75 492.25C1118.75 393.531 1199.03 313.25 1297.75 313.25Z" fill="url(#paint6_linear_1815_11)"/>
<defs>
<linearGradient id="paint0_linear_1815_11" x1="626.5" y1="2282.25" x2="626.5" y2="2371.75" gradientUnits="userSpaceOnUse">
<stop stop-color="#F7CE30"/>
<stop offset="1" stop-color="#105899"/>
</linearGradient>
<linearGradient id="paint1_linear_1815_11" x1="447.5" y1="2282.25" x2="447.5" y2="2371.75" gradientUnits="userSpaceOnUse">
<stop stop-color="#F7CE30"/>
<stop offset="1" stop-color="#105899"/>
</linearGradient>
<linearGradient id="paint2_linear_1815_11" x1="268.5" y1="2282.25" x2="268.5" y2="2371.75" gradientUnits="userSpaceOnUse">
<stop stop-color="#F7CE30"/>
<stop offset="1" stop-color="#105899"/>
</linearGradient>
<linearGradient id="paint3_linear_1815_11" x1="1432" y1="44.75" x2="1432" y2="2819.25" gradientUnits="userSpaceOnUse">
<stop stop-color="#F7CE30"/>
<stop offset="1" stop-color="#105899"/>
</linearGradient>
<linearGradient id="paint4_linear_1815_11" x1="2103.25" y1="1834.75" x2="2103.25" y2="1924.25" gradientUnits="userSpaceOnUse">
<stop stop-color="#F7CE30"/>
<stop offset="1" stop-color="#105899"/>
</linearGradient>
<linearGradient id="paint5_linear_1815_11" x1="2103.25" y1="2013.75" x2="2103.25" y2="2103.25" gradientUnits="userSpaceOnUse">
<stop stop-color="#F7CE30"/>
<stop offset="1" stop-color="#105899"/>
</linearGradient>
<linearGradient id="paint6_linear_1815_11" x1="1297.75" y1="223.75" x2="1297.75" y2="760.75" gradientUnits="userSpaceOnUse">
<stop stop-color="#F7CE30"/>
<stop offset="1" stop-color="#105899"/>
</linearGradient>
</defs>
</svg>
