<svg width="512" height="512" viewBox="0 0 512 512" fill="none" xmlns="http://www.w3.org/2000/svg">
<path d="M421.999 344.746C408.825 344.746 398.105 355.466 398.105 368.639C398.105 381.813 408.825 392.533 421.999 392.533C435.173 392.533 445.892 381.813 445.892 368.639C445.892 355.466 435.173 344.746 421.999 344.746ZM421.999 378.879C416.351 378.879 411.759 374.287 411.759 368.639C411.759 362.992 416.351 358.399 421.999 358.399C427.646 358.399 432.239 362.992 432.239 368.639C432.239 374.287 427.644 378.879 421.999 378.879Z" fill="black"/>
<path d="M329.633 333.12L325.173 331.093H404.932C408.702 331.093 411.759 328.036 411.759 324.266V58.0259C411.759 54.2559 408.702 51.1992 404.932 51.1992H77.2524C73.4824 51.1992 70.4258 54.2559 70.4258 58.0259V324.266C70.4258 328.036 73.4824 331.093 77.2524 331.093H157.008L152.549 333.12C127.543 344.486 111.386 369.883 111.386 397.82V453.973C111.386 457.743 114.442 460.799 118.212 460.799H363.972C367.742 460.799 370.799 457.743 370.799 453.973V397.82C370.799 369.883 354.642 344.486 329.633 333.12ZM241.092 393.306L202.209 331.093H279.975L241.092 393.306ZM159.172 204.799C162.942 204.799 165.999 201.743 165.999 197.973V187.637C180.659 186.826 194.427 181.995 205.319 173.784C216.392 190.267 233.805 202.007 254.232 206.491C260.376 207.84 266.585 208.508 272.806 208.508C289.908 208.508 307.055 203.386 323.012 193.636V197.973C323.012 201.743 326.069 204.799 329.839 204.799C332.773 204.799 335.568 206.059 337.516 208.259C339.485 210.489 340.366 213.368 339.996 216.372C339.656 219.145 337.736 221.869 334.869 223.656C331.991 225.446 329.559 225.73 326.458 224.636C324.615 223.982 322.576 224.153 320.865 225.109C319.155 226.063 317.935 227.704 317.519 229.619C310.866 260.14 288.306 285.072 258.646 294.686L255.609 295.669C247.255 298.372 238.353 298.485 230.555 295.98C200.368 286.26 177.652 260.892 171.273 229.776C170.88 227.86 169.686 226.203 167.989 225.23C166.293 224.257 164.265 224.054 162.408 224.677C159.778 225.566 157.345 225.697 154.015 223.457C150.989 221.41 149.042 218.33 148.938 215.423C148.837 212.607 149.854 209.947 151.801 207.929C153.752 205.909 156.368 204.799 159.172 204.799ZM166.006 153.572C165.897 123.372 182.405 107.432 196.275 99.3784C224.338 83.078 267.549 83.4791 296.776 100.309C308.743 107.195 323.006 119.666 323.006 139.946V177.296C302.42 192.346 279.149 197.976 257.166 193.139C237.792 188.886 221.729 176.853 213.1 160.129C212.1 158.188 210.233 156.842 208.074 156.509C207.727 156.456 207.374 156.429 207.027 156.429C205.227 156.429 203.481 157.139 202.191 158.436C193.258 167.386 180.094 172.97 166.057 173.956C166.071 169 166.047 163.443 166.023 157.83L166.006 153.572ZM226.372 308.976C231.542 310.64 236.926 311.469 242.376 311.469C248.17 311.469 254.039 310.529 259.816 308.66L261.446 308.133C261.421 310.153 261.397 311.794 261.383 312.171C261.229 314.173 262.004 316.064 263.356 317.441H218.808C220.116 316.094 220.891 314.258 220.812 312.328C220.792 311.804 220.758 309.462 220.723 306.756C222.609 307.489 224.43 308.351 226.372 308.976ZM84.0791 64.8526H398.106V317.439H295.134L275.096 308.329C275.113 306.936 275.137 305.064 275.164 302.723C301.309 290.24 321.185 266.968 329.247 238.919C333.66 239.052 337.958 237.816 342.086 235.246C348.423 231.3 352.707 224.866 353.55 218.04C354.39 211.199 352.277 204.34 347.744 199.217C344.757 195.838 340.903 193.407 336.668 192.143C336.668 192.143 336.674 180.71 336.674 180.699V139.946C336.674 119.026 324.927 100.742 303.597 88.4626C270.464 69.3923 221.37 69.0066 189.415 87.5598C172.425 97.4226 152.204 116.894 152.341 153.627C152.341 153.627 152.344 180.566 152.341 180.814C152.341 180.827 152.347 180.838 152.347 180.85V192.127C148.448 193.281 144.894 195.431 141.981 198.447C137.438 203.154 135.064 209.354 135.294 215.91C135.557 223.209 139.701 230.263 146.381 234.773C150.605 237.627 154.957 239.107 159.434 238.936C166.573 265.024 183.892 286.914 206.995 300.209C207.034 303.835 207.067 306.469 207.091 308.331L187.051 317.439H84.0791V64.8526ZM125.039 397.82C125.039 375.224 138.056 354.706 158.2 345.546L186.969 332.47L234.266 408.143V447.146H172.826V406.186C172.826 402.416 169.769 399.359 165.999 399.359C162.229 399.359 159.172 402.416 159.172 406.186V447.146H125.039V397.82ZM357.146 447.146H329.839V406.186C329.839 402.416 326.782 399.359 323.012 399.359C319.242 399.359 316.186 402.416 316.186 406.186V447.146H247.919V408.143L295.216 332.47L323.982 345.545C344.129 354.704 357.146 375.222 357.146 397.818V447.146Z" fill="black"/>
<path d="M73.8386 347.254C69.5702 347.254 66.1074 350.715 66.1074 354.985C66.1074 359.253 69.5685 362.715 73.8386 362.715C78.1087 362.715 81.5698 359.253 81.5698 354.985C81.5681 350.715 78.107 347.254 73.8386 347.254Z" fill="black"/>
<path d="M278.638 232.106C282.408 232.106 285.465 229.05 285.465 225.28C285.465 221.51 282.408 218.453 278.638 218.453C274.868 218.453 271.812 221.51 271.812 225.28C271.812 229.05 274.868 232.106 278.638 232.106Z" fill="black"/>
<path d="M210.372 232.106C214.142 232.106 217.198 229.05 217.198 225.28C217.198 221.51 214.142 218.453 210.372 218.453C206.601 218.453 203.545 221.51 203.545 225.28C203.545 229.05 206.601 232.106 210.372 232.106Z" fill="black"/>
<path d="M357.145 85.333H377.625V105.813C377.625 109.583 380.682 112.64 384.452 112.64C388.222 112.64 391.278 109.583 391.278 105.813V78.5064C391.278 74.7363 388.222 71.6797 384.452 71.6797H357.145C353.375 71.6797 350.318 74.7363 350.318 78.5064C350.318 82.2764 353.375 85.333 357.145 85.333Z" fill="black"/>
<path d="M125.039 71.6797H97.7319C93.9619 71.6797 90.9053 74.7363 90.9053 78.5064V105.813C90.9053 109.583 93.9619 112.64 97.7319 112.64C101.502 112.64 104.559 109.583 104.559 105.813V85.333H125.039C128.809 85.333 131.865 82.2764 131.865 78.5064C131.865 74.7363 128.809 71.6797 125.039 71.6797Z" fill="black"/>
<path d="M384.452 269.652C380.682 269.652 377.625 272.709 377.625 276.479V296.959H357.145C353.375 296.959 350.318 300.016 350.318 303.786C350.318 307.556 353.375 310.612 357.145 310.612H384.452C388.222 310.612 391.278 307.556 391.278 303.786V276.479C391.278 272.709 388.222 269.652 384.452 269.652Z" fill="black"/>
<path d="M125.039 296.959H104.559V276.479C104.559 272.709 101.502 269.652 97.7319 269.652C93.9619 269.652 90.9053 272.709 90.9053 276.479V303.786C90.9053 307.556 93.9619 310.612 97.7319 310.612H125.039C128.809 310.612 131.865 307.556 131.865 303.786C131.865 300.016 128.809 296.959 125.039 296.959Z" fill="black"/>
</svg>
