<svg width="510" height="510" viewBox="0 0 510 510" fill="none" xmlns="http://www.w3.org/2000/svg">
<path fill-rule="evenodd" clip-rule="evenodd" d="M270.29 195.469L373.003 254.77C375.478 256.199 377.003 258.84 377.003 261.698V409.203C377.003 412.061 375.478 414.702 373.003 416.131L245.259 489.883C242.784 491.312 239.734 491.312 237.259 489.883L109.515 416.131C107.04 414.702 105.515 412.061 105.515 409.203V261.698C105.515 258.84 107.04 256.199 109.515 254.77L183.787 211.889L181.307 202.632L176.499 203.92C149.908 211.045 122.343 195.098 115.228 168.545C108.113 141.993 124.012 114.399 150.603 107.274C150.603 107.274 192.457 96.0599 192.459 96.0579C225.623 79.1859 253.059 48.5149 277.112 25.0039L277.117 24.9979C282.581 19.6679 289.813 17.8019 297.133 19.8189C304.451 21.8349 309.732 27.1459 311.693 34.4629L323.525 78.6199C338.693 77.7979 352.884 87.6509 356.973 102.909C361.061 118.166 353.697 133.795 340.15 140.667L351.982 184.824C354.001 192.358 351.904 199.815 346.28 205.191C340.664 210.559 333.19 212.336 325.74 210.021L325.728 210.017C307.797 204.416 289.321 198.898 270.29 195.469ZM188.074 227.889L129.515 261.698L158.866 278.644L197.572 256.297C195.586 253.438 194.052 250.199 193.102 246.653L188.074 227.889ZM121.515 275.555V404.584L233.259 469.099V340.069L203.909 323.124V367.361C203.909 370.219 202.384 372.86 199.909 374.289C197.434 375.718 194.384 375.718 191.909 374.289L154.865 352.904C152.39 351.475 150.865 348.834 150.865 345.976V292.5L121.515 275.555ZM249.259 469.099L361.003 404.584V275.555L249.259 340.069V469.099ZM353.003 261.698L323.652 244.753L211.908 309.268L241.259 326.213L353.003 261.698ZM307.652 235.515L286.61 223.367L242.526 248.818L244.651 256.749C245.795 261.017 243.262 265.403 238.994 266.547L231.184 268.64C224.162 270.521 217.034 269.82 210.818 267.125L174.866 287.881L195.908 300.03L307.652 235.515ZM270.61 214.129L241.259 197.184L230.375 203.468L238.239 232.818L270.61 214.129ZM196.762 198.491L208.557 242.512C210.707 250.537 219.018 255.335 227.043 253.185L227.126 253.163L211.424 194.562L196.762 198.491ZM327.854 94.7759L335.821 124.511C340.847 120.46 343.296 113.686 341.518 107.05C339.74 100.413 334.232 95.7719 327.854 94.7759ZM223.091 176.284C249.72 174.769 275.42 179.326 300.18 185.869L266.052 58.5029C247.734 76.4909 227.48 94.9989 204.703 107.662L223.091 176.284ZM318.105 190.946C322.26 192.189 326.388 193.461 330.488 194.742C332.206 195.275 333.929 194.863 335.224 193.625C336.511 192.395 336.989 190.689 336.527 188.965L296.238 38.6039C295.787 36.9219 294.566 35.7069 292.883 35.2439C291.202 34.7809 289.546 35.2269 288.291 36.4499C285.294 39.3799 282.243 42.4119 279.135 45.5099L318.105 190.946ZM189.669 113.371L154.744 122.729C136.657 127.575 125.843 146.344 130.683 164.404C135.522 182.465 154.271 193.312 172.358 188.465L207.283 179.107L189.669 113.371ZM166.865 301.737V341.357L187.909 353.505V313.887L166.865 301.737ZM360.07 65.6649C357.862 69.4889 352.965 70.8009 349.142 68.5939C345.318 66.3859 344.006 61.4889 346.214 57.6649L358.237 36.8399C360.445 33.0159 365.342 31.7039 369.165 33.9119C372.989 36.1189 374.301 41.0159 372.094 44.8399L360.07 65.6649ZM370.152 147.67C366.331 145.459 365.023 140.561 367.235 136.739C369.446 132.917 374.344 131.61 378.166 133.822L399 145.877C402.822 148.089 404.129 152.987 401.917 156.808C399.706 160.63 394.808 161.937 390.986 159.726L370.152 147.67ZM382.078 104.602C377.813 105.745 373.423 103.21 372.28 98.9449C371.137 94.6799 373.672 90.2899 377.937 89.1469L401.208 82.9119C405.473 81.7689 409.863 84.3039 411.006 88.5679C412.149 92.8329 409.614 97.2239 405.349 98.3659L382.078 104.602ZM74.1902 28.3669C74.1902 23.9519 77.7752 20.3669 82.1902 20.3669C86.6062 20.3669 90.1902 23.9519 90.1902 28.3669V50.0979C90.1902 54.5129 86.6062 58.0979 82.1902 58.0979C77.7752 58.0979 74.1902 54.5129 74.1902 50.0979V28.3669ZM126.557 64.7339C130.972 64.7339 134.557 68.3179 134.557 72.7339C134.557 77.1489 130.972 80.7339 126.557 80.7339H104.826C100.411 80.7339 96.8262 77.1489 96.8262 72.7339C96.8262 68.3179 100.411 64.7339 104.826 64.7339H126.557ZM90.1902 117.1C90.1902 121.516 86.6062 125.1 82.1902 125.1C77.7752 125.1 74.1902 121.516 74.1902 117.1V95.3699C74.1902 90.9539 77.7752 87.3699 82.1902 87.3699C86.6062 87.3699 90.1902 90.9539 90.1902 95.3699V117.1ZM37.8242 80.7339C33.4082 80.7339 29.8242 77.1489 29.8242 72.7339C29.8242 68.3179 33.4082 64.7339 37.8242 64.7339H59.5542C63.9702 64.7339 67.5542 68.3179 67.5542 72.7339C67.5542 77.1489 63.9702 80.7339 59.5542 80.7339H37.8242ZM419.812 172.965C419.812 168.55 423.396 164.965 427.812 164.965C432.227 164.965 435.812 168.55 435.812 172.965V194.696C435.812 199.111 432.227 202.696 427.812 202.696C423.396 202.696 419.812 199.111 419.812 194.696V172.965ZM472.178 209.332C476.594 209.332 480.178 212.916 480.178 217.332C480.178 221.747 476.594 225.332 472.178 225.332H450.448C446.032 225.332 442.448 221.747 442.448 217.332C442.448 212.916 446.032 209.332 450.448 209.332H472.178ZM435.812 261.698C435.812 266.114 432.227 269.698 427.812 269.698C423.396 269.698 419.812 266.114 419.812 261.698V239.968C419.812 235.552 423.396 231.968 427.812 231.968C432.227 231.968 435.812 235.552 435.812 239.968V261.698ZM383.445 225.332C379.03 225.332 375.445 221.747 375.445 217.332C375.445 212.916 379.03 209.332 383.445 209.332H405.176C409.591 209.332 413.176 212.916 413.176 217.332C413.176 221.747 409.591 225.332 405.176 225.332H383.445Z" fill="url(#paint0_linear_2054_15)"/>
<defs>
<linearGradient id="paint0_linear_2054_15" x1="255.001" y1="19.0256" x2="255.001" y2="490.955" gradientUnits="userSpaceOnUse">
<stop stop-color="#F9CF2F"/>
<stop offset="1" stop-color="#0B559B"/>
</linearGradient>
</defs>
</svg>
