<svg width="512" height="512" viewBox="0 0 512 512" fill="none" xmlns="http://www.w3.org/2000/svg">
<path d="M430.51 203.35C429.77 202.314 428.793 201.469 427.661 200.887C426.528 200.304 425.273 200 424 200H416V136H480C482.122 136 484.157 135.157 485.657 133.657C487.157 132.157 488 130.122 488 128V64C488 61.8783 487.157 59.8434 485.657 58.3431C484.157 56.8429 482.122 56 480 56H416V32C416 29.8783 415.157 27.8434 413.657 26.3431C412.157 24.8429 410.122 24 408 24H136C133.878 24 131.843 24.8429 130.343 26.3431C128.843 27.8434 128 29.8783 128 32V200H112V192C111.993 185.637 109.462 179.537 104.962 175.038C100.463 170.538 94.3629 168.007 88 168H56C49.6371 168.007 43.5369 170.538 39.0376 175.038C34.5384 179.537 32.0074 185.637 32 192V200H24C21.8783 200 19.8434 200.843 18.3431 202.343C16.8429 203.843 16 205.878 16 208V480C16 482.122 16.8429 484.157 18.3431 485.657C19.8434 487.157 21.8783 488 24 488H488C490.122 488 492.157 487.157 493.657 485.657C495.157 484.157 496 482.122 496 480V297.6C496 295.932 495.479 294.306 494.51 292.949L430.51 203.35ZM317.641 375.668L317.912 376.068C310.766 386.295 300.409 393.842 288.485 397.513C276.561 401.184 263.752 400.768 252.092 396.33C240.431 391.893 230.586 383.689 224.119 373.02C217.652 362.35 214.933 349.827 216.394 337.437C217.854 325.046 223.41 313.498 232.181 304.625C240.952 295.752 252.434 290.061 264.807 288.457C277.18 286.852 289.734 289.426 300.478 295.768C311.221 302.111 319.539 311.86 324.112 323.468C316.902 329.915 312.274 338.756 311.084 348.354C309.895 357.953 312.225 367.656 317.643 375.668H317.641ZM338.069 315.368C331.836 300.978 321.077 289.015 307.425 281.298C293.773 273.581 277.975 270.531 262.432 272.611C246.888 274.692 232.449 281.79 221.307 292.826C210.166 303.862 202.932 318.233 200.703 333.756C198.475 349.279 201.375 365.105 208.962 378.83C216.549 392.554 228.409 403.427 242.74 409.796C257.07 416.165 273.088 417.682 288.36 414.117C303.631 410.551 317.321 402.098 327.35 390.042L341.192 410.532C326.599 425.686 307.43 435.625 286.636 438.819C265.842 442.013 244.574 438.286 226.106 428.21C207.637 418.134 192.991 402.269 184.422 383.055C175.853 363.841 173.835 342.344 178.678 321.871C183.522 301.398 194.959 283.084 211.23 269.747C227.5 256.41 247.703 248.789 268.728 248.058C289.754 247.326 310.437 253.524 327.596 265.697C344.754 277.871 357.437 295.345 363.692 315.432C355.395 312.576 346.385 312.554 338.074 315.369L338.069 315.368ZM56 296H32V280H180.141C164.971 301.717 158.008 328.115 160.491 354.489C162.974 380.862 174.743 405.497 193.7 424H128V368C127.979 348.911 120.386 330.61 106.888 317.112C93.39 303.614 75.089 296.021 56 296ZM128 440H214.369C231.785 450.469 251.722 456 272.043 456C292.363 456 312.3 450.469 329.716 440H361.1L368.027 450.253C368.207 457.612 369.316 464.919 371.327 472H128V440ZM383.087 329.729C380.814 311.847 374.239 294.783 363.925 280H416V378.361L383.919 330.882C383.653 330.487 383.366 330.112 383.087 329.729ZM400 200H384V136H400V200ZM256 128V104H288V128C287.998 130.121 287.154 132.154 285.654 133.654C284.154 135.154 282.121 135.998 280 136H264C261.879 135.998 259.846 135.154 258.346 133.654C256.846 132.154 256.002 130.121 256 128ZM296 88H256V80C256.002 77.879 256.846 75.8456 258.346 74.3458C259.846 72.846 261.879 72.0024 264 72H304V80C303.998 82.121 303.154 84.1544 301.654 85.6542C300.154 87.154 298.121 87.9976 296 88ZM240 80V128C239.995 131.599 240.806 135.153 242.37 138.394C234.649 141.203 227.979 146.317 223.262 153.044C218.545 159.77 216.01 167.784 216 176V200H176V72H241.376C240.464 74.5686 239.999 77.2744 240 80ZM232 176C232.007 169.637 234.538 163.537 239.037 159.037C243.537 154.538 249.637 152.007 256 152H288C294.363 152.007 300.463 154.538 304.963 159.037C309.462 163.537 311.993 169.637 312 176V200H232V176ZM301.63 138.394C303.194 135.153 304.005 131.599 304 128V102.624C308.676 100.965 312.723 97.8999 315.588 93.8493C318.452 89.7988 319.994 84.9611 320 80V72H360V76.687L330.343 106.343C329.224 107.462 328.462 108.887 328.153 110.439C327.845 111.991 328.003 113.6 328.609 115.062C329.214 116.523 330.24 117.773 331.555 118.652C332.871 119.531 334.418 120 336 120H360V128C360 130.122 360.843 132.157 362.343 133.657C363.843 135.157 365.878 136 368 136V200H328V176C327.99 167.784 325.455 159.77 320.738 153.044C316.021 146.317 309.351 141.203 301.63 138.394ZM472 120H376V112C376 109.878 375.157 107.843 373.657 106.343C372.157 104.843 370.122 104 368 104H355.313L373.657 85.657C374.4 84.9141 374.989 84.0322 375.391 83.0615C375.793 82.0909 376 81.0506 376 80V72H472V120ZM144 40H400V56H168C165.878 56 163.843 56.8429 162.343 58.3431C160.843 59.8434 160 61.8783 160 64V200H144V40ZM48 192C48.0024 189.879 48.846 187.846 50.3458 186.346C51.8456 184.846 53.879 184.002 56 184H88C90.121 184.002 92.1544 184.846 93.6542 186.346C95.154 187.846 95.9976 189.879 96 192V200H48V192ZM416 216V264H350.376C349.309 262.954 348.22 261.926 347.108 260.916C325.96 241.783 298.305 231.448 269.792 232.021C241.28 232.594 214.062 244.033 193.7 264H32V216H416ZM32 312H56C70.847 312.017 85.0811 317.922 95.5796 328.42C106.078 338.919 111.983 353.153 112 368V472H32V312ZM480 472H388.125C385.555 464.775 384.168 457.183 384.016 449.516C384.216 448.484 384.21 447.423 383.999 446.394C383.789 445.364 383.378 444.387 382.789 443.516L330.9 366.708C329.064 364.099 327.767 361.151 327.084 358.035C326.401 354.919 326.346 351.698 326.922 348.56C327.499 345.423 328.695 342.431 330.44 339.762C332.186 337.092 334.447 334.797 337.09 333.011C339.733 331.225 342.706 329.983 345.834 329.36C348.963 328.736 352.184 328.742 355.31 329.378C358.436 330.013 361.404 331.266 364.04 333.062C366.677 334.858 368.928 337.162 370.664 339.838L417.374 408.969C418.333 410.387 419.722 411.46 421.337 412.03C422.951 412.6 424.706 412.637 426.342 412.135C427.979 411.634 429.412 410.621 430.431 409.245C431.449 407.869 431.999 406.202 432 404.49V232.963L480 300.163V472Z" fill="black"/>
<path d="M408 104H448C450.122 104 452.157 103.157 453.657 101.657C455.157 100.157 456 98.1217 456 96C456 93.8783 455.157 91.8434 453.657 90.3431C452.157 88.8429 450.122 88 448 88H408C405.878 88 403.843 88.8429 402.343 90.3431C400.843 91.8434 400 93.8783 400 96C400 98.1217 400.843 100.157 402.343 101.657C403.843 103.157 405.878 104 408 104Z" fill="black"/>
<path d="M56 248H104C106.122 248 108.157 247.157 109.657 245.657C111.157 244.157 112 242.122 112 240C112 237.878 111.157 235.843 109.657 234.343C108.157 232.843 106.122 232 104 232H56C53.8783 232 51.8434 232.843 50.3431 234.343C48.8429 235.843 48 237.878 48 240C48 242.122 48.8429 244.157 50.3431 245.657C51.8434 247.157 53.8783 248 56 248Z" fill="black"/>
<path d="M272 320C267.253 320 262.613 321.408 258.666 324.045C254.72 326.682 251.643 330.43 249.827 334.816C248.01 339.201 247.535 344.027 248.461 348.682C249.387 353.338 251.673 357.614 255.029 360.971C258.386 364.327 262.662 366.613 267.318 367.539C271.973 368.465 276.799 367.99 281.184 366.173C285.57 364.357 289.318 361.28 291.955 357.334C294.592 353.387 296 348.747 296 344C295.993 337.637 293.462 331.537 288.963 327.037C284.463 322.538 278.363 320.007 272 320ZM272 352C270.418 352 268.871 351.531 267.555 350.652C266.24 349.773 265.214 348.523 264.609 347.061C264.003 345.6 263.845 343.991 264.154 342.439C264.462 340.887 265.224 339.462 266.343 338.343C267.462 337.224 268.887 336.462 270.439 336.154C271.991 335.845 273.6 336.003 275.061 336.609C276.523 337.214 277.773 338.24 278.652 339.555C279.531 340.871 280 342.418 280 344C279.998 346.121 279.154 348.154 277.654 349.654C276.154 351.154 274.121 351.998 272 352Z" fill="black"/>
</svg>
