<svg width="200" height="200" viewBox="0 0 200 200" fill="none" xmlns="http://www.w3.org/2000/svg">
<path d="M48.3915 117.447C26.5691 117.447 8.81445 135.202 8.81445 157.024V179.293C8.81445 185.168 13.594 189.947 19.4684 189.947C39.2832 189.949 93.4824 189.948 119.429 189.947C125.326 189.947 130.122 185.168 130.122 179.293V177.674C132.716 179.667 135.521 181.302 138.547 182.422L139.711 188.471C140.138 190.695 142.091 192.308 144.356 192.308H155.436C157.699 192.308 159.652 190.702 160.076 188.492L161.246 182.424C164.606 181.179 167.726 179.382 170.537 177.074L176.344 179.077C178.485 179.819 180.857 178.931 181.987 176.968L187.514 167.376C188.643 165.415 188.22 162.917 186.508 161.435L181.848 157.409C182.444 153.847 182.444 150.265 181.846 146.727L186.521 142.669C188.224 141.187 188.643 138.691 187.516 136.736L181.987 127.141C181.086 125.581 178.924 124.142 175.805 125.222L170.513 127.06C167.716 124.745 164.606 122.942 161.246 121.688L160.08 115.635C159.652 113.413 157.699 111.8 155.436 111.8H144.356C142.093 111.8 140.14 113.406 139.715 115.62L138.545 121.688C135.189 122.94 132.077 124.743 129.281 127.059L123.455 125.036C121.32 124.294 118.933 125.181 117.804 127.143L117.352 127.929C110.062 121.233 100.498 117.447 90.5452 117.447H87.1986V113.191C95.8619 108.238 102.057 99.4986 103.547 89.24C109.81 88.0538 114.567 82.5588 114.567 75.9562C114.567 70.2304 110.983 65.3516 105.951 63.375C106.04 62.9902 107.16 59.9957 107.16 55.6005C107.16 52.5469 106.595 49.497 105.511 46.6575C111.139 41.6507 114.426 35.6561 115.29 28.8164C115.78 25.0203 112.787 21.6387 108.929 21.6387H60.1291C43.7622 22.0368 33.4989 35.4232 31.7148 44.355C31.6679 44.5898 31.3806 44.7325 31.0575 44.8057C26.8912 45.8753 23.4497 49.7165 23.4835 55.6738C23.9887 60.4307 25.0263 64.8044 26.5165 68.7526C25.1935 70.844 24.3981 73.3031 24.3981 75.9562C24.3981 82.5621 29.1598 88.0588 35.4277 89.241C36.916 99.4759 43.0946 108.197 51.7363 113.155V117.447H48.3915ZM19.4684 184.178C16.7753 184.178 14.5837 181.986 14.5837 179.293V157.024C14.5837 138.912 28.9129 124.123 46.8234 123.296L34.1844 136.727C32.1543 138.862 32.6107 142.344 35.1873 143.889L40.3818 146.975L32.9374 153.291C31.0876 154.934 30.8341 157.732 32.3552 159.655L51.6752 184.178H19.4684ZM60.8108 138.809C63.2203 140.105 65.9312 140.909 68.8524 140.909H70.0825C73.0084 140.909 75.724 140.102 78.1354 138.802L69.4712 175.127L60.8108 138.809ZM57.5055 123.793V115.763C64.2926 118.079 69.2299 117.458 70.813 117.562C74.5296 117.562 78.0922 116.919 81.4294 115.787V123.793C81.4294 129.815 76.4949 135.14 70.0825 135.14H68.8524C62.3479 135.14 57.5055 129.683 57.5055 123.793ZM122.376 130.768L127.976 132.713C129.548 133.258 131.309 132.916 132.581 131.823C135.103 129.658 137.942 128.011 141.024 126.927C142.632 126.36 143.777 125.04 144.091 123.4L145.214 117.569H154.578L155.699 123.387C156.011 125.019 157.192 126.377 158.771 126.927C161.849 128.009 164.689 129.658 167.211 131.823C168.484 132.922 170.252 133.267 171.81 132.717L177.427 130.783L182.09 138.875L177.598 142.774C176.349 143.861 175.763 145.559 176.071 147.208C176.656 150.316 176.696 153.584 176.075 156.925C175.762 158.579 176.351 160.282 177.611 161.372L182.087 165.238L177.416 173.344L171.838 171.421C170.259 170.871 168.544 171.201 167.254 172.298C164.717 174.459 161.866 176.101 158.779 177.181C157.171 177.744 156.02 179.062 155.701 180.709L154.578 186.539H145.214L144.093 180.713C143.777 179.091 142.6 177.737 141.011 177.179C137.929 176.103 135.078 174.461 132.541 172.303C131.274 171.218 129.518 170.878 127.957 171.419L122.377 173.344L117.707 165.24L122.154 161.4C123.408 160.312 123.998 158.613 123.69 156.966C123.102 153.817 123.067 150.503 123.69 147.174C123.998 145.529 123.412 143.831 122.16 142.74L117.703 138.875L122.376 130.768ZM114.371 133.104L112.279 136.734C111.151 138.689 111.568 141.185 113.275 142.67L117.915 146.697C117.317 150.259 117.316 153.875 117.915 157.439L113.288 161.434C111.573 162.913 111.149 165.411 112.279 167.376L117.806 176.968C118.935 178.929 121.305 179.816 123.448 179.077L124.353 178.765V179.293C124.353 181.986 122.145 184.178 119.429 184.178H87.2193L106.604 159.561C108.153 157.597 107.874 154.787 105.969 153.168L98.5962 146.885L103.778 143.807C106.33 142.285 106.809 138.801 104.784 136.65L92.2505 123.308C100.567 123.731 108.442 127.221 114.371 133.104ZM99.6122 139.57L94.2862 142.734C91.565 144.35 91.2213 148.181 93.6458 150.244L101.396 156.849L79.8753 184.178H73.2422C75.7428 173.696 82.42 145.705 87.069 126.217L99.6122 139.57ZM108.798 75.9562C108.798 79.215 106.781 82.0076 103.93 83.1598C103.929 82.7649 103.912 68.3461 103.913 68.7409C106.773 69.8884 108.798 72.6904 108.798 75.9562ZM35.0445 83.1652C32.189 82.0161 30.1674 79.219 30.1674 75.9562C30.1674 72.6904 32.1919 69.8884 35.0521 68.7409C35.0483 74.8423 35.0445 83.7363 35.0445 83.1652ZM35.4934 62.663C33.9365 62.9489 32.4942 63.5257 31.1721 64.2966C30.2932 61.4538 29.5777 58.484 29.2359 55.3695C29.2359 52.5943 30.7899 50.8337 32.4022 50.4153C34.9469 49.8501 36.8981 47.9044 37.3733 45.4743C38.8475 38.0975 47.6234 27.714 60.1985 27.4079H108.929C109.301 27.4079 109.615 27.7222 109.568 28.084C108.803 34.1312 105.746 39.1961 100.217 43.5681C99.1502 44.4132 98.8178 45.8875 99.4188 47.1063C101.25 50.8203 101.919 55.0895 100.886 59.8197C97.6009 54.058 92.3293 50.6783 87.5836 50.6783C87.0456 50.6783 45.7623 50.6764 45.1933 50.6764C37.7404 50.6764 36.1282 55.6993 35.4934 62.663ZM40.8213 84.6321V69.3456C41.7471 59.7258 40.7809 56.3644 45.4299 56.4475H87.6982C91.3396 56.4475 97.1098 61.1155 98.1436 69.5435V84.8171C97.9624 99.7205 85.7807 111.792 70.813 111.792H68.1988C53.1476 111.792 40.902 99.6214 40.8213 84.6321ZM51.9034 126.319C56.3148 144.824 63.3019 174.125 65.6992 184.178H59.0229L37.5573 156.934L45.3604 150.316C47.7323 148.251 47.3877 144.426 44.6712 142.811L39.3527 139.652L51.9034 126.319Z" fill="black"/>
<path d="M78.7863 98.6536C79.9131 97.5268 79.9131 95.6995 78.7863 94.5746C77.6595 93.4478 75.8341 93.4478 74.7073 94.5746C71.9184 97.3653 67.0488 97.3653 64.2562 94.5746C63.1294 93.4478 61.3039 93.4478 60.1771 94.5746C59.0503 95.6995 59.0503 97.5268 60.1771 98.6536C65.3172 103.797 73.6443 103.799 78.7863 98.6536Z" fill="black"/>
<path d="M69.4842 86.8392C71.0768 86.8392 72.3688 85.5472 72.3688 83.9546V80.1385C72.3688 78.546 71.0768 77.2539 69.4842 77.2539C67.8917 77.2539 66.5996 78.546 66.5996 80.1385V83.9546C66.5996 85.5472 67.8917 86.8392 69.4842 86.8392Z" fill="black"/>
<path d="M53.3516 68.8312C51.7966 70.3805 52.5732 72.9611 54.2756 73.5224C55.3554 74.0041 56.6343 73.6994 57.4287 72.9083C58.564 71.7731 58.5509 69.95 57.4287 68.8312C56.4034 67.8065 54.5197 67.6626 53.3516 68.8312Z" fill="black"/>
<path d="M85.6213 72.9084C86.9894 71.54 86.7068 69.1061 84.6973 68.2153C83.6344 67.7674 82.3338 68.0357 81.5441 68.8313C80.4201 69.9513 80.4098 71.7746 81.5441 72.9084C82.6709 74.0352 84.4907 74.0343 85.6213 72.9084Z" fill="black"/>
<path d="M149.895 168.203C158.801 168.203 166.044 160.96 166.044 152.054C166.044 143.149 158.801 135.905 149.895 135.905C140.99 135.905 133.746 143.149 133.746 152.054C133.746 160.96 140.99 168.203 149.895 168.203ZM149.895 141.675C155.619 141.675 160.275 146.33 160.275 152.054C160.275 157.778 155.619 162.434 149.895 162.434C144.171 162.434 139.515 157.778 139.515 152.054C139.515 146.33 144.171 141.675 149.895 141.675Z" fill="black"/>
<path d="M133.373 74.8742L142.421 70.5623C148.724 73.8789 155.864 75.0451 163.089 73.9465C177.022 71.8244 188.376 60.6371 190.705 46.7398C194.52 23.958 175.155 4.44906 152.284 8.1431C138.104 10.4399 126.826 22.0028 124.858 36.2625C123.793 43.9773 125.296 51.495 129.204 58.0304L126.834 69.7717C126.078 73.5232 129.931 76.5097 133.373 74.8742ZM130.575 37.0512C132.197 25.2799 141.505 15.734 153.208 13.8372C172.124 10.7836 188.183 26.8588 185.014 45.7858C183.093 57.2586 173.72 66.4927 162.221 68.243C156.044 69.1839 149.986 68.1378 144.675 65.2251C143.377 64.5095 141.809 64.4626 140.485 65.0936L132.939 68.69L134.95 58.7159C135.181 57.5778 134.971 56.4003 134.355 55.3975C130.98 49.9212 129.673 43.5773 130.575 37.0512Z" fill="black"/>
<path d="M146.199 42.9071C147.323 41.7831 147.326 39.957 146.199 38.8299C145.391 38.0224 144.122 37.7538 143.046 38.2158C141.328 38.782 140.566 41.3516 142.122 42.9071C143.23 44.0231 145.057 44.0487 146.199 42.9071Z" fill="black"/>
<path d="M159.89 42.9071C161.453 41.3389 160.652 38.7717 158.967 38.2158C157.89 37.7538 156.621 38.0224 155.813 38.8299C154.697 39.9541 154.672 41.7662 155.813 42.9071C156.967 44.0613 158.788 44.009 159.89 42.9071Z" fill="black"/>
<path d="M173.584 42.9067C174.714 41.7762 174.734 39.9883 173.584 38.8296C172.269 37.5152 169.811 37.6871 168.891 39.7536C168.415 40.8222 168.703 42.1037 169.507 42.9067C170.603 44.0103 172.433 44.0584 173.584 42.9067Z" fill="black"/>
</svg>
