<svg width="100" height="100" viewBox="0 0 100 100" fill="none" xmlns="http://www.w3.org/2000/svg">
<path d="M95.8951 59.1777C93.6412 55.5937 88.8912 54.5137 85.3072 56.7695L74.4537 63.5996V36.7988L77.1764 39.0391C77.3873 39.2129 77.651 39.3066 77.9205 39.3066C77.9576 39.3066 77.9967 39.3047 78.0338 39.3008C78.3424 39.2715 78.6276 39.1191 78.8248 38.8789L82.0963 34.9023C82.5065 34.4023 82.4361 33.6641 81.9361 33.252L81.3678 32.7832L81.4029 32.6152C81.7467 32.4883 82.0865 32.3477 82.4186 32.1934L84.7018 33.668C85.0358 33.8828 85.4088 33.9883 85.7799 33.9883C86.2877 33.9883 86.7916 33.7891 87.1764 33.4043L90.2486 30.332C90.9147 29.666 91.0221 28.6484 90.5123 27.8574L89.0377 25.5742C89.192 25.2422 89.3326 24.9004 89.4596 24.5586L92.1158 23.9883C93.0358 23.791 93.6783 22.9941 93.6783 22.0527V17.709C93.6783 16.7676 93.0358 15.9727 92.1158 15.7734L89.4596 15.2031C89.3326 14.8594 89.192 14.5195 89.0377 14.1875L90.5123 11.9043C91.024 11.1133 90.9147 10.0957 90.2486 9.43164L87.1764 6.35938C86.5104 5.69336 85.4928 5.58594 84.7018 6.0957L82.4205 7.57031C82.0885 7.41602 81.7467 7.27539 81.4049 7.14844L80.8326 4.49219C80.6354 3.57227 79.8385 2.92969 78.8971 2.92969H74.5514C73.61 2.92969 72.8151 3.57227 72.6158 4.49219L72.0455 7.14844C71.7018 7.27539 71.3619 7.41602 71.0299 7.57031L68.7486 6.0957C67.9576 5.58398 66.9401 5.69336 66.276 6.35938L63.2018 9.43164C62.5358 10.0977 62.4283 11.1152 62.9381 11.9062L64.4127 14.1895C64.2584 14.5215 64.1178 14.8633 63.9908 15.2051L61.3346 15.7754C61.1744 15.8105 61.024 15.8652 60.8815 15.9355L50.7428 7.5957C50.3111 7.24023 49.6861 7.24023 49.2545 7.5957L39.4693 15.6445V9.36133C39.4693 8.71484 38.944 8.18945 38.2975 8.18945H28.4889C27.8424 8.18945 27.317 8.71484 27.317 9.36133V25.6387L18.0611 33.252C17.5611 33.6621 17.4889 34.4023 17.901 34.9023L21.1725 38.8789C21.3697 39.1191 21.6549 39.2715 21.9635 39.3008C22.2721 39.332 22.5807 39.2363 22.8209 39.0391L25.5436 36.7988V62.4277L16.7447 67.6562L14.8033 64.3945C14.6451 64.127 14.3854 63.9355 14.0846 63.8574C13.7838 63.7813 13.4635 63.8281 13.1979 63.9863L3.50255 69.7578C3.21544 69.9277 3.01622 70.2129 2.95177 70.5391C2.88732 70.8652 2.96544 71.2051 3.16661 71.4707L22.149 96.6016C22.3776 96.9043 22.7272 97.0664 23.0846 97.0664C23.2897 97.0664 23.4967 97.0137 23.6842 96.9023L30.4108 92.8965C30.9674 92.5645 31.149 91.8457 30.819 91.2891L28.4381 87.291L33.1666 84.5625L55.026 90.0605C55.9459 90.293 56.8522 90.4082 57.7408 90.4082C59.692 90.4082 61.5631 89.8516 63.3248 88.7422L93.4889 69.7617C95.2194 68.6738 96.4225 66.9707 96.8776 64.9648C97.3326 62.9629 96.983 60.9062 95.8951 59.1777ZM64.6822 17.4531C65.3619 17.3066 65.9049 16.8281 66.1334 16.1738C66.2701 15.7832 66.4303 15.3965 66.6119 15.0215C66.9147 14.3945 66.8678 13.6719 66.4908 13.0879L65.0651 10.8828L67.7213 8.22656L69.9264 9.65234C70.5104 10.0293 71.233 10.0742 71.86 9.77344C72.235 9.59375 72.6217 9.43164 73.0123 9.29492C73.6686 9.06445 74.1471 8.52148 74.2916 7.84375L74.8463 5.27344H78.6022L79.1529 7.83984C79.2994 8.51953 79.7779 9.06055 80.4322 9.29102C80.8229 9.42773 81.2096 9.58789 81.5846 9.76953C82.2115 10.0723 82.9342 10.0273 83.5182 9.64844L85.7233 8.22266L88.3795 10.8789L86.9576 13.0859C86.5807 13.6699 86.5358 14.3926 86.8365 15.0195C87.0162 15.3945 87.1783 15.7832 87.3151 16.1738C87.5455 16.8301 88.0885 17.3086 88.7662 17.4531L91.3326 18.0039V21.7598L88.7662 22.3105C88.0865 22.457 87.5436 22.9355 87.3151 23.5898C87.1783 23.9805 87.0162 24.3691 86.8365 24.7422C86.5338 25.3691 86.5787 26.0918 86.9576 26.6758L88.3834 28.8809L85.7272 31.5371L83.5221 30.1113C82.9381 29.7344 82.2154 29.6895 81.5885 29.9902C81.2135 30.1699 80.8268 30.332 80.4361 30.4688C80.0318 30.6113 79.6959 30.873 79.4635 31.2109L75.9811 28.3477C76.2272 28.3691 76.4752 28.3828 76.7272 28.3828C81.4166 28.3828 85.2311 24.5684 85.2311 19.8789C85.2311 15.1895 81.4166 11.375 76.7272 11.375C72.0377 11.375 68.2213 15.1934 68.2213 19.8828C68.2213 20.7031 68.3404 21.498 68.5592 22.248L63.1334 17.7852L64.6822 17.4531ZM70.5651 19.8828C70.5651 16.4863 73.3287 13.7227 76.7252 13.7227C80.1217 13.7227 82.8854 16.4863 82.8854 19.8828C82.8854 23.2793 80.1217 26.043 76.7252 26.043C73.3287 26.043 70.5651 23.2793 70.5651 19.8828ZM29.6608 10.5332H37.1256V17.5703L29.6608 23.7109V10.5332ZM22.2369 36.4844L20.4557 34.3184L49.9986 10.0176L79.5436 34.3164L77.7623 36.4824L50.7428 14.2617C50.526 14.084 50.2623 13.9941 49.9986 13.9941C49.735 13.9941 49.4713 14.084 49.2545 14.2617L22.2369 36.4844ZM27.8873 34.8711L49.9986 16.6836L72.11 34.8711V65.0742L64.0299 70.1582C64.5143 66.7109 62.2819 63.4512 58.7662 62.6074L48.3092 60.1016V46.498C48.3092 45.8516 47.7838 45.3262 47.1373 45.3262H33.0475C32.401 45.3262 31.8756 45.8516 31.8756 46.498V58.877C31.1471 59.1719 30.4283 59.5234 29.7213 59.9434L27.8854 61.0332V34.8711H27.8873ZM45.9654 59.5391L40.7076 58.2793C38.4811 57.7461 36.3131 57.707 34.2213 58.1543V47.668H45.9674V59.5391H45.9654ZM23.3854 94.3555L5.82286 71.1035L13.3893 66.6016L28.2037 91.4863L23.3854 94.3555ZM94.5904 64.4473C94.274 65.8418 93.4381 67.0254 92.2389 67.7793L62.0748 86.7598C60.0709 88.0215 57.8912 88.3672 55.5943 87.7891L33.276 82.1758C32.9811 82.1016 32.6686 82.1445 32.4049 82.2969L27.2389 85.2793L17.944 69.668L30.9205 61.9551C33.8365 60.2207 36.86 59.7637 40.1608 60.5547L58.2213 64.8848C60.6529 65.4668 62.1608 67.7793 61.6549 70.1465C61.1608 72.459 58.8307 73.9512 56.3443 73.541L42.3873 71.25C41.7486 71.1445 41.1451 71.5781 41.0416 72.2168C40.9361 72.8555 41.3697 73.459 42.0084 73.5625L55.9654 75.8535C56.3697 75.9199 56.7701 75.9512 57.1666 75.9512C58.7194 75.9512 60.1822 75.4551 61.3619 74.5957L61.3658 74.6016L86.5572 58.748C89.0475 57.1816 92.3463 57.9316 93.9127 60.4219C94.6666 61.625 94.9068 63.0527 94.5904 64.4473ZM55.6744 60.1426H66.9498C67.5963 60.1426 68.1217 59.6172 68.1217 58.9707V46.873C68.1217 46.2266 67.5963 45.7012 66.9498 45.7012H55.6744C55.0279 45.7012 54.5026 46.2266 54.5026 46.873V58.9707C54.5026 59.6191 55.026 60.1426 55.6744 60.1426ZM56.8463 54.0937H60.1393V57.7988H56.8463V54.0937ZM62.483 57.7988V54.0937H65.776V57.7988H62.483ZM65.776 51.75H62.483V48.0449H65.776V51.75ZM60.1393 48.0449V51.75H56.8463V48.0449H60.1393Z" fill="black"/>
</svg>
