<svg width="100" height="100" viewBox="0 0 100 100" fill="none" xmlns="http://www.w3.org/2000/svg">
<path d="M96.875 48.4375H90.625V32.8125H92.1875C92.4965 32.8124 92.7985 32.7208 93.0554 32.5491C93.3123 32.3774 93.5125 32.1334 93.6307 31.8479C93.749 31.5624 93.7799 31.2483 93.7197 30.9453C93.6594 30.6422 93.5106 30.3638 93.2922 30.1453L65.1672 2.02031C64.8742 1.72727 64.4769 1.56259 64.0625 1.5625H35.9375C35.5231 1.56259 35.1258 1.72727 34.8328 2.02031L6.70781 30.1453C6.48936 30.3638 6.3406 30.6422 6.28034 30.9453C6.22008 31.2483 6.25102 31.5624 6.36925 31.8479C6.48749 32.1334 6.68771 32.3774 6.9446 32.5491C7.20149 32.7208 7.50352 32.8124 7.8125 32.8125H15.625V46.875H3.125C2.7106 46.875 2.31317 47.0396 2.02015 47.3326C1.72712 47.6257 1.5625 48.0231 1.5625 48.4375V76.5625C1.5625 76.9769 1.72712 77.3743 2.02015 77.6674C2.31317 77.9604 2.7106 78.125 3.125 78.125H15.625C16.0394 78.125 16.4368 77.9604 16.7299 77.6674C17.0229 77.3743 17.1875 76.9769 17.1875 76.5625V75H24.4859L25.5797 75.8L22.1875 80.3125C22.0625 80.4791 21.9721 80.6691 21.9216 80.8712C21.8711 81.0733 21.8615 81.2834 21.8933 81.4892C21.9252 81.6951 21.9979 81.8925 22.1072 82.0698C22.2165 82.2472 22.3601 82.4009 22.5297 82.5219L44.4047 98.1469C44.7368 98.3839 45.1485 98.4817 45.5517 98.4192C45.9549 98.3567 46.3177 98.1389 46.5625 97.8125L49.725 93.5938L53.7609 96.5625C54.0917 96.8077 54.5059 96.9124 54.9135 96.8539C55.3211 96.7954 55.6891 96.5784 55.9375 96.25L59.5062 91.4922L59.975 91.8594C60.1389 91.9872 60.3268 92.0811 60.5274 92.1354C60.7281 92.1897 60.9376 92.2035 61.1436 92.1758C61.3497 92.1482 61.5481 92.0797 61.7274 91.9744C61.9066 91.8691 62.0631 91.729 62.1875 91.5625L65.7562 86.8047L66.225 87.1719C66.3889 87.2997 66.5768 87.3936 66.7774 87.4479C66.9781 87.5022 67.1876 87.516 67.3936 87.4883C67.5997 87.4607 67.7981 87.3922 67.9774 87.2869C68.1566 87.1816 68.3131 87.0415 68.4375 86.875L72.0062 82.1172L72.475 82.4844C72.6389 82.6122 72.8268 82.7061 73.0274 82.7604C73.2281 82.8147 73.4376 82.8285 73.6436 82.8008C73.8497 82.7732 74.0481 82.7047 74.2274 82.5994C74.4066 82.4941 74.5631 82.354 74.6875 82.1875L78.9062 76.5625H82.8125V78.125C82.8125 78.5394 82.9771 78.9368 83.2701 79.2299C83.5632 79.5229 83.9606 79.6875 84.375 79.6875H96.875C97.2894 79.6875 97.6868 79.5229 97.9799 79.2299C98.2729 78.9368 98.4375 78.5394 98.4375 78.125V50C98.4375 49.5856 98.2729 49.1882 97.9799 48.8951C97.6868 48.6021 97.2894 48.4375 96.875 48.4375ZM14.0625 75H4.6875V50H14.0625V75ZM88.4156 29.6875H64.7094L39.7094 4.6875H63.4156L88.4156 29.6875ZM35.9375 5.33438L60.2906 29.6875H55.3344L37.0422 11.3953C36.7492 11.1024 36.3518 10.9378 35.9375 10.9378C35.5232 10.9378 35.1258 11.1024 34.8328 11.3953L16.5406 29.6875H11.5844L35.9375 5.33438ZM35.9375 48.4375V50H31.25V42.1875C31.25 40.9443 31.7439 39.752 32.6229 38.8729C33.502 37.9939 34.6943 37.5 35.9375 37.5C37.1807 37.5 38.373 37.9939 39.2521 38.8729C40.1311 39.752 40.625 40.9443 40.625 42.1875V46.875H37.5C37.0856 46.875 36.6882 47.0396 36.3951 47.3326C36.1021 47.6257 35.9375 48.0231 35.9375 48.4375ZM35.9375 34.375C33.8663 34.3775 31.8806 35.2014 30.416 36.666C28.9514 38.1306 28.1275 40.1163 28.125 42.1875V50H18.75V31.8969L35.9375 14.7094L53.125 31.8969V46.875H43.75V42.1875C43.7475 40.1163 42.9236 38.1306 41.459 36.666C39.9944 35.2014 38.0087 34.3775 35.9375 34.375ZM28.0875 77.6563L30.8547 79.6875L28.4375 82.9063L25.6391 80.9078L28.0875 77.6563ZM41.6813 87.6672L39.3828 90.7188L36.5844 88.7203L38.9062 85.625L41.6813 87.6672ZM34.0484 86.9062L30.9969 84.7188L33.3781 81.5422L36.3984 83.7672L34.0484 86.9062ZM44.9859 94.7187L41.9344 92.5313L44.1969 89.5141L47.2172 91.7375L44.9859 94.7187ZM73.1422 79.0406L60.3297 69.0781L58.4109 71.5469L69.5344 80.1984L66.8875 83.7281L54.075 73.7656L52.1563 76.2344L63.2797 84.8859L60.6328 88.4156L47.8203 78.4531L45.9016 80.9219L57.025 89.5734L54.3531 93.1359L25.9266 72.1875C25.6591 71.9869 25.3343 71.8774 25 71.875H17.1875V53.125H35.9375V54.6875C35.9375 55.1019 36.1021 55.4993 36.3951 55.7924C36.6882 56.0854 37.0856 56.25 37.5 56.25H51.0328L75.9453 75.3L73.1422 79.0406ZM78.6547 73.4375L52.5109 53.4469C52.2391 53.2377 51.9055 53.1245 51.5625 53.125H39.0625V50H54.4344L68.2562 54.6078C68.4155 54.6607 68.5822 54.6876 68.75 54.6875H82.8125V73.4375H78.6547ZM82.8125 50V51.5625H69.0031L62.5 49.3953V39.0625H81.25V45.3125H84.375V37.5C84.375 37.0856 84.2104 36.6882 83.9174 36.3951C83.6243 36.1021 83.2269 35.9375 82.8125 35.9375H60.9375C60.5231 35.9375 60.1257 36.1021 59.8326 36.3951C59.5396 36.6882 59.375 37.0856 59.375 37.5V48.3531L56.25 47.3109V32.8125H87.5V48.4375H84.375C83.9606 48.4375 83.5632 48.6021 83.2701 48.8951C82.9771 49.1882 82.8125 49.5856 82.8125 50ZM95.3125 76.5625H85.9375V51.5625H95.3125V76.5625Z" fill="black"/>
<path d="M35.9375 20.3125C34.7014 20.3125 33.493 20.6791 32.4652 21.3658C31.4374 22.0526 30.6363 23.0287 30.1633 24.1707C29.6902 25.3128 29.5664 26.5694 29.8076 27.7818C30.0488 28.9942 30.644 30.1078 31.5181 30.9819C32.3922 31.856 33.5058 32.4513 34.7182 32.6924C35.9306 32.9336 37.1872 32.8098 38.3293 32.3367C39.4713 31.8637 40.4474 31.0626 41.1342 30.0348C41.8209 29.007 42.1875 27.7986 42.1875 26.5625C42.1875 24.9049 41.529 23.3152 40.3569 22.1431C39.1848 20.971 37.5951 20.3125 35.9375 20.3125ZM35.9375 29.6875C35.3194 29.6875 34.7152 29.5042 34.2013 29.1608C33.6874 28.8175 33.2869 28.3294 33.0504 27.7584C32.8139 27.1874 32.752 26.559 32.8725 25.9528C32.9931 25.3467 33.2908 24.7898 33.7278 24.3528C34.1648 23.9158 34.7217 23.6181 35.3278 23.4975C35.934 23.377 36.5624 23.4389 37.1334 23.6754C37.7044 23.9119 38.1925 24.3124 38.5358 24.8263C38.8792 25.3402 39.0625 25.9444 39.0625 26.5625C39.0625 27.3913 38.7333 28.1862 38.1472 28.7722C37.5612 29.3583 36.7663 29.6875 35.9375 29.6875Z" fill="black"/>
</svg>
