<svg width="512" height="512" viewBox="0 0 512 512" fill="none" xmlns="http://www.w3.org/2000/svg">
<path d="M120 447.999H408C414.365 447.999 420.47 445.471 424.971 440.97C429.471 436.469 432 430.365 432 423.999V263.999C432 257.634 429.471 251.53 424.971 247.029C420.47 242.528 414.365 239.999 408 239.999H342.24L336 214.079C335.562 212.304 334.529 210.733 333.074 209.627C331.618 208.521 329.827 207.946 328 207.999H200C198.173 207.946 196.382 208.521 194.926 209.627C193.471 210.733 192.438 212.304 192 214.079L185.76 239.999H176V223.999C176 221.878 175.157 219.843 173.657 218.343C172.157 216.842 170.122 215.999 168 215.999H120C117.878 215.999 115.843 216.842 114.343 218.343C112.843 219.843 112 221.878 112 223.999V241.439C107.332 243.09 103.288 246.144 100.424 250.183C97.559 254.222 96.0139 259.048 96 263.999V273.439C91.3316 275.09 87.288 278.144 84.4235 282.183C81.559 286.222 80.0139 291.048 80 295.999V391.999C80.0139 396.951 81.559 401.777 84.4235 405.816C87.288 409.855 91.3316 412.909 96 414.559V423.999C96 430.365 98.5286 436.469 103.029 440.97C107.53 445.471 113.635 447.999 120 447.999ZM128 231.999H160V239.999H128V231.999ZM112 263.999C112 261.878 112.843 259.843 114.343 258.343C115.843 256.842 117.878 255.999 120 255.999H192C193.827 256.053 195.618 255.478 197.074 254.372C198.529 253.266 199.562 251.694 200 249.919L206.24 223.999H321.76L328 249.919C328.438 251.694 329.471 253.266 330.926 254.372C332.382 255.478 334.173 256.053 336 255.999H408C410.122 255.999 412.157 256.842 413.657 258.343C415.157 259.843 416 261.878 416 263.999V423.999C416 426.121 415.157 428.156 413.657 429.656C412.157 431.157 410.122 431.999 408 431.999H120C117.878 431.999 115.843 431.157 114.343 429.656C112.843 428.156 112 426.121 112 423.999V415.999H152C158.365 415.999 164.47 413.471 168.971 408.97C173.471 404.469 176 398.365 176 391.999V295.999C176 289.634 173.471 283.53 168.971 279.029C164.47 274.528 158.365 271.999 152 271.999H112V263.999ZM96 295.999C96 293.878 96.8429 291.843 98.3431 290.343C99.8434 288.842 101.878 287.999 104 287.999H152C154.122 287.999 156.157 288.842 157.657 290.343C159.157 291.843 160 293.878 160 295.999V391.999C160 394.121 159.157 396.156 157.657 397.656C156.157 399.157 154.122 399.999 152 399.999H104C101.878 399.999 99.8434 399.157 98.3431 397.656C96.8429 396.156 96 394.121 96 391.999V295.999Z" fill="black"/>
<path d="M264 416C278.24 416 292.161 411.777 304.001 403.866C315.841 395.954 325.07 384.71 330.519 371.553C335.969 358.397 337.395 343.92 334.617 329.954C331.838 315.987 324.981 303.158 314.912 293.088C304.842 283.019 292.013 276.162 278.047 273.383C264.08 270.605 249.603 272.031 236.447 277.481C223.291 282.93 212.046 292.159 204.134 303.999C196.223 315.839 192 329.76 192 344C192 363.096 199.586 381.409 213.088 394.912C226.591 408.414 244.904 416 264 416ZM264 288C275.076 288 285.903 291.284 295.112 297.438C304.321 303.591 311.499 312.337 315.737 322.57C319.976 332.802 321.085 344.062 318.924 354.925C316.763 365.788 311.43 375.766 303.598 383.598C295.766 391.43 285.788 396.763 274.925 398.924C264.062 401.085 252.802 399.976 242.57 395.737C232.337 391.499 223.591 384.321 217.438 375.112C211.284 365.903 208 355.076 208 344C208 329.148 213.9 314.904 224.402 304.402C234.904 293.9 249.148 288 264 288Z" fill="black"/>
<path d="M264 384C271.911 384 279.645 381.654 286.223 377.259C292.801 372.864 297.928 366.616 300.955 359.307C303.983 351.998 304.775 343.956 303.231 336.196C301.688 328.437 297.878 321.31 292.284 315.716C286.69 310.122 279.563 306.312 271.804 304.769C264.044 303.225 256.002 304.017 248.693 307.045C241.384 310.072 235.136 315.199 230.741 321.777C226.346 328.355 224 336.089 224 344C224 349.253 225.035 354.454 227.045 359.307C229.055 364.16 232.001 368.57 235.716 372.284C239.43 375.999 243.84 378.945 248.693 380.955C253.546 382.965 258.747 384 264 384ZM264 320C268.747 320 273.387 321.408 277.334 324.045C281.28 326.682 284.357 330.43 286.173 334.816C287.99 339.201 288.465 344.027 287.539 348.682C286.613 353.338 284.327 357.614 280.971 360.971C277.614 364.327 273.338 366.613 268.682 367.539C264.027 368.465 259.201 367.99 254.816 366.173C250.43 364.357 246.682 361.28 244.045 357.334C241.408 353.387 240 348.747 240 344C240 337.635 242.529 331.53 247.029 327.029C251.53 322.529 257.635 320 264 320Z" fill="black"/>
<path d="M224 240H304V256H224V240Z" fill="black"/>
<path d="M344 304H400C402.122 304 404.157 303.157 405.657 301.657C407.157 300.157 408 298.122 408 296V272C408 269.878 407.157 267.843 405.657 266.343C404.157 264.843 402.122 264 400 264H344C341.878 264 339.843 264.843 338.343 266.343C336.843 267.843 336 269.878 336 272V296C336 298.122 336.843 300.157 338.343 301.657C339.843 303.157 341.878 304 344 304ZM352 280H392V288H352V280Z" fill="black"/>
<path d="M32 56V152H48V56C48 53.8783 48.8429 51.8434 50.3431 50.3431C51.8434 48.8429 53.8783 48 56 48H152V32H56C49.6348 32 43.5303 34.5286 39.0294 39.0294C34.5286 43.5303 32 49.6348 32 56Z" fill="black"/>
<path d="M480 56C480 49.6348 477.471 43.5303 472.971 39.0294C468.47 34.5286 462.365 32 456 32H360V48H456C458.122 48 460.157 48.8429 461.657 50.3431C463.157 51.8434 464 53.8783 464 56V152H480V56Z" fill="black"/>
<path d="M480 456V360H464V456C464 458.122 463.157 460.157 461.657 461.657C460.157 463.157 458.122 464 456 464H360V480H456C462.365 480 468.47 477.471 472.971 472.971C477.471 468.47 480 462.365 480 456Z" fill="black"/>
<path d="M32 456C32 462.365 34.5286 468.47 39.0294 472.971C43.5303 477.471 49.6348 480 56 480H152V464H56C53.8783 464 51.8434 463.157 50.3431 461.657C48.8429 460.157 48 458.122 48 456V360H32V456Z" fill="black"/>
<path d="M328.48 118.56L260.96 65.6802C259.548 64.5641 257.8 63.957 256 63.957C254.2 63.957 252.452 64.5641 251.04 65.6802L184 118.48L157.52 97.6802C156.108 96.5641 154.36 95.957 152.56 95.957C150.76 95.957 149.012 96.5641 147.6 97.6802L67.6 161.68L77.52 174.16L152 114.24L170.32 128.64L67.04 209.68L76.96 222.32L256 82.1602L435.04 222.32L444.96 209.68L341.44 128.72L360 114.24L435.12 174.24L445.04 161.76L365.04 97.7602C363.628 96.6441 361.88 96.037 360.08 96.037C358.28 96.037 356.532 96.6441 355.12 97.7602L328.48 118.56Z" fill="black"/>
</svg>
