<svg width="100" height="100" viewBox="0 0 100 100" fill="none" xmlns="http://www.w3.org/2000/svg">
<path d="M82.8194 16.1098H88.544C90.0108 16.1098 91.2119 17.3051 91.2119 18.7778V37.8129C91.2119 39.2797 90.0108 40.4809 88.544 40.4809H82.8194C81.833 40.4809 80.96 39.9379 80.4932 39.1137C76.9834 39.1137 76.4795 38.9418 73.3018 40.7856C71.2647 41.9653 70.5889 42.2309 68.3623 42.9555C67.21 43.3383 66.0694 43.7094 65.1182 44.2563C64.5694 44.5727 64.0557 44.8208 63.5674 45.0102C62.3994 46.1118 61.0205 47.0083 59.503 47.6293C50.8877 51.1508 41.3819 44.8227 41.3819 35.4594C41.3819 31.8266 42.8545 28.5454 45.2354 26.1645C46.3155 25.0844 47.5889 24.1879 48.9893 23.5356C57.1612 15.0317 59.9405 15.5239 65.8858 16.5766C68.1729 16.9809 70.9737 17.479 74.8662 17.479H80.4912C80.96 16.6528 81.835 16.1098 82.8194 16.1098ZM80.1514 36.7719V19.8188H74.8701C70.7842 19.8188 67.8662 19.3032 65.4912 18.8833C61.1123 18.1079 58.7256 17.6879 53.5498 22.3481C60.626 21.8227 66.8545 26.9985 67.6065 34.0512C67.6573 34.5219 67.4131 34.9594 67.0303 35.186L63.0615 37.7602C60.1494 39.6528 59.5791 42.5317 60.708 43.0356C61.5947 43.4282 63.0772 42.7368 63.9463 42.2329C65.8291 41.1469 67.8662 40.7602 69.7979 39.9692C72.6221 38.8129 74.333 36.77 78.2354 36.77H80.1514V36.7719ZM88.544 18.4516H82.8194C82.6416 18.4516 82.499 18.602 82.499 18.7778V37.8129C82.499 37.9907 82.6436 38.1333 82.8194 38.1333H88.544C88.7217 38.1333 88.8643 37.9887 88.8643 37.8129V18.7797C88.8662 18.602 88.7217 18.4516 88.544 18.4516ZM59.5166 45.0551C58.2705 44.3793 57.7393 43.0336 57.8447 41.6274C57.9776 39.7504 59.2569 37.4477 61.7862 35.809L65.1807 33.6C64.2901 28.4731 59.8213 24.6586 54.5342 24.6586C48.5655 24.6586 43.7334 29.4926 43.7334 35.4594C43.7334 43.1879 51.5947 48.3422 58.626 45.4692C58.9307 45.3422 59.2295 45.2055 59.5166 45.0551ZM50.3877 37.6977C50.3877 37.0551 50.9131 36.5297 51.5615 36.5297C52.21 36.5297 52.7295 37.0551 52.7295 37.6977C52.7295 38.6001 54.7783 39.2211 55.9346 38.3501C56.1846 38.1626 56.333 37.9301 56.333 37.6977C56.333 36.8227 54.9053 36.7739 54.1572 36.5786C52.2471 36.229 50.3877 35.8208 50.3877 33.2231C50.3877 31.5512 51.7725 30.3325 53.3604 29.9516V29.3754C53.3604 28.727 53.8858 28.2016 54.5342 28.2016C55.1826 28.2016 55.708 28.727 55.708 29.3754V29.9516C57.2979 30.3344 58.6807 31.5512 58.6807 33.2231C58.6807 33.8715 58.1553 34.3969 57.5069 34.3969C56.8584 34.3969 56.333 33.8715 56.333 33.2231C56.333 32.3208 54.2901 31.6997 53.1338 32.5747C52.8838 32.7583 52.7295 32.9907 52.7295 33.2231C52.7295 34.0473 53.9971 34.1372 54.8506 34.3305C56.7823 34.684 58.6826 35.0786 58.6826 37.6958C58.6826 39.3676 57.2979 40.5864 55.71 40.9672V41.5493H53.3623V40.9672C51.7705 40.5864 50.3877 39.3696 50.3877 37.6977ZM49.2412 62.7543C48.6494 63.0043 47.9619 62.727 47.708 62.1352C47.4541 61.5434 47.7295 60.8559 48.3272 60.602L69.3369 51.6C70.1123 51.268 70.9639 51.854 70.9639 52.6743V55.143L87.6065 49.5961C86.0127 49.1137 86.7862 46.9106 88.2256 47.3481L91.7803 48.434C92.5283 48.6606 92.8428 49.5356 92.4287 50.1782V50.184L90.419 53.3129C90.0694 53.8559 89.3447 54.0161 88.8018 53.6665C88.2588 53.3168 88.0987 52.5922 88.4483 52.0493L88.669 51.7055L70.2666 57.8403C69.376 58.184 68.6221 57.5356 68.6221 56.7661V54.4457L49.2412 62.7543ZM49.3799 84.5414C48.7315 84.5414 48.2061 84.0161 48.2061 83.3676C48.2061 82.7192 48.7315 82.1997 49.3799 82.1997H51.8936V68.0864C51.8936 67.4379 52.4131 66.9184 53.0615 66.9184H62.4014C63.044 66.9184 63.5694 67.4379 63.5694 68.0864V82.1997H65.6729V62.7661C65.6729 62.1176 66.1983 61.5981 66.8467 61.5981H76.1807C76.8291 61.5981 77.3545 62.1176 77.3545 62.7661V82.1997H79.458V57.1743C79.458 56.5258 79.9834 56.0004 80.6319 56.0004H89.9658C90.6143 56.0004 91.1397 56.5258 91.1397 57.1743V82.1997H93.6533C94.2959 82.1997 94.8213 82.7192 94.8213 83.3676C94.8213 84.0161 94.2959 84.5414 93.6533 84.5414H49.3799ZM54.2354 82.1997H61.2276V69.2602H54.2354V82.1997ZM68.0205 82.1997H75.0127V63.9399H68.0205V82.1997ZM81.8057 82.1997H88.7979V58.3422H81.8057V82.1997ZM5.26077 52.9067L11.4717 49.2739V40.3051C11.4717 39.6567 11.9971 39.1313 12.6455 39.1313H18.2764C18.9248 39.1313 19.4502 39.6567 19.4502 40.3051V44.6079L27.7041 39.7797C29.3428 38.8227 31.4854 38.8657 33.085 39.8461L55.501 52.9614C56.5244 53.559 56.0928 55.1372 54.9151 55.1372V55.143H46.7373V83.1801C46.7373 83.8286 46.2119 84.354 45.5635 84.354H15.1084C14.46 84.354 13.9405 83.8286 13.9405 83.1801V55.143H5.76467C4.51272 55.143 4.14163 53.4379 5.26077 52.9067ZM13.8194 47.9008L17.1084 45.979V41.477H13.8194V47.9008ZM44.3916 55.143H43.0459C42.7959 55.143 42.5596 55.059 42.3701 54.9223L30.3389 47.8852L18.2198 54.977C18.0323 55.0825 17.8272 55.1372 17.628 55.1372V55.143H16.2823V82.0063H23.7666V70.3637C23.7666 69.7153 24.292 69.1899 24.9405 69.1899H35.7315C36.3799 69.1899 36.9053 69.7153 36.9053 70.3637V82.0063H44.3897V55.143H44.3916ZM28.8721 41.7993L18.9561 47.602C18.9014 47.6411 18.8389 47.6743 18.7783 47.7075L13.3272 50.8969C13.2666 50.936 13.21 50.9751 13.1436 51.0024L10.0772 52.7954H17.3194L29.7315 45.5375C30.085 45.3208 30.5459 45.2993 30.9268 45.5258L43.3565 52.7954H50.5987L31.9131 41.8618C31.3975 41.5786 31.0108 41.4301 30.3623 41.4243C29.8467 41.4184 29.3213 41.5415 28.878 41.8012H28.8721V41.7993ZM33.4795 56.3715H40.6944C41.3428 56.3715 41.8623 56.8969 41.8623 57.5395V64.1665C41.8623 64.8149 41.3428 65.3403 40.6944 65.3403H33.4795C32.8311 65.3403 32.3057 64.8149 32.3057 64.1665V57.5395C32.3057 56.8969 32.8311 56.3715 33.4795 56.3715ZM39.5186 58.7133H34.6475V62.9985H39.5186V58.7133ZM19.9873 56.3715H27.1963C27.8448 56.3715 28.3701 56.8969 28.3701 57.5395V64.1665C28.3701 64.8149 27.8448 65.3403 27.1963 65.3403H19.9873C19.3389 65.3403 18.8135 64.8149 18.8135 64.1665V57.5395C18.8135 56.8969 19.3389 56.3715 19.9873 56.3715ZM26.0264 58.7133H21.1553V62.9985H26.0264V58.7133ZM34.5635 82.0043V71.5297H26.1143V82.0043H34.5635Z" fill="black"/>
</svg>
