<svg width="512" height="512" viewBox="0 0 512 512" fill="none" xmlns="http://www.w3.org/2000/svg">
<path d="M176.447 295.957C166.68 295.957 157.963 300.407 151.926 307.27C151.752 307.3 151.578 307.335 151.406 307.374C111.197 318.336 87.7922 318.083 54.4892 318.083C30.3514 318.083 10.5518 337.883 10.5518 362.02C10.5518 380.014 21.555 395.566 37.1559 402.333V455.166C37.1559 470.72 49.9557 483.604 65.51 483.604C81.064 483.604 93.9267 470.72 93.9267 455.166V406.624C110.508 407.629 125.108 410.113 151.656 416.749C151.732 416.765 151.809 416.78 151.886 416.794C157.923 423.686 166.656 428.169 176.448 428.169C194.46 428.169 209.281 413.347 209.281 395.335V328.794C209.281 310.782 194.459 295.957 176.447 295.957ZM176.447 317.29C183.009 317.29 187.947 322.229 187.947 328.79V395.332C187.947 401.894 183.009 406.832 176.447 406.832C169.885 406.832 164.947 401.894 164.947 395.332C164.947 373.157 164.948 350.966 164.947 328.79C164.947 322.229 169.885 317.29 176.447 317.29ZM143.614 329.499C143.614 351.171 143.614 372.867 143.614 394.54C130.656 391.605 119.989 389.595 109.447 388.02V335.624C120.261 334.113 131.393 332.245 143.614 329.499ZM88.1763 337.999V385.686C78.2002 384.964 67.6508 384.525 54.4889 384.624H54.4034C41.826 384.592 31.8826 374.606 31.8826 362.02C31.8826 349.412 41.8783 339.416 54.4868 339.416C65.8572 339.416 76.9363 338.905 88.1763 337.999ZM58.4888 405.957C63.7765 405.925 68.1831 405.946 72.593 405.957V455.165C72.593 459.27 69.6145 462.249 65.5096 462.249C61.4052 462.249 58.4888 459.27 58.4888 455.165V405.957Z" fill="url(#paint0_linear_1794_620)"/>
<path d="M265.114 135.082C213.382 135.082 171.26 177.225 171.26 228.957C171.26 280.688 213.382 322.894 265.114 322.894C316.845 322.894 359.051 280.688 359.051 228.957C359.051 177.225 316.845 135.082 265.114 135.082ZM265.114 172.103C287.167 172.103 305.281 190.195 305.281 212.249C305.281 222.863 301.007 232.501 294.197 239.707C307.406 246.865 317.6 258.794 322.739 273.082C317.729 279.622 311.662 285.305 304.739 289.811C302.818 269.443 286.011 253.603 265.114 253.603C244.21 253.603 227.476 269.454 225.572 289.832C218.64 285.321 212.563 279.635 207.552 273.082C212.675 258.805 222.85 246.888 236.031 239.728C229.214 232.52 224.947 222.869 224.947 212.249C224.947 190.195 243.061 172.103 265.114 172.103ZM265.114 193.436C254.59 193.436 246.301 201.724 246.301 212.249C246.301 222.773 254.59 231.082 265.114 231.082C275.638 231.082 284.01 222.773 284.01 212.249C284.01 201.724 275.638 193.436 265.114 193.436Z" fill="url(#paint1_linear_1794_620)"/>
<path d="M265.114 28.3984C209.79 28.3984 159.587 50.8543 123.303 87.1385C105.16 105.281 90.4637 126.914 80.3103 150.918C79.2216 153.519 79.2068 156.445 80.2692 159.056C81.3316 161.668 83.3847 163.753 85.9798 164.855C87.2719 165.406 88.6602 165.697 90.065 165.71C91.4698 165.724 92.8633 165.459 94.1656 164.932C95.468 164.406 96.6534 163.627 97.6539 162.641C98.6544 161.655 99.4502 160.48 99.9957 159.186C109.062 137.75 122.196 118.481 138.421 102.257C170.869 69.8088 215.555 49.7371 265.114 49.7371C364.231 49.7371 444.404 129.832 444.405 228.95C444.399 230.351 444.67 231.739 445.201 233.036C445.733 234.333 446.514 235.512 447.501 236.506C448.489 237.501 449.662 238.291 450.955 238.832C452.247 239.373 453.634 239.653 455.035 239.658C456.443 239.664 457.838 239.39 459.14 238.854C460.441 238.318 461.624 237.529 462.619 236.534C463.615 235.539 464.403 234.356 464.94 233.054C465.476 231.752 465.749 230.357 465.744 228.95C465.743 118.303 375.761 28.3984 265.114 28.3984ZM75.271 218.32C73.8698 218.314 72.4812 218.585 71.1847 219.116C69.8881 219.647 68.7089 220.429 67.7145 221.416C66.72 222.403 65.9298 223.577 65.389 224.869C64.8482 226.162 64.5673 227.548 64.5625 228.95C64.5625 256.612 70.1574 283.056 80.3103 307.06C82.8502 313.061 85.7275 318.935 88.8144 324.619C90.1697 327.085 92.4445 328.915 95.1435 329.712C97.8424 330.508 100.747 330.206 103.224 328.871C104.462 328.206 105.557 327.304 106.445 326.215C107.333 325.126 107.998 323.873 108.4 322.527C108.803 321.18 108.935 319.768 108.79 318.37C108.645 316.973 108.225 315.618 107.555 314.383C104.797 309.304 102.262 304.072 99.9957 298.713C90.9289 277.278 85.9012 253.73 85.9012 228.95C85.8915 226.133 84.7684 223.435 82.7769 221.444C80.7855 219.452 78.0873 218.329 75.271 218.32ZM399.523 352.571C396.81 352.551 394.192 353.564 392.2 355.406C364.086 381.283 334.932 397.593 301.255 404.618C298.49 405.195 296.066 406.846 294.516 409.207C292.966 411.569 292.416 414.45 292.987 417.216C293.564 419.982 295.215 422.406 297.577 423.956C299.939 425.506 302.819 426.055 305.586 425.484C343.352 417.606 376.405 398.949 406.689 371.075C408.75 369.15 409.966 366.487 410.069 363.669C410.173 360.851 409.156 358.106 407.241 356.035C406.259 354.962 405.067 354.102 403.74 353.506C402.413 352.911 400.977 352.592 399.523 352.571ZM200.232 396.666C198.013 396.593 195.827 397.213 193.978 398.441C192.129 399.669 190.709 401.443 189.917 403.517C189.415 404.825 189.176 406.219 189.213 407.619C189.25 409.02 189.563 410.399 190.134 411.678C190.704 412.958 191.521 414.113 192.537 415.077C193.554 416.04 194.75 416.795 196.059 417.296C216.558 425.161 227.168 429.579 265.114 429.579C266.522 429.585 267.917 429.312 269.218 428.776C270.52 428.239 271.703 427.451 272.698 426.455C273.694 425.46 274.482 424.277 275.018 422.975C275.555 421.673 275.828 420.278 275.822 418.871C275.817 417.469 275.536 416.083 274.996 414.79C274.455 413.498 273.665 412.324 272.67 411.337C271.676 410.35 270.497 409.568 269.2 409.037C267.903 408.506 266.515 408.235 265.114 408.241C228.535 408.241 224.627 405.407 203.696 397.375C202.589 396.947 201.417 396.708 200.232 396.666Z" fill="url(#paint2_linear_1794_620)"/>
<path d="M413.853 193.754C411.733 193.808 409.677 194.493 407.948 195.721C405.648 197.346 404.085 199.814 403.597 202.587C403.11 205.36 403.739 208.213 405.347 210.524L436.135 254.461C439.167 258.79 444.231 261.999 449.757 262.256C455.283 262.498 460.667 259.825 464.088 255.8L498.891 214.933C499.801 213.868 500.492 212.635 500.925 211.302C501.359 209.97 501.525 208.566 501.415 207.169C501.306 205.772 500.922 204.411 500.286 203.163C499.65 201.915 498.775 200.804 497.71 199.894C496.645 198.984 495.411 198.293 494.079 197.859C492.746 197.426 491.342 197.26 489.945 197.37C488.549 197.479 487.187 197.863 485.939 198.499C484.691 199.135 483.58 200.01 482.67 201.075L450.938 238.398L422.828 198.319C421.824 196.878 420.479 195.706 418.913 194.91C417.347 194.113 415.61 193.717 413.853 193.754Z" fill="url(#paint3_linear_1794_620)"/>
<path d="M88.2284 192.374C88.2285 193.769 87.9537 195.15 87.42 196.439C86.8863 197.727 86.104 198.898 85.1178 199.884C84.1316 200.871 82.9607 201.653 81.6722 202.187C80.3836 202.72 79.0026 202.995 77.6079 202.995C76.2132 202.995 74.8321 202.72 73.5436 202.187C72.255 201.653 71.0842 200.871 70.098 199.884C69.1118 198.898 68.3295 197.727 67.7957 196.439C67.262 195.15 66.9873 193.769 66.9873 192.374C66.9873 190.98 67.262 189.599 67.7957 188.31C68.3295 187.022 69.1118 185.851 70.098 184.865C71.0842 183.878 72.255 183.096 73.5436 182.562C74.8321 182.029 76.2132 181.754 77.6079 181.754C79.0026 181.754 80.3836 182.029 81.6722 182.562C82.9607 183.096 84.1316 183.878 85.1178 184.865C86.104 185.851 86.8863 187.022 87.42 188.31C87.9537 189.599 88.2285 190.98 88.2284 192.374Z" fill="url(#paint4_linear_1794_620)"/>
<defs>
<linearGradient id="paint0_linear_1794_620" x1="109.917" y1="295.957" x2="109.917" y2="483.604" gradientUnits="userSpaceOnUse">
<stop stop-color="#F7CE30"/>
<stop offset="1" stop-color="#10589A"/>
</linearGradient>
<linearGradient id="paint1_linear_1794_620" x1="265.156" y1="135.082" x2="265.156" y2="322.894" gradientUnits="userSpaceOnUse">
<stop stop-color="#F7CE30"/>
<stop offset="1" stop-color="#10589A"/>
</linearGradient>
<linearGradient id="paint2_linear_1794_620" x1="265.153" y1="28.3984" x2="265.153" y2="429.58" gradientUnits="userSpaceOnUse">
<stop stop-color="#F7CE30"/>
<stop offset="1" stop-color="#10589A"/>
</linearGradient>
<linearGradient id="paint3_linear_1794_620" x1="452.442" y1="193.75" x2="452.442" y2="262.272" gradientUnits="userSpaceOnUse">
<stop stop-color="#F7CE30"/>
<stop offset="1" stop-color="#10589A"/>
</linearGradient>
<linearGradient id="paint4_linear_1794_620" x1="77.6079" y1="181.754" x2="77.6079" y2="202.995" gradientUnits="userSpaceOnUse">
<stop stop-color="#F7CE30"/>
<stop offset="1" stop-color="#10589A"/>
</linearGradient>
</defs>
</svg>
