<svg width="100" height="100" viewBox="0 0 100 100" fill="none" xmlns="http://www.w3.org/2000/svg">
<path d="M56.1224 77.4028C56.7688 77.4028 57.2942 76.8774 57.2942 76.231V72.9712H58.0989L60.3997 76.8306C60.6184 77.1978 61.0091 77.4028 61.4075 77.4028C61.6106 77.4028 61.8177 77.3501 62.0071 77.2368C62.5638 76.9048 62.7454 76.186 62.4134 75.6294L60.6321 72.645C61.7806 72.1021 62.5774 70.936 62.5774 69.5845C62.5774 67.7173 61.0579 66.1978 59.1907 66.1978H56.1204C55.4739 66.1978 54.9485 66.7231 54.9485 67.3696V76.231C54.9505 76.8774 55.4759 77.4028 56.1224 77.4028ZM60.2356 69.5845C60.2356 70.1606 59.7669 70.6274 59.1927 70.6274H57.2942V68.5395H59.1927C59.7669 68.5415 60.2356 69.0083 60.2356 69.5845ZM64.3059 76.231V67.3696C64.3059 66.7231 64.8313 66.1978 65.4778 66.1978H70.763C71.4095 66.1978 71.9349 66.7231 71.9349 67.3696C71.9349 68.0161 71.4095 68.5415 70.763 68.5415H66.6497V70.6294H70.3333C70.9798 70.6294 71.5052 71.1548 71.5052 71.8013C71.5052 72.4478 70.9798 72.9731 70.3333 72.9731H66.6497V75.061H70.763C71.4095 75.061 71.9349 75.5864 71.9349 76.2329C71.9349 76.8794 71.4095 77.4048 70.763 77.4048H65.4778C64.8313 77.4028 64.3059 76.8774 64.3059 76.231ZM73.5267 76.3091V67.4478C73.5267 66.9204 73.8782 66.4575 74.388 66.3188C74.8958 66.1782 75.4349 66.395 75.7063 66.8481L78.8138 72.0571V67.4478C78.8138 66.8013 79.3392 66.2759 79.9856 66.2759C80.6321 66.2759 81.1575 66.8013 81.1575 67.4478V76.3091C81.1575 76.8364 80.8059 77.2993 80.2962 77.438C80.1927 77.4673 80.0892 77.481 79.9856 77.481C79.5813 77.481 79.1946 77.27 78.9798 76.9087L75.8724 71.6997V76.3091C75.8724 76.9556 75.347 77.481 74.7005 77.481C74.054 77.481 73.5267 76.9556 73.5267 76.3091ZM82.4075 67.3696C82.4075 66.7231 82.9329 66.1978 83.5794 66.1978H90.8626C91.5091 66.1978 92.0345 66.7231 92.0345 67.3696C92.0345 68.0161 91.5091 68.5415 90.8626 68.5415H88.3919V76.231C88.3919 76.8774 87.8665 77.4028 87.22 77.4028C86.5735 77.4028 86.0481 76.8774 86.0481 76.231V68.5415H83.5774C82.931 68.5415 82.4075 68.0161 82.4075 67.3696ZM93.4212 82.6372C95.4329 82.6372 97.0716 81.0005 97.0716 78.9868V64.6899C97.0716 62.6782 95.4349 61.0396 93.4212 61.0396H86.5892V43.9888L90.9524 47.4712C91.1614 47.6372 91.4192 47.727 91.6829 47.727C91.7259 47.727 91.7708 47.7251 91.8138 47.7192C92.1224 47.6841 92.4056 47.5278 92.5989 47.2856L96.8138 42.0024C97.2181 41.4966 97.1341 40.7583 96.6282 40.356L50.7298 3.73682C50.302 3.39502 49.6966 3.39502 49.2688 3.73682L3.3704 40.356C2.86454 40.7603 2.78251 41.4966 3.18486 42.0024L7.3997 47.2856C7.59306 47.5278 7.87626 47.6841 8.18486 47.7192C8.49345 47.7544 8.804 47.6646 9.04619 47.4712L13.4095 43.9888V87.2036H4.18095C3.53447 87.2036 3.00908 87.729 3.00908 88.3755V95.3442C3.00908 95.9907 3.53447 96.5161 4.18095 96.5161H95.8216C96.4681 96.5161 96.9935 95.9907 96.9935 95.3442V88.3755C96.9935 87.729 96.4681 87.2036 95.8216 87.2036H86.5892V82.6372H93.4212ZM94.7278 64.6899V78.9868C94.7278 79.7075 94.1419 80.2935 93.4212 80.2935H53.5638C52.8431 80.2935 52.2571 79.7075 52.2571 78.9868V64.6899C52.2571 63.9692 52.8431 63.3833 53.5638 63.3833H93.4231C94.1419 63.3853 94.7278 63.9712 94.7278 64.6899ZM74.8411 94.1724H72.1438V82.6372H74.8411V94.1724ZM72.1438 61.0415V59.1997C72.1438 58.4556 72.7493 57.8501 73.4935 57.8501C74.2376 57.8501 74.8431 58.4556 74.8431 59.1997V61.0415H72.1438ZM73.4915 55.5063C71.4563 55.5063 69.7981 57.1626 69.7981 59.1997V61.0415H66.8724V54.9556H74.4153V55.6294C74.1204 55.5513 73.8118 55.5063 73.4915 55.5063ZM74.4153 52.6118H66.8743V46.5806H74.4153V52.6118ZM64.5306 52.6118H56.9895V46.5806H64.5306V52.6118ZM56.9895 54.9556H64.5306V61.0415H56.9895V54.9556ZM8.50322 44.9087L5.74931 41.4575L50.0013 6.15088L94.2532 41.4575L91.4993 44.9087L50.7317 12.3833C50.5188 12.2134 50.2591 12.1274 50.0013 12.1274C49.7435 12.1274 49.4837 12.2134 49.2708 12.3833L8.50322 44.9087ZM15.7571 42.1196L50.0013 14.7974L84.2454 42.1196V61.0415H77.1849V59.1997C77.1849 58.5806 77.0306 57.9985 76.7591 57.4849V45.4087C76.7591 44.7622 76.2337 44.2368 75.5872 44.2368H55.8177C55.1712 44.2368 54.6458 44.7622 54.6458 45.4087V61.0415H53.5618C51.5501 61.0415 49.9114 62.6782 49.9114 64.6919V78.9888C49.9114 81.0005 51.5481 82.6392 53.5618 82.6392H69.7981V87.2056H46.3138V50.4087C46.3138 49.7622 45.7884 49.2368 45.1419 49.2368H23.3294C22.6829 49.2368 22.1575 49.7622 22.1575 50.4087V87.2056H15.7571V42.1196ZM43.97 87.2036H24.5013V51.5806H43.97V87.2036ZM5.35283 89.5474H69.8001V94.1724H5.35283V89.5474ZM94.6497 94.1724H77.1849V89.5474H94.6497V94.1724ZM84.2454 87.2036H77.1849V82.6372H84.2454V87.2036Z" fill="black"/>
</svg>
