<svg width="80" height="80" viewBox="0 0 80 80" fill="none" xmlns="http://www.w3.org/2000/svg">
<path d="M71.6364 30.3038L62.9091 22.1826V6.78865C62.9091 6.06138 62.4243 5.57653 61.697 5.57653H55.2728C54.5455 5.57653 54.0606 6.06138 54.0606 6.78865V13.819L40.8485 1.57653C40.3637 1.09168 39.6364 1.09168 39.1515 1.57653L8.36367 30.3038C8.00003 30.6674 7.87882 31.1523 8.12124 31.6371C8.36366 32.122 8.7273 32.3644 9.21215 32.3644H67.0303V68.728H36.3637C34.9091 65.5765 31.7576 62.3038 31.394 61.819C30.9091 61.3341 30.0606 61.3341 29.697 61.819C29.2122 62.3038 26.0606 65.5765 24.7273 68.728H13.0909V53.3341H24C24.7273 53.3341 25.2121 53.9402 25.2121 54.5462V55.1523C25.2121 56.9705 26.6667 58.5462 28.6061 58.5462H31.7576C33.5758 58.5462 35.1515 57.0917 35.1515 55.1523V47.2735C35.1515 45.3341 33.5758 43.7583 31.6364 43.7583H28.9697V39.6371H32.3637C33.0909 39.6371 33.5758 39.1523 33.5758 38.425C33.5758 37.6977 33.0909 37.2129 32.3637 37.2129C32 37.2129 17.9394 37.2129 18.0606 37.2129C17.3334 37.2129 16.8485 37.6977 16.8485 38.425C16.8485 39.1523 17.3334 39.6371 18.0606 39.6371H21.4546V43.7583H11.7576C11.0303 43.7583 10.5455 44.2432 10.5455 44.9705V69.9402C10.5455 70.6674 11.0303 71.1523 11.7576 71.1523H24C23.6364 75.0311 26.6667 78.7887 30.5455 78.7887C34.5455 78.7887 37.4546 74.9099 37.0909 71.1523H68.2425C68.9697 71.1523 69.4546 70.6674 69.4546 69.9402V32.3644H70.7879C71.2728 32.3644 71.7576 32.0008 71.8788 31.6371C72.1212 31.1523 72 30.6674 71.6364 30.3038ZM23.7576 39.7583H26.4243V43.8796H23.7576V39.7583ZM12.9697 46.1826H31.5152C32.1212 46.1826 32.6061 46.6674 32.6061 47.2735V55.2735C32.6061 55.7583 32.2425 56.2432 31.6364 56.2432H28.4849C28 56.2432 27.5152 55.8796 27.5152 55.2735V54.5462C27.5152 52.4856 25.8182 50.9099 23.8788 50.9099H12.9697V46.1826ZM30.5455 76.3644C28.2425 76.3644 26.4243 74.1826 26.4243 71.5159C26.4243 69.6977 28.7273 66.5462 30.5455 64.4856C32.3637 66.5462 34.6667 69.819 34.6667 71.5159C34.6667 74.1826 32.8485 76.3644 30.5455 76.3644ZM56.4849 8.00077H60.4849V19.8796L56.4849 16.122V8.00077ZM40 4.12198L67.7576 30.0614H12.2425L40 4.12198Z" fill="black"/>
<path d="M42.5451 52.9704H49.8179C50.5451 52.9704 51.03 52.4856 51.03 51.7583V44.4856C51.03 43.7583 50.5451 43.2734 49.8179 43.2734H42.5451C41.8179 43.2734 41.333 43.7583 41.333 44.4856V51.7583C41.333 52.4856 41.9391 52.9704 42.5451 52.9704ZM43.7573 45.6977H48.6057V50.5462H43.7573V45.6977Z" fill="black"/>
<path d="M55.2727 52.9704H62.5454C63.2727 52.9704 63.7575 52.4856 63.7575 51.7583V44.4856C63.7575 43.7583 63.2727 43.2734 62.5454 43.2734H55.2727C54.5454 43.2734 54.0605 43.7583 54.0605 44.4856V51.7583C54.0605 52.4856 54.5454 52.9704 55.2727 52.9704ZM56.4848 45.6977H61.3333V50.5462H56.4848V45.6977Z" fill="black"/>
<path d="M41.333 63.6372C41.333 64.3645 41.8179 64.8493 42.5451 64.8493H49.8179C50.5451 64.8493 51.03 64.3645 51.03 63.6372V56.3645C51.03 55.6372 50.5451 55.1523 49.8179 55.1523H42.5451C41.8179 55.1523 41.333 55.6372 41.333 56.3645V63.6372ZM43.7573 57.5766H48.6057V62.4251H43.7573V57.5766Z" fill="black"/>
<path d="M54.0605 63.6372C54.0605 64.3645 54.5454 64.8493 55.2727 64.8493H62.5454C63.2727 64.8493 63.7575 64.3645 63.7575 63.6372V56.3645C63.7575 55.6372 63.2727 55.1523 62.5454 55.1523H55.2727C54.5454 55.1523 54.0605 55.6372 54.0605 56.3645V63.6372ZM56.4848 57.5766H61.3333V62.4251H56.4848V57.5766Z" fill="black"/>
<path d="M39.9999 9.81836C36.1211 9.81836 33.0908 12.9699 33.0908 16.7275C33.0908 20.6062 36.2423 23.6365 39.9999 23.6365C43.8787 23.6365 46.909 20.485 46.909 16.7275C46.909 12.9699 43.8787 9.81836 39.9999 9.81836ZM39.9999 21.3335C37.4545 21.3335 35.5151 19.2729 35.5151 16.8487C35.5151 14.3032 37.5757 12.3638 39.9999 12.3638C42.4242 12.3638 44.4848 14.4244 44.4848 16.8487C44.4848 19.2729 42.5454 21.3335 39.9999 21.3335Z" fill="black"/>
</svg>
