<svg width="512" height="512" viewBox="0 0 512 512" fill="none" xmlns="http://www.w3.org/2000/svg">
<path d="M325.818 473.134C322.637 473.134 320 475.772 320 478.953V494.313H269.808V473.755C269.808 470.574 267.171 467.937 263.99 467.937C260.809 467.937 258.172 470.574 258.172 473.755V494.313H85.9536V473.755C85.9536 470.574 83.316 467.937 80.1354 467.937C76.9548 467.937 74.3173 470.574 74.3173 473.755V494.313H24.2033V400.679C24.2033 391.602 29.3233 383.457 37.4688 379.423L124.974 336.989L167.563 389.663C168.649 391.059 170.356 391.835 172.063 391.835C173.769 391.835 175.476 391.059 176.562 389.663L219.229 336.989L225.202 339.937C228.072 341.333 231.563 340.092 232.96 337.222C234.356 334.351 233.192 330.861 230.245 329.464L223.418 326.128V303.476C249.561 286.875 267.093 257.939 267.869 224.97C285.478 222.177 299.054 207.05 299.054 188.664C299.054 178.424 294.788 169.27 288.038 162.599C292.615 160.97 295.874 156.625 295.874 151.505V126.06C295.874 120.087 291.452 115.2 285.711 114.347C282.763 54.1478 232.96 6.05078 172.063 6.05078C111.166 6.05078 61.3621 54.1478 58.4142 114.347C52.6736 115.2 48.2518 120.087 48.2518 126.06V151.505C48.2518 156.625 51.51 160.97 56.087 162.599C49.4154 169.348 45.1488 178.424 45.1488 188.664C45.1488 207.05 58.7245 222.177 76.3342 224.97C77.1876 258.017 94.7197 286.875 120.863 303.476V326.128L32.4263 369.028C20.1694 375.001 12.6445 387.18 12.6445 400.756V500.131C12.6445 503.311 15.2821 505.949 18.4627 505.949H325.818C328.998 505.949 331.636 503.311 331.636 500.131V478.953C331.636 475.694 329.076 473.134 325.818 473.134ZM268.024 213.178V164.15C279.117 166.788 287.418 176.795 287.418 188.664C287.495 200.611 279.195 210.54 268.024 213.178ZM60.1209 125.828H284.082C284.237 125.828 284.315 125.905 284.315 126.06L284.082 151.738L59.8882 151.505L60.1209 125.828ZM172.14 17.6871C226.598 17.6871 271.127 60.509 274.152 114.191H70.1282C73.1536 60.509 117.682 17.6871 172.14 17.6871ZM56.7851 188.664C56.7851 176.717 65.0857 166.788 76.1791 164.15V213.178C65.0857 210.54 56.7851 200.611 56.7851 188.664ZM87.8154 222.565V163.607H256.388V222.565C256.388 269.033 218.531 306.89 172.063 306.89C125.595 306.89 87.8154 269.033 87.8154 222.565ZM172.14 318.526C186.337 318.526 199.757 315.345 211.859 309.837V327.757L172.14 376.863L132.499 327.835V309.915C144.601 315.345 157.944 318.526 172.14 318.526Z" fill="black"/>
<path d="M172.141 276.946C178.579 276.946 184.63 274.464 189.207 269.887C191.457 267.637 191.457 263.914 189.207 261.664C186.958 259.414 183.234 259.414 180.984 261.664C178.657 263.991 175.476 265.31 172.141 265.31C168.805 265.31 165.624 263.991 163.297 261.664C161.047 259.414 157.324 259.414 155.074 261.664C152.824 263.914 152.824 267.637 155.074 269.887C159.651 274.464 165.702 276.946 172.141 276.946Z" fill="black"/>
<path d="M172.14 239.399C175.321 239.399 177.959 236.761 177.959 233.581V225.978C177.959 222.798 175.321 220.16 172.14 220.16C168.96 220.16 166.322 222.798 166.322 225.978V233.581C166.322 236.839 168.882 239.399 172.14 239.399Z" fill="black"/>
<path d="M471.582 340.945C475.305 333.11 477.245 324.499 477.245 315.733C477.245 283.539 451.024 257.319 418.83 257.319C414.719 257.319 410.607 257.784 406.651 258.637C396.256 240.95 376.939 229.779 356.227 229.779C323.955 229.779 297.734 256 297.734 288.194V290.211C268.178 293.159 245.061 318.061 245.061 348.393C245.061 380.044 270.35 405.954 301.846 406.807C301.846 407.66 301.768 408.514 301.768 409.367C301.768 441.639 327.989 467.859 360.261 467.859C380.43 467.859 399.204 457.231 409.831 440.32C419.063 446.138 429.924 449.241 440.939 449.241C473.211 449.241 499.431 423.021 499.431 390.827C499.431 370.502 488.648 351.496 471.582 340.945ZM440.939 437.605C430.234 437.605 419.839 433.959 411.538 427.21C410.142 426.124 408.358 425.658 406.573 426.046C404.867 426.434 403.393 427.597 402.617 429.227C394.859 445.595 378.258 456.145 360.261 456.145C334.428 456.145 313.405 435.122 313.405 409.29C313.405 406.807 313.638 404.247 314.025 401.687C314.336 399.903 313.793 398.119 312.551 396.8C311.465 395.636 309.914 394.938 308.285 394.938C308.13 394.938 307.974 394.938 307.819 394.938C306.423 395.093 304.949 395.093 303.475 395.093C277.642 395.093 256.619 374.07 256.619 348.315C256.619 322.482 277.642 301.537 303.941 301.537C305.647 301.537 307.199 300.839 308.285 299.52C309.371 298.201 309.914 296.572 309.681 294.943C309.371 292.771 309.216 290.444 309.216 288.116C309.216 262.284 330.239 241.338 356.071 241.338C373.991 241.338 390.515 251.733 398.273 267.869C399.514 270.429 402.539 271.748 405.255 270.894C409.521 269.576 414.098 268.877 418.753 268.877C444.585 268.877 465.531 289.9 465.531 315.656C465.531 324.344 463.126 332.8 458.627 340.17C457.773 341.566 457.541 343.273 458.006 344.824C458.471 346.376 459.558 347.694 461.109 348.47C477.245 356.228 487.718 372.751 487.718 390.749C487.795 416.582 466.772 437.605 440.939 437.605Z" fill="black"/>
<path d="M210.852 429.459C210.852 444.276 222.876 456.301 237.615 456.301C252.432 456.301 264.456 444.276 264.456 429.459C264.456 414.72 252.432 402.696 237.615 402.696C222.876 402.618 210.852 414.642 210.852 429.459ZM237.615 414.254C245.993 414.254 252.82 421.081 252.82 429.382C252.82 437.76 245.993 444.587 237.615 444.587C229.237 444.587 222.488 437.76 222.488 429.382C222.488 421.081 229.315 414.254 237.615 414.254Z" fill="black"/>
<path d="M381.905 281.987C376.94 276.479 367.165 276.789 362.744 281.677L315.577 326.903C312.087 330.782 311.233 336.135 313.328 340.945C315.422 345.677 319.999 348.702 325.197 348.702H329.308V386.637C329.308 392.532 334.118 397.42 340.091 397.42H358.71H385.706H404.324C410.22 397.42 415.107 392.61 415.107 386.637V348.702H419.219C424.416 348.702 428.993 345.754 431.088 340.945C433.182 336.212 432.329 330.782 428.528 326.593L381.905 281.987ZM364.528 385.706V357.468C364.528 353.201 367.941 349.788 372.208 349.788C376.474 349.788 379.888 353.201 379.888 357.468V385.706H364.528ZM420.46 336.212C420.227 336.755 419.839 336.988 419.219 336.988H409.289C406.108 336.988 403.471 339.626 403.471 342.806V385.706H391.524V357.468C391.524 346.84 382.836 338.152 372.208 338.152C361.58 338.152 352.891 346.84 352.891 357.468V385.706H340.945V342.806C340.945 339.626 338.307 336.988 335.127 336.988H325.197C324.576 336.988 324.188 336.678 323.956 336.212C323.723 335.669 323.8 335.126 323.878 335.049L371.044 289.822C371.82 289.046 372.208 288.736 373.527 290.132L420.15 334.738C420.615 335.126 420.693 335.669 420.46 336.212Z" fill="black"/>
<path d="M150.032 200.145C146.851 200.145 144.214 202.782 144.214 205.963C144.214 211.936 139.326 216.823 133.353 216.823C127.38 216.823 122.57 211.936 122.57 205.963C122.57 202.782 119.932 200.145 116.752 200.145C113.571 200.145 110.934 202.782 110.934 205.963C110.934 218.375 121.018 228.46 133.353 228.46C145.765 228.46 155.85 218.375 155.85 205.963C155.85 202.782 153.212 200.145 150.032 200.145Z" fill="black"/>
<path d="M210.851 228.46C223.263 228.46 233.348 218.375 233.348 205.963C233.348 202.782 230.71 200.145 227.53 200.145C224.349 200.145 221.712 202.782 221.712 205.963C221.712 211.936 216.824 216.823 210.851 216.823C204.878 216.823 200.068 211.936 200.068 205.963C200.068 202.782 197.43 200.145 194.25 200.145C191.069 200.145 188.432 202.782 188.432 205.963C188.432 218.375 198.516 228.46 210.851 228.46Z" fill="black"/>
</svg>
