<svg width="208" height="208" viewBox="0 0 208 208" fill="none" xmlns="http://www.w3.org/2000/svg">
<path d="M172.039 39.1397C171.28 33.6991 168.582 28.7156 164.44 25.1068C160.299 21.498 154.993 19.5069 149.5 19.4999C144.78 19.485 140.174 20.9538 136.334 23.6989C132.154 17.4951 126.278 12.625 119.406 9.66983C112.534 6.71463 104.957 5.79915 97.5787 7.03265C90.2007 8.26616 83.3333 11.5965 77.7963 16.6263C72.2593 21.6561 68.2865 28.1729 66.352 35.3989C63.1344 33.5929 59.525 32.5985 55.8364 32.5019C52.1478 32.4053 48.4913 33.2094 45.1836 34.8445C41.8758 36.4797 39.0166 38.8966 36.8535 41.8859C34.6904 44.8752 33.2887 48.3468 32.7698 51.9999H32.5C25.6044 51.9999 18.9912 54.7392 14.1152 59.6152C9.23928 64.4911 6.5 71.1043 6.5 77.9999C6.5 84.8956 9.23928 91.5088 14.1152 96.3847C18.9912 101.261 25.6044 104 32.5 104H39V123.5C39.0002 124.362 39.3427 125.188 39.9523 125.798L49.725 135.574C49.0889 136.874 48.7556 138.302 48.75 139.75C48.75 141.678 49.3218 143.563 50.3932 145.167C51.4645 146.77 52.9873 148.02 54.7688 148.758C56.5504 149.496 58.5108 149.689 60.4021 149.313C62.2934 148.936 64.0307 148.008 65.3943 146.644C66.7579 145.281 67.6865 143.543 68.0627 141.652C68.4389 139.761 68.2458 137.8 67.5078 136.019C66.7699 134.237 65.5202 132.714 63.9168 131.643C62.3134 130.572 60.4284 130 58.5 130C57.0522 130.006 55.6244 130.339 54.3238 130.975L45.5 122.154V104H78V107.848C75.8316 108.615 74.0039 110.123 72.8402 112.107C71.6764 114.091 71.2515 116.422 71.6404 118.689C72.0293 120.956 73.2071 123.012 74.9656 124.495C76.7241 125.977 78.95 126.79 81.25 126.79C83.55 126.79 85.7759 125.977 87.5344 124.495C89.2929 123.012 90.4707 120.956 90.8596 118.689C91.2485 116.422 90.8236 114.091 89.6598 112.107C88.4961 110.123 86.6684 108.615 84.5 107.848V104H123.5V107.848C121.332 108.615 119.504 110.123 118.34 112.107C117.176 114.091 116.751 116.422 117.14 118.689C117.529 120.956 118.707 123.012 120.466 124.495C122.224 125.977 124.45 126.79 126.75 126.79C129.05 126.79 131.276 125.977 133.034 124.495C134.793 123.012 135.971 120.956 136.36 118.689C136.749 116.422 136.324 114.091 135.16 112.107C133.996 110.123 132.168 108.615 130 107.848V104H162.5V122.154L153.676 130.975C152.376 130.339 150.948 130.006 149.5 130C147.572 130 145.687 130.572 144.083 131.643C142.48 132.714 141.23 134.237 140.492 136.019C139.754 137.8 139.561 139.761 139.937 141.652C140.314 143.543 141.242 145.281 142.606 146.644C143.969 148.008 145.707 148.936 147.598 149.313C149.489 149.689 151.45 149.496 153.231 148.758C155.013 148.02 156.535 146.77 157.607 145.167C158.678 143.563 159.25 141.678 159.25 139.75C159.244 138.302 158.911 136.874 158.275 135.574L168.051 125.798C168.659 125.188 169.001 124.361 169 123.5V104C177.361 104.007 185.403 100.792 191.455 95.0222C197.506 89.2527 201.101 81.3729 201.493 73.0209C201.884 64.669 199.041 56.4875 193.556 50.1775C188.07 43.8674 180.364 39.9142 172.039 39.1397ZM61.75 139.75C61.75 140.393 61.5594 141.021 61.2023 141.556C60.8452 142.09 60.3376 142.507 59.7437 142.753C59.1499 142.999 58.4964 143.063 57.866 142.937C57.2355 142.812 56.6564 142.503 56.2019 142.048C55.7474 141.594 55.4378 141.014 55.3124 140.384C55.187 139.754 55.2514 139.1 55.4974 138.506C55.7434 137.912 56.1599 137.405 56.6944 137.048C57.2289 136.691 57.8572 136.5 58.5 136.5C59.362 136.5 60.1886 136.842 60.7981 137.452C61.4076 138.061 61.75 138.888 61.75 139.75ZM81.25 120.25C80.6072 120.25 79.9789 120.059 79.4444 119.702C78.9099 119.345 78.4934 118.838 78.2474 118.244C78.0014 117.65 77.937 116.996 78.0624 116.366C78.1878 115.735 78.4974 115.156 78.9519 114.702C79.4064 114.247 79.9855 113.938 80.616 113.812C81.2464 113.687 81.8999 113.751 82.4937 113.997C83.0876 114.243 83.5952 114.66 83.9523 115.194C84.3094 115.729 84.5 116.357 84.5 117C84.5 117.862 84.1576 118.689 83.5481 119.298C82.9386 119.908 82.112 120.25 81.25 120.25ZM126.75 120.25C126.107 120.25 125.479 120.059 124.944 119.702C124.41 119.345 123.993 118.838 123.747 118.244C123.501 117.65 123.437 116.996 123.562 116.366C123.688 115.735 123.997 115.156 124.452 114.702C124.906 114.247 125.486 113.938 126.116 113.812C126.746 113.687 127.4 113.751 127.994 113.997C128.588 114.243 129.095 114.66 129.452 115.194C129.809 115.729 130 116.357 130 117C130 117.862 129.658 118.689 129.048 119.298C128.439 119.908 127.612 120.25 126.75 120.25ZM149.5 143C148.857 143 148.229 142.809 147.694 142.452C147.16 142.095 146.743 141.588 146.497 140.994C146.251 140.4 146.187 139.746 146.312 139.116C146.438 138.485 146.747 137.906 147.202 137.452C147.656 136.997 148.236 136.688 148.866 136.562C149.496 136.437 150.15 136.501 150.744 136.747C151.338 136.993 151.845 137.41 152.202 137.944C152.559 138.479 152.75 139.107 152.75 139.75C152.75 140.612 152.408 141.439 151.798 142.048C151.189 142.658 150.362 143 149.5 143ZM169 97.4999V77.9999H162.5V97.4999H130V90.9999H123.5V97.4999H84.5V90.9999H78V97.4999H45.5V77.9999H39V97.4999H32.5C27.3283 97.4999 22.3684 95.4455 18.7114 91.7885C15.0545 88.1316 13 83.1717 13 77.9999C13 72.8282 15.0545 67.8683 18.7114 64.2113C22.3684 60.5544 27.3283 58.4999 32.5 58.4999C33.4371 58.5073 34.3723 58.5833 35.2983 58.7274C35.77 58.7725 36.246 58.7164 36.6944 58.5628C37.1427 58.4092 37.5532 58.1618 37.8983 57.8369C38.2498 57.5046 38.5291 57.1033 38.7187 56.6582C38.9082 56.2131 39.004 55.7337 39 55.2499C38.9954 52.0815 39.9185 48.981 41.6553 46.331C43.3922 43.681 45.8668 41.5975 48.774 40.3375C51.6811 39.0774 54.8935 38.696 58.0149 39.2403C61.1362 39.7846 64.0299 41.2308 66.339 43.4004C66.7765 43.8103 67.3188 44.0912 67.906 44.212C68.4932 44.3328 69.1023 44.2889 69.6661 44.085C70.2299 43.8812 70.7263 43.5254 71.1004 43.057C71.4745 42.5886 71.7118 42.0258 71.786 41.4309C72.6454 34.5892 75.66 28.1986 80.3934 23.1844C85.1269 18.1702 91.3333 14.7927 98.1142 13.5409C104.895 12.2891 111.898 13.2281 118.11 16.2218C124.322 19.2154 129.42 24.1085 132.665 30.1924C132.906 30.6441 133.25 31.0325 133.669 31.326C134.089 31.6196 134.571 31.8099 135.078 31.8815C135.585 31.953 136.102 31.9039 136.586 31.738C137.07 31.5722 137.508 31.2942 137.865 30.9269C140.12 28.6145 143.012 27.0263 146.173 26.3652C149.335 25.704 152.621 25.9999 155.614 27.215C158.606 28.4301 161.168 30.5093 162.974 33.1872C164.779 35.8651 165.746 39.0203 165.75 42.2499C165.75 43.1119 166.092 43.9385 166.702 44.548C167.311 45.1575 168.138 45.4999 169 45.4999C175.896 45.4999 182.509 48.2392 187.385 53.1151C192.261 57.9911 195 64.6043 195 71.4999C195 78.3956 192.261 85.0088 187.385 89.8847C182.509 94.7607 175.896 97.4999 169 97.4999Z" fill="black"/>
<path d="M152.75 39H159.25V45.5H152.75V39Z" fill="black"/>
<path d="M139.75 39H146.25V45.5H139.75V39Z" fill="black"/>
<path d="M94.25 143H100.75V149.5H94.25V143Z" fill="black"/>
<path d="M107.25 143H113.75V149.5H107.25V143Z" fill="black"/>
<path d="M94.25 156H100.75V162.5H94.25V156Z" fill="black"/>
<path d="M107.25 156H113.75V162.5H107.25V156Z" fill="black"/>
<path d="M94.25 169H100.75V175.5H94.25V169Z" fill="black"/>
<path d="M107.25 169H113.75V175.5H107.25V169Z" fill="black"/>
<path d="M133.25 169H139.75V175.5H133.25V169Z" fill="black"/>
<path d="M146.25 169H152.75V175.5H146.25V169Z" fill="black"/>
<path d="M133.25 182H139.75V188.5H133.25V182Z" fill="black"/>
<path d="M146.25 182H152.75V188.5H146.25V182Z" fill="black"/>
<path d="M94.25 182H100.75V188.5H94.25V182Z" fill="black"/>
<path d="M107.25 182H113.75V188.5H107.25V182Z" fill="black"/>
<path d="M165.75 162.5C165.75 161.775 165.507 161.071 165.061 160.5C164.614 159.929 163.99 159.523 163.287 159.347L126.75 150.212V136.5H133.25V130H107.25V123.5H100.75V130H74.75V136.5H81.25V150.212L44.7135 159.347C44.0101 159.523 43.3855 159.929 42.9392 160.5C42.4928 161.071 42.2502 161.775 42.25 162.5V195H35.75V201.5H172.25V195H165.75V162.5ZM159.25 165.038V195H126.75V156.913L159.25 165.038ZM120.25 136.5V195H87.75V136.5H120.25ZM48.75 165.038L81.25 156.913V195H48.75V165.038Z" fill="black"/>
<path d="M68.25 169H74.75V175.5H68.25V169Z" fill="black"/>
<path d="M55.25 169H61.75V175.5H55.25V169Z" fill="black"/>
<path d="M68.25 182H74.75V188.5H68.25V182Z" fill="black"/>
<path d="M55.25 182H61.75V188.5H55.25V182Z" fill="black"/>
<path d="M123.5 78H130V84.5H123.5V78Z" fill="black"/>
<path d="M78 78H84.5V84.5H78V78Z" fill="black"/>
<path d="M100.75 42.25H107.25C108.112 42.25 108.939 42.5924 109.548 43.2019C110.158 43.8114 110.5 44.638 110.5 45.5H117C117 42.9141 115.973 40.4342 114.144 38.6057C112.316 36.7772 109.836 35.75 107.25 35.75V32.5H100.75V35.75C98.1641 35.75 95.6842 36.7772 93.8557 38.6057C92.0272 40.4342 91 42.9141 91 45.5C91 48.0859 92.0272 50.5658 93.8557 52.3943C95.6842 54.2228 98.1641 55.25 100.75 55.25H107.25C108.112 55.25 108.939 55.5924 109.548 56.2019C110.158 56.8114 110.5 57.638 110.5 58.5C110.5 59.362 110.158 60.1886 109.548 60.7981C108.939 61.4076 108.112 61.75 107.25 61.75H100.75C99.888 61.75 99.0614 61.4076 98.4519 60.7981C97.8424 60.1886 97.5 59.362 97.5 58.5H91C91 61.0859 92.0272 63.5658 93.8557 65.3943C95.6842 67.2228 98.1641 68.25 100.75 68.25V71.5H107.25V68.25C109.836 68.25 112.316 67.2228 114.144 65.3943C115.973 63.5658 117 61.0859 117 58.5C117 55.9141 115.973 53.4342 114.144 51.6057C112.316 49.7772 109.836 48.75 107.25 48.75H100.75C99.888 48.75 99.0614 48.4076 98.4519 47.7981C97.8424 47.1886 97.5 46.362 97.5 45.5C97.5 44.638 97.8424 43.8114 98.4519 43.2019C99.0614 42.5924 99.888 42.25 100.75 42.25Z" fill="black"/>
<path d="M169 52V58.5C172.448 58.5 175.754 59.8696 178.192 62.3076C180.63 64.7456 182 68.0522 182 71.5H188.5C188.495 66.3299 186.439 61.373 182.783 57.7171C179.127 54.0613 174.17 52.0052 169 52Z" fill="black"/>
</svg>
