<svg width="512" height="512" viewBox="0 0 512 512" fill="none" xmlns="http://www.w3.org/2000/svg">
<path d="M74.4728 484.073H437.527C449.35 484.061 460.684 479.359 469.044 470.999C477.404 462.64 482.106 451.305 482.118 439.483V72.5183C482.124 66.6609 480.975 60.8597 478.736 55.447C476.497 50.0343 473.213 45.1162 469.071 40.9744C464.929 36.8325 460.011 33.5483 454.599 31.3095C449.186 29.0708 443.385 27.9216 437.527 27.9278H74.4728C65.7264 27.9716 57.1848 30.5788 49.9048 35.4266C42.6248 40.2745 36.9257 47.1503 33.5128 55.2034C31.1841 60.6777 29.9963 66.5694 30.0219 72.5183V439.483C30.0341 451.281 34.7168 462.594 43.0463 470.95C51.3758 479.306 62.6747 484.024 74.4728 484.073ZM314.88 359.983C292.182 376.939 263.905 384.67 235.737 381.621C207.57 378.571 181.602 364.967 163.06 343.546C144.517 322.125 134.774 294.476 135.793 266.162C136.811 237.848 148.514 210.971 168.548 190.937C188.582 170.903 215.459 159.2 243.773 158.181C272.087 157.163 299.736 166.905 321.157 185.448C342.578 203.991 356.182 229.959 359.232 258.126C362.281 286.294 354.55 314.571 337.594 337.269C334.399 341.592 330.883 345.669 327.075 349.464C325.167 351.419 323.165 353.234 321.117 355.003C319.069 356.771 316.975 358.4 314.88 359.983ZM326.284 362.776L327.913 361.379C329.868 359.657 331.776 357.935 333.638 356.073C335.5 354.211 337.222 352.303 338.944 350.348L340.34 348.719L341.737 347.09L349.37 354.723L332.288 371.806L324.655 364.172L326.284 362.776ZM332.428 384.885L362.496 354.817C364.389 352.935 366.949 351.879 369.618 351.879C372.286 351.879 374.846 352.935 376.739 354.817L449.443 427.52C451.325 429.413 452.381 431.973 452.381 434.642C452.381 437.311 451.325 439.871 449.443 441.763L419.375 471.832C417.482 473.713 414.922 474.77 412.253 474.77C409.584 474.77 407.024 473.713 405.132 471.832L332.428 399.128C330.546 397.235 329.49 394.675 329.49 392.006C329.49 389.338 330.546 386.777 332.428 384.885ZM41.891 58.8339C44.5987 52.4307 49.1331 46.9673 54.9278 43.1263C60.7226 39.2852 67.5206 37.2367 74.4728 37.2368H437.527C446.885 37.2368 455.859 40.954 462.475 47.5705C469.092 54.1871 472.809 63.1611 472.809 72.5183V117.388H39.331V72.5183C39.2645 67.8319 40.1348 63.1794 41.891 58.8339ZM39.331 126.697H472.669V439.483C472.657 448.812 468.955 457.758 462.371 464.368C455.788 470.978 446.857 474.715 437.527 474.764H429.615L456.146 448.373C457.95 446.57 459.381 444.43 460.358 442.074C461.334 439.718 461.837 437.192 461.837 434.642C461.837 432.092 461.334 429.566 460.358 427.21C459.381 424.854 457.95 422.714 456.146 420.911L383.302 348.254C379.673 344.641 374.761 342.613 369.641 342.613C364.52 342.613 359.608 344.641 355.98 348.254L347.322 339.596C363.511 316.216 371.006 287.906 368.506 259.578C366.007 231.251 353.671 204.691 333.638 184.507C317.328 168.186 296.701 156.856 274.178 151.846C251.656 146.835 228.171 148.353 206.48 156.22C184.79 164.088 165.793 177.979 151.719 196.263C137.645 214.547 129.079 236.466 127.024 259.448C124.969 282.429 129.512 305.52 140.119 326.011C150.726 346.502 166.958 363.542 186.909 375.132C206.86 386.723 229.703 392.382 252.758 391.447C275.812 390.511 298.121 383.019 317.068 369.851L325.818 378.415C322.231 382.048 320.22 386.948 320.22 392.053C320.22 397.158 322.231 402.058 325.818 405.691L394.892 474.764H74.4728C65.1194 474.752 56.1525 471.031 49.5386 464.417C42.9248 457.803 39.2037 448.836 39.1913 439.483L39.331 126.697ZM83.1303 95.6979C86.8224 95.6976 90.4312 94.5996 93.4977 92.5433C96.5643 90.487 98.9503 87.5654 100.352 84.1498C101.754 80.7342 102.109 76.9789 101.372 73.3611C100.634 69.7433 98.8379 66.4265 96.2108 63.8322C93.5837 61.2379 90.2445 59.4833 86.6177 58.7914C82.9909 58.0995 79.2404 58.5016 75.8426 59.9465C72.4449 61.3914 69.5536 63.8139 67.536 66.9061C65.5185 69.9983 64.4659 73.6206 64.5121 77.3125C64.5733 82.2099 66.5618 86.8859 70.0468 90.3273C73.5318 93.7687 78.2325 95.6983 83.1303 95.6979ZM83.1303 68.2361C84.9812 68.2367 86.79 68.789 88.3255 69.8226C89.861 70.8562 91.0535 72.324 91.7507 74.0386C92.448 75.7532 92.6182 77.6368 92.2398 79.4486C91.8613 81.2605 90.9513 82.9184 89.626 84.2105C88.3007 85.5027 86.6203 86.3704 84.7995 86.7029C82.9786 87.0354 81.1 86.8175 79.4036 86.0771C77.7072 85.3367 76.27 84.1074 75.2756 82.5462C74.2813 80.985 73.7749 79.1629 73.8212 77.3125C73.8819 74.8841 74.8894 72.5757 76.6287 70.8799C78.3679 69.1841 80.7011 68.2354 83.1303 68.2361ZM129.396 95.6979C133.089 95.6976 136.697 94.5996 139.764 92.5433C142.831 90.487 145.216 87.5654 146.619 84.1498C148.021 80.7342 148.375 76.9789 147.638 73.3611C146.901 69.7433 145.104 66.4265 142.477 63.8322C139.85 61.2379 136.511 59.4833 132.884 58.7914C129.257 58.0995 125.507 58.5016 122.109 59.9465C118.711 61.3914 115.82 63.8139 113.802 66.9061C111.785 69.9983 110.732 73.6206 110.778 77.3125C110.839 82.2099 112.828 86.8859 116.313 90.3273C119.798 93.7687 124.499 95.6983 129.396 95.6979ZM129.396 68.2361C131.247 68.2367 133.056 68.789 134.592 69.8226C136.127 70.8562 137.32 72.324 138.017 74.0386C138.714 75.7532 138.884 77.6368 138.506 79.4486C138.127 81.2605 137.217 82.9184 135.892 84.2105C134.567 85.5027 132.887 86.3704 131.066 86.7029C129.245 87.0354 127.366 86.8175 125.67 86.0771C123.973 85.3367 122.536 84.1074 121.542 82.5462C120.547 80.985 120.041 79.1629 120.087 77.3125C120.148 74.8841 121.156 72.5757 122.895 70.8799C124.634 69.1841 126.967 68.2354 129.396 68.2361ZM178.548 95.6979C182.241 95.6976 185.849 94.5996 188.916 92.5433C191.983 90.487 194.368 87.5654 195.771 84.1498C197.173 80.7342 197.527 76.9789 196.79 73.3611C196.053 69.7433 194.256 66.4265 191.629 63.8322C189.002 61.2379 185.663 59.4833 182.036 58.7914C178.409 58.0995 174.659 58.5016 171.261 59.9465C167.863 61.3914 164.972 63.8139 162.954 66.9061C160.937 69.9983 159.884 73.6206 159.93 77.3125C159.991 82.2099 161.98 86.8859 165.465 90.3273C168.95 93.7687 173.651 95.6983 178.548 95.6979ZM178.548 68.2361C180.399 68.2367 182.208 68.789 183.744 69.8226C185.279 70.8562 186.472 72.324 187.169 74.0386C187.866 75.7532 188.036 77.6368 187.658 79.4486C187.279 81.2605 186.369 82.9184 185.044 84.2105C183.719 85.5027 182.039 86.3704 180.218 86.7029C178.397 87.0354 176.518 86.8175 174.822 86.0771C173.125 85.3367 171.688 84.1074 170.694 82.5462C169.699 80.985 169.193 79.1629 169.239 77.3125C169.3 74.8841 170.308 72.5757 172.047 70.8799C173.786 69.1841 176.119 68.2354 178.548 68.2361ZM260.236 77.3125C260.236 76.078 260.726 74.8941 261.599 74.0212C262.472 73.1483 263.656 72.6579 264.89 72.6579H438.551C439.786 72.6579 440.97 73.1483 441.843 74.0212C442.715 74.8941 443.206 76.078 443.206 77.3125C443.206 78.5469 442.715 79.7308 441.843 80.6037C440.97 81.4766 439.786 81.967 438.551 81.967H264.89C263.656 81.967 262.472 81.4766 261.599 80.6037C260.726 79.7308 260.236 78.5469 260.236 77.3125ZM310.831 207.174C296.249 192.595 277.064 183.522 256.543 181.502C236.022 179.481 215.436 184.637 198.291 196.092C181.145 207.547 168.502 224.593 162.514 244.324C156.527 264.055 157.565 285.252 165.453 304.304C173.341 323.355 187.59 339.083 205.773 348.807C223.956 358.531 244.948 361.651 265.172 357.634C285.397 353.617 303.604 342.712 316.69 326.777C329.777 310.842 336.934 290.863 336.943 270.243C336.968 258.528 334.673 246.923 330.192 236.098C325.71 225.274 319.13 215.443 310.831 207.174ZM292.631 336.198C277.896 346.184 260.244 350.952 242.485 349.743C224.727 348.534 207.883 341.417 194.638 329.527C181.393 317.636 172.507 301.655 169.396 284.13C166.285 266.604 169.128 248.541 177.472 232.818C185.816 217.095 199.181 204.617 215.439 197.37C231.697 190.123 249.912 188.525 267.183 192.829C284.455 197.134 299.789 207.094 310.744 221.123C321.699 235.152 327.644 252.444 327.634 270.243C327.654 283.264 324.472 296.09 318.368 307.592C312.264 319.093 303.426 328.917 292.631 336.198ZM293.236 243.806V217.833C293.233 215.776 292.701 213.755 291.692 211.963C290.683 210.17 289.231 208.667 287.474 207.597C285.718 206.527 283.716 205.926 281.66 205.852C279.605 205.778 277.564 206.234 275.735 207.174L222.394 234.636H198.61C195.104 234.636 191.741 236.029 189.262 238.508C186.783 240.987 185.391 244.349 185.391 247.855V281.926C185.391 285.432 186.783 288.794 189.262 291.273C191.741 293.752 195.104 295.145 198.61 295.145H222.301L275.27 325.493C277.098 326.544 279.166 327.105 281.274 327.122C284.448 327.073 287.476 325.785 289.712 323.532C291.947 321.279 293.212 318.24 293.236 315.067V285.976C298.036 284.912 302.328 282.242 305.405 278.409C308.482 274.575 310.159 269.806 310.159 264.891C310.159 259.975 308.482 255.206 305.405 251.373C302.328 247.539 298.036 244.87 293.236 243.806ZM194.7 281.926V247.855C194.693 247.34 194.79 246.829 194.985 246.351C195.179 245.874 195.467 245.441 195.831 245.076C196.195 244.712 196.629 244.424 197.106 244.23C197.583 244.036 198.094 243.939 198.61 243.945H218.764V285.836H198.61C197.576 285.824 196.589 285.408 195.858 284.678C195.128 283.947 194.712 282.959 194.7 281.926ZM283.927 315.067C283.935 315.541 283.814 316.008 283.576 316.418C283.338 316.828 282.993 317.165 282.578 317.394C282.169 317.636 281.703 317.763 281.228 317.763C280.753 317.763 280.287 317.636 279.878 317.394L228.073 287.791V242.037L279.878 215.32C280.284 215.096 280.74 214.978 281.204 214.978C281.668 214.978 282.125 215.096 282.531 215.32C282.922 215.571 283.246 215.915 283.473 216.321C283.7 216.727 283.824 217.182 283.834 217.647V315.067H283.927ZM293.236 276.248V253.487C295.499 254.408 297.435 255.983 298.798 258.01C300.161 260.037 300.89 262.425 300.89 264.867C300.89 267.31 300.161 269.697 298.798 271.725C297.435 273.752 295.499 275.326 293.236 276.248ZM64.6983 161.56C64.6983 160.325 65.1886 159.141 66.0615 158.268C66.9344 157.396 68.1183 156.905 69.3528 156.905H143.174C144.408 156.905 145.592 157.396 146.465 158.268C147.338 159.141 147.828 160.325 147.828 161.56C147.828 162.794 147.338 163.978 146.465 164.851C145.592 165.724 144.408 166.214 143.174 166.214H69.3528C68.1183 166.214 66.9344 165.724 66.0615 164.851C65.1886 163.978 64.6983 162.794 64.6983 161.56ZM147.828 185.717C147.828 186.951 147.338 188.135 146.465 189.008C145.592 189.881 144.408 190.371 143.174 190.371H134.144C132.91 190.371 131.726 189.881 130.853 189.008C129.98 188.135 129.49 186.951 129.49 185.717C129.49 184.482 129.98 183.298 130.853 182.426C131.726 181.553 132.91 181.062 134.144 181.062H143.174C144.408 181.062 145.592 181.553 146.465 182.426C147.338 183.298 147.828 184.482 147.828 185.717ZM64.6983 185.717C64.6983 184.482 65.1886 183.298 66.0615 182.426C66.9344 181.553 68.1183 181.062 69.3528 181.062H115.619C116.853 181.062 118.037 181.553 118.91 182.426C119.783 183.298 120.274 184.482 120.274 185.717C120.274 186.951 119.783 188.135 118.91 189.008C118.037 189.881 116.853 190.371 115.619 190.371H69.3528C68.1183 190.371 66.9344 189.881 66.0615 189.008C65.1886 188.135 64.6983 186.951 64.6983 185.717Z" fill="url(#paint0_linear_1794_519)"/>
<defs>
<linearGradient id="paint0_linear_1794_519" x1="256.07" y1="27.9277" x2="256.07" y2="484.073" gradientUnits="userSpaceOnUse">
<stop stop-color="#F7CE30"/>
<stop offset="1" stop-color="#10589A"/>
</linearGradient>
</defs>
</svg>
