<svg width="512" height="512" viewBox="0 0 512 512" fill="none" xmlns="http://www.w3.org/2000/svg">
<g clip-path="url(#clip0_1663_2414)">
<path d="M54.495 334.56C39.4253 334.56 27.165 322.3 27.165 307.23C27.165 292.161 39.4253 279.9 54.495 279.9C69.5648 279.9 81.825 292.161 81.825 307.23C81.825 322.3 69.5648 334.56 54.495 334.56ZM54.495 290.832C45.4532 290.832 38.097 298.189 38.097 307.23C38.097 316.272 45.4532 323.628 54.495 323.628C63.5369 323.628 70.893 316.272 70.893 307.23C70.893 298.189 63.5369 290.832 54.495 290.832Z" fill="#4F4F4F"/>
<path d="M483.321 238.859C471.265 238.859 461.457 229.051 461.457 216.995C461.457 204.939 471.265 195.131 483.321 195.131C495.377 195.131 505.185 204.939 505.185 216.995C505.185 229.051 495.378 238.859 483.321 238.859ZM483.321 206.063C477.293 206.063 472.389 210.967 472.389 216.995C472.389 223.023 477.293 227.927 483.321 227.927C489.349 227.927 494.253 223.023 494.253 216.995C494.253 210.967 489.349 206.063 483.321 206.063Z" fill="#4F4F4F"/>
<path d="M149.359 0.943359C146.339 0.943359 143.893 3.39103 143.893 6.40936V34.4007H126.616V19.5004C126.616 16.4821 124.169 14.0344 121.15 14.0344H34.339C31.3196 14.0344 28.873 16.4821 28.873 19.5004V34.4007H6.13006C3.11064 34.4007 0.664062 36.8484 0.664062 39.8667C0.664062 42.8851 3.11064 45.3327 6.13006 45.3327H28.873V126.661C28.873 129.68 31.3196 132.127 34.339 132.127H121.15C124.169 132.127 126.616 129.68 126.616 126.661V93.9484C126.616 90.9301 124.169 88.4824 121.15 88.4824H39.805V24.9664H115.684V66.5321C115.684 69.5504 118.131 71.998 121.15 71.998C124.169 71.998 126.616 69.5504 126.616 66.5321V45.3327H149.359C152.378 45.3327 154.825 42.8851 154.825 39.8667V6.40936C154.825 3.39103 152.378 0.943359 149.359 0.943359Z" fill="#4F4F4F"/>
<path d="M506.343 512H489.751C486.732 512 484.285 509.553 484.285 506.534C484.285 503.516 486.732 501.068 489.751 501.068H506.343C509.362 501.068 511.809 503.516 511.809 506.534C511.809 509.553 509.362 512 506.343 512Z" fill="#4F4F4F"/>
<path d="M259.215 387.883C263.14 387.883 266.321 384.702 266.321 380.778C266.321 376.853 263.14 373.672 259.215 373.672C255.291 373.672 252.109 376.853 252.109 380.778C252.109 384.702 255.291 387.883 259.215 387.883Z" fill="#4F4F4F"/>
<path d="M141.15 387.883C145.074 387.883 148.256 384.702 148.256 380.778C148.256 376.853 145.074 373.672 141.15 373.672C137.225 373.672 134.044 376.853 134.044 380.778C134.044 384.702 137.225 387.883 141.15 387.883Z" fill="#4F4F4F"/>
<path d="M415.693 71.2113C420.163 71.2113 423.787 67.5757 423.787 63.091C423.787 58.6063 420.163 54.9707 415.693 54.9707C411.222 54.9707 407.599 58.6063 407.599 63.091C407.599 67.5757 411.222 71.2113 415.693 71.2113Z" fill="#4F4F4F"/>
<path d="M447.455 47.8011C451.926 47.8011 455.549 44.1655 455.549 39.6808C455.549 35.1961 451.926 31.5605 447.455 31.5605C442.985 31.5605 439.361 35.1961 439.361 39.6808C439.361 44.1655 442.985 47.8011 447.455 47.8011Z" fill="#4F4F4F"/>
<path d="M354.657 236.911C358.581 236.911 361.762 233.729 361.762 229.805C361.762 225.881 358.581 222.699 354.657 222.699C350.732 222.699 347.551 225.881 347.551 229.805C347.551 233.729 350.732 236.911 354.657 236.911Z" fill="#4F4F4F"/>
<path d="M450.847 318.44H398.385C377.287 318.44 360.123 301.276 360.123 280.178V255.785C360.123 252.766 357.676 250.319 354.657 250.319C351.638 250.319 349.191 252.766 349.191 255.785V280.178C349.191 307.304 371.259 329.372 398.385 329.372H450.847C453.86 329.372 456.313 331.824 456.313 334.838V379.852C456.313 382.866 453.86 385.318 450.847 385.318H408.566V378.545C408.566 375.527 406.119 373.079 403.1 373.079H361.782C358.763 373.079 356.316 375.527 356.316 378.545V385.318H313.026C306.159 362.817 289.464 344.289 266.7 335.29L237.066 323.574V303.991C252.472 292.73 262.554 274.619 262.806 254.177C262.823 254.177 262.84 254.178 262.857 254.178C278.47 254.178 291.172 241.5 291.172 225.916C291.172 213.104 282.582 202.264 270.851 198.81C270.862 198.721 270.858 198.631 270.863 198.541C270.872 198.416 270.9 198.297 270.9 198.17L270.897 166.282C270.896 153.629 264.558 141.98 253.942 135.118C221.757 115.589 180.551 112.765 146.418 135.118C135.802 141.98 129.463 153.631 129.462 166.282L129.459 198.17C129.459 198.207 129.47 198.242 129.47 198.28C129.473 198.458 129.486 198.634 129.507 198.811C117.776 202.265 109.187 213.105 109.187 225.917C109.187 241.5 121.89 254.179 137.503 254.179C137.519 254.179 137.536 254.178 137.552 254.178C137.804 274.62 147.888 292.732 163.293 303.993V323.683L133.75 335.321C110.958 344.299 94.2372 362.813 87.3511 385.319H56.6519C29.5263 385.319 7.4579 407.387 7.4579 434.513V501.069H5.6574C2.63799 501.069 0.191406 503.517 0.191406 506.535C0.191406 509.553 2.63799 512.001 5.6574 512.001H455.223C458.242 512.001 460.689 509.553 460.689 506.535C460.689 503.517 458.242 501.069 455.223 501.069H316.48V439.979H356.316V444.588C356.316 447.606 358.763 450.054 361.782 450.054H403.1C406.119 450.054 408.566 447.606 408.566 444.588V396.251H450.847C459.888 396.251 467.245 388.895 467.245 379.853V334.839C467.245 325.796 459.889 318.44 450.847 318.44ZM83.8835 408.646V429.047H67.5839C58.542 429.047 51.1859 436.403 51.1859 445.445V479.463C51.1859 482.481 53.6325 484.929 56.6519 484.929C59.6713 484.929 62.1179 482.481 62.1179 479.463V445.445C62.1179 442.431 64.5699 439.979 67.5839 439.979H83.8835V501.069H18.3899V434.513C18.3899 413.415 35.5542 396.251 56.6519 396.251H84.8477C84.2158 400.3 83.8835 404.44 83.8835 408.646ZM280.242 225.918C280.242 235.474 272.443 243.248 262.859 243.248C262.85 243.248 262.841 243.247 262.833 243.247V211.454L264.757 208.698C273.45 209.644 280.242 217.003 280.242 225.918ZM213.882 131.268C213.928 131.276 213.974 131.282 214.021 131.29H214.027L220.621 192.581H179.744L186.338 131.288C195.493 129.826 204.728 129.821 213.882 131.268ZM137.533 243.247C137.525 243.247 137.516 243.248 137.508 243.248C127.922 243.248 120.124 235.474 120.124 225.918C120.124 216.997 126.924 209.634 135.609 208.696L137.534 211.454L137.533 243.247ZM254.956 203.638L244.103 219.185C239.221 226.177 231.224 230.352 222.709 230.352H177.657C169.141 230.352 161.144 226.179 156.263 219.186L145.409 203.638H254.956ZM148.465 253.396V227.009C155.456 235.979 166.224 241.284 177.657 241.284H222.709C234.139 241.284 244.907 235.98 251.899 227.011V253.395C251.899 281.912 228.7 305.112 200.182 305.112C171.665 305.112 148.465 281.912 148.465 253.396ZM226.134 310.394V326.281C226.134 340.591 214.492 352.232 200.182 352.232C185.872 352.232 174.231 340.591 174.231 326.281V310.394C189.856 317.861 210.51 317.861 226.134 310.394ZM247.295 466.89C247.295 470.513 244.359 473.449 240.736 473.449H159.629C156.006 473.449 153.07 470.513 153.07 466.89V443.847C153.07 440.224 156 437.287 159.623 437.287C184.318 437.289 216.046 437.291 240.743 437.294C244.365 437.294 247.295 440.231 247.295 443.853V466.89ZM305.548 501.069H285.557V419.807C285.557 408.356 276.243 399.039 264.795 399.036C234.253 399.031 166.096 399.027 135.572 399.024C124.406 398.794 114.578 408.631 114.809 419.795V501.069H94.8155V408.646C94.8155 381.311 110.783 357.106 135.684 346.356V359.787C135.684 362.806 138.13 365.253 141.15 365.253C144.169 365.253 146.616 362.806 146.616 359.787V342.004L164.353 335.018C168.287 351.151 182.855 363.164 200.182 363.164C217.544 363.164 232.133 351.103 236.034 334.921L253.749 341.924V359.786C253.749 362.804 256.196 365.252 259.215 365.252C262.235 365.252 264.681 362.804 264.681 359.786V346.29C289.578 357.04 305.548 381.253 305.548 408.578V501.069ZM356.316 429.046H316.48V408.579C316.48 404.396 316.152 400.279 315.527 396.25H356.316V429.046Z" fill="#4F4F4F"/>
<path d="M461.779 274.711H409.317C406.303 274.711 403.851 272.259 403.851 269.245V205.382C433.24 195.837 456.038 168.328 460.14 137.485C471.541 135.14 480.296 125.043 480.522 112.979C480.648 106.22 478.055 99.7851 473.219 94.8591C468.31 89.8566 461.509 86.9881 454.561 86.9881H376.976V25.4584C376.976 17.4486 383.465 10.932 391.439 10.932C399.413 10.932 405.901 17.4486 405.901 25.4584V37.1961C405.901 40.2144 408.348 42.6621 411.367 42.6621C414.387 42.6621 416.833 40.2144 416.833 37.1961V25.4584C416.834 11.4207 405.442 0 391.439 0C377.435 0 366.044 11.4207 366.044 25.4584V59.7543H353.465V47.2721C353.465 44.2538 351.018 41.8061 347.999 41.8061C344.979 41.8061 342.533 44.2538 342.533 47.2721V65.2203C342.533 68.2386 344.979 70.6863 347.999 70.6863H366.044V86.9881H298.26C284.231 86.9881 272.818 98.4295 272.818 112.495C272.818 124.706 281.425 134.935 292.874 137.42C295.591 156.625 304.84 174.288 319.233 187.543C334.824 201.901 355.089 209.809 376.297 209.809H376.728C382.243 209.809 387.657 209.272 392.921 208.259V269.246C392.921 278.288 400.277 285.644 409.319 285.644H461.78C482.878 285.644 500.042 302.809 500.042 323.906V390.784C500.042 411.881 482.878 429.046 461.78 429.046H435.899C432.879 429.046 430.433 431.493 430.433 434.512C430.433 437.53 432.879 439.978 435.899 439.978H461.78C488.906 439.978 510.974 417.909 510.974 390.784V323.906C510.973 296.78 488.906 274.711 461.779 274.711ZM297.914 127.045C297.903 127.045 297.893 127.048 297.883 127.047C290.057 126.844 283.75 120.401 283.75 112.494C283.75 104.457 290.259 97.919 298.26 97.919H454.561C458.593 97.919 462.552 99.5948 465.418 102.516C468.181 105.33 469.663 108.973 469.592 112.773C469.445 120.654 462.937 127.067 455.084 127.067H298.357C298.21 127.057 298.063 127.048 297.914 127.045Z" fill="#4F4F4F"/>
</g>
<defs>
<clipPath id="clip0_1663_2414">
<rect width="512" height="512" fill="white"/>
</clipPath>
</defs>
</svg>
