<svg width="500" height="500" viewBox="0 0 500 500" fill="none" xmlns="http://www.w3.org/2000/svg">
<path fill-rule="evenodd" clip-rule="evenodd" d="M376.27 409.668C385.523 409.668 393.026 417.172 393.026 426.424C393.026 435.677 385.523 443.18 376.27 443.18C367.018 443.18 359.514 435.677 359.514 426.424C359.514 417.171 367.018 409.668 376.27 409.668Z" fill="#60B7FE"/>
<path fill-rule="evenodd" clip-rule="evenodd" d="M246.402 410.324C255.294 410.324 262.504 417.535 262.504 426.427C262.504 435.319 255.293 442.53 246.402 442.53C237.509 442.53 230.299 435.319 230.299 426.427C230.299 417.535 237.509 410.324 246.402 410.324Z" fill="#60B7FE"/>
<path fill-rule="evenodd" clip-rule="evenodd" d="M144.516 154.355H446.49L423.161 263.625C419.943 278.698 409.033 287.706 398.554 289.01L188.16 315.183L144.516 154.355Z" fill="#FFBF31"/>
<path fill-rule="evenodd" clip-rule="evenodd" d="M225.932 357.411H421.39C427.459 357.411 432.424 362.376 432.424 368.445C432.424 374.513 427.459 379.478 421.39 379.478H225.643C204.484 379.478 186.586 365.79 181.044 345.369L116.794 108.608C113.854 97.7724 104.356 90.5084 93.1279 90.5084H64.5399C58.4709 90.5084 53.5059 85.5434 53.5059 79.4754C53.5059 73.4064 58.4699 68.4414 64.5399 68.4414H93.4169C114.576 68.4414 132.474 82.1294 138.016 102.55L202.266 339.31C205.206 350.147 214.704 357.411 225.932 357.411Z" fill="#0B559B"/>
<path fill-rule="evenodd" clip-rule="evenodd" d="M215.719 117.527L227.821 96.5663C230.981 91.0933 238.023 89.2063 243.497 92.3663L245.499 93.5223C249.545 95.8583 254.311 95.5863 258.066 92.8063C262.77 89.3233 267.865 86.3803 273.234 84.0473C277.518 82.1863 280.135 78.1933 280.135 73.5233V71.2143C280.135 64.8933 285.29 59.7383 291.611 59.7383H315.815C322.136 59.7383 327.29 64.8933 327.29 71.2143V73.5323C327.29 78.2093 329.915 82.2053 334.207 84.0633C339.544 86.3733 344.636 89.2963 349.367 92.8003C353.122 95.5813 357.889 95.8543 361.936 93.5173L363.928 92.3673C369.402 89.2073 376.444 91.0933 379.605 96.5673L391.707 117.528C394.867 123.002 392.98 130.044 387.507 133.205L385.519 134.353C381.473 136.689 379.324 140.955 379.856 145.597C380.526 151.448 380.511 157.32 379.844 163.1C379.307 167.745 381.455 172.017 385.505 174.356L387.508 175.512C392.981 178.672 394.868 185.715 391.708 191.188L379.606 212.149C376.446 217.622 369.404 219.51 363.929 216.349L361.928 215.193C357.883 212.857 353.115 213.129 349.361 215.909C344.656 219.393 339.565 222.333 334.195 224.666C329.91 226.527 327.291 230.52 327.291 235.191V237.502C327.291 243.823 322.136 248.978 315.816 248.978H291.613C285.292 248.978 280.137 243.822 280.138 237.502V235.19C280.138 230.513 277.513 226.517 273.221 224.659C267.883 222.348 262.79 219.424 258.058 215.919C254.303 213.138 249.535 212.865 245.489 215.202L243.501 216.35C238.027 219.51 230.985 217.623 227.825 212.15L215.723 191.189C212.563 185.716 214.45 178.673 219.923 175.513L221.911 174.365C225.958 172.029 228.106 167.763 227.574 163.121C226.903 157.27 226.918 151.397 227.586 145.619C228.123 140.973 225.974 136.701 221.924 134.362L219.922 133.207C214.446 130.043 212.559 123.001 215.719 117.527Z" fill="#0B559B"/>
<path fill-rule="evenodd" clip-rule="evenodd" d="M303.714 117.773C323.918 117.773 340.296 134.152 340.296 154.356C340.296 174.56 323.917 190.938 303.714 190.938C283.51 190.938 267.131 174.559 267.131 154.356C267.131 134.152 283.51 117.773 303.714 117.773Z" fill="#E6E6E6"/>
<path fill-rule="evenodd" clip-rule="evenodd" d="M303.96 122.406C320.93 122.406 334.766 136.233 334.766 153.234C334.766 170.222 320.93 184.053 303.96 184.053C286.945 184.053 273.109 170.221 273.109 153.234C273.109 136.233 286.945 122.406 303.96 122.406ZM303.96 195.897C327.468 195.897 346.587 176.755 346.587 153.234C346.587 129.7 327.468 110.571 303.96 110.571C280.408 110.571 261.288 129.699 261.288 153.234C261.288 176.755 280.407 195.897 303.96 195.897ZM376.81 435.875C371.616 435.875 367.407 431.657 367.407 426.485C367.407 421.3 371.616 417.087 376.81 417.087C382.004 417.087 386.213 421.301 386.213 426.485C386.213 431.657 382.004 435.875 376.81 435.875ZM376.81 405.239C365.123 405.239 355.586 414.767 355.586 426.485C355.586 438.189 365.123 447.718 376.81 447.718C388.541 447.718 398.034 438.189 398.034 426.485C398.034 414.767 388.542 405.239 376.81 405.239ZM246.377 435.875C241.183 435.875 236.974 431.657 236.974 426.485C236.974 421.3 241.183 417.087 246.377 417.087C251.571 417.087 255.78 421.301 255.78 426.485C255.78 431.657 251.571 435.875 246.377 435.875ZM246.377 405.239C234.691 405.239 225.153 414.767 225.153 426.485C225.153 438.189 234.69 447.718 246.377 447.718C258.108 447.718 267.601 438.189 267.601 426.485C267.601 414.767 258.109 405.239 246.377 405.239ZM199.586 307.336L398.482 282.593C406.228 281.626 415.318 274.806 418.138 261.74L440.034 159.149H386.616C386.526 160.336 386.437 161.509 386.303 162.691C385.848 166.66 388.527 167.896 391.049 169.349C399.377 174.153 402.243 184.846 397.452 193.179L385.273 214.238C380.482 222.557 369.781 225.423 361.452 220.614C358.907 219.15 356.479 217.447 353.303 219.813C348.243 223.578 342.691 226.753 336.915 229.278C333.286 230.854 333.557 233.804 333.557 236.729C333.557 246.356 325.721 254.178 316.094 254.178H291.78C282.153 254.178 274.362 246.356 274.362 236.729C274.362 233.818 274.625 230.856 270.96 229.269C265.139 226.753 259.631 223.578 254.572 219.813C251.412 217.467 248.978 219.15 246.423 220.614C237.995 225.441 227.399 222.523 222.602 214.238L210.423 193.179C205.673 184.883 208.506 174.119 216.826 169.349L218.841 168.199C222.523 166.076 221.521 162.626 221.259 159.149H159.378L199.586 307.336ZM225.825 363.087C211.855 363.087 199.99 354.02 196.362 340.542L131.795 102.745C126.959 84.8743 111.243 72.8663 92.7497 72.8663H63.7357C56.9437 72.8663 56.9607 83.1873 63.7357 83.1873H92.4377C106.408 83.1873 118.274 92.2413 121.945 105.727L186.467 343.524C191.303 361.394 207.019 373.404 225.557 373.404H422.124C428.916 373.404 428.9 363.087 422.124 363.087H225.825ZM220.138 123.454C220.872 126.089 222.628 126.795 224.75 128.021C230.884 131.55 234.153 138.113 233.347 145.135C232.765 150.526 232.721 155.984 233.347 161.353C234.153 168.365 230.839 174.915 224.75 178.448L222.735 179.603C220.075 181.127 219.176 184.617 220.674 187.26L232.854 208.309C233.615 209.599 234.779 210.53 236.257 210.911C238.853 211.598 240.425 210.422 242.526 209.209C248.609 205.697 255.922 206.081 261.601 210.306C265.944 213.521 270.69 216.252 275.661 218.401C282.153 221.208 286.183 227.343 286.183 234.413V236.728C286.183 239.822 288.691 242.334 291.78 242.334H316.094C319.184 242.334 321.69 239.822 321.69 236.728V234.413C321.69 227.361 325.72 221.226 332.212 218.41C337.182 216.252 341.884 213.521 346.272 210.292C351.958 206.088 359.257 205.675 365.391 209.2L367.406 210.36C370.048 211.909 373.496 210.987 375.018 208.309L387.197 187.26C388.719 184.582 387.824 181.148 385.137 179.603L383.122 178.439C376.988 174.906 373.719 168.356 374.525 161.33C375.152 155.934 375.152 150.476 374.525 145.107C373.719 138.095 377.032 131.54 383.122 128.007L385.137 126.852C387.827 125.315 388.708 121.865 387.197 119.195L375.018 98.1463C374.301 96.8573 373.092 95.9393 371.615 95.5493C369.009 94.8473 367.48 96.0513 365.391 97.2503C359.257 100.779 351.958 100.358 346.272 96.1633C341.928 92.9433 337.182 90.2163 332.212 88.0673C325.72 85.2603 321.69 79.1163 321.69 72.0553V69.7273C321.69 66.6373 319.183 64.1213 316.094 64.1213H291.78C288.691 64.1213 286.183 66.6373 286.183 69.7273V72.0423C286.183 79.0943 282.154 85.2283 275.706 88.0453C270.736 90.2083 265.989 92.9343 261.602 96.1723C255.96 100.372 248.617 100.788 242.527 97.2603L240.512 96.0963C237.825 94.5513 234.378 95.4693 232.855 98.1463L220.675 119.195C219.959 120.49 219.78 122.003 220.138 123.454ZM429.691 264.212L453.154 154.466C453.913 150.837 451.142 147.306 447.333 147.306H386.616C386.349 143.779 385.351 140.44 389.079 138.27L391.049 137.114C399.437 132.231 402.28 121.631 397.452 113.28L385.273 92.2303C380.429 83.8523 369.726 81.0293 361.452 85.8453C358.982 87.2833 356.505 89.0183 353.303 86.6473C348.243 82.8903 342.736 79.7113 336.915 77.1993C333.284 75.6293 333.557 72.6373 333.557 69.7263C333.557 60.1043 325.721 52.2773 316.094 52.2773H291.78C282.153 52.2773 274.362 60.1043 274.362 69.7263C274.362 72.6453 274.626 75.5913 270.96 77.1903C265.184 79.7023 259.676 82.8903 254.572 86.6563C251.388 89.0053 248.97 87.3123 246.423 85.8453C238.094 81.0323 227.393 83.8983 222.602 92.2303L210.423 113.28C205.666 121.586 208.517 132.332 216.826 137.114C219.324 138.552 222.072 139.819 221.617 143.777C221.482 144.95 221.348 146.132 221.303 147.305H156.154L143.258 99.6453C136.99 76.5403 116.661 61.0213 92.7507 61.0213H63.7357C54.3777 61.0213 46.7207 68.6513 46.7207 78.0183C46.7207 87.3983 54.3777 95.0283 63.7357 95.0283H92.4377C100.99 95.0283 108.244 100.571 110.483 108.828L175.05 346.625C181.318 369.725 201.602 385.249 225.558 385.249H422.125C431.528 385.249 439.14 377.619 439.14 368.248C439.14 358.872 431.528 351.242 422.125 351.242H225.825C217.273 351.242 210.019 345.694 207.78 337.442L202.721 318.878L399.915 294.345C411.87 292.86 425.706 282.964 429.691 264.212Z" fill="#0B559B"/>
</svg>
