<svg width="610" height="610" viewBox="0 0 610 610" fill="none" xmlns="http://www.w3.org/2000/svg">
<path d="M494.452 264.171V231.163C494.452 226.322 490.528 222.398 485.687 222.398H383.856C379.016 222.398 375.092 226.322 375.092 231.163V285C375.092 289.84 379.016 293.764 383.856 293.764H402.612L494.762 293.273L494.452 264.171Z" fill="white"/>
<path d="M402.613 297.02H383.857C377.229 297.02 371.836 291.627 371.836 284.999V231.162C371.836 224.533 377.229 219.141 383.857 219.141H485.688C492.317 219.141 497.71 224.533 497.71 231.162V264.171C497.71 265.969 496.251 267.427 494.453 267.427C492.654 267.427 491.196 265.969 491.196 264.171V231.162C491.196 228.125 488.725 225.655 485.689 225.655H383.857C380.821 225.655 378.35 228.125 378.35 231.162V284.999C378.35 288.036 380.821 290.506 383.857 290.506H402.605L494.746 290.015H494.763C496.554 290.015 498.01 291.462 498.02 293.255C498.03 295.054 496.579 296.52 494.78 296.529L402.631 297.02C402.625 297.02 402.619 297.02 402.613 297.02Z" fill="white"/>
<path d="M494.453 249.447H375.093C373.294 249.447 371.836 247.989 371.836 246.191C371.836 244.392 373.294 242.934 375.093 242.934H494.453C496.251 242.934 497.71 244.392 497.71 246.191C497.71 247.989 496.251 249.447 494.453 249.447Z" fill="white"/>
<path d="M462.227 373.611C489.947 373.611 512.417 351.14 512.417 323.421C512.417 295.701 489.947 273.23 462.227 273.23C434.508 273.23 412.037 295.701 412.037 323.421C412.037 351.14 434.508 373.611 462.227 373.611Z" fill="#0B559B"/>
<path d="M462.227 376.868C455.013 376.868 448.013 375.454 441.422 372.666C435.057 369.974 429.341 366.121 424.434 361.213C419.526 356.306 415.673 350.59 412.981 344.225C410.193 337.634 408.779 330.634 408.779 323.42C408.779 316.206 410.193 309.206 412.981 302.615C415.673 296.25 419.526 290.535 424.434 285.627C429.341 280.72 435.057 276.866 441.422 274.174C448.013 271.386 455.013 269.973 462.227 269.973C469.441 269.973 476.441 271.386 483.032 274.174C489.397 276.866 495.112 280.719 500.02 285.627C504.927 290.535 508.78 296.25 511.473 302.615C514.26 309.206 515.674 316.206 515.674 323.42C515.674 330.634 514.26 337.634 511.473 344.225C508.781 350.59 504.927 356.306 500.02 361.213C495.112 366.121 489.397 369.974 483.032 372.666C476.441 375.454 469.441 376.868 462.227 376.868ZM462.227 276.487C436.348 276.487 415.293 297.541 415.293 323.42C415.293 349.299 436.348 370.354 462.227 370.354C488.106 370.354 509.16 349.299 509.16 323.42C509.16 297.541 488.106 276.487 462.227 276.487Z" fill="white"/>
<path d="M347.457 173.486V161.479V134.186C347.457 126.608 341.313 120.441 333.713 120.441H161.637C154.059 120.441 147.893 126.608 147.893 134.186V161.479V448.526V475.819C147.893 483.397 154.059 489.564 161.637 489.564H333.713C341.313 489.564 347.457 483.397 347.457 475.819V448.526V173.486Z" fill="#0B559B"/>
<path d="M333.712 492.82H161.636C152.262 492.82 144.635 485.193 144.635 475.818V134.185C144.635 124.81 152.262 117.184 161.636 117.184H333.712C343.087 117.184 350.714 124.81 350.714 134.185V173.486C350.714 175.284 349.255 176.742 347.457 176.742C345.658 176.742 344.2 175.284 344.2 173.486V134.185C344.2 128.402 339.495 123.697 333.712 123.697H161.636C155.853 123.697 151.149 128.402 151.149 134.185V475.818C151.149 481.601 155.853 486.306 161.636 486.306H333.712C339.495 486.306 344.2 481.601 344.2 475.818V448.525C344.2 446.726 345.658 445.268 347.457 445.268C349.255 445.268 350.714 446.726 350.714 448.525V475.818C350.714 485.193 343.087 492.82 333.712 492.82Z" fill="white"/>
<path d="M347.46 451.783H147.894C146.095 451.783 144.637 450.325 144.637 448.526C144.637 446.728 146.095 445.27 147.894 445.27H347.46C349.259 445.27 350.717 446.728 350.717 448.526C350.717 450.325 349.259 451.783 347.46 451.783Z" fill="white"/>
<path d="M347.46 164.737H147.894C146.095 164.737 144.637 163.278 144.637 161.48C144.637 159.681 146.095 158.223 147.894 158.223H347.46C349.259 158.223 350.717 159.681 350.717 161.48C350.717 163.278 349.259 164.737 347.46 164.737Z" fill="white"/>
<path d="M475.712 306.548L475.719 303.71C475.729 300.102 473.203 297.171 470.076 297.162L454.505 297.121C451.379 297.113 448.837 300.031 448.828 303.639L448.794 316.463C448.784 320.071 451.31 323.003 454.437 323.011L470.008 323.053C473.134 323.061 475.66 325.992 475.651 329.601L475.621 340.973C475.611 344.581 473.069 347.499 469.943 347.491L454.372 347.449C451.246 347.441 448.719 344.51 448.729 340.901L475.712 306.548Z" fill="#0B559B"/>
<path d="M469.957 350.747C469.949 350.747 469.942 350.747 469.935 350.747L454.364 350.706C451.929 350.699 449.576 349.586 447.908 347.651C446.331 345.821 445.466 343.42 445.473 340.892C445.478 339.096 446.935 337.644 448.729 337.644H448.738C450.537 337.649 451.991 339.111 451.987 340.909C451.984 341.857 452.296 342.764 452.842 343.398C453.097 343.694 453.636 344.19 454.381 344.192L469.952 344.233C470.696 344.234 471.239 343.742 471.495 343.448C472.045 342.817 472.362 341.911 472.364 340.964L472.395 329.591C472.399 327.815 471.303 326.312 470 326.309L454.429 326.267C449.512 326.254 445.523 321.852 445.537 316.454L445.571 303.63C445.586 298.24 449.586 293.863 454.493 293.863H454.515L470.086 293.905C475.003 293.918 478.991 298.32 478.977 303.718L478.97 306.556C478.965 308.351 477.507 309.804 475.713 309.804C475.71 309.804 475.707 309.804 475.704 309.804C473.905 309.799 472.451 308.337 472.456 306.538L472.463 303.701C472.468 301.925 471.371 300.422 470.069 300.419L454.498 300.377C454.496 300.377 454.494 300.377 454.493 300.377C453.192 300.377 452.09 301.873 452.086 303.647L452.052 316.471C452.047 318.247 453.143 319.75 454.446 319.753L470.017 319.795C474.934 319.808 478.923 324.21 478.909 329.608L478.879 340.981C478.872 343.509 477.994 345.905 476.407 347.726C474.735 349.647 472.384 350.747 469.957 350.747Z" fill="white"/>
<path d="M461.482 300.395C461.479 300.395 461.476 300.395 461.473 300.395C459.674 300.39 458.22 298.928 458.225 297.13L458.245 289.405C458.25 287.609 459.707 286.156 461.502 286.156H461.511C463.309 286.161 464.764 287.623 464.759 289.422L464.739 297.147C464.734 298.943 463.277 300.395 461.482 300.395Z" fill="white"/>
<path d="M461.324 359.568C461.321 359.568 461.318 359.568 461.315 359.568C459.516 359.564 458.062 358.102 458.066 356.303L458.09 347.459C458.094 345.663 459.552 344.211 461.347 344.211H461.355C463.154 344.216 464.609 345.678 464.604 347.477L464.58 356.32C464.576 358.116 463.118 359.568 461.324 359.568Z" fill="white"/>
<path d="M426.93 432.277H281.486C274.341 432.277 268.529 426.465 268.529 419.321V391.124C268.529 389.325 269.987 387.867 271.786 387.867C273.585 387.867 275.043 389.326 275.043 391.124V419.321C275.043 422.873 277.933 425.763 281.486 425.763H426.93C430.483 425.763 433.373 422.873 433.373 419.321V391.124C433.373 389.325 434.831 387.867 436.63 387.867C438.428 387.867 439.887 389.326 439.887 391.124V419.321C439.887 426.465 434.074 432.277 426.93 432.277Z" fill="white"/>
<path d="M456.391 411.313C455.539 411.313 454.689 410.981 454.05 410.321L434.29 389.905C433.039 388.612 433.072 386.55 434.365 385.299C435.657 384.049 437.719 384.082 438.97 385.374L458.731 405.791C459.982 407.083 459.948 409.145 458.656 410.396C458.023 411.008 457.206 411.313 456.391 411.313Z" fill="white"/>
<path d="M416.868 411.313C416.052 411.313 415.236 411.009 414.603 410.396C413.311 409.145 413.277 407.083 414.528 405.791L434.289 385.375C435.54 384.082 437.602 384.049 438.894 385.3C440.187 386.551 440.22 388.612 438.969 389.905L419.209 410.321C418.57 410.981 417.719 411.313 416.868 411.313Z" fill="white"/>
<path d="M264.095 227.672C262.296 227.672 260.838 226.213 260.838 224.415V196.218C260.838 189.074 266.65 183.262 273.794 183.262H419.239C426.383 183.262 432.195 189.074 432.195 196.218V203.15C432.195 204.949 430.737 206.407 428.938 206.407C427.14 206.407 425.681 204.949 425.681 203.15V196.218C425.681 192.666 422.791 189.775 419.239 189.775H273.794C270.242 189.775 267.352 192.666 267.352 196.218V224.415C267.352 226.214 265.894 227.672 264.095 227.672Z" fill="white"/>
<path d="M264.096 231.153C263.244 231.153 262.394 230.821 261.755 230.161L241.995 209.745C240.744 208.452 240.777 206.39 242.07 205.139C243.362 203.888 245.424 203.922 246.675 205.215L266.436 225.631C267.687 226.924 267.653 228.986 266.361 230.236C265.728 230.848 264.912 231.153 264.096 231.153Z" fill="white"/>
<path d="M264.095 231.153C263.279 231.153 262.462 230.849 261.83 230.236C260.537 228.986 260.504 226.924 261.755 225.631L281.515 205.215C282.766 203.922 284.828 203.888 286.12 205.139C287.413 206.39 287.446 208.452 286.196 209.745L266.435 230.161C265.796 230.821 264.946 231.153 264.095 231.153Z" fill="white"/>
<path d="M176.085 283.037L188.625 360.314C188.947 362.296 190.402 363.728 192.096 363.728H309.441C311.135 363.728 312.591 362.296 312.912 360.314L325.452 283.037C325.874 280.437 324.203 278.023 321.981 278.023H179.556C177.334 278.023 175.663 280.437 176.085 283.037Z" fill="#FFBF31"/>
<path d="M309.442 366.984H192.097C188.801 366.984 185.989 364.398 185.411 360.835L172.871 283.557C172.495 281.24 173.14 278.834 174.596 277.123C175.87 275.625 177.679 274.766 179.557 274.766H321.982C323.86 274.766 325.668 275.625 326.943 277.123C328.399 278.834 329.044 281.24 328.668 283.557L316.128 360.835C315.55 364.398 312.738 366.984 309.442 366.984ZM192.162 360.47H309.376C309.452 360.409 309.632 360.201 309.698 359.792L322.238 282.514C322.343 281.867 322.072 281.398 321.92 281.28H179.619C179.466 281.398 179.196 281.867 179.301 282.514L191.841 359.792C191.907 360.201 192.086 360.409 192.162 360.47Z" fill="white"/>
<path d="M227.052 366.984C225.398 366.984 223.982 365.729 223.815 364.049L215.307 278.344C215.13 276.554 216.437 274.959 218.226 274.782C220.017 274.605 221.612 275.911 221.789 277.701L230.297 363.405C230.475 365.195 229.167 366.79 227.377 366.968C227.268 366.979 227.159 366.984 227.052 366.984Z" fill="white"/>
<path d="M277.702 366.984C277.595 366.984 277.486 366.979 277.377 366.968C275.587 366.791 274.28 365.195 274.458 363.406L282.965 277.701C283.143 275.911 284.736 274.605 286.528 274.782C288.318 274.959 289.625 276.554 289.447 278.345L280.94 364.049C280.773 365.729 279.356 366.984 277.702 366.984Z" fill="white"/>
<path d="M319.313 324.131H182.226C180.427 324.131 178.969 322.673 178.969 320.874C178.969 319.075 180.427 317.617 182.226 317.617H319.313C321.111 317.617 322.569 319.075 322.569 320.874C322.569 322.673 321.111 324.131 319.313 324.131Z" fill="white"/>
<path d="M218.54 281.27C217.706 281.27 216.872 280.952 216.236 280.315C214.965 279.043 214.966 276.981 216.238 275.709L237.821 254.148C239.094 252.877 241.156 252.878 242.427 254.15C243.698 255.423 243.697 257.485 242.425 258.757L220.842 280.318C220.206 280.953 219.373 281.27 218.54 281.27Z" fill="white"/>
<path d="M286.199 281.27C285.365 281.27 284.532 280.952 283.896 280.316L262.335 258.755C261.063 257.483 261.063 255.421 262.335 254.149C263.607 252.877 265.669 252.877 266.941 254.149L288.502 275.71C289.774 276.982 289.774 279.044 288.502 280.316C287.866 280.952 287.033 281.27 286.199 281.27Z" fill="white"/>
<path d="M347.456 419.257C345.657 419.257 344.199 417.798 344.199 416V199.542C344.199 197.743 345.658 196.285 347.456 196.285C349.255 196.285 350.713 197.743 350.713 199.542V416C350.713 417.799 349.255 419.257 347.456 419.257Z" fill="white"/>
</svg>
