<svg width="512" height="512" viewBox="0 0 512 512" fill="none" xmlns="http://www.w3.org/2000/svg">
<g clip-path="url(#clip0_1940_451)">
<path fill-rule="evenodd" clip-rule="evenodd" d="M378.356 383.141H167.023C151.471 383.141 138.763 370.706 136.807 353.564L109.09 111.049C108.685 107.488 111.472 104.371 115.051 104.371H458.051C461.879 104.371 464.756 107.971 463.895 111.703L408.464 354.221C404.327 372.326 393.074 383.138 378.359 383.138L378.356 383.141ZM121.771 116.365L148.726 352.202C149.767 361.319 155.932 371.135 167.02 371.135H378.353C390.932 371.135 395.414 357.434 396.758 351.548L450.515 116.365H121.771Z" fill="#FFBF31"/>
<path fill-rule="evenodd" clip-rule="evenodd" d="M115.042 116.365C112.036 116.365 109.438 114.109 109.087 111.049L101.269 42.6307C100.375 34.7826 112.291 33.4206 113.188 41.2687L121.006 109.687C121.411 113.236 118.612 116.365 115.042 116.365Z" fill="#FFBF31"/>
<path fill-rule="evenodd" clip-rule="evenodd" d="M107.221 47.9452C106.066 47.9452 104.899 47.6122 103.87 46.9192L50.599 10.9971C44.056 6.58707 50.749 -3.36997 57.307 1.04605L110.578 36.9682C115.471 40.2682 113.107 47.9422 107.218 47.9422L107.221 47.9452Z" fill="#FFBF31"/>
<path fill-rule="evenodd" clip-rule="evenodd" d="M210.413 283.824C196.211 283.824 183.497 268.911 192.602 263.826C200.66 259.326 200.003 271.821 210.413 271.821C216.497 271.821 221.45 266.871 221.45 260.79C221.45 252.951 218.258 251.79 209.027 249.591C200.408 247.542 187.379 244.437 187.379 226.719C187.379 201.162 223.07 194.901 231.98 218.61C234.758 226.005 223.529 230.226 220.751 222.831C216.494 211.488 199.382 214.467 199.382 226.716C199.382 234.555 202.577 235.722 211.805 237.915C220.424 239.97 233.45 243.069 233.45 260.784C233.444 273.489 223.115 283.824 210.416 283.824H210.413Z" fill="#0B559B"/>
<path fill-rule="evenodd" clip-rule="evenodd" d="M347.343 283.824C334.581 283.824 324.195 273.441 324.195 260.679V226.83C324.195 196.365 370.491 196.374 370.491 226.83V260.679C370.485 273.441 360.102 283.824 347.343 283.824ZM347.343 215.685C341.193 215.685 336.198 220.686 336.198 226.83V260.679C336.198 275.37 358.488 275.367 358.488 260.679V226.83C358.488 220.68 353.487 215.685 347.343 215.685Z" fill="#0B559B"/>
<path fill-rule="evenodd" clip-rule="evenodd" d="M298.004 283.828H263.711C260.399 283.828 257.711 281.137 257.711 277.828V209.68C257.711 206.368 260.399 203.68 263.711 203.68H298.004C305.903 203.68 305.897 215.68 298.004 215.68H269.711V271.825H298.004C305.903 271.825 305.897 283.828 298.004 283.828Z" fill="#0B559B"/>
<path fill-rule="evenodd" clip-rule="evenodd" d="M294.184 249.75H263.713C255.814 249.75 255.814 237.75 263.713 237.75H294.184C302.083 237.75 302.083 249.75 294.184 249.75Z" fill="#0B559B"/>
<path fill-rule="evenodd" clip-rule="evenodd" d="M204.743 479.934C199.214 479.934 196.592 472.986 200.855 469.365L314.688 372.57C320.691 367.452 328.473 376.596 322.458 381.705L208.628 478.5C207.5 479.46 206.12 479.934 204.746 479.934H204.743Z" fill="#FFBF31"/>
<path fill-rule="evenodd" clip-rule="evenodd" d="M331.402 479.934C330.031 479.934 328.648 479.463 327.52 478.5L213.685 381.705C207.661 376.584 215.446 367.455 221.455 372.57L335.29 469.365C339.553 472.992 336.925 479.934 331.405 479.934H331.402Z" fill="#FFBF31"/>
<path fill-rule="evenodd" clip-rule="evenodd" d="M204.74 511.98C183.761 511.98 166.697 494.91 166.697 473.934C166.697 452.961 183.761 435.891 204.74 435.891C225.719 435.891 242.784 452.961 242.784 473.934C242.784 494.916 225.716 511.98 204.74 511.98ZM204.74 447.897C170.462 447.897 170.465 499.98 204.74 499.98C239.016 499.98 239.022 447.897 204.74 447.897Z" fill="#0B559B"/>
<path fill-rule="evenodd" clip-rule="evenodd" d="M331.406 511.98C310.433 511.98 293.363 494.91 293.363 473.934C293.363 452.961 310.433 435.891 331.406 435.891C352.38 435.891 369.447 452.961 369.447 473.934C369.441 494.916 352.377 511.98 331.406 511.98ZM331.406 447.897C297.134 447.897 297.137 499.98 331.406 499.98C365.673 499.98 365.679 447.897 331.406 447.897Z" fill="#0B559B"/>
</g>
<defs>
<clipPath id="clip0_1940_451">
<rect width="512" height="512" fill="white"/>
</clipPath>
</defs>
</svg>
