<svg width="512" height="512" viewBox="0 0 512 512" fill="none" xmlns="http://www.w3.org/2000/svg">
<path d="M136 296V208C136 186.783 144.429 166.434 159.431 151.431C174.434 136.429 194.783 128 216 128C237.217 128 257.566 136.429 272.569 151.431C287.571 166.434 296 186.783 296 208V296" fill="#0B559B"/>
<path d="M216 240V208C216 186.783 224.429 166.434 239.431 151.431C254.434 136.429 274.783 128 296 128C317.217 128 337.566 136.429 352.569 151.431C367.571 166.434 376 186.783 376 208V240" fill="#0B559B"/>
<path d="M87.9993 318.551C69.9154 315.203 53.3344 306.275 40.5848 293.02C27.8352 279.766 19.5574 262.85 16.914 244.65C14.2707 226.45 17.3944 207.879 25.8467 191.545C34.2989 175.211 47.655 161.935 64.0393 153.581C64.0293 153.051 63.9993 152.531 63.9993 152.001C63.9994 141.821 66.4275 131.789 71.0822 122.736C75.7369 113.683 82.4838 105.871 90.7629 99.9487C99.042 94.0261 108.614 90.1638 118.685 88.6824C128.756 87.2009 139.035 88.1432 148.669 91.4308C164.589 64.1358 188.619 42.4799 217.416 29.4742C246.214 16.4686 278.349 12.7596 309.352 18.863C340.356 24.9664 368.687 40.5789 390.406 63.5296C412.125 86.4802 426.153 115.628 430.539 146.921C449.862 152.044 466.865 163.592 478.751 179.665C490.636 195.737 496.697 215.377 495.936 235.352C495.175 255.328 487.637 274.449 474.563 289.571C461.488 304.692 443.656 314.913 423.999 318.551" fill="#0B559B"/>
<path d="M88 240H424V496H88V240Z" fill="#FFBF31"/>
<path d="M360 240H424V496H360V240Z" fill="#FFBF31"/>
<path d="M392 432C394.122 432 396.157 431.157 397.657 429.657C399.157 428.157 400 426.122 400 424V264C400 261.878 399.157 259.843 397.657 258.343C396.157 256.843 394.122 256 392 256C389.878 256 387.843 256.843 386.343 258.343C384.843 259.843 384 261.878 384 264V424C384 426.122 384.843 428.157 386.343 429.657C387.843 431.157 389.878 432 392 432Z" fill="white"/>
<path d="M392 472C394.122 472 396.157 471.157 397.657 469.657C399.157 468.157 400 466.122 400 464V448C400 445.878 399.157 443.843 397.657 442.343C396.157 440.843 394.122 440 392 440C389.878 440 387.843 440.843 386.343 442.343C384.843 443.843 384 445.878 384 448V464C384 466.122 384.843 468.157 386.343 469.657C387.843 471.157 389.878 472 392 472Z" fill="white"/>
<path d="M437.66 140.681C432.15 108.869 417.145 79.4686 394.617 56.3416C372.09 33.2145 343.093 17.4432 311.437 11.0996C279.78 4.75605 246.946 8.137 217.246 20.7983C187.547 33.4595 162.372 54.8088 145.03 82.0412C134.697 79.5279 123.936 79.3343 113.519 81.4745C103.102 83.6147 93.2883 88.0354 84.7831 94.4191C76.2778 100.803 69.292 108.991 64.3275 118.396C59.363 127.8 56.5431 138.187 56.0702 148.811C39.5483 158.332 26.236 172.558 17.8304 189.675C9.42489 206.791 6.30691 226.023 8.87401 244.919C11.4411 263.814 19.577 281.517 32.2444 295.771C44.9118 310.024 61.5369 320.183 80.0002 324.951V496.001C80.0002 498.123 80.8431 500.158 82.3434 501.658C83.8437 503.158 85.8785 504.001 88.0002 504.001H424C426.122 504.001 428.157 503.158 429.657 501.658C431.157 500.158 432 498.123 432 496.001V324.951C452.119 319.755 470.009 308.172 482.984 291.941C495.958 275.711 503.317 255.709 503.955 234.939C504.593 214.17 498.476 193.754 486.522 176.758C474.568 159.762 457.422 147.103 437.66 140.681ZM352 488.001H96.0002V248.001H128V296.001C128 298.123 128.843 300.158 130.343 301.658C131.844 303.158 133.878 304.001 136 304.001C138.122 304.001 140.157 303.158 141.657 301.658C143.157 300.158 144 298.123 144 296.001V248.001H288V296.001C288 298.123 288.843 300.158 290.343 301.658C291.844 303.158 293.878 304.001 296 304.001C298.122 304.001 300.157 303.158 301.657 301.658C303.157 300.158 304 298.123 304 296.001V248.001H352V488.001ZM208 208.001V232.001H144V208.001C143.996 196.479 146.758 185.123 152.054 174.89C157.351 164.657 165.027 155.845 174.437 149.196C183.847 142.546 194.716 138.253 206.13 136.677C217.545 135.102 229.17 136.29 240.03 140.141C230.012 148.386 221.944 158.747 216.406 170.48C210.868 182.213 207.998 195.027 208 208.001ZM256 148.171C265.842 154.745 273.911 163.643 279.492 174.079C285.074 184.515 287.996 196.166 288 208.001V232.001H224V208.001C224.004 196.166 226.927 184.515 232.508 174.079C238.09 163.643 246.159 154.745 256 148.171ZM304 232.001V208.001C304.003 195.027 301.132 182.213 295.594 170.48C290.056 158.747 281.988 148.386 271.97 140.141C282.83 136.29 294.456 135.102 305.87 136.677C317.284 138.253 328.153 142.546 337.564 149.196C346.974 155.845 354.65 164.657 359.946 174.89C365.243 185.123 368.005 196.479 368 208.001V232.001H304ZM416 488.001H368V248.001H416V488.001ZM432 308.331V240.001C432 237.879 431.157 235.845 429.657 234.344C428.157 232.844 426.122 232.001 424 232.001H384V208.001C384.004 192.939 380.141 178.127 372.78 164.986C365.419 151.844 354.807 140.813 341.961 132.947C329.115 125.082 314.465 120.647 299.414 120.066C284.362 119.486 269.414 122.779 256 129.631C242.586 122.779 227.638 119.486 212.587 120.066C197.535 120.647 182.885 125.082 170.039 132.947C157.193 140.813 146.581 151.844 139.221 164.986C131.86 178.127 127.996 192.939 128 208.001V232.001H88.0002C85.8785 232.001 83.8437 232.844 82.3434 234.344C80.8431 235.845 80.0002 237.879 80.0002 240.001V308.331C64.8442 303.562 51.4511 294.389 41.5273 281.981C31.6035 269.573 25.5983 254.491 24.2768 238.658C22.9554 222.824 26.3776 206.956 34.1073 193.074C41.8371 179.193 53.5244 167.926 67.6802 160.711C69.015 160.027 70.1312 158.982 70.9019 157.695C71.6726 156.408 72.067 154.931 72.0402 153.431C72.0302 153.171 72.0302 152.931 72.0202 152.681C72.0102 152.451 72.0002 152.231 72.0002 152.001C72.0012 143.094 74.1265 134.316 78.1999 126.395C82.2732 118.474 88.1771 111.638 95.4214 106.456C102.666 101.274 111.042 97.8943 119.854 96.5978C128.666 95.3012 137.66 96.1252 146.09 99.0012C147.836 99.5976 149.735 99.5719 151.465 98.9286C153.194 98.2852 154.648 97.0638 155.58 95.4712C170.661 69.6118 193.424 49.0941 220.705 36.7711C247.986 24.448 278.43 20.9321 307.802 26.7121C337.174 32.4921 364.015 47.2809 384.593 69.022C405.17 90.7631 418.462 118.376 422.62 148.021C422.838 149.584 423.512 151.048 424.558 152.229C425.604 153.41 426.975 154.256 428.5 154.661C445.258 159.106 460.118 168.874 470.845 182.494C481.572 196.113 487.586 212.849 487.98 230.181C488.375 247.514 483.13 264.506 473.034 278.6C462.938 292.694 448.538 303.128 432 308.331Z" fill="white"/>
</svg>
