<svg width="108" height="102" viewBox="0 0 108 102" fill="none" xmlns="http://www.w3.org/2000/svg">
<circle cx="54" cy="51" r="51" fill="#F7CE30"/>
<path d="M32.5877 72.2468H70.7994H70.9641L72.6112 75.3762C73.6818 77.3527 76.07 78.0939 78.0465 77.0233C80.023 75.9527 80.7641 73.5645 79.6935 71.588L74.67 62.1997C74.423 61.788 73.9288 61.6233 73.5171 61.8703L71.4582 63.0233L70.47 61.1292C75.0818 58.1645 76.7288 52.0703 74.0935 47.2115C71.2935 42.0233 64.87 40.1292 59.7641 42.9292C59.27 43.1762 58.6935 43.588 58.2818 43.9174H53.8347V42.7645C53.8347 40.788 52.27 39.2233 50.2935 39.2233H43.9524C41.9759 39.2233 40.4112 40.788 40.4112 42.7645V43.835H35.3053C33.2465 43.835 31.5994 45.4821 31.5994 47.5409V50.5056C31.5994 52.0703 32.5053 53.388 33.9053 53.9645V62.6115C33.9053 64.6703 35.5524 66.3174 37.6112 66.3174H56.5524C58.6112 66.3174 60.2582 64.6703 60.2582 62.6115V61.788C62.8935 63.0233 66.023 63.188 68.9877 61.8703L69.9759 63.6821L67.8347 64.835C67.423 65.0821 67.2582 65.5762 67.5053 65.988L69.9759 70.5997H32.5877C30.7759 70.5997 29.2935 69.1174 29.2935 67.3056V36.5056H78.7053V66.5645C78.7053 67.0586 79.0347 67.388 79.5288 67.388C80.023 67.388 80.3524 67.0586 80.3524 66.5645C80.3524 53.4703 80.3524 36.588 80.3524 29.588C80.3524 26.8703 78.1288 24.6468 75.4112 24.6468H69.9759C69.4818 24.6468 69.1524 24.9762 69.1524 25.4703C69.1524 25.9645 69.4818 26.2939 69.9759 26.2939H75.4112C77.223 26.2939 78.7053 27.7762 78.7053 29.588V34.9409H29.2935V29.5056C29.2935 27.6939 30.7759 26.2115 32.5877 26.2115H64.9524C65.4465 26.2115 65.7759 25.8821 65.7759 25.388C65.7759 24.8939 65.4465 24.5645 64.9524 24.5645H32.5877C29.87 24.5645 27.6465 26.788 27.6465 29.5056V67.3056C27.6465 70.0233 29.87 72.2468 32.5877 72.2468ZM41.9759 42.7645C41.9759 41.6939 42.7994 40.8703 43.87 40.8703H50.2112C51.2818 40.8703 52.1053 41.6939 52.1053 42.7645V43.835H41.9759V42.7645ZM33.1641 50.588V47.6233C33.1641 46.4703 34.07 45.5645 35.223 45.5645H56.47C54.6582 47.788 53.8347 50.6703 54.1641 53.5527C52.7641 53.7174 52.27 53.7997 50.2935 53.9645V52.5645C50.2935 52.0703 49.9641 51.7409 49.47 51.7409H44.5288C44.0347 51.7409 43.7053 52.0703 43.7053 52.5645V54.0468C38.3524 53.7174 35.0582 52.7292 34.6465 52.7292C33.823 52.3174 33.1641 51.4939 33.1641 50.588ZM45.4347 53.3056H48.7288C48.7288 53.5527 48.7288 57.5056 48.7288 57.4233H45.4347C45.4347 57.2586 45.4347 53.2233 45.4347 53.3056ZM56.5524 64.7527H37.6112C36.4582 64.7527 35.5524 63.8468 35.5524 62.6939V54.4586C38.023 55.035 40.9877 55.4468 43.7877 55.6115V58.2468C43.7877 58.7409 44.1171 59.0703 44.6112 59.0703H49.5524C50.0465 59.0703 50.3759 58.7409 50.3759 58.2468V55.6115C52.1053 55.5292 53.423 55.2821 54.4935 55.1174C55.1524 57.5056 56.6347 59.4821 58.6112 60.8821V62.6939C58.6112 63.7645 57.7053 64.7527 56.5524 64.7527ZM55.9759 53.9645C55.1524 50.0115 57.0465 46.1409 60.5053 44.2468C64.87 41.8586 70.3053 43.588 72.6112 47.8703C74.9171 52.235 73.3524 57.6703 68.9877 59.9762C63.6347 62.9409 57.1288 59.8115 55.9759 53.9645ZM77.3053 75.5409C76.1524 76.1997 74.67 75.7056 74.0935 74.5527L70.9641 68.788L75.1641 66.5645L78.2935 72.3292C78.87 73.4821 78.4582 74.8821 77.3053 75.5409ZM73.5994 63.6821L74.3406 65.0821L70.1406 67.3056L69.3994 65.9056L73.5994 63.6821Z" fill="black"/>
<path d="M32.5879 30.494C32.5879 31.894 33.6585 32.9646 35.0585 32.9646C36.4585 32.9646 37.5291 31.894 37.5291 30.494C37.5291 29.094 36.4585 28.0234 35.0585 28.0234C33.6585 28.0234 32.5879 29.1764 32.5879 30.494ZM35.882 30.494C35.882 30.9881 35.5526 31.3176 35.0585 31.3176C34.5644 31.3176 34.2349 30.9881 34.2349 30.494C34.2349 29.9999 34.5644 29.6705 35.0585 29.6705C35.4702 29.6705 35.882 30.0823 35.882 30.494Z" fill="black"/>
<path d="M39.5059 30.494C39.5059 31.894 40.5764 32.9646 41.9764 32.9646C43.3764 32.9646 44.447 31.894 44.447 30.494C44.447 29.094 43.3764 28.0234 41.9764 28.0234C40.5764 28.0234 39.5059 29.1764 39.5059 30.494ZM42.8 30.494C42.8 30.9881 42.4706 31.3176 41.9764 31.3176C41.4823 31.3176 41.1529 30.9881 41.1529 30.494C41.1529 29.9999 41.4823 29.6705 41.9764 29.6705C42.4706 29.6705 42.8 30.0823 42.8 30.494Z" fill="black"/>
<path d="M46.5059 30.494C46.5059 31.894 47.5764 32.9646 48.9764 32.9646C50.3764 32.9646 51.447 31.894 51.447 30.494C51.447 29.094 50.3764 28.0234 48.9764 28.0234C47.5764 28.0234 46.5059 29.1764 46.5059 30.494ZM49.8 30.494C49.8 30.9881 49.4706 31.3176 48.9764 31.3176C48.4823 31.3176 48.1529 30.9881 48.1529 30.494C48.1529 29.9999 48.4823 29.6705 48.9764 29.6705C49.3882 29.6705 49.8 30.0823 49.8 30.494Z" fill="black"/>
<path d="M64.7063 51.3289C64.0474 51.3289 63.5533 50.8347 63.5533 50.1759C63.5533 49.5171 64.0474 49.023 64.7063 49.023C65.3651 49.023 65.8592 49.5171 65.8592 50.1759C65.8592 50.67 66.1886 50.9994 66.6827 50.9994C67.1768 50.9994 67.5063 50.67 67.5063 50.1759C67.5063 48.9406 66.6827 47.87 65.5298 47.4583V46.9642C65.5298 46.47 65.2004 46.1406 64.7063 46.1406C64.2121 46.1406 63.8827 46.47 63.8827 46.9642V47.4583C62.7298 47.7877 61.9062 48.8583 61.9062 50.1759C61.9062 51.7406 63.1415 52.9759 64.7063 52.9759C65.3651 52.9759 65.8592 53.47 65.8592 54.1289C65.8592 54.7877 65.3651 55.2818 64.7063 55.2818C64.0474 55.2818 63.5533 54.7877 63.5533 54.1289C63.5533 53.6347 63.2239 53.3053 62.7298 53.3053C62.2357 53.3053 61.9062 53.6347 61.9062 54.1289C61.9062 55.3642 62.7298 56.4347 63.8827 56.8465V57.3406C63.8827 57.8347 64.2121 58.1642 64.7063 58.1642C65.2004 58.1642 65.5298 57.8347 65.5298 57.3406V56.8465C66.6827 56.5171 67.5063 55.4465 67.5063 54.1289C67.5886 52.6465 66.271 51.3289 64.7063 51.3289Z" fill="black"/>
<path d="M57.7051 30.4935C57.7051 30.9876 58.0345 31.317 58.5286 31.317H73.1874C73.6815 31.317 74.011 30.9876 74.011 30.4935C74.011 29.9993 73.6815 29.6699 73.1874 29.6699H58.5286C58.0345 29.6699 57.7051 30.0817 57.7051 30.4935Z" fill="black"/>
</svg>
