<svg width="200" height="200" viewBox="0 0 200 200" fill="none" xmlns="http://www.w3.org/2000/svg">
<path fill-rule="evenodd" clip-rule="evenodd" d="M78.6445 56.8477V21.0352C78.6445 19.8633 78.0742 18.7539 77.1211 18.0781C76.168 17.3984 74.9375 17.2227 73.8281 17.6055L49.5898 25.9922V21.0352C49.5898 19.8633 49.0195 18.7539 48.0664 18.0781C47.1133 17.3984 45.8828 17.2227 44.7734 17.6055L20.5352 25.9922V9.32031C20.5352 7.32031 18.9062 5.69141 16.9062 5.69141H7.92578C5.92578 5.69141 4.29688 7.32031 4.29688 9.32031V56.8477C4.29688 58.8477 5.92578 60.4766 7.92578 60.4766H75.0156C77.0156 60.4766 78.6445 58.8516 78.6445 56.8477ZM16.6289 9.59766V13.1094H8.20312V9.59766H16.6289ZM8.20312 56.5703V17.0156H16.6289V56.5703H8.20312ZM45.6836 56.5703H20.5352V30.125L45.6836 21.4219V56.5703ZM74.7383 56.5703H49.5898V30.125L74.7383 21.4219V56.5703ZM28.1523 47.6367H38.0664C39.1445 47.6367 40.0195 46.7617 40.0195 45.6836V35.7656C40.0195 34.6875 39.1445 33.8125 38.0664 33.8125H28.1523C27.0742 33.8125 26.1992 34.6875 26.1992 35.7656V45.6797C26.1992 46.7617 27.0742 47.6367 28.1523 47.6367ZM30.1055 37.7187H36.1133V43.7266H30.1055V37.7187ZM57.207 47.6367H67.1211C68.1992 47.6367 69.0742 46.7617 69.0742 45.6836V35.7656C69.0742 34.6875 68.1992 33.8125 67.1211 33.8125H57.207C56.1289 33.8125 55.2539 34.6875 55.2539 35.7656V45.6797C55.2539 46.7617 56.1289 47.6367 57.207 47.6367ZM59.1602 37.7187H65.168V43.7266H59.1602V37.7187ZM181.066 35.6641H170.578C169.043 35.6641 167.793 36.9141 167.793 38.4492V48.3594C167.793 49.8945 169.043 51.1445 170.578 51.1445H181.066C182.602 51.1445 183.852 49.8945 183.852 48.3594V38.4453C183.852 36.9102 182.602 35.6641 181.066 35.6641ZM179.945 47.2344H171.703V39.5703H179.945V47.2344ZM195.703 20.7813C195.699 20.6016 195.68 20.4258 195.629 20.25L192.406 8.87109C191.672 6.28125 189.371 4.53906 186.676 4.53906H144.805C142.113 4.53906 139.809 6.28125 139.074 8.87109L135.852 20.25C135.801 20.4258 135.781 20.6055 135.781 20.7813H135.777C135.777 24.2578 137.352 27.3711 139.824 29.4492V55.9023C139.824 58.4258 141.879 60.4805 144.402 60.4805H187.074C189.598 60.4805 191.652 58.4258 191.652 55.9023V29.4453C194.129 27.3672 195.703 24.2539 195.703 20.7813ZM184.387 28.1914C180.977 28.1914 178.105 25.875 177.246 22.7305H191.531C190.668 25.875 187.797 28.1914 184.387 28.1914ZM139.957 22.7344H154.242C153.383 25.875 150.512 28.1953 147.102 28.1953C143.687 28.1914 140.816 25.875 139.957 22.7344ZM172.797 22.7344C171.937 25.875 169.066 28.1953 165.656 28.1953C162.246 28.1953 159.375 25.8789 158.512 22.7344H172.797ZM158.598 18.8281L159.52 8.44531H171.969L172.891 18.8281H158.598ZM188.648 9.93359L191.168 18.8281H176.809L175.887 8.44531H186.676C187.617 8.44531 188.391 9.03125 188.648 9.93359ZM142.836 9.93359C143.094 9.02734 143.867 8.44531 144.805 8.44531H155.594L154.672 18.8281H140.313L142.836 9.93359ZM159.777 56.5703H151.539V39.5703H159.777V56.5703ZM187.75 55.9023C187.75 56.2656 187.441 56.5742 187.078 56.5742H163.684V38.6172C163.684 36.9883 162.359 35.6641 160.73 35.6641H150.586C148.957 35.6641 147.633 36.9883 147.633 38.6172V56.5742H144.406C144.043 56.5742 143.734 56.2656 143.734 55.9023V31.5898C144.797 31.9219 145.926 32.1016 147.098 32.1016C150.934 32.1016 154.328 30.1797 156.375 27.2539C158.422 30.1797 161.816 32.1016 165.652 32.1016C169.543 32.1016 172.98 30.1289 175.016 27.1328C177.055 30.1289 180.492 32.1016 184.379 32.1016C185.551 32.1016 186.68 31.9219 187.742 31.5898V55.9023H187.75ZM163.688 141.586C161.691 137.996 158.188 135.938 154.082 135.938H135.277V129.516C135.277 124.715 131.371 120.809 126.57 120.809H64.2266C59.4258 120.809 55.5195 124.715 55.5195 129.516V176.539C55.5195 181.121 59.0781 184.887 63.5781 185.219C64.5039 191.016 69.5352 195.457 75.5898 195.457C81.6328 195.457 86.6563 191.027 87.5938 185.246H141.277C142.215 191.027 147.242 195.457 153.281 195.457C159.324 195.457 164.348 191.027 165.285 185.246H165.367C169.77 185.246 173.348 181.664 173.348 177.266V161.801C173.348 159.852 172.906 158.152 171.957 156.453L163.688 141.586ZM75.5898 191.555C71.0352 191.555 67.332 187.852 67.332 183.297C67.332 178.742 71.0352 175.039 75.5898 175.039C80.1445 175.039 83.8477 178.742 83.8477 183.297C83.8516 187.852 80.1445 191.555 75.5898 191.555ZM131.371 181.344H87.5977C86.6602 175.562 81.6328 171.133 75.5938 171.133C69.5664 171.133 64.5547 175.539 63.5977 181.297C61.25 180.984 59.4336 178.977 59.4336 176.543V129.52C59.4336 126.875 61.5859 124.719 64.2344 124.719H126.578C129.223 124.719 131.379 126.871 131.379 129.52V181.344H131.371ZM160.273 143.488L166.937 155.453H147.984C146.906 155.453 146.031 154.578 146.031 153.5V139.848H154.082C156.73 139.848 158.988 141.172 160.273 143.488ZM153.289 191.555C148.734 191.555 145.031 187.852 145.031 183.297C145.031 178.742 148.734 175.039 153.289 175.039C157.844 175.039 161.547 178.742 161.547 183.297C161.547 187.852 157.84 191.555 153.289 191.555ZM169.449 177.27C169.449 179.516 167.621 181.344 165.375 181.344H165.293C164.355 175.562 159.328 171.133 153.289 171.133C147.246 171.133 142.223 175.562 141.285 181.344H135.281V139.848H142.129V153.5C142.129 156.73 144.758 159.359 147.988 159.359H169.023C169.316 160.133 169.453 160.918 169.453 161.805V177.27H169.449ZM156.965 183.297C156.965 185.328 155.32 186.973 153.289 186.973C151.258 186.973 149.613 185.328 149.613 183.297C149.613 181.266 151.258 179.621 153.289 179.621C155.316 179.621 156.965 181.266 156.965 183.297ZM191.188 78.4805C190.641 79.4102 189.445 79.7227 188.516 79.1758L181.254 74.9141C183.148 81.8359 184.109 88.9883 184.109 96.2344C184.109 109.656 180.742 122.945 174.367 134.668C174.012 135.32 173.344 135.687 172.648 135.687C172.332 135.687 172.016 135.609 171.719 135.449C170.77 134.934 170.422 133.746 170.938 132.801C177 121.652 180.207 109.008 180.207 96.2344C180.207 89.1758 179.25 82.2109 177.363 75.4805L172.789 83.2734C172.242 84.2031 171.047 84.5156 170.117 83.9688C169.187 83.4219 168.875 82.2266 169.422 81.2969L176.23 69.6992C176.492 69.2539 176.922 68.9297 177.422 68.7969C177.922 68.668 178.457 68.7422 178.902 69.0039L190.5 75.8125C191.422 76.3555 191.734 77.5508 191.188 78.4805ZM86.9102 19.1992C86.8516 18.6836 86.9961 18.168 87.3164 17.7617L95.6563 7.21094C96.3242 6.36328 97.5547 6.22266 98.3984 6.89062C99.2461 7.55859 99.3867 8.78906 98.7188 9.63281L93.4687 16.2734C96.793 15.8594 100.16 15.6523 103.52 15.6523C110.582 15.6523 117.605 16.5742 124.391 18.3867C125.434 18.6641 126.051 19.7344 125.773 20.7773C125.496 21.8203 124.422 22.4375 123.383 22.1602C116.926 20.4336 110.242 19.5586 103.52 19.5586C100.184 19.5586 96.8437 19.7734 93.5469 20.2031L100.613 25.7813C101.461 26.4492 101.602 27.6797 100.934 28.5234C100.547 29.0117 99.9766 29.2656 99.4023 29.2656C98.9766 29.2656 98.5508 29.1289 98.1914 28.8437L87.6406 20.5039C87.2344 20.1836 86.9688 19.7109 86.9102 19.1992ZM45.4766 131.246L43.0977 144.484C43.0078 144.996 42.7148 145.445 42.2891 145.742C41.9609 145.973 41.5703 146.094 41.1758 146.094C41.0625 146.094 40.9453 146.082 40.832 146.063L27.5937 143.684C26.5312 143.492 25.8242 142.477 26.0156 141.414C26.207 140.352 27.2227 139.645 28.2813 139.836L36.7578 141.359C27.707 128.016 22.9414 112.484 22.9414 96.2344C22.9414 87.2695 24.4063 78.4609 27.293 70.0508C27.6445 69.0313 28.7539 68.4883 29.7734 68.8398C30.793 69.1914 31.3359 70.3008 30.9883 71.3203C28.2422 79.3203 26.8477 87.7031 26.8477 96.2344C26.8477 111.742 31.4062 126.559 40.0625 139.277L41.6289 130.559C41.8203 129.496 42.832 128.793 43.8945 128.98C44.9609 129.168 45.6641 130.184 45.4766 131.246ZM79.2695 183.297C79.2695 185.328 77.625 186.973 75.5938 186.973C73.5625 186.973 71.918 185.328 71.918 183.297C71.918 181.266 73.5625 179.621 75.5938 179.621C77.6211 179.621 79.2695 181.266 79.2695 183.297Z" fill="black"/>
</svg>
