<svg width="512" height="512" viewBox="0 0 512 512" fill="none" xmlns="http://www.w3.org/2000/svg">
<g clip-path="url(#clip0_1641_231)">
<path d="M80.9519 317.883C81.0932 318.088 81.2471 318.285 81.4127 318.472L81.5663 318.566C115.809 357.039 170.938 369.075 218.1 348.373C218.27 348.287 218.458 348.287 218.629 348.185L218.774 348.048C234.292 341.127 248.161 330.984 259.461 318.293L259.665 318.173C259.883 317.935 260.083 317.681 260.263 317.414C279.503 295.82 290.043 267.853 289.839 238.933C289.829 217.867 284.209 197.185 273.558 179.011V178.849C273.338 178.462 273.09 178.091 272.815 177.74C251.26 141.476 212.137 119.314 169.951 119.47C127.765 119.626 88.8064 142.077 67.5204 178.499L67.3924 178.696C56.6147 196.941 50.9219 217.741 50.906 238.933C50.5724 268.103 61.3091 296.315 80.9519 317.883ZM87.2409 298.487C74.8778 281.359 68.1552 260.806 68.0068 239.683L111.979 250.026C112.865 254.894 114.4 259.621 116.544 264.08L87.2409 298.487ZM139.764 336.656L163.29 298.256C168.156 298.888 173.084 298.888 177.95 298.256L201.443 336.545C181.385 342.934 159.844 342.973 139.764 336.656ZM253.76 298.145L224.679 264.37C226.824 259.934 228.365 255.23 229.261 250.384L272.721 239.854C272.548 260.772 265.927 281.128 253.76 298.145ZM252.668 178.26L211.546 195.413C207.97 192.017 203.983 189.084 199.676 186.683L203.089 141.994C222.931 148.737 240.233 161.393 252.668 178.26ZM186.304 137.898L182.609 185.369C182.08 191.916 185.413 198.173 191.143 201.386C194.3 203.148 197.226 205.295 199.855 207.777C204.704 212.282 211.739 213.533 217.844 210.977L261.765 192.904C266.476 202.26 269.712 212.288 271.356 222.634L225.276 233.813C218.823 235.315 213.854 240.467 212.587 246.971C211.946 250.455 210.844 253.838 209.31 257.032C206.492 263.053 207.475 270.167 211.819 275.199L242.701 311.398C235.261 318.797 226.731 325.014 217.408 329.83L192.508 289.279C189.027 283.581 182.527 280.454 175.902 281.292C172.423 281.727 168.903 281.727 165.423 281.292C158.805 280.479 152.319 283.595 148.817 289.271L123.823 330.034C114.463 325.256 105.892 319.069 98.411 311.688L129.532 275.174C133.877 270.145 134.86 263.033 132.041 257.015C130.509 253.829 129.408 250.455 128.764 246.979C127.5 240.463 122.517 235.303 116.049 233.813L69.3977 222.549C71.0679 212.17 74.3411 202.114 79.1001 192.742L123.473 211.011C129.579 213.569 136.616 212.321 141.47 207.82C144.097 205.338 147.02 203.192 150.174 201.429C155.888 198.184 159.198 191.917 158.656 185.369L154.996 137.812C165.362 136.076 175.948 136.105 186.304 137.898ZM138.253 141.763L141.914 186.504C137.584 188.901 133.57 191.831 129.967 195.225L88.2308 178.039C100.784 161.104 118.241 148.439 138.236 141.763H138.253Z" fill="black"/>
<path d="M145.062 238.932C145.062 253.071 156.524 264.532 170.663 264.532C184.801 264.532 196.263 253.071 196.263 238.932C196.263 224.794 184.801 213.332 170.663 213.332C156.524 213.332 145.062 224.794 145.062 238.932ZM170.663 230.399C175.375 230.399 179.196 234.219 179.196 238.932C179.196 243.645 175.375 247.465 170.663 247.465C165.95 247.465 162.129 243.645 162.129 238.932C162.129 234.219 165.95 230.399 170.663 230.399Z" fill="black"/>
<path d="M485.8 0H350.462C335.999 0.0141121 324.278 11.7348 324.264 26.1973V118.869C324.278 133.332 335.999 145.053 350.462 145.067H392.531V419.703C382.339 423.307 375.509 432.923 375.464 443.733V460.8H323.317C339.431 445.125 345.358 421.72 338.648 400.265C331.937 378.81 313.729 362.953 291.556 359.253C323.567 327.415 341.494 284.082 341.331 238.933C341.331 144.677 264.921 68.2667 170.664 68.2667C76.4077 68.2667 -0.00234565 144.677 -0.00234565 238.933C-0.164189 284.082 17.762 327.414 49.7726 359.253C27.5992 362.953 9.39161 378.81 2.68108 400.265C-4.02946 421.72 1.89794 445.125 18.0115 460.8H17.0643C7.63866 460.8 -0.00234565 468.441 -0.00234565 477.867V494.933C-0.00234565 504.359 7.63866 512 17.0643 512H494.931C504.357 512 511.998 504.359 511.998 494.933V477.867C511.998 468.441 504.357 460.8 494.931 460.8H460.798V443.733C460.753 432.923 453.923 423.307 443.731 419.703V145.067H485.8C500.263 145.053 511.984 133.332 511.998 118.869V26.1973C511.984 11.7348 500.263 0.0141121 485.8 0ZM350.462 17.0667H485.8C490.841 17.0714 494.926 21.1566 494.931 26.1973V93.8667H341.331V26.1973C341.336 21.1566 345.421 17.0714 350.462 17.0667ZM324.264 418.133C324.264 441.698 305.162 460.8 281.598 460.8C258.034 460.8 238.931 441.698 238.931 418.133C238.931 394.569 258.034 375.467 281.598 375.467C305.15 375.495 324.236 394.581 324.264 418.133ZM170.664 409.6C188.94 409.573 207.093 406.602 224.424 400.802C217.932 422.117 223.897 445.273 239.878 460.8H101.45C117.43 445.272 123.394 422.117 116.904 400.802C134.236 406.602 152.388 409.573 170.664 409.6ZM86.6622 110.498L90.7411 117.564C92.2546 120.226 95.0784 121.873 98.1405 121.879C101.203 121.886 104.034 120.252 105.559 117.596C107.084 114.941 107.07 111.672 105.521 109.03L101.459 101.999C120.336 92.4359 141 86.914 162.131 85.7856V93.8667C162.131 98.5795 165.952 102.4 170.664 102.4C175.377 102.4 179.198 98.5795 179.198 93.8667V85.7685C200.329 86.8969 220.993 92.4189 239.87 101.982L235.808 109.013C234.259 111.655 234.245 114.924 235.77 117.579C237.295 120.235 240.126 121.869 243.188 121.862C246.25 121.856 249.074 120.209 250.588 117.547L254.666 110.481C272.36 122.098 287.482 137.221 299.1 154.914L292.034 158.993C289.372 160.507 287.725 163.33 287.718 166.392C287.712 169.455 289.346 172.286 292.001 173.811C294.657 175.336 297.926 175.321 300.567 173.773L307.599 169.711C317.162 188.588 322.684 209.252 323.812 230.383H315.731C311.018 230.383 307.198 234.203 307.198 238.916C307.198 243.629 311.018 247.45 315.731 247.45H324.017C322.917 268.626 317.409 289.34 307.846 308.267L300.567 304.06C297.926 302.511 294.657 302.497 292.001 304.022C289.346 305.547 287.712 308.378 287.718 311.44C287.725 314.502 289.372 317.326 292.034 318.839L299.296 323.038C289.61 337.714 277.489 350.629 263.456 361.225C260.038 362.319 256.725 363.719 253.557 365.406L250.596 360.286C248.224 356.239 243.03 354.866 238.968 357.212C234.905 359.557 233.498 364.741 235.816 368.819L239.733 375.646C239.477 375.902 239.221 376.158 238.974 376.422C220.345 385.669 200.011 390.979 179.24 392.021V384C179.24 379.287 175.42 375.467 170.707 375.467C165.994 375.467 162.174 379.287 162.174 384V391.979C141.402 390.937 121.069 385.627 102.44 376.38C102.193 376.115 101.937 375.859 101.681 375.603L105.598 368.777C107.916 364.699 106.509 359.514 102.446 357.169C98.384 354.823 93.1902 356.197 90.8179 360.243L87.8569 365.363C84.689 363.676 81.3762 362.277 77.9582 361.182C63.9249 350.586 51.804 337.671 42.1182 322.995L49.3801 318.797C52.042 317.283 53.689 314.46 53.6957 311.397C53.7025 308.335 52.0679 305.504 49.4126 303.979C46.7573 302.454 43.4884 302.468 40.8467 304.017L33.5678 308.224C23.983 289.322 18.4464 268.629 17.3118 247.467H25.5977C30.3105 247.467 34.131 243.646 34.131 238.933C34.131 234.221 30.3105 230.4 25.5977 230.4H17.4995C18.6279 209.269 24.1499 188.605 33.7129 169.728L40.7443 173.79C43.386 175.339 46.6549 175.353 49.3102 173.828C51.9655 172.303 53.6001 169.472 53.5933 166.41C53.5866 163.347 51.9396 160.524 49.2777 159.01L42.2121 154.931C53.8345 137.236 68.9629 122.114 86.6622 110.498ZM17.0643 418.133C17.0643 394.569 36.1668 375.467 59.731 375.467C83.2951 375.467 102.398 394.569 102.398 418.133C102.398 441.698 83.2951 460.8 59.731 460.8C36.1785 460.772 17.0925 441.686 17.0643 418.133ZM494.931 494.933H17.0643V477.867H494.931V494.933ZM392.531 460.8V443.733C392.531 439.021 396.352 435.2 401.064 435.2H435.198C439.911 435.2 443.731 439.021 443.731 443.733V460.8H392.531ZM426.664 418.133H409.598V145.067H426.664V418.133ZM485.8 128H350.462C345.421 127.995 341.336 123.91 341.331 118.869V110.933H494.931V118.869C494.926 123.91 490.841 127.995 485.8 128Z" fill="black"/>
<path d="M372.052 75.0933L406.186 49.4933C409.956 46.6656 410.72 41.3169 407.892 37.5466C405.065 33.7764 399.716 33.0123 395.946 35.84L361.812 61.44C358.042 64.2677 357.278 69.6164 360.106 73.3867C362.933 77.1569 368.282 77.921 372.052 75.0933Z" fill="black"/>
<path d="M431.787 75.0933L465.92 49.4933C469.69 46.6656 470.454 41.3169 467.627 37.5466C464.799 33.7764 459.45 33.0123 455.68 35.84L421.547 61.44C417.776 64.2677 417.012 69.6164 419.84 73.3867C422.668 77.1569 428.016 77.921 431.787 75.0933Z" fill="black"/>
</g>
<defs>
<clipPath id="clip0_1641_231">
<rect width="512" height="512" fill="white"/>
</clipPath>
</defs>
</svg>
