<svg width="512" height="512" viewBox="0 0 512 512" fill="none" xmlns="http://www.w3.org/2000/svg">
<path d="M47.8721 115.609C48.6632 115.609 49.4366 115.375 50.0943 114.935C50.7521 114.496 51.2648 113.871 51.5676 113.14C51.8703 112.409 51.9495 111.605 51.7952 110.829C51.6409 110.053 51.2599 109.34 50.7005 108.781C50.1411 108.222 49.4284 107.841 48.6524 107.686C47.8765 107.532 47.0722 107.611 46.3413 107.914C45.6104 108.217 44.9857 108.729 44.5462 109.387C44.1067 110.045 43.8721 110.818 43.8721 111.609C43.8721 112.67 44.2935 113.688 45.0436 114.438C45.7938 115.188 46.8112 115.609 47.8721 115.609Z" fill="url(#paint0_linear_1802_638)"/>
<path d="M62.4805 115.609C63.2716 115.609 64.045 115.375 64.7027 114.935C65.3605 114.496 65.8732 113.871 66.176 113.14C66.4787 112.409 66.558 111.605 66.4036 110.829C66.2493 110.053 65.8683 109.34 65.3089 108.781C64.7495 108.222 64.0368 107.841 63.2608 107.686C62.4849 107.532 61.6806 107.611 60.9497 107.914C60.2188 108.217 59.5941 108.729 59.1546 109.387C58.7151 110.045 58.4805 110.818 58.4805 111.609C58.4805 112.67 58.9019 113.688 59.652 114.438C60.4022 115.188 61.4196 115.609 62.4805 115.609Z" fill="url(#paint1_linear_1802_638)"/>
<path d="M77.0957 115.609C77.8868 115.609 78.6602 115.375 79.318 114.935C79.9758 114.496 80.4885 113.871 80.7912 113.14C81.094 112.409 81.1732 111.605 81.0188 110.829C80.8645 110.053 80.4835 109.34 79.9241 108.781C79.3647 108.222 78.652 107.841 77.8761 107.686C77.1001 107.532 76.2959 107.611 75.565 107.914C74.8341 108.217 74.2093 108.729 73.7698 109.387C73.3303 110.045 73.0957 110.818 73.0957 111.609C73.0957 112.67 73.5171 113.688 74.2673 114.438C75.0174 115.188 76.0348 115.609 77.0957 115.609Z" fill="url(#paint2_linear_1802_638)"/>
<path d="M58.4004 380.064H111.304C113.426 380.064 115.461 379.222 116.961 377.721C118.462 376.221 119.304 374.186 119.304 372.064C119.304 369.943 118.462 367.908 116.961 366.408C115.461 364.907 113.426 364.064 111.304 364.064H58.4004C56.2787 364.064 54.2438 364.907 52.7435 366.408C51.2432 367.908 50.4004 369.943 50.4004 372.064C50.4004 374.186 51.2432 376.221 52.7435 377.721C54.2438 379.222 56.2787 380.064 58.4004 380.064Z" fill="url(#paint3_linear_1802_638)"/>
<path d="M208.632 382.793H58.4004C56.2787 382.793 54.2438 383.636 52.7435 385.136C51.2432 386.636 50.4004 388.671 50.4004 390.793C50.4004 392.915 51.2432 394.95 52.7435 396.45C54.2438 397.95 56.2787 398.793 58.4004 398.793H208.632C210.754 398.793 212.789 397.95 214.289 396.45C215.79 394.95 216.632 392.915 216.632 390.793C216.632 388.671 215.79 386.636 214.289 385.136C212.789 383.636 210.754 382.793 208.632 382.793Z" fill="url(#paint4_linear_1802_638)"/>
<path d="M294.072 190.025L201.544 218.441C195.638 213.222 188.122 210.184 180.248 209.833C176.895 209.842 173.625 210.874 170.875 212.793C168.126 214.712 166.028 217.425 164.864 220.569C159.511 220.998 154.515 223.426 150.873 227.372C147.23 231.318 145.207 236.491 145.207 241.861C145.207 247.232 147.23 252.405 150.873 256.351C154.515 260.296 159.511 262.725 164.864 263.153C166.042 266.281 168.144 268.975 170.891 270.879C173.637 272.782 176.898 273.805 180.24 273.809C188.552 273.484 196.431 270.019 202.288 264.113L204.184 264.521L212.088 307.393C212.415 309.164 213.33 310.772 214.684 311.958C216.039 313.144 217.754 313.839 219.552 313.929L246.16 315.265H246.552C247.738 315.266 248.91 315.002 249.982 314.494C251.054 313.985 251.999 313.245 252.75 312.326C253.5 311.407 254.037 310.332 254.321 309.181C254.605 308.029 254.629 306.828 254.392 305.665L247.936 273.921L294.736 284.001C295.903 284.253 297.112 284.241 298.274 283.965C299.436 283.688 300.521 283.156 301.45 282.405C302.379 281.655 303.129 280.706 303.643 279.629C304.158 278.551 304.425 277.372 304.424 276.177V197.673C304.424 196.421 304.131 195.187 303.567 194.069C303.003 192.951 302.185 191.981 301.178 191.237C300.171 190.494 299.003 189.996 297.769 189.786C296.535 189.575 295.269 189.657 294.072 190.025ZM163.784 237.225V246.497C162.994 246 162.343 245.31 161.892 244.494C161.44 243.677 161.202 242.759 161.2 241.825C161.202 240.901 161.441 239.992 161.893 239.186C162.345 238.379 162.996 237.71 163.784 237.225ZM188.712 255.225C185.973 256.712 182.9 257.474 179.784 257.441L180.248 225.841C183.209 226.192 186.079 227.09 188.712 228.489V255.201V255.225ZM236.712 298.777L226.72 298.273L221.176 268.177L223.736 268.721L230.936 270.265L236.712 298.777ZM288.464 266.289L239.736 255.817C239.608 255.817 239.496 255.705 239.36 255.673L221.24 251.833L204.752 248.289V234.209L288.464 208.497V266.289Z" fill="url(#paint5_linear_1802_638)"/>
<path d="M440.92 298.833L440.8 96.6328C440.8 94.5111 439.957 92.4762 438.457 90.976C436.957 89.4757 434.922 88.6328 432.8 88.6328H33C30.8783 88.6328 28.8434 89.4757 27.3431 90.976C25.8429 92.4762 25 94.5111 25 96.6328L25.32 415.353C25.32 417.475 26.1629 419.509 27.6631 421.01C29.1634 422.51 31.1983 423.353 33.32 423.353H290.92C297.059 438.073 306.566 451.147 318.676 461.525C330.786 471.903 345.162 479.296 360.648 483.109C376.134 486.922 392.299 487.049 407.843 483.479C423.387 479.91 437.877 472.744 450.149 462.557C462.42 452.37 472.131 439.446 478.5 424.825C484.869 410.203 487.72 394.291 486.822 378.367C485.925 362.444 481.304 346.953 473.332 333.14C465.36 319.327 454.258 307.576 440.92 298.833ZM424.8 104.641V120.081L41.048 120.953V104.641H424.8ZM41.312 407.361L41.04 136.961L424.8 136.081L424.92 290.001L424.728 289.937C422.208 288.865 419.496 288.081 416.848 287.201V151.601C416.848 149.479 416.005 147.444 414.505 145.944C413.005 144.444 410.97 143.601 408.848 143.601H58.44C56.3183 143.601 54.2834 144.444 52.7831 145.944C51.2829 147.444 50.44 149.479 50.44 151.601V348.641C50.44 350.763 51.2829 352.797 52.7831 354.298C54.2834 355.798 56.3183 356.641 58.44 356.641H286.68C283.172 368.944 282.104 381.815 283.536 394.529C283.64 395.545 283.792 396.553 283.928 397.561C284.288 400.257 284.728 402.921 285.344 405.561C285.472 406.153 285.52 406.753 285.656 407.345L41.312 407.361ZM377.384 282.129C376.528 282.193 375.688 282.321 374.84 282.401C373.184 282.569 371.52 282.721 369.888 282.961C368.904 283.105 367.952 283.313 366.976 283.489C365.496 283.745 364.008 283.993 362.544 284.289C361.52 284.521 360.52 284.809 359.504 285.089C358.12 285.441 356.744 285.785 355.384 286.193C354.344 286.505 353.328 286.865 352.304 287.217C351 287.649 349.696 288.081 348.416 288.569C347.384 288.961 346.368 289.369 345.352 289.833C344.12 290.345 342.888 290.857 341.68 291.433C340.656 291.905 339.656 292.425 338.648 292.937C337.488 293.529 336.328 294.121 335.192 294.753C334.184 295.313 333.208 295.905 332.224 296.497C331.24 297.089 330.04 297.817 328.976 298.521C327.912 299.225 327.032 299.841 326.072 300.513C325.112 301.185 324.04 301.961 323.048 302.721C322.056 303.481 321.168 304.193 320.248 304.953C319.328 305.713 318.36 306.553 317.44 307.353C316.52 308.153 315.632 308.953 314.744 309.833C313.856 310.713 313.016 311.505 312.168 312.369C311.32 313.233 310.448 314.161 309.608 315.081C308.768 316.001 308.008 316.857 307.208 317.769C306.408 318.681 305.608 319.713 304.808 320.705C304.008 321.697 303.368 322.593 302.664 323.553C301.96 324.513 301.168 325.625 300.448 326.697C299.728 327.769 299.144 328.689 298.512 329.705C297.88 330.721 297.16 331.889 296.512 333.009C295.864 334.129 295.336 335.153 294.768 336.209C294.2 337.265 293.584 338.465 293.024 339.625C292.864 339.961 292.672 340.281 292.512 340.625H66.44V159.601H400.84V283.057C400.24 282.961 399.616 282.929 399.008 282.841C398.28 282.745 397.544 282.673 396.816 282.593C392.895 282.117 388.95 281.866 385 281.841C382.44 281.841 379.904 281.945 377.384 282.129ZM385 469.921C367.223 469.92 349.882 464.416 335.359 454.164C320.835 443.912 309.842 429.415 303.888 412.665C298.679 397.923 297.581 382.042 300.711 366.724C303.842 351.406 311.083 337.229 321.658 325.713C332.233 314.198 345.743 305.778 360.74 301.357C375.736 296.935 391.653 296.68 406.784 300.617C410.697 301.673 414.535 302.991 418.272 304.561C421.903 306.088 425.421 307.871 428.8 309.897H428.856C445.067 319.511 457.671 334.183 464.732 351.657C471.793 369.132 472.918 388.442 467.936 406.619C462.954 424.796 452.139 440.833 437.155 452.266C422.171 463.698 403.847 469.892 385 469.897V469.921Z" fill="url(#paint6_linear_1802_638)"/>
<path d="M430.456 343.497C428.334 343.497 426.299 344.34 424.799 345.84C423.299 347.34 422.456 349.375 422.456 351.497V370.577L387.88 343.633C386.698 342.713 385.281 342.144 383.792 341.99C382.302 341.836 380.8 342.102 379.454 342.76C378.109 343.418 376.975 344.44 376.182 345.71C375.389 346.98 374.968 348.447 374.968 349.945V367.465L344.384 343.633C343.202 342.713 341.785 342.144 340.296 341.99C338.806 341.836 337.304 342.102 335.958 342.76C334.613 343.418 333.479 344.44 332.686 345.71C331.893 346.98 331.472 348.447 331.472 349.945V417.817C331.472 419.315 331.894 420.783 332.688 422.053C333.482 423.324 334.617 424.345 335.964 425.002C337.31 425.659 338.814 425.925 340.304 425.769C341.794 425.613 343.21 425.042 344.392 424.121L374.968 400.241V417.841C374.968 419.339 375.39 420.807 376.184 422.077C376.978 423.348 378.113 424.369 379.46 425.026C380.806 425.683 382.31 425.949 383.8 425.793C385.29 425.637 386.706 425.066 387.888 424.145L422.456 397.153V416.001C422.456 418.123 423.299 420.157 424.799 421.658C426.299 423.158 428.334 424.001 430.456 424.001C432.577 424.001 434.612 423.158 436.113 421.658C437.613 420.157 438.456 418.123 438.456 416.001V351.497C438.456 349.375 437.613 347.34 436.113 345.84C434.612 344.34 432.577 343.497 430.456 343.497ZM347.472 401.417V366.321L369.96 383.849L347.472 401.417ZM390.968 401.417V366.321L413.464 383.849L390.968 401.417Z" fill="url(#paint7_linear_1802_638)"/>
<defs>
<linearGradient id="paint0_linear_1802_638" x1="47.8721" y1="107.609" x2="47.8721" y2="115.609" gradientUnits="userSpaceOnUse">
<stop stop-color="#F2CB32"/>
<stop offset="1" stop-color="#175C97"/>
</linearGradient>
<linearGradient id="paint1_linear_1802_638" x1="62.4805" y1="107.609" x2="62.4805" y2="115.609" gradientUnits="userSpaceOnUse">
<stop stop-color="#F2CB32"/>
<stop offset="1" stop-color="#175C97"/>
</linearGradient>
<linearGradient id="paint2_linear_1802_638" x1="77.0957" y1="107.609" x2="77.0957" y2="115.609" gradientUnits="userSpaceOnUse">
<stop stop-color="#F2CB32"/>
<stop offset="1" stop-color="#175C97"/>
</linearGradient>
<linearGradient id="paint3_linear_1802_638" x1="84.8524" y1="364.064" x2="84.8524" y2="380.064" gradientUnits="userSpaceOnUse">
<stop stop-color="#F2CB32"/>
<stop offset="1" stop-color="#175C97"/>
</linearGradient>
<linearGradient id="paint4_linear_1802_638" x1="133.516" y1="382.793" x2="133.516" y2="398.793" gradientUnits="userSpaceOnUse">
<stop stop-color="#F2CB32"/>
<stop offset="1" stop-color="#175C97"/>
</linearGradient>
<linearGradient id="paint5_linear_1802_638" x1="224.816" y1="189.672" x2="224.816" y2="315.265" gradientUnits="userSpaceOnUse">
<stop stop-color="#F2CB32"/>
<stop offset="1" stop-color="#175C97"/>
</linearGradient>
<linearGradient id="paint6_linear_1802_638" x1="255.992" y1="88.6328" x2="255.992" y2="486.066" gradientUnits="userSpaceOnUse">
<stop stop-color="#F2CB32"/>
<stop offset="1" stop-color="#175C97"/>
</linearGradient>
<linearGradient id="paint7_linear_1802_638" x1="384.964" y1="341.947" x2="384.964" y2="425.837" gradientUnits="userSpaceOnUse">
<stop stop-color="#F2CB32"/>
<stop offset="1" stop-color="#175C97"/>
</linearGradient>
</defs>
</svg>
