<svg width="512" height="512" viewBox="0 0 512 512" fill="none" xmlns="http://www.w3.org/2000/svg">
<path fill-rule="evenodd" clip-rule="evenodd" d="M317.317 345.854L307.734 329.255C294.2 305.812 297.255 294.008 300.264 282.385C302.38 274.211 304.464 266.159 295.22 250.147C286.885 235.71 272.135 226.748 256.018 225.545L281.204 250.731C283.404 252.931 284.054 256.093 283.156 258.863L274.666 290.548C273.892 293.444 271.622 295.541 268.909 296.231L236.912 304.804C234.057 305.567 231.15 304.683 229.199 302.735L229.193 302.741L202.852 276.4C203.086 284.467 205.277 292.442 209.451 299.672C218.7 315.691 226.704 317.909 234.829 320.16C246.411 323.369 258.171 326.628 271.703 350.065L278.794 362.378C292.827 359.384 305.859 353.687 317.317 345.854ZM75.944 247.986V168.272H69.078V247.986H75.944ZM91.943 168.272V247.986H98.808V168.272H91.943ZM90.823 119L113.493 155.877C114.324 157.138 114.808 158.649 114.808 160.272V247.986H139.215C143.633 247.986 147.215 251.568 147.215 255.986C147.215 318.249 199.372 367.846 261.693 364.623L257.888 358.063C247.605 340.252 239.026 337.874 230.577 335.534C219.271 332.401 208.132 329.314 195.636 307.671C191.105 299.823 188.38 291.448 187.333 283.022C186.269 274.463 186.935 265.817 189.196 257.592C190.812 250.945 198.46 249.384 202.677 253.601L237.247 288.17L260.423 281.96L266.633 258.784L232.657 224.808L232.664 224.801C228.33 220.476 230.295 212.928 236.376 211.402C264.563 204.329 294.33 216.743 309.033 242.209C321.533 263.86 318.639 275.038 315.702 286.385C313.502 294.883 311.269 303.513 321.548 321.317L329.913 335.806C351.435 315.872 364.786 287.434 364.786 255.986C364.786 251.568 368.368 247.986 372.786 247.986H486C490.418 247.986 494 251.568 494 255.986V293.5C494 297.918 490.418 301.5 486 301.5H456.006C450.874 324.121 441.878 345.752 429.609 365.231L450.817 386.439C453.941 389.563 453.941 394.628 450.817 397.752L397.765 450.804C394.641 453.928 389.576 453.928 386.452 450.804L365.244 429.596C345.767 441.865 324.133 450.862 301.513 455.993V485.987C301.513 490.405 297.931 493.987 293.513 493.987H218.486C214.068 493.987 210.486 490.405 210.486 485.987V455.993C187.866 450.862 166.234 441.864 146.756 429.596L125.548 450.805C122.424 453.929 117.359 453.929 114.235 450.805L61.183 397.753C58.059 394.629 58.059 389.564 61.183 386.44L82.391 365.232C70.122 345.755 61.125 324.121 55.994 301.501H26C21.582 301.501 18 297.919 18 293.501V255.988C18 251.57 21.582 247.988 26 247.988H53.078V160.274C53.078 158.656 53.528 157.239 54.393 155.879L77.131 118.893C80.308 113.723 87.797 113.886 90.823 119ZM88.563 145.863L83.943 138.348L75.382 152.273H92.503L88.563 145.863ZM424.696 66.6079C428.371 67.3309 431.144 70.5699 431.144 74.4569V143.509L442.384 152.696C444.314 154.275 445.315 156.57 445.316 158.884H445.321V227.215C445.321 233.879 437.485 237.838 432.044 233.227L423.113 225.928L413.996 233.34C408.725 237.625 400.986 233.668 400.99 227.153H400.965V158.822C400.965 156.089 402.336 153.677 404.427 152.234L415.143 143.522V85.0769L382.61 94.5119V168.893H382.585C382.589 172.607 379.984 175.935 376.204 176.706L257.763 200.907C256.692 201.15 255.553 201.175 254.406 200.942L136.435 176.837C132.468 176.364 129.391 172.989 129.391 168.894V94.6979L87.024 82.4779C78.832 80.3259 79.029 69.2759 86.64 67.0639L253.696 18.3559C255.121 17.9239 256.683 17.8849 258.22 18.3309L424.696 66.6079ZM416.965 162.595V210.37L417.669 209.797C420.549 207.087 425.061 206.867 428.204 209.438L429.321 210.35V162.67L423.113 157.597L416.965 162.595ZM145.391 162.389L256 184.99L366.611 162.389V99.1519L258.22 130.585C256.59 131.057 254.93 130.985 253.437 130.476L145.391 99.3129V162.389ZM371.721 81.0709C372.149 80.9049 372.595 80.7749 373.055 80.6839L394.524 74.4579L256.007 34.2879L117.462 74.6829L255.979 114.635L371.721 81.0709ZM478 285.5H449.525C445.462 285.5 442.107 288.529 441.594 292.451C439.157 304.936 435.508 316.956 430.775 328.381C425.912 340.12 419.853 351.32 412.742 361.833C410.566 365.059 411.06 369.303 413.716 371.953L413.711 371.958L433.849 392.095L392.109 433.835L371.972 413.697C369.128 410.853 364.675 410.599 361.542 412.934C351.12 419.956 340.024 425.944 328.4 430.76C316.836 435.55 304.662 439.23 292.014 441.668C288.186 442.4 285.523 445.752 285.527 449.512H285.514V477.987H226.487V449.512C226.487 445.449 223.458 442.094 219.536 441.58C207.051 439.143 195.031 435.494 183.606 430.762C171.867 425.899 160.667 419.84 150.154 412.729C146.928 410.553 142.684 411.047 140.034 413.703L140.029 413.698L119.892 433.836L78.152 392.096L98.29 371.959C101.134 369.115 101.388 364.662 99.053 361.529C92.031 351.107 86.043 340.011 81.227 328.387C76.436 316.823 72.756 304.649 70.319 292.001C69.587 288.173 66.235 285.51 62.475 285.514V285.5H34V263.986H131.469C135.605 329.366 189.965 380.77 256 380.77C322.035 380.77 376.394 329.365 380.532 263.986H478V285.5Z" fill="black"/>
</svg>
