<svg width="512" height="512" viewBox="0 0 512 512" fill="none" xmlns="http://www.w3.org/2000/svg">
<path d="M192 304C214.056 304 232 286.056 232 264V240V224V216C232 202.768 221.232 192 208 192H160C155.584 192 152 195.576 152 200V224V240V264C152 286.056 169.944 304 192 304ZM192 288C182.056 288 173.512 281.92 169.872 273.28C176.216 277.512 183.816 280 192 280C200.184 280 207.784 277.512 214.128 273.28C210.496 281.92 201.944 288 192 288ZM216 240C216 253.232 205.232 264 192 264C178.768 264 168 253.232 168 240V232H216V240ZM208 208C212.408 208 216 211.584 216 216H168V208H208Z" fill="black"/>
<path d="M197.68 378.32C194.64 375.36 189.36 375.36 186.32 378.32C185.6 379.12 185.04 379.92 184.64 380.96C184.24 381.92 184 382.96 184 384C184 386.16 184.8 388.16 186.32 389.68C187.84 391.192 189.84 392 192 392C193.04 392 194.08 391.76 195.04 391.36C196 390.96 196.88 390.4 197.68 389.68C199.2 388.16 200 386.16 200 384C200 382.96 199.76 381.92 199.36 380.96C198.96 379.92 198.4 379.12 197.68 378.32Z" fill="black"/>
<path d="M197.68 410.32C196.88 409.6 196.08 409.04 195.04 408.64C194.56 408.4 194.08 408.24 193.6 408.152C192 407.832 190.4 407.992 188.96 408.64C187.92 409.04 187.12 409.6 186.32 410.32C184.88 411.832 184 413.92 184 416C184 418.16 184.8 420.16 186.32 421.68C187.84 423.192 189.84 424 192 424C194.16 424 196.16 423.192 197.68 421.68C199.2 420.16 200 418.16 200 416C200 414.96 199.76 413.92 199.36 412.96C198.96 412 198.4 411.12 197.68 410.32Z" fill="black"/>
<path d="M64 432H48V416C48 411.576 44.416 408 40 408C35.584 408 32 411.576 32 416V440C32 444.424 35.584 448 40 448H64C68.416 448 72 444.424 72 440C72 435.576 68.416 432 64 432Z" fill="black"/>
<path d="M40 184C44.416 184 48 180.424 48 176V160H64C68.416 160 72 156.424 72 152C72 147.576 68.416 144 64 144H40C35.584 144 32 147.576 32 152V176C32 180.424 35.584 184 40 184Z" fill="black"/>
<path d="M472 112H348.944L331.432 76.968C338.88 72.896 344 65.072 344 56V40C344 26.768 333.232 16 320 16H288H224H192C178.768 16 168 26.768 168 40V56C168 65.072 173.12 72.896 180.568 76.968L163.056 112H128V88C128 83.576 124.416 80 120 80H72C67.584 80 64 83.576 64 88V112H40C17.944 112 0 129.944 0 152V440C0 462.056 17.944 480 40 480H177.656C201.728 490.288 228.208 496 256 496C283.792 496 310.272 490.288 334.344 480H472C494.056 480 512 462.056 512 440V152C512 129.944 494.056 112 472 112ZM181.776 110.336L196.944 80H224C228.416 80 232 76.424 232 72V32H280V72C280 76.424 283.584 80 288 80H315.056L330.224 110.336C307.256 101.128 282.224 96 256 96C229.776 96 204.744 101.128 181.776 110.336ZM328 40V56C328 60.416 324.408 64 320 64H296V32H320C324.408 32 328 35.584 328 40ZM184 40C184 35.584 187.592 32 192 32H216V64H192C187.592 64 184 60.416 184 56V40ZM80 96H112V112H80V96ZM40 464C26.768 464 16 453.232 16 440V152C16 138.768 26.768 128 40 128H147.688C92.576 163.656 56 225.616 56 296C56 366.384 92.576 428.344 147.688 464H40ZM72 296C72 194.536 154.544 112 256 112C357.456 112 440 194.536 440 296C440 397.464 357.456 480 256 480C154.544 480 72 397.464 72 296ZM496 440C496 453.232 485.232 464 472 464H364.312C419.424 428.344 456 366.384 456 296C456 225.616 419.424 163.656 364.312 128H472C485.232 128 496 138.768 496 152V440Z" fill="black"/>
<path d="M472 144H448C443.584 144 440 147.576 440 152C440 156.424 443.584 160 448 160H464V176C464 180.424 467.584 184 472 184C476.416 184 480 180.424 480 176V152C480 147.576 476.416 144 472 144Z" fill="black"/>
<path d="M472 408C467.584 408 464 411.576 464 416V432H448C443.584 432 440 435.576 440 440C440 444.424 443.584 448 448 448H472C476.416 448 480 444.424 480 440V416C480 411.576 476.416 408 472 408Z" fill="black"/>
<path d="M432 296C432 198.952 353.048 120 256 120C158.952 120 80 198.952 80 296C80 337.52 94.88 377.912 121.904 409.736C155.52 449.304 204.392 472 256 472C266.976 472 278.256 470.888 289.512 468.712C313.696 464.024 336.264 454.44 356.584 440.224C369.04 431.504 380.312 421.248 390.096 409.728C417.12 377.912 432 337.528 432 296ZM256 136C344.224 136 416 207.776 416 296C416 325.672 407.52 354.648 392 379.768V344C392 333.176 384.752 324.104 374.88 321.128L359.872 238.576C359.872 238.552 359.856 238.544 359.848 238.52C359.048 217.16 341.544 200 320 200C298.456 200 280.952 217.16 280.152 238.512C280.152 238.536 280.136 238.544 280.128 238.568L265.12 321.128C261.696 322.16 258.6 323.904 256 326.248C251.744 322.408 246.168 320.008 240 320.008H144C130.768 320.008 120 330.776 120 344.008V379.784C104.48 354.664 96 325.688 96 296.008C96 207.776 167.776 136 256 136ZM320 240.248L344 246.24V264C344 277.232 333.232 288 320 288C306.768 288 296 277.232 296 264V246.248L320 240.248ZM298.624 229.104C302.6 221.328 310.688 216 320 216C329.312 216 337.4 221.328 341.376 229.104L321.936 224.248C321.304 224.08 320.656 224 320 224C319.344 224 318.696 224.08 318.056 224.24L298.624 229.104ZM287.528 287.328C294.792 297.424 306.648 304 320 304C333.352 304 345.208 297.424 352.472 287.328L358.416 320H281.584L287.528 287.328ZM213.752 352H208L212.32 346.248L213.752 352ZM192 346.672L184 336H200L192 346.672ZM176 352H170.248L171.688 346.248L176 352ZM136 401.568V344C136 339.584 139.592 336 144 336H157.752L152.24 358.064C151.64 360.456 152.184 362.984 153.696 364.92C155.208 366.864 157.536 368 160 368H192H224C226.464 368 228.792 366.864 230.304 364.92C231.816 362.984 232.36 360.448 231.76 358.064L226.248 336H240C244.408 336 248 339.584 248 344V455.8C205.032 453.64 164.72 434.176 136 401.568ZM347.976 404.648C345.512 406.088 344 408.72 344 411.56V429.248C329.168 439.088 313.072 446.216 296 450.632V411.56C296 408.72 294.488 406.08 292.024 404.648C284.496 400.264 280 392.544 280 384C280 370.768 290.768 360 304 360C308.128 360 312.16 361.128 315.976 363.352C318.464 364.808 321.544 364.808 324.032 363.352C327.84 361.128 331.872 360 336 360C349.232 360 360 370.768 360 384C360 392.544 355.504 400.264 347.976 404.648ZM376 384V401.568C371.048 407.184 365.696 412.464 360 417.352V415.84C369.968 408.32 376 396.504 376 384C376 361.944 358.056 344 336 344C330.472 344 325.112 345.16 320 347.456C314.888 345.16 309.528 344 304 344C281.944 344 264 361.944 264 384C264 396.504 270.032 408.32 280 415.832V454.128C274.624 454.952 269.296 455.4 264 455.68V384V344C264 339.584 267.592 336 272 336H368C372.408 336 376 339.584 376 344V384Z" fill="black"/>
<path d="M477.68 378.32C474.64 375.36 469.36 375.36 466.32 378.32C465.6 379.12 465.04 379.92 464.64 380.96C464.24 381.92 464 382.96 464 384C464 386.16 464.8 388.16 466.32 389.68C467.12 390.4 468 390.96 468.96 391.36C469.92 391.76 470.96 392 472 392C474.16 392 476.16 391.192 477.68 389.68C479.2 388.16 480 386.16 480 384C480 382.96 479.84 381.92 479.36 380.96C478.96 380 478.4 379.12 477.68 378.32Z" fill="black"/>
<path d="M36.96 391.36C37.92 391.76 38.96 392 40 392C42.16 392 44.16 391.192 45.68 389.68C47.2 388.16 48 386.16 48 384C48 382.96 47.76 381.92 47.36 380.96C46.96 380 46.4 379.12 45.68 378.32C42.64 375.36 37.36 375.36 34.32 378.32C33.6 379.12 33.04 380 32.64 380.96C32.16 381.92 32 382.96 32 384C32 386.16 32.8 388.16 34.32 389.68C35.12 390.4 36 390.96 36.96 391.36Z" fill="black"/>
<path d="M477.68 202.32C476.88 201.6 476.08 201.04 475.04 200.64C472.16 199.44 468.56 200.08 466.32 202.32C465.6 203.12 465.04 203.92 464.64 204.96C464.24 205.92 464 206.96 464 208C464 210.16 464.8 212.16 466.32 213.68C467.12 214.4 468 214.96 468.96 215.36C469.92 215.76 470.96 216 472 216C474.16 216 476.16 215.192 477.68 213.68C478.4 212.872 478.96 212 479.36 211.04C479.76 210.08 480 209.04 480 208C480 206.96 479.76 205.92 479.36 204.96C478.96 203.92 478.4 203.12 477.68 202.32Z" fill="black"/>
<path d="M36.96 215.359C37.92 215.759 38.96 215.999 40 215.999C42.16 215.999 44.16 215.191 45.68 213.679C46.4 212.871 46.96 211.999 47.36 211.039C47.76 210.079 48 209.039 48 207.999C48 206.959 47.76 205.919 47.36 204.959C46.96 203.999 46.4 203.119 45.68 202.319C44.88 201.599 44.08 201.039 43.04 200.639C41.12 199.831 38.88 199.831 36.96 200.639C36 201.039 35.12 201.599 34.32 202.319C33.6 203.119 33.04 203.919 32.64 204.959C32.24 205.919 32 206.959 32 207.999C32 210.159 32.8 212.159 34.32 213.679C35.12 214.399 36 214.959 36.96 215.359Z" fill="black"/>
</svg>
