<?xml version="1.0" encoding="UTF-8"?> <svg xmlns="http://www.w3.org/2000/svg" width="240" height="140" viewBox="0 0 240 140" fill="none"> <rect width="240" height="140" fill="white"></rect> <g clip-path="url(#clip0_615_412)"> <path d="M56.9517 57.3832C57.9172 56.8723 59.3863 56.8723 60.3518 57.3832L70.2036 62.5963C70.7851 62.904 71.1045 63.3625 71.1617 63.8358H71.1711V90.04C71.1583 90.5562 70.8359 91.0691 70.2036 91.4038L60.3518 96.6169C59.3863 97.1278 57.9172 97.1278 56.9517 96.6169L47.0998 91.4038C46.4702 91.0706 46.1681 90.5541 46.1531 90.04C46.1516 89.9894 46.1514 89.9472 46.1529 89.9122L46.1528 64.0042C46.1518 63.9758 46.1517 63.9474 46.1525 63.9192L46.1531 63.8358L46.1575 63.8358C46.2013 63.3573 46.5061 62.9105 47.0998 62.5963L56.9517 57.3832ZM69.6201 78.455L60.3518 83.3594C59.3863 83.8703 57.9172 83.8703 56.9517 83.3594L47.7036 78.4659V89.9881L56.9517 94.8559C57.4739 95.1356 58.0159 95.4081 58.5459 95.4428L58.6517 95.4462C59.204 95.4481 59.7402 95.1672 60.2838 94.9012L69.6201 89.9463V78.455ZM44.5507 89.4703C44.5507 90.4741 44.6672 91.1341 44.8984 91.5991C45.0901 91.9844 45.3777 92.2788 45.9028 92.6372L45.9328 92.6575C46.048 92.7353 46.175 92.8169 46.3295 92.9125L46.5117 93.0244L47.0713 93.3628L46.2687 94.6922L45.6424 94.3131L45.5371 94.2484C45.356 94.1362 45.2059 94.0403 45.0659 93.9456C43.5693 92.9347 43.0112 91.8328 43.0002 89.54L43 89.4703H44.5507ZM57.8762 71.4315C57.8044 71.4562 57.7372 71.4847 57.6759 71.5172L47.8241 76.7303C47.8137 76.7358 47.8039 76.7412 47.7945 76.7466L47.7861 76.7514L47.8016 76.7603L47.8241 76.7725L57.6759 81.9857C57.7372 82.0181 57.8044 82.0467 57.8762 82.0713V71.4315ZM59.4273 71.4315V82.0713C59.499 82.0467 59.5663 82.0181 59.6275 81.9857L69.4794 76.7725C69.4898 76.767 69.4996 76.7616 69.509 76.7563L69.5174 76.7514L69.5019 76.7426L69.4794 76.7303L59.6275 71.5172C59.5663 71.4847 59.499 71.4562 59.4273 71.4315ZM69.6201 65.6947L60.7824 70.3712L69.6201 75.0478V65.6947ZM47.7036 65.7056V75.0369L56.5208 70.3712L47.7036 65.7056ZM59.6275 58.7569C59.1152 58.4858 58.1883 58.4858 57.6759 58.7569L47.8241 63.9701C47.8137 63.9756 47.8039 63.981 47.7945 63.9863L47.7861 63.9912L47.8016 64.0001L47.8241 64.0123L57.6759 69.2255C58.1883 69.4966 59.1152 69.4966 59.6275 69.2255L69.4794 64.0123C69.4898 64.0068 69.4996 64.0014 69.509 63.996L69.5174 63.9912L69.5019 63.9823L69.4794 63.9701L59.6275 58.7569ZM71.0761 59.3286L71.7025 59.7076L71.8077 59.7723C71.9888 59.8843 72.1389 59.9805 72.2789 60.0751C73.7755 61.0859 74.3337 62.188 74.3445 64.4807L74.3448 64.5505H72.7941C72.7941 63.5465 72.6777 62.8866 72.4464 62.4217C72.2547 62.0364 71.9672 61.7419 71.442 61.3836L71.4121 61.3633C71.2968 61.2854 71.1699 61.2039 71.0154 61.1081L70.8331 60.9963L70.2735 60.6579L71.0761 59.3286Z" fill="#13B5EC"></path> <path d="M90.0978 88.9475V74.3339H94.1224V71.6582H90.0978V69.7372C90.0978 67.5646 91.0416 66.4783 92.9288 66.4783C93.4744 66.4783 94.0544 66.5698 94.6683 66.7527V63.9055C93.9179 63.6768 93.088 63.5625 92.1784 63.5625C90.4277 63.5625 89.069 64.0656 88.1026 65.0719C87.1362 66.0781 86.653 67.5418 86.653 69.4628V71.6582H83.3447V74.3339H86.653V88.9475H90.0978ZM104.082 89.1875C105.401 89.1875 106.554 88.9131 107.544 88.3641C108.533 87.8153 109.277 87.0263 109.778 85.9972V88.9475H113.188V71.6582H109.778V74.4711C109.254 73.442 108.504 72.6473 107.526 72.087C106.549 71.5267 105.401 71.2466 104.082 71.2466C102.604 71.2466 101.285 71.6239 100.125 72.3786C98.9656 73.1333 98.0619 74.1967 97.4139 75.5688C96.7659 76.941 96.4419 78.519 96.4419 80.3028C96.4419 82.0866 96.76 83.6474 97.3968 84.9853C98.0333 86.3231 98.9259 87.358 100.074 88.0898C101.222 88.8216 102.558 89.1875 104.082 89.1875ZM104.9 86.4432C103.331 86.4432 102.109 85.9057 101.234 84.8309C100.358 83.7561 99.9206 82.2467 99.9206 80.3028C99.9206 78.336 100.358 76.7981 101.234 75.6889C102.109 74.5797 103.32 74.0252 104.866 74.0252C106.435 74.0252 107.646 74.5626 108.498 75.6375C109.351 76.7123 109.778 78.2446 109.778 80.2342C109.778 82.2009 109.351 83.7275 108.498 84.8137C107.646 85.9 106.446 86.4432 104.9 86.4432ZM121.647 88.9475V79.1022C121.647 77.5699 122.084 76.3464 122.96 75.4317C123.835 74.5169 125.001 74.0595 126.456 74.0595C127.729 74.0595 128.656 74.4025 129.236 75.0886C129.815 75.7747 130.105 76.8724 130.105 78.3818V88.9475H133.55V78.176C133.55 73.5564 131.492 71.2466 127.377 71.2466C126.058 71.2466 124.881 71.5382 123.847 72.1213C122.812 72.7045 122.022 73.5449 121.476 74.6427L121.169 71.6582H117.963C118.145 73.099 118.236 74.7227 118.236 76.5294V88.9475H121.647ZM145.078 89.1875C146.033 89.1875 146.886 89.0619 147.636 88.8103V85.9972C147.022 86.1802 146.42 86.2717 145.829 86.2717C144.919 86.2717 144.209 86.0258 143.697 85.5341C143.185 85.0424 142.929 84.202 142.929 83.0128V74.3339H147.671V71.6582H142.929V66.1353L139.485 67.3359V71.6582H136.142V74.3339H139.485V83.2872C139.485 85.2083 139.974 86.6719 140.951 87.6781C141.929 88.6844 143.305 89.1875 145.078 89.1875ZM158.244 89.1875C159.903 89.1875 161.37 88.8216 162.643 88.0898C163.917 87.358 164.9 86.3174 165.594 84.9681C166.287 83.6188 166.634 82.0408 166.634 80.2342C166.634 78.4275 166.287 76.8438 165.594 75.4831C164.9 74.1224 163.917 73.0761 162.643 72.3443C161.37 71.6125 159.903 71.2466 158.244 71.2466C156.561 71.2466 155.083 71.6125 153.81 72.3443C152.536 73.0761 151.553 74.1224 150.859 75.4831C150.166 76.8438 149.819 78.4275 149.819 80.2342C149.819 82.0408 150.166 83.6188 150.859 84.9681C151.553 86.3174 152.536 87.358 153.81 88.0898C155.083 88.8216 156.561 89.1875 158.244 89.1875ZM158.21 86.4432C156.64 86.4432 155.43 85.9172 154.577 84.8652C153.724 83.8132 153.298 82.2696 153.298 80.2342C153.298 78.2446 153.73 76.7123 154.594 75.6375C155.458 74.5626 156.675 74.0252 158.244 74.0252C159.79 74.0252 160.989 74.5626 161.842 75.6375C162.695 76.7123 163.121 78.2446 163.121 80.2342C163.121 82.2696 162.7 83.8132 161.859 84.8652C161.018 85.9172 159.801 86.4432 158.21 86.4432ZM174.069 88.9475V79.1708C174.069 77.5928 174.456 76.3464 175.229 75.4317C176.002 74.5169 177.048 74.0595 178.367 74.0595C179.504 74.0595 180.328 74.4025 180.839 75.0886C181.351 75.7747 181.607 76.861 181.607 78.3475V88.9475H185.052V79.1708C185.052 77.5928 185.432 76.3464 186.194 75.4317C186.956 74.5169 187.996 74.0595 189.315 74.0595C190.452 74.0595 191.276 74.4025 191.788 75.0886C192.299 75.7747 192.555 76.861 192.555 78.3475V88.9475H196V78.176C196 73.5564 194.09 71.2466 190.27 71.2466C188.997 71.2466 187.854 71.5439 186.842 72.1385C185.83 72.7331 185.063 73.5449 184.54 74.574C183.721 72.3557 181.982 71.2466 179.322 71.2466C178.071 71.2466 176.979 71.5324 176.047 72.1042C175.115 72.6759 174.399 73.4878 173.899 74.5398L173.592 71.6582H170.386C170.567 73.099 170.658 74.7227 170.658 76.5294V88.9475H174.069Z" fill="#13B5EC"></path> </g> <defs> <clipPath id="clip0_615_412"> <rect width="153" height="40" fill="white" transform="translate(43 57)"></rect> </clipPath> </defs> </svg> 