<?xml version="1.0" encoding="UTF-8"?>
<svg xmlns="http://www.w3.org/2000/svg" width="103" height="103" viewBox="0 0 103 103" fill="none">
  <path d="M24.137 47.9178L51.5 63.7159L51.5 95.3119L26.1104 80.6533C25.0205 80.024 24.137 78.4937 24.137 77.2352L24.137 47.9178Z" fill="#2D264B"></path>
  <path d="M24.137 47.9178L51.5 63.7159L51.5 95.3119L26.1104 80.6533C25.0205 80.024 24.137 78.4937 24.137 77.2352L24.137 47.9178Z" fill="url(#paint0_linear_90_41565)"></path>
  <path opacity="0.3" d="M31.4651 62.4062C31.4651 61.777 31.9069 61.5219 32.4519 61.8365L43.1851 68.0334C43.73 68.348 44.1718 69.1132 44.1718 69.7424L44.1718 77.8118C44.1718 78.4411 43.73 78.6961 43.1851 78.3815L32.4519 72.1847C31.9069 71.87 31.4651 71.1049 31.4651 70.4756L31.4651 62.4062Z" fill="#434C62"></path>
  <path d="M78.8629 47.9178L51.4999 63.7159L51.4999 95.3119L76.8895 80.6533C77.9794 80.024 78.8629 78.4937 78.8629 77.2352L78.8629 47.9178Z" fill="#FF8B20"></path>
  <path opacity="0.3" d="M67.428 62.4062C67.428 61.777 66.9862 61.5219 66.4413 61.8365L56.9089 67.34C56.364 67.6546 55.9222 68.4198 55.9222 69.0491L55.9222 70.5977C55.9222 71.227 56.364 71.482 56.9089 71.1674L66.4413 65.6639C66.9862 65.3493 67.428 64.5841 67.428 63.9549L67.428 62.4062Z" fill="#434C62"></path>
  <path opacity="0.3" d="M63.7016 70.9508C63.7016 70.3215 63.2598 70.0665 62.7149 70.3811L56.9089 73.7332C56.364 74.0478 55.9222 74.8129 55.9222 75.4422L55.9222 76.9909C55.9222 77.6201 56.364 77.8752 56.9089 77.5605L62.7149 74.2085C63.2598 73.8938 63.7016 73.1287 63.7016 72.4994L63.7016 70.9508Z" fill="#434C62"></path>
  <path opacity="0.3" d="M60.2967 78.9433C60.2967 78.3141 59.8549 78.059 59.3099 78.3736L56.9089 79.7599C56.364 80.0745 55.9222 80.8397 55.9222 81.4689L55.9222 83.0176C55.9222 83.6468 56.364 83.9019 56.9089 83.5873L59.3099 82.201C59.8549 81.8864 60.2967 81.1212 60.2967 80.492L60.2967 78.9433Z" fill="#434C62"></path>
  <rect width="31.596" height="31.596" transform="matrix(-0.866025 -0.5 -0.866025 0.5 78.863 47.9178)" fill="#FFCA41"></rect>
  <path opacity="0.6" d="M78.863 47.9178L51.5 32.1198L63.356 19.6995L90.7189 35.4975L78.863 47.9178Z" fill="#FFCA41"></path>
  <path d="M24.137 47.9178L51.5 32.1198L39.644 19.6995L12.2811 35.4975L24.137 47.9178Z" fill="url(#paint1_linear_90_41565)"></path>
  <path d="M78.863 47.9179L85.8439 2.46899H17.2688L24.137 47.9179L51.5 63.716L78.863 47.9179Z" fill="url(#paint2_linear_90_41565)"></path>
  <defs>
    <linearGradient id="paint0_linear_90_41565" x1="37.8185" y1="55.8169" x2="24.137" y2="79.5139" gradientUnits="userSpaceOnUse">
      <stop stop-color="#FF8B20"></stop>
      <stop offset="1" stop-color="#FDB572"></stop>
    </linearGradient>
    <linearGradient id="paint1_linear_90_41565" x1="11.7658" y1="38.1202" x2="32.9816" y2="10.0509" gradientUnits="userSpaceOnUse">
      <stop stop-color="#FFCA41"></stop>
      <stop offset="1" stop-color="#FFDA7A"></stop>
    </linearGradient>
    <linearGradient id="paint2_linear_90_41565" x1="51.5564" y1="2.46899" x2="51.5564" y2="63.716" gradientUnits="userSpaceOnUse">
      <stop stop-color="white" stop-opacity="0"></stop>
      <stop offset="1" stop-color="white"></stop>
    </linearGradient>
  </defs>
</svg>
