<?xml version="1.0" encoding="UTF-8"?>
<svg xmlns="http://www.w3.org/2000/svg" width="39" height="38" viewBox="0 0 39 38" fill="none">
  <path d="M31.22 0.88C30.2 0.46 28.85 0.25 27.17 0.25H11.33C6.11 0.25 4.25 2.11 4.25 7.39V30.61C4.25 32.35 4.46 33.7 4.91 34.75C5.84 36.91 7.82 37.75 11.33 37.75H27.17C32.39 37.75 34.25 35.86 34.25 30.61V7.39C34.25 3.82 33.41 1.81 31.22 0.88ZM22.25 31H16.25C16.19 31 16.1 31 16.04 30.97C15.59 30.94 15.2 30.79 14.87 30.49C14.33 30.1 14 29.47 14 28.75C14 27.52 15.02 26.5 16.25 26.5H22.25C23.48 26.5 24.5 27.52 24.5 28.75C24.5 29.98 23.48 31 22.25 31Z" fill="#161B26"></path>
</svg>
