<?xml version="1.0" encoding="UTF-8"?>
<svg xmlns="http://www.w3.org/2000/svg" width="39" height="38" viewBox="0 0 39 38" fill="none">
  <path fill-rule="evenodd" clip-rule="evenodd" d="M11.6731 2.1204C13.6758 1.90342 16.2002 1.90343 19.4205 1.90344H19.5792C22.7995 1.90343 25.3239 1.90342 27.3266 2.1204C29.3703 2.34183 31.0263 2.8018 32.4402 3.82904C33.2961 4.45093 34.0489 5.20367 34.6708 6.05963C35.698 7.47351 36.158 9.12947 36.3794 11.1732C36.5964 13.1759 36.5964 15.7003 36.5964 18.9206V19.0104C36.5964 20.6488 36.5964 22.1005 36.5698 23.3846C36.4916 27.1618 36.1961 29.8409 34.6708 31.9403C34.0489 32.7963 33.2961 33.549 32.4402 34.1709C31.0263 35.1981 29.3703 35.6581 27.3266 35.8795C25.3239 36.0965 22.7996 36.0965 19.5794 36.0965H19.4205C16.2002 36.0965 13.6758 36.0965 11.6731 35.8795C9.62934 35.6581 7.97338 35.1981 6.5595 34.1709C5.73461 33.5716 5.00558 32.8507 4.39714 32.0331C4.37423 32.0023 4.35148 31.9714 4.32892 31.9403C3.30168 30.5264 2.8417 28.8705 2.62028 26.8267C2.40329 24.824 2.40331 22.2997 2.40332 19.0793V18.9206C2.40331 15.7003 2.4033 13.1759 2.62028 11.1732C2.8417 9.12947 3.30168 7.47351 4.32892 6.05963C4.95081 5.20367 5.70355 4.45093 6.5595 3.82904C7.97339 2.8018 9.62934 2.34183 11.6731 2.1204ZM33.9579 22.0715L33.8474 21.9648C33.3635 21.4999 33.006 21.1854 32.6696 20.9466C28.9018 18.2714 23.7044 18.9798 20.79 22.5659C20.438 22.999 20.0857 23.5761 19.5318 24.5448L18.6231 24.2604C16.5268 23.8412 15.4786 23.6315 14.5166 23.652C11.942 23.7066 9.52171 24.8904 7.89795 26.889C7.35665 27.5553 6.91779 28.3881 6.15055 29.9177C6.24518 30.0851 6.34712 30.2433 6.45683 30.3943L6.50725 30.4629C6.95697 31.0672 7.49582 31.6 8.10552 32.043C8.9963 32.6902 10.1364 33.0674 11.9564 33.2646C13.801 33.4645 16.183 33.4663 19.4998 33.4663C22.8167 33.4663 25.1987 33.4645 27.0433 33.2646C28.8632 33.0674 30.0034 32.6902 30.8942 32.043C31.5268 31.5833 32.0832 31.027 32.5429 30.3943C33.5278 29.0387 33.8609 27.1583 33.9401 23.3302C33.9484 22.9288 33.9541 22.5098 33.9579 22.0715ZM17.7464 17.2465C15.8095 17.2465 14.2394 15.6764 14.2394 13.7395C14.2394 11.8026 15.8095 10.2325 17.7464 10.2325C19.6832 10.2325 21.2533 11.8026 21.2533 13.7395C21.2533 15.6764 19.6832 17.2465 17.7464 17.2465Z" fill="#161B26"></path>
</svg>
