<?xml version="1.0" encoding="UTF-8"?>
<svg xmlns="http://www.w3.org/2000/svg" width="39" height="38" viewBox="0 0 39 38" fill="none">
  <path d="M24.0202 1.80678L15.1777 0.411581C7.80573 -0.738514 4.39316 1.75022 3.22421 9.12213L1.82901 17.9647C1.07485 22.7913 1.86672 25.9211 4.60055 27.8253C6.03346 28.8434 7.99428 29.5222 10.5396 29.9181L19.3821 31.3133C26.754 32.4634 30.1666 29.9747 31.3355 22.6028L32.7119 13.7602C32.9381 12.3085 33.0324 11.0075 32.957 9.85744C32.7119 5.14394 29.9403 2.73062 24.0202 1.80678ZM13.3677 14.0053C11.1617 14.0053 9.37062 12.2142 9.37062 10.0271C9.37062 7.82121 11.1617 6.03008 13.3677 6.03008C15.5547 6.03008 17.3459 7.82121 17.3459 10.0271C17.3459 12.2142 15.5547 14.0053 13.3677 14.0053Z" fill="#2C3449"></path>
  <path d="M36.4839 21.7731L33.6558 30.2762C31.299 37.3653 27.5282 39.2507 20.4391 36.894L11.936 34.0659C9.27756 33.1797 7.35445 32.0862 6.11009 30.7099C7.29789 31.1812 8.67423 31.5394 10.2391 31.7845L19.1005 33.1797C20.3072 33.3683 21.4384 33.4625 22.4942 33.4625C28.716 33.4625 32.0532 30.1065 33.2033 22.8855L34.5796 14.0429C34.7682 12.9494 34.8436 11.9878 34.8436 11.1017C37.7094 13.4584 38.1242 16.8145 36.4839 21.7731Z" fill="#2C3449"></path>
</svg>
