<svg width="40" height="40" viewBox="0 0 40 40" fill="none" xmlns="http://www.w3.org/2000/svg">
<path d="M23.1165 8.14535L17.0196 7.18337C11.9367 6.39039 9.5838 8.10635 8.77782 13.1892L7.81585 19.2861C7.29586 22.614 7.84185 24.7719 9.7268 26.0849C10.7148 26.7869 12.0667 27.2549 13.8217 27.5279L19.9186 28.4899C25.0014 29.2828 27.3544 27.5669 28.1604 22.484L29.1093 16.3872C29.2653 15.3862 29.3303 14.4892 29.2783 13.6962C29.1093 10.4463 27.1984 8.78234 23.1165 8.14535ZM15.7717 16.5561C14.2507 16.5561 13.0157 15.3212 13.0157 13.8132C13.0157 12.2923 14.2507 11.0573 15.7717 11.0573C17.2796 11.0573 18.5146 12.2923 18.5146 13.8132C18.5146 15.3212 17.2796 16.5561 15.7717 16.5561Z" fill="url(#paint0_linear_4252_17972)"/>
<path d="M15.7717 16.5561C14.2507 16.5561 13.0157 15.3211 13.0157 13.8132C13.0157 12.2922 14.2507 11.0573 15.7717 11.0573C17.2796 11.0573 18.5146 12.2922 18.5146 13.8132C18.5146 15.3211 17.2796 16.5561 15.7717 16.5561Z" fill="#434C62"/>
<path d="M31.7101 21.9119L29.7601 27.7748C28.1352 32.6626 25.5352 33.9626 20.6473 32.3376L14.7845 30.3877C12.9515 29.7767 11.6256 29.0227 10.7676 28.0737C11.5866 28.3987 12.5355 28.6457 13.6145 28.8147L19.7244 29.7767C20.5563 29.9067 21.3363 29.9717 22.0643 29.9717C26.3542 29.9717 28.6551 27.6578 29.4481 22.6789L30.3971 16.582C30.5271 15.828 30.5791 15.1651 30.5791 14.5541C32.555 16.179 32.841 18.493 31.7101 21.9119Z" fill="#434C62"/>
<defs>
<linearGradient id="paint0_linear_4252_17972" x1="9.17701" y1="9.61472" x2="31.3367" y2="11.1517" gradientUnits="userSpaceOnUse">
<stop stop-color="#FFCA41"/>
<stop offset="1" stop-color="#FFDA7A"/>
</linearGradient>
</defs>
</svg>
