<svg width="40" height="40" viewBox="0 0 40 40" fill="none" xmlns="http://www.w3.org/2000/svg">
<path d="M20.4125 5.33342C15.0055 5.35051 11.111 9.87058 11.111 14.9095C11.111 17.3367 11.9828 19.5496 13.421 21.2429C14.2976 22.2733 15.6663 24.4277 16.1902 26.2446C16.1919 26.2583 16.1952 26.2729 16.1968 26.2874H24.6923C24.6939 26.2729 24.6973 26.2591 24.6989 26.2446C25.2226 24.4277 26.5916 22.2733 27.4682 21.2429C28.9079 19.5967 29.7776 17.3871 29.7776 14.9095C29.7776 9.63212 25.5829 5.31718 20.4125 5.33342ZM20.4443 10.5838C18.1041 10.5838 16.2019 12.5467 16.2019 14.91C16.2019 15.44 15.8201 15.8338 15.3534 15.8338C14.8867 15.8338 14.5049 15.44 14.5049 14.9587C14.5049 11.5808 17.1697 8.88228 20.4443 8.88228C20.9133 8.88228 21.2928 9.27383 21.2928 9.75737C21.2928 10.2409 20.911 10.5838 20.4443 10.5838Z" fill="url(#paint0_linear_4252_17766)"/>
<path d="M16.2072 30.1797C16.2072 30.5241 16.3035 30.8601 16.4874 31.1473L17.3964 32.5523C17.6748 32.983 18.3069 33.3333 18.8091 33.3333H22.0795C22.58 33.3333 23.2122 32.9832 23.4906 32.5523L24.3964 31.1478C24.5522 30.9051 24.68 30.4712 24.68 30.1797L24.6868 28.0358H16.2019L16.2072 30.1797Z" fill="#434C62"/>
<path d="M20.4443 10.5838C18.104 10.5838 16.2019 12.5468 16.2019 14.9101C16.2019 15.44 15.82 15.8338 15.3534 15.8338C14.8867 15.8338 14.5049 15.44 14.5049 14.9587C14.5049 11.5809 17.1697 8.88232 20.4443 8.88232C20.9133 8.88232 21.2928 9.27387 21.2928 9.75741C21.2928 10.241 20.9109 10.5838 20.4443 10.5838Z" fill="#2C3449"/>
<defs>
<linearGradient id="paint0_linear_4252_17766" x1="20.4443" y1="5.33337" x2="20.4443" y2="26.2874" gradientUnits="userSpaceOnUse">
<stop stop-color="#FF8B20"/>
<stop offset="1" stop-color="#FDB572"/>
</linearGradient>
</defs>
</svg>
