<svg width="40" height="40" viewBox="0 0 40 40" fill="none" xmlns="http://www.w3.org/2000/svg">
<path d="M33.3398 11.0032V26.8565C33.3398 28.1499 32.2865 29.3365 30.9931 29.4965L30.5798 29.5499C28.3931 29.8432 25.3131 30.7499 22.8331 31.7899C21.9665 32.1499 21.0065 31.4965 21.0065 30.5499V12.0032C21.0065 11.5099 21.2865 11.0565 21.7265 10.8165C24.1665 9.49653 27.8598 8.3232 30.3665 8.10986H30.4465C32.0465 8.10986 33.3398 9.4032 33.3398 11.0032Z" fill="url(#paint0_linear_4252_17751)"/>
<path d="M18.2868 10.8165C15.8468 9.49653 12.1535 8.3232 9.64682 8.10986H9.55349C7.95349 8.10986 6.66016 9.4032 6.66016 11.0032V26.8565C6.66016 28.1499 7.71349 29.3365 9.00682 29.4965L9.42016 29.5499C11.6068 29.8432 14.6868 30.7499 17.1668 31.7899C18.0335 32.1499 18.9935 31.4965 18.9935 30.5499V12.0032C18.9935 11.4965 18.7268 11.0565 18.2868 10.8165ZM10.6735 14.8565H13.6735C14.2202 14.8565 14.6735 15.3099 14.6735 15.8565C14.6735 16.4165 14.2202 16.8565 13.6735 16.8565H10.6735C10.1268 16.8565 9.67349 16.4165 9.67349 15.8565C9.67349 15.3099 10.1268 14.8565 10.6735 14.8565ZM14.6735 20.8565H10.6735C10.1268 20.8565 9.67349 20.4165 9.67349 19.8565C9.67349 19.3099 10.1268 18.8565 10.6735 18.8565H14.6735C15.2202 18.8565 15.6735 19.3099 15.6735 19.8565C15.6735 20.4165 15.2202 20.8565 14.6735 20.8565Z" fill="#434C62"/>
<defs>
<linearGradient id="paint0_linear_4252_17751" x1="21.8874" y1="10.9799" x2="34.5457" y2="11.4354" gradientUnits="userSpaceOnUse">
<stop stop-color="#FFCA41"/>
<stop offset="1" stop-color="#FFDA7A"/>
</linearGradient>
</defs>
</svg>
