<svg width="40" height="40" viewBox="0 0 40 40" fill="none" xmlns="http://www.w3.org/2000/svg">
<path d="M20 34.7826C28.1642 34.7826 34.7826 28.1642 34.7826 20C34.7826 11.8358 28.1642 5.21741 20 5.21741C11.8358 5.21741 5.21741 11.8358 5.21741 20C5.21741 28.1642 11.8358 34.7826 20 34.7826Z" fill="url(#paint0_linear_4252_17873)"/>
<path d="M19.9999 12.2679C24.273 12.2679 27.7319 15.7326 27.7319 19.9999C27.7319 24.2673 24.273 27.7319 19.9999 27.7319C15.7268 27.7319 12.2679 24.2673 12.2679 19.9999C12.2679 15.7326 15.7268 12.2679 19.9999 12.2679Z" fill="#434C62"/>
<path d="M20 10.3798C14.6875 10.3798 10.3798 14.6875 10.3798 20C10.3798 25.3125 14.6875 29.6203 20 29.6203C25.3125 29.6203 29.6203 25.3125 29.6203 20C29.6203 14.6875 25.3125 10.3798 20 10.3798ZM20 27.6512C15.7731 27.6512 12.3489 24.2269 12.3489 20C12.3489 15.7731 15.7731 12.3489 20 12.3489C24.2269 12.3489 27.6512 15.7731 27.6512 20C27.6512 24.2269 24.2269 27.6512 20 27.6512Z" fill="#434C62"/>
<path d="M23.4139 19.6675C23.7134 19.867 23.7134 20.3069 23.4139 20.5064L18.8922 23.5186C18.5573 23.7418 18.1088 23.5017 18.1088 23.0992L18.1088 17.0747C18.1088 16.6722 18.5573 16.4321 18.8922 16.6552L23.4139 19.6675Z" fill="white"/>
<defs>
<linearGradient id="paint0_linear_4252_17873" x1="7.32921" y1="8.78563" x2="37.5672" y2="10.8838" gradientUnits="userSpaceOnUse">
<stop stop-color="#FFCA41"/>
<stop offset="1" stop-color="#FFDA7A"/>
</linearGradient>
</defs>
</svg>
