<svg width="40" height="40" viewBox="0 0 40 40" fill="none" xmlns="http://www.w3.org/2000/svg">
<g clip-path="url(#clip0_4252_17981)">
<path d="M22.8407 13.5869C22.1756 13.9174 21.8875 14.5345 21.8875 16.2094C21.8875 16.2094 22.22 15.8789 22.752 15.6805C23.14 15.5373 23.4171 15.3499 23.6166 15.2067C24.1929 14.7769 24.2816 14.259 24.2816 13.3554C24.2705 13.3554 23.3616 13.3004 22.8407 13.5869Z" fill="#FBBD71"/>
<path d="M18.7728 13.9728C18.1964 14.4466 18.0523 15.2621 18.0523 15.2621L16.1902 22.3585L14.6606 16.5513C14.5165 15.9342 14.2283 15.1739 13.796 14.645C13.264 13.9728 12.1556 13.9287 12.0226 13.9287C11.9228 13.9287 10.8255 13.9728 10.2491 14.645C9.81684 15.1739 9.52865 15.9342 9.38456 16.5513L7.94363 22.3585L6.0815 15.2621C6.0815 15.2621 5.93741 14.5017 5.36103 13.9728C4.45214 13.1574 3.11096 13.3557 3.11096 13.3557L6.65787 26.634C6.65787 26.634 7.81062 26.7331 8.38699 26.4466C9.1518 26.061 9.53974 25.7855 9.97202 23.9673C10.4043 22.3475 11.557 17.6312 11.6457 17.3006C11.6901 17.1574 11.7898 16.7276 12.078 16.7276C12.3662 16.7276 12.4659 17.1133 12.5103 17.3006C12.61 17.6312 13.7517 22.3475 14.184 23.9673C14.6606 25.7744 14.9931 26.061 15.769 26.4466C16.3454 26.7331 17.4981 26.634 17.4981 26.634L21.0229 13.3557C21.0229 13.3557 19.6817 13.1684 18.7728 13.9728Z" fill="black"/>
<path d="M24.2705 15.4932C24.2705 15.4932 24.0267 15.8237 23.55 16.1102C23.2175 16.2976 22.9293 16.3967 22.5968 16.5841C22.0204 16.8706 21.8763 17.1571 21.8763 17.5868V17.7301V18.4463V18.5896V26.5896C21.8763 26.5896 22.7852 26.6888 23.3616 26.4023C24.1264 26.0166 24.2705 25.6419 24.2705 24.0221V16.0221V15.4932Z" fill="black"/>
<path d="M33.0823 20.0221L37.5825 13.3995C37.5825 13.3995 35.7203 13.0689 34.756 13.9285C34.1353 14.4574 33.5146 15.4491 33.5146 15.4491L31.8852 17.8293C31.7855 17.9725 31.6968 18.0717 31.5527 18.0717C31.4086 18.0717 31.2645 17.9285 31.2202 17.8293L29.5908 15.4491C29.5908 15.4491 28.9258 14.5015 28.3494 13.9285C27.3962 13.0689 25.523 13.3995 25.523 13.3995L29.879 20.0111L25.4232 26.6227C25.4232 26.6227 27.3851 26.8651 28.3494 26.0056C28.9701 25.4767 29.5465 24.5731 29.5465 24.5731L31.1759 22.1929C31.2756 22.0497 31.3643 21.9505 31.5084 21.9505C31.6525 21.9505 31.7966 22.0937 31.8409 22.1929L33.4703 24.5731C33.4703 24.5731 34.091 25.4767 34.6674 26.0056C35.6206 26.8651 37.5381 26.6227 37.5381 26.6227L33.0823 20.0221Z" fill="black"/>
</g>
<defs>
<clipPath id="clip0_4252_17981">
<rect width="34.4715" height="13.3333" fill="white" transform="translate(3.11096 13.3334)"/>
</clipPath>
</defs>
</svg>
