<svg width="40" height="40" viewBox="0 0 40 40" fill="none" xmlns="http://www.w3.org/2000/svg">
<path d="M26.6666 3.33337H15.9999C11.3333 3.33337 9.33325 6.00004 9.33325 10V21.2934C9.33325 21.76 9.78659 22.08 10.2133 21.92C11.6799 21.3467 13.3466 21.16 15.0666 21.5067C18.5333 22.2 21.2933 25.0534 21.8666 28.5334C22.2133 30.6534 21.7866 32.6667 20.8133 34.3334C20.5466 34.7734 20.8666 35.3334 21.3866 35.3334H26.6666C31.3333 35.3334 33.3333 32.6667 33.3333 28.6667V10C33.3333 6.00004 31.3333 3.33337 26.6666 3.33337Z" fill="url(#paint0_linear_4252_17977)"/>
<path d="M13.3333 23.3334C9.65329 23.3334 6.66663 26.32 6.66663 30C6.66663 33.68 9.65329 36.6667 13.3333 36.6667C17.0133 36.6667 20 33.68 20 30C20 26.32 17.0133 23.3334 13.3333 23.3334ZM12.2133 31.6934C12.5466 32.0267 12.5466 32.5734 12.2133 32.92C12.04 33.0934 11.8266 33.1734 11.6 33.1734C11.3733 33.1734 11.16 33.0934 10.9866 32.92L8.67996 30.6134C8.34663 30.28 8.34663 29.7334 8.67996 29.3867L10.9866 27.08C11.32 26.7467 11.8666 26.7467 12.2133 27.08C12.5466 27.4134 12.5466 27.96 12.2133 28.3067L10.52 30L12.2133 31.6934ZM17.9733 30.6134L15.6666 32.92C15.4933 33.0934 15.28 33.1734 15.0533 33.1734C14.8266 33.1734 14.6133 33.0934 14.44 32.92C14.1066 32.5867 14.1066 32.04 14.44 31.6934L16.1466 30L14.4533 28.3067C14.12 27.9734 14.12 27.4267 14.4533 27.08C14.7866 26.7467 15.3333 26.7467 15.68 27.08L17.9866 29.3867C18.3066 29.7334 18.3066 30.2667 17.9733 30.6134Z" fill="#434C62"/>
<defs>
<linearGradient id="paint0_linear_4252_17977" x1="21.3333" y1="3.33337" x2="21.3333" y2="35.3334" gradientUnits="userSpaceOnUse">
<stop stop-color="#FF8B20"/>
<stop offset="1" stop-color="#FDB572"/>
</linearGradient>
</defs>
</svg>
