<svg width="40" height="40" viewBox="0 0 40 40" fill="none" xmlns="http://www.w3.org/2000/svg">
<path d="M5.2112 12.5459C4.70142 14.1992 4.70142 16.4801 4.70142 20C4.70142 24.9996 4.70142 27.4994 6.1623 29.2519C6.6341 29.8178 7.20517 30.3155 7.85456 30.7267C9.86529 32 12.7336 32 18.4701 32H21.5298C27.2663 32 30.1346 32 32.1453 30.7267C32.7947 30.3155 33.3658 29.8178 33.8376 29.2519C35.2985 27.4994 35.2985 24.9996 35.2985 20C35.2985 16.4683 35.2985 14.184 34.7836 12.5294L31.5667 15.3331C29.0695 17.5095 27.1126 19.2151 25.3804 20.3669C23.6074 21.5459 21.9357 22.2385 19.9997 22.2385C18.0638 22.2385 16.3921 21.5459 14.6191 20.3669C12.8869 19.2151 10.9299 17.5095 8.43279 15.3331L5.44164 12.7262L5.2112 12.5459Z" fill="url(#paint0_linear_4252_17884)"/>
<path d="M6.23132 10.6667L6.39784 10.7868L7.02053 11.2738L9.99343 13.8648C12.5661 16.107 14.4157 17.716 16.0111 18.7769C17.58 19.8201 18.7673 20.2386 19.9998 20.2386C21.2323 20.2386 22.4196 19.8201 23.9885 18.7769C25.5838 17.716 27.4335 16.107 30.0062 13.8648L33.5369 10.7876L33.7291 10.6211C33.2573 10.0551 32.7948 9.68442 32.1454 9.27322C30.1347 8 27.2664 8 21.5299 8H18.4701C12.7336 8 9.86534 8 7.85461 9.27322C7.20523 9.68442 6.70313 10.1007 6.23132 10.6667Z" fill="#434C62"/>
<defs>
<linearGradient id="paint0_linear_4252_17884" x1="6.88692" y1="14.8793" x2="37.9615" y2="18.2677" gradientUnits="userSpaceOnUse">
<stop stop-color="#FFCA41"/>
<stop offset="1" stop-color="#FFDA7A"/>
</linearGradient>
</defs>
</svg>
