<svg width="40" height="40" viewBox="0 0 40 40" fill="none" xmlns="http://www.w3.org/2000/svg">
<path d="M25.85 36.5217C25.594 36.5217 25.3337 36.4501 25.1038 36.3L19.2524 32.5138C18.6149 32.1007 18.4318 31.2485 18.8448 30.6097C19.2579 29.9722 20.1101 29.7891 20.749 30.2021L26.6004 33.9884C27.2379 34.4014 27.421 35.2536 27.0079 35.8925C26.7436 36.3 26.3016 36.5217 25.85 36.5217Z" fill="#434C62"/>
<path d="M14.1499 36.5218C13.6983 36.5218 13.2564 36.3001 12.9934 35.8926C12.5803 35.2538 12.7635 34.4015 13.4009 33.9885L19.2524 30.2022C19.8912 29.7878 20.7435 29.9723 21.1565 30.6098C21.5695 31.2486 21.3864 32.1009 20.749 32.5139L14.8975 36.3001C14.6648 36.4502 14.406 36.5218 14.1499 36.5218Z" fill="#434C62"/>
<path d="M18.6232 29.6377V35.1449C18.6232 35.9049 19.24 36.5218 20 36.5218C20.76 36.5218 21.3768 35.9049 21.3768 35.1449V29.6377H18.6232Z" fill="#434C62"/>
<path d="M6.5761 12.4276H33.4239C33.6594 12.4276 33.8865 12.3932 34.1123 12.3574V25.261C34.1123 26.9178 32.7692 28.261 31.1123 28.261H8.8877C7.23084 28.261 5.8877 26.9178 5.8877 25.261V12.3574C6.11349 12.3932 6.34067 12.4276 6.5761 12.4276Z" fill="url(#paint0_linear_4252_17718)"/>
<path d="M33.4239 11.0506H6.5761C4.86747 11.0506 3.47827 9.66143 3.47827 7.95281C3.47827 6.24418 4.86747 4.85498 6.5761 4.85498H33.4239C35.1325 4.85498 36.5218 6.24418 36.5218 7.95281C36.5218 9.66143 35.1325 11.0506 33.4239 11.0506Z" fill="#434C62"/>
<defs>
<linearGradient id="paint0_linear_4252_17718" x1="20" y1="12.3574" x2="20" y2="28.261" gradientUnits="userSpaceOnUse">
<stop stop-color="#FF8B20"/>
<stop offset="1" stop-color="#FDB572"/>
</linearGradient>
</defs>
</svg>
