<svg width="59" height="60" viewBox="0 0 59 60" fill="none" xmlns="http://www.w3.org/2000/svg">
<path d="M59 16.8411V49.1952C59 51.862 56.8739 54.0242 54.2515 54.0242H4.74849C2.12614 54.0242 0 51.862 0 49.1952V16.8411H59Z" fill="#FEF3D8"/>
<path d="M59 10.8048V16.841H0V10.8048C0 8.138 2.12614 5.97583 4.74849 5.97583H54.2515C56.8739 5.97583 59 8.138 59 10.8048Z" fill="#434C62"/>
<path d="M5.4311 14.0946C3.95823 14.0946 2.76007 12.876 2.76007 11.3783C2.76007 9.88058 3.95823 8.66199 5.4311 8.66199C6.90396 8.66199 8.10212 9.88058 8.10212 11.3783C8.10212 12.876 6.90396 14.0946 5.4311 14.0946Z" fill="url(#paint0_linear_4305_21510)"/>
<path d="M13.0584 14.1247C11.5855 14.1247 10.3873 12.9061 10.3873 11.4084C10.3873 9.91073 11.5855 8.69214 13.0584 8.69214C14.5312 8.69214 15.7294 9.91073 15.7294 11.4084C15.7294 12.9061 14.5312 14.1247 13.0584 14.1247Z" fill="url(#paint1_linear_4305_21510)"/>
<path d="M20.656 14.1247C19.1831 14.1247 17.9849 12.9061 17.9849 11.4084C17.9849 9.91073 19.1831 8.69214 20.656 8.69214C22.1288 8.69214 23.327 9.91073 23.327 11.4084C23.327 12.9061 22.1288 14.1247 20.656 14.1247Z" fill="white"/>
<path d="M53.658 14.1247H28.3723C26.8994 14.1247 25.7012 12.9061 25.7012 11.4084C25.7012 9.91073 26.8994 8.69214 28.3723 8.69214H53.658C55.1308 8.69214 56.329 9.91073 56.329 11.4084C56.329 12.9061 55.1308 14.1247 53.658 14.1247Z" fill="#F5F5F5"/>
<path d="M25.7246 46.1051C25.4755 46.1051 25.2224 46.054 24.9794 45.9461C24.0358 45.527 23.605 44.4094 24.0172 43.4498L31.566 25.8742C31.9782 24.9148 33.077 24.477 34.0207 24.8958C34.9642 25.3149 35.3951 26.4325 34.9829 27.3921L27.4341 44.9676C27.1281 45.6802 26.4433 46.1051 25.7246 46.1051Z" fill="url(#paint2_linear_4305_21510)"/>
<path d="M18.2678 45.4219C17.7907 45.4219 17.3135 45.2369 16.9495 44.8667L9.95831 37.757C9.23037 37.0166 9.23037 35.8161 9.95831 35.0757L16.8563 28.0608C17.5844 27.3204 18.7649 27.3204 19.4929 28.0608C20.2209 28.8012 20.2209 30.0017 19.4929 30.7421L13.9132 36.4164L19.5862 42.1854C20.3142 42.9258 20.3142 44.1263 19.5862 44.8667C19.2221 45.2369 18.7449 45.4219 18.2678 45.4219Z" fill="url(#paint3_linear_4305_21510)"/>
<path d="M40.7322 45.4219C41.2093 45.4219 41.6866 45.2369 42.0505 44.8667L49.0417 37.757C49.7697 37.0166 49.7697 35.8161 49.0417 35.0757L42.1437 28.0608C41.4157 27.3204 40.2352 27.3204 39.5071 28.0608C38.7792 28.8012 38.7792 30.0017 39.5071 30.7421L45.0868 36.4164L39.4138 42.1854C38.6859 42.9258 38.6859 44.1263 39.4138 44.8667C39.7779 45.2369 40.2551 45.4219 40.7322 45.4219Z" fill="url(#paint4_linear_4305_21510)"/>
<defs>
<linearGradient id="paint0_linear_4305_21510" x1="3.14165" y1="9.31765" x2="8.60613" y2="9.69049" gradientUnits="userSpaceOnUse">
<stop stop-color="#FFCA41"/>
<stop offset="1" stop-color="#FFDA7A"/>
</linearGradient>
<linearGradient id="paint1_linear_4305_21510" x1="13.0584" y1="8.69214" x2="13.0584" y2="14.1247" gradientUnits="userSpaceOnUse">
<stop stop-color="#FF8B20"/>
<stop offset="1" stop-color="#FDB572"/>
</linearGradient>
<linearGradient id="paint2_linear_4305_21510" x1="29.5" y1="24.7369" x2="29.5" y2="46.1051" gradientUnits="userSpaceOnUse">
<stop stop-color="#FF8B20"/>
<stop offset="1" stop-color="#FDB572"/>
</linearGradient>
<linearGradient id="paint3_linear_4305_21510" x1="14.7723" y1="27.5055" x2="14.7723" y2="45.4219" gradientUnits="userSpaceOnUse">
<stop stop-color="#FF8B20"/>
<stop offset="1" stop-color="#FDB572"/>
</linearGradient>
<linearGradient id="paint4_linear_4305_21510" x1="44.2278" y1="27.5055" x2="44.2278" y2="45.4219" gradientUnits="userSpaceOnUse">
<stop stop-color="#FF8B20"/>
<stop offset="1" stop-color="#FDB572"/>
</linearGradient>
</defs>
</svg>
