<svg width="60" height="61" viewBox="0 0 60 61" fill="none" xmlns="http://www.w3.org/2000/svg">
<path d="M50.1293 16.9096C47.2956 13.7828 43.8159 11.3878 39.9713 9.86592H53.4788C53.9648 9.86592 54.3588 9.47193 54.3588 8.98596C54.3588 8.49998 53.9648 8.106 53.4788 8.106H32.7329C32.6697 8.10541 32.608 8.1115 32.548 8.12381C32.5433 8.12475 32.539 8.12627 32.5343 8.12721C32.5111 8.13236 32.4881 8.13787 32.4655 8.1449C32.4518 8.14912 32.4386 8.15451 32.4253 8.15932C32.4122 8.16412 32.3988 8.16834 32.386 8.17373C32.369 8.18088 32.3526 8.1892 32.3361 8.19728C32.3274 8.20162 32.3183 8.20537 32.3097 8.20994C32.2929 8.21896 32.2767 8.22916 32.2604 8.23924C32.2527 8.24404 32.2446 8.24838 32.237 8.25342C32.2221 8.26338 32.208 8.27428 32.1938 8.28506C32.1855 8.29139 32.1768 8.29725 32.1686 8.30393C32.1566 8.31377 32.1453 8.32455 32.1337 8.33498C32.1242 8.34353 32.1144 8.35174 32.1054 8.36076C32.0961 8.3699 32.0878 8.37975 32.0789 8.38935C32.0684 8.4006 32.0577 8.41174 32.0477 8.42357C32.0409 8.43166 32.0349 8.44045 32.0285 8.44877C32.0176 8.46283 32.0066 8.47678 31.9965 8.49154C31.9913 8.49916 31.9869 8.50725 31.9821 8.51498C31.9718 8.53115 31.9615 8.54721 31.9522 8.56408C31.9475 8.57264 31.9438 8.58154 31.9394 8.59033C31.931 8.60697 31.9224 8.6235 31.9151 8.64084C31.9102 8.65209 31.9065 8.66393 31.9022 8.67541C31.8964 8.69064 31.8902 8.70576 31.8853 8.72146C31.8801 8.73775 31.8764 8.75475 31.8722 8.7715C31.8693 8.78299 31.8657 8.79412 31.8634 8.80572C31.859 8.82682 31.8562 8.84838 31.8533 8.87006C31.8522 8.87791 31.8505 8.88541 31.8497 8.89326C31.8497 8.8935 31.8497 8.89373 31.8497 8.89408C31.8485 8.90568 31.8485 8.91764 31.8478 8.92936C31.8466 8.94799 31.845 8.96662 31.845 8.98514C31.845 8.98654 31.8452 8.98795 31.8452 8.98924C31.8453 9.01783 31.8466 9.04631 31.8494 9.07432C31.8502 9.0824 31.852 9.09014 31.8529 9.09811C31.8556 9.11896 31.8583 9.13971 31.8624 9.16021C31.8656 9.17592 31.8701 9.19103 31.874 9.20639C31.8772 9.21857 31.8798 9.231 31.8834 9.24295C31.8899 9.26381 31.8976 9.28408 31.9054 9.30435C31.9078 9.31033 31.9097 9.31654 31.9121 9.32252C31.9216 9.34525 31.9323 9.36728 31.9435 9.38908C31.9452 9.39236 31.9466 9.39576 31.9482 9.39893C31.9602 9.42131 31.9733 9.44299 31.9871 9.4642C31.9886 9.46654 31.9899 9.46912 31.9916 9.47146C32.0053 9.49209 32.0202 9.51189 32.0355 9.53146C32.0376 9.53416 32.0395 9.53709 32.0417 9.53967C32.0567 9.55807 32.0727 9.57553 32.0891 9.59287C32.0922 9.59615 32.0951 9.59967 32.0982 9.60295C32.1143 9.61924 32.1313 9.63447 32.1486 9.64947C32.1527 9.65299 32.1565 9.65685 32.1606 9.66037C32.1781 9.67514 32.1968 9.68885 32.2156 9.70221C32.2199 9.70525 32.2238 9.70865 32.2282 9.71158C32.2489 9.72588 32.2706 9.73889 32.2927 9.75143C32.2953 9.75283 32.2977 9.75459 32.3002 9.756C32.4029 9.81271 32.5179 9.84939 32.6403 9.861C38.859 10.5133 44.6067 13.4358 48.8252 18.0906C53.0749 22.78 55.4154 28.8508 55.4154 35.1849C55.4154 35.6708 55.8093 36.0648 56.2953 36.0648C56.7813 36.0648 57.1753 35.6708 57.1753 35.1849C57.1753 28.4139 54.673 21.9232 50.1293 16.9096Z" fill="#434C62"/>
<path d="M27.8703 9.52807C27.8844 9.51014 27.8981 9.49198 27.9108 9.47288C27.9136 9.46866 27.9159 9.4642 27.9186 9.45999C27.931 9.44053 27.9432 9.42096 27.9541 9.40045C27.9571 9.39495 27.9594 9.3892 27.9622 9.3837C27.9722 9.36424 27.9818 9.34456 27.9903 9.32417C27.9941 9.31526 27.9968 9.306 28.0003 9.2971C28.0069 9.27975 28.0137 9.26253 28.0192 9.24448C28.024 9.22889 28.0275 9.21272 28.0315 9.19678C28.0343 9.18506 28.0379 9.1737 28.0403 9.16174C28.0454 9.13667 28.0491 9.111 28.052 9.0851C28.0523 9.08194 28.053 9.07889 28.0534 9.07573C28.0588 9.02241 28.0588 8.96803 28.0542 8.91272C28.0537 8.90698 28.0539 8.90124 28.0533 8.89561C28.0533 8.89514 28.0533 8.89467 28.0532 8.8942C28.0516 8.87932 28.0486 8.86502 28.0464 8.85038C28.0441 8.83608 28.0426 8.82167 28.0397 8.8076C28.0356 8.78756 28.03 8.76811 28.0244 8.74854C28.0221 8.74034 28.0205 8.73178 28.018 8.72358C28.0099 8.69768 28.0005 8.67249 27.9902 8.64764C27.9896 8.64624 27.9893 8.64483 27.9887 8.64342C27.9334 8.51241 27.8476 8.39885 27.7411 8.31014C27.7398 8.30909 27.7387 8.30792 27.7375 8.30686C27.7187 8.29151 27.6993 8.27721 27.6792 8.26338C27.6758 8.26092 27.6725 8.25823 27.669 8.25588C27.6506 8.24346 27.6314 8.23221 27.6119 8.2212C27.6066 8.21815 27.6015 8.21463 27.5961 8.2117C27.5768 8.20128 27.5566 8.19202 27.5364 8.18299C27.5306 8.18042 27.5251 8.17737 27.5193 8.17491C27.4968 8.16542 27.4735 8.15721 27.4501 8.1496C27.4464 8.14842 27.4427 8.14678 27.439 8.14561C27.3538 8.11913 27.2635 8.10542 27.1705 8.10624H6.4241C5.93812 8.10624 5.54414 8.50022 5.54414 8.9862C5.54414 9.47217 5.93812 9.86616 6.4241 9.86616H19.9315C16.0868 11.3881 12.6071 13.783 9.77355 16.9098C5.22984 21.9235 2.72742 28.414 2.72742 35.1857C2.72742 35.6717 3.1214 36.0657 3.60738 36.0657C4.09335 36.0657 4.48734 35.6717 4.48734 35.1857C4.48734 28.8516 6.82781 22.7808 11.0776 18.0914C15.2961 13.4366 21.0438 10.5141 27.2625 9.86182C27.3848 9.85022 27.4997 9.81366 27.6022 9.75706C27.6061 9.75495 27.6097 9.75237 27.6136 9.75014C27.6342 9.73831 27.6546 9.72612 27.6743 9.71264C27.6799 9.70878 27.685 9.70444 27.6905 9.70057C27.7079 9.68803 27.7253 9.67538 27.7418 9.66167C27.7472 9.65721 27.7521 9.65217 27.7574 9.64749C27.7733 9.63354 27.7891 9.61936 27.804 9.60436C27.8085 9.59991 27.8123 9.59499 27.8167 9.59042C27.8318 9.57448 27.8467 9.55842 27.8605 9.54131C27.864 9.53674 27.8669 9.53229 27.8703 9.52807Z" fill="#434C62"/>
<path d="M3.65203 5.25195C1.63828 5.25195 0 6.89023 0 8.90387C0 10.9176 1.63828 12.5559 3.65203 12.5559C5.66578 12.5559 7.30406 10.9176 7.30406 8.90387C7.30394 6.89023 5.66566 5.25195 3.65203 5.25195Z" fill="url(#paint0_linear_4305_21291)"/>
<path d="M56.2507 5.25195C54.237 5.25195 52.5987 6.89023 52.5987 8.90398C52.5987 10.9177 54.237 12.556 56.2507 12.556C58.2645 12.556 59.9028 10.9177 59.9028 8.90398C59.9028 6.89023 58.2645 5.25195 56.2507 5.25195Z" fill="url(#paint1_linear_4305_21291)"/>
<path d="M6.42656 34.3381H0.879961C0.393984 34.3381 0 34.7321 0 35.2181V40.7647C0 41.2507 0.393984 41.6447 0.879961 41.6447H6.42656C6.91254 41.6447 7.30652 41.2507 7.30652 40.7647V35.2181C7.30641 34.7321 6.91254 34.3381 6.42656 34.3381Z" fill="url(#paint2_linear_4305_21291)"/>
<path d="M59.12 34.3381H53.5733C53.0873 34.3381 52.6934 34.7321 52.6934 35.2181V40.7647C52.6934 41.2507 53.0873 41.6447 53.5733 41.6447H59.12C59.606 41.6447 60 41.2507 60 40.7647V35.2181C60 34.7321 59.606 34.3381 59.12 34.3381Z" fill="url(#paint3_linear_4305_21291)"/>
<path d="M41.4719 47.0759H18.4309C17.9449 47.0759 17.551 47.4699 17.551 47.9559V54.9855C17.551 55.4715 17.9449 55.8655 18.4309 55.8655H41.4719C41.9578 55.8655 42.3518 55.4715 42.3518 54.9855V47.9559C42.3518 47.4699 41.9578 47.0759 41.4719 47.0759Z" fill="#434C62"/>
<path fill-rule="evenodd" clip-rule="evenodd" d="M30.7073 11.2256L45.9171 36.7732C46.0821 37.0503 46.0823 37.3955 45.9175 37.6728L39.5392 48.4064C39.3807 48.6731 39.0932 48.8367 38.7828 48.8367H21.1197C20.8093 48.8367 20.5219 48.6732 20.3633 48.4064L13.985 37.6728C13.8201 37.3955 13.8203 37.0503 13.9853 36.7732L29.1953 11.2256C29.3539 10.9593 29.6412 10.7959 29.9513 10.7959C30.2614 10.7959 30.5486 10.9591 30.7073 11.2256ZM29.0846 32.0791C29.0768 32.0317 29.0717 31.9832 29.0717 31.9336V11.6759C29.0717 11.5058 29.1206 11.3475 29.2042 11.213C29.2188 11.1893 29.2344 11.1667 29.251 11.1449C29.2527 11.1425 29.2544 11.1402 29.2562 11.1378C29.2593 11.1335 29.2624 11.1292 29.2657 11.1251C29.287 11.0985 29.3097 11.0732 29.3337 11.0495C29.3366 11.0466 29.3397 11.0438 29.3429 11.0411C29.345 11.0392 29.3471 11.0374 29.3492 11.0354C29.3692 11.0165 29.3899 10.9986 29.4115 10.9819C29.4194 10.9758 29.4274 10.9697 29.4356 10.9638C29.4578 10.9479 29.4805 10.933 29.5038 10.9192C29.5064 10.9177 29.5088 10.9162 29.5113 10.9146C29.5147 10.9125 29.5181 10.9104 29.5217 10.9084C29.5521 10.8914 29.5836 10.876 29.616 10.8626C29.6176 10.8619 29.6193 10.8613 29.621 10.8607C29.6223 10.8603 29.6236 10.8598 29.6249 10.8593C29.6538 10.8477 29.6835 10.8379 29.7136 10.8294C29.7202 10.8275 29.7269 10.8259 29.7336 10.8242C29.7357 10.8237 29.7378 10.8232 29.7399 10.8226C29.7655 10.8163 29.7918 10.8113 29.8181 10.8072C29.8207 10.8068 29.8233 10.8064 29.8258 10.806C29.8325 10.8049 29.8392 10.8039 29.8459 10.8032C29.8807 10.799 29.9159 10.7963 29.9514 10.7963C29.9869 10.7963 30.0222 10.799 30.0569 10.8032C30.0631 10.8039 30.0692 10.8049 30.0754 10.8059C30.0785 10.8064 30.0815 10.8069 30.0846 10.8074C30.1111 10.8114 30.1372 10.8165 30.1629 10.8229C30.1652 10.8235 30.1675 10.824 30.1698 10.8246C30.1764 10.8262 30.1829 10.8278 30.1893 10.8297C30.2194 10.8381 30.2492 10.8479 30.278 10.8594C30.2794 10.86 30.2809 10.8605 30.2824 10.8611C30.2839 10.8616 30.2854 10.8621 30.2869 10.8627C30.3192 10.8761 30.3508 10.8914 30.3812 10.9085C30.3848 10.9105 30.3882 10.9126 30.3916 10.9148C30.3941 10.9163 30.3965 10.9178 30.399 10.9193C30.4225 10.9331 30.4452 10.948 30.4672 10.964C30.4753 10.9698 30.4834 10.9758 30.4914 10.982C30.5129 10.9989 30.5337 11.0167 30.5536 11.0354C30.5558 11.0375 30.5581 11.0395 30.5604 11.0415C30.5634 11.0442 30.5664 11.0468 30.5693 11.0496C30.5935 11.0733 30.616 11.0986 30.6373 11.1251C30.6402 11.1288 30.643 11.1325 30.6457 11.1363C30.6478 11.1392 30.6499 11.1421 30.652 11.1449C30.6686 11.1668 30.6843 11.1894 30.6988 11.213C30.7824 11.3476 30.8313 11.5057 30.8313 11.6759V31.9336C30.8313 31.9832 30.8262 32.0316 30.8183 32.0792C31.8501 32.4379 32.5907 33.4189 32.5907 34.5729C32.5907 36.0306 31.409 37.2123 29.9513 37.2123C28.4936 37.2123 27.3119 36.0306 27.3119 34.5729C27.3118 33.4188 28.0526 32.4377 29.0846 32.0791Z" fill="url(#paint4_linear_4305_21291)"/>
<path d="M32.7247 5.13477H27.1781C26.6921 5.13477 26.2982 5.52875 26.2982 6.01473V11.5613C26.2982 12.0473 26.6921 12.4413 27.1781 12.4413H32.7247C33.2107 12.4413 33.6047 12.0473 33.6047 11.5613V6.01473C33.6046 5.52875 33.2106 5.13477 32.7247 5.13477Z" fill="url(#paint5_linear_4305_21291)"/>
<defs>
<linearGradient id="paint0_linear_4305_21291" x1="3.65203" y1="5.25195" x2="3.65203" y2="12.5559" gradientUnits="userSpaceOnUse">
<stop stop-color="#FF8B20"/>
<stop offset="1" stop-color="#FDB572"/>
</linearGradient>
<linearGradient id="paint1_linear_4305_21291" x1="56.2507" y1="5.25195" x2="56.2507" y2="12.556" gradientUnits="userSpaceOnUse">
<stop stop-color="#FF8B20"/>
<stop offset="1" stop-color="#FDB572"/>
</linearGradient>
<linearGradient id="paint2_linear_4305_21291" x1="0.521894" y1="35.22" x2="7.99468" y2="35.7385" gradientUnits="userSpaceOnUse">
<stop stop-color="#FFCA41"/>
<stop offset="1" stop-color="#FFDA7A"/>
</linearGradient>
<linearGradient id="paint3_linear_4305_21291" x1="53.2153" y1="35.22" x2="60.6882" y2="35.7385" gradientUnits="userSpaceOnUse">
<stop stop-color="#FFCA41"/>
<stop offset="1" stop-color="#FFDA7A"/>
</linearGradient>
<linearGradient id="paint4_linear_4305_21291" x1="16.16" y1="15.387" x2="49.1167" y2="17.3215" gradientUnits="userSpaceOnUse">
<stop stop-color="#FFCA41"/>
<stop offset="1" stop-color="#FFDA7A"/>
</linearGradient>
<linearGradient id="paint5_linear_4305_21291" x1="26.8201" y1="6.01659" x2="34.2928" y2="6.53511" gradientUnits="userSpaceOnUse">
<stop stop-color="#FFCA41"/>
<stop offset="1" stop-color="#FFDA7A"/>
</linearGradient>
</defs>
</svg>
