<svg width="59" height="61" viewBox="0 0 59 61" fill="none" xmlns="http://www.w3.org/2000/svg">
<g clip-path="url(#clip0_4305_21462)">
<path d="M9.71656 33.4073C15.0829 33.4073 19.4331 28.9509 19.4331 23.4537C19.4331 17.9564 15.0829 13.5 9.71656 13.5C4.35025 13.5 0 17.9564 0 23.4537C0 28.9509 4.35025 33.4073 9.71656 33.4073Z" fill="#434C62"/>
<g clip-path="url(#clip1_4305_21462)">
<path d="M10.9506 20.9346C10.689 21.0668 10.5757 21.3137 10.5757 21.9836C10.5757 21.9836 10.7065 21.8514 10.9157 21.7721C11.0683 21.7148 11.1773 21.6398 11.2558 21.5825C11.4825 21.4106 11.5174 21.2035 11.5174 20.842C11.513 20.842 11.1555 20.82 10.9506 20.9346Z" fill="white"/>
<path d="M9.35063 21.0891C9.12392 21.2786 9.06724 21.6048 9.06724 21.6048L8.33481 24.4433L7.73316 22.1205C7.67649 21.8736 7.56313 21.5695 7.3931 21.3579C7.18383 21.0891 6.74786 21.0714 6.69554 21.0714C6.65631 21.0714 6.22469 21.0891 5.99798 21.3579C5.82795 21.5695 5.7146 21.8736 5.65792 22.1205L5.09116 24.4433L4.35872 21.6048C4.35872 21.6048 4.30204 21.3006 4.07534 21.0891C3.71784 20.7629 3.19031 20.8422 3.19031 20.8422L4.58543 26.1535C4.58543 26.1535 5.03884 26.1932 5.26555 26.0786C5.56637 25.9243 5.71896 25.8141 5.88899 25.0869C6.05902 24.4389 6.51243 22.5524 6.54731 22.4202C6.56475 22.3629 6.60399 22.191 6.71734 22.191C6.83069 22.191 6.86993 22.3453 6.88737 22.4202C6.92661 22.5524 7.37566 24.4389 7.54569 25.0869C7.73316 25.8097 7.86395 25.9243 8.16914 26.0786C8.39584 26.1932 8.84926 26.1535 8.84926 26.1535L10.2357 20.8422C10.2357 20.8422 9.70813 20.7673 9.35063 21.0891Z" fill="white"/>
<path d="M11.5131 21.6973C11.5131 21.6973 11.4171 21.8295 11.2297 21.9441C11.0989 22.019 10.9855 22.0587 10.8547 22.1336C10.628 22.2482 10.5714 22.3628 10.5714 22.5347V22.592V22.8785V22.9358V26.1358C10.5714 26.1358 10.9288 26.1755 11.1556 26.0609C11.4564 25.9066 11.5131 25.7568 11.5131 25.1088V21.9088V21.6973Z" fill="white"/>
<path d="M14.9791 23.5087L16.7491 20.8597C16.7491 20.8597 16.0167 20.7275 15.6374 21.0713C15.3933 21.2829 15.1491 21.6795 15.1491 21.6795L14.5082 22.6316C14.469 22.6889 14.4341 22.7286 14.3774 22.7286C14.3208 22.7286 14.2641 22.6713 14.2466 22.6316L13.6058 21.6795C13.6058 21.6795 13.3442 21.3005 13.1175 21.0713C12.7425 20.7275 12.0057 20.8597 12.0057 20.8597L13.7191 23.5043L11.9665 26.149C11.9665 26.149 12.7382 26.2459 13.1175 25.9021C13.3616 25.6906 13.5883 25.3291 13.5883 25.3291L14.2292 24.3771C14.2684 24.3198 14.3033 24.2801 14.36 24.2801C14.4167 24.2801 14.4733 24.3374 14.4908 24.3771L15.1317 25.3291C15.1317 25.3291 15.3758 25.6906 15.6025 25.9021C15.9775 26.2459 16.7317 26.149 16.7317 26.149L14.9791 23.5087Z" fill="white"/>
</g>
<path d="M29.5 20.4073C34.8663 20.4073 39.2166 15.9509 39.2166 10.4537C39.2166 4.95641 34.8663 0.5 29.5 0.5C24.1337 0.5 19.7834 4.95641 19.7834 10.4537C19.7834 15.9509 24.1337 20.4073 29.5 20.4073Z" fill="#434C62"/>
<g clip-path="url(#clip2_4305_21462)">
<mask id="mask0_4305_21462" style="mask-type:luminance" maskUnits="userSpaceOnUse" x="21" y="2" width="17" height="17">
<path d="M21.6334 2.5H37.3667V18.5H21.6334V2.5Z" fill="white"/>
</mask>
<g mask="url(#mask0_4305_21462)">
<path d="M34.1928 7.95063C34.6069 8.71895 34.8425 9.60066 34.8425 10.5386C34.8425 12.5287 33.7819 14.2662 32.2049 15.2013L33.8251 10.4375C34.1277 9.6679 34.2285 9.05253 34.2285 8.50536C34.2285 8.30676 34.2156 8.12244 34.1928 7.95063ZM30.2691 8.00936C30.5884 7.99228 30.8762 7.95812 30.8762 7.95812C31.162 7.92371 31.1283 7.49653 30.8424 7.51355C30.8424 7.51355 29.9832 7.58212 29.4285 7.58212C28.9073 7.58212 28.0315 7.51355 28.0315 7.51355C27.7454 7.49653 27.7119 7.94091 27.9978 7.95812C27.9978 7.95812 28.2684 7.99228 28.5542 8.00936L29.3806 10.3122L28.2196 13.8527L26.288 8.00936C26.6076 7.99228 26.895 7.95812 26.895 7.95812C27.1807 7.92371 27.147 7.49653 26.8611 7.51355C26.8611 7.51355 26.0021 7.58212 25.4474 7.58212C25.3479 7.58212 25.2306 7.57964 25.106 7.57558C26.0545 6.1112 27.6848 5.14415 29.5381 5.14415C30.919 5.14415 32.1764 5.6811 33.1201 6.56047C33.0972 6.55907 33.0749 6.55615 33.0514 6.55615C32.5303 6.55615 32.1606 7.01774 32.1606 7.51355C32.1606 7.95812 32.4128 8.33425 32.6817 8.77875C32.8834 9.13806 33.119 9.59958 33.119 10.2665C33.119 10.7282 32.9444 11.264 32.7154 12.0104L32.1861 13.8082L30.2691 8.00936ZM29.5381 15.9334C29.0174 15.9334 28.5148 15.8558 28.0395 15.7136L29.6312 11.0104L31.2616 15.5532C31.2723 15.5799 31.2855 15.6045 31.2996 15.6276C30.7482 15.825 30.1558 15.9334 29.5381 15.9334ZM24.2336 10.5386C24.2336 9.75647 24.3985 9.01406 24.6929 8.3432L27.2233 15.3935C25.4536 14.5192 24.2336 12.6738 24.2336 10.5386ZM29.5381 4.53876C26.2848 4.53876 23.6381 7.23025 23.6381 10.5386C23.6381 13.847 26.2848 16.5388 29.5381 16.5388C32.7912 16.5388 35.4381 13.847 35.4381 10.5386C35.4381 7.23025 32.7912 4.53876 29.5381 4.53876Z" fill="white"/>
</g>
</g>
<path d="M49.0499 33.4073C54.4162 33.4073 58.7664 28.9509 58.7664 23.4537C58.7664 17.9564 54.4162 13.5 49.0499 13.5C43.6836 13.5 39.3333 17.9564 39.3333 23.4537C39.3333 28.9509 43.6836 33.4073 49.0499 33.4073Z" fill="#434C62"/>
<path d="M49.1667 30.1421C52.7738 30.1421 55.698 27.1683 55.698 23.5C55.698 19.8317 52.7738 16.8579 49.1667 16.8579C45.5595 16.8579 42.6353 19.8317 42.6353 23.5C42.6353 27.1683 45.5595 30.1421 49.1667 30.1421Z" fill="white"/>
<path d="M51.0852 22.7112L50.4933 24.6084C50.4933 24.4631 50.0851 21.3164 50.0851 21.3164C49.1462 21.3164 48.6482 21.9931 48.387 22.7112L47.6644 24.6125C47.6644 24.4756 47.5624 22.7279 47.5624 22.7279C47.5275 22.3495 47.3574 21.9973 47.0844 21.7379C46.8113 21.4786 46.4541 21.3301 46.0806 21.3206L46.848 26.0863C47.8277 26.0863 48.3584 25.4096 48.6319 24.6914L49.2442 23.0724C49.2442 23.1388 49.6524 26.0863 49.6524 26.0863C50.053 26.0857 50.4431 25.9555 50.766 25.7144C51.089 25.4733 51.328 25.1339 51.4486 24.7454L52.8365 21.3164C51.8568 21.3164 51.3424 21.9931 51.0812 22.7112H51.0852Z" fill="#434C62"/>
<path d="M24.6194 60.5001V55.4427L13.9897 42.8281C12.2071 40.6117 15.0652 37.4724 17.3765 39.1561L24.6193 45.6826C24.6193 45.6826 24.6107 21.0659 24.6082 20.4346C24.5948 17.0661 29.7548 17.0676 29.7548 20.4359V37.1371V34.7464C29.7548 31.4062 34.8559 31.4208 34.8559 34.7464V36.0118V35.9967C34.8559 32.6542 39.9569 32.7592 39.9569 36.1217V40.0129V37.7472C39.9569 34.3865 45.0879 34.4403 45.0879 37.9973L45.0932 48.0121C45.0932 50.0781 44.335 52.0687 42.9692 53.589L41.2801 55.4429L41.2766 60.5001H24.6194Z" fill="#FFE3CB"/>
</g>
<defs>
<clipPath id="clip0_4305_21462">
<rect width="59" height="60" fill="white" transform="translate(0 0.5)"/>
</clipPath>
<clipPath id="clip1_4305_21462">
<rect width="13.5588" height="5.33333" fill="white" transform="translate(3.19031 20.8333)"/>
</clipPath>
<clipPath id="clip2_4305_21462">
<rect width="15.7333" height="16" fill="white" transform="translate(21.6334 2.5)"/>
</clipPath>
</defs>
</svg>
