<svg width="60" height="60" viewBox="0 0 60 60" fill="none" xmlns="http://www.w3.org/2000/svg">
<path d="M60 16.8411V49.1952C60 51.862 57.8378 54.0242 55.171 54.0242H4.82897C2.16217 54.0242 0 51.862 0 49.1952V16.8411H60Z" fill="#FEF3D8"/>
<path d="M15.3515 23.2843C15.3485 23.2763 15.3452 23.2683 15.342 23.2603C15.1795 22.8656 14.7991 22.6107 14.3725 22.6107H14.3712C13.9439 22.6113 13.5634 22.8671 13.4019 23.2625C13.3992 23.2691 13.3966 23.2755 13.3942 23.2821L10.5846 30.6586C10.4118 31.1122 10.6396 31.62 11.0931 31.7928C11.5466 31.9656 12.0545 31.738 12.2273 31.2843L12.7115 30.0132H16.0122L16.4909 31.2818C16.6236 31.6337 16.9581 31.8506 17.3133 31.8506C17.4164 31.8506 17.5213 31.8323 17.6235 31.7938C18.0776 31.6224 18.3068 31.1154 18.1354 30.6611L15.3515 23.2843ZM13.3808 28.2555L14.3693 25.6603L15.3488 28.2555H13.3808Z" fill="#434C62"/>
<path d="M47.4974 26.6663C47.7788 26.2508 47.9434 25.7501 47.9434 25.2115C47.9434 23.7774 46.7768 22.6108 45.3428 22.6108H43.1693C42.6838 22.6108 42.2904 23.0042 42.2904 23.4897V30.9717C42.2904 31.2054 42.3835 31.4294 42.549 31.5943C42.7138 31.7584 42.9369 31.8506 43.1693 31.8506H43.1728C43.1729 31.8506 45.2346 31.8424 45.7224 31.8424C47.3175 31.8424 48.6154 30.5446 48.6154 28.9493C48.6153 28.0224 48.1772 27.196 47.4974 26.6663ZM44.0481 24.3685H45.3427C45.8074 24.3685 46.1855 24.7467 46.1855 25.2113C46.1855 25.676 45.8073 26.0542 45.3427 26.0542C45.1852 26.0542 44.8908 26.055 44.5682 26.0562H44.0481V24.3685ZM45.7222 30.0845C45.4472 30.0845 44.6731 30.0871 44.0481 30.0894V27.8161C44.219 27.8154 44.3983 27.8147 44.5698 27.8141H45.7222C46.3481 27.8141 46.8574 28.3234 46.8574 28.9493C46.8574 29.5752 46.3481 30.0845 45.7222 30.0845Z" fill="#434C62"/>
<path d="M21.2073 56.1654H7.8873C7.23164 56.1654 6.7002 55.6339 6.7002 54.9783V39.2439C6.7002 38.5882 7.23164 38.0568 7.8873 38.0568H21.2072C21.8629 38.0568 22.3943 38.5882 22.3943 39.2439V54.9783C22.3944 55.6338 21.8629 56.1654 21.2073 56.1654Z" fill="url(#paint0_linear_4305_21491)"/>
<path d="M52.1127 56.1654H38.7928C38.1372 56.1654 37.6057 55.6339 37.6057 54.9783V39.2439C37.6057 38.5882 38.1372 38.0568 38.7928 38.0568H52.1127C52.7684 38.0568 53.2998 38.5882 53.2998 39.2439V54.9783C53.2998 55.6338 52.7684 56.1654 52.1127 56.1654Z" fill="url(#paint1_linear_4305_21491)"/>
<path d="M30 20.0349C29.5145 20.0349 29.1211 20.4283 29.1211 20.9138V48.6C29.1211 49.0855 29.5145 49.4789 30 49.4789C30.4855 49.4789 30.8789 49.0855 30.8789 48.6V20.9138C30.8789 20.4283 30.4855 20.0349 30 20.0349Z" fill="#434C62"/>
<path d="M41.9109 43.5098H45.8278C46.3132 43.5098 46.7067 43.1163 46.7067 42.6309C46.7067 42.1455 46.3132 41.752 45.8278 41.752H41.9109C41.4256 41.752 41.032 42.1455 41.032 42.6309C41.032 43.1163 41.4256 43.5098 41.9109 43.5098Z" fill="#F4FBFF"/>
<path d="M41.9109 47.9404H48.7662C49.2516 47.9404 49.6451 47.5469 49.6451 47.0615C49.6451 46.5761 49.2516 46.1826 48.7662 46.1826H41.9109C41.4256 46.1826 41.032 46.5761 41.032 47.0615C41.032 47.5469 41.4256 47.9404 41.9109 47.9404Z" fill="#F4FBFF"/>
<path d="M48.7662 49.8213H41.9109C41.4256 49.8213 41.032 50.2148 41.032 50.7002C41.032 51.1856 41.4256 51.5791 41.9109 51.5791H48.7662C49.2516 51.5791 49.6451 51.1856 49.6451 50.7002C49.6451 50.2148 49.2516 49.8213 48.7662 49.8213Z" fill="#F4FBFF"/>
<path d="M10.9318 43.5098H14.8487C15.3341 43.5098 15.7276 43.1163 15.7276 42.6309C15.7276 42.1455 15.3341 41.752 14.8487 41.752H10.9318C10.4464 41.752 10.0529 42.1455 10.0529 42.6309C10.0529 43.1163 10.4464 43.5098 10.9318 43.5098Z" fill="#F4FBFF"/>
<path d="M10.9318 47.9404H17.7871C18.2724 47.9404 18.666 47.5469 18.666 47.0615C18.666 46.5761 18.2724 46.1826 17.7871 46.1826H10.9318C10.4464 46.1826 10.0529 46.5761 10.0529 47.0615C10.0529 47.5469 10.4464 47.9404 10.9318 47.9404Z" fill="#F4FBFF"/>
<path d="M17.7871 49.8213H10.9318C10.4464 49.8213 10.0529 50.2148 10.0529 50.7002C10.0529 51.1856 10.4464 51.5791 10.9318 51.5791H17.7871C18.2724 51.5791 18.666 51.1856 18.666 50.7002C18.666 50.2148 18.2726 49.8213 17.7871 49.8213Z" fill="#F4FBFF"/>
<path d="M60 10.8048V16.841H0V10.8048C0 8.138 2.16217 5.97583 4.82897 5.97583H55.171C57.8378 5.97583 60 8.138 60 10.8048Z" fill="#434C62"/>
<path d="M5.52312 14.0946C4.02529 14.0946 2.80682 12.876 2.80682 11.3783C2.80682 9.88058 4.02529 8.66199 5.52312 8.66199C7.02095 8.66199 8.23942 9.88058 8.23942 11.3783C8.23942 12.876 7.02095 14.0946 5.52312 14.0946Z" fill="url(#paint2_linear_4305_21491)"/>
<path d="M13.2797 14.1247C11.7818 14.1247 10.5634 12.9061 10.5634 11.4084C10.5634 9.91073 11.7818 8.69214 13.2797 8.69214C14.7775 8.69214 15.9959 9.91073 15.9959 11.4084C15.9959 12.9061 14.7775 14.1247 13.2797 14.1247Z" fill="url(#paint3_linear_4305_21491)"/>
<path d="M21.006 14.1247C19.5082 14.1247 18.2897 12.9061 18.2897 11.4084C18.2897 9.91073 19.5082 8.69214 21.006 8.69214C22.5039 8.69214 23.7223 9.91073 23.7223 11.4084C23.7223 12.9061 22.5039 14.1247 21.006 14.1247Z" fill="white"/>
<path d="M54.5674 14.1247H28.8531C27.3553 14.1247 26.1368 12.9061 26.1368 11.4084C26.1368 9.91073 27.3553 8.69214 28.8531 8.69214H54.5674C56.0653 8.69214 57.2837 9.91073 57.2837 11.4084C57.2837 12.9061 56.0653 14.1247 54.5674 14.1247Z" fill="#F5F5F5"/>
<defs>
<linearGradient id="paint0_linear_4305_21491" x1="7.8212" y1="40.2423" x2="23.8916" y2="41.2087" gradientUnits="userSpaceOnUse">
<stop stop-color="#FFCA41"/>
<stop offset="1" stop-color="#FFDA7A"/>
</linearGradient>
<linearGradient id="paint1_linear_4305_21491" x1="45.4528" y1="38.0568" x2="45.4528" y2="56.1654" gradientUnits="userSpaceOnUse">
<stop stop-color="#FF8B20"/>
<stop offset="1" stop-color="#FDB572"/>
</linearGradient>
<linearGradient id="paint2_linear_4305_21491" x1="3.19487" y1="9.31765" x2="8.75108" y2="9.70318" gradientUnits="userSpaceOnUse">
<stop stop-color="#FFCA41"/>
<stop offset="1" stop-color="#FFDA7A"/>
</linearGradient>
<linearGradient id="paint3_linear_4305_21491" x1="13.2797" y1="8.69214" x2="13.2797" y2="14.1247" gradientUnits="userSpaceOnUse">
<stop stop-color="#FF8B20"/>
<stop offset="1" stop-color="#FDB572"/>
</linearGradient>
</defs>
</svg>
