<svg width="485" height="280" viewBox="0 0 485 280" fill="none" xmlns="http://www.w3.org/2000/svg">
<g clip-path="url(#clip0_4410_15608)">
<path d="M181.993 184.874C178.2 182.843 174.982 183.821 171.409 187.583C173.042 178.446 172.986 167.365 165.742 165.5C158.281 163.571 154.054 168.217 149.681 179.444C149.846 169.81 147.941 157.384 139.964 156.879C130.992 156.311 128.027 163.69 125.799 180.055C123.011 170.902 115.309 154.872 106.259 158.05C97.3862 161.162 97.958 169.715 102.887 187.153C98.0251 179.625 88.2965 168.434 81.7858 172.689C75.5907 176.727 77.2863 183.308 84.1519 195.537C79.6209 193.565 74.9084 193.372 71.1385 197.095C62.6758 205.455 66.7455 213.373 78.4891 228.071C90.2328 242.768 174.591 216.769 178.594 210.12C182.597 203.471 188.887 188.557 181.993 184.874Z" fill="white" stroke="url(#paint0_linear_4410_15608)" stroke-width="2" stroke-linecap="round" stroke-linejoin="round"/>
<path d="M182.656 209.844L182.723 209.627L69.285 209.978L69.356 210.195C66.3809 210.775 63.746 212.484 62.0042 214.965C60.2624 217.446 59.5491 220.505 60.0139 223.5L68.5042 278.228L183.504 277.877L191.998 223.149C192.462 220.154 191.748 217.096 190.006 214.615C188.265 212.135 185.631 210.425 182.656 209.844Z" fill="#FEBA92"/>
<path d="M368.48 190.115C366.719 190.116 364.96 190.218 363.212 190.422C353.795 177.409 342.986 166.367 331.628 159.356C302.052 141.141 261.435 146.342 223.526 160.377C197.471 170.019 164.445 201.062 143.268 223.078C115.664 225.153 94.4444 243.943 95.7181 265.439C95.9985 270.057 97.291 274.556 99.5039 278.618L192.152 279.233C192.313 278.985 192.467 278.729 192.621 278.476L330.031 278.003C330.181 278.212 330.335 278.397 330.489 278.618L406.566 278.488C413.609 269.154 417.841 257.193 417.841 244.133C417.829 214.296 395.729 190.115 368.48 190.115Z" fill="url(#paint1_linear_4410_15608)"/>
<path d="M334.322 161.107C299.359 182.776 267.922 183.253 247.601 179.767C228.743 176.534 215.162 169.258 210.718 166.43C209.963 166.856 209.207 167.293 208.45 167.74C212.074 170.236 226.271 178.43 246.777 182.023C253.454 183.196 260.22 183.785 266.999 183.786C273.928 183.782 280.844 183.171 287.667 181.96C304.229 179.018 320.646 172.495 336.42 162.578C335.71 162.073 335.011 161.583 334.322 161.107Z" fill="white"/>
<path d="M330.698 198.408C336.258 190.6 343.135 186.211 351.145 185.359C354.046 185.048 356.98 185.231 359.82 185.899C359.081 184.945 358.335 184.005 357.58 183.08C355.406 182.799 353.207 182.77 351.026 182.993C345.005 183.608 336.258 186.542 328.785 197.036C328.604 197.292 328.532 197.609 328.584 197.918C328.637 198.227 328.81 198.503 329.065 198.684C329.265 198.827 329.505 198.905 329.751 198.905C329.937 198.902 330.119 198.856 330.284 198.77C330.448 198.683 330.59 198.559 330.698 198.408Z" fill="white"/>
<path d="M331.124 226.123H331.147C331.458 226.123 331.756 226.001 331.977 225.783C332.198 225.566 332.325 225.27 332.33 224.959C332.397 221.481 333.801 213.614 338.64 206.196C344.255 197.58 352.517 192.268 363.184 190.387C362.667 189.677 362.147 188.967 361.607 188.265C350.959 190.434 342.343 196.152 336.644 204.903C331.853 212.257 330.047 220.282 329.941 224.916C329.937 225.073 329.966 225.23 330.024 225.376C330.082 225.522 330.168 225.655 330.279 225.768C330.389 225.88 330.52 225.97 330.665 226.03C330.81 226.091 330.966 226.123 331.124 226.123Z" fill="white"/>
<path d="M164.043 214.462C159.566 214.276 155.082 214.62 150.686 215.487C149.495 216.681 148.329 217.864 147.188 219.036C151.562 216.635 176.484 213.642 186.777 225.346C186.888 225.471 187.025 225.57 187.178 225.638C187.331 225.706 187.497 225.741 187.664 225.74C187.954 225.742 188.235 225.637 188.453 225.445C188.688 225.237 188.831 224.945 188.851 224.633C188.871 224.32 188.766 224.012 188.559 223.776C181.93 216.233 170.352 214.706 164.043 214.462Z" fill="white"/>
<path d="M184.32 231.399C170.384 220.886 153.052 220.259 145.702 220.539L143.257 223.067C147.468 222.723 167.647 221.781 182.892 233.288C183.143 233.477 183.458 233.559 183.769 233.516C184.08 233.473 184.361 233.308 184.551 233.057C184.74 232.807 184.822 232.491 184.779 232.18C184.736 231.869 184.571 231.588 184.32 231.399Z" fill="white"/>
<path d="M368.48 190.115C366.719 190.116 364.96 190.218 363.212 190.422C353.795 177.409 342.986 166.367 331.628 159.356C302.052 141.141 261.435 146.342 223.526 160.377C197.471 170.019 164.445 201.062 143.268 223.078C115.664 225.153 94.4444 243.943 95.7181 265.439C95.9985 270.057 97.291 274.556 99.5039 278.618L192.152 279.233C192.313 278.985 192.467 278.729 192.621 278.476L330.031 278.003C330.181 278.212 330.335 278.397 330.489 278.618L406.566 278.488C413.609 269.154 417.841 257.193 417.841 244.133C417.829 214.296 395.729 190.115 368.48 190.115Z" stroke="#2C3449" stroke-width="2"/>
<path d="M124.198 278.228C124.198 278.228 137.121 239.976 173.519 246.92C209.917 253.865 259.707 268.783 259.707 268.783V278.37L124.198 278.228Z" fill="#FEF9EF" stroke="#2C3449" stroke-width="2" stroke-linecap="round" stroke-linejoin="round"/>
<path d="M411.574 136.957C410.687 136.465 409.927 135.772 409.355 134.934C408.783 134.096 408.416 133.136 408.282 132.13C407.887 128.747 410.159 114.172 413.802 112.137C417.446 110.102 434.135 101.052 437.215 101.261C440.295 101.47 441.592 128.234 411.574 136.957Z" fill="#FEF9EF"/>
<path d="M413.345 113.765C419.576 91.954 424.678 87.0838 427.616 89.2054C430.278 91.1298 424.856 105.027 423.278 112.239" fill="#FEF9EF"/>
<path d="M413.345 113.765C419.576 91.954 424.678 87.0838 427.616 89.2054C430.278 91.1298 424.856 105.027 423.278 112.239" stroke="#2C3449" stroke-width="2" stroke-linecap="round" stroke-linejoin="round"/>
<path d="M440.843 109.014C443.966 103.942 449.124 104.195 446.431 112.839C443.804 121.266 441.856 132.256 436.927 137.221C431.998 142.186 430.223 144.41 430.223 144.41C430.223 144.41 420.364 181.203 414.769 211.792C406.669 256.03 391.396 264.54 377.116 259.473C362.837 254.405 360.199 234.408 379.699 195.537C399.2 156.666 409.48 134.019 409.48 134.019" fill="#FEF9EF"/>
<path d="M440.843 109.014C443.966 103.942 449.124 104.195 446.431 112.839C443.804 121.266 441.856 132.256 436.927 137.221C431.998 142.186 430.223 144.41 430.223 144.41C430.223 144.41 420.364 181.203 414.769 211.792C406.669 256.03 391.396 264.54 377.116 259.473C362.837 254.405 360.199 234.408 379.699 195.537C399.2 156.666 409.48 134.019 409.48 134.019" stroke="#2C3449" stroke-width="2" stroke-linecap="round" stroke-linejoin="round"/>
<path d="M409.808 134.717C406.98 132.804 407.319 121.68 404.145 116.833C400.201 110.792 396.345 104.53 403.644 105.468C409.902 106.277 411.894 111.778 413.345 113.749" fill="#FEF9EF"/>
<path d="M409.808 134.717C406.98 132.804 407.319 121.68 404.145 116.833C400.201 110.792 396.345 104.53 403.644 105.468C409.902 106.277 411.894 111.778 413.345 113.749" stroke="#2C3449" stroke-width="2" stroke-linecap="round" stroke-linejoin="round"/>
<path d="M437.195 118.265C437.195 118.265 442.74 104.758 444.601 98.512C446.64 91.674 439.474 90.7118 436.02 100.503" fill="#FEF9EF"/>
<path d="M437.195 118.265C437.195 118.265 442.74 104.758 444.601 98.512C446.64 91.674 439.474 90.7118 436.02 100.503" stroke="#2C3449" stroke-width="2" stroke-linecap="round" stroke-linejoin="round"/>
<path d="M430.684 114.72C430.684 114.72 441.6 89.9862 436.718 87.7857C432.266 85.7785 428.87 94.8012 423.267 112.235" fill="#FEF9EF"/>
<path d="M430.684 114.72C430.684 114.72 441.6 89.9862 436.718 87.7857C432.266 85.7785 428.87 94.8012 423.267 112.235" stroke="#2C3449" stroke-width="2" stroke-linecap="round" stroke-linejoin="round"/>
<path d="M252.148 132.678L253.678 160.566C253.678 160.566 251.087 175.615 271.991 172.827C292.813 170.046 290.257 157.719 290.257 157.719L283.814 123.076L252.148 132.678Z" fill="#FEF9EF" stroke="#2C3449" stroke-width="2" stroke-linecap="round" stroke-linejoin="round"/>
<path d="M291.819 87.9435C291.819 87.9435 307.987 81.8785 308.618 98.7171C309.249 115.556 291.819 111.194 291.819 111.194" fill="#FEF9EF"/>
<path d="M291.819 87.9435C291.819 87.9435 307.987 81.8785 308.618 98.7171C309.249 115.556 291.819 111.194 291.819 111.194" stroke="#2C3449" stroke-width="2" stroke-linecap="round" stroke-linejoin="round"/>
<path d="M250.097 61.4629H277.851C281.93 61.4629 285.842 63.0832 288.726 65.9675C291.61 68.8517 293.231 72.7635 293.231 76.8424V109.431C293.231 117.844 289.889 125.913 283.94 131.862C277.991 137.81 269.923 141.153 261.51 141.153C257.344 141.153 253.219 140.332 249.37 138.738C245.522 137.144 242.025 134.807 239.079 131.862C236.134 128.916 233.797 125.419 232.203 121.57C230.609 117.722 229.788 113.597 229.788 109.431V81.7678C229.788 76.3826 231.927 71.218 235.735 67.4101C239.543 63.6022 244.708 61.4629 250.093 61.4629H250.097Z" fill="#FEF9EF" stroke="#2C3449" stroke-width="2" stroke-linecap="round" stroke-linejoin="round"/>
<path d="M300.613 124.468C300.623 117.563 299.976 110.673 298.681 103.891C298.681 103.761 298.681 103.623 298.681 103.497C298.675 102.306 298.2 101.165 297.358 100.323C296.516 99.4815 295.376 99.0062 294.185 99.001V103.497L294.303 107.992C295.215 107.964 296.097 107.659 296.831 107.117C298.286 116.187 301.169 143.231 289.035 166.221C286.807 170.437 284.717 174.333 282.698 178.099C271.262 199.441 263.69 213.539 263.868 226.131C263.868 226.444 263.992 226.745 264.214 226.967C264.436 227.189 264.737 227.314 265.051 227.314C265.364 227.314 265.665 227.189 265.887 226.967C266.109 226.745 266.234 226.444 266.234 226.131C266.064 214.154 273.513 200.269 284.768 179.251C286.791 175.485 288.881 171.584 291.109 167.361C299.075 152.277 300.672 135.715 300.613 124.468Z" fill="url(#paint2_linear_4410_15608)"/>
<path d="M226.704 108.465C227.258 108.777 227.873 108.967 228.507 109.021V100.077C227.504 100.169 226.56 100.594 225.828 101.286C225.096 101.977 224.617 102.895 224.468 103.891C224.338 104.085 224.268 104.315 224.267 104.549C224.267 106.348 224.267 148.834 236.886 168.004C249.79 187.642 253.78 198.826 254.668 217.869C254.682 218.173 254.813 218.46 255.033 218.67C255.253 218.88 255.546 218.997 255.851 218.997H255.906C256.219 218.982 256.514 218.844 256.725 218.613C256.937 218.381 257.048 218.076 257.034 217.762C256.123 198.219 252.049 186.767 238.87 166.71C228.818 151.433 227.024 119.562 226.704 108.465Z" fill="url(#paint3_linear_4410_15608)"/>
<path d="M251.809 90.4041L252.227 115.977C252.227 115.977 254.112 118.698 257.144 113.154" stroke="#2C3449" stroke-width="2" stroke-linecap="round" stroke-linejoin="round"/>
<path d="M251.809 121.416C254.112 124.109 259.522 123.667 264.885 120.162C264.885 120.162 266.975 127.011 256.568 128.049" stroke="#2C3449" stroke-width="2" stroke-linecap="round" stroke-linejoin="round"/>
<path d="M261.876 82.1662C262.192 82.0873 265.563 77.225 270.741 81.3775" stroke="#2C3449" stroke-width="2" stroke-linecap="round" stroke-linejoin="round"/>
<path d="M270.741 100.969C271.824 100.969 272.701 99.6109 272.701 97.9361C272.701 96.2613 271.824 94.9036 270.741 94.9036C269.659 94.9036 268.781 96.2613 268.781 97.9361C268.781 99.6109 269.659 100.969 270.741 100.969Z" fill="#2C3449"/>
<path d="M242.072 101.75C243.155 101.75 244.032 100.392 244.032 98.7171C244.032 97.0423 243.155 95.6846 242.072 95.6846C240.99 95.6846 240.112 97.0423 240.112 98.7171C240.112 100.392 240.99 101.75 242.072 101.75Z" fill="#2C3449"/>
<path d="M235.806 81.9415C236.121 81.8745 240.392 76.0263 244.695 81.5472" stroke="#2C3449" stroke-width="2" stroke-linecap="round" stroke-linejoin="round"/>
<path d="M269.416 54.5699C261.738 54.6685 255.91 55.055 252.416 55.6938C224.192 62.1138 228.755 83.03 228.755 83.03C228.755 83.03 242.557 85.6603 253.792 69.0267C253.792 69.0267 269.223 81.6182 292.044 86.6895C292.411 86.6028 292.832 86.4884 293.227 86.3622V87.5176C295.107 87.0181 297.053 86.8145 298.996 86.9143C298.744 78.6685 297.269 68.2775 290.474 61.5696C285.667 56.8059 278.569 54.4477 269.416 54.5699Z" fill="#2C3449"/>
<path d="M335.735 41.4953C327.444 17.771 303.898 4.42506 283.155 11.6811C266.105 17.6433 256.417 35.0768 258.043 54.479C261.165 53.9279 265.94 54.196 272.565 54.112C280.923 54.0044 287.447 56.2058 291.96 60.6589C298.346 66.974 299.643 76.5726 299.831 84.027C302.92 84.8638 310.105 88.0806 310.508 96.1149C310.532 96.7602 309.967 101.694 310.105 101.677C310.084 103.625 310.613 105.539 311.631 107.199C313.943 110.93 318.658 113.249 325.652 114.062H325.77C326.037 114.077 326.3 113.986 326.5 113.808C326.7 113.63 326.821 113.38 326.837 113.112C326.853 112.845 326.761 112.582 326.583 112.382C326.405 112.182 326.155 112.061 325.888 112.045C319.552 111.299 315.338 109.316 313.362 106.147C312.663 105.015 312.249 103.73 312.155 102.403C313.883 104.42 316.86 106.594 321.606 106.594C322.857 106.587 324.103 106.451 325.326 106.187C325.46 106.165 325.588 106.116 325.702 106.043C325.817 105.97 325.915 105.874 325.992 105.762C326.069 105.65 326.122 105.524 326.148 105.391C326.175 105.258 326.175 105.121 326.147 104.988C326.119 104.855 326.065 104.729 325.988 104.618C325.91 104.506 325.811 104.411 325.696 104.339C325.581 104.267 325.453 104.219 325.319 104.197C325.185 104.176 325.048 104.182 324.916 104.215C318.803 105.485 315.388 103.156 313.631 101.079C315.008 100.777 316.366 100.392 317.697 99.9261C338.44 92.6868 344.027 65.2162 335.735 41.4953Z" fill="#2C3449"/>
<path d="M272.468 113.15C280.44 113.15 286.902 106.688 286.902 98.7168C286.902 90.7456 280.44 84.2837 272.468 84.2837C264.497 84.2837 258.035 90.7456 258.035 98.7168C258.035 106.688 264.497 113.15 272.468 113.15Z" stroke="#2C3449" stroke-width="2" stroke-linecap="round" stroke-linejoin="round"/>
<path d="M248.303 98.3264H257.72" stroke="#2C3449" stroke-width="2" stroke-linecap="round" stroke-linejoin="round"/>
<path d="M285.088 91.7092L293.231 87.1072" stroke="#2C3449" stroke-width="2" stroke-linecap="round" stroke-linejoin="round"/>
<path d="M233.4 113.15C241.372 113.15 247.834 106.688 247.834 98.7168C247.834 90.7456 241.372 84.2837 233.4 84.2837C225.429 84.2837 218.967 90.7456 218.967 98.7168C218.967 106.688 225.429 113.15 233.4 113.15Z" stroke="#2C3449" stroke-width="2" stroke-linecap="round" stroke-linejoin="round"/>
<path d="M332.658 263.475H324.459L320.429 203.822C320.265 201.776 319.344 199.865 317.846 198.462C316.349 197.059 314.381 196.265 312.329 196.235H198.051C197.074 196.221 196.105 196.412 195.206 196.795C194.307 197.179 193.498 197.746 192.832 198.461C192.166 199.175 191.656 200.022 191.337 200.945C191.017 201.868 190.894 202.849 190.977 203.822L195.437 269.864C195.6 271.91 196.52 273.822 198.018 275.225C199.516 276.628 201.484 277.422 203.537 277.451L332.658 277.285C333.219 277.285 333.775 277.175 334.293 276.96C334.812 276.745 335.283 276.43 335.68 276.033C336.077 275.636 336.392 275.165 336.607 274.646C336.822 274.128 336.932 273.572 336.932 273.011V267.75C336.932 267.189 336.822 266.633 336.607 266.114C336.392 265.595 336.077 265.124 335.68 264.727C335.283 264.33 334.812 264.015 334.293 263.801C333.775 263.586 333.219 263.475 332.658 263.475Z" fill="url(#paint4_linear_4410_15608)" stroke="#2C3449" stroke-width="2"/>
<path d="M263.276 235.682C261.638 233.983 259.514 232.833 257.195 232.389C257.571 231.85 257.799 231.222 257.858 230.567C257.949 229.541 257.65 228.518 257.021 227.703C256.391 226.887 255.478 226.338 254.463 226.166C254.419 226.166 254.372 226.166 254.329 226.166C253.887 224.537 253.055 221.872 252.1 220.732C251.925 220.519 251.684 220.372 251.415 220.313C251.146 220.255 250.865 220.288 250.618 220.409C250.51 220.469 250.418 220.554 250.349 220.657C250.28 220.76 250.236 220.878 250.221 221.001C250.206 221.123 250.221 221.248 250.263 221.364C250.305 221.481 250.374 221.586 250.464 221.67C251.091 222.42 251.856 224.754 252.333 226.533C251.786 226.824 251.322 227.249 250.984 227.768C250.646 228.287 250.445 228.884 250.401 229.502C250.355 230.081 250.431 230.663 250.623 231.21C250.816 231.758 251.122 232.259 251.521 232.681C250.82 232.903 250.149 233.209 249.521 233.592C245.412 236.143 244.908 241.222 248.394 244.933C251.88 248.644 258.039 249.586 262.148 247.035C266.257 244.483 266.766 239.392 263.276 235.682Z" fill="white"/>
<path d="M261.545 220.539C261.545 220.539 255.63 219.356 254.841 224.281C254.857 224.289 259.506 225.957 261.545 220.539Z" fill="white"/>
<path d="M2.13168 278.61H482.868" stroke="#2C3449" stroke-width="2" stroke-linecap="round" stroke-linejoin="round"/>
</g>
<defs>
<linearGradient id="paint0_linear_4410_15608" x1="125.856" y1="156.849" x2="125.856" y2="232.504" gradientUnits="userSpaceOnUse">
<stop stop-color="#FF8B20"/>
<stop offset="1" stop-color="#FDB572"/>
</linearGradient>
<linearGradient id="paint1_linear_4410_15608" x1="118.676" y1="163.541" x2="440.481" y2="218.219" gradientUnits="userSpaceOnUse">
<stop stop-color="#FFCA41"/>
<stop offset="1" stop-color="#FFDA7A"/>
</linearGradient>
<linearGradient id="paint2_linear_4410_15608" x1="282.24" y1="99.001" x2="282.24" y2="227.314" gradientUnits="userSpaceOnUse">
<stop stop-color="#FF8B20"/>
<stop offset="1" stop-color="#FDB572"/>
</linearGradient>
<linearGradient id="paint3_linear_4410_15608" x1="240.651" y1="100.077" x2="240.651" y2="218.997" gradientUnits="userSpaceOnUse">
<stop stop-color="#FF8B20"/>
<stop offset="1" stop-color="#FDB572"/>
</linearGradient>
<linearGradient id="paint4_linear_4410_15608" x1="263.942" y1="196.234" x2="263.942" y2="277.451" gradientUnits="userSpaceOnUse">
<stop stop-color="#FF8B20"/>
<stop offset="1" stop-color="#FDB572"/>
</linearGradient>
<clipPath id="clip0_4410_15608">
<rect width="483.103" height="279.695" fill="white" transform="translate(0.948639 0.0986328)"/>
</clipPath>
</defs>
</svg>
