<svg width="49" height="48" viewBox="0 0 49 48" fill="none" xmlns="http://www.w3.org/2000/svg">
<g clip-path="url(#clip0_4305_17927)">
<path d="M27.9088 16.304C27.1107 16.7007 26.7649 17.4412 26.7649 19.4511C26.7649 19.4511 27.1639 19.0544 27.8024 18.8164C28.2679 18.6445 28.6004 18.4197 28.8399 18.2478C29.5315 17.7321 29.6379 17.1106 29.6379 16.0263C29.6246 16.0263 28.5339 15.9602 27.9088 16.304Z" fill="#FBBD71"/>
<path d="M23.0274 16.7672C22.3357 17.3358 22.1628 18.3143 22.1628 18.3143L19.9283 26.83L18.0927 19.8614C17.9198 19.1209 17.574 18.2085 17.0553 17.5738C16.4168 16.7672 15.0867 16.7143 14.9271 16.7143C14.8074 16.7143 13.4906 16.7672 12.799 17.5738C12.2802 18.2085 11.9344 19.1209 11.7615 19.8614L10.0324 26.83L7.79782 18.3143C7.79782 18.3143 7.62491 17.4019 6.93326 16.7672C5.84258 15.7887 4.23317 16.0267 4.23317 16.0267L8.48947 31.9606C8.48947 31.9606 9.87276 32.0796 10.5644 31.7358C11.4822 31.273 11.9477 30.9424 12.4664 28.7606C12.9852 26.8168 14.3685 21.1573 14.4749 20.7606C14.5281 20.5887 14.6478 20.073 14.9936 20.073C15.3394 20.073 15.4592 20.5358 15.5124 20.7606C15.6321 21.1573 17.0021 26.8168 17.5208 28.7606C18.0927 30.9292 18.4918 31.273 19.4228 31.7358C20.1145 32.0796 21.4978 31.9606 21.4978 31.9606L25.7275 16.0267C25.7275 16.0267 24.118 15.8019 23.0274 16.7672Z" fill="black"/>
<path d="M29.6246 18.5918C29.6246 18.5918 29.332 18.9885 28.7601 19.3323C28.361 19.5571 28.0152 19.6761 27.6162 19.9009C26.9245 20.2447 26.7516 20.5885 26.7516 21.1042V21.2761V22.1356V22.3075V31.9075C26.7516 31.9075 27.8423 32.0265 28.534 31.6827C29.4517 31.2199 29.6246 30.7703 29.6246 28.8265V19.2265V18.5918Z" fill="black"/>
<path d="M40.1989 24.0265L45.599 16.0794C45.599 16.0794 43.3645 15.6827 42.2073 16.7141C41.4624 17.3488 40.7176 18.5389 40.7176 18.5389L38.7624 21.3951C38.6426 21.567 38.5362 21.686 38.3633 21.686C38.1904 21.686 38.0175 21.5141 37.9643 21.3951L36.0091 18.5389C36.0091 18.5389 35.211 17.4017 34.5194 16.7141C33.3755 15.6827 31.1276 16.0794 31.1276 16.0794L36.3549 24.0133L31.0079 31.9472C31.0079 31.9472 33.3622 32.2381 34.5194 31.2067C35.2642 30.5719 35.9559 29.4876 35.9559 29.4876L37.9111 26.6314C38.0308 26.4595 38.1372 26.3405 38.3101 26.3405C38.483 26.3405 38.6559 26.5124 38.7092 26.6314L40.6644 29.4876C40.6644 29.4876 41.4092 30.5719 42.1009 31.2067C43.2448 32.2381 45.5458 31.9472 45.5458 31.9472L40.1989 24.0265Z" fill="black"/>
</g>
<defs>
<clipPath id="clip0_4305_17927">
<rect width="41.3659" height="16" fill="white" transform="translate(4.23318 16)"/>
</clipPath>
</defs>
</svg>
