<svg width="332" height="110" viewBox="0 0 332 110" fill="none" xmlns="http://www.w3.org/2000/svg">
<path d="M113 79.2171C113.028 78.6235 113.085 78.0581 113.085 77.4645C113.085 77.097 113.227 76.9274 113.567 76.8991C115.549 76.6447 117.504 76.3621 119.487 76.0794C121.47 75.7967 123.453 75.5423 125.464 75.2596C127.277 75.0052 129.09 74.7508 130.903 74.4964C132.886 74.2137 134.869 73.931 136.88 73.6484C138.664 73.394 140.449 73.1678 142.234 72.9134C144.216 72.6307 146.171 72.3481 148.154 72.0937C150.137 71.811 152.091 71.5283 154.074 71.2456C155.887 70.9912 157.7 70.7368 159.513 70.4824C161.496 70.1997 163.479 69.9453 165.49 69.6627C167.473 69.38 169.456 69.0973 171.467 68.8146C173.45 68.532 175.405 68.2775 177.387 67.9949C179.399 67.7122 181.382 67.4295 183.393 67.1468C185.376 66.8642 187.359 66.6098 189.37 66.3271C191.353 66.0444 193.336 65.7617 195.347 65.4791C197.33 65.1964 199.341 64.942 201.324 64.6593C203.108 64.4049 204.865 64.1505 206.649 63.8961C208.406 63.6417 210.134 63.4155 211.89 63.1611C213.08 62.9915 214.241 62.8502 215.431 62.6806C215.487 62.6806 215.572 62.6806 215.686 62.6523C215.686 62.8219 215.714 62.9915 215.714 63.1329C215.714 65.4791 215.714 67.8253 215.714 70.1715C215.714 70.5389 215.629 70.7085 215.233 70.7651C211.862 71.2174 208.491 71.6979 205.12 72.1502C202.287 72.5459 199.454 72.97 196.622 73.3657C193.279 73.8462 189.908 74.2985 186.565 74.7791C183.223 75.2596 179.852 75.7119 176.509 76.1924C173.365 76.6447 170.249 77.0687 167.105 77.521C164.045 77.945 161.014 78.3408 157.955 78.7931C154.499 79.2736 151.043 79.7824 147.587 80.263C144.556 80.687 141.525 81.0827 138.466 81.5067C134.982 81.9873 131.526 82.4961 128.042 82.9766C125.209 83.3724 122.376 83.7399 119.544 84.1356C117.561 84.4183 115.578 84.701 113.567 84.9837C113.255 85.0402 113.113 84.9554 113.113 84.6444C113.113 84.5314 113.057 84.39 113.028 84.277C113 82.5809 113 80.9131 113 79.2171Z" fill="#0089CF"/>
<path d="M121.385 25.0283C121.385 25.1696 121.356 25.3109 121.356 25.4523C121.356 27.9398 121.356 30.4556 121.356 32.9432C121.356 33.1128 121.385 33.2824 121.385 33.4803C122.178 33.2824 122.886 33.0845 123.623 32.9432C127.447 32.2365 131.158 32.5474 134.557 34.6675C137.673 36.6179 139.429 39.5012 140.081 43.0629C140.562 45.7201 140.421 48.349 139.599 50.9213C138.126 55.4441 134.982 58.1861 130.421 59.345C126.965 60.193 123.566 59.9952 120.308 58.497C116.343 56.6596 114.105 53.4936 113.312 49.2535C113.227 48.7164 113.198 48.1794 113.113 47.6423C113.085 47.5009 113.028 47.3596 113 47.2183C113 39.8122 113 32.4061 113 25C115.776 25.0283 118.58 25.0283 121.385 25.0283ZM132.064 46.2006C132.036 45.6353 131.979 45.0982 131.951 44.5328C131.809 43.1477 131.441 41.8192 130.761 40.6037C129.203 37.89 126.059 37.7204 124.104 39.0772C122.943 39.897 122.32 41.0842 121.923 42.3845C121.413 44.0523 121.3 45.7766 121.47 47.5009C121.583 48.8578 121.895 50.1298 122.518 51.3453C123.396 53.0131 124.982 54.3699 127.56 54.0307C129.118 53.8046 130.166 52.8435 130.903 51.5149C131.753 49.8754 132.036 48.0663 132.064 46.2006Z" fill="#0089CF"/>
<path d="M176.028 25.0283C176.028 25.1979 175.999 25.3675 175.999 25.5654C175.999 31.445 175.999 37.3529 175.999 43.2325C175.999 43.4304 176.028 43.6283 176.056 43.7979C176.084 43.7979 176.141 43.8262 176.169 43.8262C176.311 43.6566 176.453 43.5152 176.566 43.3456C178.691 40.1231 180.843 36.9006 182.94 33.6781C183.138 33.3672 183.365 33.2258 183.761 33.2258C186.877 33.2258 189.965 33.2258 193.081 33.2258C193.222 33.2258 193.392 33.2258 193.647 33.2258C192.797 34.2435 192.004 35.1763 191.239 36.1091C188.747 39.0772 186.226 42.0736 183.733 45.0417C183.308 45.5505 183.308 45.5505 183.733 46.0593C187.019 49.9602 190.333 53.8611 193.647 57.762C194.016 58.186 194.384 58.6383 194.809 59.1472C194.61 59.1754 194.497 59.1754 194.384 59.1754C191.268 59.1754 188.152 59.1754 185.036 59.1754C184.639 59.1754 184.413 59.0341 184.214 58.7231C181.665 54.9918 179.115 51.2888 176.538 47.5857C176.424 47.4444 176.311 47.3031 176.084 47.1617C176.056 47.3313 176.028 47.5009 176.028 47.6988C176.028 51.3171 176.028 54.9636 176.028 58.5818C176.028 59.1754 176.028 59.1754 175.433 59.1754C173.167 59.1754 170.901 59.1754 168.634 59.1754C168.068 59.1754 168.068 59.1754 168.068 58.5818C168.068 47.614 168.068 36.6745 168.068 25.7067C168.068 25.4805 168.04 25.2261 168.04 25C170.674 25.0283 173.365 25.0283 176.028 25.0283Z" fill="#0089CF"/>
<path d="M218.943 46.2572C218.915 46.5398 218.83 46.7942 218.83 47.0769C218.518 53.3523 214.808 58.073 208.604 59.4298C205.205 60.1648 201.89 59.9386 198.718 58.4122C195.29 56.801 193.137 54.0873 192.174 50.469C191.268 47.0769 191.438 43.7131 192.769 40.4623C194.469 36.3353 197.641 33.9325 201.947 32.9997C205.006 32.3495 208.066 32.4343 211.012 33.5933C215.204 35.2611 217.669 38.3705 218.603 42.7237C218.773 43.5152 218.802 44.335 218.887 45.1547C218.915 45.4091 218.972 45.6353 219 45.8897C218.943 46.031 218.943 46.1441 218.943 46.2572ZM210.615 46.031C210.587 45.6635 210.559 45.1265 210.502 44.5894C210.304 43.0064 209.907 41.48 208.972 40.1514C207.556 38.1444 205.035 37.8335 203.165 38.7663C201.89 39.4164 201.154 40.5189 200.644 41.8192C199.936 43.6 199.823 45.4657 199.964 47.3596C200.049 48.8012 200.389 50.1864 201.097 51.4867C202.315 53.6915 204.355 54.483 206.508 53.9459C207.839 53.635 208.746 52.7021 209.397 51.5432C210.332 49.9037 210.559 48.0663 210.615 46.031Z" fill="#0089CF"/>
<path d="M149.315 48.773C149.4 50.2429 150.052 51.3453 151.157 52.2216C152.46 53.2392 153.989 53.6632 155.576 53.7763C158.295 54.0025 160.958 53.6633 163.592 52.9C163.904 52.8152 163.989 52.9 164.045 53.211C164.329 54.7657 164.612 56.2921 164.952 57.8186C165.009 58.1012 164.924 58.2426 164.669 58.2991C163.139 58.6949 161.609 59.1471 160.051 59.4298C158.153 59.7973 156.199 59.8256 154.244 59.7125C150.76 59.5146 147.559 58.5253 145.038 55.9529C143.31 54.2003 142.347 52.0803 141.922 49.7058C141.327 46.3702 141.61 43.0912 143.055 39.9818C144.925 35.9678 148.041 33.5368 152.46 32.8301C154.782 32.4626 157.105 32.5757 159.315 33.3955C162.318 34.5262 164.244 36.7027 165.377 39.6426C166.368 42.2149 166.567 44.8721 166.283 47.614C166.255 47.9815 166.283 48.5186 166.085 48.6882C165.83 48.886 165.32 48.8012 164.952 48.8012C159.938 48.8012 154.952 48.8012 149.939 48.8012C149.769 48.773 149.57 48.773 149.315 48.773ZM154.103 43.3173C155.604 43.3173 157.105 43.3173 158.607 43.3173C158.947 43.3173 159.06 43.2043 159.032 42.8651C158.975 42.4976 158.947 42.1018 158.862 41.7344C158.465 39.9535 157.587 38.5401 155.717 38.0596C153.876 37.579 152.205 37.9465 150.873 39.3599C149.995 40.2927 149.542 41.4234 149.344 42.6672C149.259 43.2891 149.259 43.2891 149.882 43.2891C151.27 43.3173 152.686 43.3173 154.103 43.3173Z" fill="#0089CF"/>
</svg>
