<svg width="332" height="110" viewBox="0 0 332 110" fill="none" xmlns="http://www.w3.org/2000/svg">
<path d="M159.914 70.0806C151.208 70.0806 142.501 70.0806 133.794 70.0806C127.011 70.0806 121.239 65.4212 119.603 58.7509C117.439 49.8735 123.5 41.1923 132.495 40.4075C133.65 40.3094 134.852 40.2604 136.007 40.2604C152.362 40.2604 168.669 40.2604 185.025 40.2604C189.017 40.2604 192.673 41.2413 195.656 44.0369C200.033 48.1568 201.572 53.2577 200.033 59.0942C198.494 64.9798 194.549 68.5111 188.777 69.8354C187.815 70.0806 186.805 70.0806 185.794 70.1297C177.184 70.0806 168.525 70.0316 159.914 70.0806ZM159.77 64.5384C168.429 64.5384 177.136 64.5874 185.794 64.5384C189.739 64.4893 192.721 62.6746 194.357 58.9471C195.896 55.3176 195.271 51.9334 192.769 48.9416C190.797 46.5874 188.2 45.7536 185.265 45.7536C170.786 45.7536 156.355 45.8026 141.876 45.8517C138.893 45.8517 135.911 45.8026 132.928 45.9498C128.358 46.1459 124.558 50.3149 124.558 54.9743C124.51 60.3694 128.551 64.4893 133.987 64.5384C142.597 64.5384 151.208 64.5384 159.77 64.5384Z" fill="#838DA7"/>
<path d="M83.1888 43.2032C89.6348 38.9852 92.6653 39.1813 97.9086 43.9389C98.9669 43.1541 99.9771 42.3203 101.083 41.6827C105.076 39.2304 110.656 40.0151 113.783 43.3993C115.515 45.2631 116.092 47.6173 116.14 50.0697C116.236 55.1705 116.188 60.2713 116.14 65.3721C116.14 67.8245 114.649 69.394 112.484 69.443C110.319 69.443 108.876 67.9716 108.828 65.4212C108.78 61.3013 108.828 57.1814 108.78 53.1105C108.78 52.3258 108.732 51.492 108.588 50.7073C108.203 48.1568 106.423 46.4893 104.066 46.5874C101.757 46.6855 99.8328 48.5983 99.8328 51.1977C99.7366 55.5629 99.7847 59.977 99.7847 64.3422C99.7847 65.0779 99.7366 65.8626 99.5923 66.5983C99.2074 68.4621 97.8124 69.5411 96.0326 69.492C94.2046 69.443 92.8577 68.3149 92.6172 66.4512C92.4248 65.0288 92.4248 63.6065 92.4248 62.1841C92.3767 58.9471 92.4729 55.759 92.3767 52.522C92.3767 51.492 92.2324 50.3639 91.8475 49.383C91.126 47.3721 89.2499 46.3912 87.2296 46.6364C85.3054 46.8816 83.8142 48.353 83.5737 50.462C83.4294 51.7372 83.4294 53.0615 83.3813 54.3367C83.3332 58.2114 83.4294 62.1351 83.2851 66.0098C83.1407 68.9525 80.0621 70.522 77.7531 68.9035C76.4062 67.9716 76.0695 66.5983 76.0214 65.0779C76.0214 60.6637 76.0214 56.2495 76.0214 51.7863C76.0214 49.4811 75.9733 47.1269 76.0214 44.8217C76.1176 41.977 77.8493 40.4565 80.4469 40.7999C81.7938 40.8489 82.2749 41.2903 83.1888 43.2032Z" fill="#838DA7"/>
<path d="M236.881 57.2304C236.784 59.7318 238.564 61.8899 241.306 62.6255C243.711 63.2632 246.068 62.9689 248.281 61.7427C249.243 61.2032 250.205 60.6637 251.216 60.2223C252.611 59.6337 253.717 59.9771 254.631 61.1051C255.545 62.2332 255.689 63.7046 254.727 64.7836C253.957 65.7155 252.995 66.5983 251.937 67.1869C248.137 69.2959 244.048 70.0806 239.767 69.1978C235.967 68.364 233.08 66.255 231.108 62.7727C227.837 56.9362 228.799 48.6964 233.321 44.135C239.671 37.759 249.58 39.1814 254.006 47.0778C255.16 49.1378 255.833 51.3449 255.978 53.6991C256.17 56.1514 255.112 57.2795 252.755 57.2795C247.993 57.2795 243.182 57.2795 238.42 57.2795C237.891 57.2304 237.362 57.2304 236.881 57.2304ZM248.377 51.6391C248.57 48.4511 245.732 45.7536 242.364 45.7536C239.382 45.7536 236.592 48.5983 236.64 51.6391C240.536 51.6391 244.481 51.6391 248.377 51.6391Z" fill="#838DA7"/>
<path d="M215.619 58.2604C215.955 57.2304 216.34 56.2005 216.677 55.1214C217.928 51.2468 219.13 47.4212 220.333 43.5465C221.151 40.9961 222.738 40.0642 224.999 40.7508C227.067 41.3884 228.03 43.4484 227.26 45.8517C226.683 47.5683 225.961 49.2849 225.336 50.9525C223.363 56.1514 221.391 61.3503 219.371 66.5493C218.457 68.9035 216.966 69.6882 214.512 69.2959C212.781 69.0016 212.059 67.7754 211.482 66.304C209.269 60.4675 207.056 54.68 204.843 48.8435C204.459 47.8135 203.978 46.7835 203.689 45.7045C202.775 42.6636 204.651 40.3585 207.682 40.6037C209.317 40.7508 210.087 41.8789 210.568 43.3013C211.819 47.1759 213.021 51.0015 214.224 54.8762C214.56 56.0043 214.945 57.1323 215.33 58.2114C215.426 58.2604 215.523 58.2604 215.619 58.2604Z" fill="#838DA7"/>
<path d="M139.855 55.2196C139.855 57.8681 137.787 59.9771 135.189 59.9771C132.543 59.9771 130.475 57.8681 130.475 55.1215C130.475 52.522 132.592 50.3149 135.141 50.3149C137.691 50.3149 139.807 52.522 139.855 55.2196Z" fill="#838DA7"/>
<path d="M189.306 55.1705C189.306 57.819 187.286 59.928 184.64 59.9771C181.994 60.0261 179.878 57.819 179.878 55.1705C179.878 52.6201 182.042 50.364 184.544 50.3149C187.141 50.3149 189.306 52.522 189.306 55.1705Z" fill="#838DA7"/>
</svg>
