<svg width="332" height="110" viewBox="0 0 332 110" fill="none" xmlns="http://www.w3.org/2000/svg">
<path d="M85.6158 56.4446C84.2346 44.9552 79.5647 34.8096 73.8424 25L58.7145 81.6405C58.4515 82.5812 58.1884 83.7234 57.8595 85C62.4636 84.8656 66.6731 83.925 70.751 82.514C76.4075 80.4983 81.0117 77.1389 83.7084 71.4278C85.9447 66.6573 86.2735 61.6181 85.6158 56.4446Z" fill="#355528"/>
<path d="M55.6232 79.5576C56.5441 80.2967 57.5964 80.9015 58.7146 81.6405L73.8424 25C73.0531 25.4703 72.4612 25.8063 72.0008 26.2094C64.1738 30.7111 56.9387 36.019 50.9533 43.0067C47.6647 46.8365 45.4942 51.3382 44.376 56.3102C43.4552 60.2744 44.3102 64.1713 46.0204 67.9339C48.1909 72.7044 51.7426 76.3326 55.6232 79.5576Z" fill="#4D8B40"/>
<path d="M203.284 67.598C203.284 58.729 203.284 50.1288 203.284 41.0582C208.086 41.327 212.821 41.3942 217.491 41.9989C220.254 42.3348 221.701 44.6864 222.03 47.4412C222.424 49.9944 221.306 51.8757 219.004 53.0179C218.938 53.0851 218.872 53.2195 218.741 53.421C219.201 53.757 219.727 54.0929 220.188 54.4289C223.016 56.3102 223.213 59.0649 222.556 62.0884C221.898 65.1791 219.662 66.8589 216.833 67.262C213.808 67.7323 210.717 67.598 207.625 67.7324C206.31 67.598 204.863 67.598 203.284 67.598ZM208.217 63.3651C210.519 63.3651 212.558 63.4994 214.597 63.2978C216.307 63.1635 217.689 61.2822 217.623 59.6025C217.557 57.7883 216.373 56.3774 214.531 56.243C212.756 56.1086 210.98 56.1086 209.204 56.1758C208.875 56.1758 208.217 56.7133 208.217 57.0492C208.217 59.0649 208.217 61.1478 208.217 63.3651ZM211.177 45.3583C210.519 45.4255 209.796 45.2911 209.138 45.4255C208.743 45.5599 208.151 46.0302 208.086 46.3662C207.954 47.8443 207.954 49.3225 208.086 50.8007C208.086 51.2038 208.612 51.8757 208.875 51.8757C210.585 51.9429 212.295 51.9429 214.005 51.6741C215.847 51.4054 216.57 50.1288 216.505 48.2475C216.439 46.7021 215.321 45.6271 213.676 45.4255C212.887 45.4255 212.032 45.4255 211.177 45.3583Z" fill="#323232"/>
<path d="M287.934 47.1724C287.342 47.9115 287.013 48.5162 286.553 48.9865C284.58 51.1366 282.607 53.3538 280.502 55.4367C279.581 56.3774 279.647 57.0493 280.436 57.9899C282.541 60.4759 284.514 62.9619 286.553 65.5151C287.013 66.1198 287.408 66.7917 288 67.5308C285.895 67.5308 284.119 67.598 282.278 67.4636C281.883 67.4636 281.357 67.0604 281.094 66.6573C279.515 64.5744 278.068 62.4916 276.556 60.3415C276.424 60.14 276.161 60.0056 275.964 59.804C272.478 61.4837 274.582 64.9104 273.661 67.3964C272.214 67.3964 270.702 67.3964 269.057 67.3964C269.057 58.1243 269.057 48.8522 269.057 39.5129C270.57 39.5129 272.149 39.5129 273.99 39.5129C273.99 45.0224 273.99 50.4647 273.99 56.3102C274.714 55.7055 275.043 55.4367 275.306 55.168C277.082 53.0179 278.923 50.935 280.633 48.6506C281.62 47.3068 282.87 46.8365 284.448 46.9709C285.435 47.2396 286.487 47.1724 287.934 47.1724Z" fill="#323232"/>
<path d="M230.448 53.6898C228.87 53.6898 227.357 53.6898 225.647 53.6898C226.042 50.935 227.16 48.8522 229.462 47.71C232.356 46.299 235.447 46.299 238.473 47.4412C240.643 48.2475 241.696 50.0616 241.893 52.346C242.025 53.421 242.09 54.4961 242.09 55.5039C242.09 59.4009 242.09 63.2979 242.09 67.3292C240.709 67.3292 239.262 67.3292 237.749 67.3292C237.618 66.6573 237.486 65.9182 237.289 64.9776C235.447 68.0011 232.75 68.2027 229.922 67.8668C227.028 67.5308 225.187 65.5151 224.923 62.7603C224.66 59.8712 226.239 57.0493 228.936 56.3102C231.106 55.7055 233.342 55.3695 235.513 55.168C236.763 55.0336 237.157 54.6976 236.894 53.421C236.5 51.271 235.842 50.5319 234.066 50.4647C232.422 50.3975 231.238 51.3382 230.646 53.0851C230.646 53.2867 230.58 53.4882 230.448 53.6898ZM233.342 64.3729C235.513 64.3729 237.683 61.8197 237.026 59.4009C236.5 57.3852 234.658 58.729 233.408 58.5946C233.079 58.5946 232.816 58.6618 232.487 58.7962C231.04 59.3337 230.12 60.7447 230.317 62.0885C230.58 63.5666 231.698 64.4401 233.342 64.3729Z" fill="#323232"/>
<path d="M134.091 57.3852C134.091 64.0369 130.276 68.0683 123.896 68.1355C117.91 68.1355 113.898 64.0369 113.833 57.7211C113.833 50.8678 117.582 46.7693 123.962 46.7693C130.276 46.7021 134.091 50.7335 134.091 57.3852ZM129.092 57.4524C128.829 56.1086 128.697 54.6976 128.237 53.421C127.579 51.6741 126.329 50.4647 124.356 50.3975C122.58 50.3303 121.133 51.1366 120.278 52.6148C118.568 55.7727 118.502 59.0649 120.344 62.2228C121.923 64.9104 125.343 65.112 127.382 62.6932C128.631 61.215 128.895 59.4009 129.092 57.4524Z" fill="#323232"/>
<path d="M264.585 67.4636C263.072 67.4636 261.625 67.4636 260.046 67.4636C259.981 66.7245 259.915 66.0526 259.915 65.3807C259.849 61.7525 259.849 58.1243 259.783 54.4961C259.718 52.2788 258.599 50.8678 256.889 50.4647C255.048 50.0616 253.403 50.8679 252.482 52.9507C251.956 54.0929 251.627 55.3695 251.562 56.6461C251.43 59.804 251.43 62.9619 251.43 66.0526C251.43 67.1277 251.035 67.598 249.983 67.5308C248.865 67.4636 247.681 67.5308 246.366 67.5308C246.3 66.8589 246.234 66.2542 246.234 65.7167C246.234 60.0728 246.3 54.4289 246.234 48.785C246.234 47.5756 246.629 47.1053 247.747 47.2396C248.076 47.3068 248.47 47.2396 248.865 47.2396C251.496 47.374 251.167 46.7693 251.562 49.5913C251.956 49.3225 252.285 49.1209 252.482 48.785C253.469 47.374 254.916 46.8365 256.56 46.7021C261.822 46.1646 264.585 48.6506 264.716 54.0257C264.782 58.2587 264.716 62.5588 264.716 66.7917C264.782 66.9933 264.716 67.1276 264.585 67.4636Z" fill="#323232"/>
<path d="M113.043 41.3942C113.043 42.6708 113.043 43.8802 113.043 45.3583C110.939 45.3583 108.9 45.3583 106.926 45.3583C105.15 45.3583 103.375 45.4255 101.599 45.3583C100.612 45.3583 100.152 45.6271 100.217 46.7021C100.283 48.0459 100.283 49.3897 100.217 50.6663C100.152 51.8757 100.546 52.346 101.796 52.346C104.953 52.2788 108.045 52.346 111.202 52.4132C111.333 52.4132 111.53 52.4804 111.794 52.5476C111.794 53.6898 111.794 54.8992 111.794 56.3774C110.741 56.3774 109.755 56.3774 108.702 56.3774C106.334 56.3774 104.032 56.4446 101.665 56.3774C100.546 56.3102 100.217 56.7805 100.217 57.8555C100.283 61.0134 100.217 64.1042 100.217 67.5308C98.7047 67.5308 97.3235 67.6652 96.008 67.4636C95.6791 67.3964 95.2187 66.5229 95.2187 65.9854C95.153 61.0134 95.153 56.1086 95.153 51.1366C95.153 48.3147 95.153 45.4927 95.153 42.6708C95.153 41.9317 95.2187 41.327 96.2053 41.327C101.599 41.327 107.058 41.327 112.451 41.327C112.649 41.2598 112.78 41.327 113.043 41.3942Z" fill="#323232"/>
<path d="M183.881 42.402C179.606 43.3427 179.211 43.7458 179.803 47.3068C180.921 47.3068 182.105 47.3068 183.421 47.3068C183.421 48.5162 183.421 49.5913 183.421 50.8007C182.566 50.8007 181.842 50.8679 181.119 50.8007C179.935 50.6663 179.474 51.0694 179.474 52.4132C179.54 56.9149 179.474 61.4837 179.474 65.9854C179.474 66.3886 179.408 66.7917 179.408 67.3964C177.83 67.3964 176.317 67.3964 174.541 67.3964C174.541 66.8589 174.475 66.3214 174.475 65.7839C174.475 61.7525 174.475 57.7212 174.541 53.6226C174.541 52.0101 174.804 50.3975 172.437 50.6663C172.437 49.5241 172.437 48.5834 172.437 47.5756C173.094 47.4412 173.686 47.374 174.475 47.2396C174.541 46.4334 174.541 45.6271 174.607 44.888C174.804 41.1254 176.646 39.1097 180.329 38.7738C180.79 38.7066 181.25 38.7066 181.711 38.7066C183.684 38.7066 183.881 38.9754 183.881 40.991C183.881 41.5285 183.881 41.9317 183.881 42.402Z" fill="#323232"/>
<path d="M157.769 50.8679C157.769 54.832 157.703 58.6618 157.835 62.4244C157.901 63.7682 159.084 64.3729 160.334 64.3729C161.123 64.3729 161.584 64.6416 161.452 65.4479C161.321 66.3214 161.847 67.598 160.4 67.7324C158.887 67.7996 157.374 67.8667 155.862 67.598C153.691 67.1948 152.836 66.187 152.77 63.8354C152.639 60.4087 152.704 57.0493 152.639 53.6226C152.639 50.8679 152.639 50.8679 149.942 50.4647C149.942 49.5241 149.942 48.5162 149.942 47.4412C150.797 47.374 151.586 47.3068 152.573 47.1725C152.639 46.3662 152.639 45.5599 152.704 44.8208C152.704 44.0146 152.704 43.2755 152.704 42.3348C154.217 42.3348 155.533 42.2676 156.914 42.402C157.243 42.402 157.769 43.0067 157.835 43.3427C158.032 44.5521 157.637 46.2318 158.229 46.9709C158.756 47.6428 160.466 47.3068 161.715 47.5084C161.715 48.5162 161.715 49.4569 161.715 50.5319C160.4 50.6663 159.216 50.8007 157.769 50.8679Z" fill="#323232"/>
<path d="M136.261 67.3964C136.261 60.6775 136.261 54.0257 136.261 47.3068C137.84 47.3068 139.287 47.3068 140.865 47.3068C140.997 48.1131 141.128 48.9194 141.326 49.9272C142.312 48.9194 143.036 47.8443 143.957 47.3068C144.878 46.7693 146.127 46.8365 147.377 46.6349C147.377 48.2475 147.377 49.4569 147.377 50.8007C147.18 50.8678 146.916 51.0022 146.719 51.0022C143.496 51.3382 141.457 53.3538 141.26 56.7133C141.128 59.6696 141.128 62.6931 141.063 65.6495C141.063 66.187 140.997 66.6573 140.997 67.262C139.353 67.3964 137.84 67.3964 136.261 67.3964Z" fill="#323232"/>
<path d="M186.183 67.5308C186.183 60.6775 186.183 54.0929 186.183 47.374C187.827 47.374 189.34 47.374 190.985 47.374C191.05 47.9787 191.05 48.5162 191.05 48.9865C191.05 54.6304 190.985 60.2743 191.05 65.9182C191.05 67.1948 190.656 67.598 189.472 67.5308C188.419 67.4636 187.367 67.5308 186.183 67.5308Z" fill="#323232"/>
<path d="M164.741 67.4636C164.741 60.6775 164.741 54.0929 164.741 47.374C166.385 47.374 167.832 47.374 169.411 47.374C169.477 47.71 169.542 47.9787 169.542 48.3147C169.608 54.2273 169.608 60.14 169.674 66.0526C169.674 67.0605 169.411 67.5308 168.358 67.4636C167.175 67.4636 166.056 67.4636 164.741 67.4636Z" fill="#323232"/>
<path d="M188.682 39.7816C190.327 39.8488 191.445 40.991 191.445 42.6036C191.445 44.2161 190.195 45.2912 188.551 45.224C186.907 45.1568 185.854 43.9474 185.92 42.3348C185.986 40.7223 187.104 39.7144 188.682 39.7816Z" fill="#323232"/>
<path d="M167.175 39.7144C168.95 39.8488 170.003 40.991 169.871 42.738C169.74 44.2161 168.49 45.224 166.911 45.0896C165.464 45.0224 164.215 43.6786 164.346 42.402C164.412 40.7895 165.662 39.6473 167.175 39.7144Z" fill="#323232"/>
</svg>
