<svg width="332" height="110" viewBox="0 0 332 110" fill="none" xmlns="http://www.w3.org/2000/svg">
<path d="M166 85.1297C150.109 85.1297 134.217 85.1297 118.325 85.1297C114.87 85.1297 113 83.3216 113 79.9002C113 63.266 113 46.6596 113 30.0254C113 26.9934 114.898 25.1297 117.986 25.1297C145.321 25.1297 172.685 25.1297 200.021 25.1297C200.729 25.1297 201.466 25.1853 202.174 25.3522C204.327 25.8251 205.46 28.3286 204.298 30.2479C202.825 32.6679 201.466 35.1436 200.049 37.5914C199.936 37.7583 199.738 37.953 199.766 38.1199C199.823 38.6484 199.851 39.2604 200.162 39.622C200.332 39.8167 201.154 39.7333 201.494 39.5108C205.318 36.896 209.142 34.2256 212.91 31.5274C214.156 30.6373 215.431 30.081 216.932 30.8877C218.433 31.6943 219 33.0017 219 34.6985C218.972 49.8028 218.972 64.8793 218.972 79.9836C218.972 83.2382 217.074 85.1019 213.759 85.1019C197.868 85.1297 181.92 85.1297 166 85.1297ZM130.365 60.234C132.206 59.0935 133.396 57.6471 133.565 55.5886C133.707 53.5859 133.764 51.5831 133.764 49.6081C133.764 45.2409 130.648 42.1533 126.2 42.1255C123.736 42.0977 121.3 42.1255 118.835 42.1255C117.419 42.1255 117.221 42.3202 117.221 43.711C117.221 55.533 117.221 67.355 117.221 79.177C117.221 80.4843 117.447 80.7625 118.75 80.7625C121.215 80.7903 123.651 80.7903 126.115 80.7625C131.101 80.679 133.877 76.8126 133.622 73.1408C133.452 70.6651 133.537 68.1895 133.594 65.7138C133.65 63.2938 132.772 61.4301 130.365 60.234ZM174.073 67.5775C174.215 67.9669 174.272 68.1617 174.328 68.3564C175.433 72.0003 176.566 75.6165 177.614 79.2604C177.926 80.3452 178.577 80.7625 179.625 80.7625C180.815 80.7625 181.976 80.7903 183.166 80.7625C184.838 80.7347 185.092 80.4009 184.611 78.871C183.166 74.3647 181.75 69.8863 180.277 65.38C180.022 64.629 180.05 64.2117 180.787 63.711C182.401 62.6262 183.534 61.1241 183.619 59.177C183.761 55.6999 183.959 52.1672 183.704 48.6902C183.449 45.0184 181.127 42.654 177.387 42.2368C174.356 41.903 171.241 42.0977 168.153 42.1255C167.36 42.1255 167.246 42.7931 167.246 43.4607C167.246 55.4217 167.246 67.3828 167.246 79.3439C167.246 80.4287 167.501 80.7069 168.663 80.7347C169.937 80.7625 171.212 80.7625 172.515 80.7347C173.847 80.7069 174.073 80.4565 174.073 79.1491C174.102 75.3939 174.073 71.6109 174.073 67.5775ZM203.788 61.1797C203.788 57.0629 203.817 52.9461 203.788 48.8571C203.76 45.6582 201.551 42.7653 198.435 42.042C197.103 41.7361 195.687 41.7082 194.327 41.7361C190.39 41.8751 187.274 44.935 187.245 48.718C187.217 57.202 187.189 65.7138 187.245 74.1978C187.274 76.6457 188.435 78.6484 190.588 79.9836C193.052 81.5135 195.743 81.4857 198.406 80.8459C201.749 80.0393 203.76 77.202 203.788 73.5302C203.817 69.4134 203.788 65.2966 203.788 61.1797ZM147.134 58.8432C147.134 63.8779 147.106 68.9127 147.162 73.9475C147.191 76.896 148.635 79.0379 151.27 80.4009C153.055 81.3188 154.981 81.0407 156.879 81.0407C158.748 81.0407 160.363 80.2618 161.666 78.9266C163.252 77.2854 163.706 75.2827 163.706 73.113C163.706 64.5177 163.706 55.9224 163.706 47.3272C163.706 46.2145 163.706 45.074 163.706 43.9614C163.706 42.5706 163.479 42.348 162.091 42.348C160.958 42.348 159.796 42.348 158.663 42.348C156.935 42.348 156.879 42.3758 156.879 44.0448C156.879 51.0546 156.879 58.0365 156.879 65.0462C156.879 67.8 156.879 70.5539 156.879 73.3077C156.879 74.5038 156.369 75.0045 155.321 74.9767C154.301 74.9489 153.961 74.5316 153.961 73.2521C153.961 63.4329 153.961 53.6137 153.961 43.7945C153.961 42.348 153.763 42.1533 152.261 42.1533C151.185 42.1533 150.109 42.1533 149.032 42.1533C147.247 42.1533 147.134 42.2646 147.134 43.9892C147.134 48.9127 147.134 53.864 147.134 58.8432ZM136.936 61.1519C136.936 67.049 136.936 72.9739 136.936 78.871C136.936 80.0949 137.05 80.2062 138.324 80.2062C139.514 80.2062 140.676 80.2062 141.865 80.2062C143.707 80.2062 143.763 80.1505 143.763 78.2868C143.763 66.8821 143.763 55.4496 143.763 44.0448C143.763 43.7945 143.763 43.572 143.763 43.3216C143.763 42.4871 143.31 42.0699 142.46 42.0699C141.157 42.0699 139.826 42.0699 138.523 42.0699C137.135 42.0699 136.965 42.2368 136.965 43.572C136.936 49.469 136.936 55.3105 136.936 61.1519ZM140.137 34.1422C138.409 34.1422 137.021 35.4774 136.993 37.1464C136.965 38.7319 138.494 40.234 140.109 40.2062C141.752 40.2062 143.282 38.7319 143.253 37.1464C143.253 35.4774 141.865 34.1422 140.137 34.1422ZM153.536 37.1464C153.536 35.3939 152.233 34.1422 150.448 34.1422C148.749 34.1422 147.332 35.533 147.332 37.1742C147.332 38.7597 148.862 40.234 150.477 40.2062C152.205 40.2062 153.564 38.8153 153.536 37.1464Z" fill="#058473"/>
<path d="M124.019 68.9683C124.019 67.5497 124.019 66.1311 124.019 64.6846C124.019 64.0726 123.906 63.4607 124.897 63.4885C126.172 63.5441 126.71 63.8223 126.767 64.7402C126.795 65.4913 126.795 66.2423 126.795 66.9656C126.795 68.9683 126.795 70.9711 126.795 72.9739C126.795 74.3369 125.606 75.088 124.387 74.476C124.189 74.3647 124.048 73.9197 124.048 73.6415C124.019 72.0838 124.019 70.5261 124.019 68.9683Z" fill="#058473"/>
<path d="M124.019 52.8348C124.019 51.7222 124.019 50.6095 124.019 49.469C124.019 48.8571 123.991 48.3286 124.897 48.3286C126.285 48.3286 126.739 48.5511 126.767 49.4969C126.795 50.9989 126.795 52.4732 126.795 53.9753C126.795 54.6985 126.824 55.3939 126.767 56.1172C126.71 57.0351 126.144 57.2854 124.841 57.2576C123.878 57.2576 124.019 56.6457 124.019 56.0893C124.019 55.0045 124.019 53.9197 124.019 52.8348Z" fill="#058473"/>
<path d="M174.073 53.7528C174.073 52.3063 174.073 50.832 174.073 49.3856C174.073 48.8571 174.045 48.3286 174.838 48.3842C175.631 48.4398 176.736 48.1338 176.793 49.33C176.906 52.195 176.849 55.088 176.793 57.9809C176.764 58.8432 176.084 59.1213 174.81 59.0935C173.818 59.0657 174.073 58.3703 174.073 57.8696C174.073 56.451 174.073 55.1158 174.073 53.7528Z" fill="#058473"/>
<path d="M196.962 61.4301C196.962 65.38 196.962 69.3021 196.962 73.2521C196.962 74.5594 196.537 74.9489 195.347 74.9767C194.469 74.9767 194.044 74.5038 194.044 73.7249C194.016 65.5469 194.016 57.3689 194.044 49.163C194.044 48.3286 194.61 47.9113 195.489 47.9391C196.48 47.9948 196.933 48.412 196.933 49.4134C196.99 53.419 196.962 57.4245 196.962 61.4301Z" fill="#058473"/>
</svg>
