<svg width="107" height="113" viewBox="0 0 107 113" fill="none" xmlns="http://www.w3.org/2000/svg">
<g clip-path="url(#clip0_5_248)">
<path d="M17.6425 62.8505C16.9421 60.5143 16.4742 58.1155 16.2448 55.69C16.0183 53.2645 16.0421 50.8241 16.3073 48.4015C18.4978 28.1133 36.7392 13.4411 57.0548 15.6256C61.823 16.1375 66.4423 17.572 70.6621 19.8457C72.781 20.9796 74.7807 22.3218 76.6373 23.8486C77.0933 24.2444 77.5582 24.6224 77.9993 25.039C78.4403 25.4557 78.8933 25.8485 79.3403 26.2473L80.6665 27.4765C81.0897 27.905 81.5069 28.3455 81.9181 28.7889C82.7854 29.8454 83.593 30.9466 84.338 32.0924C84.9638 30.7383 85.5062 29.3484 85.9562 27.9258C86.4986 26.1402 86.6983 24.2861 86.9099 22.4438C87.0142 21.5421 87.0142 20.6314 86.9099 19.7296C86.7042 17.9797 86.5612 16.1315 85.9205 14.4619C85.2797 12.7923 84.6152 11.0572 83.5781 9.58704C82.8211 8.47696 81.9956 7.41746 81.1016 6.41451C80.7946 6.08119 80.4638 5.77167 80.1092 5.48596C79.1317 4.63777 78.0916 3.86398 76.9979 3.17352C75.8476 2.55449 74.6526 2.02772 73.4218 1.59023C71.7797 0.950368 69.9022 0.804539 68.1916 0.625972C67.2469 0.533713 66.2962 0.545617 65.3545 0.664661C63.4174 0.896798 61.4803 1.11703 59.6118 1.65868C57.6658 2.21819 55.8121 3.0515 53.9495 3.84613C51.5177 4.90265 49.1753 6.16154 46.9521 7.60495C43.7098 9.7299 40.5836 12.0304 37.5885 14.4887C35.0554 16.5214 32.6117 18.6553 30.2425 20.8933C27.7988 23.1909 25.4296 25.5658 23.1378 28.0181C20.8938 30.4139 18.7213 32.8721 16.6203 35.3989C14.1289 38.3958 11.7358 41.4731 9.43812 44.6248C7.88845 46.7587 6.40434 48.9402 5.04539 51.199C3.5434 53.7615 2.2381 56.431 1.13842 59.1899C0.83445 59.9042 0.581138 60.6393 0.375509 61.3893C-0.0536317 62.7196 -0.116215 64.1422 0.19074 65.5052C0.250343 66.8712 0.673523 68.1956 1.41856 69.3414C2.04141 70.52 2.95929 71.517 4.07982 72.2402C5.07221 73.1479 6.28513 73.7848 7.59639 74.0853L10.3441 74.4544C12.1769 74.4574 13.9769 73.9693 15.5593 73.0467L17.6454 71.4307C18.5484 70.5348 19.2756 69.4783 19.7911 68.3176C18.9269 66.5558 18.2087 64.7284 17.6425 62.8505Z" fill="#FFCA41"/>
<path d="M106.206 45.491C106.147 44.1249 105.724 42.8006 104.981 41.6518C104.356 40.4762 103.438 39.4792 102.317 38.756C101.325 37.8453 100.115 37.2084 98.8036 36.9079L96.0559 36.5388C94.2202 36.5418 92.4172 37.0329 90.8377 37.9644L88.7516 39.5774C88.5907 39.7381 88.4387 39.9048 88.2897 40.0715C88.4536 40.5417 88.6115 41.0149 88.7576 41.4911C91.6364 50.8807 90.6708 61.0292 86.0754 69.7106C83.7837 74.017 80.6576 77.8234 76.8787 80.9097C70.1496 86.4095 61.7068 89.3886 53.0108 89.335C52.4833 89.6327 51.9469 89.9303 51.4045 90.1922C51.0439 90.3767 50.6803 90.5523 50.3167 90.7219C49.0055 91.2189 47.6584 91.6118 46.2876 91.8975C45.7303 91.9302 45.173 91.9362 44.6127 91.9153C44.3296 91.8499 44.0495 91.7725 43.7723 91.6891C43.5637 91.5731 43.3581 91.454 43.1554 91.3261C42.8217 91.0165 42.5028 90.6922 42.1988 90.3529C41.8829 89.8797 41.5849 89.3916 41.3048 88.8916C41.2273 88.6327 41.1528 88.3738 41.0902 88.1089C41.0902 87.8351 41.0902 87.5613 41.0902 87.2875C39.2336 86.6446 37.4306 85.853 35.6991 84.9215C31.3928 82.6031 27.5812 79.4633 24.4849 75.6777C24.2107 75.3414 23.9454 74.9991 23.6832 74.6569C22.5299 77.1895 21.3974 79.8234 20.9653 82.5912C20.6673 84.3977 20.3693 86.2875 20.411 88.1357C20.411 88.594 20.4646 89.0523 20.5213 89.5077C20.6524 90.8737 20.858 92.2338 21.1382 93.579C21.2484 94.0403 21.3855 94.4926 21.5464 94.9391C22.0084 96.2069 22.5329 97.4509 23.1199 98.6651C23.6743 99.7901 24.3388 100.859 25.1047 101.853C26.3474 103.486 27.5484 105.159 29.1369 106.48C30.6269 107.716 32.2004 109.01 33.9677 109.858C35.2312 110.471 36.5306 111.013 37.8597 111.474C38.3693 111.647 38.8909 111.79 39.4183 111.9C40.8399 112.177 42.2733 112.376 43.7157 112.495C44.2581 112.549 44.8035 112.573 45.3488 112.567C45.918 112.567 46.4902 112.531 47.0594 112.471C48.5495 112.32 50.0396 112.132 51.4909 111.858C52.7038 111.623 53.8989 111.302 55.0671 110.894C57.1532 110.162 59.1946 109.308 61.1793 108.338C62.4608 107.718 63.7065 107.031 64.9224 106.293C68.284 104.192 71.4817 101.847 74.4946 99.2723C77.0754 97.1057 79.5281 94.7873 81.8347 92.329C84.7791 89.1505 87.5566 85.8203 90.1553 82.3531C92.289 79.5674 94.2708 76.6717 96.0977 73.6777C97.8589 70.8058 99.4444 67.8326 100.845 64.7702C102.484 61.1632 104.028 57.4698 105.095 53.6485C105.467 52.3152 105.78 50.97 106.022 49.6069C106.454 48.2736 106.516 46.854 106.206 45.491Z" fill="#FFCA41"/>
<path d="M59.0813 16.9351C67.7029 18.3547 75.5109 22.8694 81.036 29.6312C93.6063 44.9938 91.3533 67.6034 76.0056 80.1358C65.0505 89.073 49.8608 90.7516 37.213 84.4214C42.5624 88.3082 48.8565 90.692 55.4426 91.3289C65.3486 92.2872 75.2277 89.2903 82.9284 82.9958C86.74 79.8858 89.89 76.0466 92.1967 71.7044C101.882 53.5502 94.998 30.9912 76.8191 21.3189C71.3625 18.4172 65.2711 16.9112 59.0903 16.944L59.0813 16.9351Z" fill="#383838"/>
<path d="M81.8556 28.7801C91.3712 40.3363 93.0102 56.4668 86.0099 69.6956C83.7181 73.9991 80.589 77.8055 76.8102 80.8918C69.1751 87.1386 59.3764 90.1088 49.5538 89.1535C44.6813 88.6773 39.9548 87.2368 35.6455 84.9155C24.6607 79.0555 17.3504 68.0826 16.1822 55.699C15.9557 53.2735 15.9795 50.833 16.2448 48.4105C18.459 28.1075 36.7332 13.4442 57.0638 15.6554C64.228 16.4351 71.0108 19.2863 76.5777 23.8576C77.0337 24.2534 77.4986 24.6314 77.9397 25.048C78.3807 25.4647 78.8337 25.8575 79.2807 26.2563L80.6069 27.4854C81.0301 27.8962 81.4443 28.3366 81.8556 28.7801ZM80.2552 30.0866C79.9006 29.6402 79.5489 29.1937 79.2062 28.7265C78.8635 28.2592 78.4761 27.8337 78.1065 27.3991C77.737 26.9646 77.3079 26.5718 76.8966 26.17C76.4853 25.7682 76.0294 25.4171 75.5943 25.0391C60.8456 12.7894 38.9445 14.8013 26.6812 29.53C22.1633 34.9555 19.4097 41.625 18.7868 48.6516C18.5931 50.9104 18.611 53.1812 18.8405 55.4341C19.9729 66.9189 26.7527 77.0853 36.9299 82.5524C40.9352 84.6923 45.316 86.0404 49.8339 86.5196C68.9277 88.4392 85.9622 74.5348 87.8814 55.4698C88.8023 46.3332 86.0605 37.2054 80.2552 30.0866Z" fill="#383838"/>
<path d="M72.8794 57.1542C73.2936 57.812 73.6632 58.4965 73.985 59.2018C74.3128 59.8982 74.6108 60.6036 74.8791 61.3238C75.1473 62.044 75.3261 62.7821 75.5466 63.5142L75.8685 64.6154L75.9102 64.7523L75.931 64.8267L75.9817 65.0201C76.0413 65.282 76.0592 65.5528 76.0324 65.8207C75.934 66.9099 75.1443 67.8147 74.0774 68.0617C73.9493 68.0915 73.8211 68.1093 73.69 68.1182H73.5946H73.4456H73.1476C72.7661 68.1182 72.3817 68.1004 72.0002 68.1004L69.7055 68.0796C68.1767 68.0319 66.6449 67.9456 65.1102 67.7819C64.532 67.7224 64.1118 67.2046 64.1744 66.6272C64.2251 66.151 64.5886 65.7701 65.0595 65.6987C66.5853 65.4576 68.1082 65.2999 69.637 65.1779L71.9257 65.0439C72.3072 65.0261 72.6916 64.9993 73.0731 64.9725L73.3711 64.9517H73.4426H73.4128H73.3085C73.0105 65.0082 72.781 65.2463 72.7393 65.5469C72.7274 65.6243 72.7274 65.7016 72.7393 65.779C72.7393 65.7969 72.7393 65.8147 72.7393 65.8326L72.7185 65.7731L72.6708 65.6391L72.2804 64.5588C72.0241 63.8416 71.738 63.1303 71.5204 62.3982C71.3029 61.666 71.1271 60.9101 70.981 60.1661C70.8231 59.4042 70.7158 58.6334 70.6622 57.8596C70.6026 57.2048 71.0883 56.6275 71.744 56.568C72.1969 56.5263 72.635 56.7495 72.8704 57.1394L72.8794 57.1542Z" fill="#383838"/>
<path d="M45.7392 33.8484C46.228 32.6669 46.8389 31.5389 47.5601 30.4824C47.9147 29.9616 48.32 29.4705 48.7015 28.9675L49.2796 28.2146L49.3512 28.1223L49.3929 28.0688L49.4972 27.9408C49.9442 27.4319 50.6088 27.167 51.2853 27.2265C51.7263 27.2652 52.1435 27.4408 52.4773 27.7295C52.5608 27.7979 52.6383 27.8753 52.7068 27.9586C52.7336 27.9944 52.7843 28.0539 52.7932 28.0688L52.829 28.1194L52.9661 28.3128C53.1449 28.5717 53.3267 28.8336 53.5144 29.0896L54.6201 30.6312C55.3353 31.6758 56.0237 32.7413 56.6614 33.8484C56.8999 34.265 56.7509 34.7948 56.3336 35.0329C55.9939 35.2233 55.5707 35.1698 55.2936 34.896C54.3995 34.0031 53.5353 33.0567 52.7098 32.0954L51.5028 30.6312C51.3032 30.3842 51.0975 30.1431 50.9068 29.8991L50.7518 29.7205L50.7161 29.6729C50.7012 29.6729 50.7161 29.6907 50.7161 29.6937C50.7161 29.6967 50.7518 29.7384 50.7727 29.7592C50.9575 29.9348 51.2376 29.9705 51.4581 29.8425C51.5147 29.8128 51.5654 29.7741 51.6101 29.7265L51.6399 29.6907L51.6101 29.7354L51.5445 29.8336L51.0111 30.6193C50.6565 31.1401 50.3197 31.6788 49.9353 32.1817C49.1604 33.1996 48.2843 34.1341 47.3157 34.9704C46.8955 35.3215 46.2697 35.268 45.918 34.8483C45.6826 34.5686 45.62 34.1847 45.7541 33.8484H45.7392Z" fill="#383838"/>
<path d="M52.0124 31.1191C52.2717 32.8572 52.4296 34.5922 52.5667 36.3303C52.7038 38.0683 52.7932 39.8034 52.8439 41.5415C52.8945 43.2795 52.8588 45.0146 52.829 46.7526C52.8111 47.6217 52.8051 48.4877 52.8081 49.3567V50.2496C52.8111 50.2734 52.8171 50.2942 52.823 50.318C52.8498 50.4073 52.9184 50.4787 53.0078 50.5115L52.68 50.2496C54.5008 51.19 56.426 51.9668 58.2141 52.9608C60.0022 53.9548 61.7903 54.9667 63.4949 56.0738C65.1996 57.1809 66.8476 58.419 68.4509 59.7047C70.0781 60.9904 71.6158 62.3832 73.0582 63.8712C73.4933 64.3444 73.4635 65.0825 72.9867 65.52C72.6857 65.7968 72.2595 65.895 71.8661 65.7789C69.8933 65.1242 67.9681 64.3385 66.0996 63.4308C64.2459 62.5379 62.434 61.5856 60.6846 60.532C58.9353 59.4785 57.2724 58.2851 55.5946 57.1154C53.9167 55.9458 52.3939 54.5322 50.7578 53.2971L50.4776 53.0858L50.43 53.0352C49.9055 52.4489 49.5568 51.7257 49.4227 50.9519C49.3929 50.7615 49.372 50.568 49.3661 50.3746V49.327C49.3661 48.4579 49.3661 47.5919 49.3482 46.7229C49.3154 44.9848 49.2737 43.2498 49.3303 41.5117C49.3869 39.7737 49.4853 38.0386 49.6104 36.3005C49.7356 34.5625 49.9084 32.8274 50.1647 31.0894C50.2363 30.5804 50.7071 30.2233 51.2167 30.2947C51.631 30.3513 51.9528 30.6757 52.0124 31.0894V31.1191Z" fill="#383838"/>
<path d="M32.4061 54.0354C31.9292 54.5979 31.1961 54.8746 30.466 54.7675C29.8282 54.7556 29.1905 54.7199 28.5527 54.6633C27.918 54.6068 27.2802 54.5264 26.6455 54.4163C26.0017 54.3092 25.367 54.1574 24.7471 53.961C24.1302 53.7586 23.7935 53.0979 23.9961 52.4818C24.1213 52.0979 24.4372 51.8063 24.8306 51.7081C25.4653 51.5563 26.1061 51.4521 26.7557 51.3926C27.3965 51.3271 28.0372 51.2944 28.6749 51.2854C29.3127 51.2765 29.9534 51.2854 30.5912 51.3212C31.3273 51.2616 32.0425 51.592 32.4746 52.1902C32.9038 52.7378 32.8739 53.5175 32.4061 54.0354Z" fill="#383838"/>
<path d="M82.8182 52.4698C82.3413 53.0353 81.6052 53.3121 80.8751 53.202C80.2374 53.1901 79.5996 53.1543 78.9648 53.0978C78.3271 53.0412 77.6923 52.9609 77.0576 52.8508C76.4138 52.7436 75.7791 52.5919 75.1592 52.3954C74.5453 52.1871 74.2115 51.5234 74.4082 50.9074C74.5364 50.5264 74.8493 50.2377 75.2397 50.1366C75.8744 49.9848 76.5182 49.8806 77.1678 49.8211C77.8086 49.7556 78.4493 49.7229 79.087 49.714C79.7248 49.705 80.3655 49.714 81.0003 49.7467C81.7364 49.6901 82.4516 50.0205 82.8837 50.6187C83.3158 51.1693 83.289 51.949 82.8182 52.4698Z" fill="#383838"/>
<path d="M51.4492 80.3321C50.88 79.8589 50.6028 79.1238 50.7131 78.3947C50.7131 77.7578 50.7578 77.1209 50.8114 76.484C50.8651 75.8471 50.9455 75.2132 51.0558 74.5793C51.1601 73.9365 51.3121 73.3025 51.5058 72.6835C51.7144 72.0704 52.376 71.7341 52.9959 71.9306C53.3773 72.0585 53.6694 72.371 53.7707 72.7609C53.9227 73.3948 54.027 74.0347 54.0896 74.6835C54.1552 75.3233 54.1879 75.9632 54.1999 76.6001C54.2118 77.237 54.1999 77.8768 54.1701 78.5137C54.2297 79.2488 53.8989 79.9601 53.3028 80.3946C52.7515 80.8262 51.9707 80.7994 51.4492 80.3321Z" fill="#383838"/>
<path d="M38.9147 24.9824C33.2167 27.8662 28.7554 32.9762 26.3474 38.863C25.7276 40.3332 25.3014 41.8748 25.0779 43.4521C25.0183 43.8866 25.7037 43.8837 25.7603 43.4521C26.1507 40.4998 27.459 37.6547 29.0206 35.1488C30.6657 32.4495 32.7786 30.0596 35.2551 28.0924C36.5067 27.1252 37.8478 26.28 39.2604 25.5717C39.6538 25.3723 39.3051 24.783 38.9147 24.9764V24.9824Z" fill="#383838"/>
<path d="M68.6804 98.3437C73.2847 97.5134 77.8205 96.1622 81.9271 93.8795C86.2185 91.4808 89.89 88.1178 92.6556 84.0584C93.8834 82.2757 94.9414 80.3829 95.8205 78.4038C96.0917 77.9067 95.9278 77.2877 95.448 76.9871C95.0069 76.7282 94.2559 76.8443 94.0295 77.3591C92.4232 81.0465 90.1463 84.4066 87.3152 87.2666C83.9536 90.6415 79.7605 93.0224 75.3291 94.5373C72.9777 95.317 70.5698 95.9211 68.129 96.3467C67.5777 96.4449 67.2678 97.1146 67.4049 97.6205C67.5688 98.1622 68.1291 98.4806 68.6804 98.3437Z" fill="#383838"/>
<path d="M76.9384 99.9238C83.1966 98.784 88.9722 95.1234 92.8821 90.1235C93.791 88.9896 94.5629 87.7486 95.1738 86.4302C95.3496 86.0373 94.7655 85.6951 94.5778 86.0909C93.4543 88.5968 91.6364 90.7753 89.6397 92.6383C87.2735 94.8793 84.5168 96.668 81.5069 97.9179C79.9692 98.531 78.3688 98.9864 76.7387 99.275C76.3095 99.3554 76.4913 100.004 76.9175 99.9268L76.9384 99.9238Z" fill="#383838"/>
</g>
<defs>
<clipPath id="clip0_5_248">
<rect width="106.4" height="112" fill="white" transform="translate(0 0.566406)"/>
</clipPath>
</defs>
</svg>
