<svg width="109" height="113" viewBox="0 0 109 113" fill="none" xmlns="http://www.w3.org/2000/svg">
<g clip-path="url(#clip0_5_442)">
<path d="M23.1125 62.1472C24.587 58.8251 26.2769 55.603 28.1731 52.4993L22.5997 25.2122C20.6034 27.5331 18.7011 29.9269 16.8353 32.3601C14.6296 35.2181 12.5726 38.1883 10.6703 41.2586C8.84998 44.1864 7.20255 47.2173 5.73716 50.3392C4.04727 53.9799 2.46962 57.7146 1.35314 61.5647C0.964792 62.8996 0.637128 64.2497 0.382278 65.615C-0.0515742 66.959 -0.115287 68.3941 0.194174 69.7715C0.254853 71.1459 0.682637 72.4808 1.42898 73.6367C2.05701 74.823 2.97932 75.8272 4.10794 76.5523C5.10611 77.4686 6.32271 78.1118 7.64247 78.4151L10.4064 78.7944C12.2571 78.7974 14.0714 78.3059 15.6672 77.3684C16.3711 76.8284 17.0719 76.2853 17.7728 75.7423C19.047 74.471 19.9693 72.8904 20.4487 71.155C21.0433 68.0725 21.9353 65.0568 23.1125 62.1472Z" fill="#FFCA41"/>
<path d="M70.3144 7.98545C71.5249 7.91567 72.6019 8.7409 72.8568 9.92413L76.6128 28.1277L79.222 29.4839C79.4374 29.1805 80.4871 29.9056 82.0132 31.7533C84.1127 34.2896 85.3202 37.9303 85.9573 36.0796C86.2789 35.1391 87.274 30.7733 87.453 29.7933C87.6988 28.422 87.8869 27.0355 88.0113 25.649C88.0537 25.1878 88.0719 24.7388 88.0689 24.2625C88.0659 23.8074 88.0386 23.3553 87.987 22.9033C87.8626 21.5441 87.6654 20.194 87.3954 18.8591C87.2922 18.407 87.1648 17.964 87.0101 17.5272C86.558 16.2711 86.0362 15.0393 85.4476 13.8409C84.5374 12.0206 83.2055 10.4005 81.9556 8.82281C81.2153 7.87926 80.3658 7.02672 79.4253 6.28341C77.8658 5.06984 76.3731 3.81076 74.5528 3.0098C72.7324 2.20884 70.9606 1.38968 69.0007 1.06505C67.0408 0.740422 64.9898 0.421859 62.9723 0.518945C61.4796 0.582657 59.9626 0.822338 58.5002 1.04381C57.8935 1.12876 57.2988 1.23495 56.7163 1.36541C55.4663 1.6506 54.2345 2.02377 53.0361 2.47886C49.5107 3.77132 46.1248 5.41874 42.9301 7.39686C41.5102 8.30704 40.1268 9.24756 38.7706 10.2427L70.3144 7.98545Z" fill="#FFCA41"/>
<path d="M108.809 45.1177C108.751 43.7433 108.323 42.4084 107.574 41.2524C106.946 40.0662 106.024 39.0619 104.898 38.3338C103.9 37.4176 102.68 36.7774 101.361 36.471L98.5967 36.1008C96.746 36.1008 94.9286 36.5923 93.3358 37.5328L91.2303 39.159C89.956 40.4302 89.0337 42.014 88.5544 43.7494C88.4603 44.0892 88.3511 44.4259 88.2328 44.7597C87.5835 46.1189 85.9786 52.93 85.1139 54.1648C83.8396 55.9852 88.5756 59.274 92.6168 62.8055C96.8643 66.5069 99.4613 67.7417 96.0724 70.9971L83.157 60.1053L88.5695 79.6954C89.6617 78.4515 90.7358 77.1954 91.7946 75.9272C94.3643 72.8357 96.837 69.6652 99.2125 66.4219C100.821 64.2223 102.365 61.9742 103.782 59.6472C105.132 57.4233 106.312 55.1023 107.313 52.7025C107.82 51.583 108.257 50.4331 108.621 49.259C109.052 47.921 109.115 46.489 108.809 45.1177Z" fill="#FFCA41"/>
<path d="M41.941 97.098C39.6049 97.8443 37.1232 96.3274 36.6165 93.8365L31.4437 68.4395L31.119 68.8308C28.9528 71.5219 26.7987 74.2676 24.9783 77.2105C24.3716 78.1875 23.8072 79.1887 23.3036 80.2202C22.6817 81.4914 22.1538 82.8142 21.6137 84.1188C21.4195 84.5921 21.2375 85.0684 21.0737 85.5569C20.7642 86.4701 20.5367 87.4106 20.3971 88.3633C20.1423 90.1169 19.7903 91.9403 19.9451 93.7303C20.0937 95.4202 20.2484 97.3164 20.8552 98.9547C21.2375 99.9954 21.6896 101.012 22.1416 102.022C22.2296 102.222 22.3267 102.419 22.445 102.614C22.6604 103.014 22.9031 103.402 23.1671 103.773C23.9256 104.877 24.7569 105.93 25.6519 106.928C25.9583 107.256 26.289 107.559 26.6409 107.838C27.633 108.627 28.6555 109.525 29.7871 110.15C29.9752 110.253 30.1664 110.347 30.3636 110.435C31.3678 110.89 32.3811 111.345 33.4187 111.718C33.8283 111.864 34.247 111.982 34.6718 112.067C35.3362 112.201 36.0219 112.271 36.6863 112.371C37.3507 112.471 38.0394 112.574 38.719 112.623C40.5758 112.756 42.4872 112.398 44.3014 112.128C47.4203 111.667 50.3693 110.347 53.2273 109.064C55.7363 107.902 58.1453 106.546 60.4389 105.001C63.755 102.768 66.9558 100.372 70.0322 97.817C72.6687 95.6599 75.2111 93.3935 77.6807 91.0513C80.2141 88.6424 82.6716 86.1576 85.0532 83.597L85.4264 83.1965L41.941 97.098Z" fill="#FFCA41"/>
<path d="M83.245 89.5649L83.2298 89.4981L83.1995 89.3707L83.1418 89.1158L82.8991 88.0964L81.9889 84.2707L41.941 97.0981C39.6049 97.8445 37.1232 96.3275 36.6165 93.8366L21.3437 19.0654L16.5774 19.3294L15.5307 19.387H15.2698H15.203H15.0877L14.845 19.4174C13.1855 19.7268 12.0265 21.2377 12.157 22.9216C12.1691 23.0763 12.1903 23.228 12.2176 23.3797L12.2662 23.6376L12.3693 24.1503L12.5696 25.1788L12.9731 27.2358C13.5374 29.9663 14.0835 32.7151 14.6691 35.4487L16.4378 43.6403L19.9451 60.0417C22.2751 70.9638 24.5688 81.9163 26.5226 92.9295C27.0354 95.6782 27.5208 98.43 28.0396 101.176C28.2975 102.547 28.5766 103.906 28.8466 105.29L28.9467 105.802L28.9983 106.06C29.0195 106.151 29.0256 106.2 29.0711 106.388C29.2319 107.022 29.5656 107.599 30.0359 108.051C30.5153 108.518 31.119 108.833 31.7774 108.961C32.1111 109.024 32.454 109.034 32.7907 108.991C32.9576 108.973 33.1244 108.94 33.2852 108.891L33.4066 108.858L33.4673 108.836L33.5947 108.797L37.5813 107.508L41.5618 106.185L49.5137 103.524L65.4237 98.2267L81.3427 92.9477C81.8827 92.7687 82.356 92.4319 82.7019 91.9799C83.0387 91.5399 83.2419 91.0151 83.2874 90.4629C83.3117 90.1929 83.2996 89.9198 83.245 89.6528V89.5649Z" fill="#383838"/>
<path d="M83.0205 60.075L88.4633 79.7652C88.7637 81 88.0689 82.256 86.8675 82.6626L41.7924 97.098C39.4563 97.8444 36.9775 96.3274 36.4678 93.8365L20.2333 14.3476C19.939 13.04 20.7581 11.7414 22.0658 11.4441C22.172 11.4198 22.2781 11.4047 22.3843 11.3956L70.1687 7.97936C71.3793 7.91261 72.4563 8.73784 72.7051 9.92411L76.4641 28.1277" fill="white"/>
<path d="M84.0581 59.7868L88.1782 73.8247L89.2067 77.335L89.7285 79.0886L89.7922 79.3101L89.8256 79.4193L89.862 79.6044C89.9105 79.841 89.9378 80.0807 89.9378 80.3234C89.9439 80.7998 89.862 81.2731 89.6982 81.719C89.3614 82.6444 88.6818 83.4029 87.8019 83.8428C87.6927 83.8974 87.5774 83.949 87.4622 83.9915L87.2983 84.0521L87.1891 84.0885L86.7583 84.2342L85.8936 84.5376L82.4349 85.7087C77.8173 87.256 73.1905 88.7729 68.5456 90.2231C66.2216 90.9483 63.8885 91.6461 61.5676 92.3469L54.5622 94.416C52.2291 95.1138 49.9051 95.8268 47.5842 96.558L44.1042 97.6654L42.3415 98.2115L42.111 98.2843L41.8258 98.3632C41.6346 98.4087 41.4405 98.4451 41.2433 98.4724C40.8488 98.527 40.4484 98.5331 40.054 98.4936C38.4581 98.3328 37.014 97.4773 36.1098 96.1545C35.8884 95.8329 35.7003 95.487 35.5516 95.126C35.4757 94.947 35.409 94.7649 35.3544 94.5768C35.3271 94.4828 35.2967 94.3918 35.2755 94.2947L35.2148 94.0307L34.8356 92.2468L33.3186 85.1049C32.3083 80.3447 31.2768 75.5875 30.2301 70.8303C29.7234 68.4486 29.1955 66.0731 28.7131 63.6854L27.9759 60.1083L27.275 56.5253L26.5894 52.927L25.928 49.3349L24.6143 42.1505C23.7284 37.363 22.8243 32.5785 21.905 27.797L20.5215 20.6248L19.8146 17.0447L19.4566 15.2547L19.3656 14.8057L19.3231 14.5812C19.3231 14.5084 19.2897 14.387 19.2746 14.2778C19.223 13.8621 19.2442 13.4435 19.3383 13.0369C19.5355 12.2086 20.033 11.4835 20.7369 11.0042C21.0919 10.7706 21.4924 10.6098 21.911 10.5309C22.3874 10.452 22.6149 10.4581 22.9365 10.4277L26.5772 10.1577L33.8587 9.55092C36.2858 9.35068 38.713 9.15044 41.1401 8.97447L44.7808 8.70445L48.4215 8.46477C50.8487 8.29791 53.2758 8.16138 55.703 8.01879L62.9844 7.58797L70.3356 7.10254C71.176 7.10254 71.983 7.4302 72.5868 8.01272C72.8871 8.29791 73.1329 8.63771 73.3119 9.01392C73.3604 9.10493 73.3999 9.19899 73.4333 9.29607C73.4697 9.39619 73.5 9.49631 73.5273 9.59946L73.5667 9.75116L73.591 9.86342L73.6365 10.0879L74.3859 13.6619C75.3962 18.4252 76.4277 23.1854 77.5169 27.9365L75.3932 28.3704C74.5164 23.5829 73.5728 18.8074 72.6262 14.0351L71.9163 10.455L71.8708 10.2336L71.8465 10.1213L71.8283 10.0515C71.8192 10.009 71.8101 9.96657 71.7949 9.92409C71.7798 9.87555 71.7616 9.83004 71.7373 9.78757C71.6554 9.60553 71.5401 9.44473 71.3975 9.30517C71.1184 9.02909 70.7452 8.87132 70.3538 8.86525H70.193L69.9655 8.88042L69.5104 8.91076L68.6002 8.98054L66.7798 9.1201L63.1391 9.39922L55.8577 10.006C53.4305 10.2123 51.0034 10.4217 48.5763 10.6128L44.9355 10.8919L41.2948 11.1437C38.8677 11.3167 36.4405 11.4653 34.0134 11.611L26.7107 12.0478L23.07 12.2966C22.7848 12.3179 22.4025 12.3391 22.2751 12.3634C22.0961 12.3967 21.9293 12.4696 21.7776 12.5697C21.4651 12.7851 21.2497 13.1097 21.1708 13.4799C21.1283 13.668 21.1222 13.8591 21.1465 14.0502C21.1465 14.1049 21.1465 14.1322 21.1738 14.208L21.2193 14.4325L21.3134 14.8785L21.6865 16.6655L22.4329 20.2395L23.9741 27.3753C25.0087 32.1355 26.0554 36.8866 27.1082 41.6347L28.7131 48.7584L29.508 52.3233L30.2756 55.8912L31.0371 59.4621L31.7622 63.0422C32.2568 65.4238 32.7027 67.8176 33.17 70.2083C34.071 74.9928 34.9903 79.7713 35.9278 84.5497L37.3234 91.7189L37.6723 93.5089L37.7118 93.6909C37.7118 93.7455 37.7391 93.7971 37.7512 93.8517C37.7815 93.9549 37.8149 94.055 37.8574 94.1551C37.9393 94.3554 38.0425 94.5495 38.1608 94.7316C38.6432 95.4567 39.4199 95.936 40.2845 96.0422C40.4939 96.0665 40.7062 96.0665 40.9156 96.0422C41.0187 96.0301 41.1189 96.0088 41.219 95.9815C41.2706 95.9815 41.3221 95.9512 41.3737 95.9391L41.58 95.8754L43.3185 95.3141L46.7923 94.1946C49.1072 93.4391 51.416 92.6685 53.7188 91.8827L60.624 89.498C62.9237 88.7031 65.2295 87.9143 67.5414 87.1528C72.1681 85.6358 76.8131 84.1705 81.4701 82.7597L84.9652 81.7039L85.839 81.4399L86.2759 81.3064L86.3851 81.2731L86.4336 81.2549C86.464 81.2488 86.4913 81.2397 86.5156 81.2245C86.7401 81.1214 86.9191 80.9393 87.0101 80.7087C87.0829 80.5267 87.1072 80.3265 87.0829 80.1323V80.0928L87.0526 79.9806L86.998 79.7591L86.5459 77.9964L85.6357 74.4679L81.9647 60.3511L84.0581 59.7868Z" fill="#383838"/>
<path d="M37.2081 47.1141C41.5648 46.2039 45.9489 45.4 50.3329 44.6263L52.484 44.2471C53.2 44.1196 52.8966 43.0335 52.1806 43.1518C48.3639 43.8223 44.5472 44.5019 40.7426 45.2422C39.4623 45.494 38.185 45.7489 36.9078 46.0189C36.1948 46.1706 36.4951 47.2628 37.2081 47.1141Z" fill="#383838"/>
<path d="M35.8489 41.3254C40.7366 40.3242 45.6667 39.5444 50.5756 38.6616C51.6466 38.4674 52.7176 38.2702 53.7855 38.0548C54.4985 37.9092 54.1951 36.8139 53.4821 36.9626C48.9312 37.9031 44.3227 38.5857 39.7506 39.4261C38.3489 39.684 36.9442 39.951 35.5486 40.2392C34.8325 40.3848 35.1359 41.4771 35.8519 41.3314L35.8489 41.3254Z" fill="#383838"/>
<path d="M34.6111 36.0858C40.1359 35.0088 45.7153 34.2382 51.2977 33.4281C53.2424 33.1429 55.1872 32.8547 57.1319 32.5665C57.4323 32.4815 57.6082 32.1721 57.5294 31.8687C57.4384 31.5713 57.1319 31.3954 56.8316 31.4712C50.788 32.3814 44.7292 33.1793 38.7038 34.2018C37.2385 34.4475 35.7791 34.7115 34.3228 34.9936C33.6068 35.1332 33.9102 36.2284 34.6262 36.0889L34.6111 36.0858Z" fill="#383838"/>
<path d="M32.8575 28.7345C41.2432 27.6454 49.6503 26.7473 58.0391 25.6187C60.3358 25.3092 62.6294 24.9755 64.92 24.6205C65.4965 24.5295 65.8151 23.8105 65.6725 23.2947C65.5056 22.6879 64.9231 22.4513 64.3466 22.5393C56.2187 23.8135 48.0423 24.7176 39.8749 25.7036C37.5388 25.9858 35.2027 26.2771 32.8696 26.5774C32.2931 26.6533 31.7925 27.0204 31.7925 27.6545C31.7925 28.1793 32.2871 28.8104 32.8696 28.7345H32.8575Z" fill="#383838"/>
<path d="M98.1658 69.6925C98.1658 69.5286 98.1355 69.3678 98.0809 69.2131C98.0233 69.0584 97.9353 68.9158 97.823 68.7944L97.5864 68.5669C97.5227 68.9704 97.3467 69.3466 97.0797 69.6561C96.5336 70.2386 95.8054 70.6208 95.0166 70.7361C94.7254 70.7816 94.428 70.6937 94.2096 70.4934L80.0866 57.5871C80.0351 57.5385 79.9865 57.4839 79.9471 57.4263L79.8318 57.5264C79.765 57.578 79.7074 57.6356 79.6528 57.6993C79.1674 58.2485 79.0794 59.0464 79.4404 59.6865C79.5011 59.7927 79.5709 59.8959 79.6498 59.9899L79.7681 60.1204L79.8379 60.1871L80.117 60.4632C80.8603 61.1944 81.6764 61.8528 82.4561 62.5445C83.2359 63.2362 84.0095 63.9371 84.7862 64.6349L89.4463 68.8187C90.22 69.5165 91.0058 70.2052 91.7916 70.8939C92.1799 71.2428 92.5773 71.5796 92.9748 71.9194L93.5816 72.423L93.885 72.6748L94.0336 72.7992L94.1368 72.8842L94.2642 72.9721C94.5312 73.1329 94.8437 73.2118 95.1562 73.1966C95.2502 73.1906 95.3413 73.1784 95.4323 73.1572C95.7235 73.0874 96.0057 72.9873 96.2757 72.8538C96.8097 72.599 97.2769 72.2228 97.644 71.7586C97.9868 71.2731 98.1719 70.6906 98.1719 70.096C98.1719 69.9655 98.1658 69.8259 98.1658 69.6925Z" fill="#383838"/>
<path d="M84.4646 54.887C85.8633 56.2341 87.3408 57.4901 88.8244 58.7462C90.308 60.0022 91.746 61.3007 93.1568 62.6326C94.5676 63.9645 95.945 65.3328 97.3345 66.686C97.4195 66.774 97.5075 66.8437 97.6167 66.9894C97.7138 67.1138 97.7866 67.2533 97.8321 67.402C97.8776 67.5476 97.8928 67.7023 97.8776 67.854C97.8776 67.9815 97.8533 68.1089 97.8382 68.2363C97.8169 68.7733 97.6561 69.2952 97.374 69.7533C97.0524 70.1962 96.6367 70.5633 96.1604 70.8303C95.9207 70.9669 95.6689 71.0761 95.408 71.158C95.2715 71.2035 95.1319 71.2399 94.9893 71.2642C94.8042 71.2915 94.6131 71.2854 94.4311 71.246C94.243 71.2035 94.067 71.1277 93.9062 71.0215C93.8668 70.9942 93.8273 70.9669 93.7909 70.9365L93.712 70.8728L93.5725 70.7575L93.0082 70.2994C92.632 69.996 92.2648 69.6774 91.8917 69.3649C91.1605 68.7248 90.4233 68.0937 89.6981 67.4505L85.3536 63.5792L83.1813 61.6406C82.4562 60.9974 81.6886 60.3997 80.9908 59.7231C80.8178 59.5562 80.6419 59.3863 80.475 59.2104L80.3233 59.0556C80.2687 59.001 80.2232 58.9403 80.1838 58.8736C80.1474 58.8129 80.12 58.7522 80.0988 58.6855C80.0685 58.5884 80.0533 58.4853 80.0533 58.3821C80.0533 58.2699 80.0685 58.1606 80.1049 58.0544C80.1413 57.9483 80.1898 57.8481 80.2475 57.751C80.2899 57.6782 80.3354 57.6085 80.387 57.5417C80.7238 57.1261 81.1091 56.7499 81.5308 56.4222C81.9283 56.1006 82.3318 55.8154 82.7444 55.512C82.9507 55.3633 83.16 55.2086 83.3845 55.0842C83.4998 55.0084 83.6182 54.9416 83.7425 54.884C83.8184 54.8476 83.8942 54.8172 83.9762 54.796C84.0368 54.7808 84.0975 54.7717 84.1582 54.7717C84.2705 54.7717 84.3797 54.8112 84.4646 54.887ZM84.0247 55.3694C84.0611 55.4058 84.1066 55.4271 84.1582 55.4331C84.1794 55.4331 84.1582 55.4331 84.1582 55.4331C84.1218 55.4453 84.0884 55.4635 84.0581 55.4847C83.9671 55.5393 83.8821 55.6 83.7972 55.6637C83.6212 55.8124 83.4543 55.9732 83.2966 56.14C82.981 56.492 82.6837 56.8651 82.4137 57.2535C82.1558 57.6115 81.9222 57.9907 81.7189 58.3821C81.7038 58.4155 81.6886 58.4519 81.6764 58.4883C81.6764 58.5126 81.6764 58.5368 81.6764 58.5065C81.6916 58.458 81.7007 58.4094 81.7007 58.3578C81.6977 58.2334 81.6643 58.1151 81.6006 58.0089C81.5733 57.9574 81.5399 57.9058 81.5035 57.8603H81.4883H81.5065L81.5399 57.8876L81.6127 57.9452C81.8039 58.0969 81.9889 58.2486 82.174 58.4094C82.9113 59.0405 83.5818 59.7474 84.2978 60.4057L86.4367 62.3808L90.7054 66.3249C91.4184 66.9833 92.1162 67.6538 92.8292 68.3213C93.175 68.6611 93.5239 68.9978 93.8668 69.3437L94.3795 69.8595L94.5919 70.0779C94.6313 70.1143 94.6738 70.1416 94.7223 70.1629C94.7739 70.1841 94.8285 70.1962 94.8831 70.1962C94.959 70.1962 95.0834 70.178 95.1865 70.1629C95.3928 70.1325 95.5961 70.0779 95.7933 70.0051C96.1968 69.8564 96.5669 69.6259 96.8734 69.3255C97.1525 68.9918 97.3254 68.5822 97.3679 68.1483C97.377 68.033 97.377 67.9208 97.3679 67.8055C97.3679 67.7145 97.3497 67.6235 97.3194 67.5385C97.289 67.4566 97.2405 67.3838 97.1828 67.3201C97.107 67.2442 97.0251 67.1714 96.9401 67.1047C95.4656 65.8425 93.9851 64.5865 92.5258 63.3062C91.0664 62.0259 89.6405 60.7122 88.2783 59.3408C86.916 57.9695 85.4931 56.6467 84.0247 55.3694Z" fill="#383838"/>
<path d="M86.9646 45.1723C86.3487 54.7474 78.0873 62.0106 68.5122 61.3947C58.9371 60.7788 51.6739 52.5174 52.2898 42.9424C52.399 41.2221 52.7661 39.5262 53.3759 37.9121C52.9694 38.6008 52.6144 39.3168 52.308 40.0571C50.4603 44.5079 50.4664 49.5139 52.3323 53.9586C53.2515 56.1582 54.5895 58.1545 56.2764 59.8383C57.9602 61.5221 59.9626 62.851 62.1652 63.7521C71.4005 67.5202 81.9404 63.0877 85.7055 53.8524C86.5914 51.677 87.0465 49.35 87.0435 47.0018C87.0495 46.3919 87.0222 45.7791 86.9646 45.1723Z" fill="#383838"/>
<path d="M82.4349 56.7923C77.2894 61.9712 69.5407 63.555 62.7751 60.8153C60.5724 59.9173 58.57 58.5854 56.8862 56.9015C53.4791 53.5035 51.5586 48.892 51.5404 44.0802C51.5313 41.6925 52.0016 39.326 52.9208 37.1203C54.7776 32.6695 58.3121 29.132 62.7629 27.2722C64.9686 26.359 67.335 25.9008 69.7228 25.9282C79.6771 26.0222 87.6715 34.1683 87.5744 44.1226C87.5532 46.4436 87.0829 48.7403 86.1909 50.8822C85.7449 51.9653 85.1897 53.0029 84.5374 53.9768C84.3706 54.2135 84.2098 54.4592 84.0338 54.6928C83.8578 54.9265 83.6879 55.1631 83.5211 55.4028L82.9992 56.1127C82.8172 56.3433 82.6261 56.5678 82.4349 56.7923ZM81.552 55.9095C81.7493 55.7213 81.9525 55.5332 82.1588 55.3512C82.3651 55.1692 82.5533 54.9659 82.7505 54.7687C82.9386 54.5685 83.1206 54.3561 83.2875 54.1376C83.4543 53.9162 83.606 53.6856 83.7668 53.458C85.6388 50.682 86.6278 47.4023 86.6036 44.0529C86.5914 39.5839 84.7893 35.303 81.6006 32.172C78.4241 29.0834 74.1493 27.3814 69.7197 27.4482C67.5444 27.4815 65.3933 27.9275 63.3818 28.7618C59.3194 30.4396 56.0913 33.6647 54.4075 37.7271C53.5792 39.7386 53.1484 41.8927 53.1302 44.068C53.112 46.2494 53.5246 48.4156 54.3438 50.4393C55.172 52.4599 56.3917 54.2924 57.9359 55.8366C64.4316 62.3748 74.9957 62.4081 81.5338 55.9125C81.5369 55.9094 81.5369 55.9094 81.5399 55.9064L81.552 55.9095Z" fill="#383838"/>
<path d="M80.4325 54.4198C79.0733 55.7941 77.4593 56.8864 75.6783 57.6388C73.8914 58.3882 71.9769 58.7826 70.0413 58.8038C68.0996 58.822 66.173 58.4579 64.3709 57.7298C62.5657 56.9925 60.9274 55.9034 59.55 54.5229C55.2843 50.2845 53.9918 43.892 56.2764 38.3278C57.0166 36.5135 58.121 34.8691 59.5196 33.4978C60.9122 32.1325 62.5809 31.0828 64.4134 30.4184C66.2186 29.757 68.1299 29.4263 70.0534 29.4475C73.8974 29.5264 77.5654 31.0858 80.2899 33.7981C85.9967 39.4686 86.0635 48.6796 80.4386 54.4289L80.4325 54.4198ZM79.489 53.4762C83.3876 49.6717 84.6133 43.892 82.5896 38.8345C81.9191 37.184 80.9331 35.6822 79.6831 34.411C77.1407 31.8564 73.6577 30.4639 70.0534 30.5549C68.2907 30.5822 66.5523 30.9827 64.9564 31.732C63.3909 32.4814 61.965 33.4978 60.7484 34.7387C59.5439 35.9735 58.5822 37.4237 57.9056 39.0104C56.5464 42.2325 56.5221 45.8611 57.8328 49.1013C58.4881 50.7093 59.459 52.1686 60.6847 53.3973C65.8575 58.6127 74.2797 58.6491 79.495 53.4762H79.489Z" fill="#383838"/>
<path d="M81.37 56.4919C81.37 56.4919 95.3413 69.9322 96.4456 69.8928C97.0979 69.8685 95.0894 70.9668 95.0894 70.9668L90.1593 67.3079L80.0866 57.5993L81.37 56.4919Z" fill="#383838"/>
<path d="M80.8967 41.6894C81.5369 43.7707 81.2577 46.0309 80.1231 47.8907C79.7469 48.5188 80.7299 49.1043 81.103 48.4641C82.3894 46.3404 82.714 43.7676 81.9889 41.389C81.7826 40.6912 80.6874 40.9886 80.8967 41.6894Z" fill="#383838"/>
<path d="M57.6295 40.0571C58.0209 39.8296 58.4244 39.6202 58.8431 39.426C59.2618 39.2319 59.4893 39.1226 60.002 38.9406C60.9335 38.5947 61.8831 38.3005 62.8479 38.0577C63.8187 37.812 64.7987 37.6087 65.7847 37.451C66.0244 37.4085 66.2671 37.3721 66.5068 37.3357L66.8375 37.2871L67.0013 37.2659H67.0954C67.5474 37.2082 68.0055 37.1567 68.4606 37.1172C69.3708 37.0353 70.281 36.9837 71.1912 36.9807C71.7858 37.011 72.2955 36.5559 72.3259 35.9583C72.3562 35.3636 71.9011 34.8539 71.3034 34.8236C71.264 34.8205 71.2276 34.8205 71.1881 34.8236C69.3344 34.8448 67.4867 35.0056 65.6603 35.309C63.6306 35.6094 61.6313 36.1069 59.6956 36.7865C58.6095 37.1688 57.5567 37.6451 56.5525 38.2125C56.0367 38.5128 55.8637 39.1742 56.1641 39.69C56.4645 40.2058 57.1259 40.3787 57.6416 40.0783L57.6295 40.0571Z" fill="#383838"/>
<path d="M57.2321 45.421C58.7156 44.8688 60.2387 44.4168 61.783 44.0709C63.9674 43.54 66.1761 43.1061 68.3909 42.7178C69.8654 42.4599 71.3429 42.2233 72.8265 42.0078C73.4029 41.9259 73.7215 41.1948 73.5789 40.682C73.409 40.0752 72.8325 39.8447 72.2531 39.9296C67.7962 40.5758 63.309 41.3343 58.9735 42.5752C58.1908 42.7997 57.4111 43.0424 56.6495 43.3397C56.0852 43.5127 55.7545 44.0952 55.8971 44.6656C56.0397 45.1844 56.6768 45.6334 57.223 45.421H57.2321Z" fill="#383838"/>
<path d="M57.6568 50.4725C61.9043 49.8233 66.1215 48.8554 70.2901 47.8148C71.5644 47.4962 72.8325 47.1625 74.0977 46.8136C75.4356 46.4404 74.8683 44.3592 73.5243 44.7323C69.0856 45.9671 64.5803 47.0108 60.0536 47.8755C59.0676 48.0636 58.0755 48.2396 57.0834 48.3913C56.507 48.4792 56.1884 49.2043 56.331 49.7201C56.4979 50.3269 57.0773 50.5605 57.6568 50.4725Z" fill="#383838"/>
</g>
<defs>
<clipPath id="clip0_5_442">
<rect width="109" height="112.149" fill="white" transform="translate(0 0.500732)"/>
</clipPath>
</defs>
</svg>
