<svg width="114" height="121" viewBox="0 0 114 121" fill="none" xmlns="http://www.w3.org/2000/svg">
<g clip-path="url(#clip0_5_232)">
<path d="M24.4423 65.6808C25.2341 64.3541 26.0742 63.0516 26.9385 61.7521C26.5124 55.8834 26.2585 51.5709 26.2585 51.5709L28.1926 46.6359L27.7514 43.6592C27.7514 43.6592 32.0457 42.5199 33.2787 38.7001C35.3125 32.3931 29.8578 28.9782 29.8578 28.9782L60.6825 27.2103C62.4594 26.0257 64.2968 24.9378 66.1916 23.9526C66.7054 23.6867 67.2252 23.4328 67.751 23.188C68.8299 22.7801 69.9359 22.4446 71.0601 22.1847C71.0601 22.224 71.0601 22.2633 71.0601 22.3026C70.8939 22.9855 70.6944 23.6625 70.4557 24.3243C70.0538 25.1403 69.6246 25.9381 69.1713 26.7208L85.7925 25.7688C86.7747 25.7114 87.7206 26.1526 88.3068 26.9444L89.9478 29.1535C90.5613 29.9846 90.9813 30.9395 91.1717 31.9549C91.5192 31.0967 91.8426 30.2294 92.1085 29.3499C92.6918 27.44 92.9033 25.4455 93.133 23.4691C93.2448 22.502 93.2448 21.5259 93.133 20.5589C92.9124 18.6792 92.7613 16.6967 92.0723 14.9046C91.3833 13.1126 90.6761 11.2691 89.561 9.68258C88.748 8.48888 87.8566 7.35259 86.8955 6.27373C86.5661 5.91713 86.2126 5.58471 85.8348 5.27948C84.7922 4.36985 83.6801 3.54182 82.5106 2.7984C81.2746 2.13355 79.9872 1.56541 78.6635 1.09699C76.9047 0.414016 74.8951 0.253848 73.0607 0.0634606C72.0483 -0.0332443 71.0299 -0.0211562 70.0205 0.105769C67.9444 0.353575 65.8773 0.589294 63.8677 1.16952C61.7825 1.77393 59.797 2.68054 57.8055 3.51764C55.2005 4.65997 52.6922 6.01384 50.3109 7.56716C46.8386 9.85181 43.4901 12.3178 40.2777 14.959C37.5579 17.1409 34.9439 19.4437 32.4053 21.8311C29.7852 24.2941 27.2498 26.8417 24.7929 29.4738C22.3873 32.0456 20.0604 34.6868 17.8089 37.3946C15.1405 40.6191 12.5748 43.9191 10.1118 47.2947C8.45275 49.5734 6.86316 51.9245 5.40956 54.3482C3.79882 57.0952 2.39962 59.9631 1.22103 62.9217C0.897675 63.6893 0.625693 64.475 0.405085 65.2788C-0.0542635 66.7083 -0.12377 68.2344 0.205631 69.697C0.272116 71.1627 0.72542 72.5831 1.52021 73.813C2.1911 75.0763 3.17326 76.1461 4.37603 76.9197C5.43978 77.8958 6.73623 78.5788 8.14148 78.9052L11.088 79.298C13.0523 79.3011 14.9803 78.7813 16.6757 77.787L18.918 76.0554C20.2749 74.7015 21.2571 73.0183 21.7648 71.1688C21.8826 70.7306 22.0217 70.2984 22.1728 69.8693C22.8527 68.4369 23.6294 67.0437 24.4423 65.6808Z" fill="#FFCA41"/>
<path d="M113.794 48.2074C113.731 46.7417 113.278 45.3183 112.48 44.0884C111.809 42.8251 110.827 41.7554 109.627 40.9817C108.563 40.0056 107.267 39.3226 105.862 38.9962L102.918 38.6004C100.954 38.5973 99.0228 39.1171 97.3275 40.1114L95.0881 41.843C94.0032 42.9279 93.154 44.2304 92.601 45.6628L93.8098 57.482L94.7164 67.503C94.9008 69.0594 94.1936 70.5855 92.8881 71.4498L87.3457 75.1185L75.7411 80.1744L73.4202 81.2533C71.0177 83.9217 68.4641 86.4542 65.7714 88.8325C64.8497 89.6394 63.9129 90.4281 62.9549 91.2048C60.4708 93.0694 57.8326 94.7224 55.0704 96.1458C54.6836 96.3423 54.2938 96.5296 53.9039 96.714C52.4987 97.2458 51.0572 97.6689 49.5854 97.9742C48.981 98.0104 48.3827 98.0165 47.7934 97.9953C47.4912 97.9228 47.189 97.8412 46.8868 97.7505C46.6631 97.6266 46.4425 97.4967 46.228 97.3637C45.8714 97.0282 45.5269 96.6807 45.2005 96.3181C44.862 95.8104 44.5477 95.2876 44.2576 94.7496C44.2365 94.6801 44.2213 94.6076 44.2002 94.5381C42.4988 95.2634 41.3383 95.7227 41.0059 95.7802C38.9691 96.1337 33.0277 97.0192 30.8912 93.6103C29.8304 91.918 28.7999 83.4926 27.981 74.6229C27.0804 76.0644 26.2735 77.5634 25.5633 79.1076C24.2699 81.9393 22.9674 84.8888 22.4839 87.9924C22.1817 89.9295 21.8311 91.9543 21.8795 93.9367C21.8946 94.4293 21.9339 94.9219 21.9973 95.4115C22.1333 96.8772 22.3539 98.3368 22.6561 99.7783C22.78 100.277 22.9342 100.77 23.1125 101.25C23.6051 102.61 24.1672 103.946 24.7988 105.248C25.3881 106.454 26.0982 107.599 26.9142 108.666C28.2469 110.422 29.5343 112.217 31.2357 113.631C32.8313 114.958 34.5176 116.351 36.4124 117.258C37.7602 117.92 39.1504 118.5 40.5677 118.992C41.1147 119.18 41.6707 119.331 42.2359 119.449C43.759 119.751 45.2942 119.965 46.8414 120.098C47.4217 120.156 48.0049 120.18 48.5882 120.177C49.1926 120.177 49.803 120.144 50.4225 120.074C52.0091 119.908 53.6017 119.709 55.1702 119.412C56.4696 119.165 57.751 118.817 58.9991 118.379C61.2323 117.593 63.4203 116.677 65.5478 115.638C66.9198 114.976 68.2676 114.236 69.558 113.444C73.1663 111.186 76.6024 108.66 79.8329 105.889C82.5981 103.565 85.2212 101.075 87.6902 98.4395C90.8422 95.0277 93.8189 91.4556 96.6022 87.7385C98.8868 84.7558 101.011 81.6522 102.97 78.4458C104.855 75.3663 106.554 72.1751 108.056 68.8901C109.814 65.0189 111.465 61.057 112.607 56.9562C113.006 55.5267 113.344 54.0822 113.604 52.6195C114.06 51.1931 114.124 49.67 113.794 48.2074Z" fill="#FFCA41"/>
<path d="M87.0284 21.7708C90.265 20.9488 93.5529 22.904 94.3749 26.1406C94.3961 26.2222 94.4142 26.3038 94.4324 26.3854C94.5653 26.8719 95.07 27.159 95.5596 27.0231C96.0491 26.8871 96.3332 26.3854 96.1972 25.8989C95.2423 21.6499 91.0235 18.9814 86.7745 19.9364C86.693 19.9545 86.6083 19.9757 86.5267 19.9968C85.3844 20.2779 85.8679 22.0458 87.0133 21.7617L87.0284 21.7708Z" fill="#383838"/>
<path d="M24.4663 98.0104C24.8229 98.8566 25.3367 99.6302 25.9774 100.289C26.5787 100.981 27.2678 101.592 28.0293 102.102C28.9722 102.676 29.9785 103.136 31.0272 103.477C32.1514 103.894 33.342 104.094 34.5418 104.064C35.0344 104.048 35.4333 103.65 35.4484 103.157C35.4363 102.661 35.0374 102.262 34.5418 102.25C33.5536 102.278 32.5714 102.117 31.6437 101.779C30.728 101.483 29.8516 101.084 29.0266 100.588C28.4192 100.183 27.8661 99.6997 27.3826 99.1497C27.1348 98.8898 26.9051 98.6118 26.6966 98.3187C26.5878 98.1645 26.4851 98.0074 26.3944 97.8442C26.3581 97.7838 26.3279 97.7203 26.2916 97.6568C26.1829 97.4544 26.2916 97.7052 26.2433 97.5541C26.0982 97.0766 25.6026 96.7956 25.1161 96.9164C24.6326 97.0464 24.3455 97.542 24.4724 98.0255C24.4754 98.0316 24.4754 98.0376 24.4784 98.0436L24.4663 98.0104Z" fill="#383838"/>
<path d="M13.5508 95.3813C14.8593 98.5362 16.7843 101.398 19.2141 103.801C22.4114 107.034 26.4669 109.464 30.9546 110.358C34.0734 110.954 37.2798 110.911 40.3804 110.228C40.8669 110.096 41.154 109.591 41.021 109.101C40.8881 108.615 40.3834 108.328 39.8938 108.464C38.5671 108.748 37.2193 108.911 35.8624 108.95C35.1976 108.968 34.5297 108.95 33.8679 108.914C33.2635 108.872 32.7104 108.811 32.2118 108.733C29.9876 108.385 27.8389 107.654 25.8655 106.572C24.9287 106.061 24.0282 105.481 23.1729 104.843C22.91 104.647 22.9523 104.68 22.6924 104.472C22.4869 104.308 22.2844 104.139 22.088 103.97C21.7042 103.64 21.3325 103.305 20.9699 102.954C20.2808 102.284 19.6251 101.579 19.0086 100.839C18.8665 100.667 18.7245 100.495 18.5855 100.319L18.4042 100.09C18.5341 100.256 18.3256 99.9838 18.2833 99.9294C18.0173 99.5789 17.7605 99.2192 17.5127 98.8536C17.0231 98.1464 16.5728 97.4121 16.1618 96.6565C15.9775 96.3211 15.8052 95.9826 15.642 95.6351C15.5725 95.487 15.503 95.3329 15.4365 95.1848C15.37 95.0367 15.3338 94.937 15.4184 95.1425L15.3156 94.9038C15.1706 94.4233 14.675 94.1422 14.1884 94.2631C13.7533 94.384 13.3664 94.9279 13.5508 95.3903V95.3813Z" fill="#383838"/>
<path d="M50.3923 79.2709L41.3262 82.1479C40.8609 82.2959 40.3652 82.0361 40.2202 81.5737C40.2021 81.5132 40.1869 81.4498 40.1809 81.3833L39.5372 73.5472C39.5009 73.106 39.7941 72.7101 40.2262 72.6134L49.1745 70.646C49.6519 70.5433 50.1203 70.8455 50.2231 71.323C50.2291 71.3532 50.2352 71.3834 50.2382 71.4106L50.9937 78.3371C51.0421 78.7511 50.7882 79.144 50.3923 79.2709Z" fill="#383838" stroke="#383838" stroke-width="9.23" stroke-miterlimit="10"/>
<path d="M24.1007 20.7915L23.2817 20.8943C23.0007 20.9275 22.7166 20.9698 22.4355 21.0121C21.8734 21.0907 21.3144 21.1935 20.7613 21.2962C19.6825 21.5017 18.6157 21.7797 17.5761 22.1333C17.0865 22.3026 16.6091 22.505 16.1467 22.7377C15.7236 22.9432 15.3187 23.185 14.9379 23.463C14.6085 23.7078 14.3093 23.9888 14.0464 24.3062C13.8228 24.5933 13.6445 24.9106 13.5175 25.2521C13.3936 25.6238 13.3241 26.0106 13.3151 26.4004C13.306 26.8447 13.3453 27.2859 13.4329 27.7211C13.4994 28.0897 13.6414 28.4403 13.85 28.7546C14.0524 29.0447 14.3274 29.2774 14.6508 29.4225C15.0588 29.6068 15.4939 29.7247 15.9412 29.77C16.464 29.8274 16.9929 29.8425 17.5187 29.8183C18.6217 29.77 19.7852 29.6068 20.991 29.4376C22.2633 29.2321 23.5507 29.1263 24.8381 29.1172C25.5754 29.1263 26.3068 29.217 27.023 29.3953C27.848 29.5947 28.6216 29.9604 29.3016 30.4681C30.0057 31.003 30.586 31.689 30.9939 32.4747C31.1843 32.8343 31.3445 33.2121 31.4744 33.5989C31.6014 33.9676 31.7041 34.3453 31.7766 34.7291C31.961 35.5874 31.961 36.4728 31.7766 37.3311C31.5651 38.2528 31.1269 39.1081 30.5044 39.8213C29.9453 40.4408 29.2835 40.9606 28.5491 41.3595C27.9084 41.707 27.2375 41.9941 26.5425 42.2147C25.2762 42.6045 23.9738 42.8705 22.6531 43.0065C20.172 43.2633 17.6698 43.2724 15.1857 43.0397C14.3153 42.9551 13.6777 42.1784 13.7653 41.3081C13.8379 40.5556 14.4332 39.9603 15.1857 39.8877C17.5368 39.6611 19.8729 39.4647 22.085 39.0627C23.1457 38.8844 24.1913 38.6215 25.2098 38.274C26.1557 37.9385 26.9807 37.4792 27.3735 37.0349C27.5579 36.8536 27.6939 36.624 27.7664 36.3761C27.845 36.0588 27.8631 35.7264 27.8148 35.4031C27.7876 35.1976 27.7483 34.9981 27.6908 34.7986C27.6425 34.6113 27.5821 34.43 27.5035 34.2547C27.3826 33.9585 27.1922 33.6926 26.9535 33.481C26.6815 33.2514 26.3642 33.0821 26.0227 32.9824C25.5785 32.8464 25.1191 32.7588 24.6567 32.7165C23.5507 32.6349 22.4386 32.6349 21.3325 32.7165C20.1479 32.7769 18.9149 32.8978 17.6305 32.9189C16.9566 32.9401 16.2827 32.9159 15.6118 32.8464C14.8623 32.7769 14.1219 32.6047 13.4208 32.3296C12.626 32.0154 11.9128 31.5258 11.3387 30.8942C10.7886 30.2747 10.3656 29.5584 10.0906 28.7788C9.8367 28.0625 9.67653 27.3161 9.61307 26.5576C9.54356 25.7446 9.61912 24.9257 9.8367 24.1399C9.95154 23.735 10.1057 23.3391 10.29 22.9614C10.4834 22.5927 10.707 22.2391 10.9609 21.9097C11.4444 21.2841 12.0186 20.7402 12.6683 20.2899C13.8228 19.4921 15.1071 18.8998 16.464 18.5371C17.7242 18.1986 19.0146 17.9811 20.3171 17.8934C20.9578 17.842 21.6015 17.842 22.23 17.842C22.5322 17.842 22.8647 17.8572 23.182 17.8723C23.4993 17.8874 23.8045 17.9146 24.1641 17.9508C24.9499 18.0294 25.5241 18.7305 25.4455 19.5162C25.379 20.1811 24.8622 20.7099 24.2004 20.7915H24.1007Z" fill="#383838"/>
<path d="M18.0596 15.7267L22.2905 30.5165L26.5787 45.2882C26.7691 46.2281 26.1587 47.1468 25.2188 47.3341C24.3878 47.5003 23.5597 47.047 23.2545 46.2583L18.9995 31.4564L14.6991 16.6847C14.3909 15.769 14.8835 14.7778 15.7992 14.4696C16.7148 14.1613 17.7061 14.6539 18.0143 15.5696C18.0294 15.6149 18.0445 15.6633 18.0536 15.7086L18.0596 15.7267Z" fill="#383838"/>
<path d="M95.75 65.9196L95.0368 60.0267C94.7889 58.0623 94.5744 56.098 94.3538 54.1367L93.695 48.2438C93.4804 46.2794 93.2447 44.3151 93.0452 42.3478H93.0845C92.7249 38.9057 92.3834 35.4576 92.0842 32.0094C92.0389 31.5712 92.0268 31.1784 91.9452 30.6495C91.8666 30.1509 91.7367 29.6613 91.5584 29.1899C91.1927 28.244 90.6367 27.3827 89.9205 26.6635C89.2042 25.9352 88.3399 25.37 87.388 25.0044C86.9135 24.823 86.421 24.6931 85.9193 24.6115C85.6685 24.5722 85.4146 24.545 85.1608 24.5299C84.9069 24.5148 84.6833 24.5299 84.4415 24.5299L79.2406 24.5934C77.509 24.6175 75.7774 24.6296 74.0457 24.675L63.653 24.9016L53.2572 25.1283L48.0593 25.2401C46.3277 25.2733 44.5931 25.3489 42.8584 25.4003L32.4566 25.7508H32.1121L31.7646 25.775L31.3566 25.8143C31.2145 25.8324 31.0786 25.8536 30.9456 25.8777C30.6706 25.9291 30.4409 25.9805 30.1719 26.05C29.903 26.1195 29.6431 26.2102 29.3832 26.3099C28.5219 26.6423 27.7211 27.1198 27.02 27.7212C28.3285 28.0355 29.5403 28.655 30.5588 29.5344L30.6404 29.4951C30.7854 29.4347 30.9426 29.3803 31.0816 29.338C31.2206 29.2956 31.42 29.2473 31.5742 29.2171C31.6527 29.1989 31.7283 29.1869 31.8038 29.1748C31.8794 29.1627 31.9338 29.1566 32.0396 29.1476C32.1453 29.1385 32.2481 29.1234 32.3418 29.1173L32.644 29.0992L42.9974 28.519C44.723 28.4283 46.4486 28.3165 48.1772 28.244L53.363 28.0173L63.7346 27.564L74.1062 27.1107C75.8348 27.0291 77.5664 26.9778 79.295 26.9173L84.4597 26.7269C84.6531 26.7269 84.8586 26.7269 85.0399 26.7269C85.2182 26.733 85.3965 26.7481 85.5748 26.7723C85.9284 26.8206 86.2789 26.9052 86.6144 27.0261C87.2913 27.2679 87.9108 27.6517 88.4276 28.1533C88.9534 28.655 89.3644 29.2624 89.6364 29.9363C89.7724 30.2718 89.8751 30.6223 89.9386 30.9789C89.996 31.3053 90.0293 31.7767 90.0746 32.1877C90.3919 35.3246 90.6941 38.4615 90.9812 41.6013L83.8311 42.6228L75.7351 43.7289L59.5309 45.8654L43.3268 47.9204C40.6251 48.2317 37.9234 48.5158 35.2248 48.7787C33.1547 48.963 31.0876 49.1353 29.0175 49.2682L28.8574 46.7811L28.5975 43.3874C28.3194 43.4931 28.0414 43.5929 27.7513 43.6745C26.9716 43.889 29.1082 48.1773 25.2914 48.9932L25.3216 49.4858L25.4455 51.3474C25.7477 56.1101 26.1134 60.9121 26.5727 65.6899L26.9353 69.2771L27.3131 72.8431L28.0928 79.9569L28.4826 83.5169L28.7848 87.0617L28.8815 88.7813V89.2315C28.8815 89.4129 28.8997 89.6002 28.9178 89.7846C28.948 90.1502 29.0054 90.5129 29.087 90.8695L29.1445 91.1173C29.1445 91.1868 29.2019 91.3318 29.226 91.4195C29.2804 91.5948 29.3409 91.77 29.4043 91.9423C29.5373 92.2868 29.6884 92.6253 29.8637 92.9517C30.2203 93.6225 30.6766 94.233 31.2176 94.7649C31.7555 95.2967 32.3659 95.744 33.0308 96.1006C34.3544 96.7987 35.8443 97.113 37.3372 97.0072C37.5215 97.0072 37.7089 96.977 37.8932 96.9528L38.1682 96.9105L38.4251 96.8591L38.688 96.8047C38.7847 96.7806 38.8844 96.7564 38.9751 96.7292C39.1625 96.6778 39.3378 96.6204 39.504 96.56C39.8273 96.4512 40.1084 96.3182 40.4106 96.1852L41.2628 95.7984L42.8977 95.0429L46.1494 93.5319L52.6468 90.5099L59.1592 87.512L65.6717 84.5776L72.2476 81.7127L75.726 80.2017C74.8526 79.697 74.0216 79.1168 73.2479 78.4671L71.2141 79.3193L64.6049 82.0965L58.023 84.9312L51.4652 87.8444L44.9225 90.7849L41.6556 92.2536L40.0268 92.9789L39.2441 93.3264C38.9993 93.4412 38.7515 93.541 38.4976 93.6286C38.3798 93.6679 38.271 93.7011 38.1682 93.7283L38.0232 93.7646L37.8449 93.7978L37.6635 93.8311L37.4943 93.8552C37.3855 93.8704 37.2707 93.8794 37.1589 93.8855C36.7056 93.9066 36.2492 93.8704 35.805 93.7706C34.9256 93.5772 34.1187 93.13 33.4901 92.4863C33.336 92.3291 33.1909 92.1599 33.058 91.9846C32.9311 91.8063 32.8162 91.6189 32.7165 91.4255C32.6107 91.2231 32.5201 91.0176 32.4415 90.803C32.4022 90.6942 32.3659 90.5854 32.3357 90.4736C32.3206 90.4313 32.3085 90.386 32.2994 90.3406L32.2602 90.1502C32.2148 89.9236 32.1876 89.6939 32.1786 89.4642C32.1786 89.3524 32.1574 89.2406 32.1604 89.1227V88.6785L32.0819 86.8169L31.8038 83.2177L31.4593 79.6426L30.7643 72.4925L30.3956 68.9144L30.0934 65.3636C29.7458 61.1992 29.489 57.0409 29.2472 52.8554C31.3777 52.5985 33.4992 52.3265 35.6176 52.0213C38.3284 51.6466 41.0331 51.2446 43.7318 50.8125L59.8815 48.2196L76.0373 45.7476L84.1212 44.5388L91.1958 43.5294C91.3499 45.1583 91.5191 46.7902 91.6793 48.4221L92.2837 54.3332C92.4831 56.3035 92.6735 58.2769 92.8881 60.2442L93.5469 66.1402C93.7887 68.1287 92.7642 70.0598 90.9812 70.9755C90.8724 71.0359 90.7787 71.0752 90.6578 71.1296L90.2438 71.3049L89.4188 71.6524L87.7658 72.3444L85.7924 73.1725L85.4539 74.6835C85.3663 75.0854 85.4932 75.5025 85.7924 75.7835L88.7086 74.5112L90.3526 73.795L91.1686 73.4475L91.5796 73.2692C91.7307 73.1997 91.912 73.1151 92.0631 73.0304C93.3293 72.3535 94.3598 71.3079 95.0216 70.0326C95.348 69.401 95.5777 68.721 95.7016 68.0199C95.8225 67.3279 95.8376 66.6177 95.75 65.9196Z" fill="#383838"/>
<path d="M89.2949 68.6515L87.4182 68.1952C86.7836 68.0471 86.146 67.9111 85.5143 67.7842C84.8827 67.6573 84.2542 67.5515 83.6316 67.4639C83.0091 67.3762 82.3956 67.3098 81.7942 67.2675C80.7063 67.1707 79.6093 67.2403 78.5395 67.473C78.1497 67.5666 77.7749 67.7147 77.4274 67.9142C77.1463 68.0774 76.8985 68.2949 76.6961 68.5518C76.2972 69.0142 75.9164 70.2955 75.9103 71.1477C75.8952 71.5769 75.9678 72.003 76.1249 72.4019C76.3032 72.831 76.5601 73.2208 76.8865 73.5533C77.2733 73.9522 77.7054 74.3027 78.1769 74.5989C78.6997 74.9404 79.2406 75.2486 79.7997 75.5236C80.9541 76.1099 82.2173 76.6267 83.541 77.2281C84.9583 77.8385 86.3061 78.6061 87.5542 79.5127C88.2523 80.0355 88.8839 80.646 89.4309 81.3259C90.0202 82.0603 90.4886 82.8823 90.8241 83.7617C91.1535 84.635 91.3499 85.5507 91.4103 86.4815C91.4436 86.9227 91.4496 87.367 91.4254 87.8112C91.4254 88.0318 91.4013 88.2433 91.3831 88.4549C91.3831 88.5697 91.368 88.6574 91.3499 88.7903C91.3318 88.9233 91.3136 89.0593 91.2864 89.1953C91.0749 90.3437 90.5521 91.4104 89.7754 92.2808C89.0441 93.0725 88.1465 93.6921 87.1462 94.094C85.5023 94.7286 83.7404 94.9946 81.9816 94.8707C80.4343 94.786 78.8991 94.5352 77.4032 94.1272C76.6749 93.9368 75.9647 93.7193 75.2666 93.4714C74.5686 93.2236 73.8826 92.9668 73.2147 92.6797C71.882 92.1146 70.5855 91.4648 69.3374 90.7335C68.3674 90.1654 68.044 88.9173 68.6121 87.9502C69.0957 87.1252 70.0899 86.7505 70.9995 87.0466H71.0147C73.4776 87.9019 75.9919 88.5939 78.5455 89.1197C79.7362 89.3524 80.942 89.4854 82.1539 89.5126C83.1602 89.5579 84.1665 89.4219 85.1245 89.1137C85.4146 89.014 85.6806 88.8629 85.9163 88.6664C86.0855 88.5214 86.2064 88.331 86.2668 88.1194C86.2668 88.0892 86.285 88.053 86.2971 88.0167C86.3091 87.9804 86.3152 87.8958 86.3243 87.8354C86.3454 87.7054 86.3696 87.5755 86.3786 87.4516C86.3877 87.3277 86.4089 87.1977 86.4089 87.0768C86.4089 86.956 86.424 86.829 86.4089 86.7112C86.4089 86.2609 86.3454 85.8136 86.2185 85.3815C85.9102 84.4779 85.3602 83.6801 84.6259 83.0696C83.6951 82.2779 82.6827 81.5858 81.6038 81.0086C80.4524 80.3619 79.2134 79.7424 77.926 79.0443C76.5147 78.3251 75.2092 77.4154 74.0457 76.3426C73.0213 75.3907 72.2688 74.1818 71.8608 72.8431C71.7278 72.3868 71.6372 71.9214 71.5858 71.4499C71.4891 70.5615 71.5133 69.6639 71.6553 68.7815C71.6946 68.5699 71.7248 68.3705 71.7702 68.1499C71.8155 67.9293 71.8729 67.6875 71.9485 67.4548C72.0905 66.9713 72.2869 66.5059 72.5317 66.0647C73.0424 65.1309 73.7677 64.3331 74.6471 63.7347C75.4601 63.1847 76.3667 62.7888 77.3246 62.5652C78.9596 62.2086 80.6489 62.1572 82.3019 62.4171C83.0605 62.5168 83.8129 62.6619 84.5533 62.8523C85.2847 63.0336 85.9979 63.2421 86.6929 63.4869C87.388 63.7317 88.077 63.9976 88.7449 64.2908C89.0834 64.4358 89.4128 64.593 89.7422 64.7561C90.0716 64.9193 90.3828 65.0855 90.7455 65.288C91.6309 65.7897 91.9422 66.9169 91.4375 67.8024C91.0326 68.5156 90.2076 68.8752 89.4097 68.6848L89.2949 68.6515Z" fill="#383838"/>
<path d="M86.2729 60.2141L85.4267 64.8438L84.6047 69.4796L82.9668 78.7542L81.3863 88.0349L80.5975 92.6767L79.8329 97.3216C79.709 98.3642 78.7601 99.1106 77.7145 98.9837C76.6719 98.8598 75.9255 97.9109 76.0524 96.8652C76.0584 96.8139 76.0675 96.7655 76.0766 96.7141C76.0766 96.7141 76.0766 96.6809 76.0766 96.6688L76.9529 92.0421L77.8112 87.4002L79.5096 78.1377L81.1536 68.8692L81.9725 64.2304L82.7673 59.5916C82.9335 58.6245 83.8522 57.9748 84.8223 58.144C85.7894 58.3102 86.4391 59.2289 86.2699 60.196L86.2729 60.2141Z" fill="#383838"/>
</g>
<defs>
<clipPath id="clip0_5_232">
<rect width="114" height="120.177" fill="white"/>
</clipPath>
</defs>
</svg>
