<svg width="124" height="116" viewBox="0 0 124 116" fill="none" xmlns="http://www.w3.org/2000/svg">
<g clip-path="url(#clip0_5_127)">
<path d="M69.7349 91.6023C69.5845 90.9845 69.1588 90.4692 68.5826 90.2035C67.0463 89.4738 65.5227 88.1807 64.0151 87.6269C63.0357 87.2685 62.0659 86.8876 61.0993 86.4971C58.3626 85.2968 55.6772 83.9909 53.043 82.5793C52.8957 83.3027 52.5852 83.9813 52.1371 84.567C48.6995 88.9969 43.2582 88.7472 41.2546 88.4751C40.8545 88.4175 40.5504 88.0814 40.5408 87.6749C38.2683 92.252 33.7616 95.3023 28.666 95.7056L28.8932 95.8689C32.126 98.1542 35.474 100.273 38.9276 102.21C42.3908 104.159 45.9533 105.922 49.5989 107.497C54.0032 109.395 58.433 111.204 63.0421 112.561C64.7641 113.07 66.5053 113.521 68.2626 113.905C70.932 114.484 73.627 114.837 76.3349 115.185C77.8552 115.387 79.382 115.509 80.9151 115.554C82.5187 115.634 84.1127 115.281 85.537 114.539C88.4721 113.447 90.7895 111.13 91.8809 108.195C92.345 107.315 92.6619 106.364 92.8124 105.378C90.3766 106.579 87.7616 107.385 85.0729 107.766C76.0276 109.171 71.7418 100.366 69.7349 91.6023Z" fill="#FFCA41"/>
<path d="M122.973 64.5655C122.826 63.5828 122.576 62.6162 122.227 61.6848C121.446 59.4827 120.496 57.3414 119.388 55.2833C118.719 54.0958 117.986 52.9467 117.193 51.8393C115.749 49.81 114.213 47.8383 112.606 45.9371C110.429 43.3893 108.106 40.9727 105.641 38.7002C102.949 36.1876 100.136 33.8094 97.2454 31.5273C93.4685 28.5442 89.6276 25.6411 85.6683 22.9076C82.5667 20.7727 79.4044 18.7274 76.1812 16.7686C73.1949 14.9505 70.1446 13.2253 67.0303 11.5961C63.4326 9.7173 59.7453 8.07531 56.0005 6.51654C53.8207 5.56912 51.5738 4.78493 49.2789 4.17359C47.4 3.74468 45.4956 3.44381 43.5751 3.27097C41.9683 3.19735 40.3712 3.55264 38.95 4.30482C37.4681 4.78173 36.1366 5.63633 35.0867 6.7854C33.9408 7.83845 33.0862 9.16997 32.6061 10.6487C31.8539 12.0699 31.4987 13.667 31.5723 15.2738C31.7163 16.3365 31.8571 17.3991 32.0012 18.4746C32.5549 20.4782 33.6176 22.3027 35.0867 23.7718L37.5161 25.6507C39.0396 26.5469 40.7424 27.091 42.5029 27.251C43.9528 27.5903 45.3803 28.0224 46.7759 28.541C46.8239 27.952 46.9423 27.3695 47.1247 26.8093C48.0338 24.5688 50.0054 19.4764 52.2684 19.39C55.2995 19.278 61.5698 23.6118 68.5666 19.7101C70.8776 18.4298 71.076 25.257 72.4715 27.5647C73.0605 28.5506 73.4606 29.6356 73.659 30.7655C73.7743 31.4056 77.6696 28.5474 77.9224 29.1651C79.1835 32.145 73.7775 34.0366 73.6782 34.6608C73.2141 37.5959 71.7578 40.1021 70.1222 40.7678C71.5049 41.6705 72.2379 42.7171 73.5982 43.6485C75.7747 45.1689 77.9288 46.7341 80.0637 48.3376C82.4515 50.2165 84.7881 52.1561 87.051 54.1854C89.4772 56.3459 91.7913 58.6313 93.987 61.0254C94.7648 61.88 95.5202 62.7538 96.2532 63.6501C96.8773 64.5079 97.4759 65.3913 98.0296 66.3003C97.4118 66.105 96.7973 65.8906 96.1924 65.6601C94.2111 64.7479 92.2842 63.7173 90.3926 62.6322C87.7712 61.1247 85.2202 59.4987 82.7108 57.8311C80.0029 56.0355 77.3303 54.179 74.6705 52.313C71.9498 50.3925 67.7376 52.6747 65.0138 50.7734C62.2899 48.8722 53.3054 49.3363 52.1531 48.6257C49.871 48.9106 50.652 39.7532 49.5093 40.6398C47.6113 42.1122 46.8111 38.2937 46.6286 34.2575C44.4745 33.2141 42.282 32.2634 40.0479 31.3576C37.7849 30.4102 35.426 29.7092 33.0126 29.2643C30.9001 28.8546 28.762 28.6114 26.6111 28.5345C26.0926 28.5345 25.574 28.5345 25.0555 28.589C23.5 28.7234 21.9508 28.9378 20.4176 29.2291C18.4428 29.5972 16.5959 30.4774 14.7747 31.284C13.8401 31.7001 12.9567 32.225 12.1405 32.846C10.2488 34.2799 8.34758 35.6722 6.82722 37.5095C5.69735 38.825 4.6539 40.2173 3.70648 41.6705C3.42161 42.125 3.15915 42.5955 2.92549 43.0788C2.36856 44.2663 1.87244 45.4858 1.38913 46.702C1.2803 46.9805 1.17788 47.2622 1.06905 47.547C0.889811 48.1104 0.745777 48.6865 0.643353 49.2691C0.403296 50.6038 0.243258 51.9577 0.0896216 53.3052C0.057614 53.5901 0.0320079 53.8749 0.0192049 54.1598C-0.0128027 54.7712 -0.00640114 55.3825 0.0352087 55.9906C0.163239 57.6518 0.374489 59.3066 0.67536 60.9454C0.784186 61.5696 0.92822 62.1873 1.10106 62.7986C1.2803 63.4388 1.48835 64.0662 1.72201 64.6775C2.32375 66.2779 2.98631 67.8334 3.70648 69.3698C4.2058 68.7809 4.81394 68.2912 5.4957 67.9295C5.71975 67.8174 5.83178 67.5646 5.77097 67.3213C5.31966 65.5449 4.07456 58.6601 10.204 53.7789C16.1862 49.0194 22.687 53.0652 23.6472 53.6989C23.7176 53.7469 23.8072 53.7469 23.8776 53.6989C24.7034 53.0299 28.3363 49.4323 33.1598 50.0468C37.849 50.6454 39.9551 54.7872 39.9551 55.5457C39.9519 55.6386 40.0255 55.7186 40.1183 55.7218C40.1311 55.7218 40.1407 55.7218 40.1535 55.7186C41.1137 55.5713 43.7896 54.3615 46.555 56.6308C49.4549 58.9994 48.6259 62.1585 48.4371 62.8371C48.4179 62.9043 48.4595 62.9747 48.5299 62.9939C48.5363 62.9971 48.5459 62.9971 48.5523 62.9971C49.4869 63.0707 54.2752 63.6373 55.4307 67.2989C55.5299 67.603 55.61 67.9167 55.674 68.2303L56.5958 68.8705C59.4765 70.887 62.3251 72.9194 65.2058 74.9167C66.2269 75.6273 67.2511 76.3315 68.2786 77.026C69.7989 75.1056 76.5109 67.2541 85.3578 66.4443C95.4466 65.5193 102.213 80.1532 102.213 80.1532L102.482 83.0018L105.67 86.0522L101.464 90.9781C102.45 90.9237 103.429 90.8149 104.402 90.6581C105.401 90.5556 106.396 90.3956 107.376 90.1715C107.837 90.0467 108.291 89.8899 108.733 89.7074C110.084 89.1537 111.543 88.6416 112.817 87.8798C114.049 87.086 115.224 86.209 116.338 85.2552C116.584 85.0567 116.831 84.8551 117.058 84.6342C117.404 84.3045 117.73 83.9525 118.038 83.5844C118.828 82.6241 119.609 81.6319 120.329 80.6077C120.617 80.2044 120.867 79.7755 121.081 79.3274C121.616 78.2071 122.093 77.0484 122.538 75.8866C122.624 75.6657 122.701 75.4384 122.765 75.2112C123.191 73.7548 123.296 72.1577 123.469 70.6853C123.696 68.64 123.274 66.5499 122.973 64.5655Z" fill="#FFCA41"/>
<path d="M68.0865 77.4486C68.0865 77.4486 69.1812 110.263 85.1849 107.753C102.469 105.042 101.509 91.7816 101.509 91.7816L102.347 80.1533C102.347 80.1533 95.581 65.5194 85.505 66.4444C75.429 67.3694 68.0865 77.4486 68.0865 77.4486Z" fill="white"/>
<path d="M68.637 77.6182C68.6498 77.583 68.6594 77.5478 68.6626 77.5094C68.6626 77.4614 68.6626 77.439 68.6626 77.4582V77.6726V77.9191L68.6914 78.412L68.7619 79.3978C68.8131 80.054 68.8707 80.7134 68.9411 81.3695C69.0787 82.6818 69.2452 83.9909 69.434 85.3C69.8085 87.9119 70.343 90.4981 71.0344 93.0427C71.7065 95.5777 72.6476 98.0326 73.8479 100.366C75.0577 102.658 76.6549 104.799 78.8186 106.159C79.3596 106.495 79.9325 106.774 80.5278 106.995C81.1296 107.203 81.7473 107.353 82.3779 107.44C83.0148 107.513 83.6582 107.526 84.2983 107.481C84.9481 107.424 85.5946 107.334 86.2348 107.209C87.5375 106.979 88.8178 106.649 90.0693 106.217C91.3112 105.804 92.5083 105.266 93.6445 104.617C94.7712 103.957 95.8115 103.167 96.7461 102.258C97.6615 101.339 98.4457 100.302 99.0826 99.1753C100.011 97.4821 100.603 95.6257 100.83 93.7084C100.865 93.3884 100.891 93.0683 100.904 92.7482C100.92 92.4409 100.92 92.1369 100.904 91.8296V91.74C100.968 90.7797 101.041 89.8035 101.138 88.8337C101.234 87.8638 101.317 86.9132 101.39 85.9306C101.464 84.948 101.499 83.9909 101.506 83.0179C101.522 82.0353 101.464 81.0558 101.339 80.0828L101.432 80.5821C101.246 80.214 101.025 79.8075 100.808 79.4234C100.59 79.0394 100.366 78.6489 100.136 78.2648C99.6716 77.4998 99.1754 76.754 98.6665 76.0242C97.6615 74.5615 96.5252 73.1916 95.2769 71.9305C94.0734 70.6822 92.6939 69.6163 91.18 68.7681C89.7204 67.9487 88.0848 67.4974 86.414 67.4494C85.9947 67.4462 85.5754 67.4686 85.1593 67.5198C84.7304 67.5518 84.3047 67.6319 83.879 67.6991C83.0244 67.8687 82.1794 68.0928 81.3536 68.3744C79.686 68.9698 78.0889 69.7444 76.5909 70.6886C75.0769 71.6488 73.643 72.7307 72.3083 73.9277C71.6329 74.5263 70.98 75.1472 70.3494 75.797C70.0294 76.1171 69.7285 76.4371 69.4244 76.786C69.274 76.9525 69.1235 77.1061 68.9795 77.2885L68.7619 77.5446L68.653 77.6726L68.6018 77.7367L68.5762 77.7687C68.5762 77.7879 68.5954 77.7463 68.605 77.7206C68.621 77.6886 68.6338 77.6566 68.637 77.6182ZM67.536 77.2981C67.552 77.2533 67.5712 77.2117 67.5936 77.1701C67.616 77.1349 67.6544 77.0805 67.648 77.0869L67.6736 77.0485L67.728 76.9749L67.8304 76.8308L68.0417 76.546C68.1825 76.3571 68.3266 76.1715 68.4706 75.9858C68.7619 75.6177 69.0627 75.2593 69.37 74.904C69.9813 74.1966 70.6215 73.5084 71.2905 72.8491C72.6348 71.524 74.0911 70.3173 75.6435 69.245C76.4277 68.7073 77.2407 68.2112 78.0761 67.7567C78.9275 67.3118 79.8013 66.9181 80.6975 66.5724C81.6065 66.2363 82.5347 65.9611 83.4789 65.7466C83.9558 65.657 84.4392 65.5546 84.9193 65.5034C85.4154 65.4297 85.9147 65.3881 86.414 65.3817C88.4369 65.3721 90.4278 65.8778 92.201 66.8477C93.9166 67.7823 95.4818 68.9698 96.8453 70.3685C98.1768 71.732 99.3835 73.2108 100.453 74.7888C100.987 75.5729 101.483 76.3891 101.954 77.1957C102.424 78.0023 102.863 78.8345 103.269 79.7371L103.388 80.1372L103.362 80.2364C103.1 81.1807 102.904 82.1441 102.776 83.1171C102.645 84.0838 102.546 85.0504 102.475 86.0202C102.408 86.9804 102.354 87.9599 102.306 88.9297C102.258 89.8995 102.2 90.8694 102.123 91.8392V91.7496C102.136 92.108 102.127 92.4665 102.098 92.825C102.072 93.1739 102.034 93.5164 101.983 93.8589C101.88 94.5406 101.736 95.2192 101.544 95.8817C100.766 98.5288 99.2811 100.913 97.2486 102.779C96.2563 103.708 95.1553 104.514 93.9678 105.18C91.6056 106.495 89.045 107.414 86.3884 107.904C85.7259 108.045 85.0569 108.15 84.3815 108.224C83.6934 108.285 83.0052 108.285 82.3171 108.224C81.6257 108.147 80.9471 108 80.2846 107.789C79.6252 107.564 78.9915 107.276 78.3897 106.928C77.2023 106.214 76.1428 105.308 75.2562 104.245C74.376 103.202 73.6046 102.072 72.9548 100.872C71.7001 98.4776 70.7079 95.9554 70.0005 93.3467C69.2804 90.7605 68.717 88.1359 68.3169 85.4825C68.1089 84.1574 67.9425 82.8291 67.808 81.4975C67.7408 80.8318 67.68 80.1628 67.632 79.4939L67.5616 78.492L67.5328 77.9863V77.7367V77.6086V77.5126C67.5296 77.4838 67.5296 77.4582 67.5328 77.4294C67.5296 77.3814 67.5296 77.3302 67.536 77.2821V77.2981Z" fill="#383838"/>
<path d="M76.1524 22.0371C76.05 20.584 75.8355 19.1405 75.5123 17.7193C75.1826 16.2822 74.6673 14.8963 73.9823 13.5903C72.5516 10.9593 70.4039 8.78921 67.7856 7.33607C67.6192 7.24325 67.4496 7.16003 67.2735 7.08961C67.1007 7.01279 66.931 6.92637 66.7518 6.86236C66.3997 6.72792 66.038 6.6127 65.6731 6.51667L65.1226 6.37584C64.9402 6.33423 64.7545 6.30542 64.5689 6.27022C64.2008 6.1934 63.8263 6.15499 63.455 6.11338C61.9763 5.99175 60.4879 5.98535 59.006 6.09417C57.5144 6.1838 56.0389 6.44306 54.6081 6.87196C53.1614 7.31046 51.7978 7.98582 50.5752 8.86923C48.1394 10.6649 46.2733 13.1262 45.2075 15.9557C44.7082 17.3448 44.2953 18.766 43.9688 20.2063C43.6007 21.6306 43.319 23.0742 43.1334 24.5337C42.983 25.9933 42.9414 27.4592 43.0022 28.9252C43.0342 29.6549 43.0694 30.3847 43.1302 31.1113C43.191 31.8379 43.2326 32.5612 43.2998 33.2814C43.5271 36.1621 43.8248 39.0428 44.2601 41.9234C44.3689 42.6404 44.5033 43.3542 44.6378 44.0712C44.6986 44.4296 44.7658 44.7881 44.8234 45.1498C44.881 45.5115 44.945 45.87 45.0186 46.2285C45.0538 46.4077 45.0859 46.5901 45.1275 46.7694L45.2683 47.3007C45.3643 47.656 45.486 48.0049 45.6108 48.3506C46.363 50.4471 47.5312 52.3675 49.0484 53.9999L49.4293 54.4064L49.8358 54.7841C50.1014 55.0465 50.3927 55.2738 50.6776 55.5171C50.9625 55.7603 51.2729 55.9652 51.5706 56.1924C51.8683 56.4197 52.2107 56.5957 52.5308 56.7782C53.8559 57.4759 55.2995 57.9272 56.7878 58.1065C58.2474 58.2857 59.7229 58.3369 61.1921 58.2569C61.925 58.2313 62.6548 58.1929 63.3878 58.1129C64.1272 58.0457 64.8569 57.9272 65.5803 57.7576C66.3101 57.5783 67.0175 57.3191 67.6928 56.9894C68.3682 56.6437 68.9795 56.1924 69.5108 55.6515C70.0198 55.1106 70.5031 54.5408 70.9512 53.9455C71.3833 53.3437 71.7738 52.7196 72.1291 52.0698L72.3915 51.5801L72.6348 51.084C72.8044 50.7639 72.9389 50.4119 73.0829 50.0694C73.371 49.394 73.595 48.6898 73.755 47.9729C74.4432 45.1434 74.9489 42.2691 75.2626 39.3724C75.6115 36.4918 75.7363 33.6111 76.002 30.7304C76.1268 29.2869 76.2356 27.8497 76.258 26.3902C76.2996 24.9402 76.2644 23.4871 76.1524 22.0371ZM64.2808 46.2605C62.2771 45.4347 61.9378 44.4872 59.2748 44.3944C57.0791 44.3176 54.6273 46.8206 53.3822 45.3963C51.8587 43.6519 54.5857 39.4653 60.1198 40.1598C61.7618 40.3647 66.0508 41.0944 66.6174 42.8197C67.1839 44.5449 66.2813 47.0735 64.2808 46.2477V46.2605ZM67.7024 40.6495C64.1592 38.0409 53.2222 38.0217 49.8358 40.6495C46.4494 43.2774 46.555 29.0436 47.4608 26.8223C48.3666 24.6009 50.3415 19.4893 52.6076 19.4029C55.6356 19.2909 61.2689 23.7527 68.2657 19.867C70.5767 18.5867 70.7751 25.4139 72.1675 27.7217C75.8611 33.8191 71.2425 43.2454 67.7024 40.6367V40.6495Z" fill="#383838"/>
<path d="M59.4605 27.5519C59.4476 30.2118 59.438 32.8716 59.4348 35.5282L60.075 35.269C59.5469 34.7664 58.9163 34.3791 58.2282 34.1391C57.7801 33.979 57.588 34.6896 58.0297 34.8465C58.5994 35.0481 59.1212 35.3682 59.5565 35.7875C59.6973 35.9347 59.9342 35.9411 60.0814 35.8003C60.155 35.7299 60.1966 35.6306 60.1966 35.5282C60.1966 32.8684 60.2062 30.2086 60.2222 27.5519C60.2222 27.3471 60.059 27.1838 59.8541 27.1838C59.6493 27.1838 59.4861 27.3471 59.4861 27.5519H59.4605Z" fill="#383838"/>
<path d="M52.1371 30.3333C53.0298 30.3333 53.7535 29.6097 53.7535 28.717C53.7535 27.8243 53.0298 27.1006 52.1371 27.1006C51.2444 27.1006 50.5208 27.8243 50.5208 28.717C50.5208 29.6097 51.2444 30.3333 52.1371 30.3333Z" fill="#383838"/>
<path d="M53.8463 28.7171C53.8303 29.1652 53.6511 29.5941 53.3406 29.9206C53.0237 30.2439 52.5916 30.4359 52.1371 30.4519C51.1929 30.4999 50.3927 29.7733 50.3447 28.8323C50.3415 28.7939 50.3415 28.7555 50.3415 28.7171C50.3191 28.2306 50.4823 27.7505 50.8024 27.3824C51.1385 27.0015 51.6314 26.7966 52.1371 26.819C52.6332 26.8447 53.0974 27.0783 53.4174 27.4592C53.7119 27.8145 53.8623 28.2594 53.8463 28.7171ZM53.6639 28.7171C53.6447 28.3234 53.4622 27.9521 53.155 27.7025C52.8669 27.472 52.5052 27.3568 52.1371 27.3824C51.785 27.4048 51.4458 27.5392 51.1769 27.7697C50.8856 28.0065 50.7064 28.3554 50.6872 28.7299C50.7032 29.5301 51.3273 30.183 52.1243 30.2343C52.5276 30.2471 52.9213 30.0966 53.2126 29.8182C53.5167 29.5365 53.6799 29.1332 53.6639 28.7171Z" fill="#383838"/>
<path d="M66.6174 30.7879C67.5101 30.7879 68.2337 30.0643 68.2337 29.1716C68.2337 28.2789 67.5101 27.5552 66.6174 27.5552C65.7247 27.5552 65.001 28.2789 65.001 29.1716C65.001 30.0643 65.7247 30.7879 66.6174 30.7879Z" fill="#383838"/>
<path d="M68.2945 29.1715C68.2881 29.6164 68.1153 30.0421 67.8112 30.3654C67.5039 30.6983 67.0718 30.8935 66.6173 30.9063C66.3901 30.9063 66.1628 30.8615 65.9548 30.7687C65.7563 30.6631 65.5771 30.5255 65.4203 30.3654C65.2538 30.2118 65.1098 30.0357 64.9914 29.8437C64.8729 29.6388 64.8057 29.4084 64.7865 29.1715C64.7385 28.6754 64.9273 28.1857 65.2922 27.8464C65.6475 27.5071 66.1276 27.3343 66.6173 27.3727C66.8478 27.3887 67.075 27.4527 67.2831 27.5583C67.4783 27.6672 67.6576 27.8112 67.8048 27.9808C68.1089 28.3041 68.2849 28.7298 68.2945 29.1715ZM68.1729 29.1715C68.1825 28.7554 68.0161 28.3553 67.7152 28.0705C67.5616 27.9392 67.3823 27.8464 67.1871 27.792C67.0014 27.7376 66.8094 27.7152 66.6173 27.7312C66.2493 27.7696 65.91 27.9392 65.6571 28.2081C65.2634 28.6114 65.113 29.1907 65.257 29.7349C65.2986 29.9333 65.3914 30.1158 65.5291 30.263C65.6731 30.4038 65.8492 30.5063 66.0444 30.5607C66.2268 30.6311 66.4221 30.6695 66.6205 30.6695C67.0238 30.6823 67.4143 30.5351 67.712 30.263C68.0129 29.9813 68.1793 29.5844 68.1729 29.1715Z" fill="#383838"/>
<path d="M57.0439 5.42195C56.9735 5.43475 56.9063 5.38674 56.8967 5.31952C56.8935 5.30992 56.8935 5.30032 56.8935 5.28752C56.9479 4.46172 57.4344 0.736038 61.8162 0.74244C66.7038 0.74244 66.691 4.50013 66.6174 5.30032C66.611 5.37074 66.5501 5.42515 66.4797 5.41875C66.4733 5.41875 66.4669 5.41875 66.4605 5.41555C65.8652 5.27151 63.5254 4.73699 61.9571 4.83621C59.7902 4.97384 57.6296 5.32272 57.0439 5.42195Z" fill="#383838"/>
<path d="M57.0471 5.45385C56.9639 5.46665 56.8838 5.41224 56.8646 5.32902C56.8582 5.2618 56.8582 5.19139 56.8646 5.12417C56.8806 4.99294 56.8934 4.86491 56.9126 4.73368C56.9479 4.47122 56.9991 4.21196 57.0631 3.9559C57.1847 3.43097 57.3864 2.93165 57.6584 2.46754C58.2442 1.51052 59.2108 0.851161 60.315 0.652714C61.3777 0.492676 62.4628 0.55349 63.4998 0.828755C64.0183 0.956786 64.5144 1.16163 64.9722 1.4369C65.0874 1.50091 65.193 1.57773 65.2922 1.66415C65.3979 1.75057 65.5099 1.82419 65.6123 1.92021L65.894 2.21468C65.9836 2.31391 66.0572 2.42913 66.1404 2.53476C66.4509 2.98927 66.6685 3.50139 66.7806 4.03912C66.8382 4.30798 66.8734 4.58004 66.8894 4.85211C66.8894 4.98974 66.8894 5.12737 66.8894 5.26821V5.32262C66.8862 5.37383 66.8734 5.42504 66.851 5.46985C66.803 5.56588 66.7198 5.63629 66.6205 5.6715C66.5725 5.69071 66.5181 5.69711 66.4669 5.69391C66.4413 5.69711 66.4157 5.69711 66.3901 5.69391H66.3677L66.2749 5.6747C65.2666 5.46345 64.2488 5.30341 63.2245 5.19779C62.722 5.14658 62.2163 5.13057 61.7106 5.15618C61.1921 5.17859 60.6703 5.19139 60.1486 5.20419C59.1116 5.21699 58.0745 5.30021 57.0471 5.45385ZM57.0471 5.39304C58.0777 5.2234 59.0988 4.99294 60.1326 4.79769C60.6511 4.70167 61.1697 4.61525 61.6946 4.56404C62.2259 4.50963 62.7636 4.50323 63.295 4.54483C64.3512 4.64726 65.3946 4.8361 66.4189 5.10817L66.5149 5.13377H66.5405H66.5149C66.4957 5.13057 66.4733 5.13057 66.4541 5.13377C66.4189 5.14658 66.3869 5.17538 66.3709 5.21059C66.3613 5.2266 66.3549 5.2458 66.3549 5.26501V5.2234C66.3549 5.10177 66.3549 4.97694 66.3549 4.85531C66.3581 4.60565 66.3421 4.35919 66.3069 4.11273C66.2396 3.61982 66.086 3.1429 65.8556 2.7012C65.3402 1.81139 64.4568 1.19044 63.4454 1.0048C63.1957 0.956786 62.9365 0.93438 62.6836 0.902373C62.4307 0.870365 62.1683 0.902373 61.9122 0.902373C61.6562 0.902373 61.4065 0.953585 61.1536 0.972789C60.9008 0.991994 60.6607 1.08162 60.4175 1.12643C60.1742 1.17124 59.9438 1.27686 59.7197 1.37288C59.4989 1.46891 59.2844 1.58093 59.0796 1.70896C58.9739 1.76978 58.8715 1.83699 58.7755 1.91381L58.4842 2.13787C58.3978 2.22429 58.3114 2.31391 58.2186 2.39713C58.1289 2.48355 58.0457 2.57637 57.9689 2.67239C57.6456 3.06929 57.3896 3.51419 57.2071 3.9911C57.1239 4.24076 57.0599 4.49362 57.0183 4.75288C56.9863 4.88091 56.9767 5.00894 56.9575 5.13697C56.9575 5.19779 56.9575 5.27461 56.9575 5.32262C56.9671 5.36103 56.9991 5.38663 57.0375 5.39304H57.0471Z" fill="#383838"/>
<path d="M46.1549 27.0013C45.3547 26.1499 44.2184 25.705 43.0534 25.7882C41.8307 25.865 40.7232 26.5308 40.0863 27.5742C39.4941 28.5441 39.3501 29.7219 39.6926 30.807C40.1055 31.8857 40.9025 32.7755 41.9331 33.3036C43.0566 33.9213 44.3177 34.2638 45.5308 34.6479C46.1229 34.8047 46.731 34.4591 46.9007 33.8701C47.0511 33.278 46.7054 32.6762 46.1229 32.5002C45.63 32.3434 45.1371 32.1801 44.6473 32.0297C44.4585 31.9657 44.2729 31.9049 44.0872 31.8376L43.8279 31.7416C43.7511 31.7096 43.4599 31.5816 43.6711 31.6808C43.2998 31.5176 42.9413 31.3223 42.6021 31.1015L42.4964 31.0247C42.4964 31.0247 42.6405 31.1463 42.5476 31.0663C42.4548 30.9862 42.394 30.935 42.3204 30.8646C42.2468 30.7942 42.1988 30.743 42.1412 30.679L42.0579 30.5829C41.9555 30.4709 42.1924 30.7942 42.0579 30.5829C42.0099 30.5093 41.9619 30.4357 41.9203 30.3589C41.8787 30.2821 41.8179 30.1284 41.8851 30.3109C41.8499 30.2149 41.8179 30.122 41.7923 30.026L41.7635 29.9044C41.7283 29.7604 41.7379 29.8852 41.7635 29.946C41.7283 29.7636 41.7283 29.5779 41.7635 29.3955C41.7635 29.261 41.7635 29.4819 41.7635 29.4819C41.7635 29.4819 41.7891 29.3347 41.7955 29.3122C41.8179 29.2162 41.8435 29.1202 41.8755 29.0274C41.8755 28.9858 41.9075 28.9474 41.9203 28.9058C41.9203 28.9442 41.8179 29.1138 41.9203 28.9378C41.9619 28.8641 42.0003 28.7873 42.0451 28.7137C42.0899 28.6401 42.138 28.5729 42.186 28.5025C42.0323 28.7169 42.2372 28.4608 42.2916 28.4096C42.346 28.3584 42.4804 28.2528 42.3236 28.3616C42.4068 28.304 42.49 28.2496 42.5765 28.1984C42.6629 28.1472 42.8485 28.08 42.7173 28.1248C42.5861 28.1696 42.7557 28.1248 42.7909 28.1056L42.9573 28.0608L43.0822 28.0319C43.2198 27.9999 43.1302 28.0319 43.047 28.0319C43.1622 28.0319 43.2774 28.0319 43.3926 28.0319H43.5239C43.5559 28.0319 43.7415 28.064 43.5943 28.0319C43.4471 27.9999 43.6231 28.0319 43.6583 28.0319L43.8279 28.0768C43.9272 28.1024 44.0232 28.1376 44.1192 28.1728C43.8728 28.08 44.1768 28.2176 44.2408 28.2528L44.3497 28.3232C44.4105 28.3648 44.5193 28.4929 44.3689 28.3232C44.4489 28.4064 44.5353 28.4801 44.6153 28.5665C45.0506 28.9986 45.7548 28.9986 46.1901 28.5665C46.6126 28.1248 46.6126 27.4334 46.1901 26.9917L46.1549 27.0013Z" fill="#383838"/>
<path d="M76.05 30.2983C76.2132 30.1894 76.3701 30.0806 76.5493 29.9782C76.5813 29.959 76.8694 29.847 76.6325 29.9238C76.7254 29.8918 76.8182 29.8662 76.911 29.8438C76.6869 29.9014 76.9398 29.799 76.9686 29.8438L76.831 29.8214L76.9878 29.8566C77.1799 29.8918 76.8822 29.7861 76.9878 29.8566C77.0134 29.8726 77.2535 30.007 77.1126 29.9206C76.9718 29.8342 77.1831 29.991 77.2119 30.0198L77.2983 30.1126C77.2183 30.007 77.2023 29.9846 77.2503 30.0518C77.2983 30.119 77.3239 30.1702 77.3591 30.2311C77.3943 30.2919 77.4103 30.3303 77.4327 30.3815L77.3847 30.2695C77.4263 30.3047 77.4359 30.4551 77.4519 30.5127C77.5159 30.7528 77.4519 30.2951 77.4519 30.5447C77.4519 30.6376 77.4519 30.7336 77.4519 30.8232C77.4519 30.5735 77.4519 30.8232 77.4295 30.8936C77.4071 30.964 77.3783 31.0697 77.3495 31.1593C77.2855 31.3769 77.4423 31.0184 77.3175 31.2329C77.2343 31.3865 77.1447 31.5338 77.0486 31.6778C77.023 31.7194 76.9942 31.7578 76.9686 31.7962C77.0358 31.7066 77.0422 31.6938 76.9942 31.7546C76.9462 31.8154 76.8886 31.8762 76.8374 31.9339C76.703 32.0779 76.5621 32.2123 76.4117 32.3404C76.3349 32.4076 76.2516 32.4716 76.1716 32.5388C76.3381 32.4044 76.0756 32.6092 76.066 32.6156L75.5539 32.9741C75.2082 33.211 74.8625 33.4446 74.5296 33.6975C74.0655 34.0464 73.7775 34.6577 74.1295 35.221C74.424 35.6787 75.157 35.9956 75.6531 35.6179C76.5237 34.9618 77.4999 34.4208 78.2809 33.6463C79.0939 32.8813 79.5964 31.8442 79.6861 30.7304C79.7213 29.6229 79.1675 28.5795 78.2265 27.9905C77.6856 27.6672 77.0454 27.552 76.4277 27.6704C75.89 27.8017 75.3842 28.0417 74.9425 28.3746C74.3952 28.6595 74.184 29.3316 74.4688 29.8758C74.7537 30.4231 75.4259 30.6344 75.97 30.3495C76.002 30.3335 76.034 30.3143 76.066 30.2919L76.05 30.2983Z" fill="#383838"/>
<path d="M54.9986 42.3555C57.7513 43.8598 61.0769 43.8598 63.8295 42.3555C64.8409 41.7729 63.9319 40.211 62.9173 40.7903C61.7202 41.4593 60.3535 41.7633 58.9868 41.6577C58.4138 41.6193 57.8505 41.5201 57.3 41.3568C56.8134 41.232 56.3461 41.0432 55.9108 40.7967C54.893 40.2302 53.9904 41.7921 54.9986 42.3587V42.3555Z" fill="#383838"/>
<path d="M15.0532 81.0623C15.1812 82.6178 15.4629 84.1574 15.895 85.6553C16.3111 87.1501 16.9096 88.5904 17.6778 89.938C18.4268 91.2631 19.4382 92.4217 20.6481 93.3468C21.8548 94.2366 23.2631 94.8223 24.7451 95.0464C25.1195 95.104 25.494 95.1424 25.8717 95.1616C26.259 95.184 26.6431 95.216 27.0272 95.2064C27.7954 95.216 28.5636 95.1776 29.3285 95.0848C30.8521 94.8959 32.3405 94.4734 33.736 93.8301C35.1315 93.1707 36.4086 92.2937 37.5225 91.2247C38.6395 90.162 39.571 88.9169 40.2751 87.5438L40.8961 87.8063C40.2015 89.2914 39.2605 90.6485 38.1082 91.8136C36.9623 92.9851 35.6308 93.9581 34.1649 94.6943C32.6957 95.4337 31.1178 95.933 29.4918 96.1762C28.6788 96.2915 27.8594 96.3491 27.04 96.3555C26.6303 96.3715 26.2238 96.3555 25.8141 96.3331C25.398 96.3139 24.9851 96.2723 24.5754 96.2082C22.9014 95.9554 21.3202 95.2736 19.9887 94.2302C18.6892 93.1867 17.617 91.8904 16.836 90.4213C16.0646 88.9873 15.4789 87.4606 15.0884 85.8794C14.6851 84.3078 14.4354 82.6978 14.349 81.0783L15.0532 81.0623Z" fill="#383838"/>
<path d="M24.1881 52.9979C24.0089 52.8794 23.7848 52.8538 23.5864 52.9307C23.532 52.9531 23.4776 52.9819 23.4295 53.0171L23.4904 52.9691L23.7656 52.7386C23.9545 52.5818 24.1529 52.4185 24.3514 52.2617C24.7483 51.9448 25.1611 51.6439 25.5901 51.3591C26.4479 50.7765 27.3697 50.29 28.3331 49.9091C29.3157 49.5186 30.3528 49.2722 31.4058 49.1826C32.4717 49.1025 33.5471 49.1922 34.5842 49.4546C36.6839 50.0116 38.5275 51.2759 39.8078 53.0299C40.1375 53.4716 40.4256 53.9485 40.6592 54.4478C40.7232 54.5854 40.7808 54.7295 40.8289 54.8735C40.8609 54.9567 40.8865 55.04 40.9057 55.1264C40.9377 55.248 40.9569 55.3728 40.9601 55.5009C40.9601 55.5873 40.9601 55.4688 40.9601 55.4176C40.9505 55.3536 40.9313 55.2896 40.9057 55.232C40.8513 55.104 40.7648 54.9951 40.6528 54.9119C40.5376 54.8287 40.4032 54.7775 40.2623 54.7647C40.2015 54.7583 40.1439 54.7583 40.0831 54.7647H40.1087C40.1823 54.7647 40.2879 54.7231 40.4 54.6943C40.9025 54.5502 41.4146 54.435 41.9331 54.3518C42.49 54.2654 43.0566 54.2494 43.6199 54.2974C44.769 54.3998 45.8732 54.8031 46.8207 55.4657C47.7745 56.1026 48.5651 56.9604 49.1188 57.9654C49.6661 59.0025 49.935 60.1644 49.8902 61.3358C49.871 61.9056 49.791 62.4721 49.6533 63.0258L49.6277 63.1219C49.759 62.6353 49.5157 62.1264 49.0548 61.9248C48.9524 61.8832 48.8435 61.8544 48.7347 61.8448H48.7859C48.9236 61.8448 49.058 61.8672 49.1924 61.8832C49.4613 61.912 49.7238 61.9504 49.9894 61.9952C51.0649 62.1648 52.1051 62.4977 53.0782 62.9842C54.1216 63.4995 55.0274 64.2581 55.7188 65.1927C56.0677 65.6825 56.3429 66.2234 56.5318 66.7931C56.7046 67.3148 56.8294 67.8494 56.9095 68.3935C57.0791 69.4946 57.0407 70.618 56.791 71.7031C56.5382 72.7785 56.0869 73.7964 55.4627 74.7054C54.8578 75.5984 54.1184 76.3954 53.2734 77.0676L53.1134 77.1924C53.2382 77.0868 53.299 76.9235 53.2702 76.7635C53.267 76.7379 53.2606 76.7123 53.251 76.6899C53.251 76.6739 53.251 76.6675 53.251 76.6899L53.2702 76.7347L53.3406 76.9203L53.4718 77.2916C53.6383 77.7877 53.7759 78.2934 53.8879 78.8056C54.1248 79.8554 54.192 80.9373 54.0832 82.0063C54.0192 82.5665 53.8847 83.1138 53.6799 83.6387C53.4686 84.1732 53.1774 84.6726 52.8157 85.1175C52.1531 85.9433 51.3721 86.6666 50.4983 87.262C48.7539 88.4334 46.7374 89.1312 44.6442 89.2848C43.6199 89.3745 42.5893 89.3617 41.5682 89.2464C41.4338 89.2464 41.3314 89.2208 41.1681 89.1952C40.9377 89.1568 40.72 89.0704 40.528 88.936C40.1407 88.6671 39.8942 88.2414 39.8494 87.7709C39.8462 87.7133 39.8462 87.6557 39.8494 87.598V87.4508L39.8654 87.2684L39.8974 86.9035L39.9582 86.1769C40.1247 84.2309 40.2975 82.288 40.4448 80.3419L40.6752 77.4228L40.7808 75.9633L40.8353 75.2335L40.8609 74.8654V74.683V74.6382C40.8609 74.5998 40.8609 74.6382 40.8609 74.7054C40.8641 74.8174 40.8961 74.9263 40.9537 75.0255C41.0657 75.2175 41.2642 75.3455 41.485 75.3648C41.565 75.3648 41.5426 75.3648 41.5074 75.3648H41.4274H41.2802C41.1105 75.3455 40.9409 75.3135 40.7744 75.2687C40.4864 75.1855 40.2079 75.0799 39.939 74.9487C39.4557 74.7118 38.9916 74.4365 38.5531 74.1261C38.3323 73.9724 38.1434 73.838 37.913 73.6587C37.6697 73.4635 37.4489 73.2427 37.2536 72.9994C36.8855 72.5353 36.5975 72.0168 36.3926 71.463C36.2934 71.2006 36.207 70.9285 36.1397 70.6564L36.0917 70.4548V70.41C36.1013 70.4676 36.1205 70.5252 36.1461 70.5796C36.2038 70.7045 36.287 70.8133 36.3958 70.8997C36.6007 71.0501 36.8631 71.0949 37.1064 71.0181C37.2376 70.9765 37.3592 70.9029 37.4553 70.8037C37.5001 70.7525 37.5417 70.698 37.5737 70.6404C37.5961 70.6084 37.6377 70.4868 37.6217 70.538C37.4361 71.0789 37.1832 71.5975 36.8695 72.0776C36.2198 73.057 35.3108 73.8316 34.2417 74.3181C33.2111 74.7758 32.094 75.0159 30.9673 75.0223C30.388 75.0415 29.8087 74.9903 29.2421 74.8622C28.6788 74.7278 28.1347 74.5294 27.6193 74.2701C26.6495 73.7708 25.7565 73.1338 24.9755 72.372C24.5914 72.0072 24.2297 71.6231 23.8872 71.2262C23.7176 71.0277 23.5672 70.8229 23.3879 70.6148L23.1479 70.2948L23.1191 70.2531C23.1191 70.2531 23.0647 70.1795 23.1191 70.2531C23.2215 70.3812 23.3527 70.4804 23.5 70.5444C23.7976 70.6756 24.1401 70.65 24.4154 70.474C24.553 70.3876 24.6682 70.2659 24.7515 70.1251C24.8571 69.9139 24.7899 70.0387 24.7899 70.0547L24.713 70.2467C24.6618 70.3716 24.6074 70.4996 24.5498 70.6244C24.4378 70.8709 24.3162 71.1173 24.1817 71.3574C23.9065 71.8471 23.5832 72.3112 23.2215 72.7401C22.4629 73.6972 21.4195 74.3885 20.2416 74.715C19.9375 74.7886 19.6238 74.8334 19.3102 74.8494C19.1565 74.8494 18.9901 74.8494 18.8525 74.8494L18.478 74.8302C17.9787 74.8046 17.4761 74.7726 16.9768 74.7278C16.4775 74.683 15.975 74.6286 15.4693 74.555C15.2164 74.5166 14.9635 74.4781 14.7043 74.4301L14.6051 74.4109H14.5538C14.6019 74.4109 14.3746 74.3917 14.6499 74.4109C15.0692 74.4141 15.4373 74.1293 15.5365 73.7196C15.5845 73.2939 15.5365 73.6267 15.5589 73.5435V73.6363V74.0012C15.5013 75.9537 15.4597 77.9062 15.4693 79.8586V81.3214V82.0543C15.4725 82.6721 15.0468 83.213 14.445 83.357L14.3426 83.3762H14.2978L14.2018 83.3922L14.0129 83.4211L13.6352 83.4723C13.3856 83.5043 13.1327 83.5299 12.8798 83.5523C12.3773 83.5971 11.8684 83.6259 11.3627 83.6355C9.33981 83.6675 7.23691 83.4947 5.23644 82.5985C4.20259 82.1504 3.28078 81.475 2.5414 80.6268C1.80203 79.753 1.2643 78.7223 0.973031 77.6149C0.697765 76.5522 0.576137 75.4576 0.617747 74.3597C0.640152 73.2459 0.790587 72.1416 1.07225 71.0629C1.36992 69.8947 1.91725 68.8032 2.67263 67.8622C3.07913 67.3757 3.54964 66.9436 4.06816 66.5819C4.20259 66.4891 4.34023 66.3994 4.48426 66.3162L4.59309 66.2554L4.6475 66.2234C4.68591 66.2042 4.67631 66.2074 4.62509 66.2234C4.49066 66.3002 4.36903 66.3962 4.26661 66.5115C4.05536 66.7547 3.93373 67.062 3.92413 67.3821C3.91773 67.4621 3.91773 67.5389 3.92413 67.6189C3.92413 67.6573 3.92413 67.6957 3.94653 67.7341C3.96894 67.7726 3.94653 67.7341 3.94653 67.7341L3.89532 67.5229C3.3864 65.3592 3.3864 63.1059 3.89532 60.9421C4.39144 58.7688 5.39968 56.7492 6.83362 55.0431C7.53458 54.211 8.32837 53.462 9.19257 52.8026C10.0632 52.1337 11.017 51.5863 12.0316 51.1702C13.0559 50.7637 14.1345 50.5109 15.2324 50.4117C16.3015 50.3188 17.3801 50.3764 18.4332 50.5749C19.4638 50.7701 20.4688 51.0742 21.4355 51.4807C22.4053 51.8904 23.3271 52.3993 24.1881 52.9979ZM23.2279 54.4062C21.6819 53.4396 19.9407 52.8282 18.1291 52.6202C17.2553 52.5306 16.3719 52.5594 15.5045 52.7066C14.6595 52.8602 13.8433 53.1387 13.0815 53.5356C12.3229 53.9389 11.6155 54.4414 10.985 55.0239C10.3352 55.6033 9.75271 56.253 9.24699 56.9604C8.26115 58.3431 7.6306 59.9499 7.41295 61.6335C7.21131 63.3171 7.29453 65.0199 7.65621 66.6747L7.68822 66.8219L7.70742 66.9052C7.72343 66.9724 7.73623 67.0396 7.74583 67.11C7.76504 67.2476 7.77144 67.3885 7.76824 67.5293C7.74903 68.0958 7.53778 68.64 7.16329 69.0657C6.98085 69.2705 6.7632 69.4466 6.52314 69.5842L6.39511 69.6514L6.3439 69.677L6.13265 69.789C5.83818 69.9587 5.55972 70.1507 5.30045 70.3684C4.71472 70.8517 4.2314 71.4502 3.88572 72.1288C3.51123 72.8906 3.28398 73.7132 3.21036 74.5582C3.10794 75.4096 3.12394 76.2738 3.26477 77.1188C3.3992 77.9222 3.71608 78.6839 4.19619 79.3433C4.69871 80.0122 5.34206 80.5596 6.08464 80.9437C6.87843 81.347 7.72983 81.6318 8.60684 81.7919C9.51585 81.9679 10.4409 82.0543 11.3691 82.0511C11.8364 82.0511 12.3037 82.0351 12.7742 81.9999C13.0079 81.9839 13.2415 81.9615 13.4752 81.9391L13.8081 81.8911L14.0993 81.8527C13.9905 81.8783 13.9137 81.9775 13.9169 82.0895V81.3598V79.897C13.8977 77.9446 13.8273 75.9953 13.7441 74.0428V73.678V73.5851C13.7441 73.4731 13.7152 73.774 13.7665 73.3195C13.8689 72.8746 14.2722 72.5641 14.7267 72.5769L15.0468 72.6089C15.2676 72.6345 15.5013 72.6537 15.7349 72.6665C16.199 72.7017 16.6727 72.7177 17.1465 72.7273C17.6202 72.7369 18.1067 72.7273 18.5708 72.7273H18.9261C19.0317 72.7273 19.1117 72.7273 19.2013 72.7049C19.3742 72.6825 19.5438 72.6473 19.7103 72.5961C20.4144 72.3464 21.0258 71.8919 21.4707 71.2934C21.7299 70.9701 21.9604 70.6212 22.1588 70.2563C22.2581 70.0675 22.3573 69.8787 22.4469 69.6834L22.5781 69.3889L22.639 69.2417C22.6678 69.1585 22.703 69.0785 22.7478 69.0016C23.0935 68.3967 23.836 68.1502 24.4762 68.4255C24.681 68.5119 24.8635 68.6496 25.0011 68.8256L25.0843 68.9408L25.286 69.2065C25.4236 69.3857 25.5644 69.5618 25.7117 69.7346C26.003 70.0771 26.3102 70.4068 26.6303 70.7173C27.2416 71.3254 27.9394 71.8439 28.6948 72.26C29.0469 72.4489 29.4214 72.5961 29.8086 72.6953C30.1927 72.7913 30.5896 72.833 30.9865 72.8234C31.8155 72.849 32.6445 72.7081 33.4159 72.4041C34.1457 72.1032 34.773 71.6007 35.2243 70.9541C35.458 70.6244 35.6468 70.2691 35.7909 69.8915C35.7909 69.9139 35.8389 69.7634 35.8773 69.7026C36.191 69.1361 36.9047 68.9312 37.4713 69.2449C37.5193 69.2705 37.5641 69.2993 37.6057 69.3345C37.7625 69.4498 37.8874 69.6034 37.9706 69.7826C38.009 69.8627 38.0378 69.9491 38.0538 70.0387V70.0835L38.0858 70.2371C38.1274 70.4388 38.1818 70.6372 38.249 70.8325C38.3675 71.2038 38.5435 71.5494 38.774 71.8631C38.8796 72.004 38.998 72.1352 39.1325 72.2504C39.2829 72.3784 39.4845 72.5353 39.6606 72.6665C40.0095 72.9322 40.3775 73.169 40.7648 73.3739C40.9345 73.4635 41.1105 73.5371 41.2898 73.5979C41.3602 73.6203 41.4306 73.6363 41.501 73.6459H41.5362H41.6611C42.1892 73.6972 42.5989 74.1293 42.6213 74.6606C42.6213 74.7598 42.6213 74.827 42.6213 74.8174V74.8622L42.6021 75.0447L42.5637 75.4096L42.4868 76.1361L42.3332 77.5925L42.0451 80.5052C41.8467 82.448 41.6771 84.3909 41.4946 86.3369L41.3346 87.6525C41.3378 87.6749 41.3506 87.6973 41.3698 87.7101H41.3986L41.7187 87.7485C42.6405 87.8413 43.5655 87.8413 44.4873 87.7485C46.3086 87.6044 48.0562 86.9835 49.5637 85.9529C50.2903 85.4279 50.9368 84.7974 51.4842 84.0836C51.9803 83.4275 52.2716 82.6433 52.3292 81.8239C52.3932 80.9469 52.3132 80.0667 52.0891 79.2153C51.9803 78.7832 51.8459 78.3543 51.689 77.935L51.5642 77.6149L51.5002 77.458L51.4842 77.4196L51.449 77.3364C51.4202 77.2564 51.3978 77.1732 51.3817 77.0868C51.3209 76.7379 51.3882 76.3794 51.5738 76.0753C51.6634 75.9249 51.7818 75.7937 51.9195 75.6848L52.0443 75.5824C53.3886 74.4749 54.3264 72.9514 54.7169 71.255C54.8738 70.426 54.8738 69.5778 54.7169 68.7488C54.6433 68.3295 54.5377 67.9198 54.3969 67.5197C54.2688 67.1644 54.0896 66.8347 53.8623 66.5339C52.9501 65.3176 51.2569 64.6454 49.5413 64.2709C49.3237 64.2261 49.106 64.1909 48.9012 64.1589L48.5811 64.1205H48.5427C48.4018 64.1077 48.2642 64.0757 48.1362 64.0213C47.8545 63.8996 47.6273 63.6788 47.496 63.4035C47.4288 63.2659 47.3872 63.1155 47.3744 62.9618C47.3648 62.8146 47.3776 62.6641 47.416 62.5201L47.4384 62.4433C47.5536 62.0528 47.6241 61.6495 47.6465 61.243C47.7041 60.4524 47.5536 59.6618 47.208 58.9513C46.8367 58.2311 46.2925 57.6102 45.6268 57.1492C44.977 56.6659 44.2153 56.3619 43.4119 56.2658C43.0022 56.2178 42.5893 56.2178 42.1796 56.2658C41.7315 56.3267 41.2866 56.4163 40.8481 56.5315C40.7232 56.5603 40.592 56.5923 40.4256 56.6211H40.3615C40.2719 56.6307 40.1823 56.6307 40.0927 56.6211C39.891 56.6051 39.6958 56.5315 39.5326 56.4131C39.3725 56.2946 39.2445 56.1378 39.1645 55.9586C39.1261 55.8689 39.1004 55.7793 39.0844 55.6833C39.0812 55.6257 39.0812 55.5681 39.0844 55.5105C39.0844 55.5617 39.0844 55.5425 39.0844 55.5105C39.0844 55.4785 39.0844 55.456 39.0556 55.4144C39.03 55.328 38.998 55.2416 38.9596 55.1584C38.7836 54.7679 38.5691 54.3998 38.3195 54.0541C36.8023 51.8232 34.2129 50.5685 31.5211 50.7573C30.628 50.8278 29.7478 51.0294 28.9124 51.3527C28.061 51.692 27.2512 52.1273 26.4991 52.6522C26.1182 52.9146 25.7533 53.2027 25.3948 53.5004L24.8571 53.9645L24.5786 54.211L24.4986 54.2814L24.4026 54.355C24.0505 54.5918 23.5896 54.5918 23.2375 54.355L23.2279 54.4062Z" fill="#383838"/>
<path d="M27.1552 73.1948C27.0208 75.4353 26.9248 77.6759 26.8671 79.9164C26.8383 81.0239 26.8191 82.1345 26.8063 83.242C26.8063 83.6261 26.6783 84.2246 27.024 84.4999C27.3697 84.7751 27.9842 84.7399 28.3907 84.7495C28.5923 84.7303 28.7428 84.5511 28.7236 84.3494C28.7076 84.1734 28.5667 84.0326 28.3907 84.0166C28.1154 84.0166 27.8434 83.9558 27.5713 83.9461C27.4401 83.9461 27.5105 83.8917 27.5393 83.9461C27.5169 83.8149 27.5169 83.6805 27.5393 83.5493C27.5393 83.0755 27.5393 82.589 27.5393 82.1249C27.5393 81.1199 27.5777 80.118 27.6065 79.113C27.6673 77.1317 27.757 75.1537 27.8754 73.1756C27.9042 72.7019 27.168 72.7051 27.1392 73.1756L27.1552 73.1948Z" fill="#383838"/>
<path d="M32.3276 78.5304C33.0446 79.1225 33.8992 79.5226 34.8114 79.6891C36.2742 79.9483 37.7817 79.7435 39.1197 79.1033C39.6478 78.7929 39.827 78.1111 39.5198 77.5798C39.1965 77.0644 38.5307 76.8884 37.9962 77.1797L37.897 77.2245C37.9866 77.1861 37.993 77.1829 37.9226 77.2245L37.6825 77.3141C37.5449 77.3621 37.404 77.4069 37.2632 77.4453C37.1224 77.4837 36.9623 77.5222 36.8087 77.551C36.7383 77.5734 36.6615 77.5862 36.5879 77.5862C36.6487 77.6022 36.7799 77.567 36.6263 77.5862C36.3542 77.6118 36.0821 77.6182 35.8101 77.6054C35.6948 77.6054 35.5828 77.5862 35.4676 77.5766C35.3524 77.567 35.714 77.6214 35.5092 77.5766L35.3364 77.5446C35.1283 77.5029 34.9267 77.4485 34.725 77.3813C34.6386 77.3525 34.5554 77.3173 34.4657 77.2885C34.3761 77.2597 34.7154 77.4005 34.5458 77.3205C34.5074 77.3013 34.4625 77.2853 34.4241 77.2629C34.2833 77.1957 34.1457 77.1221 34.0144 77.0388L33.8416 76.9236C33.6528 76.7956 34.0689 77.1093 33.9024 76.9716C33.4639 76.5459 32.7661 76.5459 32.3276 76.9716C31.9499 77.3845 31.8539 78.1431 32.3276 78.5464V78.5304Z" fill="#383838"/>
<path d="M96.9157 87.4702C96.8837 86.1899 95.6354 85.3609 94.5183 85.0728C93.0972 84.6951 91.5832 85.0728 90.5046 86.0682C90.0725 86.5036 90.0725 87.2077 90.5046 87.643C90.9431 88.0687 91.6409 88.0687 92.0794 87.643L92.2266 87.5118C92.3866 87.3678 92.0089 87.6654 92.2266 87.5118C92.329 87.4414 92.4346 87.3773 92.5467 87.3229C92.6491 87.2717 92.8251 87.2557 92.5243 87.3229C92.5819 87.3069 92.6363 87.2845 92.6907 87.2621C92.7995 87.2269 92.9116 87.1981 93.0268 87.1725C93.0812 87.1725 93.1388 87.1725 93.1932 87.1437C92.8731 87.2205 93.0236 87.1661 93.1228 87.1437C93.222 87.1213 93.3437 87.1437 93.4429 87.1437C93.5421 87.1437 93.6605 87.1597 93.763 87.1661C93.3629 87.1469 93.7405 87.1661 93.859 87.1949C93.9774 87.2237 94.0574 87.2493 94.1534 87.2813L94.2943 87.3325C94.3807 87.3581 94.003 87.1981 94.2303 87.3069C94.3135 87.3453 94.3967 87.3902 94.4767 87.4382L94.5887 87.5086C94.6848 87.5694 94.7168 87.6558 94.5023 87.435C94.5567 87.4926 94.6272 87.5374 94.6816 87.595C94.704 87.6238 94.7296 87.6526 94.7584 87.6814C94.5183 87.4766 94.6144 87.4734 94.672 87.5694C94.688 87.6014 94.704 87.6302 94.7232 87.659C94.8224 87.8159 94.6528 87.5406 94.6656 87.5118C94.6688 87.547 94.6784 87.5854 94.6944 87.6174C94.7328 87.7102 94.6624 87.2525 94.6688 87.4574C94.6688 88.0751 95.1713 88.5776 95.789 88.5776C96.4068 88.5776 96.9093 88.0751 96.9093 87.4574L96.9157 87.4702Z" fill="#383838"/>
<path d="M79.4588 88.1838C79.43 86.9035 78.1785 86.0745 77.0646 85.7864C75.6435 85.4087 74.1295 85.7864 73.0477 86.7819C72.6156 87.2172 72.6156 87.9214 73.0477 88.3567C73.4862 88.7824 74.1839 88.7824 74.6224 88.3567L74.7697 88.2254C74.9297 88.0814 74.552 88.3791 74.7697 88.2254C74.8721 88.155 74.9809 88.0942 75.0898 88.0366C75.1922 87.9854 75.3682 87.9694 75.0706 88.0366C75.125 88.0206 75.1794 87.9982 75.2338 87.9758C75.3458 87.9406 75.4578 87.9118 75.5539 87.8861C75.6083 87.8861 75.6659 87.8701 75.7203 87.8573C75.4002 87.9342 75.5507 87.8797 75.6499 87.8573C75.7491 87.8349 75.8707 87.8573 75.97 87.8573C76.0692 87.8573 76.1876 87.8733 76.29 87.8797C75.8931 87.8605 76.2676 87.8797 76.3861 87.9086L76.6837 87.995L76.8246 88.0462C76.911 88.0718 76.5301 87.9118 76.7573 88.0206C76.8406 88.059 76.9238 88.1038 77.0038 88.1518L77.119 88.2222C77.2119 88.283 77.2439 88.3695 77.0294 88.1486C77.087 88.2062 77.1542 88.251 77.2087 88.3119L77.2855 88.3951C77.0454 88.1902 77.1414 88.187 77.1991 88.283C77.1991 88.315 77.2343 88.3439 77.2503 88.3727C77.3495 88.5295 77.1798 88.2542 77.1927 88.2254C77.1991 88.2606 77.2087 88.2959 77.2215 88.3311C77.2599 88.4239 77.1927 87.9662 77.1959 88.171C77.1959 88.7888 77.6984 89.2913 78.3161 89.2913C78.9339 89.2913 79.4364 88.7888 79.4364 88.171L79.4588 88.1838Z" fill="#383838"/>
<path d="M78.7002 82.5953C78.4409 81.6895 77.3303 81.5166 76.5269 81.5294C75.4674 81.5359 74.4304 81.8207 73.515 82.352C73.0701 82.5953 72.7212 82.9858 72.5291 83.4563C72.3691 83.9012 73.0797 84.0965 73.2365 83.6516C73.3101 83.4883 73.419 83.3411 73.5566 83.2259C73.7294 83.0754 73.9247 82.9506 74.1295 82.8482C74.6256 82.6049 75.1538 82.4353 75.6979 82.3456C76.194 82.2464 76.7061 82.2336 77.2055 82.3136C77.3975 82.3424 77.5831 82.4065 77.7528 82.5025C77.8648 82.5633 77.948 82.6689 77.9864 82.7906C78.0409 82.9858 78.2425 83.101 78.4377 83.0466C78.633 82.9922 78.7482 82.7906 78.697 82.5953H78.7002Z" fill="#383838"/>
<path d="M91.8009 82.5729C91.8201 82.5217 91.8009 82.5729 91.8361 82.5057C91.8713 82.4384 91.8361 82.4864 91.8809 82.4448C91.9289 82.384 91.9929 82.3392 92.0634 82.3104C92.2234 82.24 92.3898 82.192 92.5627 82.1696C93.0876 82.1184 93.6189 82.16 94.1278 82.2976C94.672 82.4224 95.1905 82.6273 95.6706 82.909C95.8659 83.0242 96.0483 83.165 96.2083 83.3251C96.3396 83.4467 96.4356 83.6003 96.49 83.77C96.5444 83.9652 96.7461 84.0804 96.9413 84.026C97.1366 83.9716 97.2518 83.77 97.2006 83.5747C96.9349 82.6561 95.9203 82.1376 95.0913 81.8239C94.1791 81.4814 93.0524 81.2477 92.0922 81.5038C91.6345 81.6062 91.26 81.9295 91.0903 82.3648C90.9335 82.8097 91.6441 83.005 91.8009 82.5601V82.5729Z" fill="#383838"/>
<path d="M16.6215 78.2359C18.4299 79.8651 21.2306 80.0187 23.4007 79.1193C23.9352 78.8952 24.3801 78.3703 24.1785 77.7494C24.0121 77.234 23.3847 76.7315 22.8086 76.9716C22.4789 77.1092 22.1428 77.2212 21.7971 77.3109C21.6531 77.3461 21.5091 77.3749 21.365 77.4005C21.221 77.4261 21.173 77.4261 21.333 77.4005C21.2562 77.4005 21.1826 77.4165 21.1058 77.4197C20.8337 77.4421 20.5584 77.4421 20.2864 77.4197C20.216 77.4197 20.1487 77.4197 20.0815 77.4005C19.8671 77.3781 20.0431 77.4389 20.1039 77.4005C20.0495 77.4293 19.7839 77.3429 19.7294 77.3269C19.5118 77.2788 19.2973 77.2148 19.0893 77.1412L18.9357 77.0836C18.7532 77.0132 19.1181 77.17 18.9997 77.1092C18.8812 77.0484 18.8364 77.0356 18.7596 76.994C18.606 76.914 18.4555 76.8275 18.3115 76.7315C18.2635 76.6995 18.0683 76.5523 18.2507 76.6931C18.4331 76.8339 18.2507 76.6771 18.1931 76.6387C17.7482 76.213 17.044 76.2322 16.6183 76.6771C16.2086 77.106 16.2086 77.7846 16.6183 78.2135L16.6215 78.2359Z" fill="#383838"/>
<path d="M22.7446 88.872C23.7272 89.8483 24.9883 90.5012 26.3518 90.7445C28.9124 91.1766 31.3866 90.1811 33.4223 88.6352C33.9376 88.3119 34.1105 87.6461 33.8192 87.1116C33.5439 86.6411 32.779 86.3466 32.2956 86.7115C31.3482 87.4797 30.26 88.0622 29.0949 88.4239C28.8612 88.4879 28.6244 88.5327 28.3875 88.584C28.2531 88.6032 28.2563 88.6064 28.3875 88.584L28.1955 88.6064C28.0738 88.6064 27.949 88.6256 27.8274 88.6288C27.6193 88.6416 27.4145 88.6416 27.2064 88.6288C27.1232 88.6288 27.04 88.6288 26.9568 88.6064C26.8736 88.584 26.8448 88.6064 27.008 88.6064L26.848 88.5776C26.5055 88.5103 26.1662 88.4175 25.8365 88.2991C25.5388 88.1935 25.9517 88.3631 25.7853 88.2799L25.5741 88.1807C25.4364 88.1102 25.2988 88.0366 25.1644 87.9566C25.0299 87.8766 24.9403 87.819 24.8443 87.7422C24.7931 87.7101 24.7451 87.6717 24.697 87.6365C24.4986 87.5021 24.8891 87.803 24.7483 87.6781C24.6074 87.5533 24.4538 87.4317 24.3162 87.294C23.3047 86.2762 21.7299 87.851 22.7446 88.872Z" fill="#383838"/>
<path d="M102.632 83.0019C102.632 83.0019 104.053 76.1491 103.708 73.1948C103.426 70.7495 101.787 65.8331 98.1544 63.4933C91.7529 59.3772 80.2846 56.4517 69.3636 59.8221C64.1272 61.4225 59.0444 71.3736 66.5885 76.61C74.1327 81.8465 82.7268 70.471 84.8617 73.1948C86.9966 75.9187 83.8406 79.6892 87.2302 79.7692C90.6198 79.8492 95.5522 74.9937 96.5476 76.6869C97.5431 78.3801 97.8567 83.0788 102.632 83.0019Z" fill="#383838"/>
<path d="M102.584 82.9442C102.546 82.9186 102.565 82.829 102.562 82.7489V82.5153V82.0416C102.562 81.7215 102.581 81.4014 102.597 81.1037L102.677 79.2345C102.706 78.6136 102.744 77.999 102.76 77.3813C102.776 76.7635 102.815 76.1586 102.808 75.5536C102.802 74.9487 102.808 74.3566 102.764 73.79C102.719 73.2235 102.61 72.6986 102.536 72.116C102.392 70.9573 102.277 69.7027 101.736 68.6176C101.218 67.5389 100.51 66.5627 99.646 65.7369C99.2267 65.34 98.769 64.9847 98.2856 64.6679C98.0456 64.511 97.8119 64.3734 97.5559 64.239L96.7653 63.8101L93.5645 62.1393C92.4923 61.5471 91.388 61.0126 90.2549 60.5389C87.9408 59.6843 85.5114 59.1818 83.05 59.0569C80.6047 58.8617 78.1465 58.9225 75.7171 59.2458C74.5072 59.4058 73.3101 59.6203 72.1163 59.8635C71.5209 59.9852 70.9288 60.1292 70.3366 60.2668L69.4564 60.4877C69.1844 60.5581 68.9187 60.6477 68.6626 60.7565C67.5808 61.2366 66.6142 61.9376 65.8204 62.8146C65.0106 63.7108 64.3704 64.7479 63.9319 65.8745C63.0613 68.1151 62.9717 70.6597 63.9927 72.7434C64.2456 73.2619 64.5561 73.7452 64.921 74.1933C65.2826 74.6446 65.6891 75.0575 66.1372 75.4256C67.0046 76.1906 68.0097 76.7763 69.1011 77.154C70.2182 77.5253 71.4057 77.6341 72.574 77.4741C73.7838 77.3012 74.9521 76.9236 76.034 76.357C77.1126 75.7521 78.1593 75.0927 79.1675 74.3822C80.2174 73.6588 81.3408 73.0474 82.5187 72.5641C82.8484 72.4393 83.1877 72.3529 83.5366 72.3017C83.7318 72.2761 83.9302 72.2761 84.1255 72.3017C84.3431 72.3305 84.5544 72.4009 84.7432 72.5097C84.9289 72.6217 85.0857 72.7722 85.2106 72.9482C85.313 73.0891 85.4026 73.2395 85.4858 73.3931C85.6523 73.694 85.7739 74.0173 85.8475 74.3533C86.1676 75.6977 85.8059 76.9908 85.8187 78.1686C85.8123 78.4343 85.8635 78.7 85.9723 78.9432C86.0908 79.1513 86.286 79.3017 86.5165 79.3593C86.7885 79.4298 87.067 79.4586 87.3455 79.4458C87.6335 79.433 87.9216 79.3913 88.2033 79.3209C89.3555 79.0393 90.4438 78.4439 91.516 77.8518L93.142 76.9268C93.7054 76.6195 94.2975 76.3602 94.9057 76.1554C95.2449 76.0305 95.6034 75.9761 95.9651 75.9921C96.186 76.0113 96.3972 76.0946 96.57 76.2354C96.6533 76.309 96.7269 76.3954 96.7845 76.4915C96.8325 76.5779 96.8677 76.6451 96.9061 76.7251C97.1526 77.3109 97.3638 77.9062 97.5463 78.5143C97.9368 79.6762 98.4137 80.8285 99.2811 81.6767C99.7132 82.0992 100.232 82.4225 100.801 82.6209C101.09 82.7233 101.387 82.7969 101.688 82.845C101.838 82.8738 101.992 82.8802 102.143 82.8994C102.293 82.9186 102.437 82.9282 102.584 82.9442ZM102.677 83.0594C102.514 83.0594 102.328 83.0818 102.159 83.0786C101.989 83.0754 101.838 83.0786 101.688 83.0434C101.371 83.0114 101.058 82.9506 100.753 82.8578C100.132 82.6753 99.5627 82.3584 99.0794 81.9295C98.1 81.0653 97.5367 79.8619 97.0822 78.7032C96.8485 78.1238 96.6437 77.5253 96.3748 77.0132C96.3396 76.9524 96.3012 76.8851 96.2692 76.8371C96.2468 76.7987 96.2148 76.7667 96.1795 76.7411C96.1059 76.6899 96.0163 76.6611 95.9267 76.6611C95.661 76.6707 95.4018 76.7283 95.1585 76.8339C94.6112 77.0836 94.0766 77.3621 93.5581 77.6693L91.9065 78.5559C90.7927 79.1865 89.602 79.6634 88.3601 79.9707C87.6975 80.1275 87.0062 80.1147 86.35 79.9323C85.9723 79.8234 85.6555 79.5674 85.4698 79.2217C85.3194 78.8952 85.2458 78.5399 85.2586 78.1815C85.2586 77.8614 85.2842 77.5413 85.3098 77.2212C85.3354 76.9012 85.3546 76.6035 85.3642 76.2994C85.393 75.7105 85.3162 75.1215 85.1401 74.5614C85.0121 74.1645 84.8041 73.7996 84.5352 73.4827C84.4744 73.4091 84.3976 73.3483 84.3111 73.3035C84.0135 73.1467 83.4437 73.3035 82.9316 73.5468C82.4195 73.79 81.8882 74.0973 81.3568 74.4046C80.8255 74.7118 80.291 75.0255 79.7565 75.3264C78.6554 75.9217 77.4935 76.4338 76.3349 76.9268C75.1762 77.4549 73.9695 77.8838 72.7372 78.2071C71.4537 78.5431 70.1094 78.5751 68.8099 78.3031C68.1505 78.1526 67.5168 77.9094 66.9246 77.5797C66.3453 77.2532 65.798 76.8691 65.2954 76.4338C63.2245 74.6734 62.1075 72.0392 62.2835 69.3282C62.3795 68.0287 62.7028 66.7548 63.2438 65.5673C63.7591 64.3862 64.428 63.2819 65.2314 62.2737C66.0316 61.2238 67.0238 60.3372 68.1537 59.6555C68.4514 59.4858 68.7619 59.3354 69.0819 59.2106C69.402 59.0921 69.6901 59.0057 69.9941 58.8905C70.2982 58.7753 70.6055 58.7081 70.9128 58.6216C71.22 58.5352 71.5273 58.4584 71.8378 58.3912C73.0701 58.1159 74.3216 57.9303 75.5827 57.8374C78.1113 57.6454 80.6527 57.7094 83.1685 58.0263C85.6747 58.3656 88.1232 58.9257 90.5878 59.4858C91.8393 59.7419 93.078 60.062 94.2975 60.4461C95.517 60.859 96.6853 61.4191 97.7703 62.1137C98.0488 62.2833 98.3113 62.4721 98.5769 62.6578C98.8522 62.8562 99.1178 63.0707 99.3707 63.2979C99.8636 63.7556 100.315 64.2582 100.715 64.7991C101.477 65.8521 102.143 66.9756 102.696 68.1535C102.978 68.7296 103.285 69.2962 103.589 69.8755C103.909 70.4548 104.178 71.0566 104.396 71.6807C104.498 71.9944 104.578 72.3145 104.633 72.6409C104.681 72.9866 104.71 73.3323 104.713 73.6812C104.713 74.3405 104.671 74.9967 104.588 75.6497C104.505 76.2898 104.399 76.93 104.284 77.5413C104.169 78.1526 104.018 78.7768 103.861 79.3881C103.705 79.9995 103.541 80.6076 103.336 81.2094C103.244 81.5102 103.144 81.8079 103.036 82.1056C102.984 82.256 102.933 82.4033 102.872 82.5505L102.789 82.7745C102.757 82.8738 102.722 82.9666 102.677 83.0594Z" fill="#383838"/>
<path d="M79.2123 96.6146C78.8026 96.5537 78.4217 96.8322 78.3577 97.2419C78.3417 97.3539 78.3481 97.466 78.3833 97.5748C79.0043 99.5112 80.9439 102.744 85.2169 102.402C90.5622 101.973 91.8937 97.6516 91.7913 96.2145C91.6889 94.7773 87.4223 97.2099 84.9417 97.2931C83.1493 97.3507 80.6463 96.8258 79.2123 96.6146Z" fill="#383838" stroke="#383838" stroke-width="0.94" stroke-miterlimit="10"/>
<path d="M83.9367 84.4966C84.1607 85.8153 83.9815 87.1693 83.4214 88.3824C82.8932 89.5154 81.9746 90.3028 81.2928 91.3399C80.6975 92.2297 80.2654 93.6124 81.4401 94.2205C82.6148 94.8287 84.0903 94.4574 85.3162 94.0605C85.7643 93.9165 85.5723 93.2059 85.121 93.3531C84.5192 93.5708 83.8951 93.7212 83.2581 93.8013C82.746 93.8461 81.869 93.8365 81.5169 93.3787C81.1648 92.921 81.6225 92.1817 81.8594 91.8072C82.173 91.3591 82.5123 90.9302 82.8804 90.5269C84.372 88.8209 85.0185 86.5355 84.6472 84.3014C84.5672 83.8373 83.8567 84.0357 83.9367 84.4966Z" fill="#383838"/>
<path d="M103.218 85.1752L103.365 85.1048H103.324C103.4 85.0792 103.477 85.0504 103.557 85.028C103.637 85.0056 103.714 84.9896 103.791 84.9704C103.868 84.9512 103.897 84.948 103.73 84.9704H103.887C103.964 84.964 104.041 84.964 104.117 84.9704C103.945 84.9416 103.919 84.9416 104.041 84.9704L104.149 84.996L104.255 85.0312C104.101 84.9608 104.079 84.9544 104.188 85.0088C104.354 85.1912 104.012 84.8327 104.204 85.0088C104.268 85.0728 104.335 85.1304 104.396 85.1976L104.476 85.284C104.553 85.3769 104.543 85.364 104.447 85.2424C104.482 85.3096 104.524 85.3769 104.575 85.4345C104.623 85.5145 104.658 85.5945 104.703 85.6745C104.748 85.7545 104.726 85.7193 104.665 85.5849C104.684 85.6329 104.7 85.6809 104.716 85.7289C104.732 85.777 104.754 85.8762 104.77 85.9498C104.822 86.1738 104.77 85.7001 104.77 85.9914C104.77 86.0298 104.77 86.065 104.77 86.1034C104.77 86.2283 104.77 86.2026 104.79 86.033C104.78 86.1098 104.761 86.1834 104.735 86.2539C104.697 86.3691 104.706 86.3499 104.77 86.1962C104.751 86.2411 104.729 86.2859 104.706 86.3275C104.684 86.3691 104.63 86.4523 104.591 86.5163C104.473 86.7116 104.735 86.3691 104.591 86.5163C104.514 86.5931 104.325 86.8588 104.21 86.878L104.255 86.8428L104.191 86.8876C104.108 86.9484 104.025 87.0028 103.938 87.0605C103.224 87.5182 102.472 87.9183 101.736 88.3408C101.214 88.6704 101.061 89.3586 101.387 89.8771C101.701 90.3732 102.344 90.5429 102.863 90.2612C103.564 89.8547 104.277 89.4706 104.966 89.0417C105.663 88.6576 106.243 88.0943 106.652 87.4125C107.059 86.6411 107.113 85.7289 106.796 84.9159C106.499 84.0581 105.875 83.354 105.058 82.9571C104.098 82.5474 103.02 82.7874 102.107 83.2452C101.579 83.5588 101.4 84.2374 101.707 84.7687C102.027 85.2872 102.696 85.4633 103.231 85.1688L103.218 85.1752Z" fill="#383838"/>
<path d="M69.6869 87.3325C69.6869 86.3339 68.3714 85.9978 67.5808 86.1675C66.4797 86.4107 65.942 87.5918 66.0444 88.632C66.1884 89.6467 66.6493 90.5845 67.3663 91.3175C67.648 91.6535 67.9617 91.9608 68.3041 92.2361C68.4866 92.3769 68.6722 92.5113 68.8579 92.649L68.9891 92.7482C68.9123 92.6874 68.9155 92.6906 68.9891 92.7482C69.0627 92.8058 69.1331 92.873 69.2036 92.9434C69.5684 93.2859 70.1414 93.2667 70.4839 92.9018C70.8103 92.553 70.8103 92.012 70.4839 91.6631C70.2278 91.4295 69.9557 91.215 69.6677 91.023L69.5012 90.9014C69.4628 90.8694 69.306 90.7445 69.4276 90.847C69.3156 90.7477 69.2068 90.6389 69.1075 90.5269C68.8835 90.2932 68.6626 90.0532 68.4674 89.8035C68.2721 89.5538 68.5538 89.9347 68.3938 89.7043C68.3425 89.6339 68.2913 89.5603 68.2433 89.4866C68.1601 89.3522 68.0897 89.2114 68.0129 89.0705C67.9681 88.9873 68.0417 89.1634 67.9905 89.0097C67.9649 88.9297 67.9361 88.8497 67.9136 88.7665C67.8912 88.6832 67.8752 88.6 67.8624 88.5168C67.8816 88.6512 67.8624 88.536 67.8624 88.4656C67.8624 88.3952 67.8624 88.2959 67.8624 88.2127C67.8624 88.1295 67.824 88.3184 67.8624 88.1647C67.8848 88.1007 67.9585 87.9439 67.8816 88.0751C67.9104 88.0239 68.0353 87.8959 67.9233 87.9983L67.9809 87.9407C68.0609 87.8671 68.0609 87.8671 67.9809 87.9407L68.0417 87.9087C67.9361 87.9471 67.9169 87.9567 67.9809 87.9375C68.0097 87.9279 68.0417 87.9183 68.0737 87.9151C67.9489 87.9151 67.9233 87.9343 67.9937 87.9151H68.1473C68.1473 87.9151 67.9329 87.8671 68.1473 87.9151C68.3618 87.9631 68.1217 87.9151 68.1249 87.8959L68.2401 87.9567C68.0449 87.9567 67.8976 87.2269 67.9008 87.3165C67.872 87.8158 68.2529 88.2447 68.7523 88.2735C69.2516 88.3024 69.6805 87.9215 69.7093 87.4221C69.7125 87.3869 69.7125 87.3517 69.7093 87.3133L69.6869 87.3325Z" fill="#383838"/>
</g>
<defs>
<clipPath id="clip0_5_127">
<rect width="123.533" height="115" fill="white" transform="translate(0 0.566406)"/>
</clipPath>
</defs>
</svg>
