<?xml version="1.0" encoding="UTF-8"?>
<svg xmlns="http://www.w3.org/2000/svg" width="325" height="200" viewBox="0 0 325 200" fill="none">
  <path d="M106.897 78.1416H131.581V83.9206H113.048V95.8556H128.324V101.676H113.048V118.218H106.856V78.1416H106.897Z" fill="#031C5B"></path>
  <path d="M158.516 118.218H152.807V114.868C150.716 117.464 147.581 118.888 143.681 118.888C137.691 118.888 133.711 115.412 133.711 110.261C133.711 105.111 137.771 101.76 144.244 101.76H152.324V99.834C152.324 95.6882 150.113 93.4687 146.214 93.4687C142.998 93.4687 140.666 94.9344 138.294 97.9077L134.756 94.1387C137.611 89.8254 141.872 87.7734 146.817 87.7734C153.852 87.7734 158.516 92.2124 158.516 100.211V118.218ZM152.324 106.367H144.967C141.711 106.367 139.902 107.581 139.902 110.01C139.902 112.481 141.952 113.947 144.927 113.947C149.068 113.947 152.324 110.973 152.324 106.911V106.367Z" fill="#031C5B"></path>
  <path d="M189.672 109.089C192.165 111.811 194.698 113.318 197.713 113.318C200.326 113.318 202.296 112.146 202.296 109.968C202.296 108.209 201.09 107.497 198.276 106.283L195.381 105.027C190.316 102.849 187.944 100.546 187.944 96.3581C187.944 90.9979 192.205 87.7314 198.034 87.7314C202.175 87.7314 205.432 89.239 207.924 92.3379L204.587 96.2744C202.778 94.348 200.406 93.2592 197.874 93.2592C195.502 93.2592 193.974 94.2224 193.974 96.1068C193.974 97.6144 194.979 98.4101 197.753 99.6245L200.487 100.797C205.914 103.184 208.286 105.571 208.286 109.759C208.286 112.606 207.281 114.868 205.271 116.501C203.22 118.092 200.728 118.888 197.713 118.888C192.808 118.888 188.748 116.585 186.175 113.109L189.672 109.089Z" fill="#031C5B"></path>
  <path d="M218.457 73.0745C220.749 73.0745 222.598 74.9589 222.598 77.304C222.598 79.691 220.749 81.4917 218.457 81.4917C216.125 81.4917 214.276 79.691 214.276 77.304C214.236 74.9171 216.125 73.0745 218.457 73.0745ZM215.361 88.4014H221.472V118.218H215.361V88.4014Z" fill="#031C5B"></path>
  <path d="M258.417 88.4015V115.119C258.417 124.541 252.749 129.818 244.105 129.818C238.437 129.818 233.814 127.515 230.356 124.164L233.733 119.725C236.949 122.406 239.844 123.955 243.744 123.955C248.93 123.955 252.307 121.024 252.307 115.454V113.318C250.136 116.04 246.598 117.548 242.618 117.548C234.658 117.548 228.708 111.308 228.708 102.64C228.708 93.9711 234.698 87.7314 242.618 87.7314C247 87.7314 250.658 89.5322 252.749 92.6311V88.4015H258.417ZM243.703 93.4267C241.211 93.4267 239.161 94.2643 237.472 95.9812C235.784 97.6982 234.98 99.9177 234.98 102.64C234.98 105.445 235.784 107.665 237.472 109.424C239.161 111.141 241.211 111.978 243.703 111.978C246.075 111.978 248.085 111.183 249.774 109.549C251.462 107.916 252.347 105.613 252.347 102.556C252.347 96.5256 248.447 93.4267 243.703 93.4267Z" fill="#031C5B"></path>
  <path d="M292.227 118.218H286.116V100.504C286.116 96.3583 283.664 93.5944 279.885 93.5944C276.106 93.5944 273.372 96.442 273.372 100.504V118.218H267.262V72.6978H273.372V91.3749C275.302 88.9879 278.197 87.7316 281.654 87.7316C288.167 87.7316 292.267 92.5056 292.267 99.5828V118.218H292.227Z" fill="#031C5B"></path>
  <path d="M317.756 118.218C315.826 118.637 314.138 118.888 312.69 118.888C306.097 118.888 302.158 115.496 302.158 108.503V93.9293H297.494V88.4016H302.158V80.5706H308.349V88.4016H316.831V93.9293H308.308V107.958C308.308 111.769 310.238 113.109 313.977 113.109C314.861 113.109 316.067 112.983 317.756 112.816V118.218Z" fill="#031C5B"></path>
  <path d="M183.2 88.4016H165.953V94.7669V118.218H172.104V94.7669H183.2V88.4016Z" fill="#031C5B"></path>
  <path d="M22.5928 124.709V149.416L49.6085 139.156V114.868L22.5928 124.709Z" fill="#F7B40D"></path>
  <path d="M8 105.404L74.6548 80.3611V105.739L8 130.027V105.404Z" fill="#FF55DE"></path>
  <path d="M22.5928 74.8333L89.3682 50.0002V74.8333L22.5928 99.9176V74.8333Z" fill="#790BF9"></path>
</svg>
