<svg width="100" height="16" viewBox="0 0 100 16" fill="none" xmlns="http://www.w3.org/2000/svg">
<path d="M3.61638 15.9389C3.22934 16.1508 2.7911 15.7805 2.86902 15.3075L3.70003 10.2627L0.17223 6.68226C-0.157462 6.34765 0.0132031 5.73586 0.454877 5.66903L5.36096 4.92677L7.54847 0.311792C7.74553 -0.103931 8.27932 -0.103931 8.47637 0.311792L10.6639 4.92677L15.57 5.66903C16.0116 5.73586 16.1823 6.34765 15.8526 6.68226L12.3248 10.2627L13.1558 15.3075C13.2338 15.7805 12.7955 16.1508 12.4085 15.9389L8.01242 13.5326L3.61638 15.9389Z" fill="#FF8B20"/>
<path d="M24.6102 15.9389C24.2231 16.1508 23.7849 15.7805 23.8628 15.3075L24.6938 10.2627L21.166 6.68226C20.8363 6.34765 21.007 5.73586 21.4487 5.66903L26.3547 4.92677L28.5423 0.311792C28.7393 -0.103931 29.2731 -0.103931 29.4702 0.311792L31.6577 4.92677L36.5638 5.66903C37.0054 5.73586 37.1761 6.34765 36.8464 6.68226L33.3186 10.2627L34.1496 15.3075C34.2275 15.7805 33.7893 16.1508 33.4023 15.9389L29.0062 13.5326L24.6102 15.9389Z" fill="#FF8B20"/>
<path d="M45.604 15.9389C45.2169 16.1508 44.7787 15.7805 44.8566 15.3075L45.6876 10.2627L42.1598 6.68226C41.8301 6.34765 42.0008 5.73586 42.4425 5.66903L47.3485 4.92677L49.5361 0.311792C49.7331 -0.103931 50.2669 -0.103931 50.464 0.311792L52.6515 4.92677L57.5575 5.66903C57.9992 5.73586 58.1699 6.34765 57.8402 6.68226L54.3124 10.2627L55.1434 15.3075C55.2213 15.7805 54.7831 16.1508 54.396 15.9389L50 13.5326L45.604 15.9389Z" fill="#FF8B20"/>
<path d="M66.5978 15.9389C66.2107 16.1508 65.7725 15.7805 65.8504 15.3075L66.6814 10.2627L63.1536 6.68226C62.8239 6.34765 62.9946 5.73586 63.4362 5.66903L68.3423 4.92677L70.5298 0.311792C70.7269 -0.103931 71.2607 -0.103931 71.4577 0.311792L73.6453 4.92677L78.5513 5.66903C78.993 5.73586 79.1637 6.34765 78.834 6.68226L75.3062 10.2627L76.1372 15.3075C76.2151 15.7805 75.7769 16.1508 75.3898 15.9389L70.9938 13.5326L66.5978 15.9389Z" fill="#FF8B20"/>
<path d="M87.5915 15.9389C87.2045 16.1508 86.7663 15.7805 86.8442 15.3075L87.6752 10.2627L84.1474 6.68226C83.8177 6.34765 83.9884 5.73586 84.43 5.66903L89.3361 4.92677L91.5236 0.311792C91.7207 -0.103931 92.2545 -0.103931 92.4515 0.311792L94.6391 4.92677L99.5451 5.66903C99.9868 5.73586 100.157 6.34765 99.8278 6.68226L96.3 10.2627L97.131 15.3075C97.2089 15.7805 96.7707 16.1508 96.3836 15.9389L91.9876 13.5326L87.5915 15.9389Z" fill="#FF8B20"/>
</svg>
