<svg width="142" height="40" viewBox="0 0 142 40" fill="none" xmlns="http://www.w3.org/2000/svg">
<path d="M36.7321 0.00952148H43.2345V39.9745H36.7321V0.00952148Z" fill="#17313B"/>
<path d="M65.8444 27.3095C65.8444 33.498 60.7566 34.0664 59.0606 34.0664C55.1061 34.0664 54.5354 30.4077 54.5354 28.4383V12.9551H48.033V28.1501C48.033 31.8087 49.1663 35.1872 51.4248 37.1566C53.4021 39.126 55.95 39.9747 59.0526 39.9747C61.3111 39.9747 64.1404 39.4142 65.8363 37.725V39.9747H72.3388V12.9551H65.8363C65.8444 12.9551 65.8444 27.3095 65.8444 27.3095Z" fill="#17313B"/>
<path d="M85.0543 3.10767H78.5519V12.9548H73.7454V19.1433H78.5519V39.9744H85.0543V19.1513H89.8608V12.9628H85.0543V3.10767Z" fill="#17313B"/>
<path d="M110.204 31.8167C108.79 32.9455 106.812 33.7861 104.835 33.7861C100.31 33.7861 97.2075 30.4076 97.2075 25.9084C97.2075 21.4011 100.318 18.3109 104.835 18.3109C106.812 18.3109 108.79 18.8713 110.204 20.2803L111.048 21.1209L115.573 16.9018L114.44 16.0612C111.9 13.8116 108.508 12.4026 104.835 12.4026C96.9261 12.4026 90.9863 18.3109 90.9863 26.1966C90.9863 34.0823 96.9181 39.9906 104.835 39.9906C108.508 39.9906 111.9 38.5816 114.44 36.3319L115.573 35.4913L111.048 30.984L110.204 31.8167Z" fill="#17313B"/>
<path d="M138.464 15.2125C136.487 13.2431 134.51 12.3945 131.399 12.3945C129.141 12.3945 126.874 12.9549 125.186 14.6441V0.00952148H118.684V39.9745H125.186V25.0597C125.186 18.8712 129.422 18.3028 131.118 18.3028C135.073 18.3028 134.791 21.9614 134.791 23.9308V39.6943H141.294V24.2191C141.286 20.5604 140.442 17.182 138.464 15.2125Z" fill="#17313B"/>
<path d="M104.554 30.6957C107.053 30.6957 109.079 28.6777 109.079 26.1884C109.079 23.6991 107.053 21.6812 104.554 21.6812C102.054 21.6812 100.028 23.6991 100.028 26.1884C100.028 28.6777 102.054 30.6957 104.554 30.6957Z" fill="#EF4335"/>
<path d="M27.6897 30.1271C25.4311 32.3768 22.0392 33.7858 18.366 33.7858C11.3009 33.7858 6.2131 28.1577 6.2131 20.5602C6.2131 12.9627 11.3009 7.33463 18.6473 7.33463C22.0392 7.33463 25.4311 8.74365 27.971 11.2735L28.815 12.1141L33.0508 7.89503L32.2068 7.05443C28.5336 3.39578 23.7271 1.42635 18.6393 1.42635C7.90904 1.13814 0 9.58426 0 20.5602C0 31.5362 7.90904 39.9743 18.366 39.9743C23.4538 39.9743 28.5417 38.0048 31.9336 34.3462L32.7775 33.5056L28.5417 29.2865L27.6897 30.1271Z" fill="#17313B"/>
</svg>
