<svg width="112" height="40" viewBox="0 0 112 40" fill="none" xmlns="http://www.w3.org/2000/svg">
<g clip-path="url(#clip0_5038_446)">
<path d="M69.0004 0.610638C69.8724 0.527937 70.6759 0.609384 71.4324 1.07909C72.1758 1.54099 72.8078 2.38195 72.9951 3.2462C73.1134 3.79129 73.0843 4.41022 73.092 4.96828L73.0989 8.01964L73.0947 17.648L73.0934 29.8419C73.0927 31.8823 73.2185 34.0272 73.0532 36.0564C73.0069 36.6268 72.8174 37.1672 72.5056 37.6455C71.9309 38.5255 71.1559 38.9823 70.1428 39.1978C69.7756 39.2333 69.378 39.2417 69.0115 39.195C68.1956 39.0911 67.3416 38.5813 66.8299 37.9363C66.3223 37.2969 66.1017 36.5849 66.0312 35.7774C65.9683 35.0585 66.0029 34.3082 66.0043 33.5858L66.0056 29.8524L66.0063 17.9051L65.9987 8.44131L65.9966 5.5884C65.9973 5.00447 65.9745 4.39997 66.0492 3.82002L66.0658 3.6945C66.1391 3.12828 66.332 2.58891 66.6515 2.11571C67.2254 1.26646 68.0096 0.805955 69.0004 0.610638Z" fill="#00B48D"/>
<path d="M93.6576 0.0123779L94.0151 0.000243893C97.6288 -0.0221398 101.245 1.49737 103.79 4.07777C105.881 6.19837 107.394 9.06976 107.756 12.0558C107.916 13.3873 107.872 14.7671 107.866 16.1076L110.123 16.1204C110.347 16.1226 110.727 16.0787 110.933 16.1508C111.089 16.2059 111.196 16.3141 111.311 16.4286C111.347 16.6507 111.378 16.7475 111.24 16.9352C110.958 17.3175 110.562 17.651 110.22 17.9769L108.702 19.4515C107.573 20.5557 106.478 21.797 105.26 22.7962C105.018 22.9949 104.715 23.2397 104.401 23.2906C104.149 23.3317 103.991 23.2216 103.802 23.0737C103.085 22.5152 102.478 21.8534 101.832 21.2154L99.2667 18.7196C98.7158 18.18 97.9849 17.6304 97.5258 17.0173C97.3612 16.7978 97.3723 16.6557 97.4165 16.3945C97.5396 16.273 97.5949 16.2052 97.7705 16.1661C98.108 16.0907 98.5423 16.1329 98.8907 16.1287L100.852 16.0668C100.888 14.7574 100.856 13.5528 100.616 12.2589C100.44 11.6846 100.211 11.1418 99.907 10.6246C98.953 9.00456 97.3909 7.77227 95.5682 7.32146C93.9059 6.91026 92.016 7.14086 90.5473 8.06082C88.7674 9.17575 87.6928 10.7156 87.1853 12.7514C86.9799 13.5751 87.0484 14.5329 87.0291 15.3826C87.0228 15.6324 87.0532 15.9476 87.0069 16.1903C86.9724 16.3719 86.8001 16.5399 86.6376 16.6194C86.4918 16.6907 86.4095 16.6826 86.2739 16.6006C86.0374 16.4579 85.8058 16.1715 85.608 15.9745C84.9643 15.3355 84.4173 14.7515 83.5875 14.361C83.3358 14.4442 83.0585 14.526 82.829 14.6619C82.0012 15.153 81.3727 16.0714 80.5851 16.6455C80.388 16.6493 80.2884 16.6191 80.1121 16.5436C80.0118 16.412 79.9876 16.3389 79.98 16.1736C79.8403 13.1863 80.1812 10.2401 81.6001 7.56747C82.2273 6.38636 83.0011 5.37973 83.8848 4.38627C85.5873 2.47173 88.051 1.0345 90.5211 0.414656C91.5548 0.155256 92.5975 0.069418 93.6576 0.0123779Z" fill="#00B48D"/>
<path d="M83.3211 16.7011C83.5002 16.6579 83.5936 16.6561 83.7678 16.7255C84.3086 16.9412 90.2989 22.7259 90.5133 23.2726C90.4697 23.479 90.4455 23.5662 90.2989 23.7279C89.3101 23.9281 88.0945 23.8137 87.0766 23.8263C87.0129 25.7697 86.9701 27.6956 88.0543 29.402C89.2029 31.2108 90.7649 32.3293 92.8491 32.7672C94.6283 33.1409 96.3709 32.5692 97.8479 31.5769C99.7643 30.2896 100.723 28.1252 100.828 25.8603C100.861 25.1351 100.745 24.2955 100.886 23.5927C101.038 23.4392 101.139 23.3228 101.358 23.2747C102.349 23.7642 102.991 24.8897 103.889 25.5291C103.975 25.5904 104.285 25.8038 104.39 25.7948C104.753 25.7641 106.41 24.0724 106.819 23.7154C107.002 23.5557 107.228 23.3047 107.469 23.2642C107.599 23.3528 107.731 23.4427 107.822 23.5745C107.938 23.7426 108.005 24.3837 108.008 24.6152C108.018 25.459 107.93 26.2801 107.857 27.1197C107.756 28.2765 107.467 29.464 107.095 30.5595C106.385 32.4736 105.316 34.242 103.905 35.7085C101.223 38.4956 97.7634 39.9446 93.9333 39.9753C90.1474 40.0053 86.6568 38.4963 83.9829 35.8124C81.8406 33.6632 80.3615 30.6906 80.0455 27.6454C79.9148 26.3847 79.9626 25.0842 79.9612 23.8158C79.3914 23.8151 76.9324 23.935 76.5909 23.6924C76.5452 23.509 76.5141 23.3437 76.4989 23.1561C76.7949 22.7343 77.2042 22.3807 77.5714 22.0223L79.4502 20.1898C80.4936 19.173 81.5087 18.0387 82.6323 17.1185C82.8474 16.9419 83.0687 16.8169 83.3211 16.7011Z" fill="#007A5F"/>
<path d="M3.12051 0.55169L3.56438 0.5367L8.60262 0.522889L17.8174 0.518637L22.5677 0.518148C23.3519 0.518218 24.2206 0.442702 24.9916 0.556504C25.6762 0.657614 26.3329 0.99567 26.8291 1.47702C27.5152 2.14261 27.9326 3.07422 27.9372 4.04236C27.9412 4.92628 27.5976 5.91207 26.97 6.53742C26.5074 6.99848 25.9439 7.37544 25.3081 7.53861C24.5301 7.73832 23.5089 7.62013 22.6986 7.62257L17.4948 7.62836L17.5062 31.6459L17.5013 34.4553C17.4974 35.0927 17.5264 35.8067 17.3677 36.4259L17.3345 36.5514L17.1387 37.1818C16.844 37.9063 16.1178 38.6204 15.3943 38.907L15.2943 38.9446C14.8717 39.1085 14.477 39.1796 14.0239 39.1768C13.0262 39.1719 12.1612 38.8805 11.4609 38.1413C10.9793 37.633 10.6205 37.0277 10.5168 36.3234C10.3483 35.1805 10.431 33.9212 10.4296 32.765L10.4257 26.7207L10.4455 7.61476L5.25382 7.62055C4.4743 7.61664 3.61195 7.69328 2.84786 7.56839C2.36306 7.48918 1.90958 7.28382 1.50381 7.00796C0.711094 6.46887 0.185772 5.65378 0.0454694 4.69909C-0.105067 3.67488 0.115932 2.68428 0.742073 1.86138C1.34249 1.07223 2.16349 0.676718 3.12051 0.55169Z" fill="#00B48D"/>
<path d="M34.2816 0.615854C34.6614 0.577711 35.0919 0.563552 35.4696 0.617803C36.7166 0.796873 37.8109 1.83141 38.181 3.02821C38.3372 3.53306 38.2963 4.12096 38.3033 4.64485L38.3103 7.69364L38.3044 19.9713L38.3078 23.75C38.3103 25.0087 38.3 26.1962 38.5378 27.4395C38.7136 28.3593 39.161 29.2567 39.7157 30.0021C40.8976 31.5906 42.6409 32.5794 44.5821 32.8332C46.3318 33.0619 48.1659 32.3772 49.536 31.3012C50.6955 30.3905 51.5671 29.0461 51.9328 27.6069C52.1654 26.6906 52.1496 25.7639 52.1489 24.8267L52.1428 21.8331L52.13 9.37375L52.147 5.83795C52.1512 5.129 52.1103 4.37757 52.2029 3.67594L52.2199 3.55816C52.3228 2.80967 52.649 2.15064 53.1796 1.61657C53.902 0.889337 54.7779 0.581124 55.7915 0.588237C56.7106 0.594652 57.5826 0.960117 58.2249 1.63351C58.6516 2.08028 58.9704 2.65452 59.117 3.25664C59.2988 4.00012 59.2124 4.94839 59.2145 5.72136L59.1965 10.6403L59.1978 21.6546C59.1985 23.8574 59.386 26.268 58.9904 28.4367C58.6364 30.3801 57.8778 32.184 56.7874 33.8234C54.7201 36.9306 51.436 39.0609 47.7967 39.7624C44.0423 40.4855 40.2176 39.5232 37.0974 37.3406C34.16 35.2864 32.0617 31.8145 31.453 28.2728C31.0944 26.1871 31.2137 23.9941 31.2114 21.8826L31.2181 12.691L31.2268 6.96335C31.2271 5.88265 31.1553 4.73509 31.2876 3.6638C31.3585 3.08964 31.5852 2.49985 31.9262 2.03251C32.5205 1.21833 33.2997 0.773586 34.2816 0.615854Z" fill="#00B48D"/>
</g>
<defs>
<clipPath id="clip0_5038_446">
<rect width="112" height="40" fill="white"/>
</clipPath>
</defs>
</svg>
