<svg width="132" height="40" viewBox="0 0 132 40" fill="none" xmlns="http://www.w3.org/2000/svg">
<path d="M0 28.294V0.58606H4.8758V28.294H0Z" fill="black"/>
<path d="M17.3568 8.19287C11.1054 8.19287 6.7793 12.991 6.7793 18.4828C6.7793 24.6121 11.4856 28.8345 17.4054 28.8345C23.0236 28.8345 27.8989 24.6898 27.8989 18.4696C27.8989 13.239 23.859 8.19287 17.3568 8.19287ZM17.2994 12.8882C20.5709 12.8882 22.979 15.4303 22.979 18.5005C22.979 21.7557 20.324 24.1304 17.3877 24.1304C13.9181 24.1304 11.7346 21.3853 11.7346 18.5093C11.7346 15.3568 14.1998 12.8882 17.2994 12.8882Z" fill="black"/>
<path d="M40.1494 8.19287C33.898 8.19287 29.5719 12.991 29.5719 18.4828C29.5719 24.6121 34.2782 28.8345 40.198 28.8345C45.8162 28.8345 50.6915 24.6898 50.6915 18.4696C50.6915 14.8067 49.1025 13.1814 49.1025 13.1814L50.4539 12.7188V8.7686H43.5289C43.5289 8.7686 42.0276 8.19287 40.1494 8.19287ZM40.092 12.8882C43.3635 12.8882 45.7716 15.4303 45.7716 18.5005C45.7716 21.7557 43.1166 24.1304 40.1803 24.1304C36.7107 24.1304 34.5272 21.3853 34.5272 18.5093C34.5272 15.3568 36.9924 12.8882 40.092 12.8882Z" fill="black"/>
<path d="M45.7372 29.6483C45.7372 32.9036 43.0822 35.2959 40.1459 35.2959C36.6763 35.2959 34.4839 32.5243 34.4839 29.6483H29.5375C29.5375 35.7776 34.2437 40 40.1635 40C45.7818 40 50.6571 35.8685 50.6571 29.6483H45.7372Z" fill="black"/>
<path d="M52.6445 28.294V8.76868H57.5203V28.294H52.6445Z" fill="black"/>
<path d="M62.2548 28.294V13.1421H59.6403V8.76867H62.2548V2.77283H67.1306V8.76867H69.8159V13.1421H67.1306V28.294H62.2548Z" fill="black"/>
<path d="M58.301 3.22306C58.301 5.00311 56.8554 6.44612 55.0722 6.44612C53.2891 6.44612 51.8435 5.00311 51.8435 3.22306C51.8435 1.44301 53.2891 0 55.0722 0C56.8554 0 58.301 1.44301 58.301 3.22306Z" fill="black"/>
<path d="M80.7776 8.17969C74.4965 8.17969 70.4474 12.9803 70.4474 18.6592C70.4474 24.5278 74.51 28.8478 80.8791 28.8478C86.8205 28.8478 89.743 25.1444 89.743 25.1444L86.4837 21.8864C86.4837 21.8864 84.0227 24.536 80.941 24.536C78.372 24.536 76.318 23.1047 75.6014 20.48H90.7941V19.1398C90.7941 13.792 87.6934 8.17969 80.7776 8.17969ZM80.623 12.465C82.8691 12.465 85.1661 13.6645 85.6799 16.5298H75.4689C75.8734 14.5157 77.6385 12.465 80.623 12.465Z" fill="black"/>
<path d="M102.99 28.8503C96.6912 28.8503 92.3993 24.0614 92.3993 18.4149C92.3993 12.5877 97.2499 8.17603 102.97 8.17603C108.499 8.17603 111.33 12.0726 111.33 12.0726L107.928 15.4525C107.928 15.4525 105.958 12.9114 102.947 12.9114C99.609 12.9114 97.3269 15.4601 97.3269 18.4896C97.3269 21.6885 99.7545 24.1427 102.909 24.1427C105.969 24.1427 107.924 21.6056 107.924 21.6056L111.359 24.9838C111.359 24.9838 108.556 28.8503 102.99 28.8503Z" fill="black"/>
<path d="M113.133 28.3082V0.515625H118.009V10.7267C118.009 10.7267 119.876 8.17611 123.937 8.17611C129.042 8.17611 132 11.9647 132 16.8102V28.3082H127.124V17.5459C127.124 14.2906 125.094 12.94 122.845 12.94C120.282 12.94 118.009 14.3958 118.009 17.7978V28.3082H113.133Z" fill="black"/>
</svg>
