<svg width="129" height="48" viewBox="0 0 129 48" fill="none" xmlns="http://www.w3.org/2000/svg">
<path d="M96.75 16.9479C99.3618 16.9479 101.633 15.4693 102.769 13.1944H99.9296C99.1347 14.1043 97.9991 14.5593 96.8636 14.5593C94.9331 14.5593 93.2298 13.1944 92.7755 11.3745V11.2607H103.563C103.563 10.9195 103.563 10.5783 103.563 10.3508C103.563 6.71098 100.611 3.63989 96.8636 3.63989C93.1162 3.63989 90.1638 6.48349 90.1638 10.237C90.1638 13.9906 93.1162 16.9479 96.75 16.9479ZM92.7755 8.98586C93.3433 7.16596 94.9331 6.02852 96.8636 6.02852C98.794 6.02852 100.384 7.2797 100.952 8.98586L101.065 9.3271H92.7755V8.98586Z" fill="#232426"/>
<path d="M8.51674 8.41711C10.7745 8.41711 12.6048 6.58381 12.6048 4.32233C12.6048 2.06084 10.7745 0.227539 8.51674 0.227539C6.25898 0.227539 4.42871 2.06084 4.42871 4.32233C4.42871 6.58381 6.25898 8.41711 8.51674 8.41711Z" fill="#5DC370"/>
<path d="M12.6048 21.6114H3.86094C2.1576 21.6114 0.794922 20.2465 0.794922 18.5403C0.794922 16.8342 2.1576 15.4692 3.86094 15.4692H12.6048C14.3081 15.4692 15.6708 16.8342 15.6708 18.5403C15.6708 20.2465 14.3081 21.6114 12.6048 21.6114Z" fill="#5DC370"/>
<path d="M12.6048 41.5167H3.86094C2.1576 41.5167 0.794922 40.1518 0.794922 38.4456C0.794922 36.7394 2.1576 35.3745 3.86094 35.3745H12.6048C14.3081 35.3745 15.6708 36.7394 15.6708 38.4456C15.6708 40.1518 14.3081 41.5167 12.6048 41.5167Z" fill="#5DC370"/>
<path d="M17.2605 31.5072H8.5167C6.81336 31.5072 5.45068 30.1422 5.45068 28.4361C5.45068 26.7299 6.81336 25.365 8.5167 25.365H17.2605C18.9639 25.365 20.3266 26.7299 20.3266 28.4361C20.3266 30.1422 18.9639 31.5072 17.2605 31.5072Z" fill="#5DC370"/>
<path d="M43.3786 16.7205V0.341309H40.4261V12.3982L32.4772 0.341309H29.4111V16.7205H32.3636V4.66358L40.3125 16.7205H43.3786Z" fill="#232426"/>
<path d="M65.8627 12.8532V6.14228H68.8152V3.8674H65.8627V0.455078H62.9102V3.75366H61.3204V6.02854H62.9102V12.7394C62.9102 15.3556 64.2729 16.7205 66.9983 16.7205H68.9287V14.3319H67.566C66.9983 14.3319 66.544 14.2181 66.3169 13.9906C65.9762 13.7631 65.8627 13.3082 65.8627 12.8532Z" fill="#232426"/>
<path d="M87.6655 2.61619V0.341309H76.537V2.72993H84.2588L76.537 14.4456V16.7205H87.6655V14.3318H79.8301L87.6655 2.61619Z" fill="#232426"/>
<path d="M112.875 6.71096V3.52612C112.08 3.52612 111.399 3.75361 110.831 4.09484C110.15 4.54982 109.582 5.11854 109.241 5.68726L108.787 6.36972V3.75361H105.835V16.7204H108.787V10.237C108.787 8.98584 109.128 7.96214 109.695 7.50717C110.263 6.93845 111.172 6.71096 112.194 6.71096H112.875Z" fill="#232426"/>
<path d="M64.1593 22.7489C63.2509 22.7489 62.456 23.5451 62.456 24.4551C62.456 25.365 63.2509 26.1612 64.1593 26.1612C65.0678 26.1612 65.8627 25.365 65.8627 24.4551C65.8627 23.5451 65.0678 22.7489 64.1593 22.7489Z" fill="#232426"/>
<path d="M121.505 3.52612C117.872 3.52612 114.805 6.48347 114.805 10.237C114.805 13.8768 117.758 16.9479 121.505 16.9479C125.253 16.9479 128.205 13.9906 128.205 10.237C128.205 6.59721 125.253 3.52612 121.505 3.52612ZM121.505 14.5593C119.121 14.5593 117.19 12.6256 117.19 10.237C117.19 7.8484 119.121 5.91475 121.505 5.91475C123.89 5.91475 125.82 7.8484 125.82 10.237C125.82 12.6256 123.89 14.5593 121.505 14.5593Z" fill="#232426"/>
<path d="M52.463 16.9479C55.0748 16.9479 57.346 15.4693 58.4815 13.1944H55.6426C54.8477 14.1043 53.7122 14.5593 52.5766 14.5593C50.6461 14.5593 48.9428 13.1944 48.4886 11.3745V11.2607H59.2764C59.2764 10.9195 59.2764 10.5783 59.2764 10.3508C59.2764 6.71098 56.3239 3.63989 52.5766 3.63989C48.8292 3.63989 45.8768 6.48349 45.8768 10.237C45.8768 13.9906 48.8292 16.9479 52.463 16.9479ZM48.4886 8.98586C49.0563 7.16596 50.6461 6.02852 52.5766 6.02852C54.507 6.02852 56.0968 7.2797 56.6646 8.98586L56.7782 9.3271H48.4886V8.98586Z" fill="#232426"/>
<path d="M32.3636 24.7963H29.4111V41.1754H32.3636V24.7963Z" fill="#232426"/>
<path d="M41.9023 28.0948C41.1074 28.0948 40.3126 28.2086 39.7448 28.5498C39.0634 28.8911 38.4956 29.346 38.155 29.801L37.7008 30.3697V28.3223H34.7483V41.2892H37.7008V34.1233C37.7008 32.9858 38.0414 32.0759 38.6092 31.5072C39.177 30.9385 39.9719 30.5972 40.9939 30.5972C42.0159 30.5972 42.8108 30.9385 43.3786 31.5072C43.9464 32.0759 44.287 32.9858 44.287 34.1233V41.2892H47.2395V33.6683C47.2395 31.9621 46.7853 30.5972 45.8768 29.5735C44.7413 28.5498 43.4921 28.0948 41.9023 28.0948Z" fill="#232426"/>
<path d="M58.0273 34.4645C57.4595 34.2371 56.6646 34.0096 55.6426 33.7821C54.6206 33.5546 53.9393 33.3271 53.485 33.0996C52.9172 32.8721 52.6901 32.4172 52.6901 31.8484C52.6901 31.3935 52.9173 30.9385 53.2579 30.711C53.5986 30.4835 54.1664 30.3698 54.8477 30.3698C55.529 30.3698 56.0968 30.5972 56.5511 30.9385C56.8917 31.2797 57.2324 31.6209 57.2324 32.1897H60.0713C59.9577 31.0522 59.39 30.0285 58.5951 29.3461C57.6866 28.5499 56.4375 28.2086 54.9613 28.2086C53.9393 28.2086 53.0308 28.4361 52.2359 28.7773C51.441 29.1186 50.8732 29.5735 50.5326 30.1423C50.1919 30.711 49.9648 31.3935 49.9648 32.0759C49.9648 32.8721 50.1919 33.5546 50.6461 34.1233C51.1003 34.5783 51.5546 35.0333 52.2359 35.2608C52.9172 35.4882 53.7121 35.7157 54.6206 35.9432C55.6426 36.1707 56.3239 36.3982 56.7782 36.6257C57.3459 36.8532 57.5731 37.3081 57.5731 37.7631C57.5731 38.2181 57.3459 38.6731 56.8917 38.9006C56.4375 39.1281 55.9833 39.3555 55.3019 39.3555C54.6206 39.3555 53.9393 39.128 53.485 38.7868C53.0308 38.4456 52.8037 37.9906 52.6901 37.5356H49.7377C49.8512 38.2181 50.0783 38.9006 50.5326 39.4693C50.9868 40.1517 51.6681 40.6067 52.463 40.948C53.2579 41.2892 54.2799 41.5167 55.3019 41.5167C56.3239 41.5167 57.2324 41.4029 58.0273 41.0617C58.8222 40.7205 59.39 40.2655 59.7306 39.6968C60.0713 39.1281 60.2984 38.4456 60.2984 37.7631C60.2984 36.9669 60.0713 36.2844 59.6171 35.8295C59.1628 35.147 58.5951 34.8058 58.0273 34.4645Z" fill="#232426"/>
<path d="M65.6356 28.3223H62.6831V41.2891H65.6356V28.3223Z" fill="#232426"/>
<path d="M79.0353 28.3223V29.5735L78.6946 29.346C77.559 28.5498 76.1964 28.0948 74.8337 28.0948C71.1999 28.0948 68.1339 31.0522 68.1339 34.8057C68.1339 38.5593 71.0863 41.5166 74.8337 41.5166C76.1964 41.5166 77.559 41.0617 78.6946 40.2655L79.0353 40.038V41.7441C79.0353 42.9953 78.6946 43.9053 78.0132 44.5877C77.3319 45.2702 76.537 45.4977 75.515 45.4977C74.6066 45.4977 73.9252 45.2702 73.2439 44.929C72.6761 44.5877 72.2219 44.1328 72.1083 43.4503H69.1559C69.383 44.8152 69.9507 45.8389 71.0863 46.6351C72.2219 47.5451 73.8117 47.8863 75.6286 47.8863C76.9912 47.8863 78.1268 47.6588 79.1488 47.0901C80.0573 46.5214 80.8522 45.8389 81.3064 44.8152C81.7606 43.9053 81.9877 42.8816 81.9877 41.6304V41.2892V28.2086H79.0353V28.3223ZM74.8337 39.0143C72.449 39.0143 70.5185 37.0806 70.5185 34.692C70.5185 32.3034 72.449 30.3697 74.8337 30.3697C77.1048 30.3697 78.9217 32.1896 79.1488 34.3508V34.8057C78.9217 37.1944 77.1048 39.0143 74.8337 39.0143Z" fill="#232426"/>
<path d="M94.2518 28.7773C93.4569 28.3223 92.662 28.0949 91.64 28.0949C90.8451 28.0949 90.0502 28.2086 89.3689 28.5498C88.6875 28.8911 88.1198 29.346 87.6655 29.801L87.2113 30.3697V23.7726H84.2589V41.1754H87.2113V34.1233C87.2113 32.9859 87.552 32.0759 88.1198 31.5072C88.6875 30.9385 89.4824 30.5972 90.5044 30.5972C91.5265 30.5972 92.3214 30.9385 92.8891 31.5072C93.4569 32.0759 93.7976 32.9859 93.7976 34.1233V41.2892H96.75V33.6683C96.75 32.5309 96.5229 31.5072 96.0687 30.711C95.6145 29.801 95.0467 29.1186 94.2518 28.7773Z" fill="#232426"/>
<path d="M103.45 24.7963H100.497V28.2086H98.9076V30.4835H100.497V37.1944C100.497 39.8105 101.86 41.1754 104.585 41.1754H106.516V38.7868H105.153C104.585 38.7868 104.131 38.673 103.904 38.4456C103.677 38.2181 103.45 37.7631 103.45 37.3081V30.5972H106.402V28.3223H103.45V24.7963Z" fill="#232426"/>
<path d="M117.531 34.4645C116.963 34.2371 116.168 34.0096 115.146 33.7821C114.124 33.5546 113.443 33.3271 112.989 33.0996C112.421 32.8721 112.194 32.4172 112.194 31.8484C112.194 31.3935 112.421 30.9385 112.761 30.711C113.102 30.4835 113.67 30.3698 114.351 30.3698C115.033 30.3698 115.6 30.5972 116.055 30.9385C116.395 31.2797 116.736 31.6209 116.736 32.1897H119.575C119.461 31.0522 118.894 30.0285 118.099 29.3461C117.19 28.5499 115.941 28.2086 114.465 28.2086C113.443 28.2086 112.534 28.4361 111.739 28.7773C110.945 29.1186 110.377 29.5735 110.036 30.1423C109.695 30.711 109.468 31.3935 109.468 32.0759C109.468 32.8721 109.695 33.5546 110.15 34.1233C110.604 34.5783 111.058 35.0333 111.739 35.2608C112.421 35.4882 113.216 35.7157 114.124 35.9432C115.146 36.1707 115.827 36.3982 116.282 36.6257C116.849 36.8532 117.077 37.3081 117.077 37.7631C117.077 38.2181 116.849 38.6731 116.395 38.9006C115.941 39.1281 115.487 39.3555 114.805 39.3555C114.124 39.3555 113.443 39.128 112.989 38.7868C112.534 38.4456 112.307 37.9906 112.194 37.5356H109.241C109.355 38.2181 109.582 38.9006 110.036 39.4693C110.49 40.1517 111.172 40.6067 111.967 40.948C112.761 41.2892 113.783 41.5167 114.805 41.5167C115.827 41.5167 116.736 41.4029 117.531 41.0617C118.326 40.7205 118.894 40.2655 119.234 39.6968C119.575 39.1281 119.802 38.4456 119.802 37.7631C119.802 36.9669 119.575 36.2844 119.121 35.8295C118.666 35.147 118.099 34.8058 117.531 34.4645Z" fill="#232426"/>
</svg>
