<svg width="116" height="48" viewBox="0 0 116 48" fill="none" xmlns="http://www.w3.org/2000/svg">
<g clip-path="url(#clip0_5032_538)">
<path d="M34.6954 24.1099C37.6249 24.1099 39.9033 25.1482 41.5239 27.2317C43.1513 29.3289 43.643 31.8525 43.0128 34.8093C42.3826 37.7523 40.8036 40.2759 38.2828 42.3663C35.762 44.4498 33.0403 45.4881 30.1109 45.4881C27.1814 45.4881 24.8891 44.4498 23.2617 42.3663C21.6342 40.269 21.1425 37.7523 21.7727 34.8093C22.4029 31.8525 23.9819 29.3289 26.5027 27.2317C29.0236 25.1482 31.7522 24.1099 34.6954 24.1099ZM31.3643 39.5952C32.6525 39.5952 33.8506 39.1345 34.9586 38.2062C36.0874 37.2572 36.7938 36.1227 37.0778 34.8024C37.3479 33.4684 37.1332 32.3338 36.4268 31.3849C35.7204 30.4635 34.7231 29.9959 33.4281 29.9959C32.1331 29.9959 30.935 30.4566 29.82 31.3849C28.6912 32.3338 27.9917 33.4753 27.7147 34.8024C27.4307 36.1227 27.6385 37.2572 28.3449 38.2062C29.0651 39.1345 30.0693 39.5952 31.3643 39.5952Z" fill="black"/>
<path d="M55.4785 38.8732L58.304 37.2847L60.4647 42.2356L57.6392 43.8447C55.6793 44.9449 53.664 45.4881 51.5933 45.4881C48.6639 45.4881 46.3785 44.4498 44.7441 42.3663C43.1167 40.269 42.625 37.7523 43.2552 34.8093C43.8854 31.8525 45.4644 29.3289 47.9852 27.2317C50.513 25.1482 53.2485 24.1099 56.1779 24.1099C58.2001 24.1099 59.9592 24.6462 61.4481 25.7189L63.6296 27.3073L59.4052 32.2788L57.2098 30.7042C56.5658 30.2366 55.804 30.0028 54.9175 30.0028C53.6294 30.0028 52.4244 30.4635 51.3094 31.3918C50.1806 32.3407 49.4811 33.4822 49.2041 34.8093C48.9201 36.1295 49.1279 37.2641 49.8343 38.213C50.5545 39.1345 51.5587 39.602 52.8468 39.602C53.7264 39.5952 54.6059 39.3545 55.4785 38.8732Z" fill="black"/>
<path d="M71.6977 45.3095L67.3624 39.2859L66.0812 45.2888H60.2501L66.0743 18.0864H71.8985L69.2946 30.2092L75.9776 24.3163H84.1149L71.9401 34.7613L79.835 45.3163H71.6977V45.3095Z" fill="black"/>
<path d="M102.162 36.5284H87.1621C87.2452 37.1472 87.4876 37.7042 87.8684 38.213C88.5887 39.1345 89.5929 39.602 90.881 39.602C92.1691 39.602 93.3672 39.1413 94.4752 38.213C94.6345 38.0893 94.773 37.9655 94.8838 37.8417L99.4615 40.7779C98.9629 41.3349 98.4158 41.8643 97.8064 42.3663C95.2855 44.4498 92.5638 45.4881 89.6344 45.4881C86.705 45.4881 84.4127 44.4498 82.7852 42.3663C81.1578 40.269 80.6661 37.7523 81.2963 34.8093C81.9265 31.8525 83.5055 29.3289 86.0263 27.2317C88.5471 25.1482 91.2757 24.1099 94.219 24.1099C97.1623 24.1099 99.4269 25.1482 101.047 27.2317C102.675 29.3289 103.167 31.8525 102.536 34.8093L102.162 36.5284ZM96.5944 32.6983C96.4559 32.2307 96.2412 31.7906 95.9434 31.3849C95.237 30.4635 94.2398 29.9959 92.9447 29.9959C91.6497 29.9959 90.4516 30.4566 89.3366 31.3849C88.8657 31.7906 88.464 32.2307 88.1247 32.6983H96.5944Z" fill="black"/>
<path d="M113.375 24.2545H115.979L114.732 30.0581H112.128L108.873 45.289H103.028L106.283 30.0581H103.679L104.926 24.2545H107.53L108.852 18.0659H114.697L113.375 24.2545Z" fill="black"/>
<path d="M13.2545 7.04323C13.2337 7.15325 13.1714 7.24264 13.0813 7.30452L11.9733 7.99215C11.2877 8.41848 10.8998 9.19549 10.976 10.0206L11.1422 11.8153C11.1561 11.9391 11.2877 12.0079 11.3915 11.9391L11.5924 11.8085C12.4581 11.2446 13.5384 11.0865 14.5495 11.3753L15.0481 11.5197C16.1285 11.8291 17.0219 12.613 17.472 13.6513L17.6521 14.0639C17.7006 14.1739 17.8529 14.2014 17.9222 14.1051L19.0856 12.6405C19.6674 11.9047 19.7089 10.8664 19.1757 10.0619L19.0095 9.81435C18.9264 9.69058 18.9194 9.5393 18.9887 9.40865C19.4596 8.5285 21.1078 4.85658 18.7809 0.00195312C18.7809 0.00195312 14.0924 2.38801 13.2545 7.04323ZM17.9222 5.11788C17.7421 5.77112 17.2366 6.19745 16.8072 6.0668C16.3778 5.93615 16.1701 5.29666 16.357 4.63654C16.5371 3.9833 17.0427 3.55697 17.472 3.68762C17.9014 3.81827 18.1092 4.46464 17.9222 5.11788Z" fill="black"/>
<path d="M13.0329 23.8695H16.6271C17.8945 23.8695 18.3931 24.6396 18.1369 26.1799C17.9637 27.0669 17.6729 27.7202 17.2643 28.1465C16.8557 28.5728 16.364 28.786 15.7961 28.786H12.0841L10.7198 35.8548L14.1201 45.289H21.2464L16.9665 33.9569C18.407 33.5375 19.6466 32.8842 20.6923 31.9972C22.4652 30.505 23.5733 28.4903 24.0027 25.953C24.4112 23.6769 24.0373 21.786 22.8877 20.2801C21.7311 18.8017 20.0621 18.0659 17.8806 18.0659H14.0093L13.0329 23.8695Z" fill="black"/>
<path d="M7.40251 46.1414L14.4872 13.0873C14.5426 12.8604 14.2171 12.7572 14.127 12.9773L0.0131367 47.6954C-0.0491916 47.8536 0.117018 48.0049 0.269376 47.9292L7.29863 46.2652C7.35403 46.2445 7.38866 46.1964 7.40251 46.1414Z" fill="black"/>
</g>
<defs>
<clipPath id="clip0_5032_538">
<rect width="116" height="48" fill="white"/>
</clipPath>
</defs>
</svg>
