<svg width="120" height="120" viewBox="0 0 120 120" fill="none" xmlns="http://www.w3.org/2000/svg">
<path d="M45.875 108.963C41.3352 108.963 39.2656 99.8789 39.2656 91.4367C39.2656 82.9945 41.3352 73.9102 45.875 73.9102C50.4148 73.9102 52.4844 82.9945 52.4844 91.4367C52.4844 99.8789 50.4172 108.963 45.875 108.963ZM45.875 77.1914C45.657 77.2453 44.7219 78.0117 43.8406 80.9766C43.0063 83.7891 42.5469 87.5062 42.5469 91.4367C42.5469 95.3672 43.0156 99.082 43.8406 101.899C44.7313 104.895 45.6781 105.649 45.882 105.684C46.0742 105.647 47.0211 104.895 47.9094 101.899C48.7438 99.0867 49.2031 95.3672 49.2031 91.4367C49.2031 87.5062 48.7344 83.7914 47.9094 80.9766C47.0305 78.0117 46.0953 77.2453 45.875 77.1914Z" fill="black"/>
<path d="M43.9555 107.738C43.6421 107.737 43.3355 107.647 43.0719 107.478L27.4953 97.5002C27.2632 97.3518 27.0721 97.1474 26.9398 96.9057C26.8075 96.664 26.7382 96.3929 26.7383 96.1174V86.7424C26.7382 86.4669 26.8075 86.1958 26.9398 85.9541C27.0721 85.7124 27.2632 85.508 27.4953 85.3596L43.0719 75.3893C43.3955 75.1803 43.7824 75.0919 44.1647 75.1396C44.547 75.1872 44.9003 75.3679 45.1628 75.6499C45.4253 75.9319 45.5801 76.2973 45.6002 76.682C45.6203 77.0668 45.5043 77.4463 45.2727 77.7541C43.9156 79.5705 42.5469 84.5041 42.5469 91.4299C42.5469 98.3557 43.9156 103.292 45.2727 105.108C45.455 105.352 45.5658 105.642 45.5927 105.946C45.6195 106.249 45.5613 106.554 45.4245 106.826C45.2878 107.099 45.0779 107.327 44.8184 107.487C44.559 107.647 44.2602 107.731 43.9555 107.731V107.738ZM30.0195 95.2291L40.4352 101.895C39.6875 98.9791 39.2633 95.3487 39.2633 91.4369C39.2633 87.5252 39.6852 83.8948 40.4352 80.9815L30.0195 87.6565V95.2291Z" fill="black"/>
<path d="M28.3805 97.7676H20.4727C18.7943 97.7676 17.1847 97.1009 15.998 95.9141C14.8112 94.7274 14.1445 93.1178 14.1445 91.4395C14.1445 89.7611 14.8112 88.1515 15.998 86.9648C17.1847 85.778 18.7943 85.1113 20.4727 85.1113H28.3805C28.8156 85.1113 29.2329 85.2842 29.5406 85.5919C29.8482 85.8995 30.0211 86.3168 30.0211 86.752V96.127C30.0211 96.5621 29.8482 96.9794 29.5406 97.287C29.2329 97.5947 28.8156 97.7676 28.3805 97.7676ZM20.4727 88.3926C19.6646 88.3926 18.8896 88.7136 18.3182 89.285C17.7468 89.8564 17.4258 90.6314 17.4258 91.4395C17.4258 92.2475 17.7468 93.0225 18.3182 93.5939C18.8896 94.1653 19.6646 94.4863 20.4727 94.4863H26.7398V88.3926H20.4727Z" fill="black"/>
<path d="M28.3805 114.375H20.4727C20.0375 114.375 19.6202 114.203 19.3126 113.895C19.0049 113.587 18.832 113.17 18.832 112.735V96.127C18.832 95.6918 19.0049 95.2745 19.3126 94.9669C19.6202 94.6592 20.0375 94.4863 20.4727 94.4863H28.3805C28.8156 94.4863 29.2329 94.6592 29.5406 94.9669C29.8482 95.2745 30.0211 95.6918 30.0211 96.127V112.735C30.0211 113.17 29.8482 113.587 29.5406 113.895C29.2329 114.203 28.8156 114.375 28.3805 114.375ZM22.1133 111.094H26.7398V97.7676H22.1133V111.094Z" fill="black"/>
<path d="M80.8133 64.786C74.9627 64.7864 69.2434 63.0519 64.3786 59.8019C59.5138 56.5518 55.7221 51.9321 53.4828 46.5271C51.2436 41.122 50.6575 35.1743 51.7986 29.4361C52.9397 23.6979 55.7568 18.4269 59.8936 14.2898C64.0304 10.1526 69.3011 7.33512 75.0392 6.19357C80.7773 5.05201 86.7251 5.63766 92.1304 7.87647C97.5356 10.1153 102.156 13.9067 105.406 18.7712C108.656 23.6357 110.391 29.3549 110.391 35.2055C110.382 43.0474 107.263 50.5656 101.718 56.1109C96.1732 61.6563 88.6553 64.776 80.8133 64.786ZM80.8133 8.90626C75.6117 8.9058 70.5268 10.4478 66.2016 13.3373C61.8764 16.2269 58.5052 20.3341 56.5143 25.1396C54.5234 29.9451 54.0023 35.2331 55.0168 40.3348C56.0313 45.4365 58.5358 50.1228 62.2138 53.801C65.8917 57.4793 70.5778 59.9842 75.6794 60.9992C80.781 62.0141 86.069 61.4935 90.8747 59.503C95.6804 57.5126 99.7879 54.1417 102.678 49.8168C105.568 45.4919 107.11 40.4071 107.11 35.2055C107.102 28.2334 104.329 21.5491 99.3992 16.6189C94.4694 11.6886 87.7854 8.91495 80.8133 8.90626Z" fill="black"/>
<path d="M80.8117 56.2504C76.65 56.2504 72.5817 55.0163 69.1213 52.7042C65.6609 50.392 62.9639 47.1057 61.3713 43.2607C59.7787 39.4158 59.3619 35.1849 60.1739 31.1031C60.9858 27.0213 62.9899 23.2719 65.9327 20.3291C68.8755 17.3863 72.6248 15.3823 76.7066 14.5703C80.7884 13.7584 85.0193 14.1751 88.8642 15.7678C92.7092 17.3604 95.9955 20.0574 98.3077 23.5178C100.62 26.9782 101.854 31.0465 101.854 35.2082C101.848 40.787 99.6288 46.1356 95.684 50.0804C91.7391 54.0253 86.3906 56.2442 80.8117 56.2504ZM80.8117 17.4473C77.2989 17.4473 73.8651 18.4889 70.9443 20.4405C68.0235 22.3921 65.747 25.166 64.4028 28.4114C63.0585 31.6568 62.7068 35.2279 63.3921 38.6732C64.0774 42.1185 65.7689 45.2832 68.2529 47.7671C70.7368 50.251 73.9015 51.9426 77.3467 52.6279C80.792 53.3132 84.3632 52.9615 87.6085 51.6172C90.8539 50.2729 93.6278 47.9964 95.5794 45.0757C97.531 42.1549 98.5727 38.721 98.5727 35.2082C98.5683 30.4988 96.6958 25.9836 93.366 22.6533C90.0361 19.323 85.5211 17.4499 80.8117 17.4449V17.4473Z" fill="black"/>
<path d="M80.8125 47.709C78.3395 47.709 75.922 46.9756 73.8657 45.6017C71.8095 44.2278 70.2068 42.2749 69.2604 39.9901C68.314 37.7053 68.0664 35.1912 68.5489 32.7657C69.0313 30.3402 70.2222 28.1122 71.9709 26.3635C73.7196 24.6148 75.9476 23.4239 78.3731 22.9414C80.7986 22.459 83.3128 22.7066 85.5975 23.653C87.8823 24.5994 89.8352 26.202 91.2091 28.2583C92.5831 30.3145 93.3164 32.732 93.3164 35.2051C93.3121 38.52 91.9933 41.6979 89.6493 44.0419C87.3053 46.3859 84.1274 47.7046 80.8125 47.709ZM80.8125 25.9824C78.9884 25.9824 77.2053 26.5233 75.6887 27.5367C74.172 28.5501 72.9899 29.9905 72.2919 31.6757C71.5938 33.3609 71.4112 35.2153 71.7671 37.0043C72.1229 38.7934 73.0013 40.4367 74.2911 41.7265C75.5809 43.0163 77.2242 43.8947 79.0133 44.2505C80.8023 44.6064 82.6566 44.4237 84.3419 43.7257C86.0271 43.0277 87.4675 41.8456 88.4809 40.3289C89.4943 38.8123 90.0352 37.0292 90.0352 35.2051C90.0321 32.76 89.0594 30.416 87.3305 28.6871C85.6016 26.9582 83.2576 25.9855 80.8125 25.9824Z" fill="black"/>
<path d="M80.8116 36.8464C80.6695 36.8483 80.5277 36.8318 80.3898 36.7972L24.1234 21.7151C23.7028 21.6026 23.3442 21.3277 23.1265 20.9508C22.9087 20.5739 22.8495 20.1259 22.962 19.7054C23.0745 19.2849 23.3495 18.9263 23.7264 18.7085C24.1033 18.4907 24.5513 18.4315 24.9718 18.5441L81.2358 33.6214C81.62 33.7247 81.9535 33.964 82.1744 34.2948C82.3953 34.6256 82.4884 35.0254 82.4365 35.4197C82.3847 35.8141 82.1913 36.1762 81.8924 36.4386C81.5935 36.7011 81.2094 36.846 80.8116 36.8464Z" fill="black"/>
<path d="M29.5329 27.5634C29.1709 27.5647 28.8188 27.4462 28.5312 27.2264C28.2436 27.0066 28.0367 26.6979 27.9429 26.3483C27.849 25.9988 27.8733 25.628 28.0121 25.2937C28.1509 24.9594 28.3964 24.6804 28.7102 24.5002L32.561 22.2783L30.3391 18.4275C30.2254 18.2408 30.1502 18.0332 30.1178 17.8169C30.0855 17.6007 30.0967 17.3801 30.1508 17.1683C30.2049 16.9564 30.3008 16.7575 30.4329 16.5832C30.565 16.409 30.7305 16.2629 30.9199 16.1535C31.1092 16.0442 31.3185 15.9738 31.5355 15.9464C31.7524 15.9191 31.9726 15.9355 32.1831 15.9945C32.3937 16.0535 32.5903 16.154 32.7615 16.29C32.9326 16.4261 33.0748 16.5951 33.1798 16.7869L36.2266 22.058C36.4441 22.4347 36.503 22.8823 36.3905 23.3025C36.278 23.7227 36.0032 24.081 35.6266 24.2986L30.3532 27.3455C30.1036 27.4888 29.8207 27.564 29.5329 27.5634Z" fill="black"/>
<path d="M38.7749 30.0381C38.4137 30.0384 38.0625 29.9195 37.7758 29.6998C37.489 29.4802 37.2828 29.1721 37.189 28.8233C37.0953 28.4744 37.1193 28.1044 37.2573 27.7706C37.3953 27.4368 37.6395 27.1579 37.9522 26.9771L41.803 24.7529L39.5811 20.9021C39.4674 20.7154 39.3922 20.5078 39.3598 20.2915C39.3275 20.0753 39.3387 19.8547 39.3928 19.6429C39.4469 19.431 39.5428 19.2321 39.6749 19.0579C39.807 18.8836 39.9725 18.7375 40.1619 18.6281C40.3512 18.5188 40.5605 18.4484 40.7775 18.4211C40.9944 18.3937 41.2146 18.4101 41.4252 18.4691C41.6357 18.5281 41.8323 18.6286 42.0035 18.7647C42.1746 18.9007 42.3168 19.0697 42.4218 19.2615L45.4686 24.5349C45.6859 24.9119 45.7445 25.3598 45.6315 25.78C45.5186 26.2002 45.2433 26.5583 44.8663 26.7756L39.5952 29.8224C39.3458 29.9659 39.0626 30.0403 38.7749 30.0381Z" fill="black"/>
<path d="M93.675 103.329H49.6711C49.236 103.329 48.8187 103.156 48.511 102.848C48.2033 102.54 48.0305 102.123 48.0305 101.688C48.0305 101.253 48.2033 100.835 48.511 100.528C48.8187 100.22 49.236 100.047 49.6711 100.047H93.675C93.9945 100.047 94.3009 99.9203 94.5268 99.6944C94.7528 99.4685 94.8797 99.1621 94.8797 98.8426V84.0441C94.8797 83.7246 94.7528 83.4182 94.5268 83.1923C94.3009 82.9664 93.9945 82.8395 93.675 82.8395H49.6734C49.2383 82.8395 48.821 82.6666 48.5133 82.3589C48.2057 82.0512 48.0328 81.634 48.0328 81.1988C48.0328 80.7637 48.2057 80.3464 48.5133 80.0387C48.821 79.7311 49.2383 79.5582 49.6734 79.5582H93.675C94.8644 79.5594 96.0047 80.0325 96.8457 80.8735C97.6867 81.7145 98.1597 82.8548 98.1609 84.0441V98.8426C98.1597 100.032 97.6867 101.172 96.8457 102.013C96.0047 102.854 94.8644 103.327 93.675 103.329ZM37.05 82.8395H15.1266C13.937 82.8376 12.7967 82.364 11.9558 81.5227C11.1148 80.6813 10.6419 79.5407 10.6406 78.3512V65.8309C10.6419 64.6413 11.1148 63.5007 11.9558 62.6594C12.7967 61.818 13.937 61.3444 15.1266 61.3426H43.8703C44.19 61.3426 44.4967 61.2157 44.723 60.9899C44.9493 60.764 45.0767 60.4576 45.0773 60.1379V52.8723C45.0767 52.5525 44.9493 52.2461 44.723 52.0203C44.4967 51.7944 44.19 51.6676 43.8703 51.6676H23.8078C22.6178 51.6663 21.4769 51.1931 20.6355 50.3516C19.794 49.5102 19.3208 48.3693 19.3195 47.1793V38.0387C19.3214 36.8491 19.7949 35.7088 20.6363 34.8679C21.4777 34.0269 22.6182 33.554 23.8078 33.5527H52.8703C53.3054 33.5527 53.7227 33.7256 54.0304 34.0333C54.3381 34.3409 54.5109 34.7582 54.5109 35.1934C54.5109 35.6285 54.3381 36.0458 54.0304 36.3535C53.7227 36.6611 53.3054 36.834 52.8703 36.834H23.8078C23.4881 36.834 23.1814 36.9608 22.9551 37.1867C22.7288 37.4125 22.6014 37.719 22.6008 38.0387V47.1793C22.6014 47.4992 22.7288 47.8059 22.955 48.0321C23.1812 48.2583 23.4879 48.3857 23.8078 48.3863H43.8703C45.0601 48.3869 46.201 48.8597 47.0425 49.7008C47.884 50.5418 48.3574 51.6825 48.3586 52.8723V60.1379C48.3574 61.3277 47.884 62.4683 47.0425 63.3094C46.201 64.1505 45.0601 64.6232 43.8703 64.6238H15.1266C14.8068 64.6245 14.5004 64.7519 14.2746 64.9782C14.0487 65.2045 13.9219 65.5111 13.9219 65.8309V78.3512C13.9219 78.6709 14.0487 78.9776 14.2746 79.2038C14.5004 79.4301 14.8068 79.5576 15.1266 79.5582H37.05C37.4851 79.5582 37.9024 79.7311 38.2101 80.0387C38.5178 80.3464 38.6906 80.7637 38.6906 81.1988C38.6906 81.634 38.5178 82.0512 38.2101 82.3589C37.9024 82.6666 37.4851 82.8395 37.05 82.8395Z" fill="black"/>
<path d="M86.9149 96.304C86.4815 96.3071 86.0644 96.1386 85.7548 95.8352L79.3165 89.3946C79.1641 89.2423 79.0433 89.0614 78.9608 88.8623C78.8784 88.6633 78.8359 88.4499 78.8359 88.2345C78.8359 88.019 78.8784 87.8056 78.9608 87.6066C79.0433 87.4075 79.1641 87.2267 79.3165 87.0743C79.4689 86.9219 79.6497 86.8011 79.8488 86.7186C80.0478 86.6362 80.2612 86.5937 80.4766 86.5938C80.6921 86.5938 80.9055 86.6362 81.1045 86.7186C81.3036 86.8011 81.4845 86.9219 81.6368 87.0743L88.0751 93.5149C88.3053 93.7451 88.4618 94.0385 88.5247 94.3579C88.5877 94.6772 88.5542 95.0081 88.4286 95.3084C88.3029 95.6087 88.0908 95.8648 87.8192 96.0442C87.5476 96.2235 87.2287 96.3181 86.9032 96.3157L86.9149 96.304Z" fill="black"/>
<path d="M80.4768 96.304C80.1547 96.3017 79.8404 96.2047 79.5731 96.025C79.3057 95.8453 79.0972 95.5909 78.9735 95.2935C78.8498 94.9961 78.8163 94.6688 78.8774 94.3526C78.9384 94.0363 79.0912 93.745 79.3167 93.5149L85.755 87.0743C86.0627 86.7666 86.48 86.5938 86.9151 86.5938C87.3503 86.5938 87.7676 86.7666 88.0753 87.0743C88.383 87.382 88.5558 87.7993 88.5558 88.2345C88.5558 88.6696 88.383 89.0869 88.0753 89.3946L81.637 95.8352C81.3274 96.1386 80.9103 96.3071 80.4768 96.304Z" fill="black"/>
<path d="M61.1727 75.5306C60.9573 75.5306 60.7439 75.4881 60.5449 75.4057C60.3458 75.3233 60.1649 75.2024 60.0126 75.0501L53.5743 68.6095C53.4219 68.4571 53.3011 68.2762 53.2186 68.0772C53.1362 67.8781 53.0938 67.6648 53.0938 67.4493C53.0937 67.2338 53.1362 67.0205 53.2186 66.8214C53.3011 66.6224 53.4219 66.4415 53.5743 66.2891C53.7267 66.1368 53.9075 66.0159 54.1066 65.9335C54.3056 65.851 54.519 65.8086 54.7345 65.8086C54.9499 65.8086 55.1633 65.851 55.3623 65.9335C55.5614 66.0159 55.7423 66.1368 55.8946 66.2891L62.3329 72.7298C62.5624 72.9592 62.7186 73.2516 62.782 73.5698C62.8453 73.8881 62.8128 74.218 62.6886 74.5178C62.5644 74.8176 62.3541 75.0738 62.0843 75.2541C61.8145 75.4344 61.4972 75.5306 61.1727 75.5306Z" fill="black"/>
<path d="M54.7228 75.5306C54.3983 75.5306 54.0811 75.4344 53.8112 75.2541C53.5414 75.0738 53.3311 74.8176 53.2069 74.5178C53.0827 74.218 53.0502 73.8881 53.1136 73.5698C53.1769 73.2516 53.3331 72.9592 53.5626 72.7298L60.0009 66.2891C60.1533 66.1368 60.3341 66.0159 60.5332 65.9335C60.7322 65.851 60.9456 65.8086 61.1611 65.8086C61.3765 65.8086 61.5899 65.851 61.7889 65.9335C61.988 66.0159 62.1689 66.1368 62.3212 66.2891C62.4736 66.4415 62.5944 66.6224 62.6769 66.8214C62.7593 67.0205 62.8018 67.2338 62.8018 67.4493C62.8018 67.6648 62.7593 67.8781 62.6769 68.0772C62.5944 68.2762 62.4736 68.4571 62.3212 68.6095L55.8829 75.0501C55.7306 75.2024 55.5497 75.3233 55.3506 75.4057C55.1516 75.4881 54.9382 75.5306 54.7228 75.5306Z" fill="black"/>
<path d="M13.0648 59.2527C11.9309 59.2527 10.8224 58.9165 9.87962 58.2864C8.93681 57.6564 8.20203 56.7609 7.76819 55.7132C7.33436 54.6656 7.22097 53.5128 7.44236 52.4006C7.66375 51.2885 8.20998 50.267 9.01196 49.4654C9.81395 48.6637 10.8357 48.1179 11.9479 47.897C13.0601 47.676 14.2128 47.7899 15.2603 48.2242C16.3078 48.6584 17.203 49.3936 17.8326 50.3367C18.4623 51.2797 18.7981 52.3883 18.7977 53.5223C18.7958 55.0419 18.1911 56.4988 17.1164 57.5731C16.0416 58.6474 14.5845 59.2515 13.0648 59.2527ZM13.0648 51.0707C12.58 51.0707 12.106 51.2145 11.7028 51.4839C11.2997 51.7532 10.9855 52.1361 10.7999 52.5841C10.6143 53.0321 10.5658 53.525 10.6604 54.0005C10.755 54.4761 10.9885 54.9129 11.3313 55.2558C11.6742 55.5986 12.111 55.8321 12.5866 55.9267C13.0621 56.0213 13.5551 55.9728 14.003 55.7872C14.451 55.6017 14.8339 55.2874 15.1032 54.8843C15.3726 54.4811 15.5164 54.0071 15.5164 53.5223C15.5158 52.8723 15.2573 52.2491 14.7977 51.7894C14.3381 51.3298 13.7149 51.0713 13.0648 51.0707Z" fill="black"/>
<path d="M13.0648 34.7059C11.9309 34.7059 10.8224 34.3696 9.87962 33.7395C8.93681 33.1095 8.20203 32.214 7.76819 31.1664C7.33436 30.1187 7.22097 28.9659 7.44236 27.8538C7.66375 26.7417 8.20998 25.7202 9.01196 24.9185C9.81395 24.1169 10.8357 23.571 11.9479 23.3501C13.0601 23.1292 14.2128 23.243 15.2603 23.6773C16.3078 24.1116 17.203 24.8467 17.8326 25.7898C18.4623 26.7328 18.7981 27.8414 18.7977 28.9754C18.7958 30.495 18.1911 31.9519 17.1164 33.0262C16.0416 34.1006 14.5845 34.7046 13.0648 34.7059ZM13.0648 26.5238C12.58 26.5238 12.106 26.6676 11.7028 26.937C11.2997 27.2064 10.9855 27.5893 10.7999 28.0372C10.6143 28.4852 10.5658 28.9781 10.6604 29.4537C10.755 29.9292 10.9885 30.3661 11.3313 30.7089C11.6742 31.0518 12.111 31.2853 12.5866 31.3798C13.0621 31.4744 13.5551 31.4259 14.003 31.2403C14.451 31.0548 14.8339 30.7406 15.1032 30.3374C15.3726 29.9343 15.5164 29.4603 15.5164 28.9754C15.5158 28.3254 15.2573 27.7022 14.7977 27.2426C14.3381 26.7829 13.7149 26.5245 13.0648 26.5238Z" fill="black"/>
<path d="M106.938 97.1766C105.804 97.177 104.696 96.8412 103.753 96.2115C102.81 95.5819 102.074 94.6867 101.64 93.6392C101.206 92.5917 101.092 91.439 101.313 90.3268C101.534 89.2146 102.08 88.1929 102.881 87.3909C103.683 86.5889 104.705 86.0427 105.817 85.8213C106.929 85.5999 108.082 85.7133 109.129 86.1471C110.177 86.5809 111.072 87.3157 111.702 88.2585C112.332 89.2013 112.669 90.3098 112.669 91.4438C112.668 92.9634 112.063 94.4205 110.989 95.4953C109.915 96.57 108.458 97.1747 106.938 97.1766ZM106.938 88.9945C106.453 88.9941 105.979 89.1375 105.575 89.4067C105.172 89.6759 104.857 90.0588 104.671 90.5068C104.486 90.9549 104.437 91.448 104.531 91.9238C104.626 92.3996 104.859 92.8366 105.202 93.1796C105.545 93.5226 105.982 93.7561 106.458 93.8507C106.934 93.9452 107.427 93.8964 107.875 93.7106C108.323 93.5247 108.706 93.2102 108.975 92.8067C109.245 92.4031 109.388 91.9288 109.388 91.4438C109.386 90.7946 109.128 90.1723 108.669 89.7133C108.21 89.2542 107.587 88.9958 106.938 88.9945Z" fill="black"/>
<path d="M98.2289 76.407C97.095 76.407 95.9865 76.0708 95.0437 75.4407C94.1009 74.8107 93.3661 73.9152 92.9323 72.8675C92.4984 71.8199 92.385 70.6671 92.6064 69.5549C92.8278 68.4428 93.374 67.4213 94.176 66.6197C94.978 65.818 95.9997 65.2722 97.1119 65.0513C98.2241 64.8303 99.3769 64.9442 100.424 65.3785C101.472 65.8127 102.367 66.5479 102.997 67.491C103.626 68.434 103.962 69.5426 103.962 70.6766C103.96 72.1962 103.355 73.6531 102.28 74.7274C101.206 75.8017 99.7486 76.4058 98.2289 76.407ZM98.2289 68.225C97.744 68.225 97.27 68.3688 96.8669 68.6382C96.4637 68.9075 96.1495 69.2904 95.964 69.7384C95.7784 70.1864 95.7299 70.6793 95.8245 71.1548C95.919 71.6304 96.1525 72.0672 96.4954 72.4101C96.8382 72.7529 97.2751 72.9864 97.7506 73.081C98.2262 73.1756 98.7191 73.1271 99.1671 72.9415C99.615 72.756 99.9979 72.4417 100.267 72.0386C100.537 71.6354 100.68 71.1614 100.68 70.6766C100.681 70.3541 100.618 70.0347 100.495 69.7366C100.372 69.4385 100.192 69.1675 99.9642 68.9392C99.7365 68.7109 99.4661 68.5296 99.1683 68.4059C98.8706 68.2821 98.5514 68.2183 98.2289 68.218V68.225Z" fill="black"/>
</svg>
