<svg width="66" height="66" viewBox="0 0 66 66" fill="none" xmlns="http://www.w3.org/2000/svg">
<g clip-path="url(#clip0_868_339)">
<path fill-rule="evenodd" clip-rule="evenodd" d="M3.72449 7.3457H45.586C46.9964 7.3457 48.1504 8.49954 48.1504 9.91004V45.4143C48.1504 46.8247 46.9965 47.9785 45.586 47.9785H3.72449C2.31413 47.9785 1.16016 46.8247 1.16016 45.4143V9.91004C1.16016 8.49954 2.31413 7.3457 3.72449 7.3457Z" fill="#DA8C36"/>
<path fill-rule="evenodd" clip-rule="evenodd" d="M45.0087 7.3457H45.586C46.9964 7.3457 48.1502 8.49954 48.1502 9.90991V45.4142C48.1502 46.8245 46.9965 47.9784 45.586 47.9784H3.72436C2.314 47.9784 1.16016 46.8245 1.16016 45.4142V44.601H42.4446C43.8549 44.601 45.0088 43.4472 45.0088 42.0368L45.0087 7.3457Z" fill="#C97629"/>
<path fill-rule="evenodd" clip-rule="evenodd" d="M19.1217 40.2851H9.86567C9.30789 40.2851 8.85156 39.8288 8.85156 39.271V34.9145C8.85156 34.3567 9.30776 33.9004 9.86567 33.9004H19.1217C19.6796 33.9004 20.1358 34.3566 20.1358 34.9145V39.271C20.1356 39.8288 19.6794 40.2851 19.1217 40.2851Z" fill="#EFF4F7"/>
<path fill-rule="evenodd" clip-rule="evenodd" d="M19.1217 40.2851H9.86567C9.30789 40.2851 8.85156 39.8288 8.85156 39.271V38.7128H17.5494C18.1073 38.7128 18.5635 38.2565 18.5635 37.6987V33.9004H19.1217C19.6796 33.9004 20.1358 34.3566 20.1358 34.9145V39.271C20.1356 39.8288 19.6794 40.2851 19.1217 40.2851Z" fill="#E2E3E3"/>
<path fill-rule="evenodd" clip-rule="evenodd" d="M17.0586 7.3457H32.2535V17.4086C32.2535 18.3668 31.1428 18.8925 30.4018 18.2849L25.3746 14.1634C24.9526 13.8174 24.3596 13.8174 23.9375 14.1634L18.9103 18.2849C18.1694 18.8925 17.0586 18.3668 17.0586 17.4086V7.3457Z" fill="#FFDA2D"/>
<path fill-rule="evenodd" clip-rule="evenodd" d="M30.6242 7.3457H32.2534V17.4086C32.2534 18.3668 31.1426 18.8925 30.4017 18.2851L28.7741 16.9506C29.5151 17.5559 30.6242 17.0303 30.6242 16.0729V7.3457ZM25.3718 14.1611C24.9498 13.8173 24.3587 13.8181 23.9375 14.1633L18.9103 18.2848C18.1694 18.8922 17.0586 18.3665 17.0586 17.4084V17.0932C17.1353 17.0552 17.2098 17.0074 17.2811 16.949L22.3083 12.8274C22.7303 12.4813 23.3232 12.4813 23.7453 12.8274L25.3718 14.1611Z" fill="#FFC700"/>
<path d="M59.2309 53.0535C66.6948 45.5897 66.6948 33.4884 59.2309 26.0246C51.7671 18.5607 39.6658 18.5607 32.202 26.0246C24.7381 33.4884 24.7381 45.5897 32.202 53.0535C39.6658 60.5174 51.7671 60.5174 59.2309 53.0535Z" fill="#E6F8FF"/>
<path fill-rule="evenodd" clip-rule="evenodd" d="M45.7245 20.4238C51.5054 20.4238 56.6867 22.9902 60.1919 27.0455C56.8414 24.1493 52.4744 22.3975 47.6982 22.3975C37.1411 22.3975 28.5829 30.9557 28.5829 41.5128C28.5829 46.2889 30.3348 50.6558 33.2308 54.0064C29.1755 50.5011 26.6094 45.3199 26.6094 39.5391C26.6092 28.982 35.1675 20.4238 45.7245 20.4238Z" fill="#D0F1FF"/>
<path fill-rule="evenodd" clip-rule="evenodd" d="M43.1755 44.875C41.1654 46.0355 40.1602 46.6159 40.1602 46.6159L44.5678 54.2502C44.8028 54.6574 45.3267 54.7977 45.7339 54.5627L47.2709 53.6754C47.678 53.4403 47.8183 52.9166 47.5834 52.5093L43.1755 44.875Z" fill="#B4D2D7"/>
<path fill-rule="evenodd" clip-rule="evenodd" d="M43.1741 44.875L42.168 45.4559L45.9948 52.0841C46.2298 52.4912 46.0894 53.015 45.6823 53.2502L44.4124 53.9834L44.5664 54.2502C44.8014 54.6574 45.3253 54.7978 45.7325 54.5627L47.2694 53.6753C47.6765 53.4402 47.8169 52.9164 47.5819 52.5092L43.1741 44.875Z" fill="#9BB9C3"/>
<path fill-rule="evenodd" clip-rule="evenodd" d="M45.7367 38.415C46.7507 40.1714 46.1434 42.4379 44.387 43.4519L37.3365 47.5226C35.5803 48.5366 33.3137 47.9293 32.2998 46.173C31.2858 44.4166 31.8931 42.1501 33.6493 41.136L40.6998 37.0654C42.4561 36.0514 44.7227 36.6587 45.7367 38.415Z" fill="#64B5F6"/>
<path fill-rule="evenodd" clip-rule="evenodd" d="M46.2246 40.3945C46.1762 41.6195 45.5213 42.797 44.3871 43.4518L37.3366 47.5224C35.5803 48.5364 33.3137 47.9291 32.2997 46.1728C31.6447 45.0384 31.6664 43.6913 32.2369 42.6062C32.2103 43.2778 32.3658 43.9637 32.7249 44.5857C33.7389 46.3419 36.0055 46.9493 37.7618 45.9353L44.8124 41.8647C45.4342 41.5057 45.9118 40.9894 46.2246 40.3945Z" fill="#42A5F5"/>
<path d="M58.5806 34.0691C59.032 31.9468 57.6775 29.8604 55.5553 29.4091C53.4331 28.9577 51.3468 30.3123 50.8954 32.4346C50.444 34.5569 51.7985 36.6432 53.9207 37.0946C56.043 37.5459 58.1293 36.1914 58.5806 34.0691Z" fill="#64B5F6"/>
<path fill-rule="evenodd" clip-rule="evenodd" d="M54.9261 29.3027C57.0019 29.4082 58.6525 31.1247 58.6525 33.2268C58.6525 35.3968 56.8933 37.156 54.7233 37.156C54.0787 37.156 53.4705 37.0006 52.9336 36.7255C53.0008 36.7289 53.0683 36.7307 53.1362 36.7307C55.3062 36.7307 57.0653 34.9715 57.0654 32.8015C57.0656 31.2762 56.1963 29.9537 54.9261 29.3027Z" fill="#42A5F5"/>
<path fill-rule="evenodd" clip-rule="evenodd" d="M39.1008 35.8407L34.7008 38.3811C33.8563 38.8686 33.5653 39.955 34.0528 40.7994L37.8301 47.342C38.3176 48.1865 39.4041 48.4775 40.2484 47.99L44.6484 45.4497L58.3945 42.4161C58.7502 42.3073 59.0111 42.066 59.1474 41.7199C59.2836 41.3739 59.2573 41.0194 59.0713 40.6974L50.4276 25.7261C50.2416 25.404 49.948 25.204 49.5801 25.149C49.2123 25.094 48.8727 25.1993 48.6008 25.4528L39.1008 35.8407Z" fill="#64B5F6"/>
<path fill-rule="evenodd" clip-rule="evenodd" d="M34.0508 40.7962L34.0521 40.7984L37.8294 47.341C38.3169 48.1855 39.4032 48.4765 40.2477 47.989L44.6476 45.4487L58.3938 42.4151C58.7495 42.3063 59.0104 42.065 59.1466 41.7189C59.2829 41.3729 59.2566 41.0184 59.0706 40.6964L58.4926 39.6953C58.6759 40.016 58.7014 40.3686 58.5658 40.7128C58.4295 41.0588 58.1686 41.3001 57.813 41.4089L44.0668 44.4424L39.6668 46.9826C38.8224 47.4702 37.7361 47.1791 37.2486 46.3346L34.0508 40.7962Z" fill="#42A5F5"/>
<path fill-rule="evenodd" clip-rule="evenodd" d="M43.7183 43.8376C42.4892 41.7088 41.2602 39.5799 40.0311 37.451C39.7211 36.914 39.4109 36.3769 39.1008 35.8398L34.7008 38.3801C33.8563 38.8676 33.5653 39.954 34.0528 40.7985L34.0978 40.8765L37.785 47.263L37.8301 47.341C38.3176 48.1855 39.4041 48.4765 40.2484 47.989L40.7769 47.6839L43.7923 45.943L44.6485 45.4488C44.3385 44.9118 44.0283 44.3747 43.7183 43.8376Z" fill="#FFDA2D"/>
<path fill-rule="evenodd" clip-rule="evenodd" d="M34.2839 38.7148C33.7743 39.2694 33.6571 40.1141 34.0527 40.7994L34.0977 40.8774L37.785 47.2639L37.8301 47.3419C38.3176 48.1864 39.404 48.4774 40.2484 47.9899L40.7769 47.6848L43.7923 45.9439L44.6484 45.4497L44.0676 44.4436L40.6738 46.4031C39.8293 46.8906 38.743 46.5995 38.2555 45.7551L34.4781 39.2124C34.3861 39.0533 34.3219 38.8856 34.2839 38.7148Z" fill="#FFC700"/>
<path fill-rule="evenodd" clip-rule="evenodd" d="M47.7082 24.6687C48.6748 24.1107 49.9221 24.445 50.4801 25.4114L59.3704 40.8099C59.9283 41.7764 59.5942 43.0236 58.6278 43.5816H58.6276C57.6612 44.1396 56.4139 43.8054 55.8559 42.8388L46.9656 27.4403C46.4076 26.4741 46.7418 25.2268 47.7082 24.6687Z" fill="#FFDA2D"/>
<path fill-rule="evenodd" clip-rule="evenodd" d="M47.7083 24.6695C47.8853 24.5673 48.0718 24.4951 48.2617 24.4512C47.6686 25.0867 47.529 26.0634 47.9848 26.8528L56.8751 42.2513C57.3309 43.0407 58.2465 43.4083 59.0935 43.2123C58.9604 43.3548 58.8047 43.4803 58.6277 43.5825C57.6612 44.1406 56.414 43.8063 55.856 42.8398L46.9657 27.4413C46.4075 26.4749 46.7418 25.2276 47.7083 24.6695Z" fill="#FFC700"/>
<path fill-rule="evenodd" clip-rule="evenodd" d="M58.5737 42.083C58.5044 42.3419 58.3403 42.5572 58.1111 42.6904C57.8824 42.8217 57.6137 42.8563 57.3546 42.7871C57.0958 42.7172 56.8804 42.5536 56.748 42.3244L47.8577 26.9263C47.7256 26.6971 47.6911 26.429 47.7604 26.17C47.83 25.911 47.9941 25.6958 48.2231 25.5639C48.3798 25.4726 48.551 25.4301 48.7202 25.4301C49.0653 25.4301 49.4014 25.6089 49.586 25.9287L58.4761 41.3269C58.6086 41.5559 58.6431 41.824 58.5737 42.083ZM45.3731 53.5817L42.1869 48.0631L43.4159 47.3529L46.6023 52.8709L45.3731 53.5817ZM38.7245 46.8271L34.9471 40.2834C34.8492 40.1144 34.8234 39.915 34.8748 39.7241C34.9261 39.532 35.0477 39.3721 35.2178 39.2742L38.7246 37.2503L43.241 45.0726L39.7342 47.0977C39.3811 47.3012 38.9283 47.1803 38.7245 46.8271ZM33.1935 45.6592C33.8378 46.7754 35.1758 47.2448 36.3521 46.8423L33.7465 42.3305C33.3541 42.6722 33.071 43.1263 32.9322 43.6443C32.748 44.3325 32.8405 45.0481 33.1935 45.6592ZM40.3727 35.9795L45.165 44.2797L54.3283 42.2587L46.7056 29.0558L40.3727 35.9795ZM54.7233 30.3308C54.6532 30.3308 54.5834 30.3333 54.5138 30.3387L57.12 34.8529C57.4401 34.378 57.6211 33.8138 57.6211 33.2284C57.6211 31.6301 56.3213 30.3308 54.7233 30.3308ZM60.2625 40.2949L58.2142 36.7479C59.1392 35.8262 59.6837 34.5599 59.6837 33.2284C59.6837 30.4931 57.4584 28.2686 54.7233 28.2686C54.2813 28.2686 53.8426 28.3276 53.4194 28.4437L51.3722 24.8973C50.5284 23.4358 48.6527 22.9342 47.1919 23.7774C46.4858 24.1841 45.9805 24.8443 45.7684 25.636C45.6408 26.1114 45.6298 26.599 45.7294 27.0666L38.4484 35.0281L34.1863 37.4891C33.5391 37.8618 33.0761 38.4661 32.8822 39.189C32.7716 39.6031 32.7595 40.0256 32.8362 40.433C31.9044 41.0677 31.2359 42.0046 30.9399 43.1105C30.6129 44.3301 30.7789 45.6007 31.4071 46.6902C32.2798 48.201 33.8692 49.0479 35.5012 49.0479C36.1891 49.0479 36.885 48.8959 37.5379 48.581C38.0498 49.0206 38.7032 49.2576 39.369 49.2576C39.71 49.2576 40.0541 49.195 40.384 49.0656L43.6754 54.7659C44.0242 55.3709 44.6591 55.7082 45.3109 55.7082C45.6304 55.7082 45.954 55.6274 46.2501 55.456L47.787 54.569C48.6869 54.0491 48.9965 52.8946 48.4769 51.9948L45.2337 46.3771L55.5639 44.0978C55.9185 44.4163 56.3449 44.6522 56.8205 44.78C57.0855 44.8505 57.3543 44.8858 57.621 44.8858C58.1506 44.8858 58.6726 44.7477 59.1418 44.4753C59.8479 44.0685 60.3535 43.4084 60.5656 42.6168C60.7779 41.8265 60.6702 41.0015 60.2625 40.2949ZM45.7245 57.6229C55.696 57.6229 63.8083 49.5107 63.8083 39.5386C63.8083 29.566 55.696 21.4544 45.7245 21.4544C35.7529 21.4544 27.6405 29.566 27.6405 39.5386C27.6405 49.5107 35.7529 57.6229 45.7245 57.6229ZM3.72449 46.948H26.9899C26.079 44.6535 25.578 42.153 25.578 39.5386C25.578 28.4297 34.6156 19.3915 45.7246 19.3915C46.1936 19.3915 46.6586 19.4097 47.1197 19.4407V9.91068C47.1197 9.06493 46.4318 8.37682 45.5865 8.37682H33.2842V17.4095C33.2842 18.2547 32.81 19.0049 32.0462 19.3661C31.2825 19.7271 30.4016 19.619 29.7473 19.0827L24.7201 14.9612C24.6783 14.9266 24.6324 14.9266 24.5909 14.9612L19.5635 19.0827C19.1654 19.4086 18.6832 19.5776 18.1946 19.5776C17.8803 19.5776 17.5637 19.5078 17.2648 19.3661C16.501 19.0049 16.0265 18.2547 16.0265 17.4095V8.37682H3.72449C2.87899 8.37682 2.19141 9.06506 2.19141 9.91068V45.4153C2.19141 46.2598 2.87899 46.948 3.72449 46.948ZM18.089 8.37682H31.2219V17.4095C31.2219 17.4326 31.2219 17.4752 31.1637 17.502C31.1057 17.5293 31.0729 17.502 31.0549 17.4879L26.0277 13.3652C25.2197 12.7043 24.091 12.7043 23.283 13.3652L18.2558 17.4879C18.238 17.502 18.2048 17.5293 18.147 17.502C18.089 17.4752 18.089 17.4326 18.089 17.4095V8.37682ZM49.1821 19.6894V9.91068C49.1821 7.92797 47.5691 6.31445 45.5865 6.31445H3.72449C1.74191 6.31445 0.128906 7.92797 0.128906 9.91068V45.4153C0.128906 47.3979 1.74204 49.0103 3.72449 49.0103H27.948C31.3434 55.3563 38.0377 59.6851 45.7245 59.6851C56.8333 59.6851 65.8712 50.6475 65.8712 39.5386C65.8712 29.6086 58.6492 21.3346 49.1821 19.6894ZM19.1062 39.2548H9.88466V34.9327H19.1062V39.2548ZM20.1375 32.8703C20.7072 32.8703 21.1689 33.3318 21.1689 33.9014V40.2858C21.1689 40.8549 20.7072 41.3175 20.1375 41.3175H8.85328C8.28377 41.3175 7.82216 40.8549 7.82216 40.2858V33.9014C7.82216 33.3318 8.2839 32.8703 8.85328 32.8703H20.1375Z" fill="black"/>
</g>
<defs>
<clipPath id="clip0_868_339">
<rect width="66" height="66" fill="white"/>
</clipPath>
</defs>
</svg>
