<svg width="66" height="66" viewBox="0 0 66 66" fill="none" xmlns="http://www.w3.org/2000/svg">
<path d="M48.2446 30.8313C48.2446 22.4103 41.418 15.584 32.9973 15.584C24.5766 15.584 17.75 22.4106 17.75 30.8313C17.75 38.3524 23.1971 44.5972 30.3606 45.8468L31.0774 47.0884L32.9973 50.4139L34.9175 47.0884L35.6342 45.8468C42.7975 44.5972 48.2446 38.3524 48.2446 30.8313Z" fill="#FFDA2D"/>
<path d="M36.8162 4.04843L32.9988 1.03125V5.59324C17.8077 5.59324 5.44922 17.952 5.44922 33.1428C5.44922 43.4574 11.1476 52.4651 19.5611 57.1859C20.3861 57.6489 21.4282 57.2083 21.6875 56.2985C21.8752 55.6398 21.5811 54.9437 20.984 54.6083C13.4772 50.39 8.3937 42.3493 8.3937 33.1428C8.3937 19.5752 19.4317 8.53746 32.9991 8.53746V13.0995L36.8165 10.0825L40.6339 7.06535L36.8162 4.04843Z" fill="#FFDA2D"/>
<path d="M46.5802 9.18029C45.7552 8.71081 44.7075 9.1509 44.4471 10.0636L44.4468 10.0641C44.2599 10.7197 44.5505 11.4124 45.1427 11.7502C52.5787 15.9878 57.6035 23.9896 57.6035 33.1434C57.6035 46.7111 46.5655 57.7488 32.9981 57.7488V52.9012L29.1807 55.9181L25.3633 58.9353L29.1807 61.9524L32.9984 64.9694V60.6933C48.1895 60.6933 60.548 48.3345 60.548 33.1437C60.548 22.8877 54.915 13.9227 46.5802 9.18029Z" fill="#FFDA2D"/>
<path d="M46.5802 9.18029C45.7552 8.71081 44.7075 9.1509 44.4471 10.0636L44.4468 10.0641C44.2599 10.7197 44.5505 11.4124 45.1427 11.7502C52.5787 15.9878 57.6035 23.9896 57.6035 33.1434C57.6035 46.7111 46.5655 57.7488 32.9981 57.7488V52.9012L29.1807 55.9181L25.3633 58.9353L29.1807 61.9524L32.9984 64.9694V60.6933C48.1895 60.6933 60.548 48.3345 60.548 33.1437C60.548 22.8877 54.915 13.9227 46.5802 9.18029Z" fill="#FFDA2D"/>
<path d="M32.9981 65.485C32.8844 65.485 32.7713 65.4474 32.6785 65.3739L25.0436 59.3398C24.9201 59.2421 24.8477 59.0928 24.8477 58.9353C24.8477 58.7778 24.9198 58.6285 25.0436 58.5308L32.6785 52.4967C32.8339 52.374 33.0451 52.3513 33.223 52.4374C33.4006 52.5235 33.5138 52.7037 33.5138 52.9015V57.2283C46.5593 56.9525 57.0879 46.2543 57.0879 33.1437C57.0879 24.5129 52.4127 16.4872 44.8872 12.1983C44.0846 11.7407 43.6994 10.8051 43.9505 9.92308C44.1197 9.33011 44.5445 8.85625 45.1156 8.62293C45.6805 8.39219 46.3072 8.43215 46.8352 8.7325C55.6114 13.7263 61.0636 23.08 61.0636 33.1437C61.0636 48.447 48.7528 60.929 33.514 61.2043V64.9694C33.514 65.1671 33.4008 65.3474 33.2232 65.4335C33.1515 65.468 33.0747 65.485 32.9981 65.485ZM26.1947 58.9353L32.4825 63.9046V60.6931C32.4825 60.4084 32.7135 60.1774 32.9981 60.1774C47.9046 60.1774 60.0321 48.0499 60.0321 33.1435C60.0321 23.4497 54.7799 14.4394 46.325 9.62865C46.0736 9.48583 45.7753 9.46752 45.5051 9.57761C45.2293 9.69027 45.0243 9.91921 44.9423 10.2054C44.8214 10.6297 45.0086 11.0809 45.3976 11.3024C53.2444 15.7741 58.1191 24.1432 58.1191 33.1437C58.1191 46.9957 46.8499 58.2647 32.9981 58.2647C32.7135 58.2647 32.4825 58.0337 32.4825 57.7491V53.966L26.1947 58.9353Z" fill="#DA8C36"/>
<path d="M20.2691 57.8877C19.9373 57.8877 19.6075 57.8031 19.3087 57.6355C10.442 52.6602 4.93359 43.2751 4.93359 33.1428C4.93385 17.8393 17.2447 5.35732 32.4834 5.08198V1.03097C32.4834 0.833228 32.5964 0.653017 32.7742 0.566908C32.9521 0.481314 33.1635 0.504002 33.3188 0.626462L40.9536 6.66031C41.0771 6.75802 41.1495 6.90729 41.1495 7.06481C41.1495 7.2226 41.0774 7.37161 40.9536 7.46932L33.3188 13.5037C33.163 13.6264 32.9519 13.6491 32.7742 13.5632C32.5966 13.4771 32.4834 13.2967 32.4834 13.0992V9.05822C19.4379 9.33408 8.90906 20.0323 8.90906 33.1425C8.90906 41.8329 13.6324 49.8857 21.2364 54.1587C22.0469 54.6142 22.4365 55.5524 22.1836 56.44C22.0152 57.0302 21.5929 57.503 21.025 57.7371C20.7803 57.8376 20.524 57.8877 20.2691 57.8877ZM33.5147 2.09574V5.59296C33.5147 5.87759 33.2839 6.10859 32.9991 6.10859C18.0926 6.10859 5.9651 18.2361 5.9651 33.1425C5.9651 42.9026 11.2714 51.943 19.8135 56.736C20.0649 56.8768 20.3629 56.894 20.6321 56.7834C20.9064 56.6705 21.1106 56.4421 21.1918 56.1572C21.3137 55.7305 21.1242 55.2783 20.7316 55.0576C12.8033 50.6024 7.87807 42.2049 7.87807 33.1425C7.87807 19.2908 19.1473 8.02156 32.9993 8.02156C33.2842 8.02156 33.5149 8.2523 33.5149 8.53718V12.0344L39.8027 7.06507L36.4971 4.45266L33.5147 2.09574Z" fill="#DA8C36"/>
<path d="M33.0002 15.584C32.6957 15.584 32.3938 15.5956 32.0938 15.6131C40.0963 16.0888 46.4431 22.8736 46.4431 31.177C46.4431 37.5535 42.6976 43.0299 37.3356 45.4451C43.6435 43.577 48.2478 37.7453 48.2478 30.8315C48.2475 22.4103 41.4211 15.584 33.0002 15.584Z" fill="#FFD580"/>
<path d="M32.9975 15.584C33.302 15.584 33.6039 15.5956 33.904 15.6131C25.9015 16.0888 19.5547 22.8736 19.5547 31.177C19.5547 37.5535 23.3002 43.0299 28.6622 45.4451C22.3543 43.577 17.75 37.7453 17.75 30.8315C17.7503 22.4103 24.5766 15.584 32.9975 15.584Z" fill="#FCE06A"/>
<path d="M21.2931 38.0844C21.0905 38.0844 20.8982 37.9642 20.8159 37.7649C20.3952 36.7435 20.0458 35.6784 19.7772 34.5992C19.7081 34.3229 19.8767 34.0431 20.1528 33.9743C20.4284 33.9057 20.7089 34.0738 20.7778 34.3502C21.0343 35.3807 21.3679 36.3972 21.7698 37.372C21.8781 37.6352 21.7528 37.9366 21.4893 38.0452C21.4249 38.0717 21.3586 38.0844 21.2931 38.0844Z" fill="#DA8C36"/>
<path d="M24.2821 32.8884H25.7689V26.8633H24.2821C22.6184 26.8633 21.2695 28.2122 21.2695 29.8758C21.2693 31.5397 22.6181 32.8884 24.2821 32.8884Z" fill="#F4EFED"/>
<path d="M34.2461 26.4417L42.0753 22.293V37.4596L34.2461 33.3108V26.4417Z" fill="#F4EFED"/>
<path d="M30.008 41.8133C29.2787 41.8133 28.6875 41.2222 28.6875 40.4928V30.8359H31.3285V40.4928C31.3285 41.2222 30.7371 41.8133 30.008 41.8133Z" fill="#F4EFED"/>
<path d="M30.008 42.329C28.9956 42.329 28.1719 41.5052 28.1719 40.4928V30.8359C28.1719 30.5513 28.4029 30.3203 28.6875 30.3203H31.3285C31.6132 30.3203 31.8442 30.5513 31.8442 30.8359V40.4928C31.8442 41.5052 31.0202 42.329 30.008 42.329ZM29.2029 31.3513V40.4926C29.2029 40.9365 29.5638 41.2975 30.0078 41.2975C30.4517 41.2975 30.8126 40.9365 30.8126 40.4926V31.3513H29.2029Z" fill="#DA8C36"/>
<path d="M33.0001 34.3626H27.0158C26.3274 34.3626 25.7695 33.8047 25.7695 33.1163V26.6349C25.7695 25.9466 26.3274 25.3887 27.0158 25.3887H33.0001C33.6885 25.3887 34.2464 25.9466 34.2464 26.6349V33.1163C34.2467 33.8044 33.6885 34.3626 33.0001 34.3626Z" fill="#8852A8"/>
<path d="M42.6133 31.5027H42.0742V28.248H42.6133C43.512 28.248 44.2406 28.9766 44.2406 29.8754C44.2406 30.7741 43.512 31.5027 42.6133 31.5027Z" fill="#F4EFED"/>
<path d="M42.6133 32.0183H42.0742C41.7896 32.0183 41.5586 31.7873 41.5586 31.5027V28.248C41.5586 27.9634 41.7896 27.7324 42.0742 27.7324H42.6133C43.7951 27.7324 44.7565 28.6938 44.7565 29.8754C44.7562 31.0572 43.7951 32.0183 42.6133 32.0183ZM42.5898 30.987H42.6133C43.2264 30.987 43.7253 30.4882 43.7253 29.8754C43.7253 29.2625 43.2264 28.7637 42.6133 28.7637H42.5898V30.987Z" fill="#DA8C36"/>
<path d="M42.0756 37.9753C41.9928 37.9753 41.9096 37.9554 41.834 37.9152L34.0048 33.7665C33.8362 33.677 33.7305 33.5019 33.7305 33.3109V26.4418C33.7305 26.2507 33.8359 26.0757 34.0048 25.9862L41.834 21.8375C41.9934 21.7527 42.1865 21.7578 42.3414 21.8514C42.4966 21.9445 42.5912 22.1123 42.5912 22.293V37.4596C42.5912 37.6406 42.4966 37.8082 42.3414 37.9013C42.2599 37.9508 42.1679 37.9753 42.0756 37.9753ZM34.762 33.0008L41.56 36.6032V23.15L34.762 26.7524V33.0008Z" fill="#DA8C36"/>
<path d="M25.7689 33.404H24.2818C22.3364 33.404 20.7539 31.8213 20.7539 29.8758C20.7539 27.9304 22.3366 26.3477 24.2818 26.3477H25.7689C26.0535 26.3477 26.2845 26.5787 26.2845 26.8633V32.8884C26.2845 33.1732 26.0538 33.404 25.7689 33.404ZM24.2818 27.3789C22.9051 27.3789 21.7852 28.4991 21.7852 29.8758C21.7852 31.2525 22.9054 32.3727 24.2818 32.3727H25.2533V27.3789H24.2818Z" fill="#DA8C36"/>
<path d="M32.9999 34.8785H27.0158C26.0441 34.8785 25.2539 34.088 25.2539 33.1166V26.6349C25.2539 25.6635 26.0441 24.873 27.0158 24.873H32.9999C33.9716 24.873 34.762 25.6635 34.762 26.6349V33.1166C34.762 34.088 33.9716 34.8785 32.9999 34.8785ZM27.0158 25.9043C26.6128 25.9043 26.2852 26.2322 26.2852 26.6349V33.1166C26.2852 33.5196 26.6128 33.8472 27.0158 33.8472H32.9999C33.4028 33.8472 33.7308 33.5196 33.7308 33.1166V26.6349C33.7308 26.2322 33.4031 25.9043 32.9999 25.9043H27.0158Z" fill="#DA8C36"/>
<path d="M32.9975 50.9298C32.8132 50.9298 32.6431 50.8316 32.551 50.672L30.0335 46.3114C22.6025 44.8991 17.2344 38.4275 17.2344 30.8315C17.2344 22.1399 24.3057 15.0684 32.9975 15.0684C41.6894 15.0684 48.7607 22.1396 48.7607 30.8315C48.7607 38.4275 43.3928 44.8991 35.9616 46.3114L33.4441 50.672C33.352 50.8316 33.1819 50.9298 32.9975 50.9298ZM32.9975 16.0999C24.8744 16.0999 18.2656 22.7086 18.2656 30.8318C18.2656 38.0067 23.3896 44.1078 30.4493 45.3392C30.5999 45.3655 30.7309 45.457 30.8074 45.5892L32.9975 49.3829L35.1877 45.5892C35.2642 45.457 35.3952 45.3652 35.5458 45.3392C42.6054 44.1078 47.7295 38.0065 47.7295 30.8318C47.7295 22.7086 41.1207 16.0999 32.9975 16.0999Z" fill="#DA8C36"/>
</svg>
