<svg width="120" height="120" viewBox="0 0 120 120" fill="none" xmlns="http://www.w3.org/2000/svg">
<path d="M106.875 3.75H13.125C10.6386 3.75 8.25403 4.73772 6.49587 6.49587C4.73772 8.25403 3.75 10.6386 3.75 13.125V106.875C3.75 109.361 4.73772 111.746 6.49587 113.504C8.25403 115.262 10.6386 116.25 13.125 116.25H106.875C109.361 116.25 111.746 115.262 113.504 113.504C115.262 111.746 116.25 109.361 116.25 106.875V13.125C116.25 10.6386 115.262 8.25403 113.504 6.49587C111.746 4.73772 109.361 3.75 106.875 3.75ZM106.875 112.5H13.125C11.6332 112.5 10.2024 111.907 9.14752 110.852C8.09263 109.798 7.5 108.367 7.5 106.875V22.5H11.25V18.75H7.5V13.125C7.5 11.6332 8.09263 10.2024 9.14752 9.14752C10.2024 8.09263 11.6332 7.5 13.125 7.5H106.875C108.367 7.5 109.798 8.09263 110.852 9.14752C111.907 10.2024 112.5 11.6332 112.5 13.125V18.75H15V22.5H112.5V106.875C112.5 108.367 111.907 109.798 110.852 110.852C109.798 111.907 108.367 112.5 106.875 112.5Z" fill="black"/>
<path d="M93.75 11.25H90V15H93.75V11.25Z" fill="black"/>
<path d="M101.25 11.25H97.5V15H101.25V11.25Z" fill="black"/>
<path d="M108.75 11.25H105V15H108.75V11.25Z" fill="black"/>
<path d="M60 26.25C55.9313 26.2574 51.9067 27.0923 48.1708 28.704C44.4349 30.3156 41.066 32.6704 38.2687 35.625H11.25V39.375H35.2125C34.4069 40.573 33.6864 41.8261 33.0562 43.125H11.25V46.875H31.5187C31.117 48.1038 30.7914 49.3561 30.5438 50.625H11.25V54.375H30.0937C30.0937 54.9938 30 55.6125 30 56.25C30 56.8875 30 57.5062 30.0937 58.125H11.25V61.875H30.5438C30.7914 63.1439 31.117 64.3962 31.5187 65.625H11.25V69.375H33.0562C33.6864 70.6739 34.4069 71.927 35.2125 73.125H11.25V76.875H38.2687C43.4649 82.397 50.5593 85.7466 58.125 86.25V90H56.25C55.7527 90 55.2758 90.1975 54.9242 90.5492C54.5725 90.9008 54.375 91.3777 54.375 91.875V103.125C54.375 104.617 54.9676 106.048 56.0225 107.102C57.0774 108.157 58.5082 108.75 60 108.75C61.4918 108.75 62.9226 108.157 63.9775 107.102C65.0324 106.048 65.625 104.617 65.625 103.125V91.875C65.625 91.3777 65.4275 90.9008 65.0758 90.5492C64.7242 90.1975 64.2473 90 63.75 90H61.875V86.25C69.4407 85.7466 76.5351 82.397 81.7313 76.875H108.75V73.125H84.7875C85.5931 71.927 86.3136 70.6739 86.9437 69.375H108.75V65.625H88.4812C88.883 64.3962 89.2086 63.1439 89.4562 61.875H108.75V58.125H90C90 57.5062 90 56.8875 90 56.25C90 55.6125 90 54.9938 90 54.375H108.75V50.625H89.4562C89.2086 49.3561 88.883 48.1038 88.4812 46.875H108.75V43.125H86.9437C86.3136 41.8261 85.5931 40.573 84.7875 39.375H108.75V35.625H81.7313C78.934 32.6704 75.5651 30.3156 71.8292 28.704C68.0933 27.0923 64.0687 26.2574 60 26.25ZM61.875 103.125C61.875 103.622 61.6775 104.099 61.3258 104.451C60.9742 104.802 60.4973 105 60 105C59.5027 105 59.0258 104.802 58.6742 104.451C58.3225 104.099 58.125 103.622 58.125 103.125V93.75H61.875V103.125ZM58.125 78.75V82.5C52.4791 82.0991 47.1163 79.875 42.8438 76.1625L45.4125 73.575L42.7687 70.9313L40.1813 73.5C36.45 69.2024 34.2247 63.8036 33.8437 58.125H37.5V54.375H33.8437C34.2447 48.7291 36.4688 43.3663 40.1813 39.0938L42.7687 41.6625L45.4125 39.0187L42.8438 36.4313C47.1163 32.7188 52.4791 30.4947 58.125 30.0937V33.75H61.875V30.0937C67.5209 30.4947 72.8837 32.7188 77.1563 36.4313L74.5875 39.0187L77.2312 41.6625L79.8187 39.0938C83.5652 43.3539 85.8227 48.718 86.25 54.375H82.5V58.125H86.25C85.8491 63.7709 83.625 69.1337 79.9125 73.4063L77.325 70.8375L74.6813 73.4812L77.25 76.0687C72.9648 79.8339 67.5648 82.0927 61.875 82.5V78.75H58.125Z" fill="black"/>
<path d="M54.375 56.25C54.3852 57.5691 54.8588 58.8427 55.7128 59.8481C56.5669 60.8535 57.7472 61.5267 59.0473 61.7501C60.3474 61.9735 61.6847 61.7328 62.8254 61.0702C63.9661 60.4075 64.8375 59.3651 65.2875 58.125H76.875V54.375H65.2875C65.0075 53.5886 64.5561 52.8744 63.9658 52.2842C63.3756 51.6939 62.6614 51.2425 61.875 50.9625V39.375H58.125V50.9625C57.0308 51.3493 56.0831 52.0651 55.4118 53.0118C54.7404 53.9584 54.3783 55.0895 54.375 56.25ZM60 58.125C59.6292 58.125 59.2666 58.015 58.9583 57.809C58.65 57.603 58.4096 57.3101 58.2677 56.9675C58.1258 56.6249 58.0887 56.2479 58.161 55.8842C58.2334 55.5205 58.4119 55.1864 58.6742 54.9242C58.9364 54.6619 59.2705 54.4834 59.6342 54.411C59.9979 54.3387 60.3749 54.3758 60.7175 54.5177C61.0601 54.6596 61.353 54.9 61.559 55.2083C61.765 55.5166 61.875 55.8792 61.875 56.25C61.875 56.7473 61.6775 57.2242 61.3258 57.5758C60.9742 57.9275 60.4973 58.125 60 58.125Z" fill="black"/>
<path d="M78.2825 60.4125L74.5325 59.5875C73.9359 62.2008 72.6498 64.6065 70.8082 66.5542C68.9666 68.5019 66.6367 69.9206 64.0609 70.6626C61.4851 71.4046 58.7575 71.4428 56.1619 70.7732C53.5664 70.1036 51.1977 68.7507 49.3022 66.8553C47.4068 64.9599 46.0539 62.5911 45.3843 59.9956C44.7148 57.4 44.7529 54.6724 45.4949 52.0966C46.2369 49.5208 47.6556 47.1909 49.6033 45.3493C51.5511 43.5077 53.9567 42.2217 56.57 41.625L55.745 37.875C51.136 38.7998 47.0425 41.4222 44.2756 45.2225C41.5087 49.0229 40.2702 53.7239 40.8057 58.3942C41.3411 63.0645 43.6113 67.3633 47.1665 70.4389C50.7217 73.5144 55.3025 75.1423 60.0013 75C64.2452 74.9796 68.3583 73.5287 71.6757 70.8816C74.993 68.2345 77.3207 64.5461 78.2825 60.4125Z" fill="black"/>
</svg>
