<svg width="120" height="120" viewBox="0 0 120 120" fill="none" xmlns="http://www.w3.org/2000/svg">
<g clip-path="url(#clip0_865_24)">
<path d="M112.5 30H7.5C3.365 30 0 26.635 0 22.5V7.5C0 3.365 3.365 0 7.5 0H112.5C116.635 0 120 3.365 120 7.5V22.5C120 26.635 116.635 30 112.5 30ZM7.5 5C6.12 5 5 6.12 5 7.5V22.5C5 23.88 6.12 25 7.5 25H112.5C113.88 25 115 23.88 115 22.5V7.5C115 6.12 113.88 5 112.5 5H7.5Z" fill="black"/>
<path d="M117.5 45H47.5C46.12 45 45 43.88 45 42.5C45 41.12 46.12 40 47.5 40H117.5C118.88 40 120 41.12 120 42.5C120 43.88 118.88 45 117.5 45Z" fill="black"/>
<path d="M117.5 60H47.5C46.12 60 45 58.88 45 57.5C45 56.12 46.12 55 47.5 55H117.5C118.88 55 120 56.12 120 57.5C120 58.88 118.88 60 117.5 60Z" fill="black"/>
<path d="M117.5 75H47.5C46.12 75 45 73.88 45 72.5C45 71.12 46.12 70 47.5 70H117.5C118.88 70 120 71.12 120 72.5C120 73.88 118.88 75 117.5 75Z" fill="black"/>
<path d="M117.5 90H47.5C46.12 90 45 88.88 45 87.5C45 86.12 46.12 85 47.5 85H117.5C118.88 85 120 86.12 120 87.5C120 88.88 118.88 90 117.5 90Z" fill="black"/>
<path d="M117.5 105H47.5C46.12 105 45 103.88 45 102.5C45 101.12 46.12 100 47.5 100H117.5C118.88 100 120 101.12 120 102.5C120 103.88 118.88 105 117.5 105Z" fill="black"/>
<path d="M17.5 75C7.85 75 0 67.15 0 57.5C0 47.85 7.85 40 17.5 40C27.15 40 35 47.85 35 57.5C35 67.15 27.15 75 17.5 75ZM17.5 45C10.61 45 5 50.61 5 57.5C5 64.39 10.61 70 17.5 70C24.39 70 30 64.39 30 57.5C30 50.61 24.39 45 17.5 45Z" fill="black"/>
<path d="M17.5 120C7.85 120 0 112.15 0 102.5C0 92.85 7.85 85 17.5 85C27.15 85 35 92.85 35 102.5C35 112.15 27.15 120 17.5 120ZM17.5 90C10.61 90 5 95.61 5 102.5C5 109.39 10.61 115 17.5 115C24.39 115 30 109.39 30 102.5C30 95.61 24.39 90 17.5 90Z" fill="black"/>
<path d="M117.5 120H47.5C46.12 120 45 118.88 45 117.5C45 116.12 46.12 115 47.5 115H117.5C118.88 115 120 116.12 120 117.5C120 118.88 118.88 120 117.5 120Z" fill="black"/>
</g>
<defs>
<clipPath id="clip0_865_24">
<rect width="120" height="120" fill="white"/>
</clipPath>
</defs>
</svg>
