<svg width="120" height="120" viewBox="0 0 120 120" fill="none" xmlns="http://www.w3.org/2000/svg">
<path d="M68.1313 58.1443C69.7722 59.6183 71.8623 60.4149 74.0643 60.4149C74.23 60.4149 74.3966 60.4102 74.5635 60.4011C76.945 60.2715 79.1294 59.2285 80.7156 57.463L96.6761 39.6608L100.262 42.8788C101.801 44.2576 103.928 44.5878 105.814 43.7401C107.698 42.8933 108.862 41.0849 108.853 39.0214L108.766 18.5602C108.761 17.1015 108.141 15.7095 107.064 14.7411C105.987 13.772 104.536 13.3006 103.079 13.4513L82.7287 15.5907C80.668 15.8085 78.9932 17.1669 78.3583 19.1356C77.7248 21.0995 78.2882 23.1742 79.8255 24.5478L83.4114 27.7656L67.4434 45.5633C64.165 49.2219 64.4746 54.8663 68.1318 58.1443H68.1313ZM70.2379 48.0692L87.4584 28.8756C88.1505 28.104 88.0863 26.9176 87.3149 26.2252L82.3293 21.7513C81.7192 21.2063 81.8472 20.5461 81.9306 20.2878C82.0148 20.027 82.2993 19.4108 83.122 19.3238L103.467 17.1849C103.519 17.1798 103.57 17.177 103.621 17.177C103.97 17.177 104.297 17.3005 104.554 17.5323C104.849 17.7971 105.011 18.1667 105.013 18.5748L105.099 39.0383C105.103 39.8558 104.524 40.2045 104.275 40.3166C104.025 40.4288 103.378 40.6306 102.768 40.0843L97.7856 35.6131C97.4151 35.2806 96.9266 35.1076 96.4302 35.136C95.9331 35.1629 95.467 35.3863 95.1346 35.757L77.9221 54.9559C77.0064 55.9752 75.7413 56.578 74.3596 56.653C72.9782 56.7301 71.6577 56.2663 70.6387 55.3506C68.5209 53.4524 68.3416 50.1856 70.2381 48.0692H70.2379ZM7.26039 68.6103H17.7707C20.6001 68.6103 22.9227 66.4056 23.1145 63.624C25.4085 64.9944 27.6878 66.2054 31.1777 66.2054H55.1348C58.4887 66.2054 61.217 63.4768 61.217 60.1231C61.217 59.0035 60.9131 57.9535 60.3829 57.0517C62.272 56.0174 63.5556 54.009 63.5556 51.7056C63.5556 50.0755 62.9111 48.5933 61.8634 47.5002C62.9111 46.407 63.5556 44.9249 63.5556 43.2948C63.5556 41.6647 62.9111 40.1825 61.8634 39.0894C62.9111 37.9963 63.5556 36.5141 63.5556 34.884C63.5556 31.5301 60.827 28.8017 57.4734 28.8017H42.0346L42.0829 20.7528C42.246 16.1295 40.1123 12.1175 36.2252 9.74212C33.3091 7.9597 29.9966 7.52072 27.9831 8.65041C26.815 9.30572 26.1449 10.4427 26.1449 11.7704V15.6636C26.1449 18.6242 26.1449 23.5794 25.0096 27.0231C24.4002 28.8772 23.6198 29.7873 22.9077 30.2349C22.251 28.0185 20.1972 26.3963 17.7705 26.3963H7.26039C4.30586 26.3963 1.90234 28.8001 1.90234 31.7544V63.2523C1.90234 66.2066 4.30586 68.6103 7.26039 68.6103ZM28.5752 28.1968C29.8987 24.1824 29.8987 18.8497 29.8987 15.6636V11.8831C30.362 11.6973 31.8721 11.6731 33.7337 12.6427C35.178 13.3951 38.5166 15.6805 38.3308 20.6424C38.3301 20.6621 38.3296 20.6818 38.3296 20.7015L38.2698 30.6671C38.2668 31.1668 38.4632 31.647 38.8157 32.0014C39.168 32.3558 39.647 32.555 40.1467 32.555H57.4736C58.7577 32.555 59.8023 33.5996 59.8023 34.8838C59.8023 36.1679 58.7577 37.2125 57.4736 37.2125H47.9465C46.9101 37.2125 46.0696 38.0528 46.0696 39.0894C46.0696 40.126 46.9098 40.9663 47.9465 40.9663H57.4736C58.7577 40.9663 59.8023 42.0109 59.8023 43.295C59.8023 44.5792 58.7577 45.6238 57.4736 45.6238H47.8469C46.8102 45.6238 45.97 46.464 45.97 47.5006C45.97 48.5373 46.8102 49.3775 47.8469 49.3775H57.4736C58.7577 49.3775 59.8023 50.4221 59.8023 51.7063C59.8023 52.9904 58.7577 54.0416 57.4736 54.0416H47.9465C46.9101 54.0416 46.0696 54.8818 46.0696 55.9185C46.0696 56.9551 46.9098 57.7953 47.9465 57.7953H55.135C56.4191 57.7953 57.4637 58.8399 57.4637 60.1241C57.4637 61.4082 56.4191 62.4528 55.135 62.4528H31.1779C28.4378 62.4528 26.86 61.5015 24.4715 60.0615C24.0398 59.8013 23.5959 59.5349 23.129 59.2635V34.1853C25.1439 33.6519 27.2976 32.0858 28.5754 28.1977L28.5752 28.1968ZM5.65586 31.7546C5.65586 30.8849 6.39063 30.1501 7.26039 30.1501H17.7707C18.6405 30.1501 19.3752 30.8849 19.3752 31.7546V60.3402V60.3545V63.2523C19.3752 64.122 18.6405 64.8568 17.7707 64.8568H7.26039C6.39063 64.8568 5.65586 64.122 5.65586 63.2523V31.7544V31.7546ZM10.6387 59.2794V53.3799C10.6387 52.3433 11.4789 51.5031 12.5155 51.5031C13.5522 51.5031 14.3924 52.3433 14.3924 53.3799V59.2794C14.3924 60.316 13.5522 61.1563 12.5155 61.1563C11.4789 61.1563 10.6387 60.316 10.6387 59.2794ZM112.862 98.6401H108.853V53.7983C108.853 52.2397 107.584 50.9713 106.026 50.9713H92.2C90.6449 50.9713 89.3798 52.2395 89.3798 53.7983V98.6401H83.1745V65.2187C83.1745 63.6601 81.9063 62.3917 80.3474 62.3917H66.5219C64.9631 62.3917 63.6948 63.6599 63.6948 65.2187V98.6401H57.4963V76.6328C57.4963 75.0742 56.2281 73.8057 54.6693 73.8057H40.8437C39.2849 73.8057 38.0167 75.0739 38.0167 76.6328V98.6401H31.8182V88.0466C31.8182 86.488 30.55 85.2195 28.9912 85.2195H15.1656C13.6068 85.2195 12.3386 86.4878 12.3386 88.0466V98.6401H8.32914C5.40766 98.6401 3.03086 101.017 3.03086 103.938V106.762C3.03086 109.683 5.40766 112.06 8.32914 112.06H112.862C115.784 112.06 118.16 109.683 118.16 106.762V103.938C118.16 101.017 115.784 98.6401 112.862 98.6401ZM93.1335 54.725H105.099V98.6401H93.1335V54.725ZM67.4491 66.1456H79.4212V98.6403H67.4491V66.1456ZM41.7712 77.5595H53.7433V98.6401H41.7712V77.5595ZM16.0933 88.9733H28.0654V98.6401H16.0933V88.9733ZM114.407 106.762C114.407 107.599 113.699 108.306 112.862 108.306H8.33008C7.49266 108.306 6.78531 107.599 6.78531 106.762V103.938C6.78531 103.101 7.49266 102.394 8.33008 102.394H112.862C113.699 102.394 114.407 103.101 114.407 103.938V106.762Z" fill="black"/>
</svg>
