<svg width="120" height="120" viewBox="0 0 120 120" fill="none" xmlns="http://www.w3.org/2000/svg">
<g clip-path="url(#clip0_865_117)">
<path d="M0 98.7088C0 104.045 4.34129 108.386 9.67742 108.386H32.9032V116.128H25.1613V119.999H94.8387V116.128H87.0968V108.386H110.323C115.659 108.386 120 104.045 120 98.7088V92.9023H0V98.7088ZM83.2258 116.128H36.7742V108.386H83.2258V116.128ZM3.87097 96.7733H116.129V98.7088C116.129 101.91 113.524 104.515 110.323 104.515H9.67742C6.47613 104.515 3.87097 101.91 3.87097 98.7088V96.7733Z" fill="black"/>
<path d="M3.87097 29.0329C3.87097 25.8316 6.47613 23.2264 9.67742 23.2264H15.4839V19.3555H9.67742C4.34129 19.3555 0 23.6968 0 29.0329V89.0329H3.87097V29.0329Z" fill="black"/>
<path d="M110.322 19.3555H104.516V23.2264H110.322C113.523 23.2264 116.129 25.8316 116.129 29.0329V89.0329H119.999V29.0329C119.999 23.6968 115.658 19.3555 110.322 19.3555Z" fill="black"/>
<path d="M100.646 0H19.3555V81.2903H100.646V0ZM96.7748 77.4194H23.2264V3.87097H96.7748V77.4194Z" fill="black"/>
<path d="M100.644 85.1621H96.7734V89.0331H100.644V85.1621Z" fill="black"/>
<path d="M92.9022 85.1621H89.0312V89.0331H92.9022V85.1621Z" fill="black"/>
<path d="M85.16 85.1621H81.2891V89.0331H85.16V85.1621Z" fill="black"/>
<path d="M36.7753 30.9682V30.9837C35.5327 33.9605 34.8398 37.2237 34.8398 40.6457C34.8398 44.0676 35.5327 47.3308 36.7753 50.3076V50.3231C36.7773 50.3231 36.7792 50.3231 36.7811 50.3231C40.5805 59.4063 49.5553 65.807 60.0011 65.807C73.8747 65.807 85.1624 54.5192 85.1624 40.6457C85.1624 26.7721 73.8747 15.4844 60.0011 15.4844C49.5553 15.4844 40.5805 21.885 36.7811 30.9682C36.7792 30.9682 36.7773 30.9682 36.7753 30.9682ZM60.0011 19.3553C71.7398 19.3553 81.2915 28.907 81.2915 40.6457C81.2915 52.3844 71.7398 61.936 60.0011 61.936C54.9727 61.936 50.3527 60.1728 46.7044 57.2463C52.4586 53.7992 56.1302 47.5302 56.1302 40.6457C56.1302 33.7611 52.4566 27.4921 46.7044 24.045C50.3508 21.1186 54.9708 19.3553 60.0011 19.3553ZM43.7973 26.8689C48.9224 29.4857 52.2592 34.7811 52.2592 40.6457C52.2592 46.5102 48.9224 51.8057 43.7973 54.4224C42.5353 52.9418 41.4824 51.2831 40.6598 49.4947C44.0644 47.9928 46.4527 44.5979 46.4527 40.6457C46.4527 36.6934 44.0644 33.2986 40.6618 31.7966C41.4824 30.0082 42.5373 28.3515 43.7973 26.8689ZM39.3708 35.4799C41.2656 36.436 42.5818 38.3812 42.5818 40.6457C42.5818 42.9102 41.2656 44.8553 39.3708 45.8115C38.9547 44.1547 38.7108 42.4302 38.7108 40.6457C38.7108 38.8611 38.9547 37.1366 39.3708 35.4799Z" fill="black"/>
<path d="M65.2375 54.759L61.3672 50.8887L58.63 53.6258L62.5004 57.4962L65.2375 54.759Z" fill="black"/>
<path d="M65.2372 26.5301L62.5 23.793L58.6297 27.6633L61.3668 30.4005L65.2372 26.5301Z" fill="black"/>
<path d="M60 38.71V42.581H77.4194V38.71H70.4787L74.9168 34.2719L72.18 31.5352L65.0052 38.71H60Z" fill="black"/>
<path d="M40.646 7.74219H27.0977V11.6132H40.646V7.74219Z" fill="black"/>
<path d="M48.3866 7.74219H44.5156V11.6132H48.3866V7.74219Z" fill="black"/>
<path d="M40.646 15.4844H27.0977V19.3553H40.646V15.4844Z" fill="black"/>
<path d="M92.9039 7.74219H79.3555V11.6132H92.9039V7.74219Z" fill="black"/>
<path d="M92.9039 15.4844H79.3555V19.3553H92.9039V15.4844Z" fill="black"/>
<path d="M30.9686 69.6777H27.0977V73.5487H30.9686V69.6777Z" fill="black"/>
<path d="M38.7108 69.6777H34.8398V73.5487H38.7108V69.6777Z" fill="black"/>
<path d="M46.453 69.6777H42.582V73.5487H46.453V69.6777Z" fill="black"/>
</g>
<defs>
<clipPath id="clip0_865_117">
<rect width="120" height="120" fill="white"/>
</clipPath>
</defs>
</svg>
