<svg width="120" height="120" viewBox="0 0 120 120" fill="none" xmlns="http://www.w3.org/2000/svg">
<path fill-rule="evenodd" clip-rule="evenodd" d="M32.3772 42.555H3.52987C2.62022 42.555 1.88281 41.8176 1.88281 40.908V30.4115C1.88281 28.0478 2.82187 25.7809 4.49317 24.1094C6.16469 22.4381 8.43152 21.499 10.7953 21.499H13.8675C14.2929 21.499 14.7019 21.6638 15.0087 21.9583L17.951 24.7854L20.879 21.9607C21.1861 21.6647 21.596 21.499 22.0226 21.499H25.1118C27.4755 21.499 29.7423 22.4381 31.4139 24.1094C33.0852 25.7809 34.0242 28.0478 34.0242 30.4115V40.908C34.0242 41.8176 33.2868 42.555 32.3772 42.555ZM26.9543 39.2609H30.7301V30.4115C30.7301 28.9214 30.1381 27.4925 29.0845 26.4388C28.0308 25.3852 26.6019 24.7932 25.1118 24.7932H22.6875L19.0972 28.2572C18.46 28.8718 17.4508 28.8729 16.8125 28.2595L13.2045 24.7932H10.7953C9.30516 24.7932 7.87622 25.3852 6.82258 26.4388C5.76893 27.4925 5.17693 28.9214 5.17693 30.4115V39.2609H8.95269V32.027C8.95269 31.1181 9.69081 30.38 10.5998 30.38C11.5087 30.38 12.2468 31.1181 12.2468 32.027V39.2609H23.6602V32.027C23.6602 31.1181 24.3981 30.38 25.3073 30.38C26.2162 30.38 26.9543 31.1181 26.9543 32.027V39.2609ZM116.471 118.118H87.6237C86.7141 118.118 85.9767 117.381 85.9767 116.471V105.975C85.9767 103.611 86.9158 101.344 88.587 99.6725C90.2586 98.0012 92.5254 97.0621 94.8892 97.0621H97.9614C98.3868 97.0621 98.7957 97.2268 99.1026 97.5214L102.045 100.348L104.973 97.5237C105.28 97.2275 105.69 97.0621 106.116 97.0621H109.206C111.569 97.0621 113.836 98.0012 115.508 99.6725C117.179 101.344 118.118 103.611 118.118 105.975V116.471C118.118 117.381 117.381 118.118 116.471 118.118ZM111.048 114.824H114.824V105.975C114.824 104.484 114.232 103.056 113.178 102.002C112.125 100.948 110.696 100.356 109.206 100.356H106.781L103.191 103.82C102.554 104.435 101.545 104.436 100.906 103.823L97.2983 100.356H94.8892C93.399 100.356 91.9701 100.948 90.9165 102.002C89.8628 103.056 89.2708 104.484 89.2708 105.975V114.824H93.0466V107.59C93.0466 106.681 93.7847 105.943 94.6936 105.943C95.6028 105.943 96.3407 106.681 96.3407 107.59V114.824H107.754V107.59C107.754 106.681 108.492 105.943 109.401 105.943C110.31 105.943 111.048 106.681 111.048 107.59V114.824ZM100.572 66.1193V31.6308C100.572 27.3423 97.0955 23.8661 92.8073 23.8661H41.676C40.7668 23.8661 40.0289 23.128 40.0289 22.219C40.0289 21.3099 40.7668 20.572 41.676 20.572H92.8073C98.9148 20.572 103.866 25.523 103.866 31.6308V66.1193L107.875 62.8955C108.583 62.3259 109.621 62.4386 110.19 63.147C110.76 63.8553 110.648 64.8929 109.939 65.4626L103.251 70.8409C102.648 71.3256 101.79 71.3256 101.187 70.8409L94.4988 65.4626C93.7906 64.8929 93.6779 63.8553 94.2475 63.147C94.8172 62.4386 95.8548 62.3259 96.5633 62.8955C96.5633 62.8955 98.9023 64.7767 100.572 66.1193ZM16.3063 54.0906L12.2979 57.3143C11.5894 57.884 10.5518 57.7713 9.98211 57.0628C9.41246 56.3546 9.52493 55.3169 10.2334 54.7473L16.9214 49.3692C17.524 48.8842 18.3828 48.8842 18.9856 49.3692L25.6736 54.7473C26.3819 55.3169 26.4946 56.3546 25.9249 57.0628C25.3553 57.7713 24.3176 57.884 23.6092 57.3143C23.6092 57.3143 21.2701 55.4334 19.6005 54.0906V88.3701C19.6005 92.6586 23.0769 96.1348 27.3652 96.1348H79.471C80.38 96.1348 81.1181 96.8729 81.1181 97.7819C81.1181 98.691 80.38 99.4289 79.471 99.4289H27.3652C21.2576 99.4289 16.3063 94.4779 16.3063 88.3701V54.0906ZM37.9885 75.6802C37.959 75.7122 37.9287 75.7437 37.8976 75.775L37.8957 75.7769C37.3073 76.3654 36.5887 76.6656 35.7572 76.6668H35.7532L32.2416 76.6757C30.5748 76.6795 29.2073 75.323 29.2035 73.6543C29.1873 68.8899 29.1694 64.1256 29.1532 59.3583V59.3555C29.1532 58.5212 29.448 57.8047 30.0355 57.2132C30.6242 56.6207 31.3383 56.3216 32.1765 56.3179C32.1765 56.3179 35.6835 56.3106 35.688 56.3106C36.0355 56.3089 36.3696 56.3666 36.6814 56.4736C36.9678 56.0202 37.2772 55.5699 37.5849 55.1381C38.1852 54.2955 38.8216 53.5842 38.9332 53.1256L40.4798 46.7581C41.0896 44.2407 43.6485 42.6809 46.1659 43.2934C48.6802 43.903 50.2369 46.4569 49.6315 48.9718L48.1647 55.1925C48.4769 55.1972 48.8703 55.2021 49.3134 55.2052L56.836 55.1946C56.8849 55.1943 56.9339 55.1965 56.9826 55.2007C58.3277 55.319 59.1953 55.831 59.7609 56.5002C60.3294 57.1727 60.6216 58.0628 60.6172 59.131V59.1334C60.611 60.1967 60.1783 61.2475 59.3748 61.9943C59.5793 62.4913 59.6859 63.0633 59.6823 63.7066C59.6767 64.9158 59.1353 66.0809 58.0266 66.8212C58.2085 67.2562 58.3176 67.7442 58.3148 68.2823C58.3094 69.4835 57.7741 70.6381 56.6908 71.3786C56.8866 71.8136 57.0073 72.3061 57.0049 72.8572V72.8595C56.9927 75.0037 55.1906 76.7621 53.095 76.808C53.0845 76.8082 53.0739 76.8085 53.0633 76.8085L40.3026 76.8407H40.2986C39.9492 76.8407 39.5341 76.7456 39.0913 76.4962C38.7772 76.319 38.4012 76.0181 37.9885 75.6802ZM38.7325 59.5929L38.7755 72.2741C39.1388 72.4428 39.4699 72.6372 39.6941 72.8197C39.9882 73.0588 40.4129 73.3939 40.6061 73.5459C42.56 73.5409 53.0343 73.5143 53.0381 73.5143C53.3946 73.4988 53.708 73.2077 53.7108 72.8419C53.711 72.6237 53.5539 72.4861 53.4249 72.3715C53.2313 72.1995 53.0205 72.0779 52.8654 71.992C52.2077 71.6275 51.8805 70.8637 52.0701 70.1362C52.2595 69.4085 52.9179 68.9016 53.6699 68.9045C54.4372 68.9073 55.0186 68.7656 55.0207 68.267V68.2647C55.0233 67.8226 54.6021 67.5908 54.3812 67.5007C53.6506 67.2033 53.2336 66.4296 53.3868 65.656C53.5398 64.8821 54.2197 64.3256 55.0085 64.3285C55.796 64.3313 56.3861 64.1953 56.3882 63.6913V63.6889C56.3903 63.3103 56.1605 63.0854 55.8087 63.0099C54.9593 62.8275 54.3976 62.0165 54.5254 61.1569C54.6534 60.2976 55.427 59.6854 56.2929 59.7583C56.8788 59.8077 57.3207 59.5374 57.323 59.1172C57.324 58.9254 57.3473 58.7475 57.2452 58.6268C57.1513 58.5158 56.9842 58.5052 56.7725 58.4887L49.311 58.4993C49.3063 58.4993 49.3019 58.4993 49.2972 58.4993C47.9179 58.4899 47.2847 58.4901 46.9256 58.4365C46.2889 58.3416 45.9826 58.1546 45.6228 57.8306L45.6223 57.8303C44.8543 57.1388 44.5503 56.1593 44.7877 55.1607L46.4261 48.2125C46.4268 48.2092 46.4275 48.2059 46.4285 48.2026C46.6115 47.4466 46.1452 46.6776 45.3892 46.4946L45.3875 46.4941C44.632 46.3103 43.8642 46.7783 43.6812 47.5339L42.1341 53.9035C41.9917 54.4894 41.4388 55.4113 40.7094 56.4322C40.0028 57.4214 39.0997 58.5703 38.7325 59.5929ZM32.4482 59.6113C32.4638 64.2009 32.4812 68.7906 32.4967 73.3809L35.4852 73.3734L35.4383 59.6052L32.4482 59.6113ZM17.9534 1.88281C22.8572 1.88281 26.8383 5.86399 26.8383 10.7675C26.8383 15.6713 22.8572 19.6525 17.9534 19.6525C13.0499 19.6525 9.06869 15.6713 9.06869 10.7675C9.06869 5.86399 13.0499 1.88281 17.9534 1.88281ZM17.9534 5.17693C14.868 5.17693 12.3628 7.68211 12.3628 10.7675C12.3628 13.8532 14.868 16.3583 17.9534 16.3583C21.039 16.3583 23.5442 13.8532 23.5442 10.7675C23.5442 7.68211 21.039 5.17693 17.9534 5.17693ZM102.048 77.4459C106.951 77.4459 110.932 81.427 110.932 86.3306C110.932 91.2343 106.951 95.2155 102.048 95.2155C97.1438 95.2155 93.1626 91.2343 93.1626 86.3306C93.1626 81.427 97.1438 77.4459 102.048 77.4459ZM102.048 80.74C98.9619 80.74 96.4567 83.2452 96.4567 86.3306C96.4567 89.4162 98.9619 91.9214 102.048 91.9214C105.133 91.9214 107.638 89.4162 107.638 86.3306C107.638 83.2452 105.133 80.74 102.048 80.74ZM76.6047 50.016C78.1774 48.0494 80.0358 47.0809 82.9887 47.0809C87.471 47.0809 91.0193 50.4263 91.0193 54.4254C91.0193 56.9569 89.9654 59.5085 88.1837 62.04C85.7748 65.4628 82.0092 68.8974 78.1767 72.3183C77.2767 73.1233 75.932 73.1233 75.0332 72.3195C71.1995 68.8974 67.4339 65.4628 65.0249 62.04C63.2433 59.5085 62.1894 56.9569 62.1894 54.4254C62.1894 50.4263 65.7376 47.0809 70.22 47.0809C73.1729 47.0809 75.031 48.0494 76.6047 50.016ZM76.6042 69.3059C80.0212 66.2496 83.3376 63.2023 85.4899 60.1442C86.8362 58.2313 87.7252 56.3383 87.7252 54.4254C87.7252 52.1353 85.5555 50.375 82.9887 50.375C80.8534 50.375 79.6673 51.2348 78.5835 52.9035L78.5819 52.9063C78.1327 53.5948 77.4235 53.9779 76.6052 53.9779C75.779 53.9779 75.0694 53.5901 74.627 52.9042C73.5419 51.235 72.3558 50.375 70.22 50.375C67.6529 50.375 65.4835 52.1353 65.4835 54.4254C65.4835 56.3383 66.3725 58.2313 67.7188 60.1442C69.871 63.2023 73.1875 66.2496 76.6042 69.3059Z" fill="black"/>
</svg>
