<svg width="120" height="120" viewBox="0 0 120 120" fill="none" xmlns="http://www.w3.org/2000/svg">
<path d="M36.2961 104.95C34.8658 107.862 34.0308 111.03 33.8399 114.269C33.8253 114.524 33.863 114.779 33.9507 115.019C34.0384 115.259 34.1742 115.479 34.3498 115.664C34.5254 115.85 34.737 115.997 34.9718 116.098C35.2065 116.199 35.4594 116.251 35.7149 116.251H84.2868C84.5423 116.251 84.7951 116.199 85.0299 116.098C85.2646 115.997 85.4763 115.85 85.6519 115.664C85.8274 115.479 85.9632 115.259 86.0509 115.019C86.1386 114.779 86.1763 114.524 86.1618 114.269C85.9794 111.029 85.1506 107.859 83.7243 104.944C94.5132 99.5961 103.177 90.7574 108.309 79.8638C113.44 68.9703 114.738 56.6618 111.992 44.9374C109.245 33.2131 102.616 22.7616 93.1797 15.2806C83.7437 7.79963 72.0557 3.72852 60.014 3.72852C47.9722 3.72852 36.2842 7.79963 26.8482 15.2806C17.4122 22.7616 10.7826 33.2131 8.03606 44.9374C5.28958 56.6618 6.58757 68.9703 11.7192 79.8638C16.8509 90.7574 25.5147 99.5961 36.3036 104.944L36.2961 104.95ZM37.7961 112.501C38.5495 107.62 41.0239 103.17 44.7721 99.9546C48.5204 96.7393 53.2953 94.971 58.2336 94.9693H59.8368H59.9999C59.9999 94.9693 60.1086 94.9693 60.163 94.9693H61.7661C66.7046 94.972 71.4794 96.7406 75.228 99.9556C78.9767 103.171 81.4522 107.62 82.2074 112.501H37.7961ZM68.9868 92.318C72.0068 90.375 74.3165 87.5064 75.5702 84.1413C76.8239 80.7762 76.9542 77.0956 75.9416 73.6503C74.929 70.2049 72.828 67.1801 69.953 65.0284C67.0779 62.8767 63.5834 61.7139 59.9924 61.7139C56.4013 61.7139 52.9068 62.8767 50.0318 65.0284C47.1567 67.1801 45.0557 70.2049 44.0432 73.6503C43.0306 77.0956 43.1609 80.7762 44.4146 84.1413C45.6683 87.5064 47.978 90.375 50.998 92.318C49.7501 92.7092 48.536 93.2015 47.368 93.7899C38.6909 90.8016 31.3545 84.8336 26.6625 76.9465C21.9706 69.0593 20.2271 59.7641 21.742 50.7128C23.2569 41.6615 27.932 33.4405 34.9364 27.5109C41.9409 21.5814 50.8208 18.3275 59.998 18.3275C69.1752 18.3275 78.0552 21.5814 85.0596 27.5109C92.064 33.4405 96.7391 41.6615 98.254 50.7128C99.7689 59.7641 98.0255 69.0593 93.3335 76.9465C88.6416 84.8336 81.3051 90.8016 72.628 93.7899C71.4558 93.2022 70.2381 92.71 68.9868 92.318ZM59.8368 91.2193C56.4368 91.1762 53.192 89.7898 50.8107 87.3627C48.4293 84.9357 47.1049 81.6651 47.1264 78.265C47.1479 74.8648 48.5138 71.6113 50.9257 69.2146C53.3376 66.818 56.5997 65.4728 59.9999 65.4728C63.4001 65.4728 66.6622 66.818 69.0741 69.2146C71.486 71.6113 72.8518 74.8648 72.8734 78.265C72.8949 81.6651 71.5705 84.9357 69.1891 87.3627C66.8078 89.7898 63.5629 91.1762 60.163 91.2193H59.8368ZM59.9999 7.5005C71.2175 7.49867 82.1048 11.2975 90.8864 18.2774C99.668 25.2573 105.826 35.0065 108.355 45.9351C110.885 56.8638 109.637 68.3272 104.816 78.4558C99.9945 88.5844 91.8837 96.7806 81.8061 101.708C80.3691 99.6412 78.6231 97.8073 76.6293 96.2705C85.6583 92.4369 93.085 85.6006 97.6517 76.9192C102.218 68.2379 103.644 58.245 101.688 48.6328C99.7322 39.0206 94.5142 30.3798 86.9179 24.1737C79.3216 17.9675 69.8138 14.5774 60.0046 14.5774C50.1954 14.5774 40.6876 17.9675 33.0913 24.1737C25.4949 30.3798 20.2769 39.0206 18.3208 48.6328C16.3647 58.245 17.7908 68.2379 22.3575 76.9192C26.9241 85.6006 34.3508 92.4369 43.3799 96.2705C41.3656 97.7843 39.6103 99.615 38.1824 101.691C28.1134 96.7583 20.0117 88.5611 15.1972 78.435C10.3827 68.3089 9.13925 56.8509 11.6694 45.9278C14.1995 35.0046 20.3542 25.2602 29.1305 18.2822C37.9068 11.3042 48.7876 7.50392 59.9999 7.5005Z" fill="black"/>
<path d="M76.9939 23.7969H43.0039C42.5066 23.7969 42.0297 23.9944 41.6781 24.346C41.3264 24.6977 41.1289 25.1746 41.1289 25.6719V49.1806C41.1289 49.5156 41.2187 49.8444 41.3888 50.1329C41.559 50.4215 41.8033 50.6591 42.0964 50.8212L59.0914 60.2262C59.3692 60.3799 59.6815 60.4605 59.9989 60.4605C60.3164 60.4605 60.6286 60.3799 60.9064 60.2262L77.9014 50.8212C78.1945 50.6591 78.4388 50.4215 78.609 50.1329C78.7791 49.8444 78.8689 49.5156 78.8689 49.1806V25.6719C78.8689 25.1746 78.6714 24.6977 78.3197 24.346C77.9681 23.9944 77.4912 23.7969 76.9939 23.7969ZM75.1189 48.0763L59.9989 56.4369L44.8789 48.0706V27.5469H75.1189V48.0763Z" fill="black"/>
<path d="M52.8112 42.7343L52.2787 45.8449C52.17 46.4698 52.2388 47.1127 52.4771 47.7005C52.7154 48.2882 53.1138 48.7974 53.6269 49.1702C54.1401 49.543 54.7475 49.7644 55.3802 49.8093C56.0129 49.8542 56.6455 49.7208 57.2062 49.4243L59.9999 47.9562L62.7937 49.4243C63.3546 49.7191 63.9868 49.8511 64.6188 49.8054C65.2508 49.7597 65.8575 49.5382 66.3703 49.1659C66.883 48.7936 67.2814 48.2853 67.5205 47.6984C67.7595 47.1116 67.8297 46.4696 67.723 45.8449L67.1887 42.7343L69.4499 40.5293C69.9033 40.0873 70.2242 39.5273 70.3763 38.9126C70.5284 38.2979 70.5057 37.6529 70.3107 37.0505C70.1157 36.448 69.7563 35.912 69.2728 35.503C68.7894 35.0939 68.2013 34.8281 67.5749 34.7356L64.4512 34.2837L63.0543 31.4506C62.7733 30.8825 62.339 30.4044 61.8007 30.0701C61.2623 29.7357 60.6412 29.5586 60.0074 29.5586C59.3737 29.5586 58.7525 29.7357 58.2142 30.0701C57.6758 30.4044 57.2416 30.8825 56.9605 31.4506L55.5637 34.2837L52.4399 34.7356C51.8135 34.8281 51.2254 35.0939 50.742 35.503C50.2586 35.912 49.8991 36.448 49.7041 37.0505C49.5091 37.6529 49.4864 38.2979 49.6385 38.9126C49.7906 39.5273 50.1115 40.0873 50.5649 40.5293L52.8112 42.7343ZM56.2818 37.9681C56.8265 37.888 57.3436 37.6769 57.7888 37.353C58.2339 37.029 58.5938 36.6018 58.8374 36.1081L59.9999 33.7493L61.1624 36.1062C61.4066 36.5997 61.7669 37.0266 62.2123 37.3502C62.6578 37.6739 63.1751 37.8846 63.7199 37.9643L66.3187 38.3393L64.4437 40.1712C64.0505 40.555 63.7562 41.0285 63.5861 41.551C63.416 42.0735 63.375 42.6294 63.4668 43.1712L63.9112 45.7587L61.5843 44.5362C61.0968 44.2812 60.5548 44.1481 60.0046 44.1481C59.4544 44.1481 58.9124 44.2812 58.4249 44.5362L56.0999 45.7587L56.5443 43.1693C56.6362 42.6275 56.5953 42.0715 56.4252 41.549C56.2551 41.0265 55.9607 40.5531 55.5674 40.1693L53.6924 38.3374L56.2818 37.9681Z" fill="black"/>
</svg>
