<svg width="120" height="120" viewBox="0 0 120 120" fill="none" xmlns="http://www.w3.org/2000/svg">
<path d="M48.0664 69.2793L69.2764 48.0693L71.9277 50.7205L50.7177 71.9305L48.0664 69.2793Z" fill="black"/>
<path d="M63.5242 62.6437C61.3305 64.8375 61.3305 68.4 63.5242 70.5938C64.593 71.6625 65.9992 72.2437 67.4992 72.2437C68.9992 72.2437 70.4055 71.6625 71.4742 70.5938C73.668 68.4 73.668 64.8375 71.4742 62.6437C69.3555 60.525 65.643 60.525 63.5242 62.6437ZM68.8305 67.95C68.118 68.6625 66.8805 68.6625 66.1867 67.95C65.4555 67.2188 65.4555 66.0375 66.1867 65.3063C66.543 64.95 67.0117 64.7625 67.518 64.7625C68.0242 64.7625 68.493 64.95 68.8492 65.3063C69.5805 66.0375 69.5805 67.2188 68.8492 67.95H68.8305Z" fill="black"/>
<path d="M48.5242 49.3868C46.3305 51.5806 46.3305 55.1431 48.5242 57.3368C49.593 58.4056 50.9992 58.9868 52.4992 58.9868C53.9992 58.9868 55.4055 58.4056 56.4742 57.3368C58.668 55.1431 58.668 51.5806 56.4742 49.3868C54.2805 47.1931 50.643 47.2681 48.5242 49.3868ZM53.8305 54.6931C53.118 55.4056 51.8805 55.4056 51.1867 54.6931C50.4555 53.9618 50.4555 52.7806 51.1867 52.0493C51.543 51.6931 52.0117 51.5056 52.518 51.5056C53.0242 51.5056 53.493 51.6931 53.8492 52.0493C54.5805 52.7806 54.5805 53.9618 53.8492 54.6931H53.8305Z" fill="black"/>
<path d="M105.001 26.2492V110.624H108.751V28.1242H116.251C116.982 28.1242 117.638 27.7117 117.957 27.0367C118.257 26.3805 118.163 25.593 117.695 25.0492L98.9445 2.54922C98.232 1.68672 96.7695 1.68672 96.057 2.54922L77.307 25.0492C76.8383 25.6117 76.7445 26.3805 77.0445 27.0367C77.3445 27.693 78.0195 28.1242 78.7508 28.1242H86.2508V59.9992C86.2508 74.4742 74.4758 86.2492 60.0008 86.2492C52.7258 86.2492 45.7133 83.193 40.7445 77.8492L37.9883 80.3992C43.6508 86.493 51.6758 89.9992 59.982 89.9992C76.5195 89.9992 89.982 76.5367 89.982 59.9992V26.2492C89.982 25.218 89.1383 24.3742 88.107 24.3742H82.7445L97.482 6.67422L112.22 24.3742H106.857C105.826 24.3742 104.982 25.218 104.982 26.2492H105.001Z" fill="black"/>
<path d="M14.9998 93.75V9.375H11.2498V91.875H3.74982C3.01857 91.875 2.36232 92.2875 2.04357 92.9625C1.74357 93.6188 1.83732 94.4062 2.30607 94.95L21.0561 117.45C21.4123 117.881 21.9373 118.125 22.4998 118.125C23.0623 118.125 23.5873 117.881 23.9436 117.45L42.6936 94.95C43.1623 94.3875 43.2561 93.6188 42.9561 92.9625C42.6561 92.3063 41.9811 91.875 41.2498 91.875H33.7498V60C33.7498 45.525 45.5248 33.75 59.9998 33.75C67.2748 33.75 74.2873 36.8062 79.2561 42.15L82.0123 39.6C76.3498 33.5063 68.3248 30 60.0186 30C43.4811 30 30.0186 43.4625 30.0186 60V93.75C30.0186 94.7813 30.8623 95.625 31.8936 95.625H37.2561L22.5186 113.325L7.78107 95.625H13.1436C14.1748 95.625 15.0186 94.7813 15.0186 93.75H14.9998Z" fill="black"/>
</svg>
