<svg width="120" height="120" viewBox="0 0 120 120" fill="none" xmlns="http://www.w3.org/2000/svg">
<path d="M103.364 25.3191C102.441 25.6193 101.935 26.6112 102.236 27.5344C103.673 31.9547 104.402 36.5773 104.402 41.2737C104.402 45.9701 103.673 50.5924 102.236 55.013C101.867 56.1485 102.715 57.3148 103.908 57.3148C104.649 57.3148 105.338 56.8427 105.579 56.1C107.131 51.3281 107.918 46.3397 107.918 41.2737C107.918 36.2077 107.131 31.2192 105.579 26.4473C105.279 25.5239 104.287 25.0188 103.364 25.3191Z" fill="black"/>
<path d="M16.6359 25.319C15.713 25.019 14.7211 25.5238 14.4206 26.447C12.8688 31.2189 12.082 36.2073 12.082 41.2734C12.082 46.3394 12.8688 51.3278 14.4206 56.0997C14.7204 57.0215 15.7111 57.5284 16.6359 57.2277C17.5591 56.9275 18.0642 55.9356 17.764 55.0124C16.3266 50.5921 15.5977 45.9695 15.5977 41.2731C15.5977 36.5767 16.3266 31.9544 17.764 27.5338C18.0642 26.6111 17.5591 25.6192 16.6359 25.319Z" fill="black"/>
<path d="M116.134 20.0421C115.79 19.1344 114.776 18.6764 113.867 19.0209C112.959 19.3648 112.502 20.3794 112.846 21.2874C115.26 27.6626 116.484 34.3868 116.484 41.2732C116.484 48.1596 115.26 54.8841 112.846 61.2593C112.408 62.4157 113.27 63.6401 114.49 63.6401C115.199 63.6401 115.868 63.2072 116.134 62.5043C118.699 55.7299 120 48.5866 120 41.2732C120 33.9598 118.699 26.8167 116.134 20.0421Z" fill="black"/>
<path d="M6.13266 19.0227C5.22445 18.6786 4.21008 19.1361 3.86625 20.0439C1.30078 26.8185 0 33.9615 0 41.275C0 48.5884 1.30078 55.7317 3.86625 62.5061C4.21102 63.4159 5.22703 63.8706 6.13266 63.5272C7.04063 63.1834 7.49789 62.1688 7.15383 61.2608C4.73977 54.8858 3.51562 48.1616 3.51562 41.275C3.51562 34.3883 4.73977 27.6641 7.15383 21.2891C7.49789 20.3811 7.04063 19.3665 6.13266 19.0227Z" fill="black"/>
<path d="M96.9141 41.2734C96.9141 20.9189 80.3545 4.35938 60 4.35938C39.6455 4.35938 23.0859 20.9189 23.0859 41.2734C23.0859 51.9923 27.6797 61.6573 35.0002 68.4073L29.5786 98.1044C29.1701 100.342 31.4648 102.109 33.5177 101.151L42.7266 96.874V112.708C42.7266 115.015 45.2684 116.404 47.2087 115.192L60 107.201L72.7915 115.192C74.7394 116.409 77.2737 115.004 77.2737 112.707V96.874L86.4797 101.15C88.5363 102.109 90.8302 100.342 90.4216 98.1047L88.8162 89.3086C88.6418 88.3535 87.727 87.7209 86.7712 87.8951C85.8162 88.0694 85.1834 88.9849 85.3577 89.94L86.7164 97.3837L77.2734 92.9976V73.8881C78.8885 73.0291 80.4328 72.0546 81.8948 70.9739L83.8763 81.8236C84.0312 82.6718 84.7706 83.2659 85.6034 83.2659C85.7081 83.2659 85.8145 83.2563 85.9212 83.2369C86.8762 83.0625 87.5088 82.147 87.3345 81.1917L84.9996 68.407C92.3203 61.6573 96.9141 51.9923 96.9141 41.2734ZM26.6016 41.2734C26.6016 22.8574 41.584 7.875 60 7.875C78.416 7.875 93.3984 22.8574 93.3984 41.2734C93.3984 59.6895 78.416 74.6719 60 74.6719C41.584 74.6719 26.6016 59.6895 26.6016 41.2734ZM33.2841 97.3833L38.1054 70.9739C39.5672 72.0544 41.1115 73.0291 42.7266 73.8879V92.9974L33.2841 97.3833ZM73.7578 111.651L61.5577 104.029C60.6115 103.434 59.3888 103.434 58.4475 104.026L46.2422 111.651V75.5264C50.4961 77.2411 55.1393 78.1875 60 78.1875C64.8607 78.1875 69.5039 77.2411 73.7578 75.5264V111.651Z" fill="black"/>
<path d="M37.8405 54.5749C38.7047 54.1324 39.0464 53.073 38.6037 52.2091C36.8604 48.8058 35.9766 45.1263 35.9766 41.2734C35.9766 28.0268 46.7534 17.25 60 17.25C73.2466 17.25 84.0234 28.0268 84.0234 41.2734C84.0234 54.5201 73.2466 65.2969 60 65.2969C53.5833 65.2969 47.5505 62.798 43.0127 58.2607C42.3262 57.5742 41.2132 57.5742 40.527 58.2607C39.8405 58.9472 39.8405 60.0602 40.527 60.7465C45.7284 65.948 52.6441 68.8125 60 68.8125C75.1852 68.8125 87.5391 56.4586 87.5391 41.2734C87.5391 26.0883 75.1852 13.7344 60 13.7344C44.8148 13.7344 32.4609 26.0883 32.4609 41.2734C32.4609 45.6891 33.4748 49.9073 35.4745 53.8118C35.9173 54.6759 36.9769 55.0177 37.8405 54.5749Z" fill="black"/>
<path d="M54.6946 30.4434C53.2248 30.4434 51.9351 31.2749 51.328 32.6137L43.4535 49.9853C43.0358 50.9062 43.1136 51.9634 43.6614 52.8133C44.2094 53.6634 45.1403 54.1708 46.1519 54.1708H73.8498C74.9179 54.1708 75.9067 53.5928 76.4308 52.6621C76.9546 51.7319 76.9358 50.5865 76.3827 49.6745L71.0952 40.937C70.0926 39.2802 68.338 38.2909 66.4014 38.2909C64.5107 38.2909 62.7953 39.2357 61.7821 40.8224L58.0612 32.6134C57.4541 31.2749 56.1641 30.4434 54.6946 30.4434ZM47.0099 50.6552L54.5301 34.0652C54.5469 34.0281 54.5781 33.959 54.6946 33.959C54.8111 33.959 54.8422 34.0279 54.8591 34.0649L62.379 50.6552H47.0099ZM64.7155 42.757C65.2344 41.8991 66.0674 41.8066 66.4014 41.8066C66.7354 41.8066 67.5683 41.8991 68.0872 42.757L72.8666 50.6549H66.239L63.5399 44.7002L64.7155 42.757Z" fill="black"/>
<path d="M72.0281 29.184C72.0281 26.0811 69.5037 23.5566 66.4008 23.5566C63.2979 23.5566 60.7734 26.0811 60.7734 29.184C60.7734 32.2869 63.2979 34.8113 66.4008 34.8113C69.5037 34.8113 72.0281 32.2871 72.0281 29.184ZM64.2891 29.184C64.2891 28.0196 65.2364 27.0723 66.4008 27.0723C67.5652 27.0723 68.5125 28.0196 68.5125 29.184C68.5125 30.3484 67.5652 31.2957 66.4008 31.2957C65.2364 31.2959 64.2891 30.3486 64.2891 29.184Z" fill="black"/>
</svg>
