<svg width="120" height="120" viewBox="0 0 120 120" fill="none" xmlns="http://www.w3.org/2000/svg">
<path d="M84.926 74.7389C87.2276 73.1285 88.6628 70.4897 88.6628 67.7201C88.6628 66.4889 88.3784 65.2493 87.812 64.0301C87.0668 62.4557 87.0236 60.6341 87.6908 59.0321C88.3556 57.4361 89.672 56.1917 91.304 55.6157C94.7564 54.3905 96.9872 51.2261 96.9872 47.5529C96.9872 43.8797 94.7564 40.7405 91.3028 39.5153C88.8596 38.6513 87.218 36.3305 87.218 33.7397C87.218 32.8565 87.4244 31.9409 87.8096 31.1081C89.102 28.4141 88.9412 25.4369 87.3704 22.9421C85.7948 20.4389 83.0324 18.8849 80.162 18.8849C78.914 18.8849 77.666 19.1693 76.4552 19.7309C73.0448 21.3041 69.1868 19.5125 68.0312 16.2437C66.806 12.7913 63.6512 10.5605 59.9936 10.5605C56.336 10.5605 53.1548 12.7913 51.9296 16.2449C51.0668 18.6881 48.746 20.3285 46.1552 20.3285C45.2708 20.3285 44.3552 20.1221 43.5236 19.7369C40.832 18.4469 37.8584 18.6053 35.3648 20.1749C32.858 21.7529 31.3004 24.5249 31.3004 27.4109C31.3004 28.6409 31.5848 29.8793 32.1464 31.0913C32.5376 31.9385 32.7452 32.8541 32.7452 33.7385C32.7452 36.3293 31.1036 38.6501 28.6592 39.5141C25.2068 40.7393 22.976 43.8929 22.976 47.5517C22.976 51.2105 25.2068 54.3893 28.6604 55.6157C31.1036 56.4797 32.7452 58.8005 32.7452 61.3901C32.7452 62.2745 32.5388 63.1901 32.1512 64.0277C30.1328 68.2865 31.9592 72.5501 35.0408 74.7077L21.9212 98.2793C21.6872 98.6993 21.7268 99.2177 22.0208 99.5969C22.3148 99.9761 22.8056 100.147 23.2712 100.024L38.0168 96.1949L46.4972 108.904C46.7228 109.241 47.0996 109.438 47.4956 109.438C47.5688 109.438 47.642 109.432 47.7152 109.418C48.188 109.33 48.5624 108.969 48.6668 108.501L54.4832 82.5809C55.9832 83.8445 57.9128 84.5705 59.996 84.5705C62.0792 84.5705 63.9956 83.8433 65.4848 82.5857L71.324 108.502C71.4296 108.971 71.804 109.331 72.2768 109.419C72.35 109.432 72.4232 109.439 72.4952 109.439C72.8924 109.439 73.2692 109.243 73.4948 108.904L81.95 96.1961L96.722 100.025C97.19 100.148 97.6796 99.9773 97.9724 99.5981C98.2652 99.2189 98.3048 98.6993 98.0708 98.2793L84.9272 74.7377L84.926 74.7389ZM46.9376 105.243L39.5384 94.1549C39.3128 93.8165 38.9348 93.6209 38.54 93.6209C38.4404 93.6209 38.3384 93.6329 38.2388 93.6593L25.3808 96.9989L37.1744 75.8105C37.3544 75.8729 37.538 75.9197 37.7216 75.9689C37.7732 75.9821 37.8236 76.0013 37.8752 76.0133C38.1608 76.0829 38.4512 76.1369 38.7452 76.1753C38.7968 76.1825 38.8496 76.1825 38.9012 76.1885C39.1364 76.2149 39.374 76.2317 39.6128 76.2377C39.7148 76.2401 39.8168 76.2353 39.9188 76.2341C40.1108 76.2317 40.3028 76.2233 40.496 76.2077C40.6112 76.1981 40.7252 76.1849 40.8404 76.1705C41.0264 76.1465 41.2112 76.1165 41.3972 76.0805C41.5112 76.0589 41.6252 76.0373 41.7392 76.0097C41.9396 75.9629 42.1388 75.9053 42.338 75.8429C42.434 75.8129 42.5312 75.7877 42.6272 75.7541C42.9224 75.6521 43.2164 75.5369 43.508 75.4013C44.3576 75.0101 45.2732 74.8025 46.1564 74.8025C48.7472 74.8025 51.068 76.4441 51.9356 78.8981C52.0484 79.2089 52.1708 79.4885 52.298 79.7561C52.3376 79.8389 52.3796 79.9193 52.4204 79.9985C52.4636 80.0813 52.502 80.1701 52.5476 80.2493L46.9388 105.244L46.9376 105.243ZM59.9948 82.1717C57.8492 82.1717 55.9232 81.1361 54.8216 79.3709C54.5756 79.0013 54.38 78.6029 54.1928 78.0881C52.9916 74.6873 49.7612 72.4025 46.1552 72.4025C44.9264 72.4025 43.6628 72.6857 42.5 73.2233C41.2616 73.7969 40.0076 73.9541 38.8364 73.7549C38.2652 73.6565 37.7108 73.4801 37.1864 73.2113C34.5116 71.8745 32.7092 68.4581 34.3256 65.0453C34.862 63.8849 35.1452 62.6201 35.1452 61.3913C35.1452 57.7853 32.8604 54.5561 29.462 53.3537C26.45 52.2845 25.376 49.6553 25.376 47.5529C25.376 45.4613 26.45 42.8465 29.4608 41.7785C32.8604 40.5761 35.1452 37.3457 35.1452 33.7397C35.1452 32.5097 34.862 31.2461 34.3244 30.0857C33.9104 29.1905 33.7004 28.2917 33.7004 27.4121C33.7004 25.3433 34.8284 23.3489 36.644 22.2065C38.4236 21.0869 40.5536 20.9753 42.5024 21.9089C43.6628 22.4453 44.9276 22.7285 46.1564 22.7285C49.7624 22.7285 52.9928 20.4437 54.194 17.0453C55.2632 14.0333 57.8924 12.9593 59.996 12.9593C62.0876 12.9593 64.7024 14.0333 65.7704 17.0441C66.9728 20.4437 70.2128 22.7285 73.8344 22.7285C75.0632 22.7285 76.2848 22.4525 77.4632 21.9077C78.3572 21.4937 79.2656 21.2837 80.1632 21.2837C82.2164 21.2837 84.2 22.4093 85.34 24.2201C86.4632 26.0021 86.5736 28.1345 85.6388 30.0857C85.1036 31.2473 84.8192 32.5109 84.8192 33.7385C84.8192 37.3445 87.104 40.5749 90.5024 41.7761C93.5144 42.8453 94.5884 45.4601 94.5884 47.5517C94.5884 49.6553 93.5144 52.2833 90.5048 53.3525C88.2344 54.1529 86.402 55.8857 85.4768 58.1069C84.548 60.3353 84.608 62.8685 85.64 65.0465C86.054 65.9393 86.264 66.8381 86.264 67.7189C86.264 70.0001 84.8936 72.1685 82.778 73.2377C81.128 74.0633 79.2428 74.0585 77.462 73.2221C76.2836 72.6773 75.0632 72.4013 73.8344 72.4013C70.2128 72.4013 66.9728 74.6861 65.774 78.0761C65.5868 78.5933 65.3852 79.0037 65.1224 79.3997C64.0412 81.1349 62.1248 82.1705 59.996 82.1705L59.9948 82.1717ZM81.7244 93.6593C81.23 93.5297 80.708 93.7313 80.4248 94.1561L73.0496 105.241L67.418 80.2481C67.4648 80.1653 67.5056 80.0729 67.55 79.9877C67.5884 79.9133 67.628 79.8365 67.6652 79.7597C67.7948 79.4885 67.9184 79.2053 68.0336 78.8873C68.8976 76.4441 71.2292 74.8025 73.8344 74.8025C74.7128 74.8025 75.5948 75.0041 76.448 75.3977C76.7288 75.5297 77.0144 75.6437 77.3024 75.7445C77.3972 75.7781 77.4944 75.8033 77.5892 75.8333C77.7836 75.8945 77.9792 75.9521 78.176 76.0001C78.2888 76.0277 78.4004 76.0493 78.5132 76.0709C78.6968 76.1081 78.8816 76.1393 79.0664 76.1633C79.1816 76.1789 79.2968 76.1921 79.412 76.2029C79.6016 76.2197 79.79 76.2293 79.9796 76.2341C80.0864 76.2365 80.1932 76.2413 80.3 76.2401C80.5208 76.2365 80.7392 76.2221 80.9588 76.2017C81.032 76.1945 81.1052 76.1933 81.1784 76.1849C81.4712 76.1501 81.7616 76.0997 82.0496 76.0325C82.1036 76.0205 82.1564 76.0013 82.2092 75.9881C82.4024 75.9389 82.5968 75.8897 82.7864 75.8273L94.6064 97.0001L81.7256 93.6605L81.7244 93.6593Z" fill="black"/>
<path d="M81.0721 47.5654C81.0721 35.9374 71.6125 26.4766 59.9833 26.4766C48.3541 26.4766 38.8945 35.9362 38.8945 47.5654C38.8945 59.1946 48.3541 68.6542 59.9833 68.6542C71.6125 68.6542 81.0721 59.1946 81.0721 47.5654ZM59.9833 66.2542C49.6789 66.2542 41.2945 57.871 41.2945 47.5654C41.2945 37.2598 49.6777 28.8766 59.9833 28.8766C70.2889 28.8766 78.6721 37.2598 78.6721 47.5654C78.6721 57.871 70.2889 66.2542 59.9833 66.2542Z" fill="black"/>
<path d="M76.8941 42.659C76.5617 41.9354 75.9701 41.3642 75.2153 41.045C74.4257 40.7222 73.5569 40.7234 72.8189 41.0282L64.7957 43.9286C64.6817 42.7442 63.8957 41.363 61.9025 40.8374L55.0601 39.677C54.9905 39.665 54.9185 39.6602 54.8525 39.6602C54.0965 39.665 53.3621 39.8114 52.6685 40.0982C52.6133 40.121 52.5605 40.1486 52.5089 40.1786L48.3305 42.6866C48.1601 42.4574 47.9537 42.2606 47.6825 42.149C47.2877 41.9846 46.8521 41.9858 46.4585 42.149L43.7753 43.2578C42.9593 43.5938 42.5693 44.5322 42.9065 45.3482L46.6817 54.485C46.9361 55.1018 47.5337 55.475 48.1637 55.475C48.3665 55.475 48.5729 55.4354 48.7721 55.3538L51.4553 54.245C52.2713 53.909 52.6613 52.9706 52.3241 52.1546L51.9881 51.3422L52.1429 51.2474L61.7045 52.3346C61.7645 52.3418 61.8245 52.3442 61.8833 52.3442C62.0921 52.3442 62.3009 52.3034 62.4953 52.223L75.1073 47.0138C75.9521 46.6646 76.6265 45.9746 76.9577 45.1202C77.2757 44.303 77.2517 43.4246 76.8941 42.659ZM48.5933 52.829L45.4289 45.1694L46.6349 44.6714L46.7081 44.849L47.7461 47.3618L49.7981 52.3298L48.5921 52.8278L48.5933 52.829ZM74.7221 44.2502C74.6273 44.4938 74.4293 44.6966 74.1917 44.795L61.7705 49.925L52.1429 48.8294C52.0985 48.8246 52.0529 48.8222 52.0073 48.8222C51.9197 48.8222 51.8333 48.8318 51.7481 48.8498L51.4997 48.9038C51.3689 48.9314 51.2441 48.9818 51.1301 49.0514L51.0605 49.0934L49.3229 44.8874L53.6609 42.2846C54.0149 42.1478 54.3869 42.0734 54.7697 42.0602L61.3937 43.1786C62.2493 43.4066 62.3981 43.9166 62.4101 44.1998C62.4185 44.4146 62.3489 44.6714 62.1809 44.8274L57.3029 44.2022C56.6453 44.1146 56.0441 44.5814 55.9601 45.239C55.8761 45.8966 56.3405 46.4978 56.9969 46.5818L62.2313 47.2538C62.4161 47.2826 62.6093 47.267 62.7965 47.2022C62.9837 47.1374 62.7989 47.201 62.8001 47.2022C62.8013 47.2034 62.8085 47.1986 62.8133 47.1974L73.6829 43.2674C73.8821 43.1858 74.1041 43.1858 74.2925 43.2626C74.4821 43.343 74.6309 43.4846 74.7161 43.6694C74.8193 43.8926 74.7761 44.1086 74.7209 44.2514L74.7221 44.2502Z" fill="black"/>
<path d="M22.8968 22.4681C23.0948 22.0457 23.03 21.5489 22.7312 21.1913L14.2352 10.9925C14.0084 10.7189 13.67 10.5605 13.3136 10.5605C12.9584 10.5605 12.62 10.7189 12.392 10.9913L3.88402 21.1901C3.58522 21.5477 3.52162 22.0457 3.71842 22.4669C3.91522 22.8881 4.34002 23.1581 4.80562 23.1581H8.69362V61.1513C8.69362 61.8137 9.23122 62.3513 9.89362 62.3513H16.7216C17.384 62.3513 17.9216 61.8137 17.9216 61.1513V23.1581H21.8096C22.2752 23.1581 22.6988 22.8893 22.8968 22.4681ZM16.7216 20.7593C16.0592 20.7593 15.5216 21.2969 15.5216 21.9593V59.9525H11.0936V21.9581C11.0936 21.2957 10.556 20.7581 9.89362 20.7581H7.37002L13.3136 13.6337L19.2488 20.7581H16.7228L16.7216 20.7593Z" fill="black"/>
<path d="M116.118 21.1894L107.622 10.9906C107.395 10.717 107.057 10.5586 106.7 10.5586C106.345 10.5586 106.007 10.717 105.779 10.9894L97.2707 21.1882C96.9719 21.5458 96.9083 22.0438 97.1051 22.465C97.3019 22.8862 97.7267 23.1562 98.1923 23.1562H102.08V61.1494C102.08 61.8118 102.618 62.3494 103.28 62.3494H110.108C110.771 62.3494 111.308 61.8118 111.308 61.1494V23.1574H115.196C115.662 23.1574 116.086 22.8874 116.284 22.4662C116.482 22.0438 116.417 21.547 116.118 21.1894ZM110.108 20.7574C109.446 20.7574 108.908 21.295 108.908 21.9574V59.9506H104.48V21.9574C104.48 21.295 103.943 20.7574 103.28 20.7574H100.756L106.699 13.633L112.634 20.7574H110.108Z" fill="black"/>
</svg>
