<svg width="120" height="120" viewBox="0 0 120 120" fill="none" xmlns="http://www.w3.org/2000/svg">
<path d="M108.036 98.232V88.5008C108.036 86.457 106.367 84.7883 104.323 84.7883H91.4234V71.8883C91.4234 69.8445 89.7547 68.1758 87.7109 68.1758H61.8922V58.8758C75.7297 57.9008 86.6797 46.3695 86.6797 32.307C86.6797 18.2445 74.7172 5.64453 60.0172 5.64453C45.3172 5.64453 33.3547 17.607 33.3547 32.307C33.3547 47.007 44.3234 57.9195 58.1422 58.8758V68.1758H32.3234C30.2797 68.1758 28.6109 69.8445 28.6109 71.8883V84.7883H15.7109C13.6672 84.7883 11.9984 86.457 11.9984 88.5008V98.232C8.37969 99.0758 5.67969 102.32 5.67969 106.182C5.67969 110.701 9.35469 114.376 13.8734 114.376C18.3922 114.376 22.0672 110.701 22.0672 106.182C22.0672 102.32 19.3672 99.0758 15.7484 98.232V88.5383L45.2422 88.5008V98.232C41.6234 99.0758 38.9234 102.32 38.9234 106.182C38.9234 110.701 42.5984 114.376 47.1172 114.376C51.6359 114.376 55.3109 110.701 55.3109 106.182C55.3109 102.32 52.6109 99.0758 48.9922 98.232V88.5008C48.9922 86.457 47.3234 84.7883 45.2797 84.7883H32.3797V71.9258L87.7109 71.8883V84.7883H74.8109C72.7672 84.7883 71.0984 86.457 71.0984 88.5008V98.232C67.4797 99.0758 64.7797 102.32 64.7797 106.182C64.7797 110.701 68.4547 114.376 72.9734 114.376C77.4922 114.376 81.1672 110.701 81.1672 106.182C81.1672 102.32 78.4672 99.0758 74.8484 98.232V88.5383L104.342 88.5008V98.232C100.723 99.0945 98.0234 102.32 98.0234 106.182C98.0234 110.701 101.698 114.376 106.217 114.376C110.736 114.376 114.411 110.701 114.411 106.182C114.411 102.32 111.711 99.0758 108.092 98.232H108.036ZM50.3234 35.832V34.2758C50.3234 32.982 51.3734 31.9508 52.6484 31.9508H67.3484C68.6422 31.9508 69.6734 33.0008 69.6734 34.2758V35.7195L50.3234 35.832ZM66.0922 28.2008H53.9234C53.2109 27.207 52.5172 25.782 52.5172 23.907C52.5172 19.782 55.8734 16.407 60.0172 16.407C64.1609 16.407 67.5172 19.7633 67.5172 23.907C67.5172 25.782 66.8234 27.1883 66.1109 28.2008H66.0922ZM66.0172 39.4883C66.1672 43.6883 66.7484 49.0508 68.4734 53.5695C65.8484 54.6195 62.9984 55.2195 59.9984 55.2195C56.9984 55.2195 54.1484 54.6195 51.5234 53.5695C53.2672 49.032 53.8484 43.6883 53.9797 39.4883H66.0172ZM37.0859 32.2883C37.0859 19.6508 47.3609 9.37578 59.9984 9.37578C72.6359 9.37578 82.9109 19.6508 82.9109 32.2883C82.9109 40.5758 78.4672 47.832 71.8484 51.8633C70.3672 47.7945 69.8984 42.9008 69.7672 39.4695C71.7734 39.4695 73.4047 37.8383 73.4047 35.832V34.2758C73.4047 31.8945 72.0172 29.832 69.9922 28.8383C70.7609 27.3008 71.2109 25.632 71.2109 23.907C71.2109 17.7008 66.1672 12.657 59.9609 12.657C53.7547 12.657 48.7109 17.7008 48.7109 23.907C48.7109 25.632 49.1609 27.3008 49.9297 28.8383C47.9234 29.832 46.5172 31.8758 46.5172 34.2758V35.832C46.5172 37.8383 48.1484 39.4695 50.1547 39.4695C50.0234 42.882 49.5547 47.7758 48.0734 51.8633C41.4547 47.832 37.0109 40.5758 37.0109 32.2883H37.0859ZM18.2797 106.182C18.2797 108.638 16.2922 110.626 13.8359 110.626C11.3797 110.626 9.39219 108.638 9.39219 106.182C9.39219 103.726 11.3797 101.738 13.8359 101.738C16.2922 101.738 18.2797 103.726 18.2797 106.182ZM51.5234 106.182C51.5234 108.638 49.5359 110.626 47.0797 110.626C44.6234 110.626 42.6359 108.638 42.6359 106.182C42.6359 103.726 44.6234 101.738 47.0797 101.738C49.5359 101.738 51.5234 103.726 51.5234 106.182ZM77.3609 106.182C77.3609 108.638 75.3734 110.626 72.9172 110.626C70.4609 110.626 68.4734 108.638 68.4734 106.182C68.4734 103.726 70.4609 101.738 72.9172 101.738C75.3734 101.738 77.3609 103.726 77.3609 106.182ZM106.161 110.626C103.705 110.626 101.717 108.638 101.717 106.182C101.717 103.726 103.705 101.738 106.161 101.738C108.617 101.738 110.605 103.726 110.605 106.182C110.605 108.638 108.617 110.626 106.161 110.626Z" fill="black"/>
</svg>
