<svg width="120" height="120" viewBox="0 0 120 120" fill="none" xmlns="http://www.w3.org/2000/svg">
<g clip-path="url(#clip0_865_155)">
<path d="M47.4549 12.5455C48.5458 12.5455 49.2731 11.8182 49.2731 10.7273V1.81818C49.2731 0.727273 48.5458 0 47.4549 0C46.364 0 45.6367 0.727273 45.6367 1.81818V10.7273C45.6367 11.6364 46.364 12.5455 47.4549 12.5455Z" fill="black"/>
<path d="M75.4564 20.7264L83.6382 14.5446C84.3654 13.9991 84.5473 12.7264 84.0018 11.9991C83.4564 11.2719 82.1836 11.0901 81.4564 11.6355L73.2745 17.8173C72.5473 18.3628 72.3654 19.6355 72.9109 20.3628C73.6382 21.0901 74.7291 21.2719 75.4564 20.7264Z" fill="black"/>
<path d="M19.4564 20.7277C20.1836 21.2732 21.4564 21.2732 22.0018 20.3641C22.5473 19.6368 22.5473 18.3641 21.6382 17.8186L13.4564 11.6368C12.7291 10.9095 11.6382 11.0914 10.9109 11.8186C10.3654 12.7277 10.5473 13.8186 11.2745 14.5459L19.4564 20.7277Z" fill="black"/>
<path d="M61.4562 14.5448C62.3653 15.0903 63.4562 14.7266 64.0017 13.8175L68.5471 5.63572C69.0926 4.72663 68.7289 3.63572 67.8198 3.09026C66.9108 2.54481 65.8198 2.90845 65.2744 3.81754L60.7289 11.9994C60.1835 12.9084 60.5471 14.1812 61.4562 14.5448Z" fill="black"/>
<path d="M14.0006 29.0913C14.3643 28.1822 13.8188 27.0913 12.9097 26.7277L2.36426 23.2731C1.45517 23.0913 0.364257 23.6368 0.000620967 24.5458C-0.363015 25.4549 0.182439 26.5458 1.09153 26.9095L11.637 30.364C12.7279 30.5458 13.8188 30.1822 14.0006 29.0913Z" fill="black"/>
<path d="M81.0905 29.636C81.4541 30.5451 82.3632 31.0906 83.4541 30.9088L93.9996 27.636C94.9087 27.2724 95.4541 26.3633 95.2723 25.2724C94.9087 24.3633 93.9996 23.8179 92.9086 23.9997L82.1814 27.2724C81.2723 27.636 80.7268 28.5451 81.0905 29.636Z" fill="black"/>
<path d="M31.4562 13.6359C32.0016 14.545 33.0925 14.9086 34.0016 14.3632C34.9107 13.8177 35.2743 12.7268 34.7289 11.8177L30.3653 3.6359C29.8198 2.72681 28.7289 2.36317 27.8198 2.90862C27.0925 3.45408 26.7289 4.54499 27.2743 5.45408L31.4562 13.6359Z" fill="black"/>
<path d="M47.4535 59.636C68.1808 59.636 84.5444 41.9996 85.2717 41.2724C85.9989 40.5451 85.9989 39.4542 85.2717 38.7269C84.5444 37.9996 68.1808 20.3633 47.4535 20.3633C26.7262 20.3633 10.3626 37.9996 9.6353 38.7269C8.90803 39.4542 8.90803 40.5451 9.6353 41.2724C9.99893 41.636 13.2717 45.0906 18.5444 48.9087V55.2724C18.5444 56.3633 19.2717 57.0906 20.3626 57.0906C21.4535 57.0906 22.1808 56.3633 22.1808 55.2724V51.4542C28.7262 55.636 37.6353 59.636 47.4535 59.636ZM47.4535 24.1815C56.1808 24.1815 63.4535 31.2724 63.4535 40.1815C63.4535 49.0906 56.3626 56.1815 47.4535 56.1815C38.7262 56.1815 31.4535 49.0906 31.4535 40.1815C31.4535 31.2724 38.5444 24.1815 47.4535 24.1815ZM62.1808 52.9087C65.0899 49.4542 66.908 45.0906 66.908 40.1815C66.908 35.2724 65.0899 30.9087 62.1808 27.4542C71.4535 31.2724 78.5444 37.636 81.2717 40.1815C78.7262 42.7269 71.4535 48.9087 62.1808 52.9087ZM32.5444 27.2724C29.6353 30.7269 27.8171 35.0906 27.8171 39.9996C27.8171 44.9087 29.6353 49.2724 32.5444 52.7269C23.2717 48.9087 16.1808 42.5451 13.4535 39.9996C16.1808 37.4542 23.2717 31.0906 32.5444 27.2724Z" fill="black"/>
<path d="M47.4563 51.4537C53.6381 51.4537 58.729 46.3628 58.729 40.1809C58.729 33.9991 53.6381 28.9082 47.4563 28.9082C41.2745 28.9082 36.1836 33.9991 36.1836 40.1809C36.1836 46.3628 41.2745 51.4537 47.4563 51.4537ZM47.4563 32.3627C51.6381 32.3627 55.0927 35.8173 55.0927 39.9991C55.0927 44.1809 51.6381 47.6355 47.4563 47.6355C43.2745 47.6355 39.82 44.1809 39.82 39.9991C39.82 35.8173 43.2745 32.3627 47.4563 32.3627Z" fill="black"/>
<path d="M119.821 75.454L111.457 60.9086C110.548 59.454 109.093 58.5449 107.275 58.5449H66.1843C64.5479 58.5449 62.9116 59.454 62.0025 60.9086L53.6389 75.454C53.457 75.6358 53.457 75.9995 53.457 76.3631V112.363C53.457 116.545 56.9116 119.999 61.0934 119.999H112.548C116.73 119.999 120.184 116.545 120.184 112.363V76.3631C120.002 75.9995 119.821 75.6358 119.821 75.454ZM108.184 62.7267L115.093 74.5449H98.9116L95.2752 62.1813H107.275C107.639 62.1813 108.002 62.3631 108.184 62.7267ZM81.8207 62.3631H91.457L94.9116 74.5449H78.1843L81.8207 62.3631ZM77.8207 78.1813H95.6388V86.5449H77.8207V78.1813ZM65.0934 62.7267C65.2752 62.3631 65.6388 62.1813 66.0025 62.1813H78.1843L74.5479 74.5449H58.3661L65.0934 62.7267ZM116.366 112.363C116.366 114.545 114.548 116.363 112.366 116.363H60.9116C58.7298 116.363 56.9116 114.545 56.9116 112.363V78.1813H74.0025V88.3631C74.0025 89.454 74.7298 90.1813 75.8207 90.1813H97.2752C98.3661 90.1813 99.0934 89.454 99.0934 88.3631V78.1813H116.366V112.363Z" fill="black"/>
<path d="M79.0927 94.3638C78.729 94.0002 78.1836 93.8184 77.82 93.8184C77.2745 93.8184 76.9109 94.0002 76.5472 94.3638L70.729 100.182C70.0018 100.909 70.0018 102 70.729 102.727C71.4563 103.455 72.5472 103.455 73.2745 102.727L76.0018 100V112C76.0018 113.091 76.729 113.818 77.82 113.818C78.9109 113.818 79.6381 113.091 79.6381 112V100L82.3654 102.727C83.0927 103.455 84.1836 103.455 84.9109 102.727C85.6381 102 85.6381 100.909 84.9109 100.182L79.0927 94.3638Z" fill="black"/>
<path d="M96.9091 94.3638C96.5455 94.0002 96.1818 93.8184 95.6364 93.8184C95.0909 93.8184 94.7273 94.0002 94.3636 94.3638L88.5455 100.182C87.8182 100.909 87.8182 102 88.5455 102.727C89.2727 103.455 90.3636 103.455 91.0909 102.727L93.8182 100V112C93.8182 113.091 94.5455 113.818 95.6364 113.818C96.7273 113.818 97.4545 113.091 97.4545 112V100L100.182 102.727C100.909 103.455 102 103.455 102.727 102.727C103.455 102 103.455 100.909 102.727 100.182L96.9091 94.3638Z" fill="black"/>
<path d="M48.7276 97.8184H41.4549C40.364 97.8184 39.6367 98.5456 39.6367 99.6365C39.6367 100.727 40.364 101.455 41.4549 101.455H48.7276C49.8185 101.455 50.5458 100.727 50.5458 99.6365C50.5458 98.5456 49.6367 97.8184 48.7276 97.8184Z" fill="black"/>
<path d="M34.1808 97.8184H26.908C25.8171 97.8184 25.0898 98.5456 25.0898 99.6365C25.0898 100.727 25.8171 101.455 26.908 101.455H34.1808C35.2717 101.455 35.9989 100.727 35.9989 99.6365C35.9989 98.5456 35.0898 97.8184 34.1808 97.8184Z" fill="black"/>
<path d="M20.3651 75.2734C19.2741 75.2734 18.5469 76.0007 18.5469 77.0916V84.3643C18.5469 85.4553 19.2741 86.1825 20.3651 86.1825C21.456 86.1825 22.1832 85.4553 22.1832 84.3643V77.0916C22.1832 76.1825 21.2741 75.2734 20.3651 75.2734Z" fill="black"/>
<path d="M20.3651 60.7266C19.2741 60.7266 18.5469 61.4538 18.5469 62.5447V69.8175C18.5469 70.9084 19.2741 71.6357 20.3651 71.6357C21.456 71.6357 22.1832 70.9084 22.1832 69.8175V62.5447C22.1832 61.6357 21.2741 60.7266 20.3651 60.7266Z" fill="black"/>
<path d="M20.3651 89.8184C19.2741 89.8184 18.5469 90.5456 18.5469 91.6365V98.9093C18.5469 100 19.2741 100.727 20.3651 100.727C21.456 100.727 22.1832 100 22.1832 98.9093V91.6365C22.1832 90.7275 21.2741 89.8184 20.3651 89.8184Z" fill="black"/>
</g>
<defs>
<clipPath id="clip0_865_155">
<rect width="120" height="120" fill="white"/>
</clipPath>
</defs>
</svg>
