<svg width="120" height="120" viewBox="0 0 120 120" fill="none" xmlns="http://www.w3.org/2000/svg">
<g clip-path="url(#clip0_865_22)">
<path d="M44.25 24.25C44.95 23.55 45.2 22.45 44.8 21.55C44.4 20.65 43.5 20 42.5 20H27.5C23.35 20 20 23.35 20 27.5V82.5C20 86.65 23.35 90 27.5 90H47.5C48.9 90 50 88.9 50 87.5C50 86.1 48.9 85 47.5 85H27.5C26.1 85 25 83.9 25 82.5V43.55L44.25 24.3V24.25ZM25 27.5C25 26.1 26.1 25 27.5 25H36.45L25 36.45V27.5ZM85 47.5V27.5C85 26.1 83.9 25 82.5 25H71.65C69.7 25 67.75 25.8 66.35 27.2L47.2 46.35C45.8 47.75 45 49.65 45 51.65V62.5C45 63.9 46.1 65 47.5 65H52.5C53.9 65 55 66.1 55 67.5C55 68.9 53.9 70 52.5 70H47.5C43.35 70 40 66.65 40 62.5V51.65C40 48.3 41.3 45.15 43.65 42.8L62.8 23.65C65.15 21.3 68.3 20 71.65 20H82.5C86.65 20 90 23.35 90 27.5V47.5C90 48.9 88.9 50 87.5 50C86.1 50 85 48.9 85 47.5ZM67.5 45C68.9 45 70 46.1 70 47.5V52.5C70 53.9 68.9 55 67.5 55C66.1 55 65 53.9 65 52.5V47.5C65 46.1 66.1 45 67.5 45ZM60 107.5C60 108.9 58.9 110 57.5 110H22.5C10.1 110 0 99.9 0 87.5V22.5C0 10.1 10.1 0 22.5 0H87.5C99.9 0 110 10.1 110 22.5V57.5C110 58.9 108.9 60 107.5 60C106.1 60 105 58.9 105 57.5V22.5C105 12.85 97.15 5 87.5 5H22.5C12.85 5 5 12.85 5 22.5V87.5C5 97.15 12.85 105 22.5 105H57.5C58.9 105 60 106.1 60 107.5ZM119.25 115.75L104.35 100.85C107.9 96.55 110 91.05 110 85.05C110 71.25 98.8 60.05 85 60.05C71.2 60.05 60 71.25 60 85.05C60 98.85 71.2 110.05 85 110.05C91 110.05 96.5 107.95 100.8 104.4L115.7 119.3C116.2 119.8 116.85 120.05 117.45 120.05C118.05 120.05 118.75 119.8 119.2 119.3C120.2 118.3 120.2 116.75 119.2 115.75H119.25ZM85 105C73.95 105 65 96.05 65 85C65 73.95 73.95 65 85 65C96.05 65 105 73.95 105 85C105 96.05 96.05 105 85 105Z" fill="black"/>
</g>
<defs>
<clipPath id="clip0_865_22">
<rect width="120" height="120" fill="white"/>
</clipPath>
</defs>
</svg>
