<svg width="120" height="120" viewBox="0 0 120 120" fill="none" xmlns="http://www.w3.org/2000/svg">
<path d="M61.875 71.25H58.125V75H54.375C53.8777 75 53.4008 75.1975 53.0492 75.5492C52.6975 75.9008 52.5 76.3777 52.5 76.875V86.25C52.5 86.7473 52.6975 87.2242 53.0492 87.5758C53.4008 87.9275 53.8777 88.125 54.375 88.125H63.75V93.75H52.5V97.5H58.125V101.25H61.875V97.5H65.625C66.1223 97.5 66.5992 97.3025 66.9508 96.9508C67.3025 96.5992 67.5 96.1223 67.5 95.625V86.25C67.5 85.7527 67.3025 85.2758 66.9508 84.9242C66.5992 84.5725 66.1223 84.375 65.625 84.375H56.25V78.75H67.5V75H61.875V71.25Z" fill="black"/>
<path d="M107.55 50.7554L80.625 40.3867L98.2125 33.6179C98.5579 33.476 98.853 33.2343 99.0601 32.9236C99.2672 32.6129 99.3769 32.2475 99.375 31.8742V18.7492H103.125C103.495 18.7473 103.857 18.6359 104.163 18.4291C104.47 18.2222 104.709 17.9291 104.85 17.5867C104.994 17.2452 105.033 16.8689 104.963 16.5051C104.893 16.1414 104.716 15.8066 104.456 15.5429L93.2062 4.2929C93.0319 4.11716 92.8246 3.97767 92.5961 3.88248C92.3676 3.78729 92.1225 3.73828 91.875 3.73828C91.6275 3.73828 91.3824 3.78729 91.1539 3.88248C90.9254 3.97767 90.7181 4.11716 90.5438 4.2929L79.2938 15.5429C79.0336 15.8066 78.8573 16.1414 78.7873 16.5051C78.7172 16.8689 78.7564 17.2452 78.9 17.5867C79.0407 17.9291 79.2795 18.2222 79.5865 18.4291C79.8935 18.6359 80.2548 18.7473 80.625 18.7492H84.375V23.0804L60 32.4554L35.625 23.0804V18.7492H39.375C39.7452 18.7473 40.1065 18.6359 40.4135 18.4291C40.7205 18.2222 40.9593 17.9291 41.1 17.5867C41.2436 17.2452 41.2828 16.8689 41.2127 16.5051C41.1427 16.1414 40.9664 15.8066 40.7062 15.5429L29.4563 4.2929C29.2819 4.11716 29.0746 3.97767 28.8461 3.88248C28.6176 3.78729 28.3725 3.73828 28.125 3.73828C27.8775 3.73828 27.6324 3.78729 27.4039 3.88248C27.1754 3.97767 26.9681 4.11716 26.7937 4.2929L15.5437 15.5429C15.2836 15.8066 15.1073 16.1414 15.0373 16.5051C14.9672 16.8689 15.0064 17.2452 15.15 17.5867C15.2907 17.9291 15.5295 18.2222 15.8365 18.4291C16.1435 18.6359 16.5048 18.7473 16.875 18.7492H20.625V31.8742C20.6261 32.2519 20.7413 32.6204 20.9554 32.9316C21.1695 33.2427 21.4726 33.4819 21.825 33.6179L39.375 40.3867L12.45 50.7554C12.0976 50.8914 11.7945 51.1306 11.5804 51.4417C11.3663 51.7529 11.2511 52.1215 11.25 52.4992V91.8742C11.25 92.3714 11.4475 92.8483 11.7992 93.2C12.1508 93.5516 12.6277 93.7492 13.125 93.7492H30.9938C32.6843 100.153 36.4463 105.817 41.6932 109.858C46.9402 113.9 53.377 116.092 60 116.092C66.623 116.092 73.0598 113.9 78.3068 109.858C83.5537 105.817 87.3157 100.153 89.0063 93.7492H106.875C107.372 93.7492 107.849 93.5516 108.201 93.2C108.552 92.8483 108.75 92.3714 108.75 91.8742V52.4992C108.749 52.1215 108.634 51.7529 108.42 51.4417C108.205 51.1306 107.902 50.8914 107.55 50.7554ZM24.375 30.5804V16.8742C24.375 16.3769 24.1775 15.9 23.8258 15.5483C23.4742 15.1967 22.9973 14.9992 22.5 14.9992H21.3937L28.125 8.2679L34.8563 14.9992H33.75C33.2527 14.9992 32.7758 15.1967 32.4242 15.5483C32.0725 15.9 31.875 16.3769 31.875 16.8742V24.3742C31.8761 24.7519 31.9913 25.1204 32.2054 25.4316C32.4195 25.7427 32.7226 25.9819 33.075 26.1179L54.7875 34.4617L44.625 38.3804L24.375 30.5804ZM15 89.9992V53.7929L86.925 26.1179C87.2774 25.9819 87.5805 25.7427 87.7946 25.4316C88.0087 25.1204 88.1239 24.7519 88.125 24.3742V16.8742C88.125 16.3769 87.9275 15.9 87.5758 15.5483C87.2242 15.1967 86.7473 14.9992 86.25 14.9992H85.1437L91.875 8.2679L98.6063 14.9992H97.5C97.0027 14.9992 96.5258 15.1967 96.1742 15.5483C95.8225 15.9 95.625 16.3769 95.625 16.8742V30.5804L23.7 58.2554C23.3476 58.3914 23.0445 58.6306 22.8304 58.9417C22.6163 59.2529 22.5011 59.6215 22.5 59.9992V80.6242C22.5 81.1214 22.6975 81.5983 23.0492 81.95C23.4008 82.3016 23.8777 82.4992 24.375 82.4992H30.2625C29.9126 84.9869 29.9126 87.5114 30.2625 89.9992H15ZM82.5 84.3742C82.1679 79.687 80.3632 75.2245 77.3438 71.6242L79.8938 69.0929C83.613 73.3629 85.8438 78.726 86.25 84.3742H82.5ZM60 104.774C56.2916 104.774 52.6665 103.674 49.5831 101.614C46.4996 99.5539 44.0964 96.6256 42.6773 93.1995C41.2581 89.7734 40.8868 86.0034 41.6103 82.3662C42.3337 78.7291 44.1195 75.3881 46.7417 72.7659C49.364 70.1437 52.7049 68.3579 56.3421 67.6344C59.9792 66.911 63.7492 67.2823 67.1753 68.7014C70.6014 70.1206 73.5298 72.5238 75.5901 75.6072C77.6503 78.6906 78.75 82.3158 78.75 86.0242C78.75 88.4864 78.265 90.9246 77.3227 93.1995C76.3805 95.4743 74.9994 97.5413 73.2583 99.2824C71.5172 101.024 69.4502 102.405 67.1753 103.347C64.9005 104.289 62.4623 104.774 60 104.774ZM74.6438 68.9617C71.0595 65.8752 66.5892 64.0043 61.875 63.6179V60.0929C67.5209 60.4938 72.8837 62.7179 77.1563 66.4304L74.6438 68.9617ZM58.125 63.6179C53.4108 64.0043 48.9405 65.8752 45.3563 68.9617L42.8438 66.4304C47.1163 62.7179 52.4791 60.4938 58.125 60.0929V63.6179ZM40.1813 69.0929L42.7313 71.6242C39.6847 75.215 37.8534 79.6783 37.5 84.3742H33.75C34.1773 78.7171 36.4348 73.353 40.1813 69.0929ZM37.6125 88.1242C38.0398 92.7518 39.9014 97.1306 42.9375 100.649L40.1813 103.405C36.4688 99.1329 34.2447 93.77 33.8437 88.1242H37.6125ZM45.6 103.293C49.1471 106.25 53.522 108.038 58.125 108.412V112.499C52.4791 112.098 47.1163 109.874 42.8438 106.162L45.6 103.293ZM61.875 108.412C66.478 108.038 70.8529 106.25 74.4 103.293L77.1563 106.068C72.8961 109.814 67.532 112.072 61.875 112.499V108.412ZM77.0625 100.649C80.0986 97.1306 81.9602 92.7518 82.3875 88.1242H86.1375C85.7366 93.77 83.5125 99.1329 79.8 103.405L77.0625 100.649ZM60 56.2492C53.3562 56.2583 46.9033 58.4725 41.6537 62.5446C36.4041 66.6168 32.6547 72.3163 30.9938 78.7492H26.25V61.2929L60 48.2992L93.75 61.2929V78.7492H89.0063C87.3453 72.3163 83.5959 66.6168 78.3463 62.5446C73.0967 58.4725 66.6438 56.2583 60 56.2492ZM105 89.9992H89.7375C90.0874 87.5114 90.0874 84.9869 89.7375 82.4992H95.625C96.1223 82.4992 96.5992 82.3016 96.9508 81.95C97.3025 81.5983 97.5 81.1214 97.5 80.6242V59.9992C97.4989 59.6215 97.3837 59.2529 97.1696 58.9417C96.9555 58.6306 96.6524 58.3914 96.3 58.2554L65.2313 46.2929L75.375 42.3929L105 53.7929V89.9992Z" fill="black"/>
</svg>
