<svg width="120" height="120" viewBox="0 0 120 120" fill="none" xmlns="http://www.w3.org/2000/svg">
<path d="M12.4912 4.99609C8.37945 4.99609 4.99609 8.39398 4.99609 12.5057V107.496C4.99609 111.608 8.3795 115.006 12.4912 115.006H107.496C111.608 115.006 115.006 111.608 115.006 107.496C115.006 75.8328 115.006 44.1692 115.006 12.5057C115.006 8.39398 111.608 4.99609 107.496 4.99609H12.4912ZM12.4912 9.99617H69.9961V25.001H15.001V30.0008H110.006V107.496C110.006 108.925 108.924 110.006 107.496 110.006H12.4912C11.0629 110.006 9.99609 108.925 9.99609 107.496V12.5057C9.99609 11.0775 11.063 9.99617 12.4912 9.99617ZM74.9961 9.99617H107.496C108.924 9.99617 110.006 11.0774 110.006 12.5057V25.001H74.9961V9.99617ZM79.9961 15.0009V20.0009H84.9961V15.0009H79.9961ZM90.001 15.0009V20.0009H95.001V15.0009H90.001ZM100.001 15.0009V20.0009H105.001V15.0009H100.001ZM27.4912 50.0057C23.3794 50.0057 20.001 53.3892 20.001 57.5009V82.5059C20.001 86.6177 23.3794 90.0009 27.4912 90.0009H84.9961C85.8038 89.9981 86.5604 89.6051 87.0273 88.9463L99.542 71.451C100.158 70.5845 100.158 69.4225 99.542 68.5556L87.0273 51.0409C86.5561 50.389 85.8002 50.0041 84.9961 50.0057H69.9961V55.0107H83.707L94.4297 69.9962L83.707 84.9962H27.4912C26.063 84.9962 25.001 83.9341 25.001 82.5059V57.5009C25.001 56.0727 26.063 55.0107 27.4912 55.0107H64.9912V50.0057H27.4912ZM35.0059 60.0108C32.279 60.0108 30.001 62.2838 30.001 65.0106V74.996C30.001 77.7229 32.2791 79.9961 35.0059 79.9961H40.0059V74.996H35.0059V65.0106L59.9912 64.9918V74.9966H44.9863V79.9967H59.9912C62.7179 79.9967 64.9912 77.7234 64.9912 74.9966V65.0111C64.9912 62.2844 62.718 60.0114 59.9912 60.0114L35.0059 60.0108ZM77.5059 62.501C73.3933 62.501 69.9961 65.8836 69.9961 69.9962C69.9961 74.1087 73.3933 77.5059 77.5059 77.5059C81.6184 77.5059 84.9961 74.1087 84.9961 69.9962C84.9961 65.8836 81.6184 62.501 77.5059 62.501ZM77.5059 67.5008C78.9162 67.5008 79.9961 68.5859 79.9961 69.9962C79.9961 71.4066 78.9162 72.5058 77.5059 72.5058C76.0955 72.5058 74.9961 71.4066 74.9961 69.9962C74.9961 68.5859 76.0955 67.5008 77.5059 67.5008Z" fill="black"/>
</svg>
