<svg width="120" height="120" viewBox="0 0 120 120" fill="none" xmlns="http://www.w3.org/2000/svg">
<g clip-path="url(#clip0_865_61)">
<path d="M40.5847 119.415C41.3659 120.195 42.6315 120.195 43.4128 119.415L53.4126 109.415L50.5845 106.587L41.9987 115.173L4.82733 78.0016L27.413 55.416L24.5849 52.5879L0.585197 76.5876C-0.195066 77.3688 -0.195066 78.6344 0.585197 79.4157L40.5847 119.415Z" fill="black"/>
<path d="M119.988 41.7811L115.988 5.78154C115.884 4.85088 115.15 4.11554 114.219 4.013L78.2195 0.0130577C77.617 -0.050418 77.0164 0.160517 76.5858 0.587269L62.5859 14.5871L65.414 17.4152L78.7342 4.09503L112.2 7.81081L115.915 41.2664L108.068 49.1149L104.267 23.5528C106.996 22.4688 108.546 19.5782 107.94 16.7062C107.334 13.8342 104.747 11.8166 101.814 11.927C98.8814 12.0383 96.4546 14.2453 96.0669 17.1554C95.6792 20.0645 97.4439 22.8301 100.246 23.7051L103.339 44.5047L75.4139 16.5871C74.6327 15.8058 73.367 15.8058 72.5858 16.5871L62.5859 26.5869L65.414 29.415L73.9998 20.8292L99.1714 46.0007L94.5855 50.5866L97.4136 53.4147L103.414 47.4148C103.527 47.2859 103.623 47.1423 103.698 46.989L104.538 52.6344L100.585 56.5865L103.414 59.4146L105.269 57.5582L106.539 66.0825C106.841 68.5434 108.467 70.641 110.775 71.5473C113.083 72.4535 115.701 72.0228 117.598 70.4252C119.493 68.8276 120.363 66.3208 119.862 63.8921L116.181 46.6462L119.413 43.4148C119.843 42.9851 120.054 42.3846 119.988 41.7811ZM101.999 16.0011C103.104 16.0011 103.999 16.8966 103.999 18.0011C103.999 19.1056 103.104 20.0011 101.999 20.0011C100.895 20.0011 99.9995 19.1056 99.9995 18.0011C99.9995 16.8966 100.895 16.0011 101.999 16.0011ZM115.946 64.7046C116.137 65.6958 115.772 66.7133 114.991 67.3559C114.212 67.9985 113.143 68.1625 112.206 67.7836C111.27 67.4047 110.616 66.5444 110.501 65.5405L108.799 54.0387L112.822 50.0163L115.946 64.7046Z" fill="black"/>
<path d="M14.5859 77.786L27.5848 64.7871L30.4129 67.6152L17.414 80.614L14.5859 77.786Z" fill="black"/>
<path d="M20.7852 83.9852L33.784 70.9863L36.6131 73.8144L23.6132 86.8133L20.7852 83.9852Z" fill="black"/>
<path d="M26.9844 90.1854L34.5839 82.5859L37.4129 85.414L29.8125 93.0135L26.9844 90.1854Z" fill="black"/>
<path d="M33.1836 96.3866L38.5849 90.9863L41.413 93.8144L36.0127 99.2157L33.1836 96.3866Z" fill="black"/>
<path d="M39.3867 102.587L43.3867 98.5879L46.2148 101.416L42.2158 105.415L39.3867 102.587Z" fill="black"/>
<path d="M72.0001 110.001C78.8135 109.998 85.4462 107.807 90.9197 103.749L105.343 118.173C107.782 120.61 111.734 120.61 114.171 118.173C116.609 115.735 116.609 111.782 114.171 109.345L99.4138 94.5871L99.1579 94.8429C106.815 82.4573 105.133 66.4624 95.0701 55.9391C85.0058 45.4149 69.1017 43.0223 56.387 50.1189C43.6713 57.2155 37.3589 72.0083 41.0337 86.0989C44.7075 100.189 57.4387 110.016 72.0001 110.001ZM111.343 112.173C112.219 113.049 112.219 114.469 111.343 115.345C110.467 116.221 109.047 116.221 108.171 115.345L93.9998 101.175C95.0886 100.145 96.1033 99.0401 97.0378 97.8692L111.343 112.173ZM72.0001 50.0017C87.4637 50.0017 99.9997 62.5377 99.9997 78.0013C99.9997 93.465 87.4637 106.001 72.0001 106.001C56.5364 106.001 44.0004 93.465 44.0004 78.0013C44.017 62.5445 56.5432 50.0183 72.0001 50.0017Z" fill="black"/>
<path d="M71.9997 102.001C85.2544 102.001 95.9994 91.2563 95.9994 78.0016C95.9994 64.7469 85.2544 54.002 71.9997 54.002C58.745 54.002 48 64.7469 48 78.0016C48.0146 91.2505 58.7508 101.987 71.9997 102.001ZM71.9997 58.0019C83.0454 58.0019 91.9994 66.9559 91.9994 78.0016C91.9994 89.0474 83.0454 98.0014 71.9997 98.0014C60.9539 98.0014 51.9999 89.0474 51.9999 78.0016C52.0117 66.9608 60.9588 58.0136 71.9997 58.0019Z" fill="black"/>
<path d="M73.9999 85.9997H69.9999C68.8954 85.9997 67.9999 85.1042 67.9999 83.9997H64C64 87.3131 66.6865 89.9996 69.9999 89.9996V93.9996H73.9999V89.9996C77.3133 89.9996 79.9998 87.3131 79.9998 83.9997V81.9997C79.9998 78.6863 77.3133 75.9998 73.9999 75.9998H69.9999C68.8954 75.9998 67.9999 75.1043 67.9999 73.9998V71.9999C67.9999 70.8954 68.8954 69.9999 69.9999 69.9999H73.9999C75.1043 69.9999 75.9998 70.8954 75.9998 71.9999H79.9998C79.9998 68.6864 77.3133 65.9999 73.9999 65.9999V62H69.9999V65.9999C66.6865 65.9999 64 68.6864 64 71.9999V73.9998C64 77.3133 66.6865 79.9998 69.9999 79.9998H73.9999C75.1043 79.9998 75.9998 80.8953 75.9998 81.9997V83.9997C75.9998 85.1042 75.1043 85.9997 73.9999 85.9997Z" fill="black"/>
<path d="M9.99987 48.0013H23.36L36.8374 57.6272C37.1763 57.8703 37.5825 58.0012 37.9995 58.0012C38.3843 58.0002 38.7612 57.8889 39.0854 57.6809C39.7778 57.2336 40.1245 56.4084 39.9594 55.6008L38.4399 48.0013H49.9993C55.5198 47.9945 59.9924 43.5209 59.9992 38.0014V10.0018C59.9924 4.48139 55.5198 0.00878897 49.9993 0.00195312H9.99987C4.47943 0.00878897 0.00683586 4.48139 0 10.0018V38.0014C0.00683586 43.5209 4.47943 47.9945 9.99987 48.0013ZM3.99995 10.0018C3.99995 6.68839 6.68643 4.0019 9.99987 4.0019H49.9993C53.3128 4.0019 55.9993 6.68839 55.9993 10.0018V38.0014C55.9993 41.3149 53.3128 44.0014 49.9993 44.0014H35.9995C35.3989 44.0014 34.8296 44.2709 34.4497 44.7357C34.0699 45.2015 33.9195 45.8129 34.0396 46.4008L35.0396 51.4427L25.1559 44.3832C24.82 44.1381 24.4157 44.0043 23.9997 44.0014H9.99987C6.68643 44.0014 3.99995 41.3149 3.99995 38.0014V10.0018Z" fill="black"/>
<path d="M9.99997 40.0016H51.9994V36.0016H11.9999V30.6677L15.9999 25.3357L20.4002 31.2019C20.8016 31.7048 21.41 31.9987 22.0535 32.0017C22.7029 31.9841 23.3035 31.6521 23.6639 31.111L30.1774 21.3397L38.4615 31.2839C38.8433 31.738 39.4058 32.0007 39.9996 32.0017C40.0621 32.0056 40.1246 32.0056 40.188 32.0017C40.8443 31.9392 41.4273 31.5583 41.7476 30.9812L51.7475 12.9814L48.2514 11.042L39.6675 26.49L31.5378 16.7294C31.1384 16.2353 30.5261 15.9638 29.8913 16.0019C29.2624 16.0361 28.6853 16.3651 28.3357 16.8896L21.9041 26.5418L17.5995 20.8016C17.2059 20.3231 16.619 20.0458 15.9999 20.0458C15.3808 20.0458 14.7939 20.3231 14.4003 20.8016L11.9999 24.0018V10.002H8V38.0016C8 39.1061 8.8955 40.0016 9.99997 40.0016Z" fill="black"/>
</g>
<defs>
<clipPath id="clip0_865_61">
<rect width="120" height="120" fill="white"/>
</clipPath>
</defs>
</svg>
