<svg width="66" height="66" viewBox="0 0 66 66" fill="none" xmlns="http://www.w3.org/2000/svg">
<path d="M59.0377 3.10156H6.95766C4.82766 3.10156 3.09766 4.83156 3.09766 6.96156V14.1216H27.7677C28.2877 14.1216 28.7777 13.9116 29.1477 13.5416L30.8477 11.8016C31.2177 11.4316 31.7077 11.2216 32.2277 11.2216H39.2177C39.7377 11.2216 40.2277 11.4316 40.5977 11.8016L42.2977 13.5416C42.6677 13.9116 43.1577 14.1216 43.6777 14.1216H44.9077C45.4277 14.1216 45.9177 13.9116 46.2877 13.5416L47.9877 11.8016C48.3577 11.4316 48.8477 11.2216 49.3677 11.2216H56.3577C56.8777 11.2216 57.3677 11.4316 57.7377 11.8016L59.4377 13.5416C59.8077 13.9116 60.2977 14.1216 60.8177 14.1216H62.8977V6.96156C62.8977 4.83156 61.1677 3.10156 59.0377 3.10156ZM9.67766 10.4816C8.64766 10.4816 7.80766 9.64156 7.80766 8.61156C7.80766 7.58156 8.64766 6.74156 9.67766 6.74156C10.6977 6.74156 11.5377 7.58156 11.5377 8.61156C11.5377 9.63156 10.6877 10.4816 9.67766 10.4816ZM17.1977 10.4816C16.1677 10.4816 15.3277 9.64156 15.3277 8.61156C15.3277 7.58156 16.1677 6.74156 17.1977 6.74156C18.2277 6.74156 19.0677 7.58156 19.0677 8.61156C19.0677 9.63156 18.2277 10.4816 17.1977 10.4816ZM24.7177 10.4816C23.6977 10.4816 22.8577 9.64156 22.8577 8.61156C22.8577 7.58156 23.6977 6.74156 24.7177 6.74156C25.7477 6.74156 26.5877 7.58156 26.5877 8.61156C26.5977 9.63156 25.7477 10.4816 24.7177 10.4816Z" fill="#DA8C36"/>
<path d="M59.0389 63.6205H6.95891C4.42891 63.6205 2.37891 61.5605 2.37891 59.0405V14.1105C2.37891 13.7105 2.69891 13.3905 3.09891 13.3905H27.7689C28.0889 13.3905 28.3989 13.2605 28.6389 13.0205L30.3289 11.2905C30.8489 10.7705 31.5189 10.4905 32.2289 10.4905H39.2189C39.9289 10.4905 40.5989 10.7705 41.1089 11.2805L42.8089 13.0205C43.0389 13.2505 43.3489 13.3805 43.6689 13.3805H44.8989C45.2189 13.3805 45.5289 13.2505 45.7689 13.0105L47.4589 11.2805C47.9689 10.7605 48.6489 10.4805 49.3589 10.4805H56.3489C57.0589 10.4805 57.7289 10.7605 58.2389 11.2705L59.9389 13.0105C60.1689 13.2405 60.4789 13.3705 60.7989 13.3705H62.8789C63.2789 13.3705 63.5989 13.6905 63.5989 14.0905V59.0205C63.6189 61.5705 61.5689 63.6205 59.0389 63.6205ZM3.81891 14.8405V59.0405C3.81891 60.7705 5.22891 62.1705 6.94891 62.1705H59.0289C60.7589 62.1705 62.1589 60.7605 62.1589 59.0405V14.8405H60.7989C60.0889 14.8405 59.4189 14.5605 58.9089 14.0505L57.2089 12.3105C56.9789 12.0805 56.6689 11.9505 56.3489 11.9505H49.3589C49.0389 11.9505 48.7289 12.0805 48.4889 12.3205L46.7989 14.0505C46.2789 14.5705 45.6089 14.8505 44.8989 14.8505H43.6689C42.9589 14.8505 42.2889 14.5705 41.7789 14.0605L40.0789 12.3205C39.8489 12.0905 39.5389 11.9605 39.2189 11.9605H32.2289C31.9089 11.9605 31.5989 12.0905 31.3589 12.3305L29.6689 14.0605C29.1489 14.5805 28.4789 14.8605 27.7689 14.8605H3.81891V14.8405Z" fill="#010101"/>
<path d="M62.8989 14.8409H60.8189C60.1089 14.8409 59.4189 14.5509 58.9289 14.0409L57.2289 12.3009C56.9989 12.0709 56.6889 11.9409 56.3689 11.9409H49.3789C49.0589 11.9409 48.7489 12.0709 48.5189 12.3009L46.8189 14.0409C46.3189 14.5509 45.6289 14.8409 44.9189 14.8409H43.6889C42.9789 14.8409 42.2889 14.5509 41.7889 14.0409L40.0889 12.3009C39.8589 12.0709 39.5489 11.9409 39.2289 11.9409H32.2389C31.9189 11.9409 31.5989 12.0709 31.3789 12.3009L29.6789 14.0409C29.1789 14.5509 28.4889 14.8409 27.7889 14.8409H3.09891C2.69891 14.8409 2.37891 14.5209 2.37891 14.1209V6.96086C2.37891 4.43086 4.43891 2.38086 6.95891 2.38086H59.0389C61.5689 2.38086 63.6189 4.44086 63.6189 6.96086V14.1209C63.6189 14.5109 63.2989 14.8409 62.8989 14.8409ZM49.3689 10.5009H56.3589C57.0689 10.5009 57.7589 10.7909 58.2489 11.3009L59.9489 13.0409C60.1789 13.2709 60.4889 13.4009 60.8089 13.4009H62.1689V6.96086C62.1689 5.23086 60.7589 3.83086 59.0389 3.83086H6.95891C5.22891 3.83086 3.82891 5.24086 3.82891 6.96086V13.3909H27.7789C28.0989 13.3909 28.4089 13.2609 28.6389 13.0309L30.3389 11.2909C30.8389 10.7809 31.5289 10.4909 32.2389 10.4909H39.2289C39.9389 10.4909 40.6289 10.7809 41.1289 11.2909L42.8289 13.0309C43.0589 13.2609 43.3689 13.3909 43.6889 13.3909H44.9189C45.2389 13.3909 45.5589 13.2609 45.7789 13.0309L47.4789 11.2909C47.9689 10.7909 48.6589 10.5009 49.3689 10.5009Z" fill="#010101"/>
<path d="M9.66813 11.2015C8.23813 11.2015 7.07812 10.0415 7.07812 8.61148C7.07812 7.18148 8.23813 6.02148 9.66813 6.02148C11.0981 6.02148 12.2581 7.18148 12.2581 8.61148C12.2581 10.0415 11.0981 11.2015 9.66813 11.2015ZM9.66813 7.46148C9.03813 7.46148 8.52812 7.97148 8.52812 8.60148C8.52812 9.23148 9.03813 9.74148 9.66813 9.74148C10.2981 9.74148 10.8081 9.23148 10.8081 8.60148C10.8081 7.97148 10.2981 7.46148 9.66813 7.46148Z" fill="#010101"/>
<path d="M17.1994 11.2015C15.7694 11.2015 14.6094 10.0415 14.6094 8.61148C14.6094 7.18148 15.7694 6.02148 17.1994 6.02148C18.6294 6.02148 19.7894 7.18148 19.7894 8.61148C19.7894 10.0415 18.6294 11.2015 17.1994 11.2015ZM17.1994 7.46148C16.5694 7.46148 16.0594 7.97148 16.0594 8.60148C16.0594 9.23148 16.5694 9.74148 17.1994 9.74148C17.8294 9.74148 18.3394 9.23148 18.3394 8.60148C18.3394 7.97148 17.8294 7.46148 17.1994 7.46148Z" fill="#010101"/>
<path d="M24.7267 11.2015C23.2967 11.2015 22.1367 10.0415 22.1367 8.61148C22.1367 7.18148 23.2967 6.02148 24.7267 6.02148C26.1567 6.02148 27.3167 7.18148 27.3167 8.61148C27.3167 10.0415 26.1567 11.2015 24.7267 11.2015ZM24.7267 7.46148C24.0967 7.46148 23.5867 7.97148 23.5867 8.60148C23.5867 9.23148 24.0967 9.74148 24.7267 9.74148C25.3567 9.74148 25.8667 9.23148 25.8667 8.60148C25.8667 7.97148 25.3567 7.46148 24.7267 7.46148Z" fill="#010101"/>
<path d="M21.5503 18.9414V26.4914C21.5503 26.9314 21.0103 27.1414 20.7103 26.8214L18.5403 24.4714C18.3503 24.2614 18.0203 24.2614 17.8303 24.4714L15.6603 26.8214C15.3603 27.1414 14.8203 26.9314 14.8203 26.4914V18.9414H21.5503Z" fill="#F7B319"/>
<path d="M25.5692 40.2009H10.8192C8.82922 40.2009 7.19922 38.5809 7.19922 36.5809V21.8309C7.19922 19.8409 8.81922 18.2109 10.8192 18.2109H25.5692C27.5592 18.2109 29.1892 19.8309 29.1892 21.8309V36.5809C29.1892 38.5809 27.5692 40.2009 25.5692 40.2009ZM10.8192 19.6609C9.61922 19.6609 8.64922 20.6309 8.64922 21.8309V36.5809C8.64922 37.7809 9.61922 38.7509 10.8192 38.7509H25.5692C26.7692 38.7509 27.7392 37.7809 27.7392 36.5809V21.8309C27.7392 20.6309 26.7692 19.6609 25.5692 19.6609H10.8192Z" fill="#010101"/>
<path d="M16.5286 36.3404H11.7786C11.3786 36.3404 11.0586 36.0204 11.0586 35.6204C11.0586 35.2204 11.3786 34.9004 11.7786 34.9004H16.5286C16.9286 34.9004 17.2486 35.2204 17.2486 35.6204C17.2486 36.0204 16.9286 36.3404 16.5286 36.3404Z" fill="#010101"/>
<path d="M16.5286 33.1607H11.7786C11.3786 33.1607 11.0586 32.8407 11.0586 32.4407C11.0586 32.0407 11.3786 31.7207 11.7786 31.7207H16.5286C16.9286 31.7207 17.2486 32.0407 17.2486 32.4407C17.2486 32.8407 16.9286 33.1607 16.5286 33.1607Z" fill="#010101"/>
<path d="M15.3194 27.6907C15.1694 27.6907 15.0194 27.6607 14.8794 27.6107C14.4094 27.4307 14.1094 26.9907 14.1094 26.4907V18.9407C14.1094 18.5407 14.4294 18.2207 14.8294 18.2207H21.5494C21.9494 18.2207 22.2694 18.5407 22.2694 18.9407V26.4907C22.2694 26.9907 21.9694 27.4307 21.4994 27.6107C21.0394 27.7907 20.5094 27.6707 20.1694 27.3007L18.1794 25.1407L16.1994 27.3007C15.9694 27.5507 15.6494 27.6907 15.3194 27.6907ZM18.1894 23.5807C18.5294 23.5807 18.8494 23.7207 19.0794 23.9707L20.8294 25.8707V19.6707H15.5594V25.8707L17.3094 23.9707C17.5294 23.7207 17.8594 23.5807 18.1894 23.5807Z" fill="#010101"/>
<path d="M37.9886 25.5309H34.4486C33.4086 25.5309 32.5586 24.6809 32.5586 23.6409V20.1009C32.5586 19.0609 33.4086 18.2109 34.4486 18.2109H37.9886C39.0286 18.2109 39.8786 19.0609 39.8786 20.1009V23.6409C39.8786 24.6809 39.0286 25.5309 37.9886 25.5309ZM34.4486 19.6609C34.2086 19.6609 34.0086 19.8609 34.0086 20.1009V23.6409C34.0086 23.8809 34.2086 24.0809 34.4486 24.0809H37.9886C38.2286 24.0809 38.4286 23.8809 38.4286 23.6409V20.1009C38.4286 19.8609 38.2286 19.6609 37.9886 19.6609H34.4486Z" fill="#010101"/>
<path d="M36.8503 23.3108C36.5103 23.3108 36.2003 23.1808 35.9603 22.9408L35.0303 22.0108C34.7503 21.7308 34.7503 21.2708 35.0303 20.9908C35.3103 20.7108 35.7703 20.7108 36.0503 20.9908L36.8503 21.7908L40.1303 18.5108C40.4103 18.2308 40.8703 18.2308 41.1503 18.5108C41.4303 18.7908 41.4303 19.2508 41.1503 19.5308L37.7403 22.9408C37.5003 23.1808 37.1803 23.3108 36.8503 23.3108Z" fill="#010101"/>
<path d="M37.9886 36.8005H34.4486C33.4086 36.8005 32.5586 35.9505 32.5586 34.9105V31.3705C32.5586 30.3305 33.4086 29.4805 34.4486 29.4805H37.9886C39.0286 29.4805 39.8786 30.3305 39.8786 31.3705V34.9105C39.8786 35.9605 39.0286 36.8005 37.9886 36.8005ZM34.4486 30.9305C34.2086 30.9305 34.0086 31.1305 34.0086 31.3705V34.9105C34.0086 35.1505 34.2086 35.3505 34.4486 35.3505H37.9886C38.2286 35.3505 38.4286 35.1505 38.4286 34.9105V31.3705C38.4286 31.1305 38.2286 30.9305 37.9886 30.9305H34.4486Z" fill="#010101"/>
<path d="M36.8503 34.5901C36.5103 34.5901 36.2003 34.4601 35.9603 34.2201L35.0303 33.2901C34.7503 33.0101 34.7503 32.5501 35.0303 32.2701C35.3103 31.9901 35.7703 31.9901 36.0503 32.2701L36.8503 33.0701L40.1303 29.7901C40.4103 29.5101 40.8703 29.5101 41.1503 29.7901C41.4303 30.0701 41.4303 30.5301 41.1503 30.8101L37.7403 34.2201C37.5003 34.4501 37.1803 34.5901 36.8503 34.5901Z" fill="#010101"/>
<path d="M37.9886 36.8005H34.4486C33.4086 36.8005 32.5586 35.9505 32.5586 34.9105V31.3705C32.5586 30.3305 33.4086 29.4805 34.4486 29.4805H37.9886C39.0286 29.4805 39.8786 30.3305 39.8786 31.3705V34.9105C39.8786 35.9605 39.0286 36.8005 37.9886 36.8005ZM34.4486 30.9305C34.2086 30.9305 34.0086 31.1305 34.0086 31.3705V34.9105C34.0086 35.1505 34.2086 35.3505 34.4486 35.3505H37.9886C38.2286 35.3505 38.4286 35.1505 38.4286 34.9105V31.3705C38.4286 31.1305 38.2286 30.9305 37.9886 30.9305H34.4486Z" fill="#010101"/>
<path d="M36.8503 34.5901C36.5103 34.5901 36.2003 34.4601 35.9603 34.2201L35.0303 33.2901C34.7503 33.0101 34.7503 32.5501 35.0303 32.2701C35.3103 31.9901 35.7703 31.9901 36.0503 32.2701L36.8503 33.0701L40.1303 29.7901C40.4103 29.5101 40.8703 29.5101 41.1503 29.7901C41.4303 30.0701 41.4303 30.5301 41.1503 30.8101L37.7403 34.2201C37.5003 34.4501 37.1803 34.5901 36.8503 34.5901Z" fill="#010101"/>
<path d="M37.9886 48.0817H34.4486C33.4086 48.0817 32.5586 47.2317 32.5586 46.1917V42.6517C32.5586 41.6117 33.4086 40.7617 34.4486 40.7617H37.9886C39.0286 40.7617 39.8786 41.6117 39.8786 42.6517V46.1917C39.8786 47.2317 39.0286 48.0817 37.9886 48.0817ZM34.4486 42.2117C34.2086 42.2117 34.0086 42.4117 34.0086 42.6517V46.1917C34.0086 46.4317 34.2086 46.6317 34.4486 46.6317H37.9886C38.2286 46.6317 38.4286 46.4317 38.4286 46.1917V42.6517C38.4286 42.4117 38.2286 42.2117 37.9886 42.2117H34.4486Z" fill="#010101"/>
<path d="M36.8503 45.8616C36.5103 45.8616 36.2003 45.7316 35.9603 45.4916L35.0303 44.5616C34.7503 44.2816 34.7503 43.8216 35.0303 43.5416C35.3103 43.2616 35.7703 43.2616 36.0503 43.5416L36.8503 44.3416L40.1303 41.0616C40.4103 40.7816 40.8703 40.7816 41.1503 41.0616C41.4303 41.3416 41.4303 41.8016 41.1503 42.0816L37.7403 45.4916C37.5003 45.7316 37.1803 45.8616 36.8503 45.8616Z" fill="#010101"/>
<path d="M37.9886 48.0817H34.4486C33.4086 48.0817 32.5586 47.2317 32.5586 46.1917V42.6517C32.5586 41.6117 33.4086 40.7617 34.4486 40.7617H37.9886C39.0286 40.7617 39.8786 41.6117 39.8786 42.6517V46.1917C39.8786 47.2317 39.0286 48.0817 37.9886 48.0817ZM34.4486 42.2117C34.2086 42.2117 34.0086 42.4117 34.0086 42.6517V46.1917C34.0086 46.4317 34.2086 46.6317 34.4486 46.6317H37.9886C38.2286 46.6317 38.4286 46.4317 38.4286 46.1917V42.6517C38.4286 42.4117 38.2286 42.2117 37.9886 42.2117H34.4486Z" fill="#010101"/>
<path d="M36.8503 45.8616C36.5103 45.8616 36.2003 45.7316 35.9603 45.4916L35.0303 44.5616C34.7503 44.2816 34.7503 43.8216 35.0303 43.5416C35.3103 43.2616 35.7703 43.2616 36.0503 43.5416L36.8503 44.3416L40.1303 41.0616C40.4103 40.7816 40.8703 40.7816 41.1503 41.0616C41.4303 41.3416 41.4303 41.8016 41.1503 42.0816L37.7403 45.4916C37.5003 45.7316 37.1803 45.8616 36.8503 45.8616Z" fill="#010101"/>
<path d="M37.9886 59.3512H34.4486C33.4086 59.3512 32.5586 58.5013 32.5586 57.4613V53.9212C32.5586 52.8812 33.4086 52.0312 34.4486 52.0312H37.9886C39.0286 52.0312 39.8786 52.8812 39.8786 53.9212V57.4613C39.8786 58.5013 39.0286 59.3512 37.9886 59.3512ZM34.4486 53.4813C34.2086 53.4813 34.0086 53.6812 34.0086 53.9212V57.4613C34.0086 57.7013 34.2086 57.9013 34.4486 57.9013H37.9886C38.2286 57.9013 38.4286 57.7013 38.4286 57.4613V53.9212C38.4286 53.6812 38.2286 53.4813 37.9886 53.4813H34.4486Z" fill="#010101"/>
<path d="M36.8503 57.1311C36.5103 57.1311 36.2003 57.0011 35.9603 56.7611L35.0303 55.8311C34.7503 55.5511 34.7503 55.0911 35.0303 54.8111C35.3103 54.5311 35.7703 54.5311 36.0503 54.8111L36.8503 55.6111L40.1303 52.3311C40.4103 52.0511 40.8703 52.0511 41.1503 52.3311C41.4303 52.6111 41.4303 53.0711 41.1503 53.3511L37.7403 56.7611C37.5003 57.0011 37.1803 57.1311 36.8503 57.1311Z" fill="#010101"/>
<path d="M58.0778 25.5298H43.9778C43.5778 25.5298 43.2578 25.2098 43.2578 24.8098C43.2578 24.4098 43.5778 24.0898 43.9778 24.0898H58.0778C58.4778 24.0898 58.7978 24.4098 58.7978 24.8098C58.7978 25.2098 58.4778 25.5298 58.0778 25.5298Z" fill="#010101"/>
<path d="M53.2478 21.6705H43.9778C43.5778 21.6705 43.2578 21.3505 43.2578 20.9505C43.2578 20.5505 43.5778 20.2305 43.9778 20.2305H53.2478C53.6478 20.2305 53.9678 20.5505 53.9678 20.9505C53.9678 21.3505 53.6378 21.6705 53.2478 21.6705Z" fill="#010101"/>
<path d="M58.0778 36.7994H43.9778C43.5778 36.7994 43.2578 36.4794 43.2578 36.0794C43.2578 35.6794 43.5778 35.3594 43.9778 35.3594H58.0778C58.4778 35.3594 58.7978 35.6794 58.7978 36.0794C58.7978 36.4794 58.4778 36.7994 58.0778 36.7994Z" fill="#010101"/>
<path d="M53.2478 32.94H43.9778C43.5778 32.94 43.2578 32.62 43.2578 32.22C43.2578 31.82 43.5778 31.5 43.9778 31.5H53.2478C53.6478 31.5 53.9678 31.82 53.9678 32.22C53.9678 32.62 53.6378 32.94 53.2478 32.94Z" fill="#010101"/>
<path d="M58.0778 48.0806H43.9778C43.5778 48.0806 43.2578 47.7606 43.2578 47.3606C43.2578 46.9606 43.5778 46.6406 43.9778 46.6406H58.0778C58.4778 46.6406 58.7978 46.9606 58.7978 47.3606C58.7978 47.7506 58.4778 48.0806 58.0778 48.0806Z" fill="#010101"/>
<path d="M53.2478 44.2213H43.9778C43.5778 44.2213 43.2578 43.9013 43.2578 43.5013C43.2578 43.1013 43.5778 42.7812 43.9778 42.7812H53.2478C53.6478 42.7812 53.9678 43.1013 53.9678 43.5013C53.9678 43.8913 53.6378 44.2213 53.2478 44.2213Z" fill="#010101"/>
<path d="M58.0778 59.3502H43.9778C43.5778 59.3502 43.2578 59.0302 43.2578 58.6302C43.2578 58.2302 43.5778 57.9102 43.9778 57.9102H58.0778C58.4778 57.9102 58.7978 58.2302 58.7978 58.6302C58.7978 59.0202 58.4778 59.3502 58.0778 59.3502Z" fill="#010101"/>
<path d="M53.2478 55.4908H43.9778C43.5778 55.4908 43.2578 55.1708 43.2578 54.7708C43.2578 54.3708 43.5778 54.0508 43.9778 54.0508H53.2478C53.6478 54.0508 53.9678 54.3708 53.9678 54.7708C53.9678 55.1708 53.6378 55.4908 53.2478 55.4908Z" fill="#010101"/>
<path d="M28.468 45.1707V47.6007C28.468 48.4007 27.818 49.0507 27.018 49.0507H9.36797C8.56797 49.0507 7.91797 48.4007 7.91797 47.6007V45.1707C7.91797 44.3707 8.56797 43.7207 9.36797 43.7207H27.018C27.818 43.7307 28.468 44.3807 28.468 45.1707Z" fill="#5573B8"/>
<path d="M28.468 54.7508V57.1808C28.468 57.9808 27.818 58.6308 27.018 58.6308H9.36797C8.56797 58.6308 7.91797 57.9808 7.91797 57.1808V54.7508C7.91797 53.9508 8.56797 53.3008 9.36797 53.3008H27.018C27.818 53.3008 28.468 53.9508 28.468 54.7508Z" fill="#5573B8"/>
<path d="M27.0192 49.7817H9.36922C8.16922 49.7817 7.19922 48.8117 7.19922 47.6117V45.1817C7.19922 43.9817 8.16922 43.0117 9.36922 43.0117H27.0192C28.2192 43.0117 29.1892 43.9817 29.1892 45.1817V47.6117C29.1892 48.8017 28.2192 49.7817 27.0192 49.7817ZM9.36922 44.4517C8.96922 44.4517 8.64922 44.7717 8.64922 45.1717V47.6017C8.64922 48.0017 8.96922 48.3217 9.36922 48.3217H27.0192C27.4192 48.3217 27.7392 48.0017 27.7392 47.6017V45.1717C27.7392 44.7717 27.4192 44.4517 27.0192 44.4517H9.36922Z" fill="#010101"/>
<path d="M27.0192 59.3501H9.36922C8.16922 59.3501 7.19922 58.3801 7.19922 57.1801V54.7501C7.19922 53.5501 8.16922 52.5801 9.36922 52.5801H27.0192C28.2192 52.5801 29.1892 53.5501 29.1892 54.7501V57.1801C29.1892 58.3701 28.2192 59.3501 27.0192 59.3501ZM9.36922 54.0201C8.96922 54.0201 8.64922 54.3401 8.64922 54.7401V57.1701C8.64922 57.5701 8.96922 57.8901 9.36922 57.8901H27.0192C27.4192 57.8901 27.7392 57.5701 27.7392 57.1701V54.7401C27.7392 54.3401 27.4192 54.0201 27.0192 54.0201H9.36922Z" fill="#010101"/>
</svg>
