<svg width="409" height="412" viewBox="0 0 409 412" fill="none" xmlns="http://www.w3.org/2000/svg">
<rect x="2.4585" y="6" width="400" height="400" rx="200" stroke="#14141A" stroke-opacity="0.2" stroke-linecap="round" stroke-linejoin="round"/>
<path d="M118.826 243L143.69 182.088H112.298V173.88H152.858V182.088L128.042 243H118.826ZM160.557 242.952L160.605 235.272L191.277 207.672C193.837 205.368 195.549 203.192 196.413 201.144C197.309 199.064 197.757 196.936 197.757 194.76C197.757 192.104 197.149 189.704 195.933 187.56C194.717 185.416 193.053 183.72 190.941 182.472C188.861 181.224 186.493 180.6 183.837 180.6C181.085 180.6 178.637 181.256 176.493 182.568C174.349 183.848 172.653 185.56 171.405 187.704C170.189 189.848 169.597 192.184 169.629 194.712H160.893C160.893 190.36 161.901 186.52 163.917 183.192C165.933 179.832 168.669 177.208 172.125 175.32C175.613 173.4 179.565 172.44 183.981 172.44C188.269 172.44 192.109 173.432 195.501 175.416C198.893 177.368 201.565 180.04 203.517 183.432C205.501 186.792 206.493 190.6 206.493 194.856C206.493 197.864 206.109 200.472 205.341 202.68C204.605 204.888 203.453 206.936 201.885 208.824C200.317 210.68 198.349 212.664 195.981 214.776L170.493 237.672L169.389 234.792H206.493V242.952H160.557ZM223.737 243L217.977 237.24L281.433 173.88L287.193 179.64L223.737 243ZM272.793 244.44C269.625 244.44 266.729 243.672 264.105 242.136C261.513 240.568 259.433 238.488 257.865 235.896C256.297 233.272 255.513 230.36 255.513 227.16C255.513 224.024 256.313 221.144 257.913 218.52C259.513 215.896 261.625 213.8 264.249 212.232C266.873 210.664 269.721 209.88 272.793 209.88C275.961 209.88 278.857 210.664 281.481 212.232C284.105 213.768 286.185 215.848 287.721 218.472C289.289 221.064 290.073 223.96 290.073 227.16C290.073 230.36 289.289 233.272 287.721 235.896C286.185 238.488 284.105 240.568 281.481 242.136C278.857 243.672 275.961 244.44 272.793 244.44ZM272.793 236.904C274.553 236.904 276.169 236.456 277.641 235.56C279.145 234.664 280.329 233.48 281.193 232.008C282.089 230.536 282.537 228.92 282.537 227.16C282.537 225.4 282.089 223.784 281.193 222.312C280.329 220.808 279.145 219.624 277.641 218.76C276.169 217.864 274.553 217.416 272.793 217.416C271.033 217.416 269.417 217.864 267.945 218.76C266.473 219.624 265.289 220.808 264.393 222.312C263.497 223.784 263.049 225.4 263.049 227.16C263.049 228.92 263.497 230.536 264.393 232.008C265.289 233.48 266.473 234.664 267.945 235.56C269.417 236.456 271.033 236.904 272.793 236.904ZM232.377 207C229.209 207 226.313 206.232 223.689 204.696C221.065 203.128 218.969 201.048 217.401 198.456C215.865 195.832 215.097 192.92 215.097 189.72C215.097 186.584 215.897 183.704 217.497 181.08C219.097 178.456 221.209 176.36 223.833 174.792C226.457 173.224 229.305 172.44 232.377 172.44C235.545 172.44 238.425 173.224 241.017 174.792C243.641 176.328 245.737 178.408 247.305 181.032C248.873 183.624 249.657 186.52 249.657 189.72C249.657 192.92 248.873 195.832 247.305 198.456C245.737 201.048 243.641 203.128 241.017 204.696C238.425 206.232 235.545 207 232.377 207ZM232.377 199.464C234.137 199.464 235.753 199.016 237.225 198.12C238.729 197.224 239.913 196.04 240.777 194.568C241.673 193.096 242.121 191.48 242.121 189.72C242.121 187.96 241.673 186.344 240.777 184.872C239.913 183.368 238.729 182.184 237.225 181.32C235.753 180.424 234.137 179.976 232.377 179.976C230.617 179.976 229.001 180.424 227.529 181.32C226.057 182.184 224.873 183.368 223.977 184.872C223.081 186.344 222.633 187.96 222.633 189.72C222.633 191.48 223.081 193.096 223.977 194.568C224.873 196.04 226.057 197.224 227.529 198.12C229.001 199.016 230.617 199.464 232.377 199.464Z" fill="url(#paint0_linear_6312_1712)"/>
<path d="M202.458 6C240.411 6 277.58 16.7986 309.624 37.1344C341.668 57.4703 367.265 86.5039 383.424 120.844C399.583 155.184 405.638 193.414 400.881 231.067C396.125 268.72 380.753 304.242 356.561 333.485C332.369 362.728 300.357 384.483 264.262 396.211C228.167 407.939 189.48 409.155 152.721 399.717C115.961 390.278 82.6449 370.575 56.6648 342.909C30.6846 315.243 13.1126 280.756 6.00105 243.476" stroke="url(#paint1_linear_6312_1712)" stroke-width="12" stroke-linecap="round" stroke-linejoin="round" stroke-dasharray="1 20"/>
<defs>
<linearGradient id="paint0_linear_6312_1712" x1="108.458" y1="249" x2="302.304" y2="232.756" gradientUnits="userSpaceOnUse">
<stop stop-color="#490693"/>
<stop offset="1" stop-color="#FF00FB"/>
</linearGradient>
<linearGradient id="paint1_linear_6312_1712" x1="402.459" y1="406" x2="386.561" y2="-8.72362" gradientUnits="userSpaceOnUse">
<stop stop-color="#490693"/>
<stop offset="1" stop-color="#FF00FB"/>
</linearGradient>
</defs>
</svg>
