<svg width="325" height="192" viewBox="0 0 325 192" fill="none" xmlns="http://www.w3.org/2000/svg">
<g clip-path="url(#clip0_6299_2457)">
<path d="M131.413 105.99H156.461V114.866H117.018V105.99L139.11 87.8641L141.394 86.0654H117.224V77.1898H155.832V86.0654L133.73 104.192L131.413 105.99Z" fill="white"/>
<path d="M193.847 77.1897H203.761V97.2216C203.761 109.641 196.694 115.348 185.934 115.348H179.342C168.584 115.348 161.515 109.641 161.515 97.2216V77.1897H171.43V97.2216C171.43 103.645 174.958 105.787 179.342 105.787H185.934C190.264 105.787 193.847 103.645 193.847 97.2216V77.1897Z" fill="white"/>
<path d="M233.483 77.1898C244.773 77.1898 249.839 82.4145 249.839 91.2367V91.2902C249.839 100.112 244.773 105.284 233.483 105.284H220.256V114.919H210.439V77.1898H233.483ZM239.978 91.2367C239.978 87.9712 238.018 86.6115 233.483 86.6115H220.256V95.9154H233.483C238.073 95.9154 239.978 94.6627 239.978 91.2902V91.2367Z" fill="white"/>
<path d="M295.993 114.866H285.353L282.192 107.949H261.54L258.38 114.866H247.772L266.757 77.1897H276.997L295.993 114.866ZM271.888 86.772L265.664 99.3414H278.111L271.888 86.772Z" fill="white"/>
<path fill-rule="evenodd" clip-rule="evenodd" d="M31.7603 85.6127C33.4947 87.3278 35.8471 88.2914 38.3 88.2914H50.9828L31.7543 107.374C30.4647 108.656 29.5875 110.286 29.2331 112.06C28.8788 113.833 29.0632 115.671 29.7631 117.341C30.463 119.011 31.6471 120.439 33.1662 121.445C34.6853 122.45 36.4714 122.989 38.2996 122.993C39.5178 122.99 40.7231 122.747 41.8449 122.277C42.9668 121.807 43.9824 121.121 44.8323 120.258L79.6359 85.7173C79.6721 85.6828 79.7079 85.6479 79.7435 85.6127C80.6023 84.7634 81.2835 83.7552 81.7483 82.6456C82.2131 81.536 82.4523 80.3468 82.4523 79.1457C82.4523 77.9446 82.2131 76.7554 81.7483 75.6458C81.2835 74.5362 80.6023 73.528 79.7435 72.6787C78.8847 71.8295 77.8652 71.1558 76.7431 70.6962C75.621 70.2366 74.4184 70 73.2039 70H38.3C35.8471 70 33.4947 70.9636 31.7603 72.6787C30.0259 74.3939 29.0515 76.7201 29.0515 79.1457C29.0515 81.5713 30.0259 83.8975 31.7603 85.6127Z" fill="white"/>
<path d="M82.2681 114.398C82.2681 119.146 78.5614 122.923 73.9016 122.923H53.9431L67.6532 108.786C72.7367 102.851 82.2681 106.52 82.2681 114.398Z" fill="white"/>
</g>
<defs>
<clipPath id="clip0_6299_2457">
<rect width="267" height="53" fill="white" transform="translate(29 70)"/>
</clipPath>
</defs>
</svg>
