<svg width="174" height="35" viewBox="0 0 174 35" fill="none" xmlns="http://www.w3.org/2000/svg">
<path fill-rule="evenodd" clip-rule="evenodd" d="M0 8.80675C4.49068 9.07669 5.7062 7.72699 7.25936 4.99387C7.76583 6.6135 10.9397 7.2546 11.4462 8.87423C7.32689 11.6748 1.68822 10.2914 0 8.80675Z" fill="black"/>
<path d="M8.54242 9.85276C11.265 9.85276 13.472 7.64715 13.472 4.92638C13.472 2.20562 11.265 0 8.54242 0C5.81986 0 3.6128 2.20562 3.6128 4.92638C3.6128 7.64715 5.81986 9.85276 8.54242 9.85276Z" fill="black"/>
<path fill-rule="evenodd" clip-rule="evenodd" d="M39.8759 12.1472H43.8263V28.0736H40.4161L40.1122 25.7117C39.2681 27.2975 37.9175 28.0736 35.9929 28.0736C34.3722 28.0736 33.123 27.5675 32.2789 26.5215C31.401 25.5092 30.9958 24.0583 30.9958 22.2699V12.1472H34.98V21.3589C34.98 21.7301 34.98 22.0675 35.0813 22.4387C35.3177 23.6196 36.0267 24.1933 37.2085 24.1933C37.2422 24.1933 37.3098 24.1933 37.3435 24.1933C37.3773 24.1933 37.4111 24.1933 37.4448 24.1933C38.559 24.1933 39.4707 23.4509 39.7746 22.4387C39.9434 21.8988 39.8759 21.089 39.8759 20.4816V12.1472Z" fill="black"/>
<path fill-rule="evenodd" clip-rule="evenodd" d="M53.8881 12.1472C55.8465 12.1472 57.4334 12.6534 58.7164 13.6656C59.9995 14.6442 60.8098 16.0613 61.08 17.8834H57.197C56.9607 17.2086 56.5893 16.6687 56.0153 16.2975C55.4413 15.9264 54.766 15.7239 53.9894 15.7239C52.8752 15.7239 51.9635 16.1288 51.2883 16.9724C50.5792 17.7822 50.2078 18.862 50.2078 20.1442C50.2078 21.3926 50.5454 22.4387 51.2883 23.2822C52.0311 24.092 52.9765 24.5307 54.0907 24.5307C54.8673 24.5307 55.5426 24.3282 56.1166 23.9233C56.6906 23.5184 57.062 23.0123 57.2646 22.4049H61.1813C60.8098 24.227 59.9995 25.6442 58.6827 26.6564C57.3996 27.635 55.8127 28.1411 53.9219 28.1411C51.5921 28.1411 49.7351 27.3988 48.2832 25.9479C46.8313 24.4632 46.0885 22.5399 46.0885 20.2117C46.0885 17.9172 46.8313 16.0276 48.2832 14.4755C49.7351 12.8896 51.5921 12.1135 53.8881 12.1472Z" fill="black"/>
<path fill-rule="evenodd" clip-rule="evenodd" d="M63.2746 5.29755H67.2589V18.6258L71.8171 12.1472H76.5779L71.9859 18.8957L77.3882 28.0399H72.83L69.2172 22L67.2589 24.4969V28.0399H63.2746V5.29755Z" fill="black"/>
<path fill-rule="evenodd" clip-rule="evenodd" d="M82.858 23.2485C83.5333 23.2485 84.1073 23.4847 84.58 23.9571C85.0527 24.3957 85.3229 24.9693 85.3229 25.6442C85.3229 26.319 85.0865 26.8926 84.58 27.365C84.1073 27.8374 83.5333 28.0736 82.858 28.0736C82.149 28.0736 81.575 27.8374 81.1023 27.3988C80.6296 26.9264 80.3932 26.3528 80.3932 25.6442C80.3932 24.9356 80.6296 24.362 81.1023 23.9233C81.575 23.4847 82.149 23.2485 82.858 23.2485ZM168.383 12.1472C170.004 12.1472 171.253 12.6534 172.098 13.6994C172.975 14.7117 173.414 16.1626 173.414 17.9509V28.0736H169.396V18.8282C169.396 16.9724 168.654 16.0276 167.202 16.0276C166.358 16.0276 165.682 16.365 165.176 17.0399C164.703 17.7147 164.433 18.6258 164.433 19.8405V28.0736H160.483V12.1472H163.893L164.197 14.5092C165.007 12.9233 166.425 12.1472 168.383 12.1472ZM152.345 12.1472C154.27 12.5184 156.262 12.4509 158.254 12.1472C158.22 14.0031 157.444 15.1166 155.958 15.5215C156.161 16.1288 156.262 16.7025 156.262 17.3436C156.262 18.9294 155.688 20.2117 154.54 21.2577C153.426 22.2699 151.94 22.7761 150.117 22.7761C149.104 22.7761 148.26 22.6411 147.517 22.3712C147.281 22.6748 147.146 23.046 147.146 23.5184C147.146 24.3957 147.686 24.8006 148.699 24.8006H152.345C153.966 24.8006 155.215 25.2055 156.093 25.9816C157.005 26.7239 157.444 27.8374 157.444 29.2883C157.444 30.9755 156.836 32.3252 155.587 33.2362C154.371 34.2147 152.683 34.6871 150.556 34.6871C148.226 34.6871 146.47 34.2822 145.289 33.4386C144.107 32.6288 143.499 31.4478 143.499 29.8957C143.499 28.7485 144.039 27.8374 145.052 27.1626C143.837 26.319 143.229 25.2055 143.229 23.8221C143.229 22.5061 143.769 21.4264 144.816 20.5153C144.107 19.5706 143.735 18.5245 143.735 17.3436C143.735 15.7239 144.343 14.3742 145.525 13.3957C146.707 12.3497 148.226 11.8436 150.049 11.8436C150.86 11.8098 151.603 11.911 152.345 12.1472ZM151.366 27.8037H149.036C148.564 27.8712 148.159 28.0399 147.855 28.3436C147.551 28.681 147.416 29.0859 147.416 29.5583C147.416 30.2331 147.686 30.7393 148.26 31.1104C148.834 31.4816 149.61 31.6503 150.623 31.6503C152.582 31.6503 153.561 30.908 153.561 29.4571C153.561 28.3773 152.852 27.8037 151.366 27.8037ZM147.72 17.3436C147.72 18.0521 147.922 18.6595 148.361 19.1319C148.8 19.5706 149.34 19.8067 150.049 19.8067C150.758 19.8067 151.299 19.5706 151.704 19.1319C152.143 18.6595 152.345 18.0859 152.345 17.3436C152.345 16.6012 152.143 15.9939 151.704 15.5215C151.299 15.0491 150.725 14.8129 150.049 14.8129C149.34 14.8129 148.8 15.0491 148.361 15.5215C147.956 15.9601 147.72 16.5675 147.72 17.3436ZM137.084 12.1472H141.068V28.0736H137.084V12.1472ZM139.076 5.19632C139.717 5.19632 140.291 5.43251 140.764 5.90491C141.237 6.34356 141.507 6.91718 141.507 7.55828C141.507 8.23313 141.271 8.80675 140.798 9.2454C140.325 9.68405 139.751 9.92025 139.076 9.92025C138.401 9.92025 137.827 9.68405 137.354 9.2454C136.881 8.80675 136.645 8.23313 136.645 7.55828C136.645 6.88344 136.881 6.34356 137.354 5.90491C137.827 5.43251 138.401 5.19632 139.076 5.19632ZM128.845 12.1472C130.466 12.1472 131.817 12.5859 132.863 13.4632C133.91 14.3405 134.484 15.5215 134.551 16.9387H130.601C130.567 15.7577 129.993 15.184 128.812 15.184C128.271 15.184 127.832 15.319 127.528 15.589C127.225 15.8589 127.09 16.1963 127.09 16.6687C127.09 17.1411 127.292 17.5123 127.664 17.7822C128.069 18.0184 128.778 18.2209 129.824 18.4233C131.648 18.727 132.931 19.2331 133.707 19.9755C134.518 20.7178 134.889 21.7301 134.889 23.046C134.889 24.6319 134.349 25.8466 133.235 26.7239C132.12 27.6012 130.669 28.0061 128.879 28.0061C127.022 28.0061 125.536 27.5675 124.456 26.6902C123.409 25.8129 122.835 24.5982 122.801 23.046H126.752C126.786 24.2945 127.528 24.9018 128.98 24.9018C130.263 24.9018 130.905 24.4294 130.905 23.4509C130.905 22.9448 130.702 22.5736 130.297 22.2699C129.892 22 129.183 21.7638 128.102 21.5613C126.414 21.2914 125.131 20.7515 124.321 20.0429C123.51 19.3006 123.139 18.3221 123.139 17.0736C123.139 15.6564 123.646 14.4755 124.658 13.5644C125.638 12.6534 127.056 12.1472 128.845 12.1472ZM113.381 12.1472C115.576 12.1472 117.332 12.8221 118.648 14.2393C119.965 15.6227 120.607 17.546 120.607 20.1104V21.3252H109.768C109.836 22.3374 110.207 23.181 110.883 23.8221C111.558 24.4294 112.436 24.7669 113.516 24.7669C115.137 24.7669 116.184 24.1595 116.656 22.9785H120.539C119.526 26.3865 117.129 28.1074 113.415 28.1074C111.085 28.1074 109.228 27.365 107.776 25.9479C106.358 24.4969 105.649 22.5736 105.649 20.1779C105.649 17.8497 106.358 15.9264 107.81 14.4417C109.228 12.8896 111.119 12.1472 113.381 12.1472ZM109.768 18.592H116.555C116.521 17.6135 116.217 16.8712 115.643 16.2638C115.069 15.6564 114.259 15.3865 113.28 15.3865C112.301 15.3865 111.524 15.6902 110.883 16.2638C110.241 16.8712 109.87 17.6472 109.768 18.592ZM103.421 5.80368V28.0736H99.9766L99.6728 25.7117C98.5585 27.2975 96.9041 28.0736 94.7094 28.0736C92.6498 28.0736 90.9278 27.2975 89.5434 25.7791C88.1591 24.2607 87.4838 22.3712 87.4838 20.1104C87.4838 17.8497 88.1591 15.9939 89.5434 14.4417C90.9278 12.9233 92.6497 12.1472 94.7431 12.1472C96.8365 12.1472 98.3897 12.8221 99.4026 14.138V5.80368H103.421ZM95.5535 15.8252C94.4393 15.8252 93.4939 16.2301 92.7173 17.0399C91.9745 17.8497 91.6031 18.862 91.6031 20.1104C91.6031 21.3589 91.9745 22.4049 92.7173 23.2147C93.4601 24.0245 94.4055 24.4294 95.5535 24.4294C96.634 24.4294 97.5794 24.0583 98.3222 23.3159C99.0988 22.5399 99.5039 21.5276 99.5039 20.2117V20.0429C99.4702 18.7945 99.0988 17.7822 98.3222 17.0061C97.5118 16.2301 96.6002 15.8589 95.5535 15.8252Z" fill="black"/>
<path fill-rule="evenodd" clip-rule="evenodd" d="M28.7336 12.1472V16.0951C28.7336 22.6748 23.3313 28.0736 16.7472 28.0736C10.1631 28.0736 4.76079 22.6748 4.76079 16.0951V12.1472H28.7336Z" fill="black"/>
<path fill-rule="evenodd" clip-rule="evenodd" d="M8.77877 16.1626C8.77877 17.1748 9.01512 18.1871 9.38653 19.0982C9.7917 20.0767 10.3995 20.954 11.1085 21.6963C11.8513 22.4386 12.7292 23.0123 13.7084 23.4172C14.6538 23.8221 15.6667 24.0245 16.7472 24.0245C17.7939 24.0245 18.8406 23.7883 19.786 23.4172C20.7652 23.0123 21.643 22.4049 22.3859 21.6963C23.1287 20.954 23.7027 20.0767 24.1079 19.0982C24.4793 18.1871 24.7156 17.2086 24.7156 16.1626V10.9325L8.77877 16.1626Z" fill="#FFCA41"/>
</svg>
