<svg width="222" height="46" viewBox="0 0 222 46" fill="none" xmlns="http://www.w3.org/2000/svg">
<path fill-rule="evenodd" clip-rule="evenodd" d="M0.46875 11.4392C6.18776 11.7892 7.73577 10.0395 9.71377 6.49634C10.3588 8.59597 14.4008 9.42707 15.0458 11.5267C9.79977 15.1573 2.61876 13.3639 0.46875 11.4392Z" fill="white"/>
<path d="M11.3483 12.7952C14.8156 12.7952 17.6263 9.93594 17.6263 6.40884C17.6263 2.88174 14.8156 0.0224609 11.3483 0.0224609C7.88108 0.0224609 5.07031 2.88174 5.07031 6.40884C5.07031 9.93594 7.88108 12.7952 11.3483 12.7952Z" fill="white"/>
<path fill-rule="evenodd" clip-rule="evenodd" d="M51.2543 15.7698H56.2854V36.4162H51.9424L51.5553 33.3542C50.4803 35.4101 48.7603 36.4162 46.3093 36.4162C44.2453 36.4162 42.6543 35.76 41.5793 34.404C40.4613 33.0917 39.9453 31.2108 39.9453 28.8925V15.7698H45.0193V27.7114C45.0193 28.1926 45.0193 28.63 45.1483 29.1112C45.4493 30.6422 46.3523 31.3858 47.8573 31.3858C47.9003 31.3858 47.9863 31.3858 48.0293 31.3858C48.0723 31.3858 48.1153 31.3858 48.1583 31.3858C49.5773 31.3858 50.7383 30.4235 51.1253 29.1112C51.3403 28.4113 51.2543 27.3615 51.2543 26.5741V15.7698Z" fill="white"/>
<path fill-rule="evenodd" clip-rule="evenodd" d="M69.0971 15.7697C71.5911 15.7697 73.6121 16.4258 75.2461 17.7381C76.8801 19.0066 77.9121 20.8438 78.2561 23.2059H73.3111C73.0101 22.331 72.5371 21.6312 71.8061 21.15C71.0751 20.6688 70.2151 20.4064 69.2261 20.4064C67.8071 20.4064 66.6461 20.9313 65.7861 22.0248C64.8831 23.0746 64.4101 24.4744 64.4101 26.1366C64.4101 27.7551 64.8401 29.1111 65.7861 30.2046C66.7321 31.2545 67.9361 31.8231 69.3551 31.8231C70.3441 31.8231 71.2041 31.5607 71.9351 31.0358C72.6661 30.5108 73.1391 29.8547 73.3971 29.0673H78.3851C77.9121 31.4294 76.8801 33.2666 75.2031 34.5789C73.5691 35.8474 71.5481 36.5035 69.1401 36.5035C66.1731 36.5035 63.8081 35.5412 61.9591 33.6603C60.1101 31.7356 59.1641 29.2423 59.1641 26.2241C59.1641 23.2496 60.1101 20.8 61.9591 18.7879C63.8081 16.732 66.1731 15.7259 69.0971 15.7697Z" fill="white"/>
<path fill-rule="evenodd" clip-rule="evenodd" d="M81.0508 6.88989H86.1248V24.1681L91.9298 15.7696H97.9928L92.1448 24.5181L99.0248 36.3722H93.2198L88.6188 28.5424L86.1248 31.7793V36.3722H81.0508V6.88989Z" fill="white"/>
<path fill-rule="evenodd" clip-rule="evenodd" d="M105.991 30.1609C106.851 30.1609 107.582 30.4671 108.184 31.0795C108.786 31.6482 109.13 32.3918 109.13 33.2666C109.13 34.1415 108.829 34.8851 108.184 35.4975C107.582 36.1099 106.851 36.4161 105.991 36.4161C105.088 36.4161 104.357 36.1099 103.755 35.5413C103.153 34.9289 102.852 34.1852 102.852 33.2666C102.852 32.3481 103.153 31.6044 103.755 31.0358C104.357 30.4671 105.088 30.1609 105.991 30.1609ZM214.91 15.7697C216.974 15.7697 218.565 16.4258 219.64 17.7819C220.758 19.0941 221.317 20.9751 221.317 23.2934V36.4161H216.2V24.4307C216.2 22.0249 215.254 20.8001 213.405 20.8001C212.33 20.8001 211.47 21.2375 210.825 22.1124C210.223 22.9872 209.879 24.1682 209.879 25.743V36.4161H204.848V15.7697H209.191L209.578 18.8317C210.61 16.7758 212.416 15.7697 214.91 15.7697ZM194.485 15.7697C196.936 16.2509 199.473 16.1634 202.01 15.7697C201.967 18.1755 200.978 19.619 199.086 20.1439C199.344 20.9313 199.473 21.6749 199.473 22.506C199.473 24.5619 198.742 26.2241 197.28 27.5801C195.861 28.8924 193.969 29.5485 191.647 29.5485C190.357 29.5485 189.282 29.3736 188.336 29.0236C188.035 29.4173 187.863 29.8985 187.863 30.5109C187.863 31.6482 188.551 32.1731 189.841 32.1731H194.485C196.549 32.1731 198.14 32.698 199.258 33.7041C200.419 34.6664 200.978 36.1099 200.978 37.9908C200.978 40.1779 200.204 41.9276 198.613 43.1087C197.065 44.3772 194.915 44.9896 192.206 44.9896C189.239 44.9896 187.003 44.4647 185.498 43.3711C183.993 42.3213 183.219 40.7903 183.219 38.7782C183.219 37.2909 183.907 36.1099 185.197 35.2351C183.649 34.1415 182.875 32.698 182.875 30.9046C182.875 29.1986 183.563 27.7989 184.896 26.6178C183.993 25.393 183.52 24.037 183.52 22.506C183.52 20.4064 184.294 18.6567 185.799 17.3882C187.304 16.0322 189.239 15.376 191.561 15.376C192.593 15.3323 193.539 15.4635 194.485 15.7697ZM193.238 36.0662H190.271C189.669 36.1536 189.153 36.3724 188.766 36.766C188.379 37.2035 188.207 37.7284 188.207 38.3408C188.207 39.2156 188.551 39.8717 189.282 40.3529C190.013 40.8341 191.002 41.0528 192.292 41.0528C194.786 41.0528 196.033 40.0905 196.033 38.2095C196.033 36.8098 195.13 36.0662 193.238 36.0662ZM188.594 22.506C188.594 23.4246 188.852 24.212 189.411 24.8244C189.97 25.393 190.658 25.6992 191.561 25.6992C192.464 25.6992 193.152 25.393 193.668 24.8244C194.227 24.212 194.485 23.4684 194.485 22.506C194.485 21.5437 194.227 20.7563 193.668 20.1439C193.152 19.5316 192.421 19.2254 191.561 19.2254C190.658 19.2254 189.97 19.5316 189.411 20.1439C188.895 20.7126 188.594 21.5 188.594 22.506ZM175.049 15.7697H180.123V36.4161H175.049V15.7697ZM177.586 6.75879C178.403 6.75879 179.134 7.06498 179.736 7.67738C180.338 8.24603 180.682 8.98965 180.682 9.82075C180.682 10.6956 180.381 11.4392 179.779 12.0079C179.177 12.5765 178.446 12.8827 177.586 12.8827C176.726 12.8827 175.995 12.5765 175.393 12.0079C174.791 11.4392 174.49 10.6956 174.49 9.82075C174.49 8.94591 174.791 8.24603 175.393 7.67738C175.995 7.06498 176.726 6.75879 177.586 6.75879ZM164.557 15.7697C166.621 15.7697 168.341 16.3384 169.674 17.4757C171.007 18.613 171.738 20.1439 171.824 21.9811H166.793C166.75 20.4501 166.019 19.7065 164.514 19.7065C163.826 19.7065 163.267 19.8815 162.88 20.2314C162.493 20.5814 162.321 21.0188 162.321 21.6312C162.321 22.2436 162.579 22.7247 163.052 23.0747C163.568 23.3809 164.471 23.6433 165.804 23.9058C168.126 24.2995 169.76 24.9556 170.749 25.9179C171.781 26.8803 172.254 28.1925 172.254 29.8985C172.254 31.9544 171.566 33.5291 170.147 34.6664C168.728 35.8037 166.879 36.3286 164.6 36.3286C162.235 36.3286 160.343 35.76 158.967 34.6227C157.634 33.4854 156.903 31.9106 156.86 29.8985H161.891C161.934 31.517 162.88 32.3043 164.729 32.3043C166.363 32.3043 167.18 31.6919 167.18 30.4234C167.18 29.7673 166.922 29.2861 166.406 28.8924C165.89 28.5425 164.987 28.2363 163.611 27.9738C161.461 27.6239 159.827 26.924 158.795 26.0054C157.763 25.0431 157.29 23.7746 157.29 22.1561C157.29 20.3189 157.935 18.7879 159.225 17.6069C160.472 16.4258 162.278 15.7697 164.557 15.7697ZM144.863 15.7697C147.658 15.7697 149.894 16.6446 151.571 18.4817C153.248 20.2752 154.065 22.7685 154.065 26.0929V27.6676H140.262C140.348 28.9799 140.821 30.0735 141.681 30.9046C142.541 31.6919 143.659 32.1293 145.035 32.1293C147.099 32.1293 148.432 31.342 149.034 29.811H153.979C152.689 34.229 149.636 36.4598 144.906 36.4598C141.939 36.4598 139.574 35.4975 137.725 33.6603C135.919 31.7794 135.016 29.2861 135.016 26.1804C135.016 23.1622 135.919 20.6689 137.768 18.7442C139.574 16.732 141.982 15.7697 144.863 15.7697ZM140.262 24.1245H148.905C148.862 22.856 148.475 21.8936 147.744 21.1063C147.013 20.3189 145.981 19.969 144.734 19.969C143.487 19.969 142.498 20.3627 141.681 21.1063C140.864 21.8936 140.391 22.8997 140.262 24.1245ZM127.104 7.54615H132.178V36.4161H127.792L127.405 33.3541C125.986 35.41 123.879 36.4161 121.084 36.4161C118.461 36.4161 116.268 35.41 114.505 33.4416C112.742 31.4732 111.882 29.0236 111.882 26.0929C111.882 23.1622 112.742 20.7563 114.505 18.7442C116.268 16.7758 118.461 15.7697 121.127 15.7697C123.793 15.7697 125.771 16.6446 127.061 18.3505V7.54615H127.104ZM122.159 20.5376C120.74 20.5376 119.536 21.0625 118.547 22.1124C117.601 23.1622 117.128 24.4744 117.128 26.0929C117.128 27.7114 117.601 29.0674 118.547 30.1172C119.493 31.167 120.697 31.6919 122.159 31.6919C123.535 31.6919 124.739 31.2108 125.685 30.2484C126.674 29.2424 127.19 27.9301 127.19 26.2241V26.0054C127.147 24.387 126.674 23.0747 125.685 22.0686C124.653 21.0625 123.492 20.5814 122.159 20.5376Z" fill="white"/>
<path fill-rule="evenodd" clip-rule="evenodd" d="M37.0613 15.7698V20.8876C37.0613 29.4174 30.1813 36.4162 21.7963 36.4162C13.4113 36.4162 6.53125 29.4174 6.53125 20.8876V15.7698H7.34825H11.6913H31.9443H36.2013H37.0613Z" fill="white"/>
<path fill-rule="evenodd" clip-rule="evenodd" d="M11.6484 20.9752C11.6484 22.2875 11.9494 23.5997 12.4224 24.7808C12.9384 26.0493 13.7124 27.1866 14.6154 28.1489C15.5614 29.1113 16.6794 29.8549 17.9265 30.3798C19.1305 30.9047 20.4205 31.1672 21.7965 31.1672C23.1295 31.1672 24.4625 30.861 25.6665 30.3798C26.9135 29.8549 28.0315 29.0675 28.9775 28.1489C29.9235 27.1866 30.6545 26.0493 31.1705 24.7808C31.6435 23.5997 31.9445 22.3312 31.9445 20.9752V14.1951L11.6484 20.9752Z" fill="url(#paint0_linear_549_647)"/>
<defs>
<linearGradient id="paint0_linear_549_647" x1="14.0456" y1="27.9884" x2="26.7813" y2="21.8251" gradientUnits="userSpaceOnUse">
<stop stop-color="#EDAC07"/>
<stop offset="1" stop-color="#FFCA41"/>
</linearGradient>
</defs>
</svg>
