<svg width="120" height="72" viewBox="0 0 120 72" fill="none" xmlns="http://www.w3.org/2000/svg">
<g filter="url(#filter0_d_6205_7008)">
<rect x="3" y="16.4508" width="110.323" height="52" rx="8" transform="rotate(-8.57569 3 16.4508)" fill="#FFD872"/>
<rect x="4.13794" y="17.2905" width="108.323" height="50" rx="7" transform="rotate(-8.57569 4.13794 17.2905)" stroke="black" stroke-width="2"/>
<path d="M28.678 35.8385L27.3767 27.2088L33.0905 26.3472L33.3173 27.8515L29.4281 28.438L29.7382 30.4943L33.2482 29.965L33.475 31.4693L29.965 31.9986L30.5026 35.5634L28.678 35.8385ZM36.0937 34.7202L34.7924 26.0905L40.6073 25.2136L40.8341 26.7179L36.8437 27.3197L37.1538 29.376L40.8451 28.8193L41.0719 30.3236L37.3807 30.8803L37.6914 32.9408L41.6987 32.3365L41.9255 33.8408L36.0937 34.7202ZM45.3213 33.3287L43.3661 33.6235L45.0439 24.5446L47.3951 24.19L51.6714 32.3711L49.7162 32.6659L46.5506 26.3342L46.4832 26.3444L45.3213 33.3287ZM44.6876 29.9551L49.3058 29.2586L49.5206 30.6829L44.9024 31.3793L44.6876 29.9551ZM50.727 25.2261L50.5002 23.7218L57.5877 22.653L57.8145 24.1573L55.1725 24.5557L56.247 31.6811L54.4436 31.9531L53.369 24.8277L50.727 25.2261ZM64.5598 21.6015L66.3844 21.3264L67.2295 26.9307C67.3244 27.5599 67.2571 28.1332 67.0277 28.6504C66.8011 29.1673 66.4395 29.5982 65.9427 29.9431C65.4456 30.2853 64.8403 30.5102 64.1267 30.6178C63.4104 30.7258 62.7643 30.6897 62.1883 30.5093C61.612 30.3262 61.1393 30.0211 60.7704 29.594C60.4014 29.167 60.1695 28.6389 60.0746 28.0096L59.2295 22.4054L61.054 22.1302L61.8756 27.5786C61.9252 27.9072 62.0409 28.1886 62.2227 28.4226C62.4073 28.6562 62.6427 28.8262 62.9288 28.9324C63.2149 29.0387 63.5335 29.0653 63.8846 29.0124C64.2386 28.959 64.5352 28.8396 64.7744 28.6541C65.0164 28.4682 65.1898 28.2366 65.2945 27.9594C65.402 27.6817 65.431 27.3786 65.3815 27.0499L64.5598 21.6015ZM69.6615 29.6582L68.3602 21.0285L71.7648 20.515C72.4166 20.4167 72.9904 20.4494 73.4862 20.6131C73.9845 20.7736 74.3864 21.0477 74.6919 21.4354C74.9999 21.8199 75.1968 22.2973 75.2828 22.8676C75.3692 23.4407 75.32 23.9523 75.1351 24.4025C74.9497 24.8499 74.639 25.2186 74.2029 25.5084C73.7696 25.7979 73.2215 25.9926 72.5585 26.0925L70.2789 26.4363L70.0578 24.9699L72.0424 24.6707C72.3908 24.6181 72.6729 24.5267 72.8889 24.3965C73.1048 24.2662 73.2546 24.0971 73.3381 23.8892C73.4245 23.6808 73.4463 23.4347 73.4035 23.151C73.3603 22.8645 73.2663 22.6316 73.1214 22.4523C72.9794 22.2726 72.7842 22.1498 72.5358 22.0838C72.2898 22.0146 71.9912 22.0065 71.64 22.0594L70.4096 22.245L71.4861 29.383L69.6615 29.6582ZM73.7297 25.0282L76.4667 28.6319L74.4525 28.9357L71.7619 25.3249L73.7297 25.0282ZM77.9231 28.4123L76.6217 19.7826L82.4367 18.9057L82.6635 20.41L78.6731 21.0117L78.9832 23.068L82.6744 22.5114L82.9013 24.0157L79.2101 24.5723L79.5208 26.6328L83.5281 26.0285L83.7549 27.5328L77.9231 28.4123ZM88.7224 26.7837L85.6633 27.2451L84.3619 18.6154L87.4463 18.1502C88.3144 18.0193 89.0876 18.0794 89.7662 18.3305C90.4443 18.5787 91.0004 18.9991 91.4345 19.5915C91.8714 20.1836 92.1575 20.9276 92.2926 21.8238C92.4282 22.7227 92.3747 23.5208 92.1322 24.2182C91.8926 24.9151 91.4828 25.484 90.9028 25.9249C90.3257 26.3653 89.5989 26.6516 88.7224 26.7837ZM87.2521 25.4066L88.4108 25.2319C88.9502 25.1505 89.3895 24.9866 89.7286 24.7401C90.0702 24.4904 90.3032 24.1492 90.4276 23.7168C90.5544 23.2811 90.5693 22.7416 90.4723 22.0983C90.3761 21.4606 90.2034 20.9537 89.9542 20.5775C89.7078 20.201 89.3862 19.9449 88.9894 19.8094C88.5926 19.6739 88.1245 19.6468 87.5852 19.7281L86.4222 19.9035L87.2521 25.4066ZM42.4236 47.924L38.653 39.6666L40.646 39.3661L42.9787 45.1468L43.0504 45.136L43.7221 38.9022L45.4286 38.6449L47.9065 44.4166L47.9823 44.4052L48.5046 38.181L50.4977 37.8804L49.3299 46.8825L47.5517 47.1507L45.0575 41.7563L44.9901 41.7665L44.2018 47.6558L42.4236 47.924ZM60.0431 40.8539C60.185 41.795 60.1274 42.6225 59.8702 43.3365C59.6158 44.05 59.2086 44.6271 58.6488 45.0678C58.0913 45.5052 57.4319 45.7814 56.6706 45.8962C55.9037 46.0118 55.1892 45.9414 54.5271 45.685C53.865 45.4286 53.3072 44.997 52.8537 44.3903C52.4002 43.7835 52.1027 43.011 51.9612 42.0727C51.8193 41.1317 51.8755 40.3044 52.1299 39.5908C52.3843 38.8773 52.7903 38.3018 53.3477 37.8644C53.9048 37.4241 54.5668 37.1461 55.3337 37.0305C56.095 36.9157 56.8067 36.9865 57.4688 37.2429C58.1333 37.4961 58.6923 37.9261 59.1458 38.5328C59.6021 39.1392 59.9012 39.9129 60.0431 40.8539ZM58.1933 41.1329C58.1014 40.5233 57.9325 40.023 57.6868 39.632C57.4439 39.2405 57.1418 38.9614 56.7805 38.7947C56.4192 38.628 56.0181 38.5778 55.577 38.6444C55.136 38.7109 54.7675 38.8771 54.4714 39.1429C54.1754 39.4088 53.9676 39.7648 53.8481 40.2109C53.7315 40.6565 53.7191 41.1842 53.811 41.7938C53.9029 42.4033 54.0704 42.9039 54.3133 43.2953C54.559 43.6863 54.8625 43.9652 55.2238 44.132C55.5851 44.2987 55.9862 44.3488 56.4273 44.2823C56.8683 44.2158 57.2368 44.0496 57.5329 43.7837C57.8289 43.5179 58.0353 43.1621 58.152 42.7164C58.2714 42.2703 58.2852 41.7425 58.1933 41.1329ZM62.52 44.8934L61.2186 36.2637L64.6233 35.7503C65.275 35.652 65.8488 35.6847 66.3447 35.8484C66.8429 36.0088 67.2448 36.2829 67.5504 36.6707C67.8583 37.0552 68.0553 37.5326 68.1413 38.1028C68.2277 38.6759 68.1784 39.1876 67.9935 39.6378C67.8082 40.0852 67.4974 40.4538 67.0613 40.7437C66.6281 41.0331 66.08 41.2278 65.417 41.3278L63.1374 41.6716L62.9162 40.2052L64.9009 39.9059C65.2492 39.8534 65.5314 39.762 65.7473 39.6317C65.9633 39.5015 66.113 39.3324 66.1966 39.1244C66.283 38.916 66.3047 38.67 66.262 38.3862C66.2187 38.0997 66.1247 37.8668 65.9799 37.6875C65.8379 37.5078 65.6427 37.385 65.3943 37.319C65.1482 37.2498 64.8496 37.2417 64.4985 37.2947L63.2681 37.4802L64.3445 44.6183L62.52 44.8934ZM66.5881 40.2634L69.3251 43.8672L67.311 44.1709L64.6203 40.5602L66.5881 40.2634ZM70.7816 43.6475L69.4802 35.0178L71.3047 34.7427L71.8785 38.5477L71.9923 38.5305L74.524 34.2572L76.7109 33.9274L74.0912 38.2743L78.0502 42.5514L75.8675 42.8806L72.9686 39.6891L72.2363 40.92L72.6061 43.3724L70.7816 43.6475ZM83.122 35.499C83.037 35.1641 82.8525 34.9219 82.5685 34.7722C82.2845 34.6226 81.9233 34.5808 81.4851 34.6469C81.1874 34.6918 80.9423 34.7718 80.7499 34.887C80.5571 34.9994 80.417 35.1369 80.3295 35.2995C80.2447 35.4617 80.2164 35.6355 80.2443 35.8209C80.262 35.9762 80.3146 36.1062 80.4022 36.2108C80.4926 36.3149 80.6074 36.3996 80.7465 36.4648C80.8852 36.5272 81.0421 36.5768 81.2172 36.6136C81.3918 36.6476 81.5764 36.6715 81.771 36.6853L82.5743 36.7538C82.9634 36.7813 83.3259 36.8415 83.6617 36.9345C83.9975 37.0275 84.296 37.1592 84.5573 37.3295C84.8186 37.4999 85.0334 37.7146 85.2017 37.9736C85.3729 38.2322 85.487 38.5411 85.544 38.9003C85.6208 39.4288 85.5551 39.907 85.3466 40.3349C85.1406 40.7596 84.8037 41.1164 84.3359 41.4053C83.8704 41.691 83.2865 41.8867 82.5843 41.9927C81.8876 42.0977 81.2647 42.0825 80.7156 41.9469C80.1694 41.8109 79.72 41.5555 79.3675 41.1806C79.0175 40.8024 78.7886 40.304 78.6809 39.6853L80.4465 39.419C80.5098 39.7054 80.6291 39.9345 80.8044 40.1063C80.9821 40.2749 81.2019 40.3897 81.464 40.4507C81.7284 40.5085 82.0179 40.5137 82.3325 40.4662C82.6415 40.4197 82.903 40.3342 83.117 40.21C83.3338 40.0854 83.4933 39.9335 83.5956 39.7543C83.6979 39.5751 83.7333 39.3816 83.702 39.1737C83.6727 38.9799 83.5906 38.8257 83.4555 38.711C83.3232 38.5959 83.1405 38.5085 82.9075 38.4489C82.6772 38.3888 82.399 38.3445 82.0729 38.3161L81.0977 38.2219C80.3434 38.1546 79.7272 37.9646 79.2491 37.6517C78.771 37.3388 78.4852 36.8633 78.3919 36.2252C78.3103 35.7031 78.3805 35.2257 78.6025 34.7928C78.8273 34.3596 79.1704 33.9961 79.6318 33.7024C80.0932 33.4088 80.6385 33.2145 81.2677 33.1196C81.9082 33.023 82.4838 33.0483 82.9944 33.1954C83.5078 33.342 83.9273 33.5905 84.2531 33.9407C84.5789 34.2909 84.7847 34.7225 84.8707 35.2353L83.122 35.499Z" fill="#161B26"/>
</g>
<defs>
<filter id="filter0_d_6205_7008" x="-1" y="0" width="120.843" height="72.8694" filterUnits="userSpaceOnUse" color-interpolation-filters="sRGB">
<feFlood flood-opacity="0" result="BackgroundImageFix"/>
<feColorMatrix in="SourceAlpha" type="matrix" values="0 0 0 0 0 0 0 0 0 0 0 0 0 0 0 0 0 0 127 0" result="hardAlpha"/>
<feOffset dx="-4" dy="5"/>
<feComposite in2="hardAlpha" operator="out"/>
<feColorMatrix type="matrix" values="0 0 0 0 0.0862745 0 0 0 0 0.105882 0 0 0 0 0.14902 0 0 0 1 0"/>
<feBlend mode="normal" in2="BackgroundImageFix" result="effect1_dropShadow_6205_7008"/>
<feBlend mode="normal" in="SourceGraphic" in2="effect1_dropShadow_6205_7008" result="shape"/>
</filter>
</defs>
</svg>
