<?xml version="1.0" encoding="UTF-8"?>
<svg xmlns="http://www.w3.org/2000/svg" width="31" height="30" viewBox="0 0 31 30" fill="none">
  <path d="M30 15C30 23.2843 23.2843 30 15 30C6.71573 30 0 23.2843 0 15C0 6.71573 6.71573 0 15 0C23.2843 0 30 6.71573 30 15Z" fill="#D9D9D9"></path>
  <path fill-rule="evenodd" clip-rule="evenodd" d="M0.857641 10H29.1458C27.0854 4.18759 21.5526 0.0209205 15.0471 0H14.9564C8.44742 0.0209205 2.91458 4.18759 0.857641 10Z" fill="#000101"></path>
  <path fill-rule="evenodd" clip-rule="evenodd" d="M0.857641 20H29.1458C29.7002 18.4344 30.0035 16.7538 30.0035 15C30.0035 13.2462 29.7037 11.5656 29.1458 10H0.857641C0.306798 11.5656 0 13.2497 0 15C0 16.7503 0.306798 18.4344 0.857641 20Z" fill="#DF1E26"></path>
  <path fill-rule="evenodd" clip-rule="evenodd" d="M14.7228 30H15.2772C21.6886 29.8815 27.1133 25.7462 29.1424 20H0.857641C2.88669 25.7427 8.31145 29.878 14.7228 30Z" fill="#F6D92A"></path>
</svg>
