<?xml version="1.0" encoding="UTF-8"?>
<svg xmlns="http://www.w3.org/2000/svg" width="30" height="30" viewBox="0 0 30 30" fill="none">
  <mask id="mask0_1_2" style="mask-type:alpha" maskUnits="userSpaceOnUse" x="0" y="0" width="30" height="30">
    <rect width="30" height="30" rx="15" fill="#D9D9D9"></rect>
  </mask>
  <g mask="url(#mask0_1_2)">
    <path d="M39.7403 0H-9.74026V30.1708H39.7403V0Z" fill="#2D3081"></path>
    <path d="M-9.74026 0V1.47036V2.17305L5.66604 11.0683L6.70992 11.6695L11.974 14.7077L12.5629 15.0448L12.6889 15.122L13.1519 15.386L13.2778 15.4591L13.8627 15.8003L15.5849 16.7914L16.1739 17.1326L16.2998 17.2057L16.7587 17.4697L16.8847 17.5428L17.4696 17.884L17.8107 18.0749L18.5419 18.4973L19.5857 19.1025L38.7573 30.1708H39.7403V27.4535V26.4543L26.9985 19.1025L25.9546 18.4973L24.9107 17.8962L20.3859 15.2845L20.26 15.2073L19.797 14.9433L19.671 14.8702L19.0821 14.529L17.364 13.5379L16.775 13.1967L16.6491 13.1236L16.1901 12.8596L16.0601 12.7865L15.4752 12.4453L11.584 10.1991L10.9829 9.85386L-6.08467 0H-6.60863H-7.29101H-7.81092H-9.02133H-9.74026Z" fill="#E34554"></path>
    <path d="M14.4314 15.4307L13.8465 15.0935L13.7205 15.0204L13.1519 15.3901L13.2778 15.4632L13.8627 15.8044L15.5849 16.7954L16.1535 16.4299L14.4314 15.4347V15.4307ZM14.4314 15.4307L13.8465 15.0935L13.7205 15.0204L13.1519 15.3901L13.2778 15.4632L13.8627 15.8044L15.5849 16.7954L16.1535 16.4299L14.4314 15.4347V15.4307ZM14.4314 15.4307L13.8465 15.0935L13.7205 15.0204L13.1519 15.3901L13.2778 15.4632L13.8627 15.8044L15.5849 16.7954L16.1535 16.4299L14.4314 15.4347V15.4307ZM20.788 19.1025L18.0423 17.5103L17.4574 17.1732L17.3315 17.1001L16.8684 16.832L16.7425 16.7589L16.1535 16.4217L14.4314 15.4266L13.8465 15.0895L13.7205 15.0164L13.2616 14.7524L13.1356 14.6792L12.5508 14.3421L8.97233 12.2747L6.88458 11.0643L-9.74026 1.47036V2.86355L4.4597 11.0683L6.54745 12.2787L11.4053 15.0854L11.9902 15.4226L12.1202 15.4957L12.5792 15.7597L12.7051 15.8328L13.29 16.174L15.0122 17.1691L15.6011 17.5062L15.7271 17.5794L16.1901 17.8474L16.316 17.9205L16.9009 18.2577L37.551 30.179H39.7443V30.049L20.7962 19.1066L20.788 19.1025ZM28.2048 19.1025L26.1171 17.8921L21.5395 15.252L20.9546 14.9108L20.8286 14.8377L20.3656 14.5736L19.6507 14.1593L17.9285 13.1642L17.3436 12.8271L17.2177 12.754L16.7587 12.49L16.6328 12.4168L-4.87832 0H-7.29101L15.4996 13.152L15.6255 13.2251L16.0845 13.4891L16.2104 13.5623L16.7953 13.8994L18.5175 14.8945L19.1065 15.2316L19.2324 15.3048L19.6913 15.5728L19.8173 15.6459L23.7044 17.888L25.7921 19.0985L39.7403 27.1489V25.7557L28.2089 19.0985L28.2048 19.1025ZM14.4314 15.4307L13.8465 15.0935L13.7205 15.0204L13.1519 15.3901L13.2778 15.4632L13.8627 15.8044L15.5849 16.7954L16.1535 16.4299L14.4314 15.4347V15.4307ZM14.4314 15.4307L13.8465 15.0935L13.7205 15.0204L13.1519 15.3901L13.2778 15.4632L13.8627 15.8044L15.5849 16.7954L16.1535 16.4299L14.4314 15.4347V15.4307Z" fill="white"></path>
    <path d="M-9.74026 0V1.47036V2.17305V2.47362V3.16818L3.93979 11.0683L4.98367 11.6695L6.02754 12.2747L11.1616 15.2357L11.7465 15.5769L11.8724 15.6459L12.3355 15.914L12.4614 15.9871L13.0463 16.3243L14.7685 17.3194L15.3574 17.6565L15.4833 17.7296L15.9423 17.9977L16.0682 18.0708L16.6572 18.408L17.8107 19.0741L18.4119 19.4234L19.0171 19.7686L37.0311 30.1708H38.7573H39.7403V27.4535L25.2722 19.1025L24.2283 18.4973L23.1804 17.8962L20.1544 16.1455L19.5695 15.8084L19.4436 15.7353L18.9805 15.4672L18.8587 15.3982L18.2697 15.057L16.5475 14.0659L15.9586 13.7247L15.8367 13.6557L15.3737 13.3876L15.2478 13.3145L14.6629 12.9774L11.584 11.1983L10.9829 10.8531L-7.81092 0H-9.02133H-9.74026Z" fill="#E34554"></path>
    <path d="M26.4786 19.1025L24.3908 17.8921L20.7271 15.7759L20.1422 15.4347L20.0163 15.3616L19.5573 15.0976L18.8424 14.6833L17.1202 13.6922L16.5353 13.351L16.4094 13.2779L15.9505 13.0139L15.8245 12.9408L15.2396 12.5996L-6.60863 0H-9.02133L10.1502 11.0683L11.1941 11.6735L14.6791 13.6801L14.805 13.7532L15.2681 14.0172L15.394 14.0903L15.9789 14.4315L17.7011 15.4226L18.29 15.7637L18.4159 15.8369L18.8749 16.1009L19.0008 16.174L19.5857 16.5152L21.9741 17.8921L24.0618 19.1025L39.7362 28.1521V26.759L26.4745 19.1025H26.4786ZM19.0618 19.1025L18.4119 18.7248L17.2218 18.0383L16.6369 17.6971L16.511 17.624L16.052 17.36L15.3371 16.9457L13.6149 15.9506L13.03 15.6135L12.9041 15.5403L12.4451 15.2763L12.3192 15.2032L11.7343 14.8661L-9.74026 2.47362V3.86681L11.1779 15.9425L11.3038 16.0156L11.7628 16.2836L11.8887 16.3568L12.4736 16.6939L14.1958 17.689L14.7847 18.0261L14.9106 18.0993L15.3696 18.3673L15.4955 18.4404L16.0804 18.7776L35.8166 30.1749H38.2293L19.0577 19.1066L19.0618 19.1025Z" fill="white"></path>
    <path d="M39.7403 0V1.90903L25.5606 11.0683L24.6264 11.6695L20.2437 14.5046L19.671 14.8702L19.4273 15.0286L19.1024 15.2357L18.8587 15.3982L16.7425 16.7629L16.1739 17.1326L15.9261 17.291L15.6011 17.4981L15.3574 17.6565L14.7888 18.0261L11.584 20.0936L10.9829 20.4835L-4.01316 30.1708H-9.74026V29.456L11.1779 15.9425L11.7465 15.5769L11.9943 15.4144L12.3152 15.2073L12.5629 15.0448L13.1316 14.6792L14.6751 13.6801L15.2478 13.3145L15.4915 13.1561L15.8164 12.9489L16.0601 12.7865L16.6328 12.4168L17.8107 11.6573L18.4119 11.2674L19.0171 10.8774L35.8572 0H39.7403Z" fill="#E34554"></path>
    <path d="M24.4477 11.0683L19.6548 14.1634L19.0861 14.529L18.8384 14.6874L18.5134 14.8986L18.2657 15.057L17.697 15.4226L16.1535 16.4217L15.5849 16.7873L15.3371 16.9457L15.0122 17.1569L14.7644 17.3153L14.1958 17.685L12.1852 18.9847L10.9748 19.7646L-5.12609 30.1708H-2.9043L10.9788 21.2025L15.3737 18.3673L15.9423 17.9977L16.1901 17.8393L16.515 17.6281L16.7628 17.4697L17.3315 17.1041L18.8749 16.1049L19.4436 15.7394L19.6913 15.581L20.0163 15.3697L20.2641 15.2113L20.8327 14.8458L39.7403 2.62391V1.18604L24.4477 11.0643V11.0683ZM34.7443 0L19.013 10.1626L16.0398 12.0797L15.4712 12.4453L14.9025 12.8149L14.6547 12.9733L14.0861 13.3389L12.5386 14.3381L11.9699 14.7036L11.4013 15.0732L11.1535 15.2316L10.5849 15.5972L-9.74026 28.737V30.1708L11.7628 16.2836L12.3314 15.914L12.5792 15.7556L12.9041 15.5485L13.1519 15.3901L13.7205 15.0204L15.264 14.0253L15.8327 13.6597L16.0804 13.5013L16.4054 13.2901L16.6531 13.1317L17.9732 12.2828L36.9701 0H34.7443Z" fill="white"></path>
    <path d="M39.7403 0L39.7403 2.78231L20.9546 14.9148L20.3859 15.2845L20.1381 15.4388L19.5695 15.8084L19.0008 16.178L17.4533 17.1772L16.8847 17.5428L16.6369 17.7012L16.316 17.9124L16.0682 18.0708L15.4996 18.4364L12.1893 20.5769L11.584 20.9669L10.9829 21.3568L-2.66465 30.1708H-9.50062L9.50442 17.8962L11.8927 16.3568L12.4614 15.9871L12.7051 15.8247L13.03 15.6175L13.2778 15.4591L13.8465 15.0935L15.3899 14.0944L15.9586 13.7247L16.2063 13.5663L16.5313 13.3592L16.775 13.1967L17.3477 12.8311L37.2098 0H39.7403Z" fill="#E34554"></path>
    <path d="M15.3899 14.0944L13.8465 15.0935L14.4314 15.4307L15.9748 14.4355L15.3899 14.0944ZM15.3899 14.0944L13.8465 15.0935L14.4314 15.4307L15.9748 14.4355L15.3899 14.0944ZM25.7962 11.0683L20.3656 14.5777L19.797 14.9433L19.5492 15.1017L19.2242 15.3088L18.9765 15.4672L18.4078 15.8369L16.8644 16.832L16.2957 17.2016L16.0479 17.36L15.723 17.5672L15.4752 17.7256L14.9066 18.0911L12.1811 19.8539L10.9707 20.6338L-3.77758 30.1708H-1.55173L10.9788 22.0757L12.1893 21.2959L16.0886 18.7776L16.6572 18.412L16.905 18.2536L17.2299 18.0465L17.4777 17.888L18.0463 17.5184L19.5898 16.5233L20.1584 16.1537L20.4062 15.9953L20.7312 15.7881L20.9789 15.6297L21.5476 15.2641L39.7484 3.50531V2.06744L25.8084 11.0724L25.7962 11.0683ZM15.3899 14.0944L13.8465 15.0935L14.4314 15.4307L15.9748 14.4355L15.3899 14.0944ZM15.3899 14.0944L13.8465 15.0935L14.4314 15.4307L15.9748 14.4355L15.3899 14.0944ZM36.0968 0L19.0171 11.0358L17.8067 11.8157L16.7587 12.494L16.1901 12.8596L15.9423 13.018L15.6174 13.2292L15.3696 13.3876L14.801 13.7572L13.2575 14.7524L12.6889 15.122L12.4411 15.2804L12.1161 15.4875L11.8684 15.6459L11.2997 16.0115L-9.74026 29.6103V30.1708H-8.38769L12.4776 16.6939L13.0463 16.3283L13.2941 16.1699L13.619 15.9587L13.8668 15.8003L14.4354 15.4307L15.9789 14.4355L16.5475 14.0659L16.7953 13.9075L17.1202 13.7004L17.368 13.542L17.9367 13.1723L19.3258 12.2787L38.3186 0H36.0968Z" fill="white"></path>
    <path d="M39.7403 11.6695V18.4973H18.4119V30.1708H11.584V18.4973H-9.74026V11.6695H11.584V0H18.4119V11.6695H39.7403Z" fill="#E34554"></path>
    <path d="M17.8107 17.8962V30.1708H19.0171V19.1025H39.7403V17.8962H17.8107ZM19.0171 11.0683V0H17.8107V12.2747H39.7403V11.0683H19.0171ZM10.9829 0V11.0683H-9.74026V12.2747H12.1893V0H10.9829ZM-9.74026 17.8962V19.1025H10.9829V30.1708H12.1893V17.8962H-9.74026Z" fill="white"></path>
  </g>
</svg>
