<?xml version="1.0" encoding="UTF-8"?>
<svg xmlns="http://www.w3.org/2000/svg" width="40" height="40" viewBox="0 0 40 40" fill="none">
  <path d="M20.0933 15.9333C20.0399 15.9333 19.9599 15.9333 19.8933 15.9333C18.4933 15.8799 17.3866 14.7466 17.3866 13.3333C17.3866 11.8933 18.5466 10.7333 19.9866 10.7333C21.4266 10.7333 22.5866 11.9066 22.5866 13.3333C22.5999 14.7466 21.4933 15.8933 20.0933 15.9333Z" fill="#434C62"></path>
  <path d="M16.3333 19.9467C14.56 21.1333 14.56 23.0667 16.3333 24.2533C18.3466 25.6 21.6533 25.6 23.6666 24.2533C25.44 23.0667 25.44 21.1333 23.6666 19.9467C21.6533 18.6133 18.36 18.6133 16.3333 19.9467Z" fill="#434C62"></path>
  <path d="M28 6.66663H12C9.78667 6.66663 8 8.43996 8 10.6266V25.1733C8 27.36 9.78667 29.1333 12 29.1333H13.0133C14.08 29.1333 15.0933 29.5466 15.84 30.2933L18.12 32.5466C19.16 33.5733 20.8533 33.5733 21.8933 32.5466L24.1733 30.2933C24.92 29.5466 25.9467 29.1333 27 29.1333H28C30.2133 29.1333 32 27.36 32 25.1733V10.6266C32 8.43996 30.2133 6.66663 28 6.66663ZM20 10.7333C21.44 10.7333 22.6 11.9066 22.6 13.3333C22.6 14.7466 21.48 15.88 20.0933 15.9333C20.04 15.9333 19.96 15.9333 19.8933 15.9333C18.4933 15.88 17.3867 14.7466 17.3867 13.3333C17.4 11.9066 18.56 10.7333 20 10.7333ZM23.6667 24.2533C21.6533 25.6 18.3467 25.6 16.3333 24.2533C14.56 23.08 14.56 21.1333 16.3333 19.9466C18.36 18.6 21.6667 18.6 23.6667 19.9466C25.44 21.1333 25.44 23.0666 23.6667 24.2533Z" fill="url(#paint0_linear_1597_4038)"></path>
  <defs>
    <linearGradient id="paint0_linear_1597_4038" x1="9.71429" y1="9.88301" x2="34.2827" y2="11.4182" gradientUnits="userSpaceOnUse">
      <stop stop-color="#FFCA41"></stop>
      <stop offset="1" stop-color="#FFDA7A"></stop>
    </linearGradient>
  </defs>
</svg>
