<?xml version="1.0" encoding="UTF-8"?>
<svg xmlns="http://www.w3.org/2000/svg" width="40" height="40" viewBox="0 0 40 40" fill="none">
  <path d="M32.2818 15.0522C32.6411 15.644 32.1638 16.3333 31.4715 16.3333H7.66662C7.11434 16.3333 6.66663 15.8856 6.66663 15.3333V12.56C6.66663 9.30663 9.30663 6.66663 12.56 6.66663H15.6533C17.8266 6.66663 18.5066 7.37329 19.3733 8.53329L21.24 11.0133C21.6533 11.56 21.7066 11.6266 22.48 11.6266H26.2C28.7755 11.6266 31.0341 12.9972 32.2818 15.0522Z" fill="#434C62"></path>
  <path d="M32.31 18.333C32.861 18.333 33.3081 18.7787 33.31 19.3296L33.3333 26.2C33.3333 30.1334 30.1333 33.3334 26.2 33.3334H13.8C9.86663 33.3334 6.66663 30.1334 6.66663 26.2V19.3334C6.66663 18.7811 7.11433 18.3334 7.66661 18.3334L32.31 18.333Z" fill="url(#paint0_linear_1597_4027)"></path>
  <defs>
    <linearGradient id="paint0_linear_1597_4027" x1="8.57139" y1="20.1434" x2="35.5654" y2="23.4732" gradientUnits="userSpaceOnUse">
      <stop stop-color="#FFCA41"></stop>
      <stop offset="1" stop-color="#FFDA7A"></stop>
    </linearGradient>
  </defs>
</svg>
