<?xml version="1.0" encoding="UTF-8"?>
<svg xmlns="http://www.w3.org/2000/svg" width="40" height="40" viewBox="0 0 40 40" fill="none">
  <path fill-rule="evenodd" clip-rule="evenodd" d="M7.54773 21.3835C7.54773 26.5716 7.54773 29.1656 8.86893 30.9841C9.29562 31.5714 9.81209 32.0878 10.3994 32.5145C12.2179 33.8357 14.8119 33.8357 19.9999 33.8357C25.188 33.8357 27.782 33.8357 29.6005 32.5145C30.1878 32.0878 30.7042 31.5714 31.1309 30.9841C32.4521 29.1656 32.4521 26.5716 32.4521 21.3835V18.6164C32.4521 17.4556 32.4521 16.4247 32.4373 15.5033L32.3403 15.5033C31.1615 15.5034 30.4434 15.5035 29.824 15.4054C26.4199 14.8662 23.7501 12.1964 23.2109 8.79229C23.1128 8.17289 23.1129 7.45484 23.113 6.27601L23.113 6.17898C22.1916 6.16418 21.1607 6.16418 19.9999 6.16418C14.8119 6.16418 12.2179 6.16418 10.3994 7.48538C9.81209 7.91207 9.29562 8.42855 8.86893 9.01584C7.54773 10.8343 7.54773 13.4283 7.54773 18.6164V21.3835ZM23.669 19.518C24.0742 19.1127 24.0742 18.4557 23.669 18.0505C23.2638 17.6452 22.6067 17.6452 22.2015 18.0505L20.0002 20.2517L17.799 18.0505C17.3937 17.6452 16.7367 17.6452 16.3315 18.0505C15.9262 18.4557 15.9262 19.1127 16.3315 19.518L18.5327 21.7192L16.3315 23.9205C15.9262 24.3257 15.9262 24.9828 16.3315 25.388C16.7367 25.7932 17.3937 25.7932 17.799 25.388L20.0002 23.1867L22.2015 25.388C22.6067 25.7932 23.2638 25.7932 23.669 25.388C24.0742 24.9828 24.0742 24.3257 23.669 23.9205L21.4677 21.7192L23.669 19.518Z" fill="url(#paint0_linear_1597_4064)"></path>
  <path fill-rule="evenodd" clip-rule="evenodd" d="M23.669 19.518C24.0743 19.1128 24.0743 18.4558 23.669 18.0505C23.2638 17.6453 22.6068 17.6453 22.2015 18.0505L20.0003 20.2518L17.799 18.0505C17.3938 17.6453 16.7368 17.6453 16.3315 18.0505C15.9263 18.4558 15.9263 19.1128 16.3315 19.518L18.5328 21.7193L16.3315 23.9205C15.9263 24.3258 15.9263 24.9828 16.3315 25.388C16.7368 25.7933 17.3938 25.7933 17.799 25.388L20.0003 23.1868L22.2015 25.388C22.6068 25.7933 23.2638 25.7933 23.669 25.388C24.0743 24.9828 24.0743 24.3258 23.669 23.9205L21.4678 21.7193L23.669 19.518Z" fill="#434C62"></path>
  <path d="M30.1487 13.3555C30.5754 13.4231 31.1022 13.4277 32.3617 13.4279C32.2311 11.4361 31.9118 10.0905 31.1309 9.01577C30.7042 8.42848 30.1878 7.91201 29.6005 7.48532C28.5258 6.7045 27.1802 6.38514 25.1884 6.25452C25.1885 7.51404 25.1932 8.04088 25.2607 8.46756C25.6593 10.9837 27.6326 12.957 30.1487 13.3555Z" fill="#434C62"></path>
  <defs>
    <linearGradient id="paint0_linear_1597_4064" x1="19.9999" y1="6.16418" x2="19.9999" y2="33.8357" gradientUnits="userSpaceOnUse">
      <stop stop-color="#FF8B20"></stop>
      <stop offset="1" stop-color="#FDB572"></stop>
    </linearGradient>
  </defs>
</svg>
