<?xml version="1.0" encoding="UTF-8"?>
<svg xmlns="http://www.w3.org/2000/svg" width="40" height="40" viewBox="0 0 40 40" fill="none">
  <rect x="9.33337" y="9.33337" width="20" height="21.3333" fill="white"></rect>
  <path fill-rule="evenodd" clip-rule="evenodd" d="M28.9059 8H10.2461C8.52849 8 7.13611 9.39149 7.13611 11.108V29.7559C7.13611 31.4724 8.52849 32.8639 10.2461 32.8639H28.9059C30.6173 32.8552 32.0001 31.4663 32 29.7559V11.108C32.0001 9.39764 30.6173 8.00868 28.9059 8ZM12.3161 11.108H16.4601C17.6044 11.108 18.5321 12.0357 18.5321 13.18V27.6839C18.5321 28.8283 17.6044 29.7559 16.4601 29.7559H12.3161C11.1718 29.7559 10.2441 28.8283 10.2441 27.6839V13.18C10.2441 12.0357 11.1718 11.108 12.3161 11.108ZM26.8201 11.108H22.6761C21.5317 11.108 20.6041 12.0357 20.6041 13.18V20.432C20.6041 21.5763 21.5317 22.504 22.6761 22.504H26.8201C27.9644 22.504 28.892 21.5763 28.892 20.432V13.18C28.892 12.0357 27.9644 11.108 26.8201 11.108Z" fill="url(#paint0_linear_1597_4049)"></path>
  <defs>
    <linearGradient id="paint0_linear_1597_4049" x1="19.576" y1="32.8639" x2="19.576" y2="8" gradientUnits="userSpaceOnUse">
      <stop stop-color="#0052CC"></stop>
      <stop offset="0.51698" stop-color="#217EF8"></stop>
      <stop offset="1" stop-color="#2684FF"></stop>
    </linearGradient>
  </defs>
</svg>
