<?xml version="1.0" encoding="UTF-8"?>
<svg xmlns="http://www.w3.org/2000/svg" width="40" height="40" viewBox="0 0 40 40" fill="none">
  <path d="M20 33.3333C27.3638 33.3333 33.3333 27.3638 33.3333 20C33.3333 12.6362 27.3638 6.66663 20 6.66663C12.6362 6.66663 6.66663 12.6362 6.66663 20C6.66663 27.3638 12.6362 33.3333 20 33.3333Z" fill="url(#paint0_linear_4065_2159)"></path>
  <path d="M26.3466 19.9067C25.7866 19.8134 25.2932 20.2134 25.2132 20.7601C25.0532 21.9201 24.5332 22.9601 23.7332 23.7601C21.8932 25.6001 19.0399 25.7868 16.9732 24.3601H17.9732C18.5199 24.3601 18.9732 23.9068 18.9732 23.3601C18.9732 22.8134 18.5199 22.3601 17.9732 22.3601H14.4132C13.8665 22.3601 13.4132 22.8134 13.4132 23.3601V26.9201C13.4132 27.4668 13.8665 27.9201 14.4132 27.9201C14.9599 27.9201 15.4132 27.4668 15.4132 26.9201V25.6667C16.7465 26.7468 18.3599 27.3201 19.9865 27.3201C21.8532 27.3201 23.7199 26.6134 25.1465 25.1868C26.2532 24.0801 26.9599 22.6534 27.1866 21.0534C27.2799 20.4801 26.8932 19.9734 26.3466 19.9067Z" fill="#434C62"></path>
  <path d="M13.7866 20.1067C14.2799 20.1067 14.7066 19.7467 14.7732 19.2534C14.9332 18.0934 15.4532 17.0534 16.2532 16.2534C18.0932 14.4134 20.9466 14.2267 23.0133 15.6534H22.0133C21.4666 15.6534 21.0133 16.1067 21.0133 16.6534C21.0133 17.2 21.4666 17.6534 22.0133 17.6534H25.5732C26.1199 17.6534 26.5732 17.2 26.5732 16.6534V13.0934C26.5732 12.5467 26.1199 12.0934 25.5732 12.0934C25.0266 12.0934 24.5732 12.5467 24.5732 13.0934V14.3467C21.7066 12.0267 17.5066 12.1734 14.8533 14.8267C13.7466 15.9334 13.0399 17.36 12.8132 18.96C12.7332 19.5067 13.1199 20.0134 13.6666 20.0934C13.6932 20.1067 13.7466 20.1067 13.7866 20.1067Z" fill="#434C62"></path>
  <defs>
    <linearGradient id="paint0_linear_4065_2159" x1="8.57139" y1="9.88502" x2="35.8449" y2="11.7775" gradientUnits="userSpaceOnUse">
      <stop stop-color="#FFCA41"></stop>
      <stop offset="1" stop-color="#FFDA7A"></stop>
    </linearGradient>
  </defs>
</svg>
