<?xml version="1.0" encoding="UTF-8"?>
<svg xmlns="http://www.w3.org/2000/svg" width="40" height="40" viewBox="0 0 40 40" fill="none">
  <path d="M25.3333 21.2V26.8C25.3333 31.4666 23.4666 33.3333 18.8 33.3333H13.2C8.53329 33.3333 6.66663 31.4666 6.66663 26.8V21.2C6.66663 16.5333 8.53329 14.6666 13.2 14.6666H18.8C23.4666 14.6666 25.3333 16.5333 25.3333 21.2Z" fill="url(#paint0_linear_1597_4021)"></path>
  <path d="M26.8001 6.66663H21.2001C16.9612 6.66663 15.0434 8.21769 14.7266 11.9875C14.68 12.5425 15.135 13 15.692 13H18.8001C24.4001 13 27.0001 15.6 27.0001 21.2V24.3081C27.0001 24.865 27.4575 25.32 28.0125 25.2734C31.7823 24.9566 33.3334 23.0388 33.3334 18.8V13.2C33.3334 8.53329 31.4667 6.66663 26.8001 6.66663Z" fill="#434C62"></path>
  <defs>
    <linearGradient id="paint0_linear_1597_4021" x1="16" y1="14.6666" x2="16" y2="33.3333" gradientUnits="userSpaceOnUse">
      <stop stop-color="#FF8B20"></stop>
      <stop offset="1" stop-color="#FDB572"></stop>
    </linearGradient>
  </defs>
</svg>
