<?xml version="1.0" encoding="UTF-8"?>
<svg xmlns="http://www.w3.org/2000/svg" width="24" height="23" viewBox="0 0 24 23" fill="none">
  <path d="M2.8999 9.12427V16.2493C2.90116 17.2987 3.3186 18.3048 4.06066 19.0468C4.80272 19.7889 5.80881 20.2063 6.85824 20.2076H17.9416C18.991 20.2063 19.9971 19.7889 20.7391 19.0468C21.4812 18.3048 21.8986 17.2987 21.8999 16.2493V9.12427H2.8999ZM13.9832 17.0409H7.6499C7.43994 17.0409 7.23858 16.9575 7.09011 16.8091C6.94164 16.6606 6.85824 16.4592 6.85824 16.2493C6.85824 16.0393 6.94164 15.8379 7.09011 15.6895C7.23858 15.541 7.43994 15.4576 7.6499 15.4576H13.9832C14.1932 15.4576 14.3946 15.541 14.543 15.6895C14.6915 15.8379 14.7749 16.0393 14.7749 16.2493C14.7749 16.4592 14.6915 16.6606 14.543 16.8091C14.3946 16.9575 14.1932 17.0409 13.9832 17.0409ZM17.1499 13.8743H7.6499C7.43994 13.8743 7.23858 13.7909 7.09011 13.6424C6.94164 13.4939 6.85824 13.2926 6.85824 13.0826C6.85824 12.8726 6.94164 12.6713 7.09011 12.5228C7.23858 12.3743 7.43994 12.2909 7.6499 12.2909H17.1499C17.3599 12.2909 17.5612 12.3743 17.7097 12.5228C17.8582 12.6713 17.9416 12.8726 17.9416 13.0826C17.9416 13.2926 17.8582 13.4939 17.7097 13.6424C17.5612 13.7909 17.3599 13.8743 17.1499 13.8743Z" fill="url(#paint0_linear_1799_31732)"></path>
  <path d="M21.8999 7.54095V6.74929C21.8986 5.69986 21.4812 4.69377 20.7391 3.95171C19.9971 3.20965 18.991 2.79221 17.9416 2.79095H6.85824C5.80881 2.79221 4.80272 3.20965 4.06066 3.95171C3.3186 4.69377 2.90116 5.69986 2.8999 6.74929L2.8999 7.54095H21.8999ZM10.8166 4.37429C10.9731 4.37429 11.1262 4.42072 11.2564 4.50771C11.3866 4.5947 11.4881 4.71834 11.548 4.863C11.6079 5.00765 11.6236 5.16683 11.593 5.3204C11.5625 5.47397 11.4871 5.61503 11.3764 5.72575C11.2656 5.83646 11.1246 5.91186 10.971 5.94241C10.8174 5.97296 10.6583 5.95728 10.5136 5.89736C10.369 5.83744 10.2453 5.73597 10.1583 5.60578C10.0713 5.47559 10.0249 5.32253 10.0249 5.16595C10.0249 4.95599 10.1083 4.75463 10.2568 4.60616C10.4052 4.4577 10.6066 4.37429 10.8166 4.37429ZM8.44157 4.37429C8.59815 4.37429 8.75121 4.42072 8.8814 4.50771C9.01158 4.5947 9.11305 4.71834 9.17297 4.863C9.23289 5.00765 9.24857 5.16683 9.21802 5.3204C9.18748 5.47397 9.11208 5.61503 9.00136 5.72575C8.89065 5.83646 8.74958 5.91186 8.59602 5.94241C8.44245 5.97296 8.28327 5.95728 8.13861 5.89736C7.99395 5.83744 7.87031 5.73597 7.78332 5.60578C7.69633 5.47559 7.6499 5.32253 7.6499 5.16595C7.6499 4.95599 7.73331 4.75463 7.88178 4.60616C8.03024 4.4577 8.23161 4.37429 8.44157 4.37429ZM6.06657 4.37429C6.22315 4.37429 6.37621 4.42072 6.5064 4.50771C6.63658 4.5947 6.73805 4.71834 6.79797 4.863C6.85789 5.00765 6.87357 5.16683 6.84302 5.3204C6.81248 5.47397 6.73708 5.61503 6.62636 5.72575C6.51565 5.83646 6.37458 5.91186 6.22102 5.94241C6.06745 5.97296 5.90827 5.95728 5.76361 5.89736C5.61895 5.83744 5.49531 5.73597 5.40832 5.60578C5.32133 5.47559 5.2749 5.32253 5.2749 5.16595C5.2749 4.95599 5.35831 4.75463 5.50678 4.60616C5.65524 4.4577 5.85661 4.37429 6.06657 4.37429Z" fill="#FFCA41"></path>
  <defs>
    <linearGradient id="paint0_linear_1799_31732" x1="12.3999" y1="9.12427" x2="12.3999" y2="20.2076" gradientUnits="userSpaceOnUse">
      <stop stop-color="#FF8B20"></stop>
      <stop offset="1" stop-color="#FDB572"></stop>
    </linearGradient>
  </defs>
</svg>
