<?xml version="1.0" encoding="UTF-8"?>
<svg xmlns="http://www.w3.org/2000/svg" width="24" height="23" viewBox="0 0 24 23" fill="none">
  <path d="M12.0098 10.777H19.1157C19.3043 10.777 19.456 10.6199 19.4478 10.4314C19.267 6.29627 15.8573 2.9993 11.6777 2.99927C7.39264 2.99923 3.8999 6.492 3.8999 10.777C3.8999 14.9567 7.19691 18.3664 11.3321 18.5471C11.5206 18.5554 11.6776 18.4037 11.6776 18.215V11.1091C11.6776 10.9257 11.8263 10.777 12.0098 10.777Z" fill="#FFCA41"></path>
  <path d="M13.4756 19.999C17.4956 19.8228 20.7233 16.5951 20.8995 12.5751C20.9078 12.3863 20.7563 12.2288 20.5674 12.2288H13.4616C13.2781 12.2288 13.1294 12.3775 13.1294 12.561V19.6668C13.1293 19.8558 13.2868 20.0072 13.4756 19.999Z" fill="#FF8B20"></path>
</svg>
