<?xml version="1.0" encoding="UTF-8"?>
<svg xmlns="http://www.w3.org/2000/svg" width="24" height="23" viewBox="0 0 24 23" fill="none">
  <path d="M12.3999 19.9993C17.0943 19.9993 20.8999 16.1937 20.8999 11.4993C20.8999 6.80485 17.0943 2.99927 12.3999 2.99927C7.70548 2.99927 3.8999 6.80485 3.8999 11.4993C3.8999 16.1937 7.70548 19.9993 12.3999 19.9993Z" fill="#FFCA41"></path>
  <path d="M12.4 7.05334C14.857 7.05334 16.8459 9.04553 16.8459 11.4992C16.8459 13.953 14.857 15.9451 12.4 15.9451C9.94297 15.9451 7.9541 13.953 7.9541 11.4992C7.9541 9.04553 9.94297 7.05334 12.4 7.05334Z" fill="url(#paint0_linear_1799_31669)"></path>
  <path d="M12.3998 5.96765C9.34512 5.96765 6.86816 8.4446 6.86816 11.4993C6.86816 14.554 9.34512 17.0309 12.3998 17.0309C15.4545 17.0309 17.9314 14.554 17.9314 11.4993C17.9314 8.4446 15.4545 5.96765 12.3998 5.96765ZM12.3998 15.8987C9.96934 15.8987 8.00039 13.9298 8.00039 11.4993C8.00039 9.06882 9.96934 7.09988 12.3998 7.09988C14.8303 7.09988 16.7992 9.06882 16.7992 11.4993C16.7992 13.9298 14.8303 15.8987 12.3998 15.8987Z" fill="white"></path>
  <path d="M14.0952 11.1298C14.3946 11.3293 14.3946 11.7692 14.0952 11.9687L12.0958 13.3007C11.7608 13.5238 11.3124 13.2837 11.3124 12.8812L11.3124 10.2173C11.3124 9.81482 11.7608 9.5747 12.0958 9.79784L14.0952 11.1298Z" fill="white"></path>
  <defs>
    <linearGradient id="paint0_linear_1799_31669" x1="12.4" y1="7.05334" x2="12.4" y2="15.9451" gradientUnits="userSpaceOnUse">
      <stop stop-color="#FF8B20"></stop>
      <stop offset="1" stop-color="#FDB572"></stop>
    </linearGradient>
  </defs>
</svg>
