<?xml version="1.0" encoding="UTF-8"?>
<svg xmlns="http://www.w3.org/2000/svg" width="24" height="23" viewBox="0 0 24 23" fill="none">
  <path d="M8.49324 9.76515L8.49324 11.1718L21.0161 11.164L21.0161 9.76515C21.0161 8.50837 19.9973 7.48954 18.7405 7.48954L10.7688 7.48954C9.51207 7.48954 8.49324 8.50836 8.49324 9.76515Z" fill="#FF8B20"></path>
  <path fill-rule="evenodd" clip-rule="evenodd" d="M6.95202 16.5799V9.21873C6.95202 7.5454 8.30672 6.18797 9.98004 6.18459L18.1262 6.16817V5.05181C18.1262 3.79323 17.1046 2.77367 15.846 2.7762L5.94778 2.79616C4.69279 2.79869 3.67676 3.81677 3.67676 5.07176V14.3043C3.67676 15.5611 4.69558 16.5799 5.95237 16.5799H6.95202Z" fill="#FFCA41"></path>
  <path d="M21.1229 17.9483V12.5879L8.43945 12.604V17.9483C8.43945 19.2051 9.45828 20.2239 10.7151 20.2239H18.8473C20.104 20.2239 21.1229 19.2051 21.1229 17.9483Z" fill="#FF8B20"></path>
  <path fill-rule="evenodd" clip-rule="evenodd" d="M12.2873 10.021H10.2965C10.2083 10.0292 10.1194 10.0188 10.0355 9.99048C9.95151 9.9622 9.87437 9.91666 9.80895 9.85678C9.74354 9.7969 9.69128 9.72399 9.65553 9.6427C9.61978 9.56142 9.60131 9.47354 9.60131 9.38469C9.60131 9.29584 9.61978 9.20797 9.65553 9.12668C9.69128 9.0454 9.74354 8.97248 9.80895 8.9126C9.87437 8.85272 9.95151 8.80719 10.0355 8.77891C10.1194 8.75063 10.2083 8.74022 10.2965 8.74836H12.2873C12.3755 8.74022 12.4644 8.75063 12.5483 8.77891C12.6323 8.80719 12.7094 8.85272 12.7748 8.9126C12.8402 8.97248 12.8925 9.0454 12.9282 9.12668C12.964 9.20797 12.9825 9.29584 12.9825 9.38469C12.9825 9.47354 12.964 9.56142 12.9282 9.6427C12.8925 9.72399 12.8402 9.7969 12.7748 9.85678C12.7094 9.91666 12.6323 9.9622 12.5483 9.99048C12.4644 10.0188 12.3755 10.0292 12.2873 10.021ZM17.275 10.021C17.1482 10.021 17.0242 9.98287 16.9191 9.91166C16.814 9.84045 16.7324 9.73935 16.6849 9.62133C16.6374 9.5033 16.6261 9.37374 16.6524 9.24923C16.6788 9.12472 16.7416 9.01095 16.8328 8.9225C16.9241 8.83404 17.0395 8.77494 17.1644 8.75276C17.2893 8.73059 17.418 8.74635 17.5339 8.79802C17.6499 8.8497 17.7478 8.93493 17.8151 9.04281C17.8825 9.15068 17.9161 9.27627 17.9119 9.40349C17.9063 9.56921 17.8368 9.72629 17.7179 9.84152C17.5991 9.95675 17.4403 10.0211 17.275 10.021ZM19.2658 10.021C19.1777 10.0292 19.0888 10.0188 19.0048 9.99048C18.9209 9.9622 18.8437 9.91666 18.7783 9.85678C18.7129 9.7969 18.6607 9.72399 18.6249 9.6427C18.5891 9.56142 18.5707 9.47354 18.5707 9.38469C18.5707 9.29584 18.5891 9.20797 18.6249 9.12668C18.6607 9.0454 18.7129 8.97248 18.7783 8.9126C18.8437 8.85272 18.9209 8.80719 19.0048 8.77891C19.0888 8.75063 19.1777 8.74022 19.2658 8.74836C19.424 8.76295 19.571 8.8363 19.678 8.95402C19.785 9.07175 19.8444 9.22534 19.8444 9.38469C19.8444 9.54404 19.785 9.69764 19.678 9.81536C19.571 9.93308 19.424 10.0064 19.2658 10.021Z" fill="white"></path>
</svg>
