<?xml version="1.0" encoding="UTF-8"?>
<svg xmlns="http://www.w3.org/2000/svg" width="24" height="23" viewBox="0 0 24 23" fill="none">
  <path d="M22.8999 10.867C22.8999 13.2103 20.9932 15.1293 18.5666 15.2813V12.9759C18.5666 11.6396 17.42 10.5503 16.0133 10.5503H9.78659C8.3799 10.5503 7.23321 11.6396 7.23321 12.9759V15.2813C4.80653 15.1293 2.8999 13.2103 2.8999 10.867C2.8999 9.91699 3.26659 9.04934 3.87328 8.38428C4.48659 7.71293 5.33328 7.25699 6.29328 7.11763C6.57996 5.64834 7.93328 4.53363 9.56659 4.53363C10.04 4.53363 10.4866 4.62863 10.8933 4.79328C11.9267 3.14028 14.06 2.19663 16.32 2.82999C18.2666 3.38099 19.5667 5.14163 19.5667 7.07334V7.12399C21.46 7.42169 22.8999 8.98599 22.8999 10.867Z" fill="#838DA7"></path>
  <rect x="8.1499" y="11.4993" width="9.5" height="9.5" rx="2" fill="#FFCA41"></rect>
</svg>
