<?xml version="1.0" encoding="UTF-8"?>
<svg xmlns="http://www.w3.org/2000/svg" width="101" height="100" viewBox="0 0 101 100" fill="none">
  <g clip-path="url(#clip0_3971_4085)">
    <path d="M39.9129 35.8162H41.0113C41.2852 35.8162 41.5407 35.9401 41.7237 36.1442C42.6523 37.18 44.0649 37.7726 45.6062 37.5648C47.6101 37.2946 49.1387 35.7229 49.3607 33.7131C49.6535 31.0628 47.5863 28.8195 44.9951 28.8195C43.6885 28.8195 42.5157 29.3901 41.711 30.2954C41.5295 30.4998 41.2637 30.6093 40.9902 30.6093H39.9127C39.3946 30.6093 38.9746 30.1893 38.9746 29.6712V18.0612C38.3132 17.4431 37.9663 17.1189 37.3049 16.5007C23.6643 17.3192 12.8546 28.641 12.8546 42.4876C12.8546 52.29 18.2723 60.8264 26.2763 65.2674C27.4674 65.9284 28.3632 67.0164 28.7524 68.3217L30.7531 75.0304L38.9748 76.1917L47.0245 75.0304L49.0254 68.3206C49.4127 67.0218 50.2988 65.9334 51.4845 65.2767C56.722 62.3756 60.8531 57.7212 63.0868 52.106C63.4938 51.0829 62.7313 49.9725 61.6301 49.9725H40.5384C39.6748 49.9725 38.9748 49.2725 38.9748 48.4089V36.7545C38.9748 36.2364 39.3948 35.8162 39.9129 35.8162Z" fill="url(#paint0_linear_3971_4085)"></path>
    <path d="M54.672 11.5635V23.1616C54.672 23.6798 55.092 24.0998 55.6101 24.0998H56.7086C56.9825 24.0998 57.2379 23.9759 57.4209 23.7718C58.3072 22.783 59.6347 22.198 61.094 22.3277C63.2301 22.5174 64.9387 24.2726 65.0764 26.4127C65.2409 28.9705 63.215 31.0963 60.6925 31.0963C59.3859 31.0963 58.2131 30.5257 57.4084 29.6204C57.2268 29.416 56.9611 29.3065 56.6876 29.3065H55.6101C55.092 29.3065 54.672 29.7265 54.672 30.2446V41.899C54.672 42.7626 55.372 43.4626 56.2356 43.4626H79.5265C80.237 41.092 80.6201 38.5798 80.6201 35.9777C80.6201 22.1929 69.9062 10.911 56.3512 10.0034C55.4443 9.94274 54.672 10.6545 54.672 11.5635Z" fill="url(#paint1_linear_3971_4085)"></path>
    <path d="M36.2854 77.8136C35.6378 77.8136 35.1128 77.2886 35.1128 76.6409V56.4808C35.1128 55.8331 35.6378 55.3081 36.2854 55.3081C36.9331 55.3081 37.4581 55.8331 37.4581 56.4808V76.6409C37.4581 77.2886 36.9331 77.8136 36.2854 77.8136Z" fill="url(#paint2_linear_3971_4085)"></path>
    <path d="M41.4922 77.8136C40.8446 77.8136 40.3196 77.2886 40.3196 76.6409V56.4808C40.3196 55.8331 40.8446 55.3081 41.4922 55.3081C42.1399 55.3081 42.6649 55.8331 42.6649 56.4808V76.6409C42.6649 77.2886 42.1399 77.8136 41.4922 77.8136Z" fill="url(#paint3_linear_3971_4085)"></path>
    <path d="M43.2054 89.9999H34.5722C33.7768 89.9999 33.098 89.4249 32.9672 88.6402L31.5668 80.2371L38.9749 79.1885L46.211 80.2371L44.8105 88.6402C44.6796 89.4249 44.0007 89.9999 43.2054 89.9999Z" fill="#838DA7"></path>
    <path d="M48.1635 80.2369H29.6141C28.8952 80.2369 28.3124 79.6541 28.3124 78.9352V76.3317C28.3124 75.6128 28.8952 75.03 29.6141 75.03H48.1635C48.8824 75.03 49.4652 75.6128 49.4652 76.3317V78.9352C49.4652 79.6541 48.8824 80.2369 48.1635 80.2369Z" fill="#2C3449"></path>
    <path d="M76.9103 51.7408C82.9312 51.7408 87.8122 46.8598 87.8122 40.8389C87.8122 34.8179 82.9312 29.937 76.9103 29.937C70.8894 29.937 66.0084 34.8179 66.0084 40.8389C66.0084 46.8598 70.8894 51.7408 76.9103 51.7408Z" fill="#2C3449"></path>
    <path d="M75.3776 44.9417C75.0665 44.9417 74.7683 44.8181 74.5484 44.5982L71.7539 41.8036C71.2959 41.3456 71.2959 40.6031 71.7539 40.1451C72.2118 39.6871 72.9545 39.687 73.4123 40.1451L75.3776 42.1106L80.4084 37.0798C80.8664 36.6218 81.6089 36.6218 82.0668 37.0798C82.5248 37.5378 82.5248 38.2803 82.0668 38.7382L76.2068 44.5982C75.987 44.8181 75.6887 44.9417 75.3776 44.9417Z" fill="#FEF9EF"></path>
  </g>
  <defs>
    <linearGradient id="paint0_linear_3971_4085" x1="16.4506" y1="23.7048" x2="68.0108" y2="26.7222" gradientUnits="userSpaceOnUse">
      <stop stop-color="#FFCA41"></stop>
      <stop offset="1" stop-color="#FFDA7A"></stop>
    </linearGradient>
    <linearGradient id="paint1_linear_3971_4085" x1="67.6461" y1="9.99976" x2="67.6461" y2="43.4626" gradientUnits="userSpaceOnUse">
      <stop stop-color="#FF8B20"></stop>
      <stop offset="1" stop-color="#FDB572"></stop>
    </linearGradient>
    <linearGradient id="paint2_linear_3971_4085" x1="36.2854" y1="55.3081" x2="36.2854" y2="77.8136" gradientUnits="userSpaceOnUse">
      <stop stop-color="#FF8B20"></stop>
      <stop offset="1" stop-color="#FDB572"></stop>
    </linearGradient>
    <linearGradient id="paint3_linear_3971_4085" x1="41.4922" y1="55.3081" x2="41.4922" y2="77.8136" gradientUnits="userSpaceOnUse">
      <stop stop-color="#FF8B20"></stop>
      <stop offset="1" stop-color="#FDB572"></stop>
    </linearGradient>
    <clipPath id="clip0_3971_4085">
      <rect width="80" height="80" fill="white" transform="translate(10.3334 10)"></rect>
    </clipPath>
  </defs>
</svg>
