<?xml version="1.0" encoding="UTF-8"?>
<svg xmlns="http://www.w3.org/2000/svg" width="101" height="100" viewBox="0 0 101 100" fill="none">
  <g clip-path="url(#clip0_3971_4061)">
    <path d="M90.0443 61.1504L50.6664 63.4071L11.2889 61.1504V14.4892C11.2889 12.0099 13.2986 10.0002 15.7778 10.0002H85.5552C88.0344 10.0002 90.0441 12.0099 90.0441 14.4892V61.1504H90.0443Z" fill="#FEF3D8"></path>
    <path d="M85.5554 73.506H15.7778C13.2986 73.506 11.2889 71.4963 11.2889 69.0171V61.1504H90.0441V69.0171C90.0443 71.4963 88.0344 73.506 85.5554 73.506Z" fill="#838DA7"></path>
    <path d="M59.1944 88.8349H42.1383V73.506L50.4044 72.1677L59.1944 73.506V88.8349Z" fill="#838DA7"></path>
    <path d="M35.2539 53.399C45.0977 53.399 53.0777 45.419 53.0777 35.5752C53.0777 25.7314 45.0977 17.7515 35.2539 17.7515C25.4101 17.7515 17.4302 25.7314 17.4302 35.5752C17.4302 45.419 25.4101 53.399 35.2539 53.399Z" fill="url(#paint0_linear_3971_4061)"></path>
    <path d="M66.0788 53.399C75.9225 53.399 83.9025 45.419 83.9025 35.5752C83.9025 25.7314 75.9225 17.7515 66.0788 17.7515C56.235 17.7515 48.255 25.7314 48.255 35.5752C48.255 45.419 56.235 53.399 66.0788 53.399Z" fill="url(#paint1_linear_3971_4061)"></path>
    <path d="M64.9747 90H36.358C35.701 90 35.1683 89.4673 35.1683 88.8103C35.1683 88.1533 35.7008 87.6206 36.358 87.6206H64.9749C65.6319 87.6206 66.1646 88.1533 66.1646 88.8103C66.1646 89.4673 65.6319 90 64.9747 90Z" fill="#838DA7"></path>
    <path d="M53.0414 68.5181H48.2917C47.6347 68.5181 47.1021 67.9854 47.1021 67.3284C47.1021 66.6713 47.6346 66.1387 48.2917 66.1387H53.0414C53.6985 66.1387 54.2311 66.6713 54.2311 67.3284C54.2311 67.9854 53.6985 68.5181 53.0414 68.5181Z" fill="#FEF3D8"></path>
    <path d="M41.7716 29.0916C41.1243 29.0916 40.5997 29.6162 40.5997 30.2634V40.8876C40.5997 41.5348 41.1243 42.0595 41.7716 42.0595C42.419 42.0595 42.9435 41.5348 42.9435 40.8876V30.2634C42.9435 29.6161 42.419 29.0916 41.7716 29.0916Z" fill="#2C3449"></path>
    <path d="M36.1187 29.0916C35.4713 29.0916 34.9468 29.6162 34.9468 30.2634V37.5664C34.9468 38.1201 34.7926 38.8336 33.5893 39.4395C33.2241 39.6234 32.8077 39.7231 32.3629 39.7158C31.8635 39.7151 31.4287 39.5922 31.034 39.3401C30.2345 38.8291 29.9082 38.3175 29.9082 37.5741V30.2634C29.9082 29.6162 29.3837 29.0916 28.7363 29.0916C28.089 29.0916 27.5645 29.6162 27.5645 30.2634V37.5741C27.5645 39.1422 28.2865 40.3659 29.7721 41.3151C30.5435 41.8078 31.414 42.0583 32.3598 42.0595H32.3679C33.184 42.0595 33.9496 41.8823 34.6435 41.5326C36.8313 40.4309 37.2905 38.7676 37.2905 37.5662V30.2633C37.2905 29.6161 36.7659 29.0916 36.1187 29.0916Z" fill="#2C3449"></path>
    <path d="M77.0033 40.2132L73.4756 35.1985L76.4768 30.938C76.8497 30.4089 76.7229 29.6779 76.1937 29.305C75.6643 28.9322 74.9336 29.0591 74.5608 29.5882L72.0431 33.1621L69.5293 29.5888C69.1573 29.0597 68.4265 28.9322 67.8967 29.3046C67.3673 29.6769 67.2401 30.408 67.6126 30.9374L70.6095 35.1974L67.0767 40.2124C66.7039 40.7414 66.8306 41.4725 67.3598 41.8454C67.565 41.9899 67.8004 42.0593 68.0336 42.0593C68.4018 42.0593 68.7645 41.8861 68.9928 41.5622L72.042 37.2336L75.0867 41.5616C75.3148 41.886 75.6775 42.0593 76.0462 42.0593C76.279 42.0593 76.5143 41.99 76.7195 41.8458C77.2484 41.4736 77.3757 40.7425 77.0033 40.2132Z" fill="#2C3449"></path>
    <path d="M63.4953 29.0916C62.8479 29.0916 62.3234 29.6162 62.3234 30.2634V37.5664C62.3234 38.1201 62.1692 38.8336 60.9659 39.4395C60.6017 39.623 60.1907 39.7159 59.744 39.7159H59.7395C59.2401 39.7153 58.8053 39.5923 58.4106 39.3401C57.611 38.8292 57.2848 38.3176 57.2848 37.5742V30.2636C57.2848 29.6164 56.7603 29.0917 56.1129 29.0917C55.4656 29.0917 54.941 29.6164 54.941 30.2636V37.5742C54.941 39.1425 55.6632 40.3662 57.1487 41.3153C57.9201 41.808 58.7906 42.0584 59.7364 42.0597H59.7445C60.5604 42.0597 61.3259 41.8825 62.0201 41.5328C64.2079 40.4311 64.6671 38.7678 64.6671 37.5664V30.2634C64.6671 29.6161 64.1424 29.0916 63.4953 29.0916Z" fill="#2C3449"></path>
  </g>
  <defs>
    <linearGradient id="paint0_linear_3971_4061" x1="19.9764" y1="22.0538" x2="56.4351" y2="24.5835" gradientUnits="userSpaceOnUse">
      <stop stop-color="#FFCA41"></stop>
      <stop offset="1" stop-color="#FFDA7A"></stop>
    </linearGradient>
    <linearGradient id="paint1_linear_3971_4061" x1="66.0788" y1="17.7515" x2="66.0788" y2="53.399" gradientUnits="userSpaceOnUse">
      <stop stop-color="#FF8B20"></stop>
      <stop offset="1" stop-color="#FDB572"></stop>
    </linearGradient>
    <clipPath id="clip0_3971_4061">
      <rect width="80" height="80" fill="white" transform="translate(10.6666 10)"></rect>
    </clipPath>
  </defs>
</svg>
