<?xml version="1.0" encoding="UTF-8"?>
<svg xmlns="http://www.w3.org/2000/svg" width="101" height="100" viewBox="0 0 101 100" fill="none">
  <path d="M43.8374 62H56.8205C58.2573 62 59.4221 63.1648 59.4221 64.6016V80.2116C59.4221 81.6483 58.2574 82.8131 56.8205 82.8131H43.8373H26.2515H13.2682C11.8313 82.8131 10.6666 81.6483 10.6666 80.2116V64.6016C10.6666 63.1648 11.8315 62 13.2682 62H26.2513H43.8374Z" fill="#FEF3D8"></path>
  <path d="M62.8374 36H75.8205C77.2573 36 78.4221 37.1648 78.4221 38.6016V54.2116C78.4221 55.6483 77.2574 56.8131 75.8205 56.8131H62.8373H45.2515H32.2682C30.8313 56.8131 29.6666 55.6483 29.6666 54.2116V38.6016C29.6666 37.1648 30.8315 36 32.2682 36H45.2513H62.8374Z" fill="#FEF3D8"></path>
  <path d="M43.8624 10H56.8456C58.2823 10 59.4471 11.1648 59.4471 12.6016V28.2116C59.4471 29.6483 58.2824 30.8131 56.8456 30.8131H43.8623H26.2765H13.2932C11.8563 30.8131 10.6917 29.6483 10.6917 28.2116V12.6016C10.6917 11.1648 11.8565 10 13.2932 10H26.2763H43.8624Z" fill="#FEF3D8"></path>
  <path d="M13.2682 30.813H26.2763V10H13.2682C11.8315 10 10.6666 11.1648 10.6666 12.6016V28.2113C10.6666 29.6483 11.8315 30.813 13.2682 30.813Z" fill="url(#paint0_linear_3971_3977)"></path>
  <path d="M32.2032 56.8535H45.2114V36.0405H32.2032C30.7664 36.0405 29.6017 37.2054 29.6017 38.6421V54.2518C29.6017 55.6887 30.7664 56.8535 32.2032 56.8535Z" fill="url(#paint1_linear_3971_3977)"></path>
  <path d="M13.2682 82.8699H26.2763V62.0569H13.2682C11.8313 62.0569 10.6666 63.2217 10.6666 64.6584V80.2681C10.6666 81.705 11.8315 82.8699 13.2682 82.8699Z" fill="#2C3449"></path>
  <path d="M19.0958 26.7409C18.4486 26.7409 17.9239 26.2162 17.9239 25.569V16.3345H16.8716C16.2244 16.3345 15.6997 15.8098 15.6997 15.1626C15.6997 14.5154 16.2244 13.9907 16.8716 13.9907H19.0958C19.743 13.9907 20.2677 14.5154 20.2677 15.1626V25.5692C20.2677 26.2162 19.743 26.7409 19.0958 26.7409Z" fill="white"></path>
  <path d="M54.244 21.5786H31.4796C30.8324 21.5786 30.3077 21.0539 30.3077 20.4067C30.3077 19.7596 30.8324 19.2349 31.4796 19.2349H54.2438C54.891 19.2349 55.4157 19.7596 55.4157 20.4067C55.4157 21.0539 54.8912 21.5786 54.244 21.5786Z" fill="url(#paint2_linear_3971_3977)"></path>
  <path d="M54.244 16.3752H31.4796C30.8324 16.3752 30.3077 15.8506 30.3077 15.2034C30.3077 14.5562 30.8324 14.0315 31.4796 14.0315H54.2438C54.891 14.0315 55.4157 14.5562 55.4157 15.2034C55.4157 15.8506 54.8912 16.3752 54.244 16.3752Z" fill="url(#paint3_linear_3971_3977)"></path>
  <path d="M49.3659 26.7817H31.4796C30.8324 26.7817 30.3077 26.2571 30.3077 25.6099C30.3077 24.9627 30.8324 24.438 31.4796 24.438H49.3659C50.0131 24.438 50.5377 24.9627 50.5377 25.6099C50.5377 26.2571 50.0131 26.7817 49.3659 26.7817Z" fill="url(#paint4_linear_3971_3977)"></path>
  <path d="M40.1991 52.7903H35.018C34.5754 52.7903 34.1704 52.5407 33.9713 52.1453C33.7722 51.7498 33.813 51.276 34.0768 50.9204C34.0924 50.8992 34.5254 50.3088 37.6702 45.8156C38.3561 44.7917 38.5964 44.3862 38.5964 43.8773C38.5964 43.089 37.955 42.4476 37.1668 42.4476C36.4849 42.4476 35.8949 42.9318 35.7638 43.599C35.6389 44.234 35.0229 44.6474 34.388 44.5231C33.753 44.3984 33.3393 43.7823 33.4639 43.1473C33.8104 41.3838 35.3675 40.104 37.1666 40.104C39.2472 40.104 40.94 41.7968 40.94 43.8774C40.94 45.1462 40.3533 46.0218 39.6105 47.1303C39.6061 47.1368 39.6016 47.1434 39.5971 47.1498C38.5622 48.6284 37.8182 49.6885 37.2846 50.4467H40.1991C40.8463 50.4467 41.371 50.9713 41.371 51.6185C41.371 52.2657 40.8463 52.7903 40.1991 52.7903Z" fill="white"></path>
  <path d="M68.813 47.6189H50.4146C49.7674 47.6189 49.2427 47.0942 49.2427 46.447C49.2427 45.7998 49.7674 45.2751 50.4146 45.2751H68.813C69.4602 45.2751 69.9849 45.7998 69.9849 46.447C69.9849 47.0942 69.4602 47.6189 68.813 47.6189Z" fill="url(#paint5_linear_3971_3977)"></path>
  <path d="M73.1788 42.4155H50.4146C49.7674 42.4155 49.2427 41.8908 49.2427 41.2437C49.2427 40.5965 49.7674 40.0718 50.4146 40.0718H73.1788C73.826 40.0718 74.3506 40.5965 74.3506 41.2437C74.3506 41.8908 73.826 42.4155 73.1788 42.4155Z" fill="url(#paint6_linear_3971_3977)"></path>
  <path d="M65.691 52.822H50.4146C49.7674 52.822 49.2427 52.2973 49.2427 51.6501C49.2427 51.003 49.7674 50.4783 50.4146 50.4783H65.691C66.3381 50.4783 66.8628 51.003 66.8628 51.6501C66.8628 52.2973 66.3381 52.822 65.691 52.822Z" fill="url(#paint7_linear_3971_3977)"></path>
  <path d="M18.4714 78.7979C16.5994 78.7979 14.9927 77.4013 14.7342 75.5491C14.7102 75.3764 14.698 75.1999 14.698 75.0243C14.698 74.3771 15.2227 73.8524 15.8699 73.8524C16.5171 73.8524 17.0417 74.3771 17.0417 75.0243C17.0417 75.0918 17.0464 75.1593 17.0555 75.225C17.1533 75.9257 17.7619 76.4539 18.4714 76.4539C19.2597 76.4539 19.9011 75.8125 19.9011 75.0243C19.9011 74.236 19.2597 73.5946 18.4714 73.5946C17.8242 73.5946 17.2996 73.0699 17.2996 72.4227C17.2996 71.7755 17.8242 71.2508 18.4714 71.2508C19.2597 71.2508 19.9011 70.6094 19.9011 69.8211C19.9011 69.0329 19.2597 68.3914 18.4714 68.3914C17.7896 68.3914 17.1996 68.8757 17.0685 69.5429C16.9438 70.1779 16.3278 70.5916 15.6927 70.4669C15.0577 70.3422 14.6439 69.7261 14.7686 69.0911C15.115 67.3277 16.6722 66.0479 18.4713 66.0479C20.5519 66.0479 22.2447 67.7407 22.2447 69.8213C22.2447 70.8289 21.8478 71.7454 21.2021 72.4229C21.8478 73.1004 22.2447 74.0169 22.2447 75.0244C22.245 77.105 20.5522 78.7979 18.4714 78.7979Z" fill="white"></path>
  <path d="M54.244 73.6355H31.4796C30.8324 73.6355 30.3077 73.1108 30.3077 72.4636C30.3077 71.8164 30.8324 71.2917 31.4796 71.2917H54.2438C54.891 71.2917 55.4157 71.8164 55.4157 72.4636C55.4157 73.1108 54.8912 73.6355 54.244 73.6355Z" fill="#2C3449"></path>
  <path d="M54.244 68.4321H31.4796C30.8324 68.4321 30.3077 67.9074 30.3077 67.2603C30.3077 66.6131 30.8324 66.0884 31.4796 66.0884H54.2438C54.891 66.0884 55.4157 66.6131 55.4157 67.2603C55.4157 67.9074 54.8912 68.4321 54.244 68.4321Z" fill="#2C3449"></path>
  <path d="M49.3659 78.8386H31.4796C30.8324 78.8386 30.3077 78.3139 30.3077 77.6667C30.3077 77.0196 30.8324 76.4949 31.4796 76.4949H49.3659C50.0131 76.4949 50.5377 77.0196 50.5377 77.6667C50.5377 78.3139 50.0131 78.8386 49.3659 78.8386Z" fill="#2C3449"></path>
  <path fill-rule="evenodd" clip-rule="evenodd" d="M67.6667 74.454C74.0029 74.454 79.1207 69.3363 79.1207 63C79.1207 69.3363 84.2384 74.454 90.5747 74.454C84.2384 74.454 79.1207 79.5718 79.1207 85.908C79.1207 79.5718 74.0029 74.454 67.6667 74.454Z" fill="url(#paint8_linear_3971_3977)"></path>
  <path fill-rule="evenodd" clip-rule="evenodd" d="M69.6666 20.5C72.7103 20.5 75.1666 18.0259 75.1666 15C75.1666 18.0259 77.6407 20.5 80.6666 20.5C77.6407 20.5 75.1666 22.9563 75.1666 26C75.1666 22.9563 72.7103 20.5 69.6666 20.5Z" fill="url(#paint9_linear_3971_3977)"></path>
  <defs>
    <linearGradient id="paint0_linear_3971_3977" x1="11.7816" y1="12.5119" x2="27.78" y2="13.3445" gradientUnits="userSpaceOnUse">
      <stop stop-color="#FFCA41"></stop>
      <stop offset="1" stop-color="#FFDA7A"></stop>
    </linearGradient>
    <linearGradient id="paint1_linear_3971_3977" x1="37.4065" y1="36.0405" x2="37.4065" y2="56.8535" gradientUnits="userSpaceOnUse">
      <stop stop-color="#FF8B20"></stop>
      <stop offset="1" stop-color="#FDB572"></stop>
    </linearGradient>
    <linearGradient id="paint2_linear_3971_3977" x1="32.1012" y1="19.5177" x2="48.721" y2="31.8718" gradientUnits="userSpaceOnUse">
      <stop stop-color="#FFCA41"></stop>
      <stop offset="1" stop-color="#FFDA7A"></stop>
    </linearGradient>
    <linearGradient id="paint3_linear_3971_3977" x1="32.1012" y1="14.3144" x2="48.721" y2="26.6684" gradientUnits="userSpaceOnUse">
      <stop stop-color="#FFCA41"></stop>
      <stop offset="1" stop-color="#FFDA7A"></stop>
    </linearGradient>
    <linearGradient id="paint4_linear_3971_3977" x1="31.7527" y1="24.7209" x2="47.0541" y2="33.8851" gradientUnits="userSpaceOnUse">
      <stop stop-color="#FFCA41"></stop>
      <stop offset="1" stop-color="#FFDA7A"></stop>
    </linearGradient>
    <linearGradient id="paint5_linear_3971_3977" x1="59.6138" y1="45.2751" x2="59.6138" y2="47.6189" gradientUnits="userSpaceOnUse">
      <stop stop-color="#FF8B20"></stop>
      <stop offset="1" stop-color="#FDB572"></stop>
    </linearGradient>
    <linearGradient id="paint6_linear_3971_3977" x1="61.7967" y1="40.0718" x2="61.7967" y2="42.4155" gradientUnits="userSpaceOnUse">
      <stop stop-color="#FF8B20"></stop>
      <stop offset="1" stop-color="#FDB572"></stop>
    </linearGradient>
    <linearGradient id="paint7_linear_3971_3977" x1="58.0528" y1="50.4783" x2="58.0528" y2="52.822" gradientUnits="userSpaceOnUse">
      <stop stop-color="#FF8B20"></stop>
      <stop offset="1" stop-color="#FDB572"></stop>
    </linearGradient>
    <linearGradient id="paint8_linear_3971_3977" x1="79.1207" y1="63" x2="79.1207" y2="85.908" gradientUnits="userSpaceOnUse">
      <stop stop-color="#FF8B20"></stop>
      <stop offset="1" stop-color="#FDB572"></stop>
    </linearGradient>
    <linearGradient id="paint9_linear_3971_3977" x1="79.8809" y1="16.3276" x2="68.6306" y2="17.1082" gradientUnits="userSpaceOnUse">
      <stop stop-color="#FFCA41"></stop>
      <stop offset="1" stop-color="#FFDA7A"></stop>
    </linearGradient>
  </defs>
</svg>
