<svg width="78" height="30" viewBox="0 0 78 30" fill="none" xmlns="http://www.w3.org/2000/svg">
<path d="M21.5215 8.10709L8.14438 5.26999L5.27009 18.6712" stroke="black" stroke-width="2" stroke-miterlimit="10" stroke-linecap="round" stroke-linejoin="round"/>
<path d="M76.7552 15.3748C77.1366 14.9753 77.1218 14.3423 76.7223 13.961C76.3228 13.5796 75.6898 13.5943 75.3085 13.9938L76.7552 15.3748ZM75.3085 13.9938C68.6218 20.999 56.284 27.5466 43.5459 27.9775C37.1975 28.1923 30.7725 26.8879 24.8915 23.3881C19.0127 19.8897 13.6185 14.1627 9.38403 5.43718L7.58472 6.31038C11.965 15.3365 17.6084 21.3813 23.8687 25.1068C30.1266 28.8308 36.9418 30.2021 43.6135 29.9764C56.9154 29.5263 69.7366 22.7276 76.7552 15.3748L75.3085 13.9938Z" fill="black"/>
</svg>
