<?xml version="1.0" encoding="UTF-8"?>
<svg xmlns="http://www.w3.org/2000/svg" width="26" height="27" viewBox="0 0 26 27" fill="none">
  <g id="akar-icons:instagram-fill">
    <rect y="0.378906" width="26" height="26" rx="13" fill="#FFE39B"></rect>
    <path id="Vector" fill-rule="evenodd" clip-rule="evenodd" d="M9.65028 5.30266C10.5167 5.26277 10.793 5.25391 13 5.25391C15.207 5.25391 15.4833 5.26351 16.349 5.30266C17.2147 5.3418 17.8056 5.47993 18.3226 5.6801C18.864 5.8847 19.3552 6.20453 19.7615 6.61817C20.1751 7.02368 20.4942 7.51413 20.6981 8.05629C20.899 8.57334 21.0364 9.16425 21.0763 10.0285C21.1161 10.8963 21.125 11.1726 21.125 13.3789C21.125 15.586 21.1154 15.8622 21.0763 16.7286C21.0371 17.5928 20.899 18.1837 20.6981 18.7008C20.4942 19.243 20.1746 19.7343 19.7615 20.1404C19.3552 20.554 18.864 20.8731 18.3226 21.077C17.8056 21.2779 17.2147 21.4153 16.3505 21.4552C15.4833 21.495 15.207 21.5039 13 21.5039C10.793 21.5039 10.5167 21.4943 9.65028 21.4552C8.78608 21.416 8.19517 21.2779 7.67813 21.077C7.13591 20.8731 6.64464 20.5535 6.23852 20.1404C5.82517 19.7346 5.50529 19.2436 5.30119 18.7015C5.10102 18.1845 4.96364 17.5936 4.92375 16.7294C4.88386 15.8615 4.875 15.5852 4.875 13.3789C4.875 11.1719 4.8846 10.8956 4.92375 10.0299C4.9629 9.16425 5.10102 8.57334 5.30119 8.05629C5.50559 7.51419 5.82571 7.02317 6.23926 6.61743C6.6448 6.20416 7.13558 5.88429 7.67739 5.6801C8.19443 5.47993 8.78608 5.34254 9.65028 5.30266ZM16.2832 6.76516C15.4264 6.72601 15.1694 6.71788 13 6.71788C10.8306 6.71788 10.5736 6.72601 9.71676 6.76516C8.9242 6.80135 8.49432 6.93357 8.20773 7.0451C7.82881 7.19283 7.55773 7.36788 7.27335 7.65226C7.00378 7.91451 6.79633 8.23377 6.66619 8.58663C6.55466 8.87322 6.42244 9.30311 6.38625 10.0957C6.3471 10.9525 6.33898 11.2095 6.33898 13.3789C6.33898 15.5483 6.3471 15.8053 6.38625 16.6621C6.42244 17.4547 6.55466 17.8846 6.66619 18.1712C6.79619 18.5235 7.00375 18.8433 7.27335 19.1056C7.53557 19.3752 7.8554 19.5827 8.20773 19.7127C8.49432 19.8242 8.9242 19.9565 9.71676 19.9927C10.5736 20.0318 10.8299 20.0399 13 20.0399C15.1701 20.0399 15.4264 20.0318 16.2832 19.9927C17.0758 19.9565 17.5057 19.8242 17.7923 19.7127C18.1712 19.565 18.4423 19.3899 18.7266 19.1056C18.9963 18.8433 19.2038 18.5235 19.3338 18.1712C19.4453 17.8846 19.5776 17.4547 19.6138 16.6621C19.6529 15.8053 19.661 15.5483 19.661 13.3789C19.661 11.2095 19.6529 10.9525 19.6138 10.0957C19.5776 9.30311 19.4453 8.87322 19.3338 8.58663C19.1861 8.20771 19.011 7.93663 18.7266 7.65226C18.4644 7.38271 18.1451 7.17526 17.7923 7.0451C17.5057 6.93357 17.0758 6.80135 16.2832 6.76516ZM11.9622 15.8836C12.5418 16.1249 13.1872 16.1574 13.7881 15.9757C14.389 15.794 14.9082 15.4094 15.257 14.8874C15.6058 14.3654 15.7625 13.7385 15.7005 13.1138C15.6384 12.4891 15.3614 11.9053 14.9168 11.4621C14.6333 11.1789 14.2906 10.9619 13.9132 10.827C13.5358 10.6921 13.1333 10.6425 12.7345 10.6819C12.3356 10.7212 11.9505 10.8485 11.6068 11.0545C11.2631 11.2606 10.9693 11.5403 10.7466 11.8735C10.524 12.2067 10.378 12.5851 10.3191 12.9815C10.2603 13.3779 10.2901 13.7824 10.4063 14.1659C10.5226 14.5495 10.7224 14.9024 10.9914 15.1994C11.2605 15.4965 11.592 15.7301 11.9622 15.8836ZM10.0469 10.4258C10.4347 10.038 10.8951 9.73041 11.4018 9.52054C11.9085 9.31066 12.4516 9.20264 13 9.20264C13.5484 9.20264 14.0915 9.31066 14.5982 9.52054C15.1049 9.73041 15.5653 10.038 15.9531 10.4258C16.3409 10.8136 16.6485 11.274 16.8584 11.7807C17.0682 12.2874 17.1763 12.8305 17.1763 13.3789C17.1763 13.9273 17.0682 14.4704 16.8584 14.9771C16.6485 15.4838 16.3409 15.9442 15.9531 16.332C15.1699 17.1152 14.1076 17.5552 13 17.5552C11.8924 17.5552 10.8301 17.1152 10.0469 16.332C9.26373 15.5488 8.82373 14.4865 8.82373 13.3789C8.82373 12.2713 9.26373 11.209 10.0469 10.4258ZM18.1025 9.82459C18.1986 9.73393 18.2755 9.62492 18.3287 9.504C18.382 9.38308 18.4104 9.25271 18.4123 9.12062C18.4142 8.98852 18.3896 8.85738 18.34 8.73496C18.2903 8.61254 18.2166 8.50133 18.1232 8.40791C18.0297 8.3145 17.9185 8.24077 17.7961 8.19111C17.6737 8.14144 17.5425 8.11684 17.4104 8.11877C17.2784 8.12069 17.148 8.14911 17.0271 8.20232C16.9061 8.25553 16.7971 8.33247 16.7065 8.42857C16.5302 8.61546 16.4336 8.86371 16.4374 9.12062C16.4411 9.37752 16.5449 9.62285 16.7265 9.80453C16.9082 9.98621 17.1535 10.0899 17.4104 10.0937C17.6674 10.0974 17.9156 10.0009 18.1025 9.82459Z" fill="#161B26"></path>
  </g>
</svg>
