<?xml version="1.0" encoding="UTF-8"?>
<svg xmlns="http://www.w3.org/2000/svg" width="85" height="23" viewBox="0 0 85 23" fill="none">
  <g id="Frame 1000000997" clip-path="url(#clip0_725_991)">
    <g id="Group 1000000991">
      <path id="Vector" d="M25.4763 14.3542C24.2741 14.3542 23.1475 13.8439 22.124 13.0132L22.3732 11.8404L22.3841 11.7969C22.606 10.5483 23.3101 8.45237 25.4763 8.45237C27.1009 8.45237 28.4224 9.77722 28.4224 11.406C28.4169 13.0294 27.0956 14.3542 25.4763 14.3542ZM25.4763 5.4608C22.7089 5.4608 20.5644 7.26339 19.6926 10.2279C18.3603 8.22436 17.3529 5.81918 16.7627 3.79395H13.7842V11.5634C13.7842 13.0946 12.5385 14.3432 11.0113 14.3432C9.48412 14.3432 8.23866 13.0946 8.23866 11.5634V3.79395H5.2598V11.5634C5.24896 14.7452 7.83222 17.3567 11.0057 17.3567C14.1793 17.3567 16.7626 14.7452 16.7626 11.5634V10.2605C17.342 11.4712 18.0514 12.6927 18.9125 13.7787L17.0874 22.3788H20.1365L21.4578 16.1404C22.6167 16.8843 23.949 17.3513 25.4762 17.3513C28.7417 17.3513 31.4008 14.6691 31.4008 11.3951C31.4008 8.12659 28.7419 5.4608 25.4763 5.4608Z" fill="#B1B7C9"></path>
      <path id="Vector_2" d="M40.4936 5.79753L42.4161 13.567L44.5337 5.79753H47.0573L43.8026 17.0256H41.2788L39.2806 9.20715L37.2876 17.0201H34.764L31.509 5.79217H34.0328L36.1502 13.5617L38.0727 5.79217H40.4934V5.79768L40.4936 5.79753ZM53.0956 5.46089C49.8192 5.46089 47.1656 8.12667 47.1656 11.4061C47.1656 14.691 49.8246 17.3514 53.0956 17.3514C56.3721 17.3514 59.0311 14.691 59.0311 11.4061C59.0311 8.12131 56.3721 5.46089 53.0956 5.46089ZM53.0956 14.9081C51.1677 14.9081 49.608 13.3444 49.608 11.4116C49.608 9.47861 51.1731 7.91504 53.0956 7.91504C55.0236 7.91504 56.5832 9.47861 56.5832 11.4116C56.5832 13.339 55.0236 14.9081 53.0956 14.9081ZM66.2391 8.31136C64.5442 8.31136 63.174 9.69039 63.174 11.3843V17.0201H60.634V5.79753H63.174V7.52407C63.174 7.52407 64.2571 5.79203 66.4829 5.79203H67.2627V8.31136H66.2391ZM74.7633 10.9718C76.5665 9.95099 77.7906 8.01267 77.7906 5.79203H75.2506C75.2506 7.66516 73.7343 9.18542 71.866 9.18542H71.5247V0.378906H68.9849V17.02H71.5247V11.7318H71.8281C72.0772 11.7318 72.4022 11.8948 72.5484 12.0956L76.155 17.0201H79.1986L74.7633 10.9718Z" fill="#838DA7"></path>
    </g>
  </g>
  <defs>
    <clipPath id="clip0_725_991">
      <rect width="84.1176" height="22" fill="white" transform="translate(0.17041 0.378906)"></rect>
    </clipPath>
  </defs>
</svg>
