<?xml version="1.0" encoding="UTF-8"?>
<svg xmlns="http://www.w3.org/2000/svg" width="86" height="22" viewBox="0 0 86 22" fill="none">
  <g id="Group 427320306">
    <path id="Vector" d="M23.1063 8.34668H31.7376V9.94413H28.3391V18.9492H26.4763V9.94413H23.092L23.1063 8.34668ZM31.3679 11.273H32.9605V12.7573H32.9889C33.0458 12.5453 33.1454 12.3474 33.2876 12.1495C33.4297 11.9515 33.6004 11.7678 33.8137 11.6123C34.0128 11.4426 34.2403 11.3154 34.4962 11.2164C34.738 11.1175 34.9939 11.0609 35.2499 11.0609C35.4489 11.0609 35.5911 11.0751 35.6622 11.0751C35.7333 11.0892 35.8187 11.1033 35.8898 11.1033V12.7291C35.776 12.7008 35.648 12.6867 35.52 12.6725C35.3921 12.6584 35.2783 12.6442 35.1503 12.6442C34.8659 12.6442 34.5958 12.7008 34.3398 12.8139C34.0839 12.927 33.8706 13.0966 33.6715 13.3087C33.4866 13.5349 33.3302 13.8035 33.2165 14.1286C33.1027 14.4538 33.0458 14.8354 33.0458 15.2595V18.9068H31.3395L31.3679 11.273ZM43.7106 18.9492H42.0327V17.8748H42.0042C41.7909 18.2707 41.4781 18.5675 41.0657 18.8079C40.6533 19.0482 40.2268 19.1613 39.8002 19.1613C38.7906 19.1613 38.0511 18.921 37.5961 18.412C37.1411 17.9173 36.9136 17.1539 36.9136 16.1502V11.273H38.6199V15.9805C38.6199 16.6591 38.7479 17.1397 39.0181 17.4083C39.274 17.6911 39.6437 17.8324 40.113 17.8324C40.4685 17.8324 40.7671 17.7759 41.0088 17.6628C41.2506 17.5497 41.4496 17.4083 41.5918 17.2246C41.7483 17.0408 41.8478 16.8146 41.9189 16.5601C41.99 16.3057 42.0184 16.0229 42.0184 15.7261V11.273H43.7248V18.9492H43.7106ZM46.6114 16.4894C46.6683 16.9842 46.8531 17.3235 47.1802 17.5356C47.5072 17.7335 47.9054 17.8324 48.3604 17.8324C48.5168 17.8324 48.7017 17.8183 48.9008 17.79C49.0998 17.7617 49.2989 17.7193 49.4695 17.6487C49.6544 17.578 49.7966 17.479 49.9104 17.3376C50.0241 17.1963 50.081 17.0266 50.0668 16.8146C50.0526 16.6025 49.9815 16.4188 49.825 16.2774C49.6686 16.136 49.4838 16.0371 49.2563 15.9381C49.0287 15.8533 48.7586 15.7826 48.4599 15.7261C48.1613 15.6695 47.8627 15.5988 47.5499 15.5281C47.2371 15.4575 46.9242 15.3726 46.6256 15.2737C46.327 15.1747 46.071 15.0475 45.8293 14.8637C45.6018 14.6941 45.4027 14.482 45.2747 14.2134C45.1325 13.9448 45.0614 13.6338 45.0614 13.238C45.0614 12.8139 45.161 12.4746 45.3743 12.1919C45.5734 11.9091 45.8435 11.683 46.1564 11.5133C46.4692 11.3437 46.8247 11.2164 47.2086 11.1458C47.5926 11.0751 47.9623 11.0468 48.3035 11.0468C48.7017 11.0468 49.0856 11.0892 49.4411 11.174C49.7966 11.2588 50.1379 11.3861 50.4223 11.584C50.7209 11.7678 50.9626 12.0222 51.1475 12.3191C51.3465 12.616 51.4603 12.9835 51.5172 13.4076H49.7397C49.6544 12.9977 49.4695 12.7291 49.1852 12.5877C48.8865 12.4463 48.5595 12.3757 48.1756 12.3757C48.0618 12.3757 47.9054 12.3898 47.749 12.4039C47.5783 12.4322 47.4361 12.4605 47.2797 12.517C47.1375 12.5736 47.0095 12.6584 46.91 12.7573C46.8105 12.8563 46.7536 12.9977 46.7536 13.1673C46.7536 13.3794 46.8247 13.5349 46.9669 13.6621C47.1091 13.7893 47.2939 13.8883 47.5357 13.9872C47.7632 14.0721 48.0334 14.1427 48.332 14.1993C48.6306 14.2558 48.9434 14.3265 49.2563 14.3972C49.5691 14.4679 49.8677 14.5527 50.1663 14.6517C50.4649 14.7506 50.7351 14.8779 50.9626 15.0616C51.1901 15.2313 51.3892 15.4433 51.5314 15.6978C51.6736 15.9522 51.7447 16.2774 51.7447 16.6449C51.7447 17.0973 51.6452 17.479 51.4319 17.8042C51.2186 18.1152 50.9484 18.3838 50.6213 18.5817C50.2943 18.7796 49.9104 18.921 49.5122 19.0199C49.0998 19.1047 48.7017 19.1613 48.3035 19.1613C47.8201 19.1613 47.365 19.1047 46.9527 18.9916C46.5403 18.8786 46.1706 18.7089 45.872 18.4969C45.5734 18.2707 45.3316 18.0021 45.161 17.6628C44.9903 17.3376 44.8908 16.9418 44.8766 16.4753H46.5972V16.4894H46.6114ZM52.2282 11.273H53.5222V8.95456H55.2285V11.2588H56.7642V12.517H55.2285V16.6167C55.2285 16.8005 55.2427 16.9418 55.257 17.0832C55.2712 17.2104 55.3138 17.3235 55.3565 17.4083C55.4134 17.4931 55.4987 17.5638 55.5982 17.6062C55.712 17.6487 55.8542 17.6769 56.0533 17.6769C56.167 17.6769 56.295 17.6769 56.4087 17.6628C56.5225 17.6487 56.6505 17.6345 56.7642 17.6062V18.921C56.5794 18.9492 56.3945 18.9634 56.2097 18.9775C56.0248 19.0058 55.8542 19.0058 55.6551 19.0058C55.2001 19.0058 54.8446 18.9634 54.5744 18.8786C54.3042 18.7937 54.0909 18.6665 53.9345 18.511C53.7781 18.3414 53.6786 18.1434 53.6217 17.9031C53.5648 17.6628 53.5364 17.3659 53.5222 17.0549V12.5312H52.2282V11.2447V11.273ZM57.9587 11.273H59.5655V12.3191H59.594C59.8357 11.8667 60.1627 11.5557 60.5893 11.3578C61.0159 11.1599 61.471 11.0609 61.9829 11.0609C62.5943 11.0609 63.1204 11.1599 63.5755 11.3861C64.0305 11.5981 64.4002 11.8809 64.6988 12.2626C64.9974 12.6301 65.225 13.0684 65.3671 13.5631C65.5093 14.0579 65.5947 14.5951 65.5947 15.1465C65.5947 15.6695 65.5236 16.1643 65.3956 16.6449C65.2534 17.1256 65.0543 17.5638 64.7841 17.9314C64.514 18.2989 64.1727 18.5958 63.7461 18.822C63.3195 19.0482 62.836 19.1613 62.2673 19.1613C62.0255 19.1613 61.7696 19.133 61.5278 19.0906C61.2861 19.0482 61.0444 18.9775 60.8169 18.8786C60.5893 18.7796 60.376 18.6524 60.1912 18.4969C59.9921 18.3414 59.8357 18.1576 59.7077 17.9597H59.6793V21.7907H57.9729V11.273H57.9587ZM63.9167 15.1182C63.9167 14.7789 63.8741 14.4396 63.7745 14.1145C63.6892 13.7893 63.547 13.5066 63.3622 13.2521C63.1773 12.9977 62.9498 12.7998 62.6939 12.6442C62.4237 12.4887 62.1108 12.4181 61.7696 12.4181C61.0586 12.4181 60.5182 12.6584 60.1485 13.1532C59.793 13.648 59.6082 14.3124 59.6082 15.1323C59.6082 15.5281 59.6508 15.8816 59.7504 16.2067C59.8499 16.5319 59.9779 16.8146 60.177 17.0549C60.3618 17.2952 60.5893 17.479 60.8595 17.6204C61.1297 17.7617 61.4283 17.8324 61.7838 17.8324C62.1819 17.8324 62.4948 17.7476 62.7649 17.5921C63.0351 17.4366 63.2484 17.2246 63.4333 16.9842C63.6039 16.7298 63.7319 16.447 63.803 16.1219C63.8741 15.7826 63.9167 15.4575 63.9167 15.1182ZM66.9171 8.34668H68.6235V9.94413H66.9171V8.34668ZM66.9171 11.273H68.6235V18.9492H66.9171V11.273ZM70.145 8.34668H71.8513V18.9492H70.145V8.34668ZM77.0557 19.1613C76.4443 19.1613 75.8897 19.0623 75.4062 18.8503C74.9228 18.6382 74.5246 18.3696 74.1834 18.0162C73.8563 17.6628 73.6003 17.2246 73.4297 16.7298C73.2591 16.235 73.1595 15.6836 73.1595 15.104C73.1595 14.5244 73.2449 13.9872 73.4297 13.4925C73.6003 12.9977 73.8563 12.5736 74.1834 12.206C74.5104 11.8526 74.9228 11.5699 75.4062 11.3719C75.8897 11.174 76.4443 11.0609 77.0557 11.0609C77.6672 11.0609 78.2217 11.1599 78.7052 11.3719C79.1887 11.5699 79.5868 11.8526 79.9281 12.206C80.2552 12.5594 80.5111 12.9977 80.6817 13.4925C80.8524 13.9872 80.9519 14.5244 80.9519 15.104C80.9519 15.6978 80.8666 16.235 80.6817 16.7298C80.4969 17.2246 80.2552 17.6487 79.9281 18.0162C79.601 18.3696 79.1887 18.6524 78.7052 18.8503C78.2217 19.0482 77.6814 19.1613 77.0557 19.1613ZM77.0557 17.8183C77.4254 17.8183 77.7667 17.7335 78.0369 17.578C78.3213 17.4225 78.5346 17.2104 78.7194 16.956C78.9043 16.7015 79.0323 16.4046 79.1176 16.0936C79.2029 15.7685 79.2456 15.4433 79.2456 15.104C79.2456 14.7789 79.2029 14.4538 79.1176 14.1286C79.0323 13.8035 78.9043 13.5207 78.7194 13.2663C78.5346 13.0118 78.3071 12.8139 78.0369 12.6584C77.7525 12.5029 77.4254 12.4181 77.0557 12.4181C76.686 12.4181 76.3447 12.5029 76.0746 12.6584C75.7902 12.8139 75.5769 13.0259 75.392 13.2663C75.2072 13.5207 75.0792 13.8035 74.9939 14.1286C74.9086 14.4538 74.8659 14.7789 74.8659 15.104C74.8659 15.4433 74.9086 15.7685 74.9939 16.0936C75.0792 16.4188 75.2072 16.7015 75.392 16.956C75.5769 17.2104 75.8044 17.4225 76.0746 17.578C76.359 17.7476 76.686 17.8183 77.0557 17.8183ZM81.4638 11.273H82.7578V8.95456H84.4642V11.2588H85.9999V12.517H84.4642V16.6167C84.4642 16.8005 84.4784 16.9418 84.4926 17.0832C84.5068 17.2104 84.5495 17.3235 84.5922 17.4083C84.649 17.4931 84.7344 17.5638 84.8339 17.6062C84.9476 17.6487 85.0898 17.6769 85.2889 17.6769C85.4027 17.6769 85.5307 17.6769 85.6444 17.6628C85.7582 17.6487 85.8862 17.6345 85.9999 17.6062V18.921C85.8151 18.9492 85.6302 18.9634 85.4453 18.9775C85.2605 19.0058 85.0898 19.0058 84.8908 19.0058C84.4357 19.0058 84.0802 18.9634 83.8101 18.8786C83.5399 18.7937 83.3266 18.6665 83.1702 18.511C83.0138 18.3414 82.9142 18.1434 82.8574 17.9031C82.8005 17.6628 82.772 17.3659 82.7578 17.0549V12.5312H81.4638V11.2447V11.273Z" fill="#838DA7"></path>
    <path id="Vector_2" d="M21.1156 8.34667H13.309L10.9058 0.967285L8.48849 8.34667L0.681885 8.33253L6.99542 12.8987L4.57808 20.2781L10.8916 15.7119L17.2052 20.2781L14.802 12.8987L21.1156 8.34667Z" fill="#B0B7C9"></path>
    <path id="Vector_3" d="M15.3423 14.5666L14.802 12.8984L10.9058 15.7116L15.3423 14.5666Z" fill="#838DA7"></path>
  </g>
</svg>
