<?xml version="1.0" encoding="UTF-8"?>
<svg xmlns="http://www.w3.org/2000/svg" width="32" height="33" viewBox="0 0 32 33" fill="none">
  <g id="visa">
    <path id="bg" d="M2 16.3789C2 8.64692 8.26801 2.37891 16 2.37891C23.732 2.37891 30 8.64692 30 16.3789C30 24.1109 23.732 30.3789 16 30.3789C8.26801 30.3789 2 24.1109 2 16.3789Z" fill="#B4B8C4"></path>
    <path id="visa_2" d="M5.57446 10.1235V10.7193L7.7524 11.0622C9.29561 11.3051 10.5394 12.4651 10.8989 13.9967L13.4485 24.8564C13.5116 25.1252 13.7497 25.315 14.0238 25.315H17.6015C17.8375 25.315 18.0509 25.1736 18.1444 24.9552L24.3159 10.5394C24.4001 10.3428 24.257 10.1235 24.0445 10.1235H20.7482C20.5101 10.1235 20.2953 10.2674 20.2031 10.4885L16.0689 20.4001L14.4197 11.5799C14.2617 10.7353 13.5296 10.1235 12.6766 10.1235H5.57446Z" fill="white"></path>
  </g>
</svg>
