<svg width="60" height="60" viewBox="0 0 60 60" fill="none" xmlns="http://www.w3.org/2000/svg">
<path d="M31.8992 40.101H44.1821C44.8941 40.101 45.4713 39.5234 45.4713 38.8108V29.1937C45.4713 28.4812 44.8941 27.9036 44.1821 27.9036H31.8992C31.1872 27.9036 30.61 28.4812 30.61 29.1937V38.8108C30.61 39.5234 31.1872 40.101 31.8992 40.101Z" fill="url(#paint0_linear_4410_5452)"/>
<path fill-rule="evenodd" clip-rule="evenodd" d="M52.903 7.09852C51.5657 5.75815 49.7512 5.00419 47.8593 5H12.145C10.253 5.00419 8.43856 5.75815 7.10124 7.09852C5.76182 8.43679 5.0084 10.2526 5.00421 12.1458V17.5094H55V12.1458C54.9958 10.2526 54.2424 8.43679 52.903 7.09852ZM22.3413 13.4066C22.0064 13.7396 21.5544 13.9281 21.0814 13.9281H13.926C13.453 13.9281 13.0009 13.7396 12.6661 13.4066C12.3333 13.0715 12.145 12.6192 12.145 12.1458C12.145 11.6725 12.3333 11.2202 12.6661 10.8851C13.0009 10.5521 13.453 10.3636 13.926 10.3636H21.0814C21.5544 10.3636 22.0064 10.5521 22.3413 10.8851C22.6741 11.2202 22.8624 11.6725 22.8624 12.1458C22.8624 12.6192 22.6741 13.0715 22.3413 13.4066ZM40.6704 12.4935C40.6013 12.8391 40.4318 13.1574 40.1827 13.4066C39.9337 13.6559 39.6156 13.8255 39.2702 13.8946C38.9249 13.9637 38.5671 13.9281 38.2406 13.792C37.9162 13.658 37.6378 13.4297 37.4432 13.1365C37.2465 12.8433 37.1418 12.4977 37.1418 12.1458C37.1418 11.6725 37.3302 11.2202 37.663 10.8851C37.9978 10.5521 38.4499 10.3636 38.9229 10.3636C39.2745 10.3636 39.6198 10.4683 39.9128 10.6631C40.2058 10.8599 40.4339 11.1385 40.5678 11.4631C40.7039 11.7898 40.7394 12.1479 40.6704 12.4935ZM47.8069 12.504C47.7379 12.8475 47.5663 13.1637 47.3172 13.4108C47.0682 13.66 46.7501 13.8276 46.4048 13.8946C46.0594 13.9616 45.7016 13.926 45.3772 13.792C45.0528 13.6559 44.7765 13.4276 44.5819 13.1344C44.3851 12.8412 44.2826 12.4977 44.2826 12.1458C44.2826 11.9113 44.3287 11.6767 44.4187 11.461C44.5086 11.2432 44.6426 11.0463 44.81 10.8809C44.9753 10.7133 45.1741 10.5835 45.3918 10.4955C45.6095 10.4055 45.8439 10.3615 46.0783 10.3636C46.4299 10.3657 46.7731 10.4746 47.064 10.6714C47.3549 10.8683 47.5809 11.1489 47.7128 11.4736C47.8446 11.8003 47.8781 12.1584 47.8069 12.504Z" fill="url(#paint1_linear_4410_5452)"/>
<path fill-rule="evenodd" clip-rule="evenodd" d="M5.00419 47.8563C5.00838 49.7495 5.7618 51.5653 7.09912 52.9036C8.43645 54.2419 10.2509 54.9958 12.1429 55H47.8571C49.7491 54.9958 51.5636 54.2419 52.9009 52.9036C54.2382 51.5653 54.9916 49.7495 54.9958 47.8563V21.0593H5V47.8563H5.00419ZM28.2222 27.3109C28.2222 26.8376 28.4084 26.381 28.7433 26.0459C29.076 25.7087 29.5302 25.5182 30.0032 25.514H46.0803C46.5533 25.5182 47.0075 25.7087 47.3402 26.0459C47.673 26.3831 47.8613 26.8376 47.8613 27.3109V40.7104C47.8613 41.1837 47.673 41.6361 47.3402 41.9712C47.0054 42.3063 46.5533 42.4927 46.0803 42.4927H30.0032C29.5302 42.4927 29.0781 42.3042 28.7433 41.9712C28.4084 41.6361 28.2222 41.1837 28.2222 40.7104V27.3109ZM12.7645 49.0375C12.4631 48.7066 12.2957 48.2751 12.2957 47.8269C12.2957 47.3788 12.4631 46.9473 12.7645 46.6164C13.0658 46.2855 13.4802 46.0782 13.926 46.0363H46.231C46.6768 46.0782 47.0912 46.2855 47.3925 46.6164C47.6939 46.9473 47.8613 47.3788 47.8613 47.8269C47.8613 48.2751 47.6939 48.7066 47.3925 49.0375C47.0912 49.3684 46.6768 49.5757 46.231 49.6176H13.926C13.4802 49.5757 13.0658 49.3684 12.7645 49.0375ZM12.6661 41.9335C12.3312 41.5984 12.145 41.146 12.145 40.6727C12.145 40.1994 12.3333 39.747 12.6661 39.4119C13.0009 39.0768 13.453 38.8904 13.926 38.8904H22.8624C23.3354 38.8904 23.7874 39.0789 24.1223 39.4119C24.4571 39.747 24.6434 40.1994 24.6434 40.6727C24.6434 41.146 24.455 41.5984 24.1223 41.9335C23.7874 42.2686 23.3354 42.455 22.8624 42.455H13.926C13.453 42.455 13.0009 42.2665 12.6661 41.9335ZM12.6661 35.2631C12.3312 34.928 12.145 34.4756 12.145 34.0023C12.145 33.529 12.3333 33.0766 12.6661 32.7415C13.0009 32.4064 13.453 32.22 13.926 32.22H22.8624C23.3354 32.22 23.7874 32.4085 24.1223 32.7415C24.4571 33.0766 24.6434 33.529 24.6434 34.0023C24.6434 34.4756 24.455 34.928 24.1223 35.2631C23.7874 35.5982 23.3354 35.7846 22.8624 35.7846H13.926C13.453 35.7846 13.0009 35.5961 12.6661 35.2631ZM12.6661 28.7371C12.3312 28.402 12.145 27.9497 12.145 27.4763C12.145 27.003 12.3333 26.5507 12.6661 26.2156C13.0009 25.8805 13.453 25.6941 13.926 25.6941H22.8624C23.3354 25.6941 23.7874 25.8826 24.1223 26.2156C24.4571 26.5507 24.6434 27.003 24.6434 27.4763C24.6434 27.9497 24.455 28.402 24.1223 28.7371C23.7874 29.0722 23.3354 29.2586 22.8624 29.2586H13.926C13.453 29.2586 13.0009 29.0701 12.6661 28.7371Z" fill="url(#paint2_linear_4410_5452)"/>
<path d="M41.6896 30.2346V33.4158C41.6896 33.7635 41.4552 34.0441 41.1664 34.0441H40.6432V37.772C40.6432 38.1197 40.4088 38.4003 40.12 38.4003H35.928C35.6392 38.4003 35.4048 38.1197 35.4048 37.772V34.0441H34.8816C34.5928 34.0441 34.3584 33.7635 34.3584 33.4158V30.2346C34.3584 29.8869 34.5928 29.6063 34.8816 29.6063H36.9786C37.2695 29.6063 37.5018 29.8869 37.5018 30.2346C37.5018 30.5822 37.7362 30.8629 38.025 30.8629C38.3138 30.8629 38.5482 30.5822 38.5482 30.2346C38.5482 29.8869 38.7826 29.6063 39.0714 29.6063H41.1685C41.4594 29.6063 41.6917 29.8869 41.6917 30.2346H41.6896Z" fill="#434C62"/>
<defs>
<linearGradient id="paint0_linear_4410_5452" x1="45.4713" y1="34.0044" x2="30.6121" y2="34.0044" gradientUnits="userSpaceOnUse">
<stop stop-color="#FF8B20"/>
<stop offset="1" stop-color="#FDB572"/>
</linearGradient>
<linearGradient id="paint1_linear_4410_5452" x1="5.00421" y1="11.2537" x2="55" y2="11.2537" gradientUnits="userSpaceOnUse">
<stop stop-color="#FF8B20"/>
<stop offset="1" stop-color="#FDB572"/>
</linearGradient>
<linearGradient id="paint2_linear_4410_5452" x1="30.0031" y1="55.1487" x2="30.0031" y2="21.7379" gradientUnits="userSpaceOnUse">
<stop stop-color="#FFCA41"/>
<stop offset="1" stop-color="#FFDA7A"/>
</linearGradient>
</defs>
</svg>
