<svg width="60" height="60" viewBox="0 0 60 60" fill="none" xmlns="http://www.w3.org/2000/svg">
<path d="M27.8731 29.0816H16.0711C15.3805 29.0816 14.8207 29.6414 14.8207 30.332V44.2159C14.8207 44.9064 15.3805 45.4662 16.0711 45.4662H27.8731C28.5637 45.4662 29.1235 44.9064 29.1235 44.2159V30.332C29.1235 29.6414 28.5637 29.0816 27.8731 29.0816Z" fill="url(#paint0_linear_4410_5398)"/>
<path fill-rule="evenodd" clip-rule="evenodd" d="M52.9349 7.09861C51.5966 5.75818 49.7807 5.00419 47.8874 5H12.1461C10.2528 5.00419 8.43694 5.75818 7.09861 7.09861C5.75818 8.43694 5.00419 10.2528 5 12.1461V17.5099H55.0335V12.1461C55.0293 10.2528 54.2753 8.43694 52.9349 7.09861ZM22.3501 13.407C22.015 13.74 21.5627 13.9285 21.0893 13.9285H13.9285C13.4552 13.9285 13.0028 13.74 12.6677 13.407C12.3346 13.0719 12.1461 12.6195 12.1461 12.1461C12.1461 11.6728 12.3346 11.2204 12.6677 10.8853C13.0028 10.5523 13.4552 10.3638 13.9285 10.3638H21.0893C21.5627 10.3638 22.015 10.5523 22.3501 10.8853C22.6832 11.2204 22.8717 11.6728 22.8717 12.1461C22.8717 12.6195 22.6832 13.0719 22.3501 13.407ZM40.693 12.4938C40.6239 12.8394 40.4543 13.1578 40.205 13.407C39.9558 13.6562 39.6375 13.8259 39.2919 13.895C38.9463 13.9641 38.5882 13.9285 38.2614 13.7924C37.9368 13.6583 37.6582 13.43 37.4635 13.1368C37.2666 12.8436 37.1619 12.498 37.1619 12.1461C37.1619 11.6728 37.3504 11.2204 37.6834 10.8853C38.0185 10.5523 38.4709 10.3638 38.9442 10.3638C39.2961 10.3638 39.6417 10.4685 39.9349 10.6633C40.2281 10.8602 40.4564 11.1387 40.5904 11.4634C40.7266 11.7901 40.7622 12.1482 40.693 12.4938ZM47.835 12.5043C47.7659 12.8478 47.5942 13.164 47.3449 13.4112C47.0957 13.6604 46.7773 13.828 46.4318 13.895C46.0862 13.962 45.728 13.9264 45.4034 13.7924C45.0788 13.6562 44.8023 13.4279 44.6075 13.1347C44.4106 12.8415 44.308 12.498 44.308 12.1461C44.308 11.9116 44.3541 11.677 44.4441 11.4613C44.5342 11.2435 44.6682 11.0466 44.8358 10.8811C45.0013 10.7136 45.2002 10.5837 45.418 10.4957C45.6359 10.4057 45.8704 10.3617 46.105 10.3638C46.4569 10.3659 46.8004 10.4748 47.0915 10.6717C47.3826 10.8686 47.6088 11.1492 47.7408 11.4738C47.8727 11.8006 47.9062 12.1587 47.835 12.5043Z" fill="url(#paint1_linear_4410_5398)"/>
<path fill-rule="evenodd" clip-rule="evenodd" d="M55.0335 21.0579H5V47.8559C5.00419 49.7493 5.75818 51.5651 7.09651 52.9035C8.43484 54.2418 10.2507 54.9958 12.1441 55H47.8853C49.7786 54.9958 51.5945 54.2418 52.9328 52.9035C54.2711 51.5651 55.0251 49.7493 55.0293 47.8559V21.0579H55.0335ZM31.7981 46.0757C31.7981 46.549 31.6096 47.0014 31.2765 47.3365C30.9414 47.6716 30.4891 47.858 30.0157 47.858H13.9264C13.4531 47.858 13.0007 47.6695 12.6656 47.3365C12.3305 47.0014 12.1441 46.549 12.1441 46.0757V28.204C12.1441 27.7307 12.3305 27.2741 12.6656 26.939C12.9986 26.6018 13.4531 26.4112 13.9264 26.407H30.0157C30.4891 26.4112 30.9435 26.6018 31.2765 26.939C31.6096 27.2762 31.7981 27.7307 31.7981 28.204V46.0757ZM46.105 46.0757H37.1619C36.7158 46.0338 36.301 45.8264 35.9995 45.4955C35.6979 45.1646 35.5303 44.7331 35.5303 44.2849C35.5303 43.8367 35.6979 43.4053 35.9995 43.0744C36.301 42.7434 36.7158 42.5361 37.1619 42.4942H46.105C46.5511 42.5361 46.9658 42.7434 47.2674 43.0744C47.569 43.4053 47.7366 43.8367 47.7366 44.2849C47.7366 44.7331 47.569 45.1646 47.2674 45.4955C46.9658 45.8264 46.5511 46.0338 46.105 46.0757ZM46.105 38.9149H37.1619C36.6885 38.9149 36.2361 38.7264 35.901 38.3933C35.5659 38.0582 35.3795 37.6058 35.3795 37.1325C35.3795 36.6592 35.568 36.2068 35.901 35.8717C36.234 35.5366 36.6885 35.3502 37.1619 35.3502H46.105C46.5784 35.3502 47.0307 35.5387 47.3659 35.8717C47.701 36.2068 47.8874 36.6592 47.8874 37.1325C47.8874 37.6058 47.6989 38.0582 47.3659 38.3933C47.0307 38.7285 46.5784 38.9149 46.105 38.9149ZM46.105 31.7687H37.1619C36.6885 31.7687 36.2361 31.5802 35.901 31.2472C35.5659 30.9121 35.3795 30.4597 35.3795 29.9864C35.3795 29.513 35.568 29.0606 35.901 28.7255C36.2361 28.3904 36.6885 28.204 37.1619 28.204H46.105C46.5784 28.204 47.0307 28.3925 47.3659 28.7255C47.701 29.0606 47.8874 29.513 47.8874 29.9864C47.8874 30.4597 47.6989 30.9121 47.3659 31.2472C47.0307 31.5823 46.5784 31.7687 46.105 31.7687Z" fill="url(#paint2_linear_4410_5398)"/>
<path d="M21.7575 33.3312L19.8495 35.7963L16.8984 36.9839C16.5193 37.1367 16.3413 37.5556 16.4921 37.9347L17.0388 39.2919C17.1917 39.671 17.6105 39.849 17.9896 39.6982L18.6682 39.4259L19.7594 42.1382C19.8369 42.3288 20.0442 42.4189 20.2348 42.3414L20.9134 42.0691C21.104 41.9916 21.1941 41.7843 21.1166 41.5937L20.0254 38.8814L20.3647 38.7453L20.9428 38.5128L24.0257 38.9694C24.6666 38.9547 25.0792 38.3264 24.8405 37.7316L23.2026 33.6621C22.9534 33.0443 22.2099 32.9207 21.7575 33.3333V33.3312Z" fill="#434C62"/>
<path d="M25.2742 32.544L24.6188 34.0815C24.5507 34.2411 24.6249 34.4256 24.7845 34.4937C24.9441 34.5617 25.1287 34.4875 25.1967 34.3279L25.8522 32.7905C25.9202 32.6308 25.846 32.4463 25.6864 32.3783C25.5268 32.3102 25.3423 32.3844 25.2742 32.544Z" fill="#434C62"/>
<path d="M25.5582 36.4125L27.0956 37.068C27.2553 37.136 27.4398 37.0618 27.5079 36.9022C27.5759 36.7426 27.5017 36.558 27.3421 36.49L25.8046 35.8345C25.645 35.7665 25.4605 35.8407 25.3924 36.0003C25.3244 36.1599 25.3986 36.3444 25.5582 36.4125Z" fill="#434C62"/>
<path d="M25.9997 35.2159L27.5503 34.5923C27.7113 34.5275 27.7893 34.3445 27.7246 34.1836C27.6598 34.0226 27.4768 33.9446 27.3159 34.0093L25.7652 34.633C25.6043 34.6977 25.5263 34.8807 25.591 35.0417C25.6557 35.2027 25.8387 35.2807 25.9997 35.2159Z" fill="#434C62"/>
<defs>
<linearGradient id="paint0_linear_4410_5398" x1="14.8207" y1="37.275" x2="29.1235" y2="37.275" gradientUnits="userSpaceOnUse">
<stop stop-color="#FF8B20"/>
<stop offset="1" stop-color="#FDB572"/>
</linearGradient>
<linearGradient id="paint1_linear_4410_5398" x1="5" y1="11.2539" x2="55.0335" y2="11.2539" gradientUnits="userSpaceOnUse">
<stop stop-color="#FF8B20"/>
<stop offset="1" stop-color="#FDB572"/>
</linearGradient>
<linearGradient id="paint2_linear_4410_5398" x1="30.0157" y1="55.1508" x2="30.0157" y2="21.7385" gradientUnits="userSpaceOnUse">
<stop stop-color="#FFCA41"/>
<stop offset="1" stop-color="#FFDA7A"/>
</linearGradient>
</defs>
</svg>
