<svg width="60" height="60" viewBox="0 0 60 60" fill="none" xmlns="http://www.w3.org/2000/svg">
<path fill-rule="evenodd" clip-rule="evenodd" d="M52.9028 7.09852C51.5654 5.75815 49.7507 5.00419 47.8586 5H12.1414C10.2493 5.00419 8.43464 5.75815 7.0972 7.09852C5.75767 8.43679 5.00419 10.2526 5 12.1458V17.5094H55V12.1458C54.9958 10.2526 54.2423 8.43679 52.9028 7.09852ZM22.3385 13.4066C22.0036 13.7396 21.5515 13.9281 21.0785 13.9281H13.9225C13.4495 13.9281 12.9974 13.7396 12.6625 13.4066C12.3297 13.0715 12.1414 12.6192 12.1414 12.1458C12.1414 11.6725 12.3297 11.2202 12.6625 10.8851C12.9974 10.5521 13.4495 10.3636 13.9225 10.3636H21.0785C21.5515 10.3636 22.0036 10.5521 22.3385 10.8851C22.6713 11.2202 22.8597 11.6725 22.8597 12.1458C22.8597 12.6192 22.6713 13.0715 22.3385 13.4066ZM40.6691 12.4935C40.6001 12.8391 40.4305 13.1574 40.1815 13.4066C39.9324 13.6559 39.6143 13.8255 39.2689 13.8946C38.9236 13.9637 38.5656 13.9281 38.2391 13.792C37.9147 13.658 37.6363 13.4297 37.4417 13.1365C37.245 12.8433 37.1403 12.4977 37.1403 12.1458C37.1403 11.6725 37.3287 11.2202 37.6615 10.8851C37.9964 10.5521 38.4484 10.3636 38.9215 10.3636C39.2731 10.3636 39.6184 10.4683 39.9115 10.6631C40.2045 10.8599 40.4326 11.1385 40.5666 11.4631C40.7026 11.7898 40.7382 12.1479 40.6691 12.4935ZM47.8063 12.504C47.7372 12.8474 47.5656 13.1637 47.3165 13.4108C47.0675 13.66 46.7493 13.8276 46.404 13.8946C46.0586 13.9616 45.7007 13.926 45.3763 13.792C45.0519 13.6559 44.7756 13.4276 44.581 13.1344C44.3842 12.8412 44.2817 12.4977 44.2817 12.1458C44.2817 11.9113 44.3277 11.6767 44.4177 11.461C44.5077 11.2432 44.6417 11.0463 44.8091 10.8809C44.9745 10.7133 45.1733 10.5835 45.391 10.4955C45.6086 10.4055 45.8431 10.3615 46.0775 10.3636C46.4291 10.3657 46.7724 10.4746 47.0633 10.6714C47.3542 10.8683 47.5803 11.1489 47.7121 11.4736C47.844 11.8003 47.8775 12.1584 47.8063 12.504Z" fill="#FFCA41"/>
<path fill-rule="evenodd" clip-rule="evenodd" d="M38.4464 37.9249V39.1438C38.4464 40.1281 38.4464 40.3145 39.6352 40.3145C40.824 40.3145 40.824 40.1596 40.824 39.1354V37.9249H38.4464ZM40.5059 28.8586H39.0366C36.7866 28.8586 36.7866 29.4701 36.7866 31.1121V31.1602H42.758V31.1121C42.758 29.4764 42.758 28.8586 40.5059 28.8586ZM40.5059 28.8586H39.0366C36.7866 28.8586 36.7866 29.4701 36.7866 31.1121V31.1602H42.758V31.1121C42.758 29.4764 42.758 28.8586 40.5059 28.8586ZM38.4464 37.9249V39.1438C38.4464 40.1281 38.4464 40.3145 39.6352 40.3145C40.824 40.3145 40.824 40.1596 40.824 39.1354V37.9249H38.4464ZM38.4464 37.9249V39.1438C38.4464 40.1281 38.4464 40.3145 39.6352 40.3145C40.824 40.3145 40.824 40.1596 40.824 39.1354V37.9249H38.4464ZM40.5059 28.8586H39.0366C36.7866 28.8586 36.7866 29.4701 36.7866 31.1121V31.1602H42.758V31.1121C42.758 29.4764 42.758 28.8586 40.5059 28.8586ZM40.5059 28.8586H39.0366C36.7866 28.8586 36.7866 29.4701 36.7866 31.1121V31.1602H42.758V31.1121C42.758 29.4764 42.758 28.8586 40.5059 28.8586ZM38.4464 39.1438C38.4464 40.1281 38.4464 40.3145 39.6352 40.3145C40.824 40.3145 40.824 40.1596 40.824 39.1354V37.9249H38.4464V39.1438ZM5 21.0572V47.8562C5.00419 49.7495 5.75767 51.5653 7.09511 52.9035C8.43464 54.2418 10.2472 54.9958 12.1414 55H47.8586C49.7507 54.9958 51.5654 54.2418 52.9028 52.9035C54.2423 51.5653 54.9958 49.7495 55 47.8562V21.0572H5ZM23.8936 47.4018H12.876C12.5097 47.4018 12.1414 47.0457 12.1414 46.6897C12.1414 46.3336 12.5097 45.9776 12.876 45.9776H23.8936C24.262 45.9776 24.6283 46.3336 24.6283 46.6897C24.6283 47.0457 24.3834 47.4018 23.8936 47.4018ZM23.9062 44.6184H12.8886C12.5223 44.6184 12.1539 44.2624 12.1539 43.9063C12.1539 43.5503 12.5223 43.1942 12.8886 43.1942H23.9062C24.2746 43.1942 24.6408 43.5503 24.6408 43.9063C24.6408 44.2624 24.396 44.6184 23.9062 44.6184ZM23.9062 41.8455H12.8886C12.5223 41.8455 12.1539 41.4895 12.1539 41.1334C12.1539 40.7774 12.5223 40.4214 12.8886 40.4214H23.9062C24.2746 40.4214 24.6408 40.7774 24.6408 41.1334C24.6408 41.4895 24.396 41.8455 23.9062 41.8455ZM48.6896 43.3492C48.4886 45.2802 47.6954 47.2531 43.4424 47.2531H36.0854C31.8345 47.2531 31.0434 45.2802 30.8382 43.3576L30.4887 39.525C30.4678 39.2988 30.652 39.125 30.855 39.125C30.9052 39.125 30.9575 39.1354 31.0057 39.1585C32.0648 39.6402 34.3252 40.6392 35.6522 40.9743C35.7694 41.0057 35.8678 41.0894 35.9159 41.2025C36.4894 42.4947 37.7724 43.1838 39.6373 43.1838C41.5022 43.1838 42.7852 42.4696 43.3607 41.1711C43.4089 41.0601 43.5052 40.9743 43.6266 40.9449C45.0331 40.5889 47.4317 39.4747 48.5326 38.9469C48.5849 38.9218 48.6351 38.9134 48.6896 38.9134C48.8926 38.9134 49.0768 39.0873 49.0558 39.3114L48.6896 43.3492ZM49.4033 35.8306C49.3907 35.8976 49.3907 35.9437 49.3844 36.0044L49.3363 36.4589L49.3154 36.6453C49.3007 36.7479 49.2505 36.84 49.1668 36.8987C48.7942 37.1689 48.3819 37.4495 47.9821 37.6757C47.934 37.7029 47.8942 37.7322 47.8377 37.7616C46.1193 38.7668 44.2147 39.4517 42.2431 39.7721C42.1761 40.7104 41.7617 41.7638 39.6477 41.7638C37.5338 41.7638 37.134 40.6999 37.0482 39.7931C35.2022 39.4915 33.3855 38.882 31.7341 37.9731C31.5896 37.8977 31.4452 37.8202 31.3113 37.7322C31.0601 37.5961 30.6331 37.3176 30.4092 37.1689C30.3171 37.1102 30.2606 37.0118 30.2501 36.9029L30.1685 36.061L30.1601 35.9918C30.0638 35.0159 30.0345 33.5876 30.989 32.5236C31.8115 31.6147 33.1741 31.1602 35.175 31.1602H35.4052V31.1121C35.4052 29.4973 35.4052 27.4763 39.0366 27.4763H40.5059C44.1373 27.4763 44.1373 29.4869 44.1373 31.1121V31.1498H44.3696C46.36 31.1498 47.7331 31.6042 48.5535 32.5132C49.4598 33.5184 49.4786 34.8525 49.4033 35.8306ZM40.5059 28.8586H39.0366C36.7866 28.8586 36.7866 29.4701 36.7866 31.1121V31.1602H42.758V31.1121C42.758 29.4764 42.758 28.8586 40.5059 28.8586ZM38.4464 39.1438C38.4464 40.1281 38.4464 40.3145 39.6352 40.3145C40.824 40.3145 40.824 40.1596 40.824 39.1354V37.9249H38.4464V39.1438ZM38.4464 37.9249V39.1438C38.4464 40.1281 38.4464 40.3145 39.6352 40.3145C40.824 40.3145 40.824 40.1596 40.824 39.1354V37.9249H38.4464ZM40.5059 28.8586H39.0366C36.7866 28.8586 36.7866 29.4701 36.7866 31.1121V31.1602H42.758V31.1121C42.758 29.4764 42.758 28.8586 40.5059 28.8586ZM40.5059 28.8586H39.0366C36.7866 28.8586 36.7866 29.4701 36.7866 31.1121V31.1602H42.758V31.1121C42.758 29.4764 42.758 28.8586 40.5059 28.8586ZM38.4464 37.9249V39.1438C38.4464 40.1281 38.4464 40.3145 39.6352 40.3145C40.824 40.3145 40.824 40.1596 40.824 39.1354V37.9249H38.4464ZM38.4464 37.9249V39.1438C38.4464 40.1281 38.4464 40.3145 39.6352 40.3145C40.824 40.3145 40.824 40.1596 40.824 39.1354V37.9249H38.4464ZM40.5059 28.8586H39.0366C36.7866 28.8586 36.7866 29.4701 36.7866 31.1121V31.1602H42.758V31.1121C42.758 29.4764 42.758 28.8586 40.5059 28.8586ZM40.5059 28.8586H39.0366C36.7866 28.8586 36.7866 29.4701 36.7866 31.1121V31.1602H42.758V31.1121C42.758 29.4764 42.758 28.8586 40.5059 28.8586ZM38.4464 37.9249V39.1438C38.4464 40.1281 38.4464 40.3145 39.6352 40.3145C40.824 40.3145 40.824 40.1596 40.824 39.1354V37.9249H38.4464Z" fill="url(#paint0_linear_4410_5447)"/>
<path d="M21.7713 27.4763H15.0109C13.4261 27.4763 12.1414 28.7619 12.1414 30.3476V35.0536C12.1414 36.6394 13.4261 37.9249 15.0109 37.9249H21.7713C23.3561 37.9249 24.6409 36.6394 24.6409 35.0536V30.3476C24.6409 28.7619 23.3561 27.4763 21.7713 27.4763Z" fill="#FFE39B"/>
<defs>
<linearGradient id="paint0_linear_4410_5447" x1="29.999" y1="55.1487" x2="29.999" y2="21.7358" gradientUnits="userSpaceOnUse">
<stop stop-color="#FF8B20"/>
<stop offset="1" stop-color="#FDB572"/>
</linearGradient>
</defs>
</svg>
