<svg width="60" height="60" viewBox="0 0 60 60" fill="none" xmlns="http://www.w3.org/2000/svg">
<path fill-rule="evenodd" clip-rule="evenodd" d="M52.9028 7.0972C51.5654 5.75767 49.7507 5.00419 47.8586 5H12.1414C10.2493 5.00419 8.43464 5.75767 7.0972 7.0972C5.75767 8.43463 5.00419 10.2493 5 12.1414V17.5016H55V12.1414C54.9958 10.2493 54.2423 8.43463 52.9028 7.0972ZM22.3385 13.4014C22.0036 13.7341 21.5516 13.9225 21.0785 13.9225H13.9225C13.4495 13.9225 12.9974 13.7341 12.6625 13.4014C12.3297 13.0665 12.1414 12.6144 12.1414 12.1414C12.1414 11.6683 12.3297 11.2162 12.6625 10.8814C12.9974 10.5486 13.4495 10.3602 13.9225 10.3602H21.0785C21.5516 10.3602 22.0036 10.5486 22.3385 10.8814C22.6713 11.2162 22.8597 11.6683 22.8597 12.1414C22.8597 12.6144 22.6713 13.0665 22.3385 13.4014ZM40.6691 12.4888C40.6001 12.8341 40.4305 13.1523 40.1815 13.4014C39.9324 13.6504 39.6143 13.82 39.2689 13.889C38.9236 13.9581 38.5657 13.9225 38.2391 13.7865C37.9147 13.6525 37.6364 13.4244 37.4417 13.1314C37.245 12.8383 37.1403 12.493 37.1403 12.1414C37.1403 11.6683 37.3287 11.2162 37.6615 10.8814C37.9964 10.5486 38.4484 10.3602 38.9215 10.3602C39.2731 10.3602 39.6184 10.4649 39.9115 10.6595C40.2045 10.8563 40.4326 11.1346 40.5666 11.459C40.7026 11.7855 40.7382 12.1435 40.6691 12.4888ZM47.8063 12.4993C47.7372 12.8425 47.5656 13.1586 47.3165 13.4055C47.0675 13.6546 46.7493 13.8221 46.404 13.889C46.0586 13.956 45.7007 13.9204 45.3763 13.7865C45.0519 13.6504 44.7756 13.4223 44.581 13.1293C44.3842 12.8362 44.2817 12.493 44.2817 12.1414C44.2817 11.9069 44.3277 11.6725 44.4177 11.4569C44.5077 11.2393 44.6417 11.0425 44.8091 10.8772C44.9745 10.7097 45.1733 10.58 45.391 10.4921C45.6086 10.4021 45.8431 10.3581 46.0775 10.3602C46.4291 10.3623 46.7724 10.4711 47.0633 10.6679C47.3542 10.8646 47.5803 11.1451 47.7121 11.4695C47.844 11.796 47.8775 12.1539 47.8063 12.4993Z" fill="#FFCA41"/>
<path fill-rule="evenodd" clip-rule="evenodd" d="M5.00214 21.0786V47.8587C5.00632 49.7528 5.75981 51.5654 7.09724 52.9049C8.43677 54.2423 10.2493 54.9958 12.1414 55H47.8608C49.7529 54.9958 51.5654 54.2423 52.9049 52.9049C54.2424 51.5654 54.9959 49.7528 55 47.8587V21.0786H5.00214ZM27.8871 49.3635H21.9493C21.5935 49.3635 21.2376 49.0077 21.2376 48.6498C21.2376 48.2919 21.5935 47.9382 21.9493 47.9382H27.8871C28.243 47.9382 28.5988 48.294 28.5988 48.6498C28.7181 49.0077 28.3623 49.3635 27.8871 49.3635ZM27.8871 46.3956H21.9493C21.5935 46.3956 21.2376 46.0398 21.2376 45.6819C21.2376 45.324 21.5935 44.9703 21.9493 44.9703H27.8871C28.243 44.9703 28.5988 45.3261 28.5988 45.6819C28.7181 46.0398 28.3623 46.3956 27.8871 46.3956ZM21.2376 42.714C21.2376 42.3582 21.5935 42.0024 21.9493 42.0024H27.8871C28.243 42.0024 28.5988 42.3582 28.5988 42.714C28.5988 43.095 28.3623 43.4257 27.8871 43.4257H21.9493C21.5935 43.4257 21.2376 43.0698 21.2376 42.714ZM47.6703 49.3635H41.7345C41.3787 49.3635 41.0208 49.0077 41.0208 48.6498C41.0208 48.2919 41.3787 47.9382 41.7345 47.9382H47.6703C48.0282 47.9382 48.384 48.294 48.384 48.6498C48.384 49.0056 48.1454 49.3635 47.6703 49.3635ZM47.6703 46.3956H41.7345C41.3787 46.3956 41.0208 46.0398 41.0208 45.6819C41.0208 45.324 41.3787 44.9703 41.7345 44.9703H47.6703C48.0282 44.9703 48.384 45.3261 48.384 45.6819C48.384 46.0377 48.1454 46.3956 47.6703 46.3956ZM47.6703 43.4257H41.7345C41.3787 43.4257 41.0208 43.0698 41.0208 42.714C41.0208 42.3582 41.3787 42.0024 41.7345 42.0024H47.6703C48.0282 42.0024 48.384 42.3582 48.384 42.714C48.384 43.0698 48.1454 43.4257 47.6703 43.4257ZM47.6724 39.0324H12.3298C11.974 39.0324 11.6182 38.6766 11.6182 38.3208C11.6182 37.965 11.974 37.6092 12.3298 37.6092H47.6724C48.0282 37.6092 48.384 37.9629 48.384 38.3208C48.384 38.6787 48.0282 39.0324 47.6724 39.0324Z" fill="url(#paint0_linear_4410_5439)"/>
<path d="M18.2698 42.0024H12.447C11.9892 42.0024 11.6182 42.3735 11.6182 42.8312V48.654C11.6182 49.1117 11.9892 49.4828 12.447 49.4828H18.2698C18.7275 49.4828 19.0986 49.1117 19.0986 48.654V42.8312C19.0986 42.3735 18.7275 42.0024 18.2698 42.0024Z" fill="#FFE39B"/>
<path d="M38.0549 42.0024H32.2322C31.7744 42.0024 31.4033 42.3735 31.4033 42.8312V48.654C31.4033 49.1117 31.7744 49.4828 32.2322 49.4828H38.0549C38.5127 49.4828 38.8838 49.1117 38.8838 48.654V42.8312C38.8838 42.3735 38.5127 42.0024 38.0549 42.0024Z" fill="#434C62"/>
<path d="M44.4554 37.6092H34.1013L30.5201 31.3155L32.6571 28.4397C33.2557 27.6339 34.1997 27.1588 35.2022 27.1588C35.7087 27.1588 36.2006 27.2801 36.6401 27.502C37.0796 27.726 37.4648 28.0504 37.7641 28.4585L44.4554 37.6092Z" fill="url(#paint1_linear_4410_5439)"/>
<path d="M34.1013 37.6092H15.5468L21.9409 26.5936C22.5479 25.5471 23.6656 24.9025 24.8753 24.9025C25.4823 24.9025 26.0662 25.0657 26.5748 25.3587C27.0834 25.6539 27.5146 26.0808 27.8181 26.6062L30.5202 31.3155L34.1013 37.6092Z" fill="url(#paint2_linear_4410_5439)"/>
<defs>
<linearGradient id="paint0_linear_4410_5439" x1="30.0011" y1="55" x2="30.0011" y2="21.0786" gradientUnits="userSpaceOnUse">
<stop stop-color="#FF8B20"/>
<stop offset="1" stop-color="#FDB572"/>
</linearGradient>
<linearGradient id="paint1_linear_4410_5439" x1="30.5201" y1="32.3829" x2="44.4554" y2="32.3829" gradientUnits="userSpaceOnUse">
<stop stop-color="#FFCA41"/>
<stop offset="1" stop-color="#FFDA7A"/>
</linearGradient>
<linearGradient id="paint2_linear_4410_5439" x1="15.5468" y1="31.2569" x2="34.1013" y2="31.2569" gradientUnits="userSpaceOnUse">
<stop stop-color="#FFCA41"/>
<stop offset="1" stop-color="#FFDA7A"/>
</linearGradient>
</defs>
</svg>
