<svg width="40" height="40" viewBox="0 0 40 40" fill="none" xmlns="http://www.w3.org/2000/svg">
<path d="M30 31.4334H28.7333C27.4 31.4334 26.1333 31.9501 25.2 32.8834L22.35 35.7001C21.05 36.9834 18.9333 36.9834 17.6333 35.7001L14.7833 32.8834C13.85 31.9501 12.5667 31.4334 11.25 31.4334H10C7.23333 31.4334 5 29.2168 5 26.4834V8.3001C5 5.56677 7.23333 3.3501 10 3.3501H30C32.7667 3.3501 35 5.56677 35 8.3001V26.4834C35 29.2001 32.7667 31.4334 30 31.4334Z" fill="url(#paint0_linear_4252_17890)"/>
<path d="M20.4667 24.9334C20.2167 25.0167 19.8 25.0167 19.5333 24.9334C17.3667 24.1834 12.5 21.1001 12.5 15.8501C12.5 13.5334 14.3667 11.6667 16.6667 11.6667C18.0333 11.6667 19.2333 12.3167 20 13.3334C20.7667 12.3167 21.9667 11.6667 23.3333 11.6667C25.6333 11.6667 27.5 13.5334 27.5 15.8501C27.4833 21.1001 22.6333 24.1834 20.4667 24.9334Z" fill="#434C62"/>
<defs>
<linearGradient id="paint0_linear_4252_17890" x1="7.14286" y1="7.37057" x2="37.8533" y2="9.28961" gradientUnits="userSpaceOnUse">
<stop stop-color="#FFCA41"/>
<stop offset="1" stop-color="#FFDA7A"/>
</linearGradient>
</defs>
</svg>
