<svg width="40" height="40" viewBox="0 0 40 40" fill="none" xmlns="http://www.w3.org/2000/svg">
<path d="M31.9802 16.9466C31.5269 16.76 30.9269 16.6666 30.1802 16.6666H23.1402C20.8202 16.6666 19.9935 17.4933 19.9935 19.84V30.16C19.9935 30.9333 20.0869 31.5333 20.2869 32C20.7002 32.96 21.5802 33.3333 23.1402 33.3333H30.1802C32.5002 33.3333 33.3269 32.4933 33.3269 30.16V19.84C33.3269 18.2533 32.9535 17.36 31.9802 16.9466ZM27.9935 30.3333H25.3269C25.3002 30.3333 25.2602 30.3333 25.2335 30.32C25.0335 30.3066 24.8602 30.24 24.7135 30.1066C24.4735 29.9333 24.3269 29.6533 24.3269 29.3333C24.3269 28.7866 24.7802 28.3333 25.3269 28.3333H27.9935C28.5402 28.3333 28.9935 28.7866 28.9935 29.3333C28.9935 29.88 28.5402 30.3333 27.9935 30.3333Z" fill="#434C62"/>
<path d="M31.9799 12.2534V13.3334C31.9799 14.0667 31.3799 14.6667 30.6465 14.6667H23.1399C19.7266 14.6667 17.9932 16.4134 17.9932 19.8401V32.0001C17.9932 32.7334 17.3932 33.3334 16.6599 33.3334H14.0599C13.5266 33.3334 13.0999 32.9067 13.0999 32.3867C13.0999 31.8534 13.5266 31.4401 14.0599 31.4401H16.6599V26.3334H11.9932C9.03322 26.1867 6.67322 23.7467 6.67322 20.7467V12.2534C6.67322 9.17341 9.17988 6.66675 12.2732 6.66675H26.3932C29.4732 6.66675 31.9799 9.17341 31.9799 12.2534Z" fill="url(#paint0_linear_4252_17969)"/>
<defs>
<linearGradient id="paint0_linear_4252_17969" x1="19.3266" y1="6.66675" x2="19.3266" y2="33.3334" gradientUnits="userSpaceOnUse">
<stop stop-color="#FF8B20"/>
<stop offset="1" stop-color="#FDB572"/>
</linearGradient>
</defs>
</svg>
