<svg width="40" height="40" viewBox="0 0 40 40" fill="none" xmlns="http://www.w3.org/2000/svg">
<path d="M20 36.6054C29.1708 36.6054 36.6053 29.171 36.6053 20.0001C36.6053 10.8293 29.1708 3.3949 20 3.3949C10.8292 3.3949 3.39478 10.8293 3.39478 20.0001C3.39478 29.171 10.8292 36.6054 20 36.6054Z" fill="#4353FF"/>
<path d="M24.8778 18.0282L23.373 22.7711C23.373 22.4079 22.3351 14.5411 22.3351 14.5411C19.9481 14.5411 18.682 16.2328 18.0178 18.0282L16.1808 22.7815C16.1808 22.439 15.9214 18.0698 15.9214 18.0698C15.8328 17.1239 15.4004 16.2434 14.706 15.595C14.0117 14.9466 13.1037 14.5753 12.1541 14.5515L14.1052 26.4658C16.596 26.4658 17.9451 24.7741 18.6405 22.9787L20.1972 18.9311C20.1972 19.0972 21.235 26.4658 21.235 26.4658C22.2536 26.4645 23.2452 26.1389 24.0662 25.5361C24.8873 24.9334 25.4951 24.0849 25.8015 23.1136L29.3301 14.5411C26.8393 14.5411 25.5317 16.2328 24.8674 18.0282H24.8778Z" fill="white"/>
</svg>
