<svg width="40" height="40" viewBox="0 0 40 40" fill="none" xmlns="http://www.w3.org/2000/svg">
<path d="M29.0414 12.2098L21.3154 8.0386C20.4935 7.60709 19.5278 7.60709 18.7058 8.0386L10.9593 12.2098C10.4045 12.518 10.0552 13.1139 10.0552 13.7715C10.0552 14.4495 10.4045 15.0454 10.9593 15.3536L18.6853 19.5249C19.0962 19.7509 19.5483 19.8536 20.0004 19.8536C20.4524 19.8536 20.9045 19.7509 21.3154 19.5249L29.0414 15.3536C29.5962 15.0454 29.9455 14.4495 29.9455 13.7715C29.9455 13.1139 29.5962 12.518 29.0414 12.2098Z" fill="url(#paint0_linear_4252_17879)"/>
<path d="M17.411 20.9633L10.2192 17.3674C9.66441 17.1003 9.02743 17.1208 8.49318 17.4496C7.97948 17.7783 7.67126 18.3331 7.67126 18.9496V25.7509C7.67126 26.9221 8.3288 27.9906 9.37674 28.5043L16.5685 32.1002C16.8151 32.2235 17.0822 32.2851 17.3699 32.2851C17.6986 32.2851 18.0069 32.203 18.2945 32.018C18.8288 31.6893 19.137 31.1345 19.137 30.518V23.7167C19.1164 22.5454 18.4795 21.4975 17.411 20.9633Z" fill="url(#paint1_linear_4252_17879)"/>
<path d="M31.4861 17.4496C30.9518 17.1208 30.3148 17.1003 29.76 17.3674L22.5683 20.9633C21.5203 21.4975 20.8628 22.5454 20.8628 23.7167V30.518C20.8628 31.1345 21.171 31.6893 21.7053 32.018C21.9929 32.203 22.3011 32.2851 22.6299 32.2851C22.897 32.2851 23.1642 32.2235 23.4313 32.1002L30.623 28.5043C31.671 27.9701 32.3285 26.9221 32.3285 25.7509V18.9496C32.3285 18.3331 32.0203 17.7783 31.4861 17.4496Z" fill="#434C62"/>
<defs>
<linearGradient id="paint0_linear_4252_17879" x1="11.4759" y1="9.17998" x2="31.656" y2="11.4744" gradientUnits="userSpaceOnUse">
<stop stop-color="#FFCA41"/>
<stop offset="1" stop-color="#FFDA7A"/>
</linearGradient>
<linearGradient id="paint1_linear_4252_17879" x1="13.4041" y1="17.1833" x2="13.4041" y2="32.2851" gradientUnits="userSpaceOnUse">
<stop stop-color="#FF8B20"/>
<stop offset="1" stop-color="#FDB572"/>
</linearGradient>
</defs>
</svg>
