<svg width="49" height="48" viewBox="0 0 49 48" fill="none" xmlns="http://www.w3.org/2000/svg">
<path d="M24.5 43.9263C35.505 43.9263 44.4263 35.005 44.4263 24C44.4263 12.995 35.505 4.07373 24.5 4.07373C13.495 4.07373 4.5737 12.995 4.5737 24C4.5737 35.005 13.495 43.9263 24.5 43.9263Z" fill="#4353FF"/>
<path d="M30.3533 21.6337L28.5475 27.3252C28.5475 26.8893 27.3021 17.4492 27.3021 17.4492C24.4377 17.4492 22.9183 19.4792 22.1213 21.6337L19.9169 27.3376C19.9169 26.9267 19.6056 21.6836 19.6056 21.6836C19.4993 20.5485 18.9804 19.4919 18.1472 18.7138C17.314 17.9357 16.2244 17.4902 15.0848 17.4617L17.4261 31.7588C20.4151 31.7588 22.0341 29.7288 22.8685 27.5743L24.7366 22.7172C24.7366 22.9165 25.982 31.7588 25.982 31.7588C27.2042 31.7572 28.3942 31.3665 29.3794 30.6432C30.3647 29.92 31.094 28.9018 31.4617 27.7362L35.6961 17.4492C32.7071 17.4492 31.1379 19.4792 30.3409 21.6337H30.3533Z" fill="white"/>
</svg>
