<svg width="49" height="48" viewBox="0 0 49 48" fill="none" xmlns="http://www.w3.org/2000/svg">
<g clip-path="url(#clip0_4305_20637)">
<mask id="mask0_4305_20637" style="mask-type:luminance" maskUnits="userSpaceOnUse" x="0" y="0" width="49" height="48">
<path d="M0.5 0H48.5V48H0.5V0Z" fill="white"/>
</mask>
<g mask="url(#mask0_4305_20637)">
<path d="M38.817 16.3516C40.0802 18.6566 40.7991 21.3017 40.7991 24.1154C40.7991 30.0859 37.5634 35.2985 32.7522 38.1036L37.6951 23.8122C38.6183 21.5034 38.9257 19.6574 38.9257 18.0158C38.9257 17.42 38.8865 16.8671 38.817 16.3516ZM26.8463 16.5278C27.8206 16.4766 28.6985 16.3741 28.6985 16.3741C29.5705 16.2709 29.4676 14.9894 28.5953 15.0404C28.5953 15.0404 25.9739 15.2461 24.2817 15.2461C22.6916 15.2461 20.0196 15.0404 20.0196 15.0404C19.1469 14.9894 19.0446 16.3225 19.917 16.3741C19.917 16.3741 20.7425 16.4766 21.6145 16.5278L24.1356 23.4362L20.5935 34.0577L14.7006 16.5278C15.6756 16.4766 16.5526 16.3741 16.5526 16.3741C17.424 16.2709 17.3212 14.9894 16.4492 15.0404C16.4492 15.0404 13.8284 15.2461 12.136 15.2461C11.8324 15.2461 11.4745 15.2387 11.0945 15.2265C13.9882 10.8334 18.9619 7.93221 24.616 7.93221C28.829 7.93221 32.6652 9.54307 35.5442 12.1812C35.4745 12.177 35.4065 12.1682 35.3347 12.1682C33.745 12.1682 32.617 13.553 32.617 15.0404C32.617 16.3741 33.3865 17.5025 34.2067 18.836C34.8221 19.9139 35.541 21.2985 35.541 23.2993C35.541 24.6842 35.0082 26.2916 34.3095 28.5309L32.6949 33.9242L26.8463 16.5278ZM24.616 40.3C23.0274 40.3 21.4943 40.0671 20.044 39.6406L24.9002 25.5311L29.8743 39.1594C29.9071 39.2394 29.9473 39.3132 29.9901 39.3825C28.308 39.9747 26.5006 40.3 24.616 40.3ZM8.43278 24.1154C8.43278 21.7692 8.93602 19.5419 9.83412 17.5294L17.5539 38.6802C12.1549 36.0574 8.43278 30.5212 8.43278 24.1154ZM24.616 6.11602C14.6909 6.11602 6.61621 14.1905 6.61621 24.1154C6.61621 34.0408 14.6909 42.1162 24.616 42.1162C34.541 42.1162 42.616 34.0408 42.616 24.1154C42.616 14.1905 34.541 6.11602 24.616 6.11602Z" fill="#117BC9"/>
</g>
</g>
<defs>
<clipPath id="clip0_4305_20637">
<rect width="48" height="48" fill="white" transform="translate(0.5)"/>
</clipPath>
</defs>
</svg>
