<svg width="500" height="273" viewBox="0 0 500 273" fill="none" xmlns="http://www.w3.org/2000/svg">
<path d="M48.752 271.769V154.888C48.7598 142.755 53.5849 131.122 62.1666 122.546C70.7483 113.97 82.3843 109.153 94.5168 109.153H130.358" stroke="#2C3449" stroke-width="2" stroke-linecap="round" stroke-linejoin="round"/>
<path d="M181.983 169.826C181.983 169.826 185.888 181.523 186.461 187.185" stroke="#2C3449" stroke-width="2" stroke-linecap="round" stroke-linejoin="round"/>
<path d="M230.061 165.591C229.71 172.954 229.832 180.332 230.426 187.679" stroke="#2C3449" stroke-width="2" stroke-linecap="round" stroke-linejoin="round"/>
<path d="M266.827 128.444C268.189 129.849 268.715 149.294 281.021 149.064" stroke="#2C3449" stroke-width="2" stroke-linecap="round" stroke-linejoin="round"/>
<path d="M133.833 134.429C128.443 136.808 120.671 141.43 114.42 151.005C123.231 147.386 153.551 174.498 175.044 168.348C165.051 167.289 143.638 151.598 133.833 134.429Z" fill="#2C3449"/>
<path d="M151.344 91.1711C125.265 103.585 124.906 121.034 133.77 136.206C129.118 136.939 117.858 143.28 94.0298 176.926C59.7251 225.363 61.3703 270.558 128.098 271.71" stroke="#2C3449" stroke-width="2" stroke-linecap="round" stroke-linejoin="round"/>
<path d="M255.607 198.928V198.738C334.222 206.21 331.942 171.964 323.716 137.538L303.066 69.2577C300.022 62.6179 297.301 65.4607 296.156 63.3845C293.508 58.5346 292.455 56.4058 292.455 56.4058C282.794 64.5887 263.5 61.0122 263.5 61.0122C263.5 61.0122 263.336 62.7791 263.201 68.1818C263.066 73.5844 257.048 72.7882 257.755 79.9676L266.804 128.44L241.662 123.08C240.053 114.279 235.954 100.924 226.096 92.4806" stroke="#2C3449" stroke-width="2" stroke-linecap="round" stroke-linejoin="round"/>
<path d="M259.279 271.536L258.871 243.39" stroke="#2C3449" stroke-width="2" stroke-linecap="round" stroke-linejoin="round"/>
<path d="M253.412 125.584C249.444 123.939 244.15 123.324 240.685 122.768C241.339 126.067 241.626 129.428 241.541 132.79C240.794 150.123 234.012 156.888 232.397 163.271C253.241 155.589 254.866 135.261 253.412 125.584Z" fill="#2C3449"/>
<path d="M222.171 226.903C221.733 230.568 220.891 232.108 212.316 236.517C210.128 237.642 205.518 240.083 199.343 243.18C200.622 259.003 201.317 270.64 201.317 270.64L227.017 270.999C227.017 270.999 226.307 244.548 225.75 217.677C224.326 220.559 222.434 224.672 222.171 226.903Z" fill="url(#paint0_linear_4410_15544)"/>
<path d="M225.175 165.746C225.504 151.568 220.075 137.66 214.827 128.355C213.978 141.299 211.207 156.303 208.279 161.195C194.46 151.611 184.095 146.116 175.81 141.74C170.575 133.3 166.157 125.775 164.248 120.317C164.274 119.491 164.301 118.652 164.327 117.809L163.426 117.898C165.729 125.489 170.697 136.281 180.983 150.778C183.084 153.23 185.009 155.827 186.744 158.55C189.198 162.396 191.449 173.277 193.407 186.846C204.847 185.257 213.711 184.945 215.32 187.383L225.26 189.285C224.892 170.332 225 173.485 225.175 165.746Z" fill="url(#paint1_linear_4410_15544)"/>
<path d="M238.408 213.715L223.118 216.844" stroke="#2C3449" stroke-width="2" stroke-linecap="round" stroke-linejoin="round"/>
<path d="M256.551 235.671C257.834 240.607 260.67 250.102 262.803 249.971C265.83 249.783 264.211 230.828 263.79 225.011C263.582 222.026 261.486 212.425 259.775 207.572C257.541 201.222 247.358 181.885 226.649 188.939L211.688 192.601" stroke="#2C3449" stroke-width="2" stroke-linecap="round" stroke-linejoin="round"/>
<path d="M239.234 209.859C238.905 213.225 236.931 220.302 239.507 224.951" stroke="#2C3449" stroke-width="2" stroke-linecap="round" stroke-linejoin="round"/>
<path d="M259.279 224.642C259.279 224.642 257.663 238.389 253.07 239.448C248.477 240.508 248.184 236.632 248.184 236.632" stroke="#2C3449" stroke-width="2" stroke-linecap="round" stroke-linejoin="round"/>
<path d="M253.767 224.172C253.767 224.172 251.287 236.29 246.624 237.004C241.962 237.718 241.962 233.855 241.962 233.855" stroke="#2C3449" stroke-width="2" stroke-linecap="round" stroke-linejoin="round"/>
<path d="M246.966 223.425C246.966 223.425 243.745 237.951 238.573 232.443C233.4 226.935 233.947 224.129 233.947 224.129C233.947 224.129 236.434 220.138 240.422 226.511" stroke="#2C3449" stroke-width="2" stroke-linecap="round" stroke-linejoin="round"/>
<path d="M222.378 224.589C210.747 215.153 206.802 191.387 211.717 186.185C211.915 184.54 215.692 187.32 217.969 187.574C223.464 188.186 225.833 188.353 225.833 188.353C223.605 195.204 226.086 203.489 228.636 209.382C229.73 211.986 230.996 214.514 232.426 216.949C231.989 217.17 230.222 218.042 226.02 219.884C223.599 220.96 223.085 222.776 222.378 224.589Z" fill="#2C3449"/>
<path d="M130.358 188.903C135.494 187.202 149.323 184.846 153.541 194.585" stroke="#2C3449" stroke-width="2" stroke-linecap="round" stroke-linejoin="round"/>
<path d="M130.358 200.044C130.358 200.044 210.164 179.545 215.324 187.37L227.442 214.465C227.442 214.465 222.605 223.234 222.177 226.903C221.749 230.571 220.897 232.108 212.323 236.517C203.748 240.926 158.951 266.659 126.841 271.71" stroke="#2C3449" stroke-width="2" stroke-linecap="round" stroke-linejoin="round"/>
<path d="M164.847 101.98C164.673 107.113 164.442 114.062 164.248 120.31C166.157 125.769 170.575 133.294 175.81 141.733C184.095 146.109 194.45 151.604 208.279 161.189C211.24 156.296 213.978 141.292 214.827 128.348" stroke="#2C3449" stroke-width="2" stroke-linecap="round" stroke-linejoin="round"/>
<path d="M160.635 77.8948C158.158 78.1152 148.886 79.5959 150.85 89.4108C152.41 97.2187 159.546 96.5245 163.82 95.3334" stroke="#2C3449" stroke-width="2" stroke-linecap="round" stroke-linejoin="round"/>
<path d="M225.931 59.5085C227.688 72.9099 226.876 87.2951 225.5 98.0051" stroke="#2C3449" stroke-width="2" stroke-linecap="round" stroke-linejoin="round"/>
<path d="M225.5 97.9919C224.925 102.5 224.247 106.353 223.618 109.199" stroke="#2C3449" stroke-width="2" stroke-linecap="round" stroke-linejoin="round"/>
<path d="M167.93 80.2407L160.626 80.8198C160.626 80.8198 165.916 105.635 167.92 112.292C169.924 118.948 171.345 121.916 180.009 128.138C188.672 134.36 207.121 137.255 215.847 126.907C224.573 116.559 225.5 96.5771 225.5 96.5771" stroke="#2C3449" stroke-width="2" stroke-linecap="round" stroke-linejoin="round"/>
<path d="M205.015 112.331C205.015 112.331 210.395 111.262 212.583 113.4L205.015 112.331Z" fill="white"/>
<path d="M205.015 112.331C205.015 112.331 210.395 111.262 212.583 113.4" stroke="#2C3449" stroke-width="2" stroke-linecap="round" stroke-linejoin="round"/>
<path d="M211.872 87.3608L213.872 104.77L207.733 103.2" stroke="#2C3449" stroke-width="2" stroke-linecap="round" stroke-linejoin="round"/>
<path d="M218.298 92.0692C219.283 92.0692 220.081 90.8333 220.081 89.3087C220.081 87.784 219.283 86.5481 218.298 86.5481C217.313 86.5481 216.515 87.784 216.515 89.3087C216.515 90.8333 217.313 92.0692 218.298 92.0692Z" fill="#2C3449"/>
<path d="M201.126 91.7667C202.111 91.7667 202.909 90.5308 202.909 89.0062C202.909 87.4815 202.111 86.2456 201.126 86.2456C200.141 86.2456 199.343 87.4815 199.343 89.0062C199.343 90.5308 200.141 91.7667 201.126 91.7667Z" fill="#2C3449"/>
<path d="M193.39 74.6046C194.291 73.4512 195.484 72.5604 196.846 72.0251C198.207 71.4898 199.688 71.3295 201.132 71.561" stroke="#2C3449" stroke-width="2" stroke-linecap="round" stroke-linejoin="round"/>
<path d="M217.518 71.2581C217.518 71.2581 222.454 69.9749 223.701 74.0187" stroke="#2C3449" stroke-width="2" stroke-linecap="round" stroke-linejoin="round"/>
<path d="M237.26 56.6855C236.826 55.4155 237.319 53.869 238.227 52.3127L237.99 52.0462L236.875 55.172C236.875 55.172 233.384 56.6757 232.232 52.2107C231.877 50.8452 232.683 49.1804 233.966 47.5319L233.93 47.4891C229.077 48.6144 219.594 50.4504 218.739 48.542C217.531 45.8407 234.641 38.6711 239.853 36.3679C242.524 35.1999 251.77 32.663 256.752 31.9392C260.056 31.5189 263.398 31.4825 266.711 31.8306C267.096 28.7689 266.5 25.664 265.007 22.9632C263.392 19.9822 260.016 15.5502 257.018 13.961C227.31 -1.7963 212.816 24.819 212.816 24.819C212.816 24.819 208.634 13.4049 195.098 12.9969C192.352 12.923 189.62 13.4101 187.069 14.4284C184.518 15.4468 182.202 16.975 180.262 18.9194C169.177 30.0308 176.567 42.6096 176.567 42.6096C176.567 42.6096 171.405 39.9774 164.442 43.3368C156.124 47.3608 151.939 56.7809 154.101 65.7668C156.404 75.3086 160.635 84.3932 160.635 84.3932C187.669 88.5784 194.578 62.0356 190.597 58.6104C196.592 63.0457 207.377 66.0168 225.645 64.1808C229.827 63.7465 234.957 62.1014 240.178 59.6073C239.168 59.4691 237.994 58.8111 237.26 56.6855Z" fill="#2C3449"/>
<path d="M262.618 54.1387L266.919 71.449L291.349 64.2234" stroke="#2C3449" stroke-width="2" stroke-linecap="round" stroke-linejoin="round"/>
<path d="M233.943 47.5022C229.09 48.6275 219.607 50.4635 218.752 48.5551C217.544 45.8537 234.654 38.6842 239.866 36.381C242.538 35.2129 251.783 32.6761 256.765 31.9522C263.263 31.0145 286.888 30.4156 290.161 51.5032L293.659 64.5427L270.423 71.4326" stroke="#2C3449" stroke-width="2" stroke-linecap="round" stroke-linejoin="round"/>
<path d="M269.192 50.8088C266.438 52.6251 256.104 57.5145 250.915 57.3894" stroke="#2C3449" stroke-width="2" stroke-linecap="round" stroke-linejoin="round"/>
<path d="M242.238 40.155C242.238 40.155 231.091 47.7721 232.246 52.2304C233.4 56.6888 236.888 55.1917 236.888 55.1917" stroke="#2C3449" stroke-width="2" stroke-linecap="round" stroke-linejoin="round"/>
<path d="M245.137 44.7056C245.137 44.7056 235.789 52.3325 237.273 56.6856C238.757 61.0386 242.123 59.2816 242.123 59.2816" stroke="#2C3449" stroke-width="2" stroke-linecap="round" stroke-linejoin="round"/>
<path d="M248.862 50.2561C248.862 50.2561 237.767 59.6104 244.864 61.5879C251.961 63.5654 254.142 61.8281 254.142 61.8281C254.142 61.8281 256.465 57.8797 249.154 57.3072" stroke="#2C3449" stroke-width="2" stroke-linecap="round" stroke-linejoin="round"/>
<path d="M260.259 73.3442C264.928 79.5333 296.561 74.8709 301.766 66.8755C299.272 63.4536 297.285 65.4047 296.173 63.3845C293.524 58.5346 292.471 56.4058 292.471 56.4058C286.976 61.0615 278.359 61.9104 271.95 61.7788C269.123 61.7539 266.302 61.5417 263.503 61.1438C263.464 61.634 263.329 63.5984 263.214 68.185C263.158 70.8403 261.671 72.0018 260.259 73.3442Z" fill="#2C3449"/>
<path fill-rule="evenodd" clip-rule="evenodd" d="M304.961 179.868H432.891C433.437 179.868 433.976 179.992 434.468 180.23C434.959 180.468 435.39 180.814 435.729 181.242C436.067 181.67 436.305 182.169 436.423 182.702C436.541 183.235 436.538 183.788 436.412 184.319L416.545 268.429C416.358 269.223 415.908 269.93 415.268 270.436C414.628 270.942 413.837 271.217 413.021 271.216H249.697C234.71 271.216 237.28 257.943 237.28 257.943H283.653L301.437 182.655C301.625 181.861 302.075 181.154 302.714 180.648C303.354 180.142 304.146 179.867 304.961 179.868ZM356.43 242.586L369.509 209.888V209.92C369.614 209.691 369.666 209.441 369.664 209.189C369.664 208.758 369.492 208.345 369.188 208.04C368.883 207.736 368.47 207.564 368.039 207.564C367.826 207.559 367.614 207.598 367.417 207.679C367.219 207.761 367.041 207.882 366.893 208.036C366.75 208.171 366.632 208.331 366.544 208.507L353.465 241.205C353.366 241.421 353.316 241.657 353.319 241.895C353.319 242.326 353.49 242.739 353.795 243.044C354.099 243.349 354.512 243.52 354.943 243.52C355.16 243.52 355.374 243.477 355.573 243.393C355.773 243.31 355.954 243.187 356.105 243.033C356.237 242.902 356.347 242.751 356.43 242.586ZM349.8 234.522C349.658 234.271 349.45 234.062 349.2 233.918L335.219 225.567L349.2 217.183C349.45 217.038 349.658 216.83 349.8 216.578C349.943 216.327 350.016 216.042 350.012 215.753C350.012 215.322 349.841 214.909 349.536 214.604C349.232 214.3 348.819 214.128 348.388 214.128C348.104 214.124 347.824 214.194 347.575 214.331L331.328 224.08C331.049 224.211 330.813 224.419 330.647 224.679C330.482 224.94 330.394 225.242 330.394 225.55C330.394 225.859 330.482 226.161 330.647 226.421C330.813 226.682 331.049 226.89 331.328 227.021L347.575 236.769C347.824 236.907 348.104 236.977 348.388 236.972C348.819 236.972 349.232 236.801 349.536 236.496C349.841 236.192 350.012 235.778 350.012 235.348C350.016 235.058 349.943 234.774 349.8 234.522ZM391.646 226.98L375.399 236.729C375.151 236.866 374.87 236.936 374.587 236.932C374.156 236.932 373.742 236.76 373.438 236.456C373.133 236.151 372.962 235.738 372.962 235.307C372.958 235.018 373.031 234.733 373.174 234.482C373.317 234.23 373.524 234.022 373.774 233.877L387.771 225.542L373.79 217.159C373.54 217.014 373.333 216.805 373.19 216.554C373.047 216.303 372.974 216.018 372.978 215.729C372.978 215.514 373.02 215.302 373.102 215.104C373.185 214.906 373.305 214.726 373.457 214.575C373.609 214.422 373.791 214.301 373.99 214.219C374.189 214.136 374.403 214.095 374.619 214.096C374.903 214.091 375.183 214.162 375.431 214.299L391.679 224.047C391.958 224.179 392.194 224.387 392.359 224.647C392.525 224.907 392.612 225.209 392.612 225.518C392.612 225.826 392.525 226.128 392.359 226.389C392.194 226.649 391.958 226.857 391.679 226.988L391.646 226.98Z" fill="#2C3449"/>
<path d="M422.339 211.846C420.429 211.846 418.539 211.45 416.789 210.683C415.04 209.916 413.468 208.794 412.174 207.389C410.88 205.984 409.891 204.325 409.27 202.518C408.649 200.712 408.409 198.796 408.566 196.892C409.06 190.93 409.126 187.258 409.741 184.491C410.583 180.687 417.967 175.452 426.521 169.122C431.02 165.818 434.149 162.742 435.909 159.892C437.668 157.043 438.545 153.509 438.541 149.291C438.541 144.086 436.888 139.989 433.582 137.002C430.277 134.014 426.274 132.518 421.573 132.514C412.235 132.514 405.965 137.459 402.762 147.35C401.708 150.533 399.566 153.242 396.713 155.003C393.86 156.764 390.477 157.463 387.159 156.977C385.034 156.671 383.006 155.887 381.228 154.685C379.449 153.482 377.967 151.891 376.892 150.033C375.817 148.174 375.177 146.096 375.021 143.954C374.866 141.813 375.198 139.664 375.992 137.67C379.048 129.94 383.428 123.614 389.134 118.694C398.59 110.539 410.141 106.46 423.787 106.458C437.712 106.458 449.386 110.466 458.809 118.484C468.233 126.501 472.949 136.664 472.957 148.972C472.957 164.232 465.117 176.996 449.435 187.264C442.611 191.765 438.479 195.282 437.04 197.813C436.485 198.848 436.075 199.956 435.823 201.103C435.112 204.146 433.396 206.86 430.951 208.807C428.507 210.753 425.477 211.818 422.353 211.83L422.339 211.846ZM424.208 253.093H422.945C418.72 253.093 414.668 251.415 411.681 248.428C408.693 245.441 407.014 241.39 407.013 237.165C407.013 235.073 407.425 233.001 408.226 231.068C409.027 229.135 410.2 227.379 411.679 225.9C413.159 224.42 414.915 223.247 416.848 222.446C418.781 221.645 420.853 221.233 422.945 221.233H424.208C426.3 221.233 428.372 221.645 430.305 222.446C432.237 223.247 433.993 224.42 435.472 225.9C436.952 227.379 438.125 229.136 438.925 231.068C439.725 233.001 440.137 235.073 440.137 237.165C440.137 241.389 438.458 245.441 435.471 248.428C432.484 251.415 428.433 253.093 424.208 253.093Z" fill="url(#paint2_linear_4410_15544)"/>
<path d="M97.3826 77.1182C96.958 77.3019 96.4999 77.3955 96.0373 77.3934C95.5746 77.3912 95.1174 77.2932 94.6946 77.1055C94.2717 76.9179 93.8923 76.6447 93.5802 76.3031C93.2681 75.9616 93.0302 75.5591 92.8815 75.121C92.5227 74.1821 92.212 73.2256 91.9503 72.2552C91.7726 71.3306 92.9045 69.4584 94.2009 67.2276C94.7785 66.3224 95.1845 65.3186 95.3985 64.2663C95.4992 63.3731 95.3488 62.4695 94.9642 61.6571C94.7694 61.1384 94.464 60.6683 94.069 60.2796C93.6741 59.8909 93.1992 59.593 92.6775 59.4065C91.662 59.06 90.5521 59.1178 89.578 59.5678C87.5029 60.4671 86.586 62.1693 86.8273 64.6743C86.8988 65.4822 86.6839 66.2895 86.2201 66.9548C85.7563 67.6201 85.0732 68.101 84.2905 68.3134C83.7889 68.4499 83.2628 68.4709 82.7519 68.3749C82.241 68.2788 81.7586 68.0681 81.3408 67.7587C80.9231 67.4493 80.581 67.0491 80.3402 66.5884C80.0994 66.1277 79.9661 65.6184 79.9506 65.0988C79.8606 63.2107 80.2358 61.3295 81.043 59.6204C82.3591 56.9004 84.5318 54.8835 87.561 53.5695C90.6539 52.2271 93.6327 51.9935 96.4975 52.8687C97.8536 53.2503 99.1051 53.9357 100.157 54.873C101.209 55.8102 102.033 56.9746 102.568 58.278C104.04 61.667 103.528 65.2567 101.032 69.0471C99.9479 70.7032 99.3677 71.8812 99.291 72.5809C99.2687 72.8659 99.2853 73.1526 99.3403 73.4331C99.4757 74.1771 99.356 74.945 99.0007 75.6126C98.6455 76.2802 98.0753 76.8083 97.3826 77.1116V77.1182ZM101.765 86.0975L101.486 86.2192C101.021 86.4208 100.521 86.529 100.015 86.5374C99.509 86.5458 99.006 86.4543 98.5351 86.2682C98.0642 86.0821 97.6346 85.8051 97.2709 85.4528C96.9071 85.1006 96.6164 84.6801 96.4152 84.2154C96.0074 83.2786 95.9883 82.2182 96.3623 81.2673C96.7362 80.3165 97.4725 79.5531 98.4092 79.1451L98.6888 79.0233C99.1533 78.8217 99.6529 78.7135 100.159 78.7051C100.665 78.6967 101.168 78.7882 101.639 78.9743C102.11 79.1604 102.54 79.4375 102.904 79.7897C103.267 80.1419 103.558 80.5624 103.759 81.0271C104.167 81.9639 104.186 83.0243 103.812 83.9752C103.438 84.926 102.702 85.6894 101.765 86.0975Z" fill="url(#paint3_linear_4410_15544)"/>
<path d="M114.887 34.9893C114.256 34.9556 113.639 34.7914 113.075 34.507C112.512 34.2227 112.013 33.8243 111.611 33.3372C111.209 32.8501 110.912 32.2848 110.74 31.6772C110.567 31.0695 110.523 30.4327 110.61 29.8071C110.883 27.8494 110.972 26.6418 111.225 25.7403C111.554 24.5031 114.094 22.9106 117.039 20.9825C118.574 19.9757 119.662 19.0182 120.303 18.1101C120.971 17.0831 121.339 15.89 121.366 14.6651C121.46 12.9476 120.989 11.5667 119.954 10.5226C118.926 9.47952 117.536 8.87167 116.071 8.82483C113.001 8.65373 110.844 10.1695 109.603 13.372C109.197 14.4019 108.441 15.2558 107.468 15.7841C106.495 16.3123 105.367 16.4811 104.282 16.2609C103.586 16.1219 102.93 15.8262 102.364 15.3964C101.799 14.9666 101.339 14.4138 101.018 13.7799C100.698 13.146 100.526 12.4475 100.515 11.7373C100.504 11.0271 100.655 10.3237 100.956 9.6803C102.005 7.32581 103.616 5.26496 105.648 3.67879C108.912 1.16939 112.792 0.0353328 117.289 0.276622C121.878 0.531072 125.653 2.06655 128.614 4.88304C131.575 7.69954 132.943 11.1357 132.717 15.1916C132.439 20.2213 129.62 24.2838 124.261 27.3788C121.932 28.741 120.506 29.8246 119.984 30.6297C119.783 30.9637 119.628 31.3234 119.523 31.699C119.233 32.6889 118.617 33.552 117.776 34.149C116.935 34.746 115.917 35.0421 114.887 34.9893ZM114.752 48.6112H114.334C112.942 48.533 111.638 47.9057 110.707 46.8669C109.777 45.8281 109.297 44.4627 109.372 43.0703C109.408 42.3786 109.579 41.7007 109.877 41.0755C110.175 40.4502 110.593 39.8898 111.108 39.4265C111.623 38.9631 112.224 38.6058 112.877 38.3752C113.53 38.1445 114.222 38.0449 114.913 38.0822L115.331 38.1052C116.023 38.1438 116.701 38.3187 117.325 38.6199C117.949 38.921 118.508 39.3424 118.969 39.86C119.43 40.3775 119.784 40.981 120.011 41.6358C120.239 42.2906 120.334 42.9838 120.293 43.6757C120.208 45.0633 119.578 46.3609 118.54 47.2856C117.502 48.2102 116.14 48.6867 114.752 48.6112Z" fill="url(#paint4_linear_4410_15544)"/>
<path d="M1.01624 271.71H498.984" stroke="#2C3449" stroke-width="2" stroke-linecap="round" stroke-linejoin="round"/>
<defs>
<linearGradient id="paint0_linear_4410_15544" x1="213.18" y1="217.677" x2="213.18" y2="270.999" gradientUnits="userSpaceOnUse">
<stop stop-color="#FF8B20"/>
<stop offset="1" stop-color="#FDB572"/>
</linearGradient>
<linearGradient id="paint1_linear_4410_15544" x1="194.343" y1="117.809" x2="194.343" y2="189.285" gradientUnits="userSpaceOnUse">
<stop stop-color="#FF8B20"/>
<stop offset="1" stop-color="#FDB572"/>
</linearGradient>
<linearGradient id="paint2_linear_4410_15544" x1="423.971" y1="106.458" x2="423.971" y2="253.093" gradientUnits="userSpaceOnUse">
<stop stop-color="#FF8B20"/>
<stop offset="1" stop-color="#FDB572"/>
</linearGradient>
<linearGradient id="paint3_linear_4410_15544" x1="92.0085" y1="52.3506" x2="92.0085" y2="86.5379" gradientUnits="userSpaceOnUse">
<stop stop-color="#FF8B20"/>
<stop offset="1" stop-color="#FDB572"/>
</linearGradient>
<linearGradient id="paint4_linear_4410_15544" x1="116.628" y1="0.244873" x2="116.628" y2="48.6189" gradientUnits="userSpaceOnUse">
<stop stop-color="#FF8B20"/>
<stop offset="1" stop-color="#FDB572"/>
</linearGradient>
</defs>
</svg>
