<svg width="332" height="110" viewBox="0 0 332 110" fill="none" xmlns="http://www.w3.org/2000/svg">
<path d="M116.346 35.9607C117.587 33.0291 119.794 31.3721 123.242 31.3296C126.737 31.2871 128.851 33.0716 130.185 36.0032C130.415 35.5783 130.553 35.2809 130.737 35.026C132.208 32.6042 134.461 31.4146 137.403 31.3721C140.162 31.3296 142.507 32.2643 143.978 34.5586C144.484 35.3234 144.714 36.3006 144.898 37.1928C145.082 38.085 145.082 39.0198 145.082 39.9545C145.082 45.8177 145.082 51.6809 145.082 57.5441C145.082 58.6912 144.852 58.9037 143.564 58.9037C142.093 58.9037 140.622 58.9037 139.105 58.9037C138.093 58.9037 137.771 58.6063 137.771 57.6715C137.771 52.6581 137.771 47.6021 137.771 42.5887C137.771 41.8239 137.771 41.1016 137.679 40.3369C137.495 38.8923 136.852 38.085 135.61 37.7876C134.139 37.4477 132.622 37.9151 131.748 38.9773C130.966 39.9545 130.829 41.1016 130.829 42.2488C130.783 46.2001 130.783 50.1513 130.783 54.1451C130.783 55.3348 130.783 56.5244 130.783 57.6715C130.783 58.6063 130.461 58.9037 129.495 58.9037C127.932 58.9037 126.369 58.9037 124.805 58.9037C123.84 58.9037 123.518 58.6063 123.518 57.714C123.518 52.7006 123.518 47.6871 123.518 42.6736C123.518 41.7389 123.426 40.8042 123.242 39.8695C122.92 38.425 121.955 37.7027 120.53 37.6177C118.874 37.5327 117.633 38.17 117.127 39.5721C116.805 40.5068 116.575 41.569 116.575 42.5462C116.529 47.5172 116.53 52.5306 116.53 57.5441C116.53 57.7565 116.529 58.0114 116.484 58.2239C116.346 58.6912 115.978 58.9037 115.426 58.9037C113.725 58.9037 112.024 58.9037 110.323 58.9037C109.633 58.9037 109.265 58.5638 109.265 57.884C109.265 56.057 109.265 54.2301 109.265 52.4032C109.265 46.0301 109.265 39.6571 109.265 33.2415C109.265 32.1369 109.541 31.882 110.736 31.882C112.116 31.882 113.495 31.882 114.874 31.882C115.84 31.882 116.162 32.1794 116.162 33.1141C116.162 34.0488 116.162 34.9835 116.162 35.9182C116.254 35.9182 116.3 35.9182 116.346 35.9607Z" fill="black"/>
<path d="M166.507 55.6747C165.863 56.1845 165.312 56.6943 164.714 57.1617C161.633 59.4135 158.185 59.7534 154.599 58.7337C152.484 58.1389 151.013 56.7368 150.369 54.7399C149.357 51.7234 149.587 48.8343 151.656 46.2426C153.22 44.2882 155.427 43.2685 157.909 42.8436C160.162 42.4187 162.461 42.2063 164.714 41.9089C164.944 41.8664 165.174 41.8664 165.542 41.7814C165.45 40.7192 165.45 39.6995 165.312 38.6799C165.082 37.3628 164.116 36.5555 162.599 36.3431C160.438 36.0457 158.047 36.8954 157.541 39.2747C157.404 39.9545 156.99 40.1669 156.208 40.0819C154.737 39.912 153.22 39.7845 151.748 39.6146C150.875 39.5296 150.599 39.1472 150.783 38.34C151.564 34.941 153.909 32.8167 157.404 31.7545C160.668 30.7773 163.978 30.7348 167.243 31.712C170.967 32.8167 172.806 35.0685 172.898 38.7648C172.99 42.1638 172.99 45.6052 172.944 49.0042C172.898 50.8311 173.404 52.4456 174.691 53.8477C174.875 54.0177 175.013 54.2301 175.151 54.4425C175.381 54.8674 175.335 55.2498 174.921 55.5472C173.634 56.5669 172.346 57.6291 171.059 58.6487C170.507 59.1161 169.909 59.1161 169.358 58.6062C168.53 57.799 167.794 56.9493 167.013 56.0995C166.737 56.0145 166.645 55.8446 166.507 55.6747ZM165.45 45.7327C164.024 45.6902 162.691 45.8177 161.404 46.1576C158.415 46.8799 156.944 49.1741 157.679 51.9358C158.185 53.8477 160.116 54.7824 162.093 54.0602C163.381 53.5928 164.162 52.7006 164.714 51.5959C165.634 49.7265 165.404 47.7721 165.45 45.7327Z" fill="black"/>
<path d="M96.7131 55.6324C96.1154 56.1422 95.5636 56.6096 95.0119 57.0345C91.9774 59.3288 88.4831 59.7111 84.8509 58.6915C82.3221 57.9692 80.8508 56.2272 80.2991 53.8479C79.5634 50.6614 80.1152 47.7298 82.7359 45.3081C84.3451 43.821 86.4141 43.0563 88.621 42.6739C90.736 42.334 92.851 42.1215 94.9659 41.8666C95.1958 41.8241 95.4257 41.7816 95.7935 41.7392C95.7016 40.677 95.7476 39.6573 95.5637 38.6376C95.2878 37.278 94.1843 36.4708 92.6671 36.3008C90.644 36.0884 88.3452 36.8956 87.7934 39.2749C87.6095 39.9972 87.2417 40.1671 86.5061 40.0822C85.0807 39.9547 83.6555 39.7848 82.1842 39.6573C81.0347 39.5298 80.8048 39.2324 81.0347 38.2127C81.6784 35.4511 83.4256 33.4542 86.1842 32.307C89.9084 30.7775 93.7705 30.5651 97.6326 31.8397C101.311 33.0293 103.012 35.2386 103.104 38.85C103.196 42.2915 103.15 45.7329 103.15 49.1744C103.15 50.9588 103.61 52.4884 104.851 53.8479C105.035 54.0604 105.173 54.2728 105.311 54.4853C105.541 54.8676 105.495 55.25 105.127 55.5474C103.794 56.6096 102.46 57.7143 101.127 58.734C100.621 59.1163 100.069 59.1163 99.6097 58.6915C98.874 58.0117 98.1844 57.2469 97.4947 56.5246C97.1269 56.2697 96.943 55.9723 96.7131 55.6324ZM95.6556 45.7329C94.2303 45.6904 92.8969 45.8179 91.5636 46.1578C88.4371 46.9226 86.9199 49.6417 88.0693 52.4459C88.5291 53.5505 89.5866 54.2728 90.8739 54.2728C92.6671 54.2728 93.8625 53.3381 94.6901 51.9785C95.8855 50.0241 95.6096 47.8998 95.6556 45.7329Z" fill="black"/>
<path d="M237.129 36.3431C237.405 35.8757 237.635 35.3659 237.911 34.8985C239.382 32.3493 241.681 31.2022 244.761 31.3721C248.577 31.5845 251.06 33.5814 251.612 37.1079C251.842 38.5524 251.98 39.997 251.98 41.4415C252.026 46.8798 251.98 52.2757 251.98 57.714C251.98 58.6063 251.658 58.9037 250.692 58.9037C249.083 58.9037 247.474 58.9037 245.865 58.9037C244.991 58.9037 244.669 58.6062 244.669 57.7565C244.669 52.6581 244.669 47.6021 244.669 42.5037C244.669 41.569 244.531 40.6343 244.301 39.6995C244.026 38.6374 243.382 37.8726 242.14 37.6177C240.853 37.3628 239.704 37.7027 238.876 38.6374C237.956 39.6571 237.681 40.8892 237.497 42.1213C237.405 42.9286 237.359 43.7783 237.359 44.5855C237.359 48.9192 237.359 53.2104 237.359 57.5441C237.359 58.5638 237.083 58.8187 235.933 58.8612C234.37 58.8612 232.853 58.8612 231.29 58.8612C230.416 58.8612 230.094 58.5213 230.048 57.714C230.048 49.4716 230.048 41.1866 230.048 32.9441C230.048 32.2218 230.416 31.8819 231.198 31.8395C232.761 31.8395 234.278 31.8395 235.842 31.8395C236.577 31.8395 236.945 32.1794 236.945 32.9016C236.945 34.0488 236.945 35.1959 236.945 36.3006C237.037 36.3431 237.083 36.3431 237.129 36.3431Z" fill="black"/>
<path d="M226.094 45.5628C226.048 48.9192 225.267 52.1482 223.06 54.9949C218.416 61.0705 207.933 60.943 203.979 53.6353C201.864 49.769 201.588 45.6477 202.324 41.4415C202.783 38.8073 203.887 36.4281 205.864 34.3887C210.186 29.97 219.565 29.8851 223.657 36.3431C225.45 39.2322 226.048 42.2913 226.094 45.5628ZM218.232 45.2653C218.232 44.5856 218.278 43.9058 218.232 43.226C218.14 41.5265 217.956 39.8695 217.22 38.2975C216.209 36.1731 213.036 35.7908 211.381 37.5752C210.692 38.34 210.324 39.2747 210.186 40.2519C209.634 43.1835 209.68 46.1151 210.048 49.0467C210.186 50.1938 210.554 51.3835 211.059 52.4456C212.163 54.6975 215.243 54.8674 216.761 52.8705C217.22 52.2757 217.496 51.5534 217.726 50.8311C218.278 49.0042 218.278 47.1348 218.232 45.2653Z" fill="black"/>
<path d="M149.587 79C145.633 78.915 141.771 78.5326 137.909 77.9378C133.587 77.258 129.449 76.1959 125.357 74.7513C119.886 72.7969 114.782 70.2902 110.093 67.0187C108.345 65.7866 106.69 64.4695 104.943 63.1949C104.805 63.1099 104.713 62.9824 104.621 62.8974C104.391 62.6425 104.115 62.3876 104.437 62.0052C104.759 61.6653 105.081 61.7078 105.449 61.8778C106.414 62.3876 107.426 62.855 108.391 63.3648C111.794 65.0643 115.242 66.5088 118.874 67.6985C121.495 68.5482 124.162 69.3555 126.874 70.0777C130.874 71.0974 134.92 71.8622 139.058 72.2871C140.622 72.457 142.185 72.7119 143.748 72.8819C144.806 72.9669 145.909 72.9669 146.967 72.9669C150.047 72.9244 153.128 72.9244 156.208 72.8394C159.151 72.7544 162.093 72.4145 164.99 71.8622C168.53 71.2249 172.024 70.5026 175.473 69.6529C177.956 69.0156 180.392 68.1658 182.875 67.3586C183.657 67.1037 184.438 66.7638 185.266 66.5088C185.588 66.4239 186.002 66.3814 186.323 66.4239C187.243 66.5513 187.611 67.3586 187.013 67.9959C186.645 68.4207 186.14 68.7606 185.634 69.0581C182.231 71.2249 178.553 72.9669 174.737 74.3689C171.565 75.5586 168.254 76.4933 164.944 77.1731C162.185 77.7254 159.381 78.1078 156.622 78.4477C154.231 78.7876 151.886 78.8301 149.587 79Z" fill="#FF9900"/>
<path d="M188.576 49.9389C190.324 50.1089 191.933 50.1938 193.542 50.4488C195.197 50.6612 196.76 51.2135 198.232 51.9358C199.013 52.3182 199.381 52.8705 199.381 53.6778C199.381 54.8249 199.381 55.9721 199.381 57.1192C199.381 58.0964 198.737 58.3938 197.818 58.0114C191.795 55.4197 185.772 55.4197 179.795 58.0964C179.059 58.4363 178.415 58.0964 178.415 57.3316C178.369 55.8871 178.323 54.4 178.461 52.9555C178.507 52.3182 178.829 51.5959 179.197 51.0436C182.461 46.6674 185.772 42.2913 189.082 37.9151C189.22 37.7452 189.312 37.5752 189.496 37.3203C189.22 37.3203 188.99 37.2778 188.806 37.2778C186.14 37.2778 183.427 37.2778 180.76 37.2778C179.657 37.2778 179.381 37.0229 179.381 36.0032C179.381 34.9835 179.381 33.9638 179.381 32.9441C179.381 32.1369 179.703 31.8395 180.576 31.8395C186.278 31.8395 191.933 31.8395 197.634 31.8395C198.554 31.8395 198.875 32.1369 198.875 33.0291C198.875 33.7939 198.829 34.5161 198.875 35.2809C198.921 36.0457 198.646 36.683 198.186 37.2778C195.105 41.3565 192.025 45.3928 188.99 49.4716C188.806 49.5565 188.714 49.769 188.576 49.9389Z" fill="black"/>
<path d="M188.255 75.2187C188.346 74.9212 188.392 74.5814 188.484 74.284C189.266 72.2446 190.094 70.2477 190.737 68.1658C191.059 67.1886 191.105 66.084 191.197 65.0643C191.243 64.342 190.875 63.7897 190.094 63.5772C189.404 63.4073 188.668 63.2373 187.979 63.1949C185.266 63.1099 182.553 63.1949 179.841 63.6197C179.611 63.6622 179.381 63.6622 179.197 63.6622C178.967 63.6197 178.645 63.5347 178.599 63.4498C178.553 63.2373 178.691 62.9399 178.829 62.8125C179.427 62.4301 180.025 62.0477 180.668 61.7503C182.921 60.7731 185.312 60.2632 187.841 60.1783C189.818 60.0933 191.795 60.1358 193.726 60.6881C194.875 61.028 195.243 61.3679 195.243 62.4726C195.243 65.2767 194.462 67.9534 193.128 70.4601C192.209 72.2021 191.059 73.7741 189.496 75.0487C189.174 75.3461 188.806 75.4736 188.255 75.2187Z" fill="#FF9900"/>
</svg>
