<svg width="332" height="110" viewBox="0 0 332 110" fill="none" xmlns="http://www.w3.org/2000/svg">
<path d="M81.2696 57.1042C80.9116 57.6083 80.7326 58.0005 80.4939 58.3366C78.2861 61.9217 76.0783 65.5068 73.8706 69.0919C72.4385 71.3886 70.1711 71.3886 68.739 69.0919C67.0086 66.3471 65.3378 63.6022 63.6671 60.8573C63.4284 60.5212 63.3687 59.849 63.5478 59.5689C67.6649 52.8469 71.7821 46.1248 75.959 39.4027C76.0187 39.3466 76.0783 39.2906 76.2574 39.1226C77.0927 40.523 78.0474 41.8114 78.5845 43.2118C78.8828 43.9401 78.5845 45.0604 78.1071 45.7887C75.4817 50.158 72.8562 54.5274 70.1114 58.7847C69.5147 59.737 69.3357 60.5213 70.1114 61.4736C70.5291 61.9217 70.7678 62.4819 71.1854 63.1541C74.5269 57.7204 77.7491 52.5108 81.0906 47.0771C81.6276 47.8613 82.0453 48.5895 82.463 49.2617C84.0741 51.8945 85.6851 54.5834 87.3559 57.2162C88.6089 59.2328 88.6089 61.1935 87.3559 63.2101C85.2675 66.6832 83.179 70.1002 81.0309 73.5733C76.496 80.7996 65.9345 80.7996 61.34 73.6293C59.1322 70.1002 56.9841 66.5151 54.836 62.986C53.7619 61.1934 53.7023 59.4009 54.7763 57.6083C60.1466 48.8696 65.5168 40.1309 70.8871 31.3361C70.9468 31.2241 71.0661 31.1681 71.2451 31C72.0208 32.3445 72.8562 33.6329 73.5722 34.9213C74.1093 35.9296 73.6916 36.8819 73.0949 37.8342C68.8583 44.7243 64.6218 51.6145 60.3256 58.5046C59.6095 59.681 59.4902 60.5773 60.2659 61.8096C62.1754 64.6665 63.9058 67.6355 65.6958 70.5484C68.4406 75.0298 73.8109 75.0298 76.6154 70.5484C78.4651 67.5234 80.2552 64.4985 82.2243 61.5296C82.8807 60.5212 82.8807 59.737 82.1646 58.8407C81.926 58.2806 81.6873 57.7764 81.2696 57.1042Z" fill="#E81C1C"/>
<path d="M117.787 70.9965C119.398 70.9965 120.89 70.9965 122.322 70.9965C123.396 74.1895 126.141 75.4779 129.482 74.4136C131.094 73.9094 132.168 72.453 132.108 70.8845C132.048 69.372 131.094 68.1396 129.423 67.6915C128.587 67.4674 127.692 67.3554 126.797 67.2994C121.367 67.1873 117.907 63.8263 117.787 58.5606C117.728 53.6311 121.367 49.8219 126.499 49.5418C135.27 49.0937 138.433 56.7121 136.106 61.6416C135.509 62.93 134.316 63.9943 133.361 65.2267C134.793 66.011 136.106 67.2434 136.583 69.0919C137.001 70.9405 136.822 72.7331 135.927 74.4696C134.554 76.9344 132.287 78.2228 129.423 78.6149C125.783 79.1751 122.441 78.5589 119.816 75.87C118.384 74.6376 117.847 72.9572 117.787 70.9965ZM132.227 58.1685C132.048 57.6083 131.869 56.544 131.392 55.6477C129.96 53.0149 126.439 52.4547 124.172 54.4153C121.785 56.488 121.845 60.7453 124.291 62.762C125.783 63.9943 127.752 64.2184 129.482 63.3221C131.392 62.2578 132.108 60.5773 132.227 58.1685Z" fill="black"/>
<path d="M273.465 51.8386C273.465 48.6456 273.465 45.5086 273.465 42.3156C275.017 42.3156 276.449 42.3156 278 42.3156C278 50.7182 278 59.1208 278 67.6915C276.747 67.6915 275.434 67.7475 274.181 67.6355C273.942 67.6355 273.644 67.2434 273.584 67.0193C273.465 66.5711 273.465 66.123 273.465 65.5068C271.317 67.7475 268.692 68.4197 265.768 68.0836C263.62 67.8035 261.77 66.9633 260.338 65.4508C256.877 61.8657 256.996 55.7598 260.338 52.2867C263.083 49.3738 269.467 48.3095 273.465 51.8386ZM262.426 58.9528C262.426 59.1208 262.426 59.4009 262.486 59.737C262.784 62.0897 264.694 64.1624 266.842 64.3865C269.646 64.7226 271.973 63.2101 272.749 60.4652C273.525 57.7204 272.212 54.7514 269.766 53.7431C266.126 52.2867 262.307 54.8635 262.426 58.9528Z" fill="black"/>
<path d="M192.971 50.046C194.403 50.046 195.835 50.046 197.267 50.046C197.327 50.7182 197.446 51.3344 197.566 52.2307C199.773 49.8779 202.518 49.3177 205.502 49.7659C207.829 50.102 209.678 51.1663 211.11 52.9589C214.213 56.8241 213.736 62.5939 210.156 65.8989C207.411 68.3637 201.205 69.372 197.506 65.8989C197.506 67.5234 197.506 68.9799 197.506 70.4924C197.506 72.0048 197.506 73.4613 197.506 75.0298C195.954 75.1978 194.522 75.3659 192.971 75.5339C192.971 66.9072 192.971 58.5046 192.971 50.046ZM203.294 53.239C200.37 53.183 197.924 55.6477 197.864 58.6727C197.864 61.8097 200.131 64.2744 202.995 64.3304C205.919 64.3865 208.425 62.0337 208.485 59.0648C208.604 55.9278 206.277 53.295 203.294 53.239Z" fill="black"/>
<path d="M139.865 42.2595C141.357 42.2595 142.849 42.2595 144.46 42.2595C144.46 45.5085 144.46 48.6455 144.46 51.8945C144.639 51.7825 144.818 51.7825 144.877 51.7265C147.324 49.4298 150.248 49.0937 153.35 50.102C156.453 51.0543 157.647 53.519 157.826 56.2639C158.064 60.0171 157.885 63.7702 157.885 67.5794C156.453 67.5794 155.021 67.5794 153.35 67.5794C153.35 67.1873 153.35 66.7952 153.35 66.347C153.35 63.6022 153.41 60.9134 153.291 58.1685C153.231 55.4236 151.62 53.9112 148.995 53.9112C146.608 53.9112 144.519 55.9278 144.519 58.3365C144.46 61.3615 144.519 64.3864 144.519 67.5234C142.968 67.5234 141.536 67.5234 139.925 67.5234C139.865 59.1208 139.865 50.7182 139.865 42.2595Z" fill="black"/>
<path d="M255.982 60.3532C250.97 60.3532 246.017 60.3532 240.826 60.3532C241.184 61.8657 242.079 62.874 243.332 63.4901C246.316 64.9466 249.001 64.1623 251.686 62.4258C252.521 63.3781 253.416 64.3304 254.371 65.3387C253.536 66.291 252.103 66.9072 250.671 67.3554C247.27 68.4197 243.929 68.3637 240.766 66.5711C237.305 64.6105 235.635 60.5212 236.649 56.544C237.604 52.7348 241.065 49.9339 245.063 49.5978C252.82 49.0376 256.817 54.5834 255.982 60.3532ZM251.507 56.9921C250.97 54.7514 248.702 53.1269 246.196 53.1269C243.69 53.1269 241.363 54.8075 240.886 56.9921C244.466 56.9921 247.986 56.9921 251.507 56.9921Z" fill="black"/>
<path d="M234.68 60.4092C229.489 60.4092 224.476 60.4092 219.405 60.4092C220.24 64.3864 225.073 65.3387 230.264 62.5379C231.159 63.4341 232.114 64.3304 233.129 65.2267C231.338 66.9072 229.071 67.5794 226.684 67.9716C219.106 69.1479 213.139 62.818 215.466 55.9278C216.898 51.6705 221.075 49.2057 226.147 49.6538C230.682 50.046 234.143 53.295 234.62 57.6643C234.62 58.5606 234.62 59.4009 234.68 60.4092ZM219.405 56.9361C222.985 56.9361 226.505 56.9361 230.026 56.9361C229.25 54.5834 227.042 53.0709 224.596 53.1269C222.209 53.1829 220.001 54.7514 219.405 56.9361Z" fill="black"/>
<path d="M173.698 65.2827C174.473 64.3305 175.249 63.4342 176.085 62.4819C177.934 63.8263 180.023 64.2744 182.23 64.3304C182.887 64.3304 183.603 64.2184 184.259 64.1064C185.154 63.8823 185.811 63.3781 185.811 62.4258C185.811 61.5296 185.095 61.0254 184.259 60.8574C182.887 60.5773 181.455 60.4092 180.023 60.1851C178.352 59.9051 176.741 59.5129 175.548 58.2806C173.459 56.1519 173.757 52.9589 176.204 51.1663C179.545 48.7576 186.228 49.0937 189.451 51.8946C188.615 52.7908 187.839 53.6871 186.944 54.5834C185.095 53.183 183.006 52.7908 180.679 53.183C179.784 53.351 178.829 53.6311 178.77 54.6394C178.71 55.7038 179.486 56.2079 180.5 56.432C182.469 56.7681 184.438 56.9922 186.407 57.3283C188.078 57.6644 189.391 58.5046 189.988 60.1291C190.942 62.762 189.868 65.3948 187.362 66.7952C184.796 68.1957 181.992 68.2517 179.187 67.8035C177.159 67.5234 175.309 66.7392 173.698 65.2827Z" fill="black"/>
<path d="M172.743 66.9072C170.654 68.0276 168.626 68.3637 166.478 67.9156C164.389 67.4674 163.255 66.123 163.017 64.1624C162.778 61.9777 162.838 59.793 162.778 57.6083C162.778 56.376 162.778 55.0875 162.778 53.7431C161.585 53.7431 160.511 53.7431 159.317 53.7431C159.317 52.4547 159.317 51.2784 159.317 49.99C160.391 49.99 161.465 49.99 162.778 49.99C162.778 48.7576 162.838 47.5812 162.778 46.4608C162.778 45.7886 162.957 45.5086 163.733 45.4525C164.926 45.3965 166.06 45.2285 167.492 45.0604C167.492 46.3488 167.552 47.5812 167.492 48.8136C167.432 49.6539 167.731 49.99 168.685 49.9339C169.64 49.8779 170.535 49.9339 171.609 49.9339C171.49 51.1103 171.43 52.1746 171.251 53.1829C171.191 53.407 170.774 53.6311 170.475 53.6871C169.521 53.7431 168.626 53.6871 167.492 53.6871C167.492 54.2473 167.492 54.6954 167.492 55.1996C167.492 57.3843 167.492 59.569 167.492 61.7537C167.492 64.5545 168.327 65.1147 171.191 64.1624C171.669 65.0587 172.206 65.8989 172.743 66.9072Z" fill="black"/>
<path d="M102.094 42.2595C103.646 42.2595 105.018 42.2595 106.57 42.2595C106.57 50.6621 106.57 59.0648 106.57 67.5794C105.138 67.5794 103.646 67.5794 102.094 67.5794C102.094 59.1768 102.094 50.7742 102.094 42.2595Z" fill="black"/>
<path d="M114.983 67.6355C113.491 67.6355 112.059 67.6355 110.567 67.6355C110.567 61.8097 110.567 55.9838 110.567 50.102C111.999 50.102 113.431 50.102 114.983 50.102C114.983 55.8718 114.983 61.6976 114.983 67.6355Z" fill="black"/>
<path d="M110.15 44.3882C110.15 42.9878 111.283 41.8674 112.715 41.8674C114.207 41.8114 115.46 42.9878 115.52 44.3882C115.52 45.7887 114.267 46.965 112.775 46.909C111.343 46.853 110.15 45.7326 110.15 44.3882Z" fill="black"/>
</svg>
