<svg width="332" height="110" viewBox="0 0 332 110" fill="none" xmlns="http://www.w3.org/2000/svg">
<path d="M165.726 40.8168C165.889 40.3461 166.026 40.0323 166.135 39.7185C167.062 36.7374 168.207 33.8347 169.816 31.1412C170.934 29.2583 172.243 27.5063 174.125 26.2772C177.098 24.3421 179.852 24.9435 182.361 27.4278C184.625 29.7029 186.016 32.4749 187.216 35.3514C188.934 39.457 190.025 43.7195 190.843 48.0605C191.416 51.094 191.77 54.1536 192.152 57.2132C192.67 61.3973 192.834 65.6336 192.861 69.8438C192.861 70.6807 192.861 70.6807 191.988 70.6807C190.27 70.6807 188.552 70.6545 186.861 70.6807C186.37 70.6807 186.207 70.5499 186.207 70.0792C186.152 66.7058 186.098 63.3324 185.934 59.959C185.825 57.4485 185.525 54.9642 185.361 52.4538C185.061 48.4789 184.488 44.5564 183.725 40.6599C183.152 37.7311 182.443 34.8284 181.216 32.0826C180.807 31.1412 180.261 30.2521 179.634 29.4152C178.543 27.9247 176.934 27.8985 175.707 29.2583C174.589 30.4874 173.934 31.978 173.362 33.4947C172.325 36.2928 171.589 39.1955 171.153 42.1505C170.634 45.5501 170.116 48.9235 169.762 52.3492C169.271 57.1086 169.107 61.8941 169.134 66.6796C169.134 67.4119 169.134 67.438 168.344 67.438C166.571 67.438 164.798 67.438 163.026 67.438C162.562 67.438 162.426 67.2811 162.398 66.8365C162.344 63.8554 162.317 60.8742 162.153 57.9192C161.88 52.6107 161.362 47.3022 160.38 42.0459C159.78 38.8556 159.098 35.6652 157.789 32.6579C157.326 31.5596 156.671 30.5397 156.017 29.546C155.608 28.9184 155.008 28.4738 154.217 28.3431C153.399 28.2123 152.744 28.5261 152.199 29.0753C151.135 30.1475 150.508 31.455 149.99 32.8148C148.626 36.319 147.835 39.9539 147.263 43.6411C146.772 46.8053 146.417 49.9695 146.09 53.1337C145.49 58.6776 145.326 64.2477 145.299 69.8438C145.299 70.7068 145.299 70.7068 144.399 70.7068C142.708 70.7068 141.017 70.6807 139.326 70.7068C138.781 70.7068 138.672 70.5238 138.672 70.0531C138.617 65.1106 138.945 60.1943 139.517 55.3042C140.199 49.7864 141.181 44.3472 142.926 39.0386C144.044 35.6129 145.381 32.2656 147.535 29.2583C148.326 28.16 149.199 27.1663 150.317 26.3818C152.662 24.7343 155.09 24.7082 157.462 26.3295C159.371 27.6632 160.707 29.4676 161.826 31.4288C163.462 34.2531 164.607 37.2865 165.562 40.3984C165.535 40.503 165.616 40.5815 165.726 40.8168Z" fill="#FDBB20"/>
<path d="M121.818 80.2517C122.063 79.3626 122.336 78.4996 122.582 77.6105C123.1 75.8062 123.618 74.0018 124.136 72.1712C124.245 71.8051 124.409 71.6482 124.845 71.6482C125.881 71.6744 126.918 71.6744 127.954 71.6482C128.39 71.6482 128.554 71.7528 128.554 72.1974C128.554 76.2246 128.527 80.2517 128.554 84.2789C128.554 84.7235 128.39 84.8542 127.954 84.8281C127.463 84.8019 126.972 84.8019 126.481 84.8281C125.991 84.8542 125.827 84.6712 125.827 84.2004C125.827 81.4808 125.8 78.7873 125.8 76.0677C125.8 75.8062 125.8 75.5446 125.8 75.2831C125.745 75.2831 125.691 75.2831 125.636 75.257C125.391 76.1461 125.145 77.0091 124.9 77.8982C124.3 80.0687 123.727 82.2392 123.127 84.3835C123.072 84.5404 122.827 84.7496 122.636 84.7758C122.036 84.8281 121.436 84.7758 120.836 84.8019C120.509 84.8019 120.373 84.645 120.318 84.3573C119.554 81.4546 118.764 78.5519 118 75.6492C117.973 75.5185 117.918 75.3877 117.727 75.2831C117.727 75.5708 117.727 75.8846 117.727 76.1723C117.727 78.7873 117.7 81.4023 117.7 84.0174C117.7 84.7758 117.7 84.7758 116.882 84.7758C116.5 84.7758 116.091 84.7496 115.709 84.7758C115.164 84.8281 115 84.645 115 84.122C115.027 82.1346 115 80.1471 115 78.1597C115 76.1984 115 74.2371 115 72.2497C115 71.779 115.109 71.5698 115.655 71.5959C116.664 71.6482 117.645 71.6221 118.654 71.5959C119.145 71.5698 119.336 71.7528 119.473 72.1974C120.154 74.6817 120.863 77.1921 121.572 79.6764C121.627 79.8333 121.682 80.0164 121.736 80.1733C121.736 80.2517 121.791 80.2517 121.818 80.2517Z" fill="black"/>
<path d="M198.779 83.6774C198.588 83.8343 198.479 83.9128 198.397 83.9912C196.406 85.9002 193.352 85.2726 192.179 82.6576C191.47 81.0362 191.497 79.3103 192.097 77.6367C193.079 74.917 196.515 74.3417 198.288 76.0153C198.343 76.0676 198.452 76.1199 198.615 76.2245C198.643 75.963 198.67 75.78 198.67 75.5969C198.67 74.5248 198.697 73.4264 198.67 72.3543C198.643 71.8313 198.861 71.6482 199.379 71.7005C199.87 71.7267 200.361 71.7267 200.852 71.7005C201.233 71.6744 201.397 71.8313 201.397 72.1974C201.397 76.2507 201.397 80.3302 201.397 84.3835C201.397 84.7757 201.206 84.8803 200.852 84.8803C200.415 84.8542 199.979 84.8542 199.542 84.8803C199.024 84.9065 198.806 84.7496 198.861 84.2527C198.833 84.0697 198.806 83.9389 198.779 83.6774ZM198.67 80.0425C198.697 80.0425 198.643 80.0164 198.67 80.0425C198.615 79.6241 198.561 79.1795 198.479 78.7611C198.261 77.7674 197.552 77.1398 196.624 77.0614C195.697 77.0091 194.879 77.5582 194.579 78.5258C194.225 79.5718 194.279 80.644 194.606 81.6638C194.852 82.4484 195.397 82.9714 196.27 83.076C197.143 83.1544 197.824 82.8145 198.152 82.0822C198.479 81.4546 198.479 80.6963 198.67 80.0425Z" fill="black"/>
<path d="M147.753 83.8605C146.99 84.2527 146.335 84.7496 145.572 84.9588C143.935 85.4295 142.135 84.5927 141.345 82.9975C140.363 81.0624 140.336 79.0488 141.317 77.0875C142.354 74.9693 145.135 74.394 147.072 75.8062C147.208 75.9108 147.372 76.0154 147.59 76.1984C147.617 75.9369 147.644 75.78 147.644 75.6231C147.644 74.4986 147.672 73.348 147.644 72.2235C147.644 71.8051 147.781 71.6221 148.217 71.6482C148.735 71.6744 149.226 71.6744 149.744 71.6482C150.181 71.6221 150.344 71.8051 150.344 72.2235C150.317 74.0018 150.344 75.7539 150.344 77.5321C150.344 79.7549 150.344 81.9777 150.344 84.1743C150.344 84.6712 150.181 84.8542 149.662 84.8281C149.281 84.8019 148.872 84.7758 148.49 84.8281C147.972 84.8804 147.753 84.6712 147.808 84.1743C147.781 84.0697 147.753 83.9128 147.753 83.8605ZM143.281 79.8333C143.39 80.5394 143.445 81.1147 143.581 81.6377C143.799 82.4745 144.563 83.0237 145.354 83.076C146.199 83.1283 146.963 82.6576 147.29 81.8469C147.781 80.644 147.753 79.4411 147.29 78.2381C147.017 77.5059 146.417 77.0875 145.572 77.0352C144.754 76.9829 144.099 77.3229 143.772 78.0289C143.499 78.6566 143.417 79.3365 143.281 79.8333Z" fill="black"/>
<path d="M152.362 80.0425C152.362 77.166 154.489 75.0739 157.435 75.0739C160.517 75.0739 162.644 77.1137 162.644 80.0948C162.644 82.9975 160.489 85.1157 157.489 85.1157C154.38 85.0896 152.362 83.1021 152.362 80.0425ZM159.917 80.0425C159.889 80.0425 159.889 80.0425 159.862 80.0425C159.862 79.8333 159.862 79.598 159.835 79.3888C159.698 78.1597 158.798 77.2444 157.68 77.166C156.535 77.0614 155.526 77.7936 155.226 78.9704C155.008 79.8595 155.008 80.7486 155.362 81.6377C155.744 82.553 156.617 83.076 157.571 83.0498C158.526 82.9975 159.371 82.4222 159.644 81.507C159.78 81.0101 159.835 80.5132 159.917 80.0425Z" fill="black"/>
<path d="M184.925 84.828C184.052 84.828 183.261 84.828 182.498 84.8019C182.389 84.8019 182.28 84.6188 182.225 84.5142C182.143 84.3312 182.089 84.1481 181.98 83.9389C181.652 84.1481 181.407 84.3573 181.107 84.5142C179.634 85.4034 177.643 85.2988 176.525 84.2527C175.08 82.9191 175.489 80.5394 177.316 79.7549C177.889 79.5195 178.489 79.3888 179.089 79.2319C179.689 79.075 180.289 78.9703 180.889 78.8134C181.161 78.735 181.57 78.7611 181.57 78.3166C181.543 77.8459 181.489 77.4013 180.97 77.1921C180.071 76.7999 179.116 77.0875 178.571 77.8982C178.461 78.0551 178.216 78.1858 178.052 78.1597C177.507 78.1335 176.962 78.0289 176.443 77.9505C176.116 77.8982 176.062 77.7413 176.171 77.4536C176.607 76.1984 177.452 75.3354 178.843 75.2047C179.907 75.1001 181.025 75.1262 182.089 75.2831C183.425 75.4662 184.052 76.2507 184.216 77.5321C184.27 77.8982 184.27 78.2904 184.298 78.6565C184.461 80.6701 183.943 82.7622 184.925 84.828ZM181.516 80.3302C180.698 80.5394 179.907 80.6963 179.171 80.9839C178.352 81.2716 178.189 82.1607 178.734 82.8145C179.143 83.2852 179.771 83.3898 180.425 83.1283C181.434 82.7099 181.843 81.7423 181.516 80.3302Z" fill="black"/>
<path d="M167.198 76.486C167.471 76.2507 167.634 76.1199 167.798 75.9892C168.944 75.0739 170.253 74.8386 171.643 75.2308C172.789 75.5446 173.443 76.303 173.634 77.4275C173.689 77.7936 173.743 78.1335 173.743 78.4996C173.743 80.4348 173.743 82.3699 173.771 84.2789C173.771 84.6711 173.634 84.828 173.225 84.828C172.762 84.8019 172.325 84.828 171.862 84.828C171.043 84.828 171.043 84.828 171.043 84.0174C171.043 82.5268 171.043 81.0624 171.043 79.5718C171.043 79.258 171.016 78.9703 170.989 78.6565C170.907 77.6105 170.416 77.0875 169.516 77.0614C168.562 77.0091 167.689 77.6628 167.525 78.5519C167.471 78.918 167.416 79.258 167.416 79.6241C167.389 81.1408 167.389 82.6576 167.416 84.1743C167.416 84.6973 167.225 84.8803 166.707 84.8542C166.189 84.828 165.698 84.828 165.18 84.8542C164.826 84.8542 164.662 84.7496 164.662 84.3835C164.662 81.4808 164.662 78.5781 164.662 75.6754C164.662 75.3354 164.798 75.2308 165.126 75.2308C165.616 75.257 166.107 75.257 166.598 75.2308C167.062 75.2047 167.198 75.3877 167.171 75.8061C167.171 75.9892 167.198 76.1722 167.198 76.486Z" fill="black"/>
<path d="M212.033 75.0478C213.424 75.1262 214.487 75.1262 215.306 75.78C215.769 76.1722 216.124 76.6952 216.478 77.1921C216.669 77.4536 216.56 77.6628 216.205 77.7413C215.66 77.8459 215.087 77.9505 214.542 78.0028C214.378 78.0289 214.106 77.8982 214.024 77.7413C213.424 76.9044 211.787 76.5645 210.915 77.1659C210.478 77.4536 210.506 78.0028 210.997 78.1858C211.706 78.4473 212.469 78.6042 213.206 78.8134C213.86 78.9965 214.515 79.1534 215.142 79.3887C216.233 79.781 216.942 80.4609 216.996 81.6638C217.051 82.919 216.478 83.8082 215.415 84.4619C215.224 84.5665 215.006 84.6711 214.815 84.7496C213.151 85.2726 211.487 85.2726 209.851 84.645C208.897 84.2789 208.242 83.599 207.86 82.6837C207.724 82.3437 207.806 82.1868 208.188 82.1345C208.788 82.0822 209.388 81.9515 209.988 81.9253C210.151 81.9253 210.397 82.0561 210.478 82.213C211.078 83.2852 212.824 83.7036 213.833 82.9975C214.051 82.8406 214.242 82.4745 214.242 82.1868C214.242 81.9776 213.915 81.69 213.669 81.6377C212.687 81.35 211.678 81.1147 210.669 80.8532C210.397 80.7747 210.124 80.6963 209.878 80.5917C208.597 80.0948 207.969 79.2057 208.024 77.9766C208.078 76.7998 208.869 75.7538 210.124 75.44C210.86 75.1785 211.624 75.1001 212.033 75.0478Z" fill="black"/>
<path d="M139.436 78.0551C138.563 78.1858 137.799 78.3427 137.008 78.4212C136.899 78.4212 136.736 78.2643 136.681 78.1335C136.245 77.2967 135.727 76.9829 134.799 77.0352C133.927 77.0875 133.272 77.5582 133.027 78.395C132.727 79.4672 132.727 80.5917 133.081 81.6638C133.354 82.5268 134.118 83.0237 135.045 82.9975C135.917 82.9975 136.517 82.553 136.79 81.6638C136.899 81.2716 137.09 81.1408 137.499 81.2193C138.045 81.2977 138.59 81.3762 139.108 81.4285C139.517 81.4808 139.599 81.6638 139.49 82.0299C138.836 84.1743 136.981 85.3249 134.445 85.0895C132.209 84.8803 130.763 83.6774 130.3 81.5854C130 80.2256 130.054 78.8919 130.627 77.6105C131.581 75.5708 133.845 74.6817 136.381 75.2047C137.663 75.4662 138.59 76.1722 139.136 77.2967C139.245 77.5059 139.299 77.7413 139.436 78.0551Z" fill="black"/>
<path d="M186.916 78.2643C186.916 76.2507 186.916 74.2633 186.916 72.2497C186.916 71.8051 187.052 71.6221 187.516 71.6482C187.979 71.6744 188.47 71.6744 188.934 71.6482C189.479 71.5959 189.67 71.779 189.643 72.302C189.616 74.0802 189.643 75.8323 189.643 77.6105C189.643 79.8072 189.643 82.0038 189.643 84.2004C189.643 84.6712 189.479 84.8542 188.988 84.8281C188.47 84.8019 187.979 84.8019 187.461 84.8281C186.998 84.8542 186.888 84.6711 186.888 84.2527C186.916 82.2653 186.916 80.2779 186.916 78.2643Z" fill="black"/>
<path d="M206.333 73.0342C206.279 73.9756 206.142 74.9955 205.979 75.963C205.951 76.12 205.679 76.3553 205.515 76.3553C203.742 76.3553 204.07 76.643 203.797 75.0739C203.633 74.1325 203.633 73.1388 203.551 72.1712C203.524 71.8051 203.688 71.6482 204.07 71.6744C204.642 71.7005 205.242 71.7005 205.815 71.6744C206.197 71.6744 206.333 71.779 206.333 72.1712C206.333 72.4589 206.333 72.7465 206.333 73.0342C206.333 73.0865 206.333 72.9819 206.333 73.0342Z" fill="black"/>
</svg>
