<svg width="332" height="110" viewBox="0 0 332 110" fill="none" xmlns="http://www.w3.org/2000/svg">
<path d="M185.008 40.7687C185.201 40.6141 185.316 40.4981 185.47 40.3822C186.779 39.2614 188.242 38.4498 189.898 38.0246C193.209 37.1743 196.328 37.7154 199.254 39.5319C201.256 40.8073 202.72 42.5465 203.875 44.5562C205.03 46.6046 205.723 48.8076 206.108 51.0879C206.416 52.943 206.531 54.7982 206.454 56.6919C206.339 59.552 205.954 62.3347 204.953 65.0014C204.26 66.8179 203.336 68.5185 202.027 69.9871C200.101 72.1514 197.714 73.5041 194.826 73.9293C192.67 74.2771 190.591 74.0839 188.55 73.2336C187.703 72.8471 186.895 72.3833 186.163 71.8423C186.048 71.765 185.932 71.6876 185.817 71.6103C185.624 71.7263 185.701 71.8809 185.701 71.9968C185.701 72.9631 185.701 73.9679 185.701 74.9341C185.701 77.4463 185.701 79.9971 185.701 82.5093C185.701 82.6252 185.701 82.7412 185.701 82.9344C182.505 83.6301 179.31 84.2871 176.114 84.9828C176.037 85.0215 175.921 84.9828 175.767 84.9828C175.767 84.7896 175.767 84.635 175.767 84.4804C175.767 77.485 175.767 70.4895 175.767 63.5328C175.767 55.3006 175.767 47.0684 175.767 38.8362C175.767 38.2565 175.729 38.2565 176.345 38.2565C178.886 38.2565 181.389 38.2565 183.93 38.2565C184.007 38.2565 184.123 38.2565 184.2 38.2565C184.469 38.2565 184.508 38.2951 184.546 38.5657C184.662 39.1454 184.816 39.7638 184.931 40.3435C184.931 40.4595 184.97 40.5754 185.008 40.7687ZM185.663 55.8803C185.663 56.8466 185.663 57.8128 185.663 58.779C185.663 60.209 185.663 61.6003 185.663 63.0303C185.663 63.3009 185.701 63.4941 185.932 63.6874C186.24 63.9192 186.51 64.1898 186.856 64.4217C187.934 65.1174 189.166 65.3493 190.437 65.3493C191.554 65.3493 192.555 65.0014 193.44 64.3058C194.287 63.6487 194.903 62.8371 195.365 61.8709C196.213 60.209 196.559 58.3925 196.636 56.576C196.713 55.3006 196.598 54.0638 196.328 52.8271C196.02 51.3971 195.519 50.0057 194.634 48.8076C193.825 47.7254 192.824 46.9138 191.438 46.566C190.707 46.4114 189.975 46.4114 189.243 46.5273C187.934 46.6819 186.818 47.223 185.855 48.1506C185.663 48.3438 185.586 48.5757 185.586 48.8463C185.663 51.2038 185.663 53.5614 185.663 55.8803Z" fill="#635BFF"/>
<path d="M237.911 59.552C231.404 59.552 224.936 59.552 218.39 59.552C218.429 59.7839 218.429 59.9771 218.467 60.209C218.737 61.7936 219.353 63.2236 220.662 64.2285C221.625 64.9628 222.703 65.3879 223.896 65.5812C225.398 65.8517 226.938 65.8131 228.44 65.6585C230.365 65.5039 232.213 65.0787 234.023 64.4217C234.562 64.2285 235.101 63.9579 235.64 63.726C235.717 63.6874 235.832 63.6487 235.948 63.6101C235.948 63.7647 235.948 63.8806 235.948 63.9966C235.948 66.3542 235.948 68.7117 235.948 71.0693C235.948 71.3785 235.871 71.5331 235.563 71.6877C233.522 72.7698 231.327 73.4269 229.056 73.7747C227.246 74.0452 225.436 74.1612 223.627 74.0452C221.163 73.9293 218.814 73.3882 216.619 72.2674C214.078 70.9533 212.114 69.0596 210.728 66.5474C209.65 64.615 208.996 62.5279 208.649 60.325C208.456 59.1268 208.379 57.9674 208.341 56.7693C208.225 53.7933 208.611 50.8947 209.612 48.0733C210.42 45.7157 211.614 43.6287 213.346 41.8508C215.272 39.8798 217.543 38.5657 220.277 37.986C223.165 37.3676 225.975 37.4835 228.748 38.5657C231.327 39.5706 233.33 41.3484 234.831 43.6673C236.102 45.6384 236.91 47.8028 237.411 50.1217C237.719 51.4744 237.873 52.8657 237.95 54.2957C238.065 55.9963 237.95 57.6968 237.911 59.3974C237.95 59.3974 237.95 59.436 237.911 59.552ZM218.313 52.2474C218.506 52.2474 218.66 52.2474 218.814 52.2474C221.894 52.2474 225.013 52.2474 228.093 52.2474C228.209 52.2474 228.286 52.2474 228.401 52.2474C228.594 52.2474 228.671 52.1701 228.671 51.9768C228.671 51.7449 228.632 51.513 228.632 51.2425C228.555 50.2376 228.324 49.2714 227.862 48.3438C227.015 46.7979 225.744 45.8317 223.973 45.7157C221.779 45.5611 220.161 46.5274 219.083 48.4598C218.506 49.542 218.313 50.7014 218.236 51.8995C218.236 52.0155 218.275 52.0928 218.313 52.2474Z" fill="#635BFF"/>
<path d="M117.358 48.769C116.857 48.5371 116.434 48.3439 116.01 48.1506C114.085 47.3003 112.083 46.7206 110.004 46.4501C109.118 46.3341 108.233 46.2568 107.347 46.2568C106.77 46.2568 106.23 46.3728 105.653 46.4501C105.46 46.4887 105.229 46.6046 105.037 46.6819C103.805 47.3003 103.728 48.9236 104.498 49.7352C104.844 50.083 105.268 50.3922 105.691 50.6241C106.693 51.1652 107.771 51.4744 108.81 51.8609C110.119 52.3633 111.467 52.8271 112.776 53.3682C114.085 53.9093 115.279 54.6436 116.357 55.6098C117.781 56.9239 118.706 58.5471 119.091 60.4409C119.514 62.5279 119.437 64.5763 118.744 66.586C117.858 69.1755 116.126 70.992 113.739 72.2674C112.044 73.1563 110.235 73.6587 108.348 73.9293C107.193 74.0839 106.038 74.1612 104.844 74.1225C101.341 74.0452 97.9908 73.3109 94.718 71.9582C94.487 71.8423 94.41 71.7263 94.41 71.4558C94.41 68.5571 94.41 65.6585 94.41 62.7212C94.41 62.6052 94.41 62.5279 94.4485 62.3733C94.6025 62.4506 94.7565 62.5279 94.872 62.5666C96.9127 63.6101 99.0304 64.4217 101.225 64.9628C102.573 65.272 103.92 65.5039 105.306 65.5039C105.922 65.5039 106.539 65.5039 107.155 65.3106C107.463 65.2333 107.732 65.1174 108.002 65.0014C109.388 64.3444 109.542 62.5279 108.656 61.5617C108.233 61.0979 107.694 60.7501 107.155 60.4795C106.115 59.9385 105.037 59.552 103.959 59.1655C102.457 58.6244 100.994 58.0833 99.5694 57.349C98.4143 56.7306 97.2977 56.0349 96.3737 55.0687C95.1031 53.7547 94.333 52.1701 94.102 50.3536C93.8709 48.4984 94.025 46.6433 94.641 44.9041C95.4496 42.6625 96.9127 40.9233 98.9534 39.6865C100.455 38.759 102.111 38.2179 103.805 37.9087C105.653 37.5609 107.54 37.5608 109.426 37.6768C112.006 37.8314 114.509 38.3725 116.934 39.3C117.011 39.3387 117.088 39.3387 117.165 39.3773C117.281 39.416 117.358 39.4933 117.358 39.6479C117.358 39.7252 117.358 39.8411 117.358 39.9184C117.358 42.7011 117.358 45.5225 117.358 48.3052C117.358 48.4211 117.358 48.5757 117.358 48.769Z" fill="#635BFF"/>
<path d="M131.104 29.5992C131.104 29.7538 131.104 29.9084 131.104 30.0243C131.104 32.5752 131.065 35.1646 131.065 37.7154C131.065 38.2952 131.065 38.2952 131.643 38.2952C133.799 38.2952 135.993 38.2952 138.15 38.2952C138.304 38.2952 138.458 38.2952 138.612 38.3338C138.612 41.1552 138.612 43.9379 138.612 46.7592C138.419 46.7592 138.304 46.7592 138.15 46.7592C135.955 46.7592 133.76 46.7592 131.566 46.7592C131.065 46.7592 131.065 46.7592 131.065 47.2617C131.065 51.8995 131.065 56.5374 131.065 61.1366C131.065 61.6776 131.142 62.2187 131.258 62.7211C131.643 64.1898 132.605 65.0401 134.068 65.3106C135.223 65.5425 136.34 65.3879 137.457 65.1174C137.842 65.0401 138.227 64.9241 138.612 64.8082C138.612 64.9628 138.65 65.0787 138.65 65.1947C138.65 67.6295 138.65 70.0258 138.65 72.4606C138.65 72.7312 138.535 72.8858 138.304 73.0017C137.38 73.3882 136.417 73.6587 135.454 73.8133C134.145 74.0452 132.875 74.1225 131.566 74.1225C129.448 74.0839 127.446 73.5428 125.675 72.3061C123.364 70.7215 122.017 68.4798 121.555 65.7358C121.439 65.0401 121.401 64.383 121.401 63.6874C121.401 55.8417 121.401 47.996 121.401 40.1503C121.401 37.5222 121.401 34.9327 121.401 32.3046C121.401 32.2273 121.401 32.1114 121.401 32.0341C121.401 31.6476 121.401 31.6476 121.786 31.5703C122.44 31.4157 123.056 31.2998 123.711 31.1452C126.098 30.6427 128.447 30.1403 130.834 29.6378C130.873 29.6378 130.95 29.6379 131.104 29.5992Z" fill="#635BFF"/>
<path d="M151.818 73.3882C148.469 73.3882 145.234 73.3882 141.962 73.3882C141.846 73.0404 141.846 38.6816 141.962 38.3338C142.077 38.3338 142.193 38.3338 142.308 38.3338C144.888 38.3338 147.429 38.3338 150.009 38.3338C150.047 38.3338 150.086 38.3338 150.124 38.3338C150.432 38.3338 150.432 38.3338 150.509 38.643C150.663 39.3387 150.817 40.0344 150.971 40.73C151.01 40.8846 151.048 41.0392 151.087 41.2325C151.279 41.1552 151.318 41.0392 151.395 40.9233C151.857 40.1889 152.396 39.5706 153.127 39.0681C154.052 38.4111 155.053 38.0633 156.169 37.986C157.132 37.9087 158.094 37.986 159.018 38.2179C159.403 38.3338 159.403 38.3338 159.403 38.7203C159.403 41.503 159.403 44.2857 159.403 47.0684C159.403 47.1844 159.403 47.3003 159.365 47.4549C159.249 47.4549 159.134 47.4163 159.018 47.4163C157.517 47.0684 156.015 47.1071 154.552 47.6095C153.512 47.996 152.665 48.5757 151.972 49.426C151.857 49.5806 151.78 49.7352 151.78 49.9284C151.78 50.0444 151.78 50.1603 151.78 50.2763C151.78 57.8128 151.78 65.3493 151.78 72.8858C151.818 73.0017 151.818 73.1563 151.818 73.3882Z" fill="#635BFF"/>
<path d="M162.06 73.3496C161.983 73.0017 161.983 38.6816 162.06 38.3725C162.33 38.2952 171.416 38.2952 171.879 38.3338C171.879 38.4111 171.917 38.4884 171.917 38.5657C171.917 38.6816 171.917 38.759 171.917 38.8749C171.917 50.199 171.917 61.4844 171.917 72.8085C171.917 73.0017 171.917 73.1563 171.879 73.3109C171.609 73.4269 162.522 73.4268 162.06 73.3496Z" fill="#635BFF"/>
<path d="M161.983 35.126C161.983 34.9327 161.983 34.7781 161.983 34.6622C161.983 32.3046 161.983 29.9084 161.983 27.5508C161.983 27.5122 161.983 27.4735 161.983 27.4349C161.983 27.0484 161.983 27.0484 162.368 26.9711C163.331 26.7778 164.293 26.5459 165.256 26.3527C167.412 25.8889 169.568 25.4251 171.724 25C171.763 25 171.763 25 171.84 25C171.84 25.1546 171.878 25.2705 171.878 25.4251C171.878 27.0484 171.878 28.6716 171.878 30.2949C171.878 31.0679 171.878 31.8795 171.878 32.6524C171.878 33.0003 171.878 33.0389 171.532 33.1162C169.029 33.6573 166.527 34.1984 164.024 34.7395C163.485 34.8554 162.946 34.9714 162.407 35.0873C162.33 35.0487 162.176 35.0873 161.983 35.126Z" fill="#635BFF"/>
</svg>
