<svg width="332" height="110" viewBox="0 0 332 110" fill="none" xmlns="http://www.w3.org/2000/svg">
<path d="M191.196 69.5931C191.196 67.3536 191.196 65.1863 191.196 63.019C191.196 60.9962 191.196 58.9734 191.196 56.9506C191.196 53.8441 190.114 52.038 188.222 51.8935C185.383 51.6768 182.949 53.6996 182.746 56.7338C182.544 60.2015 182.679 63.7415 182.611 67.2814C182.611 68.0038 182.611 68.7262 182.611 69.5931C181.057 69.5931 179.637 69.5931 178.082 69.5931C178.082 62.5855 178.082 55.5057 178.082 48.3536C179.569 48.3536 180.989 48.3536 182.544 48.3536C182.611 49.2205 182.611 50.0152 182.679 50.8821C186.802 46.1863 192.615 47.1977 195.116 51.4601C197.279 48.4259 200.186 47.3422 203.701 48.0646C206.675 48.6426 208.568 50.6654 208.77 53.6996C209.041 58.9734 208.838 64.3194 208.838 69.6654C207.486 69.6654 205.999 69.6654 204.377 69.6654C204.377 69.1597 204.377 68.654 204.377 68.1483C204.377 64.3194 204.377 60.4905 204.377 56.6616C204.377 54.2053 203.363 52.3992 201.808 52.038C199.78 51.5323 197.279 52.8327 196.468 54.9278C196.063 56.0114 195.86 57.2395 195.86 58.3954C195.792 61.6464 195.86 64.8251 195.86 68.076C195.86 68.5817 195.86 69.0874 195.86 69.5931C194.238 69.5931 192.75 69.5931 191.196 69.5931Z" fill="black"/>
<path d="M146.043 48.3536C146.043 49.2205 146.043 49.943 146.043 51.0266C147.868 48.8593 149.895 47.7034 152.464 47.7757C155.033 47.8479 157.128 49.0038 158.48 51.4601C160.643 48.4258 163.482 47.3422 166.862 47.9201C169.836 48.4258 171.931 50.3764 172.134 53.5551C172.472 58.9011 172.202 64.2471 172.202 69.6654C170.85 69.6654 169.363 69.6654 167.808 69.6654C167.808 67.4981 167.808 65.403 167.808 63.308C167.808 61.2129 167.808 59.1178 167.808 57.095C167.808 53.9886 166.727 52.1825 164.834 52.038C161.995 51.8213 159.562 53.8441 159.359 56.8783C159.156 60.346 159.291 63.8859 159.224 67.4258C159.224 68.1483 159.224 68.8707 159.224 69.7376C157.669 69.7376 156.249 69.7376 154.559 69.7376C154.559 69.3042 154.559 68.7985 154.559 68.365C154.559 64.6806 154.559 61.0684 154.559 57.384C154.559 57.3118 154.559 57.3118 154.559 57.2395C154.559 54.0608 153.478 52.1825 151.518 52.038C148.611 51.8213 146.245 53.9163 146.043 57.0228C145.907 59.4791 145.975 62.0076 145.975 64.5361C145.975 66.2699 145.975 67.9315 145.975 69.7376C144.42 69.7376 142.933 69.7376 141.446 69.7376C141.446 62.73 141.446 55.6502 141.446 48.4981C142.933 48.3536 144.42 48.3536 146.043 48.3536Z" fill="black"/>
<path d="M92.5076 59.9126C93.9947 59.9126 95.4818 59.9126 96.9689 59.9126C98.3207 64.8974 102.985 67.2091 107.243 64.9696C108.933 64.0304 109.677 62.7301 109.474 60.9962C109.271 59.4069 108.054 58.1787 106.297 57.8175C104.066 57.384 101.836 57.0228 99.6726 56.4449C93.8595 54.8555 91.6965 47.6312 95.4818 43.0076C97.1717 40.9848 99.3347 39.9012 101.768 39.4677C104.81 38.962 107.784 39.251 110.555 40.9848C113.394 42.7186 114.679 45.3916 114.746 48.9316C113.124 48.9316 111.569 48.9316 110.082 48.9316C108.663 44.5247 105.553 42.7909 101.43 44.3802C100.078 44.886 98.9967 45.6806 98.6587 47.27C98.1856 49.4373 99.1995 51.0989 101.43 51.6046C103.458 52.1103 105.486 52.4715 107.514 52.9772C110.488 53.8441 113.056 55.289 114.07 58.7566C115.287 63.0912 113.259 67.5703 109.339 69.1597C105.553 70.6768 101.768 70.8213 97.9828 69.2319C94.4003 67.6426 92.0345 63.6692 92.5076 59.9126Z" fill="black"/>
<path d="M291.912 69.7376C290.425 69.7376 289.005 69.7376 287.383 69.7376C287.383 66.8479 287.383 64.0304 287.383 61.2852C287.383 59.6958 287.383 58.0342 287.383 56.4449C287.315 53.9886 286.504 52.5437 284.882 52.038C282.989 51.4601 280.623 52.2548 279.677 54.1331C279.069 55.3612 278.663 56.8783 278.596 58.3232C278.46 62.0799 278.528 65.7643 278.528 69.6654C276.973 69.6654 275.486 69.6654 273.932 69.6654C273.932 59.6958 273.932 49.7262 273.932 39.7567C275.419 39.7567 276.906 39.7567 278.46 39.7567C278.46 43.5133 278.46 47.1977 278.46 51.3156C280.083 49.0038 282.043 48.1369 284.341 47.9201C288.329 47.5589 291.574 50.0152 291.777 54.2776C292.182 59.3346 291.912 64.4639 291.912 69.7376Z" fill="black"/>
<path d="M136.512 63.1635C135.971 66.9924 132.794 69.8099 128.806 70.1711C122.587 70.7491 118.058 65.7643 118.194 58.6844C118.329 53.5552 120.627 49.7263 124.412 48.3536C130.563 46.0419 136.309 50.1597 136.715 57.0951C136.782 58.1065 136.715 59.1179 136.715 60.2738C131.983 60.2738 127.454 60.2738 122.858 60.2738C122.925 64.3917 126.102 66.9924 129.617 65.7643C130.293 65.5475 131.172 65.0419 131.442 64.3917C131.983 63.0913 132.794 63.0913 133.808 63.1635C134.687 63.1635 135.565 63.1635 136.512 63.1635ZM123.06 56.3004C126.035 56.3004 129.076 56.3004 132.051 56.3004C132.051 53.6997 130.361 51.8935 127.86 51.8935C125.088 51.8213 123.128 53.6274 123.06 56.3004Z" fill="black"/>
<path d="M247.57 60.2738C242.906 60.2738 238.377 60.2738 233.713 60.2738C233.848 62.5133 234.659 64.2471 236.349 65.3308C238.039 66.4144 239.729 66.1977 241.419 65.3308C241.756 65.1863 242.162 64.8973 242.297 64.5361C242.77 63.019 243.852 63.019 245.069 63.0912C245.812 63.1635 246.623 63.0912 247.502 63.0912C246.826 66.5589 244.866 68.5817 241.959 69.5931C235.605 71.8327 229.589 67.4258 229.116 60.1293C228.846 55.6502 229.86 51.6046 233.713 49.0761C238.377 46.0418 246.758 47.4145 247.502 56.6616C247.637 57.8175 247.57 58.9734 247.57 60.2738ZM242.973 56.3004C242.906 53.5551 241.283 51.8935 238.715 51.8213C236.011 51.8213 234.051 53.6274 233.983 56.3004C236.957 56.3004 239.931 56.3004 242.973 56.3004Z" fill="black"/>
<path d="M269.538 55.5057C267.983 55.5057 266.564 55.5057 265.077 55.5057C263.792 52.3992 262.778 51.6768 260.21 51.8935C258.182 52.038 257.033 53.4107 256.357 55.289C255.546 57.673 255.478 60.0571 256.289 62.4411C257.303 65.4031 258.858 66.4144 261.764 65.981C263.657 65.692 264.468 64.2471 264.941 62.3688C266.428 62.3688 267.916 62.3688 269.403 62.3688C269.403 66.4144 266.361 69.5932 262.102 70.0266C255.951 70.6768 251.22 66.1977 251.085 59.5514C251.017 55.4335 251.963 51.8935 255.275 49.365C258.858 46.692 264.333 47.0532 267.307 50.0875C268.727 51.6768 269.403 53.4106 269.538 55.5057Z" fill="black"/>
<path d="M226.345 69.6654C224.182 69.6654 222.154 69.8099 220.126 69.5932C217.896 69.3764 216.476 67.4259 216.409 64.6806C216.341 61.9354 216.409 59.2624 216.409 56.5171C216.409 55.3612 216.409 54.2053 216.409 53.1217C218.707 52.905 220.802 54.8555 221.005 57.3841C221.14 59.1901 221.073 61.0684 221.073 62.8745C221.073 64.9696 221.478 65.403 223.438 65.403C224.385 65.403 225.331 65.403 226.345 65.403C226.345 66.9924 226.345 68.2928 226.345 69.6654Z" fill="black"/>
<path d="M212.218 52.2547C212.218 50.8821 212.218 49.654 212.218 48.2814C213.57 48.2814 214.921 48.2814 216.409 48.2814C216.409 45.8973 216.409 43.6578 216.409 41.346C218.031 41.346 219.518 41.346 221.073 41.346C221.073 43.5856 221.073 45.8251 221.073 48.2091C222.627 48.2091 224.114 48.2091 225.669 48.2091C225.669 49.654 225.669 50.9544 225.669 52.2547C221.208 52.2547 216.746 52.2547 212.218 52.2547Z" fill="black"/>
<path d="M51.2749 46.5475C51.2749 43.0076 51.2749 39.5399 51.2749 36C54.587 36 57.8992 36 61.1437 36C61.8197 41.1293 56.4121 46.981 51.2749 46.5475Z" fill="#1B4650"/>
<path d="M41.0005 46.9088C43.9747 46.9088 46.8813 46.9088 49.7203 46.9088C50.1258 46.9088 50.4638 46.981 50.937 46.981C50.937 50.5209 50.937 53.9163 50.937 57.3118C47.1517 58.1065 40.933 53.6996 41.0005 46.9088Z" fill="#1B4650"/>
<path d="M69.0523 63.4525C69.0523 66.9201 69.0523 70.3878 69.0523 74C65.7402 74 62.428 74 59.1159 74C58.7779 68.4373 64.0503 62.8023 69.0523 63.4525Z" fill="#1B4650"/>
<path d="M61.2113 57.8898C61.3465 63.597 57.0204 68.1483 51.2749 68.4373C51.2749 64.9696 51.2749 61.5019 51.2749 57.8898C54.587 57.8898 57.8316 57.8898 61.2113 57.8898Z" fill="#1B4650"/>
<path d="M69.0523 41.5627C69.0523 45.1027 69.0523 48.5704 69.0523 52.1103C65.6726 52.1103 62.428 52.1103 59.1159 52.1103C58.9131 46.5476 63.8475 41.2015 69.0523 41.5627Z" fill="#1B4650"/>
<path d="M79.3943 62.9468C76.0146 62.9468 72.77 62.9468 69.4579 62.9468C69.4579 59.4069 69.4579 56.0114 69.4579 52.616C74.2571 51.8935 79.2591 57.0228 79.3943 62.9468Z" fill="#1B4650"/>
</svg>
