<?xml version="1.0" encoding="UTF-8"?>
<svg xmlns="http://www.w3.org/2000/svg" width="26" height="27" viewBox="0 0 26 27" fill="none">
  <g id="ant-design:behance-circle-filled" clip-path="url(#clip0_725_900)">
    <path id="Vector" d="M10.3391 12.1689C10.5915 11.986 10.7134 11.6843 10.7134 11.2693C10.7221 11.072 10.6815 10.8776 10.5944 10.7006C10.5161 10.5584 10.4 10.4394 10.2578 10.3552C10.1104 10.2658 9.94664 10.2067 9.77612 10.1811C9.5904 10.1463 9.40179 10.1289 9.21607 10.1318H7.17612V12.4445H9.38437C9.76451 12.4474 10.0866 12.3546 10.3391 12.1689ZM10.6815 14.2581C10.3971 14.0405 10.017 13.9331 9.54397 13.9331H7.17031V16.6608H9.49754C9.71518 16.6608 9.9154 16.6405 10.1098 16.5999C10.2938 16.5639 10.4691 16.493 10.6263 16.391C10.7743 16.2952 10.8933 16.1646 10.9833 15.9963C11.0703 15.828 11.1138 15.6133 11.1138 15.355C11.1138 14.8414 10.9688 14.4787 10.6815 14.2581ZM13 0.378906C5.82098 0.378906 0 6.19989 0 13.3789C0 20.5579 5.82098 26.3789 13 26.3789C20.179 26.3789 26 20.5579 26 13.3789C26 6.19989 20.179 0.378906 13 0.378906ZM15.51 8.70413H19.5261V9.68203H15.51V8.70413ZM13 16.7682C12.8122 17.1248 12.5439 17.4327 12.2165 17.6677C11.8741 17.9057 11.494 18.0798 11.0906 18.1814C10.6686 18.2944 10.2333 18.3501 9.79643 18.3468H4.99107V8.44877H9.66295C10.1359 8.44877 10.5654 8.4923 10.9571 8.57355C11.346 8.6548 11.6768 8.79408 11.9554 8.9827C12.231 9.17132 12.4487 9.42377 12.6025 9.73716C12.7533 10.0477 12.8317 10.4365 12.8317 10.8979C12.8317 11.397 12.7185 11.809 12.4922 12.1427C12.2629 12.4764 11.9321 12.7463 11.4824 12.9581C12.0946 13.1323 12.5444 13.4427 12.8404 13.878C13.1422 14.3191 13.2902 14.8472 13.2902 15.4682C13.2902 15.9731 13.1944 16.4055 13 16.7682ZM21.0902 15.236H15.9134C15.9134 15.799 16.1078 16.3387 16.4009 16.6289C16.6969 16.9162 17.1205 17.0613 17.6748 17.0613C18.0752 17.0613 18.4147 16.9597 18.7049 16.7595C18.9922 16.5593 19.1663 16.3474 19.2301 16.1269H20.9654C20.6868 16.9887 20.2632 17.6039 19.6886 17.9753C19.1199 18.3468 18.4234 18.5325 17.6138 18.5325C17.048 18.5325 16.5402 18.4396 16.0846 18.2626C15.6464 18.0914 15.2518 17.8302 14.9268 17.4936C14.6063 17.148 14.3587 16.7414 14.1984 16.2981C14.0214 15.8077 13.9344 15.2912 13.9402 14.7718C13.9402 14.2349 14.0301 13.7358 14.2042 13.2715C14.5379 12.3691 15.2315 11.6465 16.1165 11.2722C16.5895 11.0749 17.0973 10.9762 17.6109 10.982C18.2203 10.982 18.7484 11.0981 19.2069 11.336C19.6483 11.5633 20.0315 11.8889 20.327 12.2878C20.6201 12.6854 20.8261 13.1381 20.9567 13.6488C21.0815 14.1508 21.125 14.6789 21.0902 15.236ZM17.55 12.4619C17.2366 12.4619 16.9725 12.5171 16.7694 12.6244C16.5663 12.7318 16.398 12.8653 16.2703 13.0191C16.1487 13.1676 16.0588 13.3394 16.0062 13.524C15.9598 13.6778 15.9279 13.8345 15.9163 13.9941H19.1228C19.0763 13.4921 18.9022 13.1206 18.6701 12.8595C18.4263 12.6012 18.0346 12.4619 17.55 12.4619Z" fill="#FFE39B"></path>
  </g>
  <defs>
    <clipPath id="clip0_725_900">
      <rect width="26" height="26" fill="white" transform="translate(0 0.378906)"></rect>
    </clipPath>
  </defs>
</svg>
