<?xml version="1.0" encoding="UTF-8"?>
<svg xmlns="http://www.w3.org/2000/svg" width="26" height="27" viewBox="0 0 26 27" fill="none">
  <g id="entypo-social:linkedin-with-circle" clip-path="url(#clip0_725_904)">
    <path id="Vector" d="M13.0005 0.898926C6.10791 0.898926 0.520508 6.48633 0.520508 13.3789C0.520508 20.2715 6.10791 25.8589 13.0005 25.8589C19.8931 25.8589 25.4805 20.2715 25.4805 13.3789C25.4805 6.48633 19.8931 0.898926 13.0005 0.898926ZM9.94551 18.5516H7.41831V10.4188H9.94551V18.5516ZM8.66631 9.42042C7.86811 9.42042 7.35201 8.85492 7.35201 8.15552C7.35201 7.44182 7.88371 6.89323 8.69881 6.89323C9.51391 6.89323 10.0131 7.44182 10.0287 8.15552C10.0287 8.85492 9.51391 9.42042 8.66631 9.42042ZM19.1755 18.5516H16.6483V14.0445C16.6483 12.9954 16.2817 12.283 15.3678 12.283C14.6697 12.283 14.255 12.7653 14.0717 13.2294C14.0041 13.3945 13.9872 13.6285 13.9872 13.8612V18.5503H11.4587V13.0123C11.4587 11.997 11.4262 11.1481 11.3924 10.4175H13.5881L13.7038 11.5472H13.7545C14.0873 11.0168 14.9024 10.2342 16.2661 10.2342C17.9288 10.2342 19.1755 11.3483 19.1755 13.7429V18.5516Z" fill="#FFE39B"></path>
  </g>
  <defs>
    <clipPath id="clip0_725_904">
      <rect width="26" height="26" fill="white" transform="translate(0 0.378906)"></rect>
    </clipPath>
  </defs>
</svg>
