<?xml version="1.0" encoding="UTF-8"?>
<svg xmlns="http://www.w3.org/2000/svg" width="85" height="23" viewBox="0 0 85 23" fill="none">
  <g id="Frame 1000000996">
    <g id="Group 1000000992">
      <g id="Group 1000000993">
        <path id="Vector 8" d="M10.4314 19.9673V3.04834L1.90601 11.442L10.4314 19.9673Z" fill="#B0B7C9"></path>
        <g id="Vector 9">
          <path d="M10.4314 19.9672V11.4418L18.9568 11.4419L10.4314 19.9672Z" fill="#C12559"></path>
          <path d="M10.4314 19.9672V11.4418L18.9568 11.4419L10.4314 19.9672Z" fill="#838DA7"></path>
        </g>
      </g>
      <g id="Influencer">
        <path d="M13.2122 9.2381V3.21991H14.6049V9.2381H13.2122Z" fill="#69748F"></path>
        <path d="M18.75 4.54391C19.8418 4.54391 20.6672 5.18012 20.6672 6.5901V9.2381H19.326V6.79644C19.326 6.04846 18.9821 5.70456 18.3889 5.70456C17.7441 5.70456 17.2798 6.10005 17.2798 6.95119V9.2381H15.9386V4.61269H17.2196V5.15433C17.5807 4.75885 18.1224 4.54391 18.75 4.54391Z" fill="#69748F"></path>
        <path d="M23.9635 3.84752C23.568 3.84752 23.3531 4.06246 23.3531 4.51812V4.71586H24.5395V5.74755H23.3875V9.2381H22.0463V5.74755H21.3327V4.71586H22.0463V4.50952C22.0463 3.46924 22.6825 2.79004 23.8345 2.79004C24.2128 2.79004 24.6083 2.86742 24.8576 3.03936L24.5051 4.01087C24.359 3.9077 24.1698 3.84752 23.9635 3.84752ZM25.2101 2.85882H26.5513V9.2381H25.2101V2.85882Z" fill="#69748F"></path>
        <path d="M31.1206 4.61269H32.4618V9.2381H31.1894V8.68787C30.8369 9.09195 30.3211 9.30688 29.7536 9.30688C28.593 9.30688 27.7762 8.65348 27.7762 7.22631V4.61269H29.1174V7.02857C29.1174 7.80233 29.4613 8.14623 30.0546 8.14623C30.6736 8.14623 31.1206 7.75075 31.1206 6.89961V4.61269Z" fill="#69748F"></path>
        <path d="M38.2352 6.94259C38.2352 7.04576 38.218 7.19192 38.2094 7.30368H34.7103C34.8392 7.87971 35.3293 8.2322 36.0343 8.2322C36.5243 8.2322 36.8768 8.08605 37.1949 7.78514L37.9085 8.55891C37.4786 9.04896 36.8338 9.30688 35.9999 9.30688C34.4008 9.30688 33.3605 8.30098 33.3605 6.9254C33.3605 5.54121 34.4179 4.54391 35.8279 4.54391C37.1863 4.54391 38.2352 5.45524 38.2352 6.94259ZM35.8365 5.55841C35.2261 5.55841 34.7876 5.9281 34.6931 6.52132H36.9714C36.8768 5.93669 36.4383 5.55841 35.8365 5.55841Z" fill="#69748F"></path>
        <path d="M41.9395 4.54391C43.0313 4.54391 43.8567 5.18012 43.8567 6.5901V9.2381H42.5155V6.79644C42.5155 6.04846 42.1716 5.70456 41.5784 5.70456C40.9336 5.70456 40.4693 6.10005 40.4693 6.95119V9.2381H39.1281V4.61269H40.4091V5.15433C40.7702 4.75885 41.3119 4.54391 41.9395 4.54391Z" fill="#69748F"></path>
        <path d="M47.3581 9.30688C45.8536 9.30688 44.7789 8.31818 44.7789 6.9254C44.7789 5.53262 45.8536 4.54391 47.3581 4.54391C48.3296 4.54391 49.0948 4.96519 49.4301 5.72176L48.3898 6.28059C48.1405 5.84212 47.7708 5.64438 47.3495 5.64438C46.6703 5.64438 46.1373 6.11724 46.1373 6.9254C46.1373 7.73355 46.6703 8.20641 47.3495 8.20641C47.7708 8.20641 48.1405 8.01727 48.3898 7.5702L49.4301 8.13763C49.0948 8.87701 48.3296 9.30688 47.3581 9.30688Z" fill="#69748F"></path>
        <path d="M54.6744 6.94259C54.6744 7.04576 54.6572 7.19192 54.6486 7.30368H51.1495C51.2784 7.87971 51.7685 8.2322 52.4735 8.2322C52.9635 8.2322 53.316 8.08605 53.6341 7.78514L54.3477 8.55891C53.9178 9.04896 53.273 9.30688 52.4391 9.30688C50.8399 9.30688 49.7997 8.30098 49.7997 6.9254C49.7997 5.54121 50.8571 4.54391 52.2671 4.54391C53.6255 4.54391 54.6744 5.45524 54.6744 6.94259ZM52.2757 5.55841C51.6653 5.55841 51.2268 5.9281 51.1323 6.52132H53.4106C53.316 5.93669 52.8775 5.55841 52.2757 5.55841Z" fill="#69748F"></path>
        <path d="M56.8483 5.22311C57.175 4.77604 57.7253 4.54391 58.4389 4.54391V5.78194C58.3271 5.77334 58.2411 5.76475 58.1379 5.76475C57.3986 5.76475 56.9085 6.16882 56.9085 7.05436V9.2381H55.5673V4.61269H56.8483V5.22311Z" fill="#69748F"></path>
      </g>
      <g id="MarketingHub">
        <path d="M27.293 17.7397H26.4677L26.4591 13.355L24.2839 17.0089H23.8884L21.7133 13.3808V17.7397H20.8879V11.7215H21.5929L24.1034 15.9514L26.5794 11.7215H27.2844L27.293 17.7397Z" fill="#69748F"></path>
        <path d="M30.5521 13.1401C31.7987 13.1401 32.5037 13.7419 32.5037 14.9885V17.7397H31.7214V17.1379C31.4462 17.5505 30.939 17.7913 30.2254 17.7913C29.1937 17.7913 28.5403 17.241 28.5403 16.4501C28.5403 15.7193 29.0132 15.1175 30.3716 15.1175H31.6784V14.9541C31.6784 14.2577 31.2743 13.8537 30.4575 13.8537C29.9159 13.8537 29.3657 14.0428 29.0132 14.3437L28.6693 13.7247C29.1421 13.3464 29.8213 13.1401 30.5521 13.1401ZM30.363 17.1551C30.982 17.1551 31.472 16.8714 31.6784 16.3469V15.7107H30.4059C29.5892 15.7107 29.3571 16.0288 29.3571 16.4157C29.3571 16.8714 29.7353 17.1551 30.363 17.1551Z" fill="#69748F"></path>
        <path d="M34.7361 13.9482C35.0284 13.4152 35.5958 13.1401 36.3954 13.1401V13.9396C36.3266 13.931 36.2664 13.931 36.2062 13.931C35.3207 13.931 34.7705 14.4727 34.7705 15.47V17.7397H33.9451V13.1831H34.7361V13.9482Z" fill="#69748F"></path>
        <path d="M40.8086 17.7397L39.0977 15.6161L38.152 16.4931V17.7397H37.3267V11.3604H38.152V15.4528L40.6367 13.1831H41.634L39.7167 15.0659L41.8231 17.7397H40.8086Z" fill="#69748F"></path>
        <path d="M46.4636 15.4872C46.4636 15.5559 46.455 15.6591 46.4464 15.7365H42.7495C42.8526 16.5361 43.4975 17.0691 44.4002 17.0691C44.9332 17.0691 45.3803 16.8885 45.7156 16.5189L46.1712 17.0519C45.7586 17.5334 45.131 17.7913 44.3744 17.7913C42.9042 17.7913 41.9241 16.8198 41.9241 15.4614C41.9241 14.1116 42.8956 13.1401 44.211 13.1401C45.5264 13.1401 46.4636 14.0858 46.4636 15.4872ZM44.211 13.8365C43.4201 13.8365 42.8355 14.3695 42.7495 15.1433H45.6726C45.5866 14.3781 45.0106 13.8365 44.211 13.8365Z" fill="#69748F"></path>
        <path d="M49.8278 16.8799L50.0857 17.4732C49.8364 17.6881 49.4581 17.7913 49.0884 17.7913C48.1685 17.7913 47.644 17.284 47.644 16.3641V13.8623H46.8703V13.1831H47.644V12.1858H48.4694V13.1831H49.7762V13.8623H48.4694V16.3297C48.4694 16.8198 48.7273 17.0949 49.183 17.0949C49.4237 17.0949 49.6558 17.0175 49.8278 16.8799Z" fill="#69748F"></path>
        <path d="M51.4102 12.3061C51.0921 12.3061 50.8514 12.074 50.8514 11.7731C50.8514 11.4722 51.0921 11.2314 51.4102 11.2314C51.7283 11.2314 51.9691 11.4636 51.9691 11.7559C51.9691 12.0654 51.7369 12.3061 51.4102 12.3061ZM50.9976 17.7397V13.1831H51.8229V17.7397H50.9976Z" fill="#69748F"></path>
        <path d="M55.7459 13.1401C56.8549 13.1401 57.6373 13.7763 57.6373 15.1175V17.7397H56.812V15.212C56.812 14.3179 56.3649 13.8794 55.5825 13.8794C54.7056 13.8794 54.1382 14.4039 54.1382 15.3926V17.7397H53.3128V13.1831H54.1038V13.8709C54.4391 13.4066 55.0237 13.1401 55.7459 13.1401Z" fill="#69748F"></path>
        <path d="M62.6805 13.1831H63.4629V17.1207C63.4629 18.7284 62.6461 19.4592 61.0986 19.4592C60.2646 19.4592 59.4221 19.227 58.9234 18.78L59.3189 18.1438C59.7402 18.5049 60.4022 18.737 61.0728 18.737C62.1475 18.737 62.6375 18.2383 62.6375 17.2067V16.8456C62.242 17.3184 61.6488 17.5505 60.9954 17.5505C59.68 17.5505 58.6827 16.6564 58.6827 15.341C58.6827 14.0256 59.68 13.1401 60.9954 13.1401C61.6746 13.1401 62.2936 13.3894 62.6805 13.888V13.1831ZM61.09 16.8284C62.0013 16.8284 62.6547 16.2179 62.6547 15.341C62.6547 14.4555 62.0013 13.8623 61.09 13.8623C60.1701 13.8623 59.5166 14.4555 59.5166 15.341C59.5166 16.2179 60.1701 16.8284 61.09 16.8284Z" fill="#69748F"></path>
        <path d="M69.5535 11.7215H70.1811V17.7397H69.5535V14.9627H65.7879V17.7397H65.1516V11.7215H65.7879V14.4039H69.5535V11.7215Z" fill="#69748F"></path>
        <path d="M75.3953 13.2174H76.0057V17.7397H75.4211V16.9143C75.1029 17.4646 74.5183 17.7827 73.7961 17.7827C72.6441 17.7827 71.8875 17.1379 71.8875 15.8397V13.2174H72.4979V15.7795C72.4979 16.7424 72.9966 17.2324 73.8563 17.2324C74.802 17.2324 75.3953 16.622 75.3953 15.5903V13.2174Z" fill="#69748F"></path>
        <path d="M79.9592 13.1831C81.2488 13.1831 82.2117 14.1116 82.2117 15.4786C82.2117 16.8456 81.2488 17.7827 79.9592 17.7827C79.2112 17.7827 78.5836 17.456 78.2139 16.8456V17.7397H77.6293V11.3604H78.2397V14.0772C78.618 13.4926 79.237 13.1831 79.9592 13.1831ZM79.9162 17.241C80.8705 17.241 81.6013 16.5361 81.6013 15.4786C81.6013 14.4211 80.8705 13.7161 79.9162 13.7161C78.9533 13.7161 78.2311 14.4211 78.2311 15.4786C78.2311 16.5361 78.9533 17.241 79.9162 17.241Z" fill="#69748F"></path>
      </g>
    </g>
  </g>
</svg>
