<?xml version="1.0" encoding="UTF-8"?>
<svg xmlns="http://www.w3.org/2000/svg" width="85" height="23" viewBox="0 0 85 23" fill="none">
  <g id="Frame 1000000998">
    <g id="Group 1549">
      <g id="Group">
        <path id="Vector" d="M27.7756 2.73682H30.5795V20.0139H27.7756V2.73682Z" fill="#838DA7"></path>
        <path id="Vector_2" d="M40.3287 14.5385C40.3287 17.2138 38.1349 17.4595 37.4036 17.4595C35.6984 17.4595 35.4523 15.8779 35.4523 15.0265V8.33301H32.6484V14.9019C32.6484 16.4836 33.1371 17.9441 34.111 18.7955C34.9636 19.6469 36.0623 20.0137 37.4001 20.0137C38.374 20.0137 39.594 19.7715 40.3253 19.0412V20.0137H43.1291V8.33301H40.3253C40.3287 8.33301 40.3287 14.5385 40.3287 14.5385Z" fill="#838DA7"></path>
        <path id="Vector_3" d="M48.6123 4.07617H45.8084V8.33314H43.7358V11.0085H45.8084V20.0139H48.6123V11.0119H50.6848V8.33661H48.6123V4.07617Z" fill="#838DA7"></path>
        <path id="Vector_4" d="M59.457 16.4871C58.847 16.975 57.9944 17.3384 57.1418 17.3384C55.1905 17.3384 53.8527 15.8779 53.8527 13.9329C53.8527 11.9844 55.194 10.6484 57.1418 10.6484C57.9944 10.6484 58.847 10.8907 59.457 11.4998L59.8209 11.8632L61.7722 10.0393L61.2835 9.67589C60.1883 8.70337 58.7257 8.09424 57.1418 8.09424C53.7314 8.09424 51.1702 10.6484 51.1702 14.0575C51.1702 17.4665 53.7279 20.0207 57.1418 20.0207C58.7257 20.0207 60.1883 19.4116 61.2835 18.439L61.7722 18.0756L59.8209 16.1271L59.457 16.4871Z" fill="#838DA7"></path>
        <path id="Vector_5" d="M71.6427 9.30917C70.7901 8.45777 69.9375 8.09091 68.5962 8.09091C67.6223 8.09091 66.645 8.33318 65.9171 9.06344V2.73682H63.1133V20.0139H65.9171V13.5661C65.9171 10.8908 67.7436 10.6451 68.4749 10.6451C70.1801 10.6451 70.0588 12.2268 70.0588 13.0781V19.8928H72.8627V13.2027C72.8592 11.6211 72.4953 10.1606 71.6427 9.30917Z" fill="#838DA7"></path>
        <path id="Vector_6" d="M57.0204 16.0025C58.098 16.0025 58.9716 15.1301 58.9716 14.054C58.9716 12.9779 58.098 12.1055 57.0204 12.1055C55.9427 12.1055 55.0691 12.9779 55.0691 14.054C55.0691 15.1301 55.9427 16.0025 57.0204 16.0025Z" fill="#B0B7C9"></path>
        <path id="Vector_7" d="M23.8766 15.7568C22.9027 16.7293 21.4401 17.3385 19.8562 17.3385C16.8097 17.3385 14.6159 14.9054 14.6159 11.621C14.6159 8.33652 16.8097 5.90347 19.9775 5.90347C21.4401 5.90347 22.9027 6.5126 23.9979 7.60626L24.3618 7.96966L26.1883 6.14573L25.8243 5.78234C24.2405 4.20068 22.1679 3.34929 19.974 3.34929C15.3471 3.22469 11.9368 6.876 11.9368 11.621C11.9368 16.3659 15.3471 20.0138 19.8562 20.0138C22.0501 20.0138 24.2439 19.1624 25.7065 17.5807L26.0704 17.2173L24.2439 15.3934L23.8766 15.7568Z" fill="#838DA7"></path>
      </g>
    </g>
  </g>
</svg>
