<?xml version="1.0" encoding="UTF-8"?>
<svg xmlns="http://www.w3.org/2000/svg" width="52" height="33" viewBox="0 0 52 33" fill="none">
  <g id="wire-transfer-seeklogo.com 1" clip-path="url(#clip0_725_974)">
    <path id="Vector" d="M48.9402 0.886051C50.3473 0.886051 51.4922 2.01935 51.4922 3.41247V29.3443C51.4922 30.7374 50.3474 31.8708 48.9402 31.8708H3.05977C1.65268 31.8708 0.507828 30.7375 0.507828 29.3443V3.41247C0.507828 2.01945 1.65258 0.886051 3.05977 0.886051H48.9402ZM48.9402 0.383301H3.05977C1.36992 0.383301 0 1.73952 0 3.41247V29.3443C0 31.0174 1.36992 32.3735 3.05977 32.3735H48.9402C50.6302 32.3735 52 31.0174 52 29.3443V3.41247C52 1.73952 50.6301 0.383301 48.9402 0.383301Z" fill="#CCD0DA"></path>
    <g id="Group">
      <path id="Vector_2" d="M6.06007 24.2529V19.6889H4.70752V18.2764H9.05788V19.6889H7.70533V24.2529H6.06007ZM9.86198 24.2529V18.2764H11.5815C12.255 18.2764 12.7243 18.307 12.9896 18.3684C13.2549 18.4295 13.4838 18.5323 13.6762 18.6765C13.8934 18.8396 14.0604 19.0479 14.1772 19.301C14.294 19.5542 14.3525 19.8332 14.3525 20.1379C14.3525 20.6006 14.2377 20.9768 14.0082 21.2666C13.7786 21.5565 13.4439 21.749 13.004 21.8444L14.6493 24.2528H12.7896L11.404 21.9136V24.2528H9.86198V24.2529ZM11.4042 21.1014H11.7093C12.0639 21.1014 12.3229 21.0416 12.4865 20.9217C12.6501 20.8021 12.7319 20.6143 12.7319 20.3583C12.7319 20.0588 12.6557 19.8461 12.5031 19.7195C12.3506 19.593 12.0942 19.5296 11.734 19.5296H11.4042V21.1014Z" fill="#CCD0DA"></path>
      <path id="Vector_3" d="M14.5669 24.2527L16.6493 18.2762H18.7111L20.7975 24.2527H19.1604L18.8553 23.1831H16.5173L16.2039 24.2527H14.5669ZM16.8719 22.0197H18.509L17.8946 20.0479C17.8754 19.9881 17.8493 19.8914 17.8163 19.7581C17.7833 19.6249 17.7407 19.4534 17.6885 19.2438C17.6544 19.3842 17.6194 19.5243 17.5834 19.6643C17.5504 19.7927 17.5153 19.9206 17.4782 20.0479L16.8719 22.0197ZM21.3748 24.2527V18.2762H22.9623L25.2426 21.3502C25.2866 21.4128 25.3589 21.5386 25.4591 21.7278C25.5593 21.9169 25.6702 22.1422 25.7911 22.4035C25.7612 22.1837 25.7371 21.9631 25.719 21.742C25.7048 21.571 25.6972 21.3994 25.6963 21.2277V18.2762H27.2756V24.2527H25.6963L23.416 21.1666C23.3692 21.104 23.2955 20.9782 23.1954 20.7889C23.0951 20.5998 22.9858 20.3773 22.8675 20.1215C22.9005 20.3719 22.9245 20.5936 22.9397 20.7869C22.9538 20.958 22.9613 21.1296 22.9623 21.3012V24.2527H21.3748ZM28.8384 22.3218C29.0832 22.5968 29.3242 22.8021 29.5621 22.9383C29.7998 23.0744 30.037 23.1424 30.2735 23.1424C30.4934 23.1424 30.6741 23.0839 30.8157 22.9667C30.9573 22.8498 31.028 22.7014 31.028 22.5218C31.028 22.3232 30.9668 22.1701 30.8446 22.0627C30.7221 21.9551 30.4452 21.8443 30.0136 21.7299C29.4227 21.5722 29.0047 21.3665 28.7601 21.1134C28.5153 20.8603 28.3931 20.5134 28.3931 20.0723C28.3931 19.5008 28.5862 19.0349 28.9726 18.6743C29.3587 18.3137 29.8596 18.1333 30.4755 18.1333C30.8081 18.1333 31.1235 18.1775 31.4218 18.2659C31.7201 18.3544 32.0026 18.4884 32.2692 18.668L31.7537 19.8396C31.5669 19.682 31.375 19.5627 31.1786 19.4824C30.9819 19.4022 30.7874 19.362 30.5951 19.362C30.3972 19.362 30.2363 19.4091 30.1126 19.5029C29.9889 19.5967 29.9271 19.7172 29.9271 19.8641C29.9271 20.0137 29.9813 20.1336 30.09 20.2233C30.1987 20.313 30.4083 20.3989 30.7188 20.4806L30.7929 20.501C31.4637 20.6806 31.905 20.8779 32.1166 21.0929C32.2594 21.24 32.3682 21.4162 32.4424 21.6216C32.5165 21.8271 32.5538 22.0551 32.5538 22.3053C32.5538 22.9397 32.3435 23.4492 31.9227 23.8344C31.5022 24.2193 30.9414 24.4118 30.2405 24.4118C29.8199 24.4118 29.4371 24.3411 29.092 24.1996C28.7469 24.0581 28.4152 23.8363 28.0961 23.5342L28.8384 22.3218ZM33.4773 24.2527V18.2762H37.1761V19.5867H35.0813V20.6235H37.0566V21.9054H35.0813V24.2527H33.4773ZM38.0709 24.2527V18.2762H41.7697V19.5867H39.675V20.6235H41.6503V21.9054H39.675V22.9138H41.7697V24.2526H38.0709V24.2527ZM42.8583 24.2527V18.2762H44.5779C45.2515 18.2762 45.7207 18.3069 45.986 18.3682C46.2513 18.4293 46.4802 18.5321 46.6727 18.6763C46.89 18.8395 47.0567 19.0477 47.1737 19.3008C47.2905 19.554 47.349 19.833 47.349 20.1377C47.349 20.6004 47.2342 20.9767 47.0047 21.2664C46.7751 21.5563 46.4405 21.7488 46.0007 21.8442L47.6458 24.2526H45.7861L44.4006 21.9134V24.2526H42.8583V24.2527ZM44.4006 21.1012H44.7058C45.0604 21.1012 45.3195 21.0414 45.4829 20.9216C45.6464 20.8019 45.7283 20.6141 45.7283 20.3581C45.7283 20.0586 45.652 19.8459 45.4994 19.7193C45.347 19.5928 45.0905 19.5294 44.7305 19.5294H44.4006V21.1012Z" fill="#CCD0DA"></path>
    </g>
    <path id="Vector_4" d="M23.5769 8.55967L24.6727 12.6637C24.7244 12.8485 24.7721 13.0411 24.8157 13.2416C24.8594 13.4421 24.905 13.672 24.9527 13.9315C25.0124 13.6248 25.0629 13.3723 25.1046 13.1737C25.1462 12.9752 25.187 12.8051 25.2267 12.6637L26.2511 8.55967H28.6516L26.1856 17.1924H23.982L22.9039 13.5069C22.864 13.3771 22.7986 13.1236 22.7073 12.7463C22.6675 12.5774 22.6358 12.4455 22.6121 12.3512C22.5922 12.4338 22.5644 12.5498 22.5287 12.6991C22.4374 13.0804 22.3679 13.3498 22.3203 13.5069L21.26 17.1924H19.0503L16.5903 8.55967H18.9906L19.9913 12.6873C20.0389 12.8996 20.0856 13.1119 20.1312 13.3241C20.1768 13.5364 20.2196 13.7546 20.2593 13.9786C20.2968 13.8054 20.3355 13.6324 20.3755 13.4597C20.4358 13.2017 20.4984 12.9441 20.5631 12.6872L21.6591 8.55957H23.5769V8.55967ZM29.533 17.1924V8.55967H31.9335V17.1924H29.533ZM33.8513 17.1924V8.55967H36.335C37.3077 8.55967 37.9858 8.60381 38.369 8.6923C38.7522 8.78068 39.0827 8.92919 39.3607 9.13743C39.6744 9.37332 39.9156 9.67407 40.0844 10.0397C40.2532 10.4053 40.3375 10.8083 40.3375 11.2485C40.3375 11.9168 40.1717 12.4602 39.8402 12.8789C39.5086 13.2976 39.0253 13.5756 38.39 13.7133L40.7665 17.1924H38.0802L36.079 13.8136V17.1925H33.8513V17.1924ZM36.079 12.6402H36.5197C37.0319 12.6402 37.4061 12.5537 37.6425 12.3808C37.8787 12.2078 37.9968 11.9365 37.9968 11.567C37.9968 11.1347 37.8867 10.827 37.6662 10.6442C37.4458 10.4615 37.0756 10.37 36.5553 10.37H36.079V12.6402ZM41.6718 17.1924V8.55967H47.0145V10.4525H43.9888V11.9503H46.8418V13.8019H43.9888V15.2583H47.0145V17.1924H41.6718Z" fill="#B4B8C4"></path>
    <path id="Vector_5" d="M4.7793 8.49658H15.6585V10.2059H4.7793V8.49658Z" fill="url(#paint0_linear_725_974)"></path>
    <path id="Vector_6" d="M4.7793 11.8149H15.6585V13.5243H4.7793V11.8149Z" fill="url(#paint1_linear_725_974)"></path>
    <path id="Vector_7" d="M4.7793 15.4346H15.6585V17.1439H4.7793V15.4346Z" fill="url(#paint2_linear_725_974)"></path>
  </g>
  <defs>
    <linearGradient id="paint0_linear_725_974" x1="4.7793" y1="9.35126" x2="15.6585" y2="9.35126" gradientUnits="userSpaceOnUse">
      <stop stop-color="#DDDDDD" stop-opacity="0"></stop>
      <stop offset="0.736" stop-color="#D5D5D5"></stop>
      <stop offset="1" stop-color="#707070"></stop>
    </linearGradient>
    <linearGradient id="paint1_linear_725_974" x1="4.7793" y1="12.6696" x2="15.6585" y2="12.6696" gradientUnits="userSpaceOnUse">
      <stop stop-color="#DDDDDD" stop-opacity="0"></stop>
      <stop offset="0.736" stop-color="#D5D5D5"></stop>
      <stop offset="1" stop-color="#707070"></stop>
    </linearGradient>
    <linearGradient id="paint2_linear_725_974" x1="4.7793" y1="16.2892" x2="15.6585" y2="16.2892" gradientUnits="userSpaceOnUse">
      <stop stop-color="#DDDDDD" stop-opacity="0"></stop>
      <stop offset="0.736" stop-color="#D5D5D5"></stop>
      <stop offset="1" stop-color="#707070"></stop>
    </linearGradient>
    <clipPath id="clip0_725_974">
      <rect width="52" height="32" fill="white" transform="translate(0 0.378906)"></rect>
    </clipPath>
  </defs>
</svg>
