<?xml version="1.0" encoding="UTF-8"?>
<svg xmlns="http://www.w3.org/2000/svg" width="26" height="27" viewBox="0 0 26 27" fill="none">
  <g id="entypo-social:youtube-with-circle" clip-path="url(#clip0_725_910)">
    <path id="Vector" d="M15.0844 13.1618L12.1646 11.7994C11.9098 11.6811 11.7005 11.8137 11.7005 12.0958V14.662C11.7005 14.9441 11.9098 15.0767 12.1646 14.9584L15.0831 13.596C15.3392 13.4764 15.3392 13.2814 15.0844 13.1618ZM13.0005 0.898926C6.10791 0.898926 0.520508 6.48633 0.520508 13.3789C0.520508 20.2715 6.10791 25.8589 13.0005 25.8589C19.8931 25.8589 25.4805 20.2715 25.4805 13.3789C25.4805 6.48633 19.8931 0.898926 13.0005 0.898926ZM13.0005 18.4489C6.61231 18.4489 6.50051 17.873 6.50051 13.3789C6.50051 8.88483 6.61231 8.30892 13.0005 8.30892C19.3887 8.30892 19.5005 8.88483 19.5005 13.3789C19.5005 17.873 19.3887 18.4489 13.0005 18.4489Z" fill="#FFE39B"></path>
  </g>
  <defs>
    <clipPath id="clip0_725_910">
      <rect width="26" height="26" fill="white" transform="translate(0 0.378906)"></rect>
    </clipPath>
  </defs>
</svg>
