<?xml version="1.0" encoding="UTF-8"?>
<svg xmlns="http://www.w3.org/2000/svg" width="325" height="148" viewBox="0 0 325 148" fill="none">
  <path d="M133.782 69.9615C137.831 65.9806 142.158 65.3565 146.763 68.089C149.184 69.539 149.789 72.85 149.812 75.83C149.857 81.3179 149.85 86.665 149.789 91.8713C149.789 92.1377 149.656 92.2709 149.389 92.2709L144.012 92.2481C143.646 92.2481 143.464 92.0654 143.464 91.7V76.3894C143.461 75.7553 143.324 75.1289 143.06 74.5525C142.796 73.976 142.412 73.4629 141.934 73.0475C141.456 72.6322 140.895 72.3242 140.288 72.1444C139.681 71.9646 139.044 71.9171 138.417 72.0052L137.241 72.165C136.139 72.3209 135.129 72.8666 134.395 73.7027C133.662 74.5388 133.254 75.6097 133.245 76.7205L133.154 91.9969C133.154 92.172 133.062 92.2595 132.88 92.2595L126.908 92.2709C126.836 92.2709 126.766 92.242 126.715 92.1907C126.663 92.1393 126.634 92.0696 126.634 91.9969L126.623 58.3044C126.623 57.939 126.81 57.7563 127.183 57.7563L132.64 57.7906C133.005 57.7906 133.188 57.9733 133.188 58.3386V69.7103C133.188 70.2659 133.386 70.3497 133.782 69.9615Z" fill="#0C0C0E"></path>
  <path d="M257.672 57.7793H252.123C251.852 57.7793 251.632 57.9991 251.632 58.2702V63.1112C251.632 63.3823 251.852 63.6021 252.123 63.6021H257.672C257.943 63.6021 258.163 63.3823 258.163 63.1112V58.2702C258.163 57.9991 257.943 57.7793 257.672 57.7793Z" fill="#0C0C0E"></path>
  <path d="M102.75 81.0705L102.705 91.9626C102.705 92.1833 102.594 92.2937 102.374 92.2937L95.7516 92.2595C95.6699 92.2595 95.5915 92.227 95.5337 92.1692C95.4758 92.1114 95.4434 92.033 95.4434 91.9512V59.0579C95.4434 58.5708 95.6869 58.3272 96.1741 58.3272C99.3557 58.2891 102.541 58.2815 105.73 58.3043C113.78 58.3614 121.349 57.9276 123.302 66.5477C124.078 69.9424 123.629 72.9261 121.954 75.4988C117.97 81.6299 109.841 80.3169 103.458 80.3626C102.986 80.3702 102.75 80.6062 102.75 81.0705ZM102.75 64.4469L102.716 74.2658C102.716 74.3849 102.763 74.4994 102.846 74.5847C102.929 74.67 103.042 74.7195 103.161 74.7225L110.743 74.7453C111.48 74.7486 112.212 74.6307 112.895 74.3983C113.577 74.166 114.198 73.8237 114.722 73.3912C115.246 72.9586 115.662 72.4441 115.947 71.8772C116.232 71.3102 116.38 70.7019 116.383 70.087V68.7169C116.388 67.4758 115.802 66.2831 114.753 65.401C113.704 64.5189 112.278 64.0196 110.788 64.013L103.207 63.9902C103.086 63.9902 102.97 64.0383 102.884 64.1239C102.799 64.2096 102.75 64.3257 102.75 64.4469Z" fill="#0C0C0E"></path>
  <path d="M182.979 66.7873L183.048 60.3137C183.048 60.0854 183.166 59.9712 183.402 59.9712L189.407 60.0054C189.49 60.0054 189.57 60.0375 189.629 60.095C189.689 60.1525 189.724 60.2309 189.727 60.3137L189.773 66.5476C189.78 67.0347 190.028 67.2745 190.515 67.2669L194.111 67.2212C194.728 67.2136 195.04 67.5219 195.047 68.146L195.082 70.5436C195.089 71.2667 194.732 71.6245 194.008 71.6169L190.355 71.594C189.936 71.5864 189.731 71.7881 189.738 72.1991L189.773 86.0826C189.772 86.3171 189.862 86.5428 190.024 86.7128C190.185 86.8829 190.406 86.9843 190.64 86.996L194.591 87.2015C194.758 87.2167 194.842 87.3043 194.842 87.4641V92.0424C194.842 92.2784 194.724 92.3964 194.488 92.3964L186.576 92.1909C185.637 92.1671 184.744 91.7781 184.087 91.1065C183.431 90.4349 183.062 89.5337 183.059 88.5944L183.002 72.1306C183.002 71.7272 182.8 71.5331 182.397 71.5484L179.908 71.6511C179.307 71.6739 179.014 71.3847 179.029 70.7834L179.097 67.9747C179.113 67.3734 179.421 67.0994 180.022 67.1527L182.363 67.3468C182.766 67.3772 182.972 67.1907 182.979 66.7873Z" fill="#0C0C0E"></path>
  <path d="M178.443 81.2744C178.427 82.8156 178.108 84.3386 177.503 85.7564C176.898 87.1741 176.02 88.4589 174.919 89.5373C173.818 90.6157 172.515 91.4666 171.085 92.0415C169.655 92.6164 168.125 92.904 166.584 92.8879L164.232 92.8632C161.12 92.8306 158.147 91.5628 155.969 89.3388C153.791 87.1147 152.586 84.1166 152.619 81.0039L152.647 78.2867C152.663 76.7455 152.983 75.2225 153.588 73.8048C154.192 72.387 155.07 71.1023 156.172 70.0238C157.273 68.9454 158.576 68.0945 160.006 67.5196C161.436 66.9447 162.965 66.6571 164.507 66.6733L166.858 66.6979C169.971 66.7305 172.943 67.9983 175.121 70.2224C177.299 72.4464 178.504 75.4445 178.472 78.5572L178.443 81.2744ZM171.326 77.0682C171.316 75.6268 170.734 74.2486 169.708 73.2365C168.682 72.2245 167.295 71.6616 165.854 71.6716L165.032 71.6773C163.591 71.6874 162.212 72.2696 161.2 73.2959C160.188 74.3222 159.625 75.7085 159.635 77.1498L159.673 82.493C159.683 83.9343 160.265 85.3126 161.291 86.3246C162.318 87.3366 163.704 87.8995 165.145 87.8895L165.967 87.8838C167.409 87.8737 168.787 87.2915 169.799 86.2652C170.811 85.2389 171.374 83.8526 171.364 82.4113L171.326 77.0682Z" fill="#0C0C0E"></path>
  <path d="M222.009 81.1168C222.014 82.6581 221.716 84.1854 221.131 85.6115C220.546 87.0375 219.686 88.3344 218.6 89.4281C217.514 90.5218 216.223 91.3908 214.801 91.9857C213.379 92.5805 211.854 92.8894 210.313 92.8948L207.984 92.9029C206.442 92.9083 204.915 92.61 203.489 92.0251C202.063 91.4403 200.766 90.5802 199.673 89.4942C198.579 88.4081 197.71 87.1172 197.115 85.6953C196.52 84.2734 196.211 82.7482 196.206 81.2069L196.196 78.4668C196.191 76.9255 196.489 75.3982 197.074 73.9722C197.659 72.5461 198.519 71.2492 199.605 70.1555C200.691 69.0618 201.982 68.1928 203.404 67.598C204.826 67.0032 206.351 66.6942 207.892 66.6888L210.221 66.6807C211.763 66.6754 213.29 66.9736 214.716 67.5585C216.142 68.1434 217.439 69.0034 218.533 70.0895C219.626 71.1755 220.495 72.4664 221.09 73.8883C221.685 75.3103 221.994 76.8354 221.999 78.3767L222.009 81.1168ZM214.914 77.1087C214.914 75.6674 214.341 74.2851 213.322 73.2659C212.303 72.2467 210.921 71.6741 209.479 71.6741H208.657C207.216 71.6741 205.834 72.2467 204.814 73.2659C203.795 74.2851 203.223 75.6674 203.223 77.1087V82.4521C203.223 83.8934 203.795 85.2757 204.814 86.2949C205.834 87.3141 207.216 87.8867 208.657 87.8867H209.479C210.921 87.8867 212.303 87.3141 213.322 86.2949C214.341 85.2757 214.914 83.8934 214.914 82.4521V77.1087Z" fill="#0C0C0E"></path>
  <path d="M231.594 70.0299C234.174 67.3278 237.287 66.2165 240.933 66.6961C247.293 67.5409 248.149 71.9252 248.194 77.8051C248.225 82.6156 248.221 87.331 248.183 91.9512C248.183 92.1719 248.077 92.2785 247.863 92.2709L241.904 92.248C241.713 92.248 241.618 92.1529 241.618 91.9626L241.607 75.4417C241.605 74.9405 241.496 74.4455 241.287 73.9898C241.078 73.5341 240.775 73.1283 240.396 72.7996C240.018 72.471 239.573 72.227 239.093 72.084C238.613 71.9411 238.107 71.9025 237.611 71.9709L236.286 72.1535C232.998 72.6102 231.354 74.5017 231.354 77.8279L231.343 91.7114C231.343 92.0768 231.156 92.2594 230.783 92.2594L225.097 92.248C224.922 92.248 224.835 92.1643 224.835 91.9968L224.823 68.0433C224.823 67.5105 225.093 67.2441 225.634 67.2441L230.304 67.2555C230.859 67.2631 231.11 67.5409 231.057 68.089L230.897 69.7102C230.891 69.7951 230.911 69.8804 230.954 69.9542C230.997 70.028 231.062 70.0866 231.138 70.1218C231.215 70.157 231.3 70.167 231.382 70.1506C231.463 70.1341 231.538 70.0919 231.594 70.0299Z" fill="#0C0C0E"></path>
  <path d="M268.381 83.514C270.333 89.5766 276.556 89.6108 279.102 83.7652C279.254 83.4151 279.517 83.2552 279.89 83.2856L285.267 83.7652C285.64 83.8032 285.785 84.0049 285.701 84.3703C283.897 91.7916 276.053 94.3148 269.386 92.3738C263.22 90.5699 259.761 83.7423 260.937 77.6797C262.611 69.0254 267.886 65.4328 276.761 66.9018C280.925 67.5868 283.771 69.8589 285.301 73.7179C285.537 74.3116 285.343 74.6732 284.719 74.8026L279.935 75.7616C279.304 75.8834 278.912 75.636 278.759 75.0195C277.994 71.9254 273.382 70.7951 271.018 72.1994C267.468 74.3116 267.262 80.0203 268.381 83.514Z" fill="#0C0C0E"></path>
  <path d="M257.66 67.2441H252.134C251.857 67.2441 251.632 67.469 251.632 67.7465V91.7685C251.632 92.046 251.857 92.2709 252.134 92.2709H257.66C257.938 92.2709 258.163 92.046 258.163 91.7685V67.7465C258.163 67.469 257.938 67.2441 257.66 67.2441Z" fill="#0C0C0E"></path>
  <path fill-rule="evenodd" clip-rule="evenodd" d="M62.7437 54H48.6319C47.4338 54 46.4626 54.9712 46.4626 56.1693V59.2291C46.4626 60.4272 47.4338 61.3984 48.6319 61.3984H62.7437C63.9418 61.3984 64.913 60.4272 64.913 59.2291V56.1693C64.913 54.9712 63.9418 54 62.7437 54ZM44.5559 61.3984H41.1992C40.1398 61.3984 39.2811 62.2572 39.2811 63.3165V77.5197C39.2811 78.579 40.1398 79.4378 41.1992 79.4378H44.5559C45.6152 79.4378 46.474 78.579 46.474 77.5197V63.3165C46.474 62.2572 45.6152 61.3984 44.5559 61.3984ZM66.7514 61.3984H70.2451C71.2603 61.3984 72.0833 62.2214 72.0833 63.2366V77.5996C72.0833 78.6148 71.2603 79.4378 70.2451 79.4378H66.7514C65.7362 79.4378 64.9132 78.6148 64.9132 77.5996V63.2366C64.9132 62.2214 65.7362 61.3984 66.7514 61.3984ZM62.7949 79.4484L48.5918 79.4731C47.419 79.4752 46.4699 80.4276 46.4719 81.6005L46.4772 84.6146C46.4792 85.7875 47.4316 86.7366 48.6045 86.7345L62.8076 86.7098C63.9805 86.7077 64.9296 85.7553 64.9275 84.5824L64.9223 81.5683C64.9202 80.3954 63.9678 79.4463 62.7949 79.4484ZM41.2648 86.7388L44.4386 86.7056C45.5483 86.6939 46.4574 87.5841 46.469 88.6939L46.503 91.9362C46.5146 93.0459 45.6244 93.955 44.5147 93.9666L41.3408 93.9998C40.2311 94.0114 39.3221 93.1213 39.3104 92.0115L39.2765 88.7692C39.2649 87.6595 40.155 86.7504 41.2648 86.7388Z" fill="#0C0C0E"></path>
</svg>
