<?xml version="1.0" encoding="UTF-8"?>
<svg xmlns="http://www.w3.org/2000/svg" width="39" height="38" viewBox="0 0 39 38" fill="none">
  <path d="M32.3125 5.9375H6.1875C5.55761 5.9375 4.95352 6.18772 4.50812 6.63312C4.06272 7.07852 3.8125 7.68261 3.8125 8.3125V29.6875C3.8125 30.3174 4.06272 30.9215 4.50812 31.3669C4.95352 31.8123 5.55761 32.0625 6.1875 32.0625H32.3125C32.9424 32.0625 33.5465 31.8123 33.9919 31.3669C34.4373 30.9215 34.6875 30.3174 34.6875 29.6875V8.3125C34.6875 7.68261 34.4373 7.07852 33.9919 6.63312C33.5465 6.18772 32.9424 5.9375 32.3125 5.9375ZM14.025 21.6125C14.277 21.8015 14.4435 22.0828 14.4881 22.3946C14.5326 22.7063 14.4515 23.023 14.2625 23.275C14.0735 23.527 13.7922 23.6935 13.4804 23.7381C13.1687 23.7826 12.852 23.7015 12.6 23.5125L7.85 19.95C7.70252 19.8394 7.58281 19.696 7.50037 19.5311C7.41792 19.3662 7.375 19.1844 7.375 19C7.375 18.8156 7.41792 18.6338 7.50037 18.4689C7.58281 18.304 7.70252 18.1606 7.85 18.05L12.6 14.4875C12.852 14.2985 13.1687 14.2174 13.4804 14.2619C13.7922 14.3065 14.0735 14.473 14.2625 14.725C14.4515 14.977 14.5326 15.2937 14.4881 15.6054C14.4435 15.9172 14.277 16.1985 14.025 16.3875L10.5412 19L14.025 21.6125ZM22.7665 11.0141L18.0165 27.6391C17.976 27.7917 17.9055 27.9347 17.8091 28.0597C17.7127 28.1847 17.5923 28.2892 17.455 28.3672C17.3177 28.4452 17.1663 28.495 17.0095 28.5137C16.8528 28.5324 16.6939 28.5197 16.5421 28.4763C16.3903 28.4328 16.2487 28.3596 16.1255 28.2608C16.0024 28.162 15.9002 28.0396 15.8249 27.9008C15.7496 27.7621 15.7028 27.6097 15.6871 27.4526C15.6714 27.2955 15.6872 27.1369 15.7335 26.9859L20.4835 10.3609C20.5748 10.0637 20.7791 9.81408 21.0524 9.66578C21.3257 9.51749 21.6463 9.48233 21.9453 9.56787C22.2443 9.6534 22.4978 9.8528 22.6513 10.1232C22.8049 10.3936 22.8462 10.7135 22.7665 11.0141ZM30.65 19.95L25.9 23.5125C25.648 23.7015 25.3313 23.7826 25.0196 23.7381C24.7078 23.6935 24.4265 23.527 24.2375 23.275C24.0485 23.023 23.9674 22.7063 24.0119 22.3946C24.0565 22.0828 24.223 21.8015 24.475 21.6125L27.9588 19L24.475 16.3875C24.3502 16.2939 24.2451 16.1767 24.1657 16.0425C24.0862 15.9083 24.034 15.7598 24.0119 15.6054C23.9899 15.4511 23.9984 15.2939 24.0372 15.1428C24.0759 14.9917 24.1439 14.8498 24.2375 14.725C24.3311 14.6002 24.4483 14.4951 24.5825 14.4157C24.7167 14.3362 24.8652 14.284 25.0196 14.2619C25.1739 14.2399 25.3311 14.2485 25.4822 14.2872C25.6333 14.3259 25.7752 14.3939 25.9 14.4875L30.65 18.05C30.7975 18.1606 30.9172 18.304 30.9996 18.4689C31.0821 18.6338 31.125 18.8156 31.125 19C31.125 19.1844 31.0821 19.3662 30.9996 19.5311C30.9172 19.696 30.7975 19.8394 30.65 19.95Z" fill="white"></path>
</svg>
