<?xml version="1.0" encoding="UTF-8"?>
<svg xmlns="http://www.w3.org/2000/svg" width="39" height="38" viewBox="0 0 39 38" fill="none">
  <path d="M24.0202 1.8069L15.1777 0.411703C7.80573 -0.738392 4.39316 1.75034 3.22421 9.12226L1.82901 17.9648C1.07485 22.7914 1.86672 25.9212 4.60055 27.8254C6.03346 28.8435 7.99428 29.5223 10.5396 29.9182L19.3821 31.3134C26.754 32.4635 30.1666 29.9748 31.3355 22.6029L32.7119 13.7603C32.9381 12.3086 33.0324 11.0077 32.957 9.85756C32.7119 5.14406 29.9403 2.73075 24.0202 1.8069ZM13.3677 14.0054C11.1617 14.0054 9.37062 12.2143 9.37062 10.0272C9.37062 7.82133 11.1617 6.0302 13.3677 6.0302C15.5547 6.0302 17.3459 7.82133 17.3459 10.0272C17.3459 12.2143 15.5547 14.0054 13.3677 14.0054Z" fill="white"></path>
  <path d="M36.4839 21.7732L33.6558 30.2763C31.299 37.3654 27.5282 39.2508 20.4391 36.8941L11.936 34.066C9.27756 33.1799 7.35445 32.0863 6.11009 30.71C7.29789 31.1813 8.67423 31.5396 10.2391 31.7847L19.1005 33.1799C20.3072 33.3684 21.4384 33.4627 22.4942 33.4627C28.716 33.4627 32.0532 30.1067 33.2033 22.8856L34.5796 14.043C34.7682 12.9495 34.8436 11.988 34.8436 11.1018C37.7094 13.4586 38.1242 16.8146 36.4839 21.7732Z" fill="white"></path>
</svg>
