<?xml version="1.0" encoding="UTF-8"?>
<svg xmlns="http://www.w3.org/2000/svg" width="213" height="196" viewBox="0 0 213 196" fill="none">
  <ellipse cx="106" cy="97.5" rx="87" ry="86.5" fill="#F591C5"></ellipse>
  <path d="M98.733 100.821C98.733 100.873 98.707 100.873 98.707 100.873L99.4343 100.77L98.733 100.821Z" fill="black"></path>
  <path d="M46.2611 109.914L48.2092 110.944C49.8717 111.82 51.664 112.129 53.5602 111.871C54.5213 111.743 55.3785 111.536 56.0539 111.253C57.7683 110.558 59.3008 109.63 60.6515 108.523C62.0023 107.389 63.1712 106.101 64.1323 104.659C65.0934 103.216 65.8467 101.645 66.3662 99.9191C66.8857 98.219 67.1195 96.4417 67.0675 94.6643C67.0416 93.0673 66.6519 91.5475 65.8986 90.1307C65.1453 88.7397 64.0803 87.5548 62.7296 86.6275C61.3789 85.829 59.8723 85.3396 58.2878 85.2108C56.7033 85.082 55.1447 85.3138 53.6641 85.9063C51.7159 86.6275 50.0275 87.6836 48.6768 89.0746L46.9105 90.852L46.3909 88.4049C46.287 87.9155 46.0792 87.5806 45.7675 87.2715C45.5337 87.0654 45.274 86.9366 44.9363 86.9109C44.8584 86.9109 44.7805 86.8851 44.6765 86.8851C44.1051 86.8593 43.6895 87.0139 43.3258 87.3745C42.9622 87.7352 42.7803 88.1215 42.7803 88.6367C42.5985 101.362 42.4946 112.026 42.4426 120.294C42.4167 128.486 42.4426 134.72 42.5725 138.841C42.5725 139.382 42.7544 139.794 43.118 140.155C43.4817 140.49 43.8973 140.67 44.3908 140.67L44.6246 140.644C45.1181 140.567 45.4818 140.386 45.7935 140C46.1052 139.614 46.2611 139.202 46.2611 138.686C46.1831 136.085 46.1312 132.53 46.1052 128.151C46.0792 123.746 46.1312 118.337 46.2091 112.077L46.2611 109.914ZM46.365 102.16C46.365 99.404 47.1442 96.8538 48.6508 94.5613C50.1574 92.2687 52.2355 90.5171 54.833 89.3837C55.7162 88.9201 56.7292 88.714 57.7942 88.7397C58.8852 88.7655 59.8983 89.1004 60.7814 89.6928C61.6386 90.2853 62.314 91.0581 62.8075 92.0111C63.3011 92.9642 63.4829 93.9946 63.353 95.0765C63.353 97.7811 62.5737 100.331 61.0672 102.624C59.5606 104.942 57.4565 106.694 54.859 107.776C54.2875 108.059 53.6381 108.265 52.9628 108.368C52.6251 108.42 52.2614 108.42 51.9237 108.42C51.7419 108.42 51.5601 108.394 51.3783 108.368C50.4951 108.265 49.6898 107.956 48.9365 107.441C48.0794 106.848 47.404 106.076 46.9105 105.122C46.4169 104.195 46.2351 103.191 46.365 102.16Z" fill="black"></path>
  <path d="M89.6927 141.906C90.5759 140.412 91.6669 139.047 92.9657 137.862C94.758 136.651 96.5763 135.492 98.4465 134.41C100.291 133.329 102.239 132.324 104.187 131.371C105.356 130.701 106.317 129.774 107.07 128.64C107.824 127.507 108.265 126.245 108.421 124.905C108.577 123.566 108.421 122.226 107.98 120.964C107.538 119.702 106.811 118.569 105.824 117.641L105.434 117.255H105.46C104.629 116.534 103.694 115.993 102.681 115.658C101.486 115.246 100.239 115.091 98.9401 115.22L93.2254 115.709C92.1604 115.812 91.1474 116.07 90.2123 116.534C89.2771 116.997 88.4459 117.59 87.7186 118.311C87.0173 119.032 86.4198 119.882 86.0042 120.835C85.5626 121.763 85.3029 122.793 85.2249 123.849L84.8872 128.692C84.8613 129.233 85.0171 129.671 85.3548 130.083C85.6925 130.469 86.1081 130.675 86.6536 130.675C87.1991 130.727 87.6666 130.572 88.0563 130.237C88.4459 129.877 88.6797 129.465 88.7316 128.924L88.9914 124.107C89.0693 122.87 89.5369 121.814 90.3941 120.964C91.2513 120.088 92.2903 119.599 93.5112 119.496L99.2258 119.007C99.6154 118.981 99.9791 118.981 100.343 119.032C101.382 119.161 102.317 119.625 103.122 120.398C104.213 121.479 104.733 122.767 104.629 124.21C104.551 125.91 103.772 127.224 102.317 128.074C98.1608 130.083 94.1605 132.427 90.4201 135.054C88.4459 136.858 86.8354 139.021 85.6665 141.391C84.4976 143.787 83.7963 146.363 83.5625 149.042C83.5625 149.66 83.7443 150.149 84.1599 150.51C84.5755 150.922 85.0691 151.102 85.6665 151.051L105.226 149.376C105.772 149.325 106.187 149.119 106.525 148.707C106.863 148.295 107.018 147.857 106.967 147.316C106.915 146.775 106.707 146.363 106.291 146.028C105.876 145.693 105.408 145.538 104.888 145.59L87.7446 147.058L87.8225 146.723C88.1862 145.023 88.8096 143.4 89.6927 141.906Z" fill="black"></path>
  <path d="M139.254 125.755C140.007 124.519 140.449 123.154 140.553 121.711C140.605 120.449 140.423 119.213 139.981 118.028C139.54 116.869 138.838 115.812 137.903 114.885C136.994 114.009 135.955 113.34 134.76 112.927C133.565 112.49 132.319 112.335 131.02 112.464L125.305 112.953C124.24 113.056 123.227 113.314 122.266 113.778C121.305 114.241 120.474 114.834 119.746 115.555C119.045 116.276 118.448 117.126 118.032 118.079C117.59 119.032 117.331 120.037 117.253 121.093L116.993 125.962C116.941 126.502 117.097 126.966 117.435 127.353C117.772 127.739 118.214 127.945 118.759 127.971C119.305 127.996 119.772 127.842 120.162 127.507C120.552 127.172 120.759 126.76 120.759 126.219L121.097 121.376C121.175 120.166 121.643 119.084 122.5 118.234C123.357 117.358 124.396 116.869 125.617 116.766L131.331 116.276C132.5 116.225 133.539 116.508 134.449 117.126C135.358 117.744 136.007 118.594 136.397 119.625C136.786 120.707 136.786 121.789 136.397 122.87C136.007 123.927 135.332 124.777 134.423 125.369C133.877 125.627 133.254 125.936 132.604 126.271C131.487 126.837 130.137 127.533 128.578 128.409C128.162 128.64 127.877 128.95 127.721 129.362C127.565 129.774 127.565 130.212 127.695 130.624C127.825 131.062 128.085 131.371 128.448 131.629C128.812 131.886 129.201 131.989 129.643 131.938L130.812 131.835C132.319 131.706 133.643 132.169 134.708 133.226C135.228 133.689 135.617 134.256 135.903 134.926C136.163 135.595 136.267 136.291 136.215 136.986L136.163 138.686C136.085 139.923 135.617 140.979 134.76 141.855C133.903 142.731 132.864 143.22 131.643 143.375L124.967 143.993C124.006 144.07 123.097 143.967 122.214 143.684C121.331 143.4 120.552 142.911 119.876 142.241C119.201 141.597 118.681 140.85 118.344 140C118.006 139.15 117.876 138.249 117.928 137.295C117.954 136.78 117.772 136.317 117.435 135.956C117.097 135.595 116.707 135.389 116.188 135.338C116.162 135.338 116.136 135.338 116.084 135.338C115.564 135.312 115.097 135.467 114.707 135.801C114.317 136.136 114.11 136.548 114.058 137.089C113.98 138.558 114.214 140 114.707 141.391C115.227 142.756 116.032 143.967 117.123 144.972C118.214 146.002 119.461 146.801 120.837 147.29C122.214 147.779 123.669 147.985 125.175 147.857H125.279L131.929 147.238C133.02 147.11 134.033 146.801 134.994 146.337C135.929 145.873 136.76 145.255 137.488 144.534C138.189 143.812 138.786 142.962 139.202 142.035C139.644 141.108 139.877 140.077 139.929 139.021L140.007 137.321C140.111 135.698 139.774 134.179 139.02 132.788C138.267 131.397 137.176 130.263 135.799 129.413L135.436 129.181L136.189 128.795C137.488 127.996 138.501 126.992 139.254 125.755Z" fill="black"></path>
  <path d="M194.245 111.201C194.245 110.428 193.621 109.81 192.842 109.81C192.089 109.81 191.465 110.403 191.439 111.124C190.582 116.456 189.232 121.711 187.361 126.863C183.439 137.63 177.491 147.29 169.724 155.61C165.957 159.628 161.853 163.26 157.437 166.454L157.385 166.403C152.996 169.571 148.268 172.327 143.281 174.671C132.838 179.514 121.747 182.193 110.318 182.631C99.278 183.043 88.3942 181.369 77.952 177.608C67.5098 173.873 58.0547 168.257 49.8464 160.916C41.3524 153.343 34.5468 144.224 29.6634 133.869C24.7799 123.514 22.0785 112.515 21.6369 101.181C21.3771 94.6382 21.8967 88.1469 23.1695 81.7587C24.0267 77.5085 25.1956 73.3098 26.7021 69.1626C30.6245 58.3953 36.5729 48.7357 44.3396 40.4156C51.8465 32.3788 60.7562 25.939 70.8087 21.2767C80.8613 16.6143 91.5632 13.9354 102.577 13.3687C114.006 12.7762 125.28 14.4505 136.137 18.3401C146.995 22.2297 156.736 28.1286 165.126 35.8305C170.321 40.5959 174.841 45.928 178.659 51.7753C178.711 51.9556 185.491 61.0485 186.244 70.5536C187.179 82.3254 176.218 89.9501 164.061 94.0457C163.568 94.1745 163.074 94.2776 162.607 94.3806C157.931 95.3337 153.151 95.3852 148.372 94.5352C146.683 94.2003 145.125 93.5563 143.696 92.6032C142.475 91.8047 141.436 90.7744 140.605 89.5894C140.527 89.4606 139.358 87.3999 139.618 85.468C139.774 84.3346 140.138 83.3558 140.709 82.5057C141.488 81.0117 142.553 79.7238 143.878 78.7192C145.203 77.7146 146.709 76.9933 148.32 76.5812L148.45 76.5554C148.943 76.4781 149.411 76.4524 149.853 76.4009C150.346 76.3751 150.866 76.3751 151.385 76.4266L154.45 76.7615L146.242 83.7679C145.67 84.2831 145.463 84.824 145.593 85.4938C145.748 86.1893 146.138 86.6014 146.813 86.859C147.541 87.1423 148.06 87.0393 148.632 86.5241L158.373 78.2297C158.814 77.8434 158.996 77.4055 158.996 76.813C158.97 76.2205 158.762 75.8084 158.269 75.4478C156.736 74.2371 155.022 73.4386 153.151 73.0007C151.307 72.5885 149.437 72.5885 147.593 73.0522C145.411 73.5931 143.411 74.5462 141.618 75.8857C139.852 77.2251 138.397 78.8737 137.358 80.8314C136.501 82.2997 136.033 83.871 135.93 85.4938C135.852 86.9105 136.059 88.3015 136.527 89.5894L136.631 89.847L136.553 91.4183C136.449 92.7578 136.033 93.9427 135.254 94.9731C134.501 96.0034 133.488 96.7762 132.267 97.2656C131.098 97.755 129.851 97.9096 128.553 97.7035C127.228 97.4974 126.085 96.9307 125.124 96.0292C124.267 95.3079 123.643 94.3549 123.253 93.1442L123.072 92.526L123.435 91.985C126.448 87.709 128.553 82.8664 129.695 77.5858C129.799 77.1479 129.695 76.7357 129.41 76.2978C129.124 75.8599 128.76 75.6023 128.319 75.5251C127.851 75.422 127.436 75.5251 126.994 75.7826C126.526 76.066 126.267 76.4266 126.137 76.8903C125.202 80.8829 123.643 84.7983 121.461 88.5076L118.942 92.1138C118.136 93.1442 117.305 94.123 116.396 95.0246C115.513 95.9261 114.526 96.802 113.487 97.6262L111.305 99.3779V96.5959C111.305 93.3245 111.305 89.4349 111.331 84.8756C111.331 83.8967 111.383 81.836 111.435 79.2086C111.59 71.1975 111.98 52.445 111.253 51.0798C110.707 50.4358 110.292 50.4873 110.084 50.4873C109.954 50.5131 109.798 50.4873 109.642 50.4616L109.201 50.5131C109.097 50.5646 108.915 50.6677 108.655 50.8737L108.343 51.054C108.032 51.3374 107.902 51.6722 107.876 52.1359C107.85 54.7633 107.824 57.2619 107.772 59.6318L107.616 74.0053C107.59 78.8995 107.59 83.2785 107.59 87.1423V87.3227L107.538 87.503C107.512 87.606 107.486 87.6833 107.486 87.7606L107.434 87.9924L107.382 88.0954C106.577 90.0274 105.278 91.5986 103.538 92.7063C101.798 93.8397 99.8754 94.3806 97.8234 94.3291L96.2908 94.3033L96.4986 92.8093C96.5506 92.4744 96.5765 92.1396 96.5765 91.8047C96.5765 91.4183 96.5765 91.032 96.5765 90.594C96.6025 88.9712 96.2389 87.4515 95.4856 86.0862C94.7323 84.6952 93.6413 83.5103 92.2386 82.583C91.0437 81.7845 89.719 81.2951 88.2903 81.1405C88.1345 81.1147 88.0046 81.1147 87.8487 81.089C86.2382 80.9602 84.6797 81.2178 83.2251 81.8618C81.5626 82.5572 80.0041 83.4846 78.6534 84.5922C77.2766 85.7256 76.1077 87.0393 75.1466 88.456C74.1856 89.8986 73.4323 91.4698 72.9128 93.1957C72.3932 94.8958 72.1595 96.6732 72.2114 98.4505C72.2374 100.048 72.627 101.567 73.3803 102.984C74.1336 104.375 75.1726 105.586 76.4714 106.513C78.5235 107.801 80.6535 108.265 82.9393 107.853C83.9524 107.724 84.8356 107.492 85.5889 107.209C87.6409 106.384 89.4592 105.199 90.9918 103.757C92.5503 102.289 93.7971 100.589 94.7063 98.6824L95.018 98.0384L95.7453 97.9354C95.8492 97.9096 96.1349 97.8838 96.4467 97.9611C96.9921 97.9869 97.5376 98.0126 98.0052 98.0126C98.4727 98.0126 98.9663 97.9869 99.4858 97.9096C101.72 97.6778 103.72 97.008 105.486 95.8746L107.538 94.5609L107.564 96.9823C107.59 99.0687 107.59 100.898 107.616 102.366C107.616 102.907 107.798 103.267 108.24 103.577L108.343 103.68C108.707 104.04 109.149 104.143 109.772 104.066C110.006 104.04 110.084 103.989 110.084 103.989L110.188 103.937C113.591 102.211 116.63 99.893 119.201 97.0595L120.344 95.7974L121.305 97.1883C121.487 97.4459 121.695 97.7035 121.903 97.9611C122.111 98.1929 122.318 98.399 122.578 98.5793L122.656 98.6566C124.137 100.022 125.877 100.898 127.851 101.232C129.825 101.567 131.773 101.336 133.618 100.563C135.488 99.7642 137.021 98.5793 138.189 96.9823C138.501 96.5701 138.761 96.1322 139.021 95.6686L139.748 94.2776L141.021 95.2307C142.813 96.5701 144.891 97.4975 147.177 97.9354L147.229 97.9611C151.359 99.043 155.541 98.9657 159.723 98.5793C165.75 98.0384 189.855 91.0062 189.258 71.3779C189.18 68.6474 188.738 65.1442 186.478 59.6318C185.933 58.2665 184.426 55.4846 184.348 55.4073C183.361 53.6814 180.997 50.204 180.867 50.1267C176.919 44.1249 172.269 38.6125 166.918 33.7182C158.243 25.7587 148.164 19.6796 136.969 15.6612C125.825 11.6686 114.162 9.94272 102.369 10.5609C90.9658 11.1534 79.9262 13.9096 69.5359 18.7265C59.1457 23.5435 49.9503 30.215 42.1836 38.5094C34.1571 47.0872 28.0529 57.0559 24.0007 68.1322H23.9747C22.3382 72.5885 21.0914 77.1221 20.2342 81.7072C20.2082 81.7845 20.2082 81.8618 20.1823 81.939C20.0784 82.5315 19.9745 83.1239 19.8706 83.7164C19.8446 83.9225 19.7926 84.1028 19.7667 84.3089C19.7147 84.6952 19.6368 85.1074 19.5848 85.4938C19.5329 85.8286 19.4809 86.1377 19.429 86.4726C18.7796 91.3668 18.5458 96.3125 18.7276 101.284C19.1692 113.004 21.9746 124.364 27.0139 135.054C27.0139 135.08 27.0398 135.106 27.0398 135.131L26.9879 135.157C31.8453 145.461 38.573 154.579 46.9371 162.281C55.613 170.241 65.6915 176.32 76.887 180.338C88.0825 184.357 99.7715 186.083 111.564 185.464C122.968 184.872 134.007 182.116 144.398 177.299C154.788 172.482 163.983 165.81 171.75 157.516C179.776 148.912 185.907 138.918 189.959 127.816C191.855 122.612 193.258 117.332 194.115 111.948C194.141 111.819 194.193 111.278 194.193 111.278C194.245 111.253 194.245 111.227 194.245 111.201ZM90.6801 98.4505C89.2254 100.846 87.1214 102.649 84.394 103.808C83.8225 104.092 83.1731 104.298 82.4978 104.401C82.1601 104.452 81.7964 104.452 81.4587 104.452C81.2769 104.452 81.0951 104.427 80.9132 104.401C80.0301 104.298 79.1988 103.989 78.4715 103.474C77.6143 102.881 76.939 102.108 76.4454 101.155C75.9519 100.202 75.7701 99.1975 75.8999 98.1672C75.8999 95.9004 76.4454 93.7109 77.5364 91.7017C78.6274 89.6667 80.1859 87.9666 82.1601 86.6787L84.4979 85.1331L84.2381 87.9151C84.0303 90.0016 84.5238 91.8047 85.6927 93.479C86.8357 94.8443 88.2903 95.8746 90.0047 96.5186L91.5113 97.0853L90.6801 98.4505ZM90.9138 92.9124C89.9528 92.5002 89.1735 91.9335 88.654 91.2638L88.5241 91.0577L88.4721 90.9547C87.8747 89.5379 87.7708 88.0439 88.1604 86.4984L88.3163 85.9059L88.8878 84.4634L89.4073 84.824C89.5371 84.9271 92.7841 87.1939 92.888 90.9804C92.914 91.1607 93.0179 93.0412 93.0179 93.0412L93.0698 93.8654L90.9138 92.9124Z" fill="black"></path>
</svg>
