<?xml version="1.0" encoding="UTF-8"?>
<svg xmlns="http://www.w3.org/2000/svg" width="325" height="200" viewBox="0 0 325 200" fill="none">
  <path d="M66.3013 87.4652H72.5016L78.4717 98.7408H78.7274L84.6976 87.4652H90.8979L81.3481 104.391V113.647H75.851V104.391L66.3013 87.4652Z" fill="#161B26"></path>
  <path d="M93.9213 113.647V87.4652H99.4568V109.083H110.681V113.647H93.9213Z" fill="#161B26"></path>
  <path d="M137.387 100.556C137.387 103.411 136.846 105.84 135.764 107.843C134.69 109.846 133.224 111.376 131.366 112.433C129.516 113.481 127.437 114.005 125.127 114.005C122.801 114.005 120.712 113.477 118.863 112.42C117.014 111.363 115.552 109.833 114.478 107.83C113.404 105.827 112.867 103.403 112.867 100.556C112.867 97.701 113.404 95.272 114.478 93.2692C115.552 91.2664 117.014 89.7408 118.863 88.6925C120.712 87.6357 122.801 87.1073 125.127 87.1073C127.437 87.1073 129.516 87.6357 131.366 88.6925C133.224 89.7408 134.69 91.2664 135.764 93.2692C136.846 95.272 137.387 97.701 137.387 100.556ZM131.775 100.556C131.775 98.7067 131.498 97.147 130.944 95.8772C130.399 94.6073 129.627 93.6442 128.63 92.988C127.633 92.3317 126.465 92.0036 125.127 92.0036C123.789 92.0036 122.622 92.3317 121.624 92.988C120.627 93.6442 119.852 94.6073 119.298 95.8772C118.752 97.147 118.48 98.7067 118.48 100.556C118.48 102.406 118.752 103.965 119.298 105.235C119.852 106.505 120.627 107.468 121.624 108.124C122.622 108.781 123.789 109.109 125.127 109.109C126.465 109.109 127.633 108.781 128.63 108.124C129.627 107.468 130.399 106.505 130.944 105.235C131.498 103.965 131.775 102.406 131.775 100.556Z" fill="#161B26"></path>
  <path d="M165.547 100.556C165.547 103.411 165.006 105.84 163.924 107.843C162.85 109.846 161.384 111.376 159.526 112.433C157.677 113.481 155.597 114.005 153.287 114.005C150.961 114.005 148.873 113.477 147.023 112.42C145.174 111.363 143.712 109.833 142.638 107.83C141.564 105.827 141.027 103.403 141.027 100.556C141.027 97.701 141.564 95.272 142.638 93.2692C143.712 91.2664 145.174 89.7408 147.023 88.6925C148.873 87.6357 150.961 87.1073 153.287 87.1073C155.597 87.1073 157.677 87.6357 159.526 88.6925C161.384 89.7408 162.85 91.2664 163.924 93.2692C165.006 95.272 165.547 97.701 165.547 100.556ZM159.935 100.556C159.935 98.7067 159.658 97.147 159.104 95.8772C158.559 94.6073 157.787 93.6442 156.79 92.988C155.793 92.3317 154.625 92.0036 153.287 92.0036C151.949 92.0036 150.782 92.3317 149.785 92.988C148.787 93.6442 148.012 94.6073 147.458 95.8772C146.912 97.147 146.64 98.7067 146.64 100.556C146.64 102.406 146.912 103.965 147.458 105.235C148.012 106.505 148.787 107.468 149.785 108.124C150.782 108.781 151.949 109.109 153.287 109.109C154.625 109.109 155.793 108.781 156.79 108.124C157.787 107.468 158.559 106.505 159.104 105.235C159.658 103.965 159.935 102.406 159.935 100.556Z" fill="#161B26"></path>
  <path d="M178.929 113.647H169.648V87.4652H179.006C181.639 87.4652 183.906 87.9894 185.807 89.0377C187.708 90.0774 189.169 91.5732 190.192 93.5249C191.223 95.4766 191.739 97.8118 191.739 100.531C191.739 103.258 191.223 105.602 190.192 107.562C189.169 109.522 187.699 111.026 185.781 112.075C183.872 113.123 181.588 113.647 178.929 113.647ZM175.183 108.904H178.699C180.335 108.904 181.712 108.614 182.828 108.035C183.953 107.447 184.797 106.539 185.36 105.312C185.931 104.076 186.216 102.482 186.216 100.531C186.216 98.5959 185.931 97.0149 185.36 95.7877C184.797 94.5604 183.958 93.657 182.841 93.0774C181.725 92.4979 180.348 92.2081 178.712 92.2081H175.183V108.904Z" fill="#161B26"></path>
  <path d="M195.737 113.647V94.0107H201.017V97.4368H201.221C201.579 96.2181 202.18 95.2976 203.024 94.6755C203.868 94.0448 204.839 93.7294 205.939 93.7294C206.211 93.7294 206.505 93.7465 206.821 93.7806C207.136 93.8147 207.413 93.8615 207.652 93.9212V98.7536C207.396 98.6769 207.042 98.6087 206.591 98.549C206.139 98.4894 205.726 98.4595 205.351 98.4595C204.549 98.4595 203.834 98.6343 203.203 98.9837C202.581 99.3246 202.086 99.8019 201.72 100.416C201.362 101.029 201.183 101.737 201.183 102.538V113.647H195.737Z" fill="#161B26"></path>
  <path d="M210.467 113.647V94.0107H215.913V113.647H210.467ZM213.203 91.4794C212.394 91.4794 211.699 91.211 211.119 90.674C210.548 90.1286 210.263 89.4766 210.263 88.7181C210.263 87.9681 210.548 87.3246 211.119 86.7877C211.699 86.2422 212.394 85.9695 213.203 85.9695C214.013 85.9695 214.703 86.2422 215.274 86.7877C215.854 87.3246 216.144 87.9681 216.144 88.7181C216.144 89.4766 215.854 90.1286 215.274 90.674C214.703 91.211 214.013 91.4794 213.203 91.4794Z" fill="#161B26"></path>
  <path d="M238.583 94.0107L231.718 113.647H225.581L218.716 94.0107H224.469L228.547 108.06H228.752L232.817 94.0107H238.583Z" fill="#161B26"></path>
  <path d="M249.686 114.031C247.666 114.031 245.927 113.621 244.47 112.803C243.021 111.977 241.905 110.809 241.121 109.3C240.336 107.783 239.944 105.989 239.944 103.918C239.944 101.898 240.336 100.126 241.121 98.6002C241.905 97.0746 243.008 95.8857 244.432 95.0334C245.863 94.1811 247.542 93.755 249.469 93.755C250.764 93.755 251.97 93.9638 253.086 94.3814C254.211 94.7905 255.192 95.4084 256.027 96.2351C256.871 97.0618 257.527 98.1016 257.996 99.3544C258.464 100.599 258.699 102.056 258.699 103.727V105.222H242.118V101.847H253.572C253.572 101.063 253.402 100.369 253.061 99.7635C252.72 99.1584 252.247 98.6854 251.642 98.3445C251.045 97.9951 250.351 97.8203 249.558 97.8203C248.731 97.8203 247.998 98.0121 247.359 98.3956C246.728 98.7706 246.234 99.2777 245.876 99.9169C245.518 100.548 245.335 101.251 245.326 102.026V105.235C245.326 106.207 245.505 107.046 245.863 107.754C246.23 108.461 246.746 109.006 247.41 109.39C248.075 109.773 248.863 109.965 249.775 109.965C250.38 109.965 250.934 109.88 251.437 109.71C251.94 109.539 252.371 109.283 252.728 108.942C253.086 108.602 253.359 108.184 253.547 107.69L258.584 108.022C258.328 109.232 257.804 110.289 257.011 111.192C256.227 112.087 255.213 112.786 253.969 113.289C252.733 113.783 251.305 114.031 249.686 114.031Z" fill="#161B26"></path>
</svg>
