<svg xmlns="http://www.w3.org/2000/svg" xmlns:xlink="http://www.w3.org/1999/xlink" id="Layer_1" x="0px" y="0px" viewBox="0 0 200 200" style="enable-background:new 0 0 200 200;" xml:space="preserve"><path d="M192.8,23.9c3.1,0.1,4.2-1.1,4.2-4.1c0-3.8,0-7.6,0-11.4c0-2.7-1.2-3.9-3.9-3.9c-3.8-0.1-7.6,0-11.4,0 c-3.1,0-4.3,1.1-4.2,4.2c0.1,2-0.5,2.3-2.4,2.3c-20.1-0.1-40.1-0.1-60.2,0c-1.9,0-2.5-0.5-2.2-2.3c0.1-0.9-0.1-1.9,0.1-2.9 c0.1-1.9-0.5-3.5-2.2-4.5H89.2c-2.1,1.2-2.3,3.2-2.2,5.3c0.1,4.4,0,4.4-4.3,4.4c-19.5,0-39,0-58.4,0c-1.5,0-2.1-0.3-2-1.9 c0.1-3.6-0.9-4.6-4.5-4.6c-3.6,0-7.2,0-10.8,0C4,4.4,2.9,5.6,2.9,8.6c0,3.7,0,7.4,0,11.2c0,3.1,1.2,4.3,4.2,4.1 c2.1-0.1,2.3,0.7,2.3,2.5c-0.1,49.2-0.1,98.3,0,147.5c0,1.9-0.4,2.4-2.3,2.3c-3.2-0.1-4.2,1.1-4.3,4.2c0,3.7,0,7.3,0,11 c0,3.1,1.1,4.2,4.2,4.2c3.7,0,7.3,0,11,0c3.1,0,4.4-1.1,4.2-4.1c-0.1-1.9,0.4-2.4,2.4-2.4c6.2,0,12.5,0.1,18.7,0.1 c8.5,0,17,0,25.4,0c5.4,0,10.8,0,16.2-0.1c1.7,0,2.3,0.4,2.1,2.1c-0.1,1.4-0.1,2.9,0,4.2c0.1,2.3,1.3,3.4,3.6,3.4 c6.2,0,12.5,0,18.7,0c2.3,0,3.5-1.2,3.6-3.6c0.1-1.7,0.1-3.3,0-5c0-0.8,0.3-1.2,1.1-1.1c0.3,0.1,0.7,0,1,0c20.3,0,40.5,0,60.8-0.1 c1.6,0,2.1,0.4,2,2c-0.1,3.5,1,4.5,4.4,4.5c3.6,0,7.2,0,10.8,0c3.1,0,4.2-1.1,4.2-4.2c0-3.7,0-7.3,0-11c0-3.2-1.1-4.4-4.3-4.2 c-1.9,0.1-2.3-0.4-2.3-2.3c0.1-49.3,0.1-98.5,0-147.7C190.4,24.2,191,23.8,192.8,23.9z M154.8,17.5c7,0,14,0,21.1,0 c1.2,0,1.8,0.1,1.7,1.6c-0.1,4.1,0.7,4.8,5,4.9c0.7,0,1.5-0.2,1.5,1.1c-0.1,13.6,0,27.2-0.1,40.9c-10.1-22.5-26.5-38.5-49.1-48.5 L154.8,17.5L154.8,17.5z M93.3,8.8c0-0.9,0.3-1.1,1.1-1.1c3.6,0,7.2,0.1,10.8,0c0.9,0,1.2,0.3,1.2,1.2c-0.1,3.5-0.1,7,0,10.6 c0,0.9-0.3,1.1-1.1,1.1c-1.8-0.1-3.6,0-5.4,0c-1.7,0-3.5,0-5.2,0c-0.9,0-1.4-0.1-1.4-1.3C93.4,15.9,93.4,12.3,93.3,8.8z M17.4,23.9 c3.8,0.1,4.6-0.9,4.7-4.8c0-0.9-0.3-1.7,1.3-1.7c13.7,0.1,27.5,0.1,41.3,0.1c0.1,0,0.2,0.1,0.6,0.1C42.4,27.4,26,43.4,15.7,65.9 v-1.5c0-12.9,0-25.8-0.1-38.8C15.6,24.2,16,23.8,17.4,23.9z M9.2,14.1c0-3.3,0-3.3,3.3-3.3c3.2,0,3.2,0,3.2,3.2c0,3.3,0,3.3-3.3,3.3 C9.2,17.5,9.2,17.5,9.2,14.1z M12.4,189c-3.3,0-3.3,0-3.3-3.3c0-3.2,0-3.2,3.1-3.2h0.2c3.2,0,3.2,0,3.2,3.2 C15.7,189,15.7,189,12.4,189z M63.3,182.5c-13.1,0-26.2,0-39.3,0c-1.4,0-2-0.2-1.9-1.8c0.1-3.9-0.9-4.6-4.8-4.7 c-0.9,0-1.7,0.2-1.7-1.3c0.1-13.4,0.1-26.9,0.1-40.3c0-0.1,0.1-0.2,0.2-0.6c10,22.8,26.5,38.8,49.7,48.7L63.3,182.5L63.3,182.5z  M89.2,173c-1.5,0.3-2.3,1.6-2.3,3.2c-0.1,1.3-0.1,2.6,0,3.9c0.1,1.3-0.5,1.5-1.6,1.3c-34.7-5.9-61.5-32.2-68.1-65.3 c-0.5-2.3-0.8-4.6-1.1-6.8c-0.4-3.1-0.6-6.1-0.5-8.3c-0.1-40,27.8-72.9,64.8-81.2c1.7-0.4,3.5-0.7,5.2-1.1c0.8-0.1,1.2,0,1.1,0.9 c-0.1,1.3-0.1,2.7,0,4.1c0.1,2.4,1.3,3.5,3.7,3.5c6.2,0,12.4,0,18.5,0c2.5,0,3.7-1.1,3.7-3.7c0.1-1.1,0.1-2.2,0-3.3 c-0.2-1.7,0.6-1.7,1.9-1.5c9.6,1.7,18.7,4.8,27,9.6c22,12.7,35.9,31.6,41,56.6c6.3,31.2-7.9,65.1-34.5,82.6 c-0.9,0.5-1.2,0.8-1.7-0.5c-4.1-11.4-8.4-22.7-12.4-34.1c-2.4-6.8-0.5-12.9,3.8-18.3c2.7-3.3,2.6-4.3-0.8-7 c-17.5-13.9-35.1-27.9-52.7-41.8c-0.9-0.7-1.4-1.3-1.6-2.5c-1.3-8.2,2.5-13.1,11.2-14.6c5.8-0.9,11.7-0.3,17.5,0.2 c5.4,0.5,10.8,0.3,15.9-1.7c6-2.3,9.4-7.4,9.2-13.3c-0.1-1.3-0.3-1.8-1.7-1.3c-0.7,0.3-1.4,0.3-2.1,0.5c-1.7,0.3-2.9,0.6-3,2.9 c-0.1,2.5-2.1,4.1-4.3,5c-4.7,2-9.6,1.9-14.6,1.5c-7-0.7-13.9-1.2-20.9,0.7c-10.6,2.9-15.8,11.3-13.4,22c0.6,2.8-0.3,5.3-0.9,7.9 c-4.1,20.8-8.3,41.5-12.5,62.3c-0.7,3.5,0.2,4.6,3.7,5.2c5.3,0.9,10,2.9,13.3,7.3c1.2,1.5,2,3.3,2.7,5.1c2.3,6.2,4.6,12.5,6.8,18.8 C90.1,172.3,90.5,172.8,89.2,173z M92.1,158.9c-0.9-2.9-2.1-5.6-3.1-8.5c-2.9-8.1-8.8-13.1-16.9-15.5c-1.8-0.5-2.1-1-1.7-2.8 c3.5-16.9,6.8-33.9,10.2-50.9c0.1-0.5,0.3-1.1,0.4-1.6c0.8,0,0.7,0.7,0.9,1c3.5,9.3,6.8,18.7,10.3,28c0.4,1,0.2,1.5-0.5,2.3 c-4.3,4.1-5,10.1-1.9,14.9c2.9,4.6,8.8,6.5,13.9,4.6s8.4-7.3,7.6-12.5c-0.9-6-5.3-10-11.3-10.2c-1.2-0.1-1.4-0.7-1.7-1.5 c-3.3-9-6.6-18.1-9.9-27.1c-0.2-0.6-0.5-1.2-0.7-1.8c1.1-0.3,1.5,0.5,2.1,0.9c13.7,10.8,27.4,21.8,41,32.6c1,0.8,0.9,1.3,0.3,2.3 c-4.7,7.4-5.8,15.2-2.7,23.5c1,2.7,1.9,5.3,2.9,7.9c0.4,1,0.2,1.4-0.8,1.8c-12.2,4.4-24.4,8.9-36.7,13.4 C92.9,160,92.4,160,92.1,158.9z M94.4,119.3c0-2.9,2.3-5.2,5.2-5.2s5.2,2.4,5.2,5.2s-2.4,5.2-5.2,5.2 C96.7,124.6,94.4,122.2,94.4,119.3z M106.4,191.2c0,0.9-0.3,1.1-1.1,1.1c-3.6,0-7.2-0.1-10.8,0c-0.9,0-1.2-0.3-1.2-1.2 c0.1-1.8,0-3.6,0-5.4c0-1.7,0.1-3.5,0-5.2c0-0.9,0.3-1.1,1.1-1.1c3.6,0,7.2,0,10.8,0c0.7,0,1.2,0.1,1.2,1.1 C106.3,184,106.3,187.6,106.4,191.2z M114.1,181.3c-0.1,0-0.3,0-0.5,0.1c-0.7,0.2-0.9-0.3-0.9-0.9c0-1.3,0.1-2.7,0-4.1 c-0.1-2.4-1.3-3.5-3.7-3.5c-3.5,0-7,0-10.4,0c-0.5,0-1.3,0.3-1.5-0.2c-0.9-2-1.7-4.1-2.3-6.1c-0.2-0.8,0.9-0.7,1.4-0.9 c7-2.6,14.1-5.2,21.1-7.8c5-1.8,10-3.6,14.9-5.5c1.1-0.5,1.7-0.3,2.1,0.9c2,5.7,4.1,11.4,6.2,17.1c0.3,0.9,0.5,1.4-0.5,2 C132,176.8,123.3,179.8,114.1,181.3z M182.1,176.1c-3.7-0.1-4.6,0.9-4.6,4.6c0,0.7,0.5,1.8-1.1,1.8c-13.9-0.1-27.9,0-41.8,0 c22.5-10,39.2-25.8,49.4-48.3v1.7c0,12.7,0,25.6,0.1,38.4C184.1,175.7,183.7,176.2,182.1,176.1z M190.5,185.9c0,3.1,0,3.1-3.2,3.1 c-3.3,0-3.3,0-3.3-3.3c0-3.2,0-3.2,3.1-3.2C190.5,182.5,190.5,182.5,190.5,185.9z M190.5,14.4c0,3.1,0,3.1-3.1,3.1 c-3.4,0-3.4,0-3.4-3.3c0-3.2,0-3.2,3.2-3.2c3.3,0,3.3,0,3.3,3.3L190.5,14.4L190.5,14.4z"></path></svg>