<svg xmlns="http://www.w3.org/2000/svg" xmlns:xlink="http://www.w3.org/1999/xlink" id="Layer_1" x="0px" y="0px" viewBox="0 0 200 200" style="enable-background:new 0 0 200 200;" xml:space="preserve"><style type="text/css">	.st0{fill:none;stroke:#231F20;stroke-width:5;stroke-linecap:round;stroke-linejoin:round;stroke-miterlimit:10;}	.st1{fill:#231F20;}</style><g>	<g>		<rect x="128.2" y="64.2" class="st0" width="8.2" height="47.1"></rect>		<line class="st0" x1="127" y1="64.2" x2="96.9" y2="75.1"></line>		<line class="st0" x1="96.4" y1="103.4" x2="127.5" y2="111.3"></line>		<path class="st0" d="M90.8,80.3v53.9c0,2.3-1.9,4.2-4.2,4.2l0,0c-2.3,0-4.2-1.9-4.2-4.2v-33.4"></path>		<path class="st0" d="M90.8,98.2h-22c-3.2,0-5.8-2.6-5.8-5.8V80.8c0-3.2,2.6-5.8,5.8-5.8h22V98.2z"></path>	</g>	<circle class="st0" cx="33.1" cy="156.3" r="30"></circle>	<circle class="st0" cx="166.9" cy="156.3" r="30"></circle>	<circle class="st0" cx="33.1" cy="43.7" r="30"></circle>	<path class="st0" d="M137.8,36.4c3.2-13,15-22.7,29.1-22.7c16.5,0,30,13.4,30,30s-13.4,30-30,30"></path>	<path class="st0" d="M166.9,73.6c-16.5,0-30-13.4-30-30c0-2.5,0.3-4.9,0.9-7.2"></path>	<path class="st0" d="M167.5,73.4c2.8,7.8,4.4,16.3,4.4,25.1c0,9.8-1.9,19.2-5.4,27.8"></path>	<path class="st0" d="M61.7,34.7c10.8-6.2,23.3-9.8,36.6-9.8c14.5,0,28.1,4.2,39.5,11.5"></path>	<path class="st0" d="M30.2,126.3c-3.5-8.6-5.4-17.9-5.4-27.8c0-8.8,1.5-17.1,4.3-24.8"></path>	<path class="st0" d="M137.3,160.9c-11.3,7-24.6,11.2-38.9,11.2c-13,0-25.3-3.4-35.9-9.3"></path>	<polygon class="st0" points="22.5,172 22.5,142.6 45.7,157.3  "></polygon>	<path class="st0" d="M174.8,170.4H159c-3.8,0-6.9-3.1-6.9-6.9v-14.3c0-3.8,3.1-6.9,6.9-6.9h15.7c3.8,0,6.9,3.1,6.9,6.9v14.3  C181.6,167.3,178.6,170.4,174.8,170.4z"></path>	<circle class="st0" cx="166.9" cy="156.3" r="5.5"></circle>	<path class="st0" d="M30.5,39.8c0,0,4.1-12.6,11.4-2.9c0,0-0.9,22.4-21.2,16.1c0,0-4.6-1.2,4.9-2.5c0,0,1.5-1.2-3.3-2.5  c-4.9-1.3-2.6-11.8-2.6-11.8S29.5,42,30.5,39.8z"></path>	<path class="st1" d="M40.8,34.4c0,0,12.7-3.2,2.1,4.3L40.8,34.4z"></path>	<path class="st0" d="M164.9,57.2v-22c0,0-0.6-6.9,6.9-4.9"></path>	<line class="st0" x1="158" y1="43.7" x2="171.8" y2="43.7"></line></g></svg>