<svg xmlns="http://www.w3.org/2000/svg" xmlns:xlink="http://www.w3.org/1999/xlink" id="Layer_1" x="0px" y="0px" viewBox="0 0 200 200" style="enable-background:new 0 0 200 200;" xml:space="preserve"><style type="text/css">	.st0{fill:#030303;}</style><g>	<path class="st0" d="M12.6,158.9c-3.3,0-6.1-1.1-8.1-3.1c-2-2-3-4.8-3-8c0.2-28.9,0.1-58.3,0.1-86.7c0-9.6,0-19.3,0-28.9  c0-7.3,3.6-10.8,11-10.8c0.6,0,1.1,0,1.7,0c0.6,0,1.1,0,1.7,0c0.6,0,1.1,0,1.7,0c1.7,0,2.8,1.1,2.8,2.7c0,1.7-1,2.8-2.7,2.8  c-0.9,0-1.8,0.1-3.1,0.1c-0.5,0-2.6,0-3.1,0c-2.9,0.1-4.4,1.5-4.4,4.3c0,30.7,0,62.5-0.1,93.8c0,0.8,0.2,1.3,0.5,1.6  c0.4,0.3,0.8,0.4,1.2,0.4c0.1,0,0.6,0,0.7,0H100c29.6,0,60.2,0,90.2,0.1c2,0,2.7-0.6,2.7-2.6c-0.1-30.8-0.1-62.1-0.1-92.3  c0-3.9-1.2-5.1-5.2-5.1c-0.6,0-1.2,0-1.8,0c-0.6,0-1.2,0-1.8,0c-0.6,0-1.2,0-1.8,0c-1.7,0-2.7-1.1-2.7-2.7c0-1.6,1-2.7,2.7-2.7  c1.2-0.1,2.5-0.1,3.7-0.1c1.2,0,2.5,0,3.7,0.1c4.6,0.2,8.4,4,8.7,8.7c0,0.4,0,0.9,0,1.3c0,0.2,0,0.5,0,0.7V148  c0,7.2-3.7,10.8-11,10.8c-14.7,0-73.2,0-87.9,0C64.5,158.8,37.7,158.8,12.6,158.9L12.6,158.9z M9.9,132.4c-1.1,0-1.8,0.2-2.2,0.6  c-0.5,0.6-0.6,1.4-0.6,2.3c0.1,3.2,0.1,6.4,0.1,9.5c0,1.3,0,2.6,0,3.8c0,3.2,1.3,4.6,4.4,4.6h176.8c3.1,0,4.5-1.4,4.5-4.5  c0-1.3,0-2.6,0-3.9c0-3.2,0-6.5,0.1-9.7c0.1-1-0.1-1.7-0.5-2.1c-0.5-0.5-1.3-0.6-2.3-0.6c-30,0.1-60.5,0.1-90,0.1h-9.9  C63.9,132.5,36.7,132.5,9.9,132.4L9.9,132.4z"></path>	<path class="st0" d="M30.7,119.2c-1.4,0-2.4-1-2.6-2.4c-0.1-0.4-0.1-0.9-0.1-1.3c0-0.2,0-0.3,0-0.5V11.8c0-6.6,3.8-10.3,10.4-10.3  h123.2c6.6,0,10.5,3.8,10.5,10.5v103.5c0,3.3-1.4,3.8-2.8,3.8l-0.1,0c-1.5,0-2.6-0.9-2.7-2.5c0-0.4,0-0.9,0-1.3c0-0.2,0-0.5,0-0.7  c0-25.8,0-52.5,0.1-78.7c0-2-0.6-2.6-2.6-2.6c-21.3,0.1-43,0.1-63.9,0.1c-21,0-42.6,0-63.9-0.1c-2,0-2.6,0.6-2.6,2.6  c0.1,26.2,0.1,52.9,0.1,78.7c0,0.2,0,0.4,0,0.6c0,0.6,0,1.1-0.1,1.6c-0.2,1.4-1.1,2.2-2.7,2.3C30.8,119.2,30.7,119.2,30.7,119.2z   M38.1,7.2c-3.1,0-4.5,1.4-4.5,4.5c0,1.3,0,2.6,0,3.9c0,3.2,0,6.6-0.1,9.9c0,0.7,0,1.4,0.5,1.9c0.5,0.5,1.1,0.6,2,0.6  C57.3,28,79,28,99.9,28c7.1,0,14.3,0,21.4,0c7.1,0,14.3,0,21.4,0c7.1,0,14.3,0,21.4,0c0.8,0,1.4-0.1,1.9-0.5  c0.5-0.5,0.5-1.2,0.5-1.8c-0.1-3.5-0.1-7-0.1-10.4c0-1.2,0-2.4,0-3.5c0-3.2-1.3-4.5-4.4-4.5H38.1z"></path>	<path class="st0" d="M58.7,198.5c-3.5,0-4.3-0.7-4.3-4.2c0-0.6,0-1.1,0-1.7c0-1.1,0-2.3,0-3.4c0.1-5.2,3.9-9.3,8.7-9.3  c0.2,0,0.5,0,0.7,0c0.4,0,0.8,0,1.1,0c3.8,0,6.6-1.6,9.5-5.2c1.5-1.9,3.1-4,4.3-6.4c0.7-1.3,1.6-2.1,2.7-2.1c0.4,0,0.8,0.1,1.3,0.3  c1.5,0.8,1.9,2.4,0.9,4.3c-1.2,2.4-2.8,4.8-5.4,7.9l-0.7,0.8h44.9l-1.3-1.6c-1.9-2.5-3.7-4.8-4.9-7.5c-0.5-1-0.5-2.1,0-3  c0.4-0.7,1.2-1.2,2.1-1.3c0.1,0,0.2,0,0.3,0c1.2,0,2,0.7,2.7,2c2.2,4.4,5.5,7.8,8.1,10.3c0.9,0.8,1.8,1.2,3.1,1.2c0.5,0,1,0,1.5,0  c0.5,0,1,0,1.5,0c1.2,0,2.1,0.1,2.9,0.3c4.2,1.1,7,4.6,7.2,9c0.1,2.1,0.1,4.2,0,6.4c0,2.1-1.1,3.1-3.2,3.2H58.7z M137.9,192.8  c0.1,0,0.2,0,0.3,0.1c0.2,0,0.4,0.1,0.7,0.1c0.5,0,1.1-0.2,1.3-1.2c0.4-2.2,0.2-3.8-0.7-4.9c-0.9-1.1-2.4-1.6-4.6-1.6H65.3  c-4,0-5.1,1.1-5.3,5.2c-0.1,0.9,0.1,1.5,0.5,1.9c0.5,0.5,1.3,0.6,2.1,0.6c4.2,0,8.3,0,12.5,0c4.2,0,8.3,0,12.5,0  c4.2,0,8.3,0,12.5,0C112.4,192.9,125.3,192.9,137.9,192.8L137.9,192.8z"></path>	<path class="st0" d="M90.3,112.6c-0.3,0-0.6-0.1-1-0.2c-0.8-0.3-1.3-0.6-1.6-1.1c-0.4-0.8-0.3-2.1,0.3-4  c6.2-18.6,12.7-37.9,19-56.9c0.7-1.9,1.4-2.8,2.7-2.8c1.1,0,2,0.5,2.5,1.2c0.5,0.7,0.6,1.8,0.2,2.9c-1.1,3.4-2.3,6.8-3.4,10.2  s-2.3,6.8-3.4,10.2c-2.4,7-4.7,14.1-7.1,21.1c-1.8,5.3-3.5,10.6-5.3,15.8C92.3,112.3,91.1,112.6,90.3,112.6L90.3,112.6z"></path>	<path class="st0" d="M73.4,99.6c-0.6,0-1.3-0.6-1.9-1l-19-15.9c-1-0.9-1.6-1.7-1.6-2.6c0-0.8,0.5-1.7,1.5-2.5l18.8-15.7  c0.9-0.7,1.7-1,2.5-1c0.7,0,1.4,0.3,1.9,0.9c0.5,0.6,0.8,1.3,0.7,1.9c-0.1,0.9-0.6,1.7-1.5,2.5C70,70.4,65,74.6,60.1,78.6  c-0.5,0.5-1,0.9-1.1,1.6c0,0.6,0.5,1.1,1.1,1.6c3.2,2.6,6.4,5.2,9.5,7.8c1.9,1.6,3.8,3.2,5.7,4.8c1.3,1,1.6,2.1,1.1,3.4  C75.9,99,75,99.5,73.4,99.6L73.4,99.6z"></path>	<path class="st0" d="M126.2,99.6c-0.8,0-1.4-0.4-2-1.1c-1.1-1.4-0.8-2.9,1-4.4l3.6-3c3.7-3.1,7.5-6.3,11.3-9.4  c0.5-0.4,1-0.9,1.1-1.5c0-0.6-0.5-1.1-1.1-1.6c-2.9-2.3-5.7-4.7-8.5-7.1c-2.2-1.8-4.3-3.6-6.5-5.4c-1.3-1-1.6-2.1-1.2-3.4  c0.4-1.1,1.2-1.7,2.6-1.8c0.8,0,1.4,0.4,2.2,1c6.1,5,12.5,10.3,18.9,15.8c1,0.8,1.5,1.6,1.5,2.5c0,0.8-0.5,1.7-1.5,2.6  c-4.6,3.9-9.3,7.8-13.9,11.6l-4.9,4.1C127.8,99.2,127,99.6,126.2,99.6C126.2,99.6,126.2,99.6,126.2,99.6z"></path>	<path class="st0" d="M94,145.6c-2,0-3.2-1-3.2-2.7c0-1.7,1.3-2.8,3.1-2.8c2.1,0,4.2,0,6.4,0c2.1,0,4.2,0,6.4,0  c1.9,0,3.1,1.1,3.1,2.9c0,1.7-1.2,2.7-3.2,2.7H94z"></path>	<path class="st0" d="M117.3,20.4c-3.2,0-3.6-1.5-3.6-2.7c0-1.9,1.1-2.9,3.5-2.9h38.2c1.3,0,3.4,0.4,3.4,2.7c0,1.8-1.2,2.8-3.3,2.8  H117.3z"></path>	<path class="st0" d="M44,20.4c-1.4,0-2.7-1.2-2.8-2.6c0-0.8,0.3-1.5,0.8-2c0.5-0.5,1.2-0.8,2-0.8c1.5,0,2.7,1.3,2.7,2.7  C46.8,19,45.6,20.3,44,20.4L44,20.4z"></path>	<path class="st0" d="M57.2,20.4c-1.5,0-2.8-1.2-2.8-2.7c0-1.5,1.1-2.8,2.6-2.9l0.2,0c1.5,0,2.7,1.3,2.7,2.8  C60,19.1,58.7,20.4,57.2,20.4z"></path>	<path class="st0" d="M70.3,20.4c-0.7,0-1.4-0.3-1.9-0.9c-0.5-0.5-0.8-1.2-0.8-2c0-1.5,1.3-2.7,2.8-2.7c1.5,0,2.8,1.3,2.8,2.7  c0,0.7-0.3,1.4-0.8,2C71.8,20,71.1,20.4,70.3,20.4L70.3,20.4z"></path></g></svg>