<svg width="240" height="140" viewBox="0 0 240 140" fill="none" xmlns="http://www.w3.org/2000/svg">
<path d="M240 0H0V140H240V0Z" fill="white"/>
<g clip-path="url(#clip0_4_8)">
<path d="M50.5356 44H101.355V94.9401H50.5356V44Z" fill="white"/>
<path d="M126.764 69.53L101.355 44V95L126.764 69.53ZM75.9451 69.53L101.355 44H50.5356L75.9451 69.53Z" fill="#DB0011"/>
<path d="M25.0664 69.53L50.5357 95V44L25.0664 69.53ZM75.9452 69.53L50.5357 95H101.355L75.9452 69.53Z" fill="#DB0011"/>
<path d="M149.065 71.0282H139.858V80.1375H135.254V58.8026H139.858V67.5523H149.065V58.8026H153.668V80.1375H149.065V71.0282ZM164.789 80.557C160.185 80.557 156.419 78.6992 156.359 73.6052H160.962C161.022 75.8825 162.337 77.2609 164.849 77.2609C166.702 77.2609 168.854 76.302 168.854 74.2045C168.854 72.5264 167.419 72.047 165.028 71.3279L163.473 70.9083C160.125 69.9495 156.777 68.631 156.777 64.7955C156.777 60.0611 161.201 58.443 165.207 58.443C169.333 58.443 172.92 59.8813 172.98 64.6158H168.376C168.197 62.698 167.061 61.5593 164.908 61.5593C163.174 61.5593 161.5 62.4583 161.5 64.376C161.5 65.9342 162.935 66.4136 165.925 67.3725L167.718 67.9119C171.365 69.0505 173.697 70.3091 173.697 73.9048C173.637 78.6992 168.974 80.557 164.789 80.557V80.557ZM176.268 58.8625H183.681C185.057 58.8026 186.491 58.8625 187.867 59.1022C190.437 59.7015 192.41 61.3796 192.41 64.2562C192.41 67.0129 190.677 68.3913 188.165 69.0505C191.035 69.5899 193.188 71.0282 193.188 74.2045C193.188 79.0588 188.405 80.1375 184.698 80.1375H176.328L176.268 58.8625ZM183.681 67.7321C185.714 67.7321 187.807 67.3126 187.807 64.8555C187.807 62.6381 185.894 62.0388 183.98 62.0388H180.752V67.7321H183.681ZM184.1 76.9612C186.252 76.9612 188.345 76.4818 188.345 73.8449C188.345 71.208 186.551 70.7286 184.339 70.7286H180.692V76.9612H184.1ZM205.145 80.557C198.269 80.557 195.22 76.1821 195.22 69.6498C195.22 63.1175 198.628 58.3831 205.384 58.3831C209.629 58.3831 213.754 60.3008 213.874 65.0952H209.091C208.852 62.9377 207.417 61.859 205.384 61.859C201.199 61.859 199.944 66.3537 199.944 69.7697C199.944 73.1857 201.199 77.141 205.205 77.141C207.297 77.141 208.852 76.0024 209.151 73.8449H213.934C213.455 78.7591 209.569 80.557 205.145 80.557Z" fill="black"/>
</g>
<defs>
<clipPath id="clip0_4_8">
<rect width="189" height="51" fill="white" transform="translate(25 44)"/>
</clipPath>
</defs>
</svg>
