<?xml version="1.0" encoding="UTF-8"?> <svg xmlns="http://www.w3.org/2000/svg" width="240" height="140" viewBox="0 0 240 140" fill="none"> <rect width="240" height="140" fill="white"></rect> <g clip-path="url(#clip0_614_384)"> <path d="M111.07 87.9813C108.135 87.8253 105.946 86.6313 104.665 84.4893C103.806 83.0513 103.545 81.1601 103.938 79.2276C104.373 77.0864 105.852 75.1569 108.121 73.7691C109.426 72.971 110.542 72.4757 112.815 71.6857C113.386 71.4871 113.88 71.3043 113.911 71.2788C113.957 71.2431 113.963 71.1164 113.941 70.7052C113.875 69.5355 114.073 67.7132 114.407 66.3981C114.969 64.185 116.05 62.3996 117.486 61.3167C118.516 60.5386 119.866 59.9536 121.211 59.7027C121.954 59.5645 123.197 59.5649 123.896 59.704C126.89 60.3001 128.571 62.582 127.909 65.1531C127.769 65.6952 127.329 66.5839 126.956 67.0754C126.001 68.3348 124.565 69.4547 122.536 70.5202C122.281 70.6546 121.446 71.0602 120.681 71.4225C119.916 71.7843 119.266 72.1045 119.236 72.1342C119.194 72.1763 119.204 72.2992 119.287 72.7125C119.667 74.6233 120.307 76.2377 121.4 78.043C121.834 78.7616 122.435 79.6677 122.503 79.7098C122.602 79.7701 123.006 79.1243 123.27 78.4852C123.596 77.6944 123.782 76.6484 123.69 76.1289C123.624 75.7568 123.419 75.3639 123.156 75.1101C123.036 74.9928 122.936 74.8818 122.936 74.8635C122.935 74.8456 123.954 74.8354 125.199 74.8418L127.464 74.8533L127.451 75.1373C127.434 75.5255 127.288 76.3534 127.134 76.9427C126.701 78.5996 125.885 80.0167 124.474 81.5644C124.308 81.7468 124.172 81.9258 124.172 81.9624C124.172 81.999 124.406 82.2528 124.691 82.5266C126.474 84.2359 129.633 86.207 132.205 87.2151C132.455 87.3133 132.659 87.4133 132.658 87.4371C132.657 87.466 131.172 87.4847 128.319 87.4923L123.981 87.5034L123.734 87.3661C123.23 87.0859 122.114 86.1943 121.042 85.2146C120.815 85.0071 120.6 84.8375 120.564 84.8375C120.529 84.8375 120.276 84.9825 120.004 85.1598C118.612 86.068 116.947 86.8839 115.539 87.3482C113.938 87.8767 112.616 88.0638 111.07 87.9817V87.9813ZM114.722 84.2652C115.371 84.1508 116.169 83.9178 116.902 83.6283C117.64 83.3374 118.554 82.8927 118.587 82.8085C118.6 82.7753 118.431 82.496 118.212 82.1873C117.203 80.7655 116.125 78.7659 115.4 76.9724C115.133 76.3113 114.634 74.8469 114.539 74.4455C114.509 74.3176 114.454 74.2015 114.417 74.1875C114.316 74.1492 113.488 74.5859 112.772 75.0553C110.227 76.7233 109.007 78.7595 109.278 80.8871C109.399 81.8327 109.701 82.5219 110.252 83.104C111.27 84.1797 112.862 84.5934 114.722 84.2652V84.2652ZM119.041 69.4705C119.983 68.9254 121.477 67.6018 122.312 66.5728C123.382 65.256 123.95 64.0272 123.951 63.0306C123.951 62.4609 123.869 62.2058 123.602 61.9421C123.337 61.6802 123.038 61.5718 122.581 61.5714C121.224 61.5714 119.758 63.1633 119.119 65.3292C118.796 66.421 118.718 67.0086 118.716 68.3424C118.714 69.3612 118.731 69.5878 118.808 69.5878C118.825 69.5878 118.93 69.5351 119.041 69.4705V69.4705ZM141.471 87.9558C139.237 87.7334 137.764 87.4031 136.102 86.7525C133.841 85.8664 132.43 84.769 131.237 82.9709C130.88 82.4326 130.308 81.3025 130.076 80.6779C129.042 77.8951 128.815 74.3916 129.431 70.7367C130.055 67.0376 131.476 63.4724 133.437 60.6857C134.709 58.8787 136.602 56.9756 138.555 55.5384C141.781 53.1659 145.494 51.7075 149.619 51.1947C150.87 51.0391 151.571 50.9992 153.049 51C155.285 51.0013 156.987 51.1697 159.236 51.6114C160.67 51.8938 162.955 52.5035 162.999 52.6161C163.022 52.6731 161.574 57.2613 161.514 57.3229C161.496 57.3421 161.273 57.1954 161.021 56.9955C158.987 55.3926 156.88 54.4168 154.749 54.0924C154.068 53.9886 152.789 53.9874 152.122 54.0898C149.134 54.5473 146.364 56.4347 143.905 59.6887C143.106 60.7457 142.226 62.1624 141.541 63.4924C140.614 65.2951 139.976 66.8887 139.331 69.0198C137.276 75.7998 137.172 80.5367 139.021 83.101C139.783 84.1576 140.896 84.8307 142.309 85.0879C143.12 85.2359 145.088 85.1462 145.284 84.9527C145.316 84.9221 146.277 81.9488 147.42 78.3453C149.298 72.4263 149.501 71.7588 149.522 71.4233C149.551 70.9726 149.466 70.57 149.261 70.1822C149.075 69.8297 148.583 69.3514 148.177 69.129C148.002 69.0329 147.859 68.9394 147.858 68.9215C147.858 68.9037 151.009 68.8888 154.861 68.8888C158.713 68.8888 161.865 68.9037 161.865 68.9215C161.865 68.9394 161.694 69.0317 161.485 69.1256C160.395 69.6189 159.604 70.3578 159.134 71.3247C159.033 71.5339 158.151 74.2415 156.827 78.4108L154.684 85.1585L154.065 85.4519C151.543 86.6488 148.458 87.5106 145.381 87.8784C144.815 87.9464 141.945 88.003 141.472 87.9558H141.471ZM77.0019 87.4626C76.9877 87.4405 77.081 87.3627 77.2087 87.29C77.9698 86.8567 78.8243 85.9579 79.1863 85.2087C79.2912 84.9918 88.8987 54.7357 89.1107 53.9538C89.1481 53.8169 89.1795 53.5277 89.1799 53.3117C89.183 52.6519 88.9757 52.1761 88.4876 51.7194C88.3543 51.5948 88.2456 51.4745 88.2456 51.452C88.2456 51.392 105.022 51.3971 105.791 51.4575C107.457 51.588 109.125 52.026 110.4 52.6672C112.578 53.762 113.881 55.4236 114.282 57.6146C114.394 58.2243 114.415 59.5807 114.324 60.2372C113.951 62.9133 112.724 65.7518 111.054 67.8054C108.35 71.1321 103.926 73.2593 98.4976 73.8443C96.7768 74.0297 94.6083 74.0765 93.0727 73.9608C92.629 73.9272 92.2566 73.909 92.2454 73.92C92.1908 73.9744 88.7272 84.9633 88.6876 85.2087C88.5655 85.9651 88.9594 86.8154 89.6383 87.261C89.7725 87.3491 89.8705 87.4396 89.8568 87.4617C89.8224 87.5166 77.0359 87.517 77.0015 87.4622L77.0019 87.4626ZM96.0449 71.141C97.3061 70.9199 98.4189 70.4582 99.4926 69.7111C100.014 69.3484 101.086 68.2901 101.528 67.7013C102.634 66.2289 103.447 64.4915 104.104 62.2032C104.521 60.7448 104.7 59.6338 104.699 58.4888C104.699 57.6061 104.618 57.0789 104.394 56.4874C104.061 55.6099 103.382 54.9164 102.52 54.572C101.779 54.2761 101.147 54.1983 99.6268 54.2157L98.4804 54.2284L95.8157 62.6182C94.3507 67.2327 93.1596 71.0305 93.1695 71.0577C93.1798 71.0849 93.3638 71.1308 93.578 71.1597C93.793 71.1886 93.9981 71.2192 94.0346 71.2282C94.2015 71.2686 95.6867 71.2044 96.0449 71.1414V71.141Z" fill="#165EAA"></path> </g> <defs> <clipPath id="clip0_614_384"> <rect width="86" height="37" fill="white" transform="translate(77 51)"></rect> </clipPath> </defs> </svg> 