<?xml version="1.0" encoding="UTF-8"?> <svg xmlns="http://www.w3.org/2000/svg" width="240" height="140" viewBox="0 0 240 140" fill="none"> <rect width="240" height="140" fill="white"></rect> <path fill-rule="evenodd" clip-rule="evenodd" d="M53 40.7229V97.14L63.7512 107H185.377V40.7229H53Z" fill="white"></path> <path fill-rule="evenodd" clip-rule="evenodd" d="M71.3154 89.6025H76.3108V64.7488H71.3154V89.6025Z" fill="#ED1C24"></path> <path fill-rule="evenodd" clip-rule="evenodd" d="M89.444 75.4942C88.5776 75.3217 88.0807 75.2893 87.5215 75.2893C84.0976 75.2893 82.768 77.7315 82.768 81.0136V89.2556H77.8057V71.239H82.5219V74.5523C83.6429 72.2157 85.6782 70.8196 88.3651 70.8196C88.7479 70.8196 88.9532 70.8591 89.444 70.9239V75.4942Z" fill="#ED1C24"></path> <path fill-rule="evenodd" clip-rule="evenodd" d="M94.733 80.245C94.733 83.9406 96.3399 86.0712 99.1049 86.0712C101.83 86.0712 103.434 83.9106 103.434 80.2078C103.434 76.6106 101.794 74.4812 99.0342 74.4812C96.3772 74.4812 94.733 76.6488 94.733 80.245ZM108.407 80.246C108.407 86.0385 104.733 89.8036 99.1051 89.8036C93.4754 89.8036 89.7695 86.005 89.7695 80.246C89.7695 74.5168 93.5103 70.7134 99.1734 70.7134C104.733 70.7134 108.407 74.5168 108.407 80.246Z" fill="#ED1C24"></path> <path fill-rule="evenodd" clip-rule="evenodd" d="M121.192 89.2548V78.7407C121.192 76.5084 120.772 74.8295 118.114 74.8295C115.142 74.8295 114.199 76.9637 114.199 79.5808V89.2548H109.271V71.2382H113.989V73.751C115.419 71.8325 117.417 70.7493 119.976 70.7493C123.78 70.7493 126.224 73.0153 126.224 77.2033V89.2548H121.192Z" fill="#ED1C24"></path> <path fill-rule="evenodd" clip-rule="evenodd" d="M145.43 68.9752V64.3737L127.936 64.3677V89.229H133.426V78.2896H140.795V80.195L143.1 78.0895L145.399 75.9913L143.1 73.8883L140.795 71.7793V73.6834H133.426V75.4676L131.124 73.3706L128.825 71.2627L131.124 69.1597L133.426 67.0555V68.9752H145.43Z" fill="#ED1C24"></path> <path fill-rule="evenodd" clip-rule="evenodd" d="M146.493 64.373H152.839L157.719 72.3035L162.774 64.373H168.773L160.789 76.2351L169.471 89.2248H162.948L157.509 80.6305L151.966 89.2248H145.829L154.515 76.204L146.493 64.373Z" fill="#ED1C24"></path> <path fill-rule="evenodd" clip-rule="evenodd" d="M73.804 100.346C73.1115 100.346 72.5174 100.171 72.1178 99.8722L71.9966 98.5769C72.5354 99.0059 73.1211 99.2108 73.7391 99.2108C74.2396 99.2108 74.518 99.0059 74.518 98.6727C74.518 98.3432 74.326 98.1743 73.6359 97.9323C72.6675 97.5919 72.1526 96.9736 72.1526 96.2067C72.1526 95.2648 72.8595 94.5134 74.0823 94.5134C74.7701 94.5134 75.2008 94.6896 75.4457 94.8466L75.34 95.9802C75.0772 95.8052 74.6212 95.6303 74.1843 95.6303C73.7067 95.6303 73.4811 95.8387 73.4811 96.1095C73.4811 96.3696 73.672 96.5397 74.332 96.7554C75.2272 97.0526 75.8777 97.671 75.8777 98.5398C75.8777 99.6315 75.1744 100.346 73.804 100.346Z" fill="#ED1C24"></path> <path fill-rule="evenodd" clip-rule="evenodd" d="M82.3295 95.7085C81.4942 95.7085 80.707 96.3914 80.707 97.4256C80.707 98.473 81.4942 99.1524 82.3295 99.1524C83.1671 99.1524 83.9604 98.473 83.9604 97.4256C83.9604 96.3914 83.1671 95.7085 82.3295 95.7085ZM82.3295 100.346C80.791 100.346 79.3389 99.222 79.3389 97.4257C79.3389 95.6486 80.791 94.5234 82.3295 94.5234C83.8728 94.5234 85.3309 95.6486 85.3309 97.4257C85.3309 99.222 83.8728 100.346 82.3295 100.346Z" fill="#ED1C24"></path> <path fill-rule="evenodd" clip-rule="evenodd" d="M89.0884 100.215V94.6565H90.4409V99.0568H92.6731V100.215H89.0884Z" fill="#ED1C24"></path> <mask id="mask0_614_404" style="mask-type:alpha" maskUnits="userSpaceOnUse" x="53" y="40" width="133" height="67"> <path fill-rule="evenodd" clip-rule="evenodd" d="M53 107H185.395V40H53V107Z" fill="white"></path> </mask> <g mask="url(#mask0_614_404)"> <path fill-rule="evenodd" clip-rule="evenodd" d="M96.2866 100.215H97.6415V94.6565H96.2866V100.215Z" fill="#ED1C24"></path> <path fill-rule="evenodd" clip-rule="evenodd" d="M103.377 95.8169H102.96V99.0571H103.377C104.344 99.0571 105.161 98.5167 105.161 97.4358C105.161 96.3549 104.344 95.8169 103.377 95.8169ZM103.535 100.215H101.658V94.6565H103.535C105.139 94.6565 106.516 95.7015 106.516 97.4354C106.516 99.1682 105.139 100.215 103.535 100.215Z" fill="#ED1C24"></path> <path fill-rule="evenodd" clip-rule="evenodd" d="M117.837 95.7362V100.215H116.491V95.729H114.81V94.6565H119.515V95.7362H117.837Z" fill="#ED1C24"></path> <path fill-rule="evenodd" clip-rule="evenodd" d="M124.927 95.7182H124.35V96.9644H124.927C125.274 96.9644 125.625 96.7715 125.625 96.339C125.625 95.9207 125.274 95.7182 124.927 95.7182ZM126.327 100.215L124.83 98.0274H124.35V100.215H123.049V94.6565H125.126C126.08 94.6565 126.923 95.2904 126.923 96.339C126.923 96.9908 126.54 97.5133 126.072 97.7326L127.84 100.215H126.327Z" fill="#ED1C24"></path> <path fill-rule="evenodd" clip-rule="evenodd" d="M133.517 96.9224C133.454 96.7655 133.392 96.5545 133.34 96.3544H133.323C133.28 96.5545 133.212 96.7655 133.149 96.9224L132.747 98.0368H133.919L133.517 96.9224ZM134.685 100.216L134.247 99.0557H132.417L131.989 100.216H130.712L132.907 94.6111H133.837L136.027 100.216H134.685Z" fill="#ED1C24"></path> <path fill-rule="evenodd" clip-rule="evenodd" d="M141.285 95.8169H140.867V99.0571H141.285C142.254 99.0571 143.073 98.5167 143.073 97.4358C143.073 96.3549 142.254 95.8169 141.285 95.8169ZM141.445 100.215H139.563V94.6565H141.445C143.049 94.6565 144.428 95.7015 144.428 97.4354C144.428 99.1682 143.049 100.215 141.445 100.215Z" fill="#ED1C24"></path> <path fill-rule="evenodd" clip-rule="evenodd" d="M148.269 100.215H149.619V94.6565H148.269V100.215Z" fill="#ED1C24"></path> <path fill-rule="evenodd" clip-rule="evenodd" d="M158.183 100.277L156.021 97.9051C155.67 97.5229 155.275 97.0532 154.981 96.6853L154.963 96.6948C154.981 97.0868 154.987 97.5121 154.987 97.8632V100.215H153.634V94.6565H154.726L156.614 96.7296C156.872 97.0172 157.263 97.4702 157.518 97.7925L157.537 97.7829C157.518 97.451 157.508 97.0927 157.508 96.7464V94.6565H158.862V100.277H158.183Z" fill="#ED1C24"></path> <path fill-rule="evenodd" clip-rule="evenodd" d="M165.707 100.346C164.171 100.346 162.619 99.3359 162.619 97.4353C162.619 95.5181 164.208 94.5234 165.677 94.5234C166.45 94.5234 167.059 94.7163 167.444 94.9704L167.338 96.1555C166.956 95.8763 166.423 95.693 165.815 95.693C164.8 95.693 163.966 96.37 163.966 97.4712C163.966 98.5162 164.758 99.1944 165.771 99.1944C166.092 99.1944 166.334 99.1429 166.527 99.0279V98.2466H165.515V97.2088H167.767V99.772C167.298 100.146 166.608 100.346 165.707 100.346Z" fill="#ED1C24"></path> <path fill-rule="evenodd" clip-rule="evenodd" d="M169.036 57.188H178.892V67.0308L169.036 57.188Z" fill="#ED1C24"></path> <path fill-rule="evenodd" clip-rule="evenodd" d="M174.478 89.2123V86.8408H175.059L175.66 88.7354L176.242 86.8408H176.812V89.2123H176.45V87.223L175.837 89.2123H175.479L174.843 87.1931V89.2123H174.478ZM173.041 89.2127V87.1935H172.272V86.8413H174.212V87.1935H173.438V89.2127H173.041Z" fill="#ED1C24"></path> </g> </svg> 