<?xml version="1.0" encoding="UTF-8"?> <svg xmlns="http://www.w3.org/2000/svg" width="240" height="140" viewBox="0 0 240 140" fill="none"> <rect width="240" height="140" fill="white"></rect> <path d="M141.219 94.3344C137.052 96.6738 129.902 97.3425 120.012 97.3425C110.122 97.3425 102.972 96.6738 98.8046 94.3344C96.303 92.9338 95.0371 91.0246 95.0371 89.6553C95.0371 88.8751 95.4543 88.4299 96.3836 88.4299H143.639C144.569 88.4299 144.986 88.8751 144.986 89.6553C144.986 91.0246 143.72 92.9338 141.219 94.3344ZM143.639 58.0444H96.3836C95.4543 58.0444 95.0371 57.5668 95.0371 56.7074C95.0371 51.6136 102.748 42.6208 120.012 42.6208C137.116 42.6208 144.986 51.6136 144.986 56.7074C144.986 57.5668 144.569 58.0444 143.639 58.0444Z" fill="#FF8732"></path> <path d="M95.0371 68.6615V61.6445C95.0371 60.6579 95.6463 59.9252 96.9123 59.9252H98.8204C100.84 59.9252 102.138 60.9445 102.138 62.853C102.138 63.6651 101.834 64.2219 101.53 64.5723C101.45 64.6679 101.401 64.6992 101.401 64.7787C101.401 64.8431 101.482 64.906 101.562 64.9704C101.754 65.129 102.603 65.7808 102.603 67.1976C102.603 68.9632 101.305 70.38 99.1729 70.38H96.9123C95.6463 70.38 95.0371 69.6481 95.0371 68.6615ZM97.8588 63.7443C97.8588 63.9526 97.9868 64.1112 98.2594 64.1112H98.4673C99.157 64.1112 99.3656 63.5698 99.3656 63.1882C99.3656 62.7739 99.1564 62.2969 98.4673 62.2969H98.2594C97.9868 62.2969 97.8588 62.4563 97.8588 62.6631V63.7443ZM97.8588 67.6274C97.8588 67.8346 97.9868 67.9932 98.2594 67.9932H98.5478C99.3167 67.9932 99.5411 67.4048 99.5411 66.9911C99.5411 66.5293 99.3174 66.0203 98.5478 66.0203H98.2594C97.9868 66.0203 97.8588 66.1797 97.8588 66.3861V67.6274ZM107.316 70.4592C109.913 70.4592 111.292 68.9154 111.292 66.9746V61.6128C111.292 60.6579 110.731 59.8938 109.704 59.8938C108.679 59.8938 108.118 60.6579 108.118 61.6128V66.7994C108.118 67.1814 107.893 67.6274 107.316 67.6274C106.739 67.6274 106.546 67.1814 106.546 66.7994V61.6128C106.546 60.6579 105.969 59.8938 104.943 59.8938C103.916 59.8938 103.355 60.6579 103.355 61.6128V66.9746C103.357 68.9169 104.719 70.4592 107.316 70.4592ZM116.998 69.5222C116.565 68.9647 116.181 67.8659 116.037 67.0552C116.005 66.8638 115.941 66.753 115.748 66.753C115.589 66.753 115.492 66.8487 115.492 67.0552V68.7417C115.492 69.6959 114.931 70.4599 113.905 70.4599C112.878 70.4599 112.318 69.6959 112.318 68.7417V61.6445C112.318 60.6572 112.927 59.9252 114.193 59.9252H116.006C118.041 59.9252 119.725 61.0711 119.725 63.0925C119.725 64.4284 119.147 65.2718 118.65 65.6538C118.506 65.7653 118.474 65.8768 118.522 66.0038C118.73 66.5609 119.147 67.0861 119.612 67.6903C119.9 68.0561 120.125 68.4536 120.125 68.9953C120.125 69.8067 119.403 70.4592 118.57 70.4592C118.056 70.4592 117.544 70.2362 116.998 69.5222ZM116.822 63.4583C116.822 63.0447 116.614 62.567 115.94 62.567H115.716C115.443 62.567 115.315 62.7271 115.315 62.9339V64.0147C115.315 64.2219 115.443 64.3805 115.716 64.3805H115.94C116.614 64.3805 116.822 63.8558 116.822 63.4583ZM125.094 70.4757C127.611 70.4757 129.198 68.8838 129.198 66.5613C129.198 65.0819 128.299 64.0633 126.505 64.0633H125.992C125.046 64.0633 124.309 64.5093 124.309 65.5114C124.309 66.4027 125.094 66.8322 125.688 66.8322C125.992 66.8322 126.185 66.9282 126.185 67.1505C126.185 67.4371 125.848 67.6278 125.463 67.6278C124.261 67.6278 123.443 66.7843 123.443 65.2089C123.443 63.4583 124.566 62.8224 125.431 62.8224C126.489 62.8224 126.665 63.3641 127.403 63.3641C128.253 63.3641 128.83 62.6635 128.83 61.9322C128.83 61.3905 128.589 60.9773 128.221 60.6907C127.547 60.1968 126.602 59.8315 125.192 59.8315C122.706 59.8315 120.285 61.4549 120.285 65.2096C120.285 68.8046 122.705 70.4757 125.094 70.4757ZM134.856 70.38C135.754 70.38 136.459 69.8545 136.459 68.9003C136.459 67.9612 135.754 67.4357 134.856 67.4357H133.413C133.141 67.4357 133.013 67.2771 133.013 67.0699V66.7674C133.013 66.5609 133.141 66.4012 133.413 66.4012H134.52C135.29 66.4012 135.899 65.9401 135.899 65.1283C135.899 64.3169 135.29 63.8554 134.52 63.8554H133.413C133.141 63.8554 133.013 63.6957 133.013 63.4885V63.2342C133.013 63.0274 133.141 62.8681 133.413 62.8681H134.856C135.754 62.8681 136.459 62.3429 136.459 61.3883C136.459 60.4492 135.754 59.9239 134.856 59.9239H131.827C130.561 59.9239 129.952 60.6558 129.952 61.643V68.6596C129.952 69.6459 130.561 70.3786 131.827 70.3786H134.856V70.38ZM137.18 68.7424V61.6448C137.18 60.6579 137.789 59.9266 139.055 59.9266H140.867C142.903 59.9266 144.586 61.0726 144.586 63.0933C144.586 64.4298 144.009 65.2733 143.512 65.6549C143.367 65.7657 143.336 65.8772 143.384 66.0045C143.592 66.5613 143.928 67.0073 144.473 67.6914C144.762 68.0569 144.986 68.4543 144.986 68.996C144.986 69.8082 144.264 70.4599 143.432 70.4599C142.919 70.4599 142.406 70.2376 141.86 69.5208C141.427 68.9632 141.043 67.8651 140.899 67.0541C140.867 66.8631 140.803 66.7523 140.61 66.7523C140.451 66.7523 140.355 66.8472 140.355 67.0541V68.741C140.355 69.6952 139.793 70.4592 138.767 70.4592C137.741 70.4592 137.18 69.6959 137.18 68.7424ZM140.178 64.0155C140.178 64.2227 140.306 64.382 140.579 64.382H140.803C141.477 64.382 141.685 63.8565 141.685 63.4583C141.685 63.0447 141.477 62.567 140.803 62.567H140.579C140.306 62.567 140.178 62.7271 140.178 62.9339V64.0155ZM105.104 79.0527C104.959 78.8297 104.944 78.6858 104.944 78.6229C104.944 78.4481 105.04 78.3207 105.232 78.1456C105.681 77.7316 106.787 76.6975 107.396 75.7587C107.86 75.0426 108.053 74.3905 108.053 73.8503C108.053 72.4659 106.787 71.3836 105.408 71.3836C104.526 71.3836 103.693 71.8767 103.132 72.7838C102.379 73.9927 101.48 75.3929 100.904 75.9505C100.76 76.094 100.68 76.1256 100.568 76.1256C100.375 76.1256 100.296 75.9983 100.296 75.7915V74.1999C100.296 72.6407 99.3656 71.3836 97.6819 71.3836C95.9829 71.3836 95.0688 72.6403 95.0688 74.1999V84.0019C95.0688 85.5608 95.9823 86.819 97.6819 86.819C99.3656 86.819 100.296 85.5623 100.296 84.0019V81.7431C100.296 81.5514 100.375 81.4094 100.568 81.4094C100.824 81.4094 100.889 81.6637 100.952 81.791C101.321 82.6657 102.395 84.5274 103.389 85.6252C104.063 86.3571 104.896 86.819 105.778 86.819C107.269 86.819 108.52 85.5295 108.52 84.1455C108.52 83.2865 108.15 82.6495 107.445 81.8859C106.547 80.914 105.489 79.6408 105.104 79.0527ZM112.414 71.3821C110.619 71.3821 109.64 72.7187 109.64 74.3894V83.8098C109.64 85.4809 110.619 86.8175 112.414 86.8175C114.208 86.8175 115.187 85.4809 115.187 83.8098V74.3894C115.187 72.7194 114.21 71.3821 112.414 71.3821ZM127.787 71.3821C126.135 71.3821 125.237 72.6072 125.237 74.1513V77.5881C125.237 77.874 125.141 78.0021 124.965 78.0021C124.837 78.0021 124.74 77.9226 124.628 77.7003L122.401 73.4035C121.551 71.7637 120.669 71.3821 119.66 71.3821C117.976 71.3821 117.047 72.6396 117.047 74.215V84.049C117.047 85.5932 117.944 86.8182 119.595 86.8182C121.246 86.8182 122.144 85.5932 122.144 84.049V80.6123C122.144 80.3263 122.24 80.1983 122.417 80.1983C122.545 80.1983 122.641 80.2778 122.753 80.5008L124.981 84.7968C125.83 86.4366 126.744 86.8182 127.722 86.8182C129.405 86.8182 130.335 85.5615 130.335 83.9861V74.1513C130.335 72.6072 129.438 71.3821 127.787 71.3821ZM140.915 77.5086H140.13C138.719 77.5086 137.629 78.1614 137.629 79.5929C137.629 80.8975 138.815 81.5179 139.697 81.5179C140.13 81.5179 140.434 81.6453 140.434 81.979C140.434 82.3938 139.921 82.6631 139.376 82.6631C137.565 82.6631 136.33 81.4381 136.33 79.1627C136.33 76.6324 138.014 75.7094 139.312 75.7094C140.899 75.7094 141.155 76.505 142.261 76.505C143.543 76.505 144.409 75.4713 144.409 74.4214C144.409 73.6416 144.056 73.037 143.495 72.623C142.518 71.9069 141.043 71.3814 138.959 71.3814C135.224 71.3814 131.585 73.7204 131.585 79.1627C131.585 84.3659 135.223 86.8006 138.815 86.8006C142.581 86.8006 144.97 84.4932 144.97 81.1198C144.97 78.9883 143.625 77.5086 140.915 77.5086Z" fill="#D62300"></path> </svg> 