<?xml version="1.0" encoding="UTF-8"?>
<svg xmlns="http://www.w3.org/2000/svg" width="231" height="60" viewBox="0 0 231 60" fill="none">
  <path d="M69.3182 38.1148C66.0309 38.1148 62.9506 36.723 60.152 34.4573L60.8334 31.2589L60.8631 31.1403C61.4699 27.7349 63.395 22.0188 69.3182 22.0188C73.7603 22.0188 77.3735 25.632 77.3735 30.0741C77.3585 34.5015 73.7456 38.1148 69.3182 38.1148ZM69.3182 13.8599C61.7512 13.8599 55.8877 18.7761 53.5039 26.861C49.861 21.3969 47.1066 14.8373 45.4928 9.31396H37.3486V30.5035C37.3486 34.6793 33.9428 38.0847 29.767 38.0847C25.5912 38.0847 22.1857 34.6793 22.1857 30.5035V9.31396H14.0407V30.5035C14.0111 39.181 21.0744 46.3032 29.7516 46.3032C38.4291 46.3032 45.4924 39.181 45.4924 30.5035V26.9499C47.0766 30.2518 49.0163 33.5834 51.3709 36.5452L46.3805 60H54.7175L58.3303 42.9863C61.4991 45.0149 65.142 46.2886 69.3178 46.2886C78.2466 46.2886 85.5173 38.9736 85.5173 30.0444C85.5173 21.1303 78.247 13.8599 69.3182 13.8599Z" fill="#5EC933"></path>
  <path d="M110.379 14.7781L115.636 35.9676L121.426 14.7781H128.326L119.427 45.4001H112.527L107.063 24.077L101.613 45.3851H94.7132L85.8132 14.7635H92.7138L98.5034 35.953L103.76 14.7635H110.379V14.7785L110.379 14.7781ZM144.837 13.86C135.878 13.86 128.623 21.1303 128.623 30.0741C128.623 39.0329 135.893 46.2886 144.837 46.2886C153.795 46.2886 161.066 39.0329 161.066 30.0741C161.066 21.1157 153.795 13.86 144.837 13.86ZM144.837 39.6251C139.565 39.6251 135.301 35.3604 135.301 30.0891C135.301 24.8174 139.58 20.5531 144.837 20.5531C150.108 20.5531 154.373 24.8174 154.373 30.0891C154.373 35.3458 150.108 39.6251 144.837 39.6251ZM180.775 21.634C176.14 21.634 172.394 25.395 172.394 30.0148V45.3851H165.449V14.7781H172.394V19.4868C172.394 19.4868 175.355 14.7631 181.441 14.7631H183.573V21.634H180.775ZM204.082 28.8897C209.012 26.1057 212.359 20.8194 212.359 14.7631H205.414C205.414 19.8716 201.268 24.0178 196.16 24.0178H195.227V0H188.282V45.3847H195.227V30.9626H196.056C196.737 30.9626 197.626 31.407 198.026 31.9546L207.887 45.3851H216.209L204.082 28.8897Z" fill="black"></path>
</svg>
