<?xml version="1.0" encoding="UTF-8"?>
<!-- Generator: Adobe Illustrator 28.1.0, SVG Export Plug-In . SVG Version: 6.00 Build 0)  -->
<svg xmlns="http://www.w3.org/2000/svg" xmlns:xlink="http://www.w3.org/1999/xlink" version="1.1" id="Слой_1" x="0px" y="0px" viewBox="0 0 240 140" style="enable-background:new 0 0 240 140;" xml:space="preserve">
<style type="text/css">
	.st0{fill:#FFFFFF;}
</style>
<path class="st0" d="M240,0H0v140h240V0z"></path>
<g>
	<path d="M65.4,78.3c-3.1,0-5.5-2.4-5.5-5.5c0-3,2.4-5.4,5.5-5.4s5.5,2.4,5.5,5.4C71.1,76,68.6,78.3,65.4,78.3z M75.7,67.2v-3.7   h-6.8c-1.1-0.4-2.3-0.6-3.4-0.6c-5.8,0-10.4,4.3-10.4,10c0,5.7,4.5,10,10.4,10c5.8,0,10.4-4.3,10.4-10c0-1.9-0.6-3.7-1.6-5.1   L75.7,67.2z M43,78.3c-3.1,0-5.5-2.4-5.5-5.5c0-3,2.4-5.4,5.5-5.4c3.1,0,5.5,2.4,5.5,5.4C48.5,76,46.1,78.3,43,78.3z M43,62.9   c-5.8,0-10.4,4.3-10.4,10c0,5.7,4.5,10,10.4,10s10.4-4.3,10.4-10C53.4,67.2,48.8,62.9,43,62.9z M25.8,82.3h4.8V55.6h-4.8V82.3z    M77.8,82.3h4.8V63.5h-4.8V82.3z M65.4,89c-3.1,0-5.5-2.4-5.5-5.4h-4.8c0,5.7,4.5,10,10.4,10c5.8,0,10.4-4.3,10.4-10H71   C71,86.7,68.6,89,65.4,89z M100.3,71c0.7-2.5,2.6-3.9,5.1-3.9c2.6,0,4.4,1.4,5,3.9H100.3z M105.6,62.9c-5.8,0-10.2,4.3-10.2,10.1   c0,5.7,4,9.8,10.2,9.8c3.4,0,6.5-1.2,8.8-3.6l-3.3-3.2c-1.6,1.5-3.3,2.5-5.4,2.5c-2.7,0-4.7-1.5-5.3-3.9h15v-1.1   C115.5,67.2,111.4,62.9,105.6,62.9z M148.3,62.9c-2.4,0-4.4,0.8-5.8,2.4v-9.8h-4.8v26.9h4.8V72.1c0-2.8,1.7-4.6,4.7-4.6   c2.7,0,4.3,1.7,4.3,4.6v10.2h4.8V71.2C156.3,66,152.9,62.9,148.3,62.9z M127.5,67.5c2,0,3.7,1,5,2.5l3.4-3.2   c-1.8-2.4-4.8-3.7-8.2-3.7c-5.8,0-10.4,4.3-10.4,10c0,5.7,4.5,10,10.4,10c3.4,0,6.4-1.5,8.2-3.7l-3.4-3.3c-1.3,1.4-3,2.5-5,2.5   c-3.1,0-5.4-2.4-5.4-5.4C121.9,69.9,124.3,67.5,127.5,67.5z M92.1,57.7h-4.8v5.8h-2.6v4.2h2.6v14.7h4.8V67.6h2.7v-4.2h-2.7V57.7z    M80.2,55.1c-1.7,0-3.1,1.4-3.1,3.2c0,1.7,1.4,3,3.1,3c1.8,0,3.3-1.4,3.3-3C83.5,56.4,82,55.1,80.2,55.1z M192.9,46.5V56   c-7.7,0-13.8,6-13.8,13.4c0,7.3,6.1,13.4,13.8,13.4v9.6c-13.1,0-23.7-10.2-23.7-23C169.2,56.7,179.8,46.5,192.9,46.5z M193.2,65.3   v9.4h11.4v11.1h9.7V65.3H193.2z"></path>
</g>
</svg>
