<?xml version="1.0" encoding="UTF-8"?>
<svg xmlns="http://www.w3.org/2000/svg" width="100" height="100" viewBox="0 0 100 100" fill="none">
  <path d="M28.0572 48.326L28.1367 22.9036C26.5604 24.5449 25.0462 26.2431 23.5941 27.998C21.2456 30.8303 18.9993 33.7648 16.9415 36.8174C15.3139 39.2193 13.8282 41.7144 12.4921 44.29C10.9745 47.2049 9.68357 50.2324 8.6309 53.3456C8.26522 54.4449 7.94951 55.5601 7.69286 56.6912C7.37027 57.6952 7.32243 58.7672 7.55431 59.796C7.59547 60.8233 7.90902 61.8211 8.46282 62.6873C8.93431 63.574 9.62469 64.3254 10.4684 64.87C11.2157 65.556 12.1282 66.0365 13.1167 66.2646L15.1858 66.5485C16.5669 66.5508 17.9235 66.1838 19.1151 65.4856L20.6914 64.2682C21.6456 63.3168 22.3353 62.1332 22.6924 60.834C23.1429 58.8972 23.7444 56.9987 24.4913 55.1558C25.5401 52.8089 26.731 50.5281 28.0572 48.326Z" fill="#BEC5D9"></path>
  <path d="M75.8768 23.4532C76.5899 23.6099 79.9469 21.6634 79.8606 20.9207C79.7039 19.5284 79.5767 18.6495 79.0838 17.3139C78.5933 15.8797 77.937 14.5076 77.1282 13.2256C76.4769 12.2637 75.7717 11.3393 75.0159 10.4569C74.7013 10.0828 74.3629 9.7293 74.0029 9.39852C73.1743 8.65501 72.2988 7.9654 71.3819 7.33393C71.0108 7.07082 70.6223 6.8333 70.219 6.62301C69.234 6.12285 68.2182 5.68588 67.1777 5.31476C66.7555 5.15971 66.3238 5.0315 65.8854 4.93091C64.7721 4.70183 63.6468 4.53576 62.5148 4.4335C62.0487 4.38203 61.5801 4.3555 61.1111 4.354C59.4425 4.38749 57.7801 4.56992 56.1439 4.89911C55.0876 5.09153 54.0468 5.36102 53.0299 5.70542C51.3274 6.29278 49.6592 6.97524 48.0331 7.74957C46.8975 8.27651 45.7914 8.8625 44.7102 9.49164C42.1975 10.9943 39.7883 12.6636 37.4989 14.4885L75.8768 23.4532Z" fill="#BEC5D9"></path>
  <path d="M43.2543 76.5103C42.8576 76.7102 42.4571 76.9025 42.0528 77.0872C41.0203 77.4895 39.9569 77.8078 38.873 78.0389C38.9185 77.8708 38.9684 77.7005 39.0207 77.5324L28.7204 80.0308C28.6261 80.0512 28.5283 80.0498 28.4346 80.0268C28.3409 80.0038 28.2536 79.9598 28.1794 79.8981C28.1052 79.8364 28.0461 79.7586 28.0064 79.6706C27.9667 79.5826 27.9476 79.4868 27.9504 79.3903L28.005 65.4128C27.0287 66.7824 26.1824 68.2401 25.477 69.7669C24.8751 71.1047 24.246 72.4924 23.8621 73.9097C23.5008 75.2997 23.2884 76.7243 23.2285 78.1593C23.2099 78.5143 23.2152 78.8702 23.2444 79.2245C23.3172 80.2551 23.4598 81.2795 23.6714 82.2907C23.746 82.6324 23.8462 82.968 23.9712 83.2946C24.3117 84.2537 24.7201 85.1873 25.1931 86.0883C25.3744 86.4138 25.5778 86.7264 25.8018 87.0241C26.3855 87.8054 27.0192 88.7162 27.7415 89.4294C28.4814 90.123 29.2767 90.755 30.1195 91.3191C30.4067 91.5244 30.7106 91.7052 31.028 91.8596C31.9376 92.3161 32.8807 92.7025 33.849 93.0157C34.2016 93.1153 34.5605 93.1911 34.9233 93.2429C36.3928 93.47 37.826 93.6971 39.3069 93.5676C41.8493 93.3811 44.3488 92.8106 46.7203 91.8755C49.4656 90.79 52.1162 89.4788 54.6448 87.9553C56.8987 86.5593 59.0783 85.0468 61.1748 83.4241C63.9662 81.2823 66.7008 79.0837 69.3287 76.742C71.5318 74.7736 73.6729 72.7445 75.7518 70.655C76.6286 69.7752 77.4939 68.8841 78.3479 67.9817L43.2543 76.5103Z" fill="#BEC5D9"></path>
  <path d="M96.5296 39.577C96.4836 38.5476 96.1645 37.5489 95.6051 36.6834C95.1334 35.7964 94.4431 35.0443 93.5996 34.4985C92.8523 33.8124 91.9398 33.332 90.9513 33.1039L88.8821 32.8268C87.5011 32.8248 86.1445 33.1917 84.9528 33.8898L83.3766 35.1072C82.4236 36.0594 81.7341 37.2427 81.3756 38.5413C81.3415 38.6458 81.3029 38.748 81.2665 38.8525C80.6379 40.1352 79.9278 41.3763 79.1406 42.5683L80.3648 65.4379C80.3774 65.5754 80.3774 65.7137 80.3648 65.8512C80.8191 65.35 81.2734 64.8451 81.7276 64.3363C83.5128 62.3307 85.2458 60.2798 86.9039 58.1675C88.7345 55.8394 90.5379 53.4909 92.1801 51.0198C93.197 49.526 94.1033 47.96 94.892 46.3341C95.4682 45.1561 95.9682 43.9422 96.3887 42.7001C96.7154 41.6906 96.764 40.6118 96.5296 39.577Z" fill="#BEC5D9"></path>
  <path d="M27.3334 80L28.3334 16.5V13.5L31.3334 13L60.3334 20L76.8334 23.5L78.8334 22L81.8334 20L78.8334 34.5L80.3334 63.5V66.5L78.8334 68L29.8334 80.5L28.3334 80H27.3334Z" fill="white"></path>
  <path d="M79.0792 33.4377C79.5017 41.9096 80.015 50.3747 80.5465 58.8398C80.6782 60.9566 80.8031 63.0734 80.9689 65.188L80.9848 65.3856L80.9962 65.6264C80.998 65.7935 80.9874 65.9605 80.9644 66.126C80.9166 66.461 80.8154 66.7862 80.6646 67.0891C80.3528 67.7141 79.8356 68.2129 79.1996 68.5018C79.119 68.539 79.0364 68.5716 78.952 68.5995L78.8271 68.6403L78.7136 68.6744L78.3297 68.7789L77.562 68.9901L76.0289 69.4126C73.9847 69.9736 71.927 70.496 69.8669 71.0025C67.8069 71.509 65.7309 71.9473 63.664 72.4175L51.2447 75.1794L38.8389 77.9799L32.6338 79.3926C31.6026 79.6333 30.5715 79.8809 29.5448 80.1444L28.7635 80.3443C28.5639 80.3889 28.355 80.3649 28.1707 80.2761C27.9894 80.1899 27.8394 80.0494 27.7414 79.8741C27.6934 79.7873 27.6582 79.694 27.637 79.597C27.6196 79.5096 27.612 79.4204 27.6143 79.3313V78.9338L27.6029 78.1389L27.3985 65.4197L27.2122 52.7005L27.1782 49.5207L27.1645 46.3409C27.1645 45.2802 27.1486 44.2195 27.1645 43.1611C27.1804 42.1027 27.2395 41.0397 27.2826 39.9813C27.3985 37.8622 27.3621 35.7408 27.3758 33.6217C27.3894 31.5026 27.3758 29.3812 27.3758 27.2621L27.3462 20.9025V15.7149C27.3462 15.5764 27.3462 15.4651 27.3462 15.2811C27.3587 14.9263 27.4309 14.5762 27.5597 14.2454C27.694 13.898 27.8981 13.5819 28.1594 13.3165C28.4066 13.062 28.6954 12.8516 29.0134 12.6941C29.5959 12.4061 30.2351 12.2509 30.8849 12.2399C30.9667 12.2399 31.0462 12.2399 31.137 12.2399C31.253 12.2437 31.3685 12.2573 31.4822 12.2808L31.8684 12.3784L32.6406 12.5715L34.1828 12.9576C35.2109 13.2195 36.2406 13.4747 37.2717 13.723C38.3006 13.9774 39.3318 14.2204 40.3652 14.4612L52.7528 17.3662C56.885 18.3246 61.0127 19.299 65.1358 20.2893C67.1959 20.7935 69.2605 21.2841 71.3183 21.7974L74.4049 22.5674L75.9449 22.9603C76.1594 23.0138 76.3818 23.0276 76.6013 23.0012C76.7 22.9961 76.7989 23.0014 76.8965 23.0171C77.0312 23.0395 77.1592 23.0914 77.2713 23.1693C77.442 23.3018 77.5732 23.4785 77.6506 23.6803L76.8329 24.0505C76.792 23.9642 76.7398 23.9143 76.7466 23.9279C76.7534 23.9415 76.7693 23.9392 76.7466 23.9392H76.6467C76.5377 23.9392 76.381 23.971 76.2174 23.9733C76.0503 23.9753 75.8834 23.9585 75.72 23.9233L74.1642 23.594L71.0548 22.9126C68.9834 22.4584 66.9165 21.9859 64.8474 21.5249C60.7121 20.5846 56.5799 19.6306 52.4507 18.6631L40.0427 15.7876C39.0115 15.5469 37.9781 15.3084 36.9424 15.079C35.9067 14.8496 34.8733 14.6247 33.8353 14.3976L32.2817 14.0614L31.505 13.8911L31.1166 13.8071C31.1734 13.8184 31.1007 13.8071 31.0666 13.8071C31.0182 13.8038 30.9696 13.8038 30.9212 13.8071C30.5069 13.8277 30.1011 13.9328 29.7288 14.1159C29.4185 14.2572 29.1744 14.5127 29.0474 14.8291C28.9885 14.9949 28.9555 15.1688 28.9498 15.3447C28.9498 15.4265 28.9498 15.5718 28.9498 15.7081V16.126V17.7159L28.9339 20.8957L28.8453 27.2553C28.8226 29.3767 28.7976 31.4981 28.7953 33.6149C28.793 35.7317 28.7454 37.8577 28.8476 39.9745C28.8839 41.0352 28.9361 42.0959 28.9452 43.1543C28.9543 44.2127 28.9452 45.2734 28.9248 46.3341L28.8907 49.5139L28.8453 52.6937L28.5795 65.4129L28.2956 78.132L28.2797 78.927V79.3245C28.2742 79.3674 28.2742 79.4109 28.2797 79.4539C28.2855 79.4871 28.2962 79.5193 28.3115 79.5493C28.3374 79.6072 28.3811 79.6552 28.4363 79.6863C28.4915 79.7174 28.5553 79.7299 28.6182 79.7219L29.3836 79.5493C30.4193 79.3222 31.4482 79.061 32.4771 78.8021L38.6368 77.2122L50.9539 74.0097L63.2643 70.7867C65.3085 70.2575 67.3685 69.7124 69.4263 69.1968C71.4841 68.6812 73.5532 68.2224 75.6292 67.7818L77.1873 67.4547L77.9663 67.2912L78.3592 67.2299C78.3854 67.2259 78.4113 67.2198 78.4365 67.2117L78.5023 67.1958C78.5455 67.1958 78.5864 67.1686 78.6295 67.1572C78.9768 67.0247 79.2674 66.7759 79.4517 66.4531C79.6012 66.2015 79.6855 65.9165 79.697 65.6241V65.4696V65.2698C79.638 63.1507 79.5358 61.0316 79.4404 58.9102C79.0633 50.4337 78.6704 41.9596 78.1844 33.49L79.0792 33.4377Z" fill="#161B26"></path>
  <path d="M55.5919 32.159C55.4093 32.5533 55.1967 32.933 54.9559 33.2947C54.8969 33.381 54.8355 33.4696 54.7742 33.5536C54.7129 33.6377 54.4653 33.9011 54.7265 33.6218C54.5698 33.7898 54.4335 33.9806 54.2723 34.151C53.9463 34.5064 53.6006 34.8431 53.2366 35.1594C53.0458 35.3252 52.8504 35.4865 52.6528 35.6432C52.6139 35.6775 52.573 35.7093 52.5302 35.7386C52.7982 35.591 52.5847 35.6954 52.5188 35.7386C52.3977 35.8294 52.2773 35.918 52.1577 36.0043C50.1126 37.4369 47.9369 38.6734 45.6596 39.6974C43.654 40.64 41.5644 41.5644 39.9745 43.1543C39.0691 44.0374 38.3945 45.1293 38.0099 46.3341C37.775 47.0537 37.7247 47.8208 37.8636 48.565C38.0025 49.3091 38.3261 50.0064 38.8048 50.5928C39.5589 51.5013 40.74 52.0941 41.887 52.3258C43.3179 52.6119 44.7442 52.3984 46.1524 52.0986C46.8543 51.9465 47.5493 51.7738 48.2556 51.6444L48.5146 51.6035C48.5804 51.6035 48.8121 51.5762 48.56 51.6035C48.6713 51.6035 48.7871 51.5831 48.8939 51.5831C49.0006 51.5831 49.121 51.5831 49.2414 51.5967C49.4412 51.5967 49.1528 51.5967 49.1323 51.5808C49.2232 51.6059 49.3158 51.6241 49.4094 51.6353C49.523 51.6625 49.6366 51.6989 49.7411 51.7352C49.8455 51.7716 49.8024 51.8193 49.6434 51.6921C49.691 51.7195 49.7403 51.7437 49.791 51.7648L49.9273 51.8465C50.1204 51.9555 49.766 51.6807 49.8592 51.7897C49.8932 51.8262 49.9296 51.8603 49.9682 51.8919C50.1181 52.0214 49.8364 51.6648 49.925 51.8329C50.0681 52.1077 49.8433 51.5717 49.9387 51.8624C50.0091 52.0759 49.9228 51.5513 49.9228 51.7829C49.9228 51.9351 49.8751 51.7375 49.9477 51.6557L49.9318 51.733C49.9 51.8306 49.9046 51.8329 49.9432 51.733L49.9773 51.6603C49.9553 51.7054 49.931 51.7494 49.9046 51.792C49.7956 52.0055 50.0431 51.6603 49.9296 51.7557C49.8978 51.7829 49.7706 51.9487 49.732 51.9396C49.732 51.9396 49.9409 51.8011 49.7819 51.8942C49.7115 51.9351 49.6457 51.9805 49.5752 52.0214C49.4594 52.0873 49.3481 52.1486 49.2209 52.2077C48.9665 52.3326 48.7099 52.4507 48.4578 52.5779C47.9104 52.8504 47.3698 53.1389 46.8429 53.4478C45.7421 54.0862 44.7007 54.822 43.7312 55.6464C41.8461 57.2658 40.1699 59.4939 39.677 61.9764C39.3954 63.4005 39.4771 64.9859 40.3584 66.1987C41.1026 67.2224 42.2147 67.9177 43.461 68.1384C44.7557 68.3674 46.0895 68.1979 47.2858 67.6524C48.5032 67.1141 49.5571 66.2351 50.4906 65.2993C50.9335 64.8564 51.3514 64.3908 51.7693 63.9366C52.1872 63.4823 52.2622 62.6987 51.7693 62.2467C51.315 61.8288 50.5246 61.747 50.0795 62.2467C49.6616 62.701 49.2414 63.1757 48.8007 63.6095C48.5736 63.8366 48.3465 64.0456 48.1194 64.2523C48.0035 64.3545 47.8922 64.4567 47.765 64.5543L47.6219 64.6724C47.4107 64.8428 47.7764 64.5657 47.572 64.7088C47.3221 64.8859 47.0723 65.0608 46.8088 65.2153C46.6771 65.2925 46.5431 65.3682 46.4068 65.4424L46.2433 65.5219C46.1865 65.5492 46.132 65.5741 46.0752 65.5969L46.191 65.5469C45.9559 65.6629 45.7048 65.7432 45.4461 65.7854C45.3201 65.7922 45.1955 65.8159 45.0758 65.8558C45.0917 65.8444 45.3802 65.8263 45.1667 65.8422C45.0917 65.8422 45.0168 65.8581 44.9396 65.8626C44.6886 65.8819 44.4365 65.8819 44.1855 65.8626C44.1537 65.8626 43.9016 65.8308 44.1196 65.8626C44.3377 65.8944 44.0878 65.8626 44.056 65.849C43.9198 65.824 43.788 65.7945 43.6563 65.7581C43.5246 65.7218 43.4428 65.6945 43.3383 65.6559L43.2702 65.6287C43.1498 65.5832 43.177 65.5946 43.3519 65.665C43.3106 65.6394 43.2664 65.6189 43.2202 65.6037C43.1112 65.5492 43.0044 65.4901 42.9022 65.4265C42.8591 65.4015 42.8205 65.3743 42.7796 65.347L42.6615 65.263C42.7977 65.3697 42.8295 65.3947 42.7614 65.3379C42.6933 65.2812 42.5956 65.1948 42.5206 65.1108C42.4457 65.0268 42.423 65.0041 42.3707 64.9495C42.2685 64.8405 42.4162 64.9155 42.4207 65.02C42.4207 64.9564 42.2504 64.7701 42.2163 64.7088C42.1822 64.6475 42.1618 64.6111 42.1345 64.5589C42.1073 64.5066 42.08 64.4476 42.055 64.3908C42.1095 64.5203 42.1209 64.543 42.0891 64.4612C42.055 64.3272 42.0028 64.1977 41.971 64.0615C41.9425 63.9731 41.925 63.8816 41.9188 63.7889C41.9188 63.8184 41.9415 64.0637 41.9188 63.8298C41.9017 63.4998 41.9063 63.169 41.9324 62.8395C41.946 62.6465 41.8801 63.1325 41.9324 62.8259L41.9665 62.6374C41.9983 62.4807 42.0346 62.3262 42.0777 62.1718C42.1209 62.0173 42.1663 61.8651 42.2186 61.7175C42.239 61.6585 42.2594 61.5994 42.2822 61.5404C42.3049 61.4813 42.4253 61.1724 42.3571 61.3427C42.289 61.5131 42.3935 61.261 42.4003 61.2451L42.4729 61.0884C42.5343 60.9566 42.6001 60.8294 42.666 60.7C42.8068 60.4342 42.959 60.173 43.1203 59.9187C43.2815 59.6643 43.4246 59.4644 43.5859 59.2509C43.4678 59.394 43.7471 59.0374 43.5859 59.2509L43.7199 59.0851C43.8198 58.9625 43.922 58.8421 44.0265 58.724C44.4085 58.2942 44.8166 57.8884 45.2485 57.5088C45.4529 57.3271 45.6641 57.15 45.8799 56.9796C45.9253 56.9433 46.1456 56.7525 45.9139 56.9524C45.9581 56.9143 46.0044 56.8786 46.0525 56.8456C46.1933 56.7411 46.3341 56.6389 46.4772 56.539C46.9542 56.2028 47.4471 55.8871 47.949 55.5896C48.451 55.2921 48.9643 55.015 49.4844 54.7538C49.9932 54.5299 50.4877 54.275 50.9653 53.9906C51.574 53.5841 52.1214 53.0094 52.2395 52.2576C52.3071 51.8966 52.2876 51.5246 52.1825 51.1726C52.0774 50.8206 51.8898 50.4988 51.6353 50.2339C50.8562 49.4117 49.523 49.1187 48.4328 49.2573C47.6674 49.3549 46.9133 49.5071 46.1615 49.6774C45.8367 49.7501 45.5119 49.8228 45.1871 49.8909L44.7329 49.9818L44.424 50.034C44.3627 50.034 44.0538 50.084 44.3286 50.0522C44.0014 50.0927 43.6724 50.1162 43.3428 50.1226C43.2247 50.1226 43.1066 50.1226 42.9885 50.1226L42.7614 50.1067C42.6706 50.1067 42.4457 50.034 42.775 50.1067C42.5365 50.0499 42.2958 50.0204 42.0596 49.95C41.9483 49.9182 41.8324 49.8819 41.7302 49.8432L41.6576 49.816C41.5395 49.7683 41.5622 49.7797 41.7302 49.8501C41.7302 49.8251 41.544 49.7638 41.5236 49.7524C41.2964 49.6456 41.1193 49.5003 40.9103 49.3844C40.7695 49.305 41.1374 49.5798 40.9466 49.4117L40.8354 49.3163C40.7241 49.2164 40.6287 49.1074 40.5287 49.0006C40.3879 48.8484 40.5787 49.046 40.5787 49.0687C40.5787 49.0369 40.4719 48.9166 40.4538 48.887C40.3947 48.7939 40.3448 48.6963 40.2925 48.5986C40.1835 48.3942 40.347 48.5986 40.3107 48.644C40.3107 48.644 40.2675 48.5214 40.2607 48.5009C40.2343 48.4212 40.2123 48.3401 40.1949 48.2579L40.1744 48.158C40.1494 48.0217 40.1494 48.0285 40.1744 48.1807C40.1131 48.0853 40.1608 47.7809 40.1744 47.681C40.1714 47.614 40.1768 47.5468 40.1903 47.4811C40.0995 47.7082 40.1903 47.5379 40.2017 47.4516C40.2304 47.3002 40.2668 47.1525 40.3107 47.0087C40.3402 46.9133 40.3766 46.8179 40.4061 46.7225C40.4833 46.4795 40.3243 46.886 40.4402 46.6362C40.5428 46.4099 40.6589 46.19 40.7877 45.9775C40.8467 45.8776 40.908 45.7799 40.9739 45.6845C41.0398 45.5891 41.0625 45.5596 41.1056 45.4983C40.9444 45.6913 41.2374 45.3052 41.1056 45.4983C41.4252 45.1061 41.7803 44.7442 42.1663 44.4172C42.258 44.328 42.3576 44.2474 42.4639 44.1764C42.4639 44.1764 42.2572 44.3286 42.4048 44.2241C42.4661 44.1787 42.5275 44.131 42.5911 44.0878C42.8023 43.9356 43.0181 43.7926 43.2384 43.6563C44.152 43.1058 45.0987 42.612 46.0729 42.1777C48.2675 41.1947 50.389 40.0562 52.4212 38.7707C54.1928 37.6147 55.8894 36.2723 57.0637 34.4871C57.2907 34.1405 57.4919 33.7777 57.6656 33.4014C57.9268 32.8359 57.845 32.0886 57.2363 31.7661C56.7093 31.489 55.8735 31.589 55.601 32.1954L55.5919 32.159Z" fill="#FF8B20"></path>
  <path d="M59.8892 48.7008C60.2163 47.9013 60.5706 47.1109 60.9135 46.3227C61.2565 45.5346 61.6267 44.7487 62.0015 43.9697C62.7556 42.4138 63.5187 40.8603 64.3568 39.3431C65.1949 37.8259 66.0671 36.3177 66.9801 34.8437C67.8932 33.3696 68.8835 31.9455 69.9328 30.5646C72.0133 27.7868 74.2051 25.0885 76.699 22.6151C77.3355 22.0019 78.0026 21.4213 78.6977 20.8753C79.0475 20.5982 79.4109 20.3324 79.7879 20.0712C80.1845 19.7939 80.6093 19.5594 81.0553 19.3717C81.3355 19.2531 81.6368 19.1921 81.9411 19.1923C82.1441 19.1975 82.3438 19.2455 82.5271 19.3331C82.7219 19.4276 82.891 19.5679 83.0199 19.7419C83.2137 20.018 83.3384 20.3366 83.3833 20.6709C83.4205 20.9311 83.4373 21.1939 83.4333 21.4567C83.3952 22.3911 83.2766 23.3205 83.079 24.2345C82.9031 25.117 82.6756 25.9884 82.3976 26.8442C82.1231 27.685 81.797 28.508 81.421 29.3085C81.0462 30.1058 80.6623 30.8984 80.2603 31.6707C79.8583 32.4429 79.4404 33.2152 79.002 33.9715C77.2412 36.9768 75.3278 39.8901 73.2693 42.7C72.2495 44.106 71.2047 45.496 70.1236 46.8565C69.0425 48.217 67.8932 49.5275 66.7167 50.8085C65.5366 52.0975 64.2886 53.3227 62.9781 54.4789C62.3124 55.0658 61.6083 55.6076 60.8704 56.1006C60.4874 56.351 60.0813 56.5639 59.6575 56.7365C59.43 56.8276 59.1919 56.8894 58.9489 56.9205C58.6633 56.9615 58.3726 56.8969 58.1312 56.7388L58.4219 56.2959C58.6491 56.4095 59.0284 56.2823 59.3623 56.0915C59.7123 55.8873 60.043 55.6516 60.3503 55.3874C60.9878 54.8431 61.588 54.2565 62.1469 53.6317C63.2961 52.3916 64.3523 51.0538 65.3834 49.7001C66.4146 48.3464 67.3867 46.9473 68.3565 45.5459C69.3264 44.1446 70.278 42.7318 71.1934 41.2941C73.0308 38.4255 74.7161 35.4615 76.3537 32.4952C76.7603 31.7525 77.1737 31.012 77.5643 30.2648C77.955 29.5175 78.3593 28.7748 78.734 28.023C79.1088 27.2712 79.4994 26.5285 79.8969 25.7926C80.2944 25.0567 80.7078 24.3276 81.0712 23.5849C81.2551 23.2147 81.4209 22.8399 81.564 22.4652C81.7078 22.1047 81.8166 21.7313 81.8888 21.35C81.9212 21.1854 81.9372 21.018 81.9365 20.8503C81.9378 20.7547 81.9233 20.6595 81.8934 20.5687C81.8934 20.555 81.8934 20.5573 81.907 20.5573C81.9206 20.5573 81.907 20.5573 81.8729 20.5391C81.7454 20.5345 81.6181 20.5546 81.4982 20.5982C81.1466 20.7348 80.815 20.9181 80.5124 21.1433C80.1812 21.3827 79.8649 21.6421 79.5653 21.9201C78.9589 22.4856 78.382 23.0989 77.8142 23.7235C76.6785 24.9613 75.5815 26.2673 74.5276 27.6051C73.4737 28.9429 72.4539 30.3079 71.4614 31.6934L68.5087 35.8726C67.498 37.249 66.5486 38.6503 65.6401 40.0971C63.8003 42.9794 62.0583 45.9389 60.3707 48.9324L59.8892 48.7008Z" fill="#161B26"></path>
  <path d="M59.0534 59.5076C58.7786 61.8356 57.0365 62.8577 54.4859 63.3506C52.7188 63.6913 49.2937 63.1575 48.4783 63.0213C48.466 63.0188 48.4548 63.0127 48.4461 63.0036C48.4374 62.9946 48.4317 62.9832 48.4297 62.9708C48.4277 62.9584 48.4296 62.9457 48.435 62.9345C48.4405 62.9232 48.4492 62.9138 48.4602 62.9077C49.0166 62.592 50.9018 61.2996 51.7808 57.9313C52.3736 55.66 53.5546 54.5834 55.6874 54.8356C57.8201 55.0877 59.3237 57.1682 59.0534 59.5076Z" fill="#161B26" stroke="#161B26" stroke-width="0.254384" stroke-miterlimit="10"></path>
  <path d="M57.9178 58.0516C57.6121 57.6015 57.2838 57.1672 56.9343 56.7502L56.4164 56.1188L56.3528 56.0393C56.3224 56.0032 56.2944 55.9653 56.2688 55.9257C56.189 55.8025 56.1391 55.6623 56.1234 55.5163C56.1076 55.3704 56.1263 55.2228 56.1779 55.0853L56.2552 54.8832C56.4573 54.379 56.7094 53.8952 56.9366 53.4001C57.1637 52.9049 57.3522 52.3939 57.5612 51.8919L58.7672 48.862L58.9194 48.4827L58.9307 48.4555L58.9603 48.3942C58.9825 48.3528 59.0092 48.314 59.0398 48.2783C59.1025 48.2049 59.1799 48.1454 59.2669 48.1034C59.4338 48.015 59.629 47.9962 59.8097 48.0512C59.8913 48.078 59.968 48.1179 60.0369 48.1693L60.1209 48.2283L60.289 48.3465L60.6206 48.5736L61.9379 49.5139C62.8351 50.1317 63.7163 50.7676 64.6271 51.3673L64.9701 51.5944L65.1427 51.7034L65.229 51.7602H65.2404L65.2744 51.7874L65.3471 51.8533C65.3914 51.8984 65.4309 51.9479 65.4652 52.0009C65.5333 52.106 65.58 52.2235 65.6026 52.3467C65.6252 52.4698 65.6233 52.5963 65.597 52.7187C65.5712 52.8439 65.5194 52.9623 65.4448 53.0662C65.4101 53.1182 65.3698 53.1662 65.3244 53.2093L65.2699 53.2592L65.2517 53.2774L64.9587 53.5727C64.5681 53.9497 64.191 54.3449 63.8004 54.7219C63.4082 55.0968 62.9974 55.4516 62.5693 55.7849C62.1492 56.1256 61.7085 56.4436 61.2656 56.7593C60.8227 57.075 60.3707 57.3793 59.9278 57.6973C59.7007 57.8518 59.4895 58.0176 59.2692 58.1788L59.1647 58.2583C59.1091 58.2994 59.0489 58.3337 58.9853 58.3605C58.859 58.4139 58.7224 58.4379 58.5855 58.4309C58.453 58.4216 58.3242 58.3826 58.2086 58.317C58.0931 58.2514 57.9937 58.1607 57.9178 58.0516ZM58.5991 57.5497C58.5991 57.5497 58.615 57.5497 58.6173 57.5361L58.6332 57.5179L58.6673 57.4815C58.8581 57.2862 59.0534 57.0954 59.2396 56.8933C59.6167 56.4981 59.9846 56.0893 60.3594 55.6872C60.7341 55.2852 61.1157 54.8923 61.5132 54.5198C61.9044 54.139 62.3145 53.7782 62.742 53.4387C63.169 53.1002 63.6141 52.78 64.0434 52.4438L64.3659 52.194L64.3864 52.1804C64.3805 52.1851 64.3752 52.1904 64.3705 52.1963C64.3506 52.2168 64.3324 52.2388 64.316 52.2621C64.2827 52.3117 64.2596 52.3672 64.2478 52.4257C64.2369 52.482 64.2373 52.5399 64.249 52.5961C64.2606 52.6522 64.2834 52.7055 64.316 52.7527C64.3316 52.7767 64.3499 52.7988 64.3705 52.8186C64.3816 52.8303 64.3937 52.841 64.4068 52.8504L64.4204 52.8618L64.3432 52.7959L64.1888 52.6642L63.8776 52.3984C63.044 51.7011 62.1787 51.0356 61.3315 50.3543L60.0482 49.3481L59.728 49.096L59.5667 48.9711L59.4872 48.9075C59.5037 48.9169 59.5213 48.9245 59.5395 48.9302C59.5888 48.9445 59.6419 48.9388 59.6871 48.9143C59.7093 48.9018 59.7293 48.8857 59.7461 48.8666C59.755 48.8569 59.7626 48.8463 59.7688 48.8348V48.8189V48.8393L59.6144 49.2164L58.3743 52.2326C58.1767 52.7391 57.9655 53.2388 57.7769 53.7498C57.5884 54.2609 57.4408 54.7855 57.2341 55.2898L57.1591 55.4646C57.1614 55.4542 57.1614 55.4433 57.1591 55.4329C57.1591 55.4329 57.1591 55.4147 57.1455 55.4079C57.1319 55.4011 57.1614 55.4351 57.1773 55.4624L57.2341 55.5464L57.6884 56.2278C57.9696 56.6834 58.2736 57.1246 58.5991 57.5497Z" fill="#161B26"></path>
  <path d="M57.2363 56.6685C57.2363 56.6685 60.3889 53.877 61.0021 53.2184C61.7948 52.3712 63.0917 50.6246 63.0917 50.6246L63.8049 51.122C63.8049 51.122 70.2258 42.1073 74.0052 35.6205C77.8664 28.9974 80.819 22.1064 81.0462 21.3705C81.5004 19.9146 82.577 20.8844 82.652 21.2796C83.5287 25.9357 78.5909 33.9352 75.293 38.6481C72.4948 42.6456 63.8662 54.1382 62.3603 55.2739C60.9703 56.3278 58.9807 57.9177 58.0086 57.9177C57.0365 57.9177 57.2363 56.6685 57.2363 56.6685Z" fill="#161B26" stroke="#161B26" stroke-width="0.222586" stroke-miterlimit="10"></path>
  <path d="M83.0586 36.1974C85.0743 34.2365 86.4456 31.7086 86.9902 28.9497C87.0416 28.7478 87.0129 28.5337 86.91 28.3525C86.8071 28.1712 86.6381 28.0369 86.4383 27.9776C86.2362 27.9237 86.0211 27.9514 85.8393 28.0546C85.6574 28.1579 85.5234 28.3284 85.4661 28.5295C84.9933 31.0227 83.7641 33.3099 81.9457 35.0799C81.2143 35.7908 82.334 36.9083 83.0631 36.1974H83.0586Z" fill="#161B26"></path>
  <path d="M84.5371 38.2121C84.9206 38.0632 85.2614 37.8219 85.5292 37.5097C85.7971 37.1975 85.9837 36.824 86.0725 36.4223C86.0895 36.3555 86.0801 36.2847 86.0462 36.2246C86.0124 36.1645 85.9567 36.1198 85.8908 36.0998C85.8242 36.0822 85.7535 36.0914 85.6936 36.1254C85.6338 36.1593 85.5896 36.2154 85.5705 36.2815C85.5523 36.3667 85.5296 36.4508 85.5024 36.5336C85.4865 36.5767 85.4706 36.6222 85.4524 36.6653C85.4683 36.629 85.4524 36.6653 85.4524 36.6789L85.4251 36.7312C85.3881 36.8093 85.3463 36.8851 85.3002 36.9583L85.2185 37.0764C85.1912 37.115 85.2185 37.0764 85.2185 37.0878L85.1753 37.1423C85.119 37.2084 85.0591 37.2713 84.9959 37.3308C84.9664 37.3603 84.9323 37.3898 84.9005 37.4171L84.846 37.4625C84.8755 37.4398 84.846 37.4625 84.8323 37.4625C84.7595 37.5132 84.6836 37.5595 84.6052 37.6011C84.5686 37.6237 84.5307 37.6442 84.4917 37.6624L84.4258 37.6919H84.4031C84.337 37.712 84.2811 37.7566 84.2469 37.8166C84.2127 37.8766 84.2028 37.9474 84.2191 38.0144C84.2387 38.0807 84.2833 38.1368 84.3435 38.1707C84.4037 38.2046 84.4748 38.2137 84.5416 38.1962L84.5371 38.2121Z" fill="#161B26"></path>
  <path d="M51.6876 31.3868C50.8498 32.8209 49.6954 34.0446 48.3126 34.9645C46.9298 35.8844 45.355 36.4763 43.7086 36.6948C43.402 36.7311 43.3974 37.2172 43.7086 37.1786C45.4407 36.9589 47.0992 36.3443 48.5563 35.3823C50.0133 34.4202 51.2299 33.1364 52.1123 31.6298C52.1446 31.5744 52.1535 31.5085 52.1371 31.4465C52.1207 31.3845 52.0803 31.3316 52.0249 31.2994C51.9695 31.2671 51.9035 31.2582 51.8416 31.2746C51.7796 31.291 51.7267 31.3314 51.6944 31.3868H51.6876Z" fill="#FF8B20"></path>
  <path d="M73.183 69.3013L28.9293 80.0308C28.835 80.0512 28.7373 80.0498 28.6435 80.0268C28.5498 80.0038 28.4625 79.9598 28.3883 79.8981C28.3141 79.8364 28.255 79.7586 28.2153 79.6706C28.1756 79.5826 28.1565 79.4868 28.1594 79.3903V18.5972L22.6015 17.3707L21.8043 17.1958L21.3796 17.1027C21.0693 17.0459 20.7489 17.0963 20.4711 17.2457C20.1891 17.3979 19.9637 17.6368 19.8283 17.9271C19.7585 18.0759 19.7117 18.2344 19.6898 18.3973C19.6875 18.4381 19.6875 18.4791 19.6898 18.5199C19.6898 18.5631 19.6898 18.6017 19.6898 18.6108V19.5784V22.9853L19.7125 29.815C19.7125 34.3576 19.7511 38.9206 19.742 43.4722C19.7329 48.0239 19.7556 52.5778 19.7011 57.1317C19.6466 61.6856 19.5535 66.2373 19.5194 70.7889C19.5194 73.0602 19.4899 75.3429 19.5398 77.6187L19.6352 81.0256L19.6875 82.7313L19.7079 83.5854V84.0124V84.2258V84.2963V84.4144C19.7402 84.7701 19.9023 85.1014 20.1633 85.3452C20.4243 85.589 20.7659 85.7282 21.1229 85.7363C21.1991 85.7365 21.2751 85.7296 21.3501 85.7158L21.4545 85.6954L21.5022 85.6817L21.7021 85.6318L22.0973 85.5318C22.6265 85.4024 23.1557 85.2684 23.6872 85.1457C24.7479 84.8959 25.8109 84.6642 26.867 84.4235C28.9952 83.9578 31.1052 83.4195 33.213 82.8631C35.3207 82.3066 37.4216 81.7274 39.5271 81.1505C41.6326 80.5736 43.7404 80.0353 45.8549 79.5107C54.3064 77.3757 62.7851 75.3701 71.2365 73.2419C71.8705 73.0785 72.4225 72.6882 72.7878 72.1449C73.1576 71.5936 73.3283 70.9326 73.2716 70.2711L73.183 69.3013Z" fill="#161B26"></path>
  <path d="M28.3457 20.4824C30.1854 20.8254 32.0229 21.1842 33.8604 21.5454C35.6978 21.9065 37.5353 22.2608 39.3682 22.6356L50.3817 24.8501C54.052 25.5905 57.7224 26.3219 61.4019 27.0192C63.2394 27.3712 65.0791 27.721 66.9257 28.0276C67.8478 28.1866 68.77 28.3411 69.6898 28.5182C70.1441 28.6045 70.5983 28.7022 71.0662 28.793L71.7476 28.9429L72.0928 29.0179C72.1504 29.0266 72.2068 29.0419 72.2609 29.0633C72.3132 29.1019 72.3563 29.1951 72.3768 29.4131L72.3472 29.5766C72.2518 29.7742 72.1791 29.8469 72.1201 29.8651C72.0605 29.8659 72.0011 29.8598 71.9429 29.8469L71.5954 29.797L70.9004 29.697C70.4462 29.6243 69.976 29.5539 69.5149 29.4699C68.5928 29.3154 67.6729 29.1383 66.7531 28.9634C64.9156 28.6045 63.0713 28.282 61.227 27.9754C57.5362 27.3417 53.8408 26.7443 50.1432 26.1584L39.0661 24.3777C37.2173 24.0847 35.3708 23.7781 33.5242 23.4692C31.6777 23.1603 29.8288 22.8582 27.9868 22.5357L28.3457 20.4824Z" fill="#161B26"></path>
  <path d="M33.9148 19.5035C34.6511 19.5035 35.248 18.8557 35.248 18.0567C35.248 17.2576 34.6511 16.6099 33.9148 16.6099C33.1785 16.6099 32.5815 17.2576 32.5815 18.0567C32.5815 18.8557 33.1785 19.5035 33.9148 19.5035Z" fill="#161B26"></path>
  <path d="M35.2571 18.0567C35.2619 18.4322 35.1456 18.7994 34.9255 19.1037C34.8085 19.2601 34.6556 19.3861 34.4797 19.4711C34.3038 19.556 34.1101 19.5975 33.9148 19.592C33.7244 19.5799 33.5387 19.528 33.3697 19.4395C33.2007 19.3511 33.0521 19.2282 32.9336 19.0787C32.6899 18.791 32.5478 18.431 32.5293 18.0544C32.5072 17.666 32.6348 17.284 32.8859 16.9869C33.0124 16.8344 33.1705 16.7113 33.3494 16.6262C33.5283 16.5411 33.7235 16.496 33.9216 16.494C34.1186 16.4958 34.3125 16.543 34.4882 16.6321C34.6639 16.7211 34.8167 16.8495 34.9346 17.0073C35.1521 17.3134 35.2652 17.6813 35.2571 18.0567ZM35.2367 18.0567C35.2346 17.8782 35.1969 17.7019 35.1259 17.5381C35.055 17.3743 34.9521 17.2263 34.8233 17.1027C34.5816 16.8626 34.2555 16.7265 33.9148 16.7234C33.7474 16.7252 33.5822 16.7614 33.4294 16.8298C33.2766 16.8981 33.1396 16.9972 33.0267 17.1209C32.7951 17.3799 32.6582 17.7098 32.6383 18.0567C32.6278 18.2342 32.6525 18.4121 32.7109 18.5801C32.7694 18.7481 32.8605 18.9029 32.979 19.0356C33.0978 19.1635 33.2431 19.2638 33.4048 19.3298C33.5664 19.3957 33.7405 19.4255 33.9148 19.4172C34.2567 19.399 34.58 19.256 34.8233 19.0151C34.9518 18.8904 35.0545 18.7415 35.1254 18.577C35.1963 18.4126 35.2342 18.2357 35.2367 18.0567Z" fill="#161B26"></path>
  <path d="M38.1076 20.2597C38.8075 20.2597 39.375 19.6486 39.375 18.8947C39.375 18.1408 38.8075 17.5297 38.1076 17.5297C37.4076 17.5297 36.8402 18.1408 36.8402 18.8947C36.8402 19.6486 37.4076 20.2597 38.1076 20.2597Z" fill="#161B26"></path>
  <path d="M39.3863 18.8947C39.3924 19.2508 39.2806 19.599 39.0683 19.885C38.9555 20.0313 38.8097 20.1488 38.6426 20.2278C38.4756 20.3067 38.2922 20.3449 38.1076 20.3392C37.9268 20.3279 37.7504 20.2792 37.5893 20.1963C37.4283 20.1135 37.2861 19.9982 37.1718 19.8577C36.9385 19.5866 36.8026 19.2452 36.7857 18.8879C36.7639 18.5202 36.8861 18.1585 37.1264 17.8794C37.2468 17.7366 37.3971 17.622 37.5666 17.5435C37.7361 17.465 37.9208 17.4246 38.1076 17.4252C38.2933 17.4265 38.4763 17.4704 38.6425 17.5534C38.8087 17.6365 38.9536 17.7566 39.0661 17.9044C39.279 18.1902 39.3916 18.5383 39.3863 18.8947ZM39.3659 18.8947C39.3595 18.563 39.2248 18.2466 38.9902 18.012C38.7556 17.7774 38.4393 17.6428 38.1076 17.6364C37.949 17.638 37.7924 17.672 37.6474 17.7365C37.5025 17.801 37.3723 17.8944 37.2649 18.0112C37.0441 18.2547 36.9135 18.5665 36.8947 18.8947C36.8851 19.0629 36.9089 19.2314 36.9646 19.3905C37.0203 19.5495 37.107 19.6959 37.2195 19.8214C37.3327 19.9419 37.4708 20.0362 37.6241 20.0978C37.7775 20.1594 37.9425 20.1867 38.1076 20.178C38.4325 20.1627 38.7405 20.0285 38.9729 19.8009C39.0963 19.6843 39.1947 19.5438 39.2622 19.3881C39.3298 19.2323 39.365 19.0645 39.3659 18.8947Z" fill="#161B26"></path>
  <path d="M41.9233 20.9979C42.6082 20.9979 43.1635 20.4051 43.1635 19.6738C43.1635 18.9425 42.6082 18.3496 41.9233 18.3496C41.2384 18.3496 40.6832 18.9425 40.6832 19.6738C40.6832 20.4051 41.2384 20.9979 41.9233 20.9979Z" fill="#161B26"></path>
  <path d="M43.1726 19.6738C43.1772 20.0199 43.067 20.3577 42.8592 20.6345C42.7506 20.7793 42.6091 20.8961 42.4463 20.9751C42.2836 21.0541 42.1043 21.0931 41.9234 21.0888C41.7491 21.0782 41.5788 21.0325 41.4227 20.9545C41.2666 20.8764 41.1279 20.7676 41.0149 20.6345C40.7864 20.3717 40.6528 20.0397 40.6356 19.6919C40.6168 19.3337 40.7373 18.9822 40.9717 18.7107C41.089 18.57 41.2354 18.4565 41.401 18.3781C41.5665 18.2997 41.747 18.2582 41.9302 18.2565C42.1107 18.2564 42.2889 18.2972 42.4514 18.3759C42.6138 18.4546 42.7564 18.5691 42.8682 18.7107C43.0727 18.9896 43.1797 19.328 43.1726 19.6738ZM43.1521 19.6738C43.151 19.509 43.1161 19.3463 43.0497 19.1955C42.9833 19.0447 42.8868 18.9091 42.766 18.797C42.5394 18.5791 42.2378 18.4564 41.9234 18.4541C41.7705 18.4564 41.6197 18.4896 41.48 18.5517C41.3403 18.6138 41.2145 18.7034 41.1103 18.8152C40.8923 19.0502 40.763 19.3538 40.7446 19.6738C40.7343 19.8389 40.7573 20.0045 40.8123 20.1606C40.8674 20.3167 40.9532 20.4601 41.0648 20.5823C41.1761 20.6987 41.3113 20.7896 41.4611 20.8488C41.6108 20.908 41.7717 20.9341 41.9325 20.9252C42.2487 20.9097 42.5487 20.7807 42.7774 20.5618C42.8976 20.4475 42.9932 20.3096 43.058 20.1569C43.1229 20.0041 43.1557 19.8397 43.1544 19.6738H43.1521Z" fill="#161B26"></path>
  <path d="M26.7194 76.1129C28.952 75.6313 31.1802 75.1294 33.4083 74.6297C35.6364 74.13 37.8645 73.6349 40.0904 73.1148C42.3163 72.5946 44.533 72.0541 46.7612 71.5567C48.9893 71.0593 51.2219 70.5755 53.4523 70.0826C57.9131 69.0969 62.3808 68.1429 66.8529 67.1867L73.5577 65.7649C75.7927 65.2947 78.0276 64.8246 80.2671 64.3749L80.3625 64.7996C78.1503 65.3652 75.9312 65.908 73.7122 66.4531L67.0573 68.0771C62.617 69.1514 58.1766 70.2257 53.7294 71.2705C51.5059 71.7906 49.2868 72.3312 47.061 72.84C44.8351 73.3487 42.6024 73.8302 40.372 74.3276C38.1416 74.825 35.9181 75.3384 33.6945 75.8562C31.4709 76.3741 29.2428 76.8851 27.0237 77.4188L26.7194 76.1129Z" fill="#161B26"></path>
</svg>
