<?xml version="1.0" encoding="UTF-8"?>
<svg xmlns="http://www.w3.org/2000/svg" width="100" height="100" viewBox="0 0 100 100" fill="none">
  <path d="M57.6293 71.3954C57.5765 71.1791 57.4756 70.9775 57.334 70.8056C57.1924 70.6337 57.0138 70.4961 56.8116 70.4029C55.7214 69.885 54.6403 68.9674 53.5705 68.5745C52.8755 68.3201 52.1873 68.0498 51.5013 67.7727C49.5586 66.9218 47.653 65.9951 45.7845 64.9927C45.68 65.5055 45.4602 65.9878 45.1418 66.4031C42.7024 69.5466 38.8412 69.3694 37.4194 69.1764C37.2814 69.1571 37.1547 69.0894 37.062 68.9854C36.9692 68.8814 36.9164 68.7479 36.9129 68.6086C36.1201 70.2053 34.9273 71.5695 33.4505 72.5682C31.9738 73.5668 30.2636 74.166 28.4865 74.3072L28.6477 74.423C30.9413 76.0457 33.318 77.5475 35.7682 78.9225C38.2249 80.3049 40.7525 81.5573 43.3406 82.6746C46.4659 84.0215 49.6094 85.3048 52.88 86.2678C54.102 86.6289 55.3375 86.9492 56.5845 87.2217C58.4787 87.6328 60.3911 87.8827 62.3127 88.1302C63.3909 88.2729 64.4757 88.3601 65.5629 88.3914C66.7007 88.4476 67.8329 88.199 68.8426 87.6714C69.8722 87.2883 70.8072 86.6879 71.584 85.9111C72.3608 85.1343 72.9612 84.1993 73.3443 83.1697C73.6746 82.545 73.898 81.8695 74.0052 81.171C72.2758 82.023 70.4221 82.5949 68.5132 82.8654C62.0946 83.8625 59.0534 77.6142 57.6293 71.3954Z" fill="#FFCA41"></path>
  <path d="M95.4075 52.2099C95.3027 51.512 95.1254 50.8269 94.8783 50.1658C94.3236 48.6024 93.6501 47.0838 92.8637 45.6232C92.39 44.7803 91.8699 43.9644 91.3056 43.1793C90.2812 41.7393 89.191 40.3402 88.0508 38.9911C86.5073 37.1822 84.8569 35.4674 83.1085 33.8557C81.1984 32.0727 79.2019 30.3852 77.1509 28.7658C74.4708 26.6489 71.7453 24.5889 68.9357 22.6492C66.7356 21.135 64.4916 19.6829 62.2036 18.2929C60.0838 17.0028 57.9192 15.7793 55.71 14.6225C53.1571 13.2892 50.5406 12.1241 47.8832 11.018C46.3373 10.3449 44.7429 9.78917 43.1135 9.35538C41.7803 9.05119 40.4281 8.83721 39.0661 8.71488C37.9263 8.6625 36.7931 8.91578 35.7841 9.4485C34.7333 9.78793 33.7886 10.3945 33.0427 11.2087C32.2291 11.9553 31.6227 12.8997 31.2824 13.9502C30.7495 14.9592 30.4962 16.0923 30.5488 17.2322C30.651 17.9863 30.7509 18.7403 30.8531 19.5035C31.2452 20.9249 31.9997 22.2202 33.0427 23.2624L34.7666 24.5957C35.8478 25.2309 37.0563 25.6187 38.3052 25.7313C39.3342 25.9724 40.3469 26.2781 41.3374 26.6467C41.372 26.2288 41.455 25.8165 41.5849 25.4179C42.23 23.828 43.6291 20.2144 45.2349 20.1531C47.3858 20.0736 51.8352 23.1489 56.8003 20.3802C58.4401 19.4717 58.5809 24.3163 59.5712 25.9539C59.988 26.6534 60.2736 27.4231 60.4139 28.2252C60.4956 28.6794 63.2598 26.6512 63.4392 27.0895C64.3341 29.2041 60.4979 30.5464 60.4275 30.9893C60.0982 33.0721 59.0647 34.8505 57.9041 35.3229C58.8853 35.9634 59.4054 36.7062 60.3707 37.3671C61.9152 38.4467 63.4445 39.5559 64.9587 40.6945C66.6531 42.0278 68.3111 43.4042 69.9169 44.8442C71.6382 46.3781 73.281 47.9981 74.8388 49.6979C75.3899 50.3036 75.926 50.9244 76.4468 51.5603C76.8897 52.169 77.3145 52.7959 77.7074 53.441C77.2691 53.3024 76.833 53.1502 76.4037 52.9867C74.9978 52.3394 73.6305 51.608 72.2881 50.8381C70.428 49.7683 68.6177 48.6145 66.8371 47.4312C64.9156 46.157 63.019 44.8396 61.1316 43.5155C59.201 42.1527 56.212 43.7721 54.2791 42.423C52.3463 41.0738 45.9708 41.4032 45.1531 40.8989C43.5337 41.1011 44.0879 34.6029 43.277 35.2321C41.9302 36.2769 41.3624 33.5672 41.2329 30.7032C39.7043 29.9627 38.1485 29.2882 36.5631 28.6454C34.9571 27.9726 33.2834 27.4746 31.5709 27.16C30.0724 26.8698 28.5536 26.6967 27.0283 26.6421C26.6603 26.6421 26.2924 26.6421 25.9245 26.6807C24.8205 26.7765 23.722 26.9281 22.6334 27.135C21.232 27.3962 19.9215 28.0208 18.6291 28.5931C17.9655 28.8895 17.3382 29.2614 16.7598 29.7015C15.4175 30.7191 14.0684 31.7071 12.9895 33.0108C12.187 33.9451 11.4472 34.9315 10.775 35.9634C10.5719 36.286 10.3869 36.6197 10.2208 36.9628C9.82561 37.8055 9.47356 38.6708 9.13059 39.5339C9.05337 39.7315 8.98069 39.9314 8.90347 40.1335C8.77561 40.5336 8.67469 40.9419 8.60139 41.3555C8.43104 42.3026 8.31748 43.2633 8.20845 44.2196C8.18574 44.4217 8.16757 44.6238 8.15849 44.826C8.13615 45.2589 8.13994 45.6927 8.16984 46.1252C8.26 47.3042 8.41162 48.4778 8.6241 49.6411C8.70216 50.0844 8.80299 50.5233 8.92618 50.9562C9.05337 51.4104 9.20025 51.8549 9.36681 52.2894C9.79381 53.4251 10.264 54.5289 10.775 55.6191C11.1295 55.2009 11.5604 54.854 12.0446 54.597C12.1213 54.558 12.1825 54.4939 12.218 54.4155C12.2535 54.3371 12.2612 54.2489 12.24 54.1655C11.9197 52.9049 11.0362 48.0194 15.3857 44.5557C19.6307 41.1783 24.2437 44.0492 24.9251 44.4989C24.949 44.5159 24.9775 44.5251 25.0069 44.5251C25.0362 44.5251 25.0648 44.5159 25.0886 44.4989C25.6746 44.0242 28.2525 41.4713 31.6753 41.9074C35.0028 42.3321 36.4973 45.2712 36.4973 45.8095C36.4967 45.8273 36.5001 45.8451 36.5072 45.8615C36.5143 45.8779 36.525 45.8925 36.5385 45.9043C36.552 45.916 36.5679 45.9246 36.5852 45.9294C36.6024 45.9342 36.6205 45.9352 36.6381 45.9321C37.3195 45.8276 39.2183 44.9691 41.1807 46.5794C43.2384 48.2602 42.6502 50.5019 42.5162 50.9834C42.5128 50.9964 42.5123 51.0099 42.5148 51.023C42.5172 51.0362 42.5225 51.0486 42.5303 51.0594C42.5382 51.0703 42.5483 51.0793 42.5599 51.0858C42.5716 51.0923 42.5846 51.0961 42.5979 51.097C43.2612 51.1492 46.659 51.5513 47.4789 54.1496C47.5488 54.3665 47.6065 54.5872 47.6515 54.8105L48.3057 55.2648C50.3498 56.6957 52.3713 58.138 54.4154 59.5553C55.1392 60.0595 55.866 60.5584 56.5958 61.052C57.6747 59.6893 62.4376 54.1178 68.7154 53.5432C75.8745 52.8868 80.676 63.2711 80.676 63.2711L80.8668 65.2925L83.129 67.457L80.1445 70.9525C80.843 70.9132 81.5389 70.8374 82.2295 70.7254C82.9393 70.6537 83.644 70.5384 84.3396 70.3802C84.6673 70.2913 84.989 70.1812 85.3026 70.0508C86.2611 69.6579 87.2968 69.2945 88.2007 68.7539C89.0751 68.1909 89.9098 67.5686 90.6991 66.8915C90.874 66.7507 91.0489 66.6076 91.2102 66.4509C91.4558 66.2159 91.6878 65.9672 91.9052 65.7059C92.4662 65.0245 93.0204 64.3204 93.5314 63.5936C93.7351 63.3066 93.9137 63.0027 94.0652 62.6851C94.4445 61.8901 94.7829 61.0679 95.0986 60.2435C95.1599 60.0867 95.2145 59.9255 95.2599 59.7642C95.562 58.7308 95.6369 57.5974 95.7596 56.5526C95.9208 55.1013 95.621 53.6181 95.4075 52.2099Z" fill="#FFCA41"></path>
  <path d="M56.4596 61.3518C56.4596 61.3518 56.5662 64.5466 57.2775 68.479C57.4772 69.583 57.7246 70.7452 58.0307 71.9111C59.5776 77.8037 62.6239 83.7922 68.5928 82.8563C80.8577 80.9325 80.1763 71.5226 80.1763 71.5226L80.3664 69.7739L83.1616 67.5169L82.3992 66.278L80.7714 65.7697V63.2711C80.7714 63.2711 75.9699 52.8868 68.8199 53.5432C61.6699 54.1996 56.4596 61.3518 56.4596 61.3518Z" fill="white"></path>
  <path d="M57.2775 68.479H55.8879L56.0764 70.1242L58.0307 71.9111C57.7246 70.7452 57.4772 69.583 57.2775 68.479Z" fill="white"></path>
  <path d="M51.316 41.7039C56.4914 41.748 58.2608 39.3153 59.8975 35.5554L61.1138 31.0468C61.9609 30.5147 63.694 29.1313 63.8504 27.8542C64.0068 26.5772 62.6124 26.6705 61.8957 26.8769L60.1691 24.5638L57.9954 17.6405L43.0885 17.9501L41.2307 24.0546C40.3018 24.4379 38.2581 25.3196 37.515 25.7796C36.5861 26.3546 36.9842 27.4604 37.1611 28.6105C37.3027 29.5306 38.9895 29.8492 39.8152 29.8934C40.0216 31.1467 40.6733 34.3434 41.6288 37.1036C42.8231 40.5539 46.1407 41.6597 51.316 41.7039Z" fill="white"></path>
  <path d="M56.8503 61.4722C56.8598 61.4474 56.8659 61.4215 56.8684 61.395C56.8684 61.3609 56.8684 61.345 56.8684 61.3587V61.5109V61.6857L56.8889 62.0355L56.9389 62.7351C56.9752 63.2007 57.0161 63.6686 57.066 64.1342C57.1645 65.0654 57.2811 65.9951 57.4158 66.9233C57.6821 68.7761 58.0614 70.611 58.5515 72.4175C59.0277 74.2167 59.6971 75.959 60.5479 77.6142C61.4065 79.2405 62.5398 80.76 64.0752 81.7253C64.4586 81.963 64.865 82.1616 65.2881 82.3181C65.7142 82.4664 66.1539 82.5722 66.6009 82.6338C67.0533 82.6858 67.5095 82.6957 67.9637 82.6633C68.4248 82.623 68.8834 82.5586 69.3378 82.4702C70.2619 82.3074 71.1717 82.072 72.0588 81.7661C72.9402 81.4731 73.7901 81.0927 74.5958 80.6305C75.3943 80.1633 76.1332 79.6013 76.7967 78.9566C77.4454 78.3056 78.0032 77.5698 78.4547 76.7693C79.1132 75.5678 79.5342 74.2507 79.6948 72.89C79.7198 72.6629 79.738 72.4357 79.7471 72.2086C79.7585 71.9915 79.7585 71.7739 79.7471 71.5567V71.4931C79.7925 70.8118 79.8447 70.119 79.9129 69.4308C79.981 68.7426 80.0401 68.068 80.0923 67.3708C80.1445 66.6735 80.1695 65.9944 80.1741 65.3039C80.1844 64.6077 80.145 63.9117 80.056 63.2211L80.1218 63.5755C79.9901 63.3143 79.8334 63.0258 79.6789 62.7532C79.5245 62.4807 79.3655 62.2036 79.202 61.931C78.8726 61.3882 78.5206 60.859 78.1594 60.3411C77.4455 59.3034 76.6405 58.3312 75.7542 57.4362C74.8999 56.5502 73.9204 55.7942 72.8469 55.1921C71.8117 54.6118 70.6513 54.2907 69.465 54.2564C69.1674 54.2531 68.87 54.2698 68.5746 54.3063C68.2703 54.3291 67.9682 54.3858 67.6661 54.4335C67.0587 54.553 66.46 54.7131 65.8741 54.9128C64.691 55.3353 63.5577 55.886 62.4944 56.5549C61.42 57.2364 60.4036 58.0051 59.4554 58.8535C58.9762 59.2782 58.5129 59.7188 58.0654 60.1799C57.8383 60.407 57.6248 60.6341 57.409 60.8817C57.3023 60.9998 57.1955 61.1088 57.0933 61.2383L56.9389 61.42L56.8616 61.5109L56.8253 61.5563L56.8071 61.579C56.8071 61.5926 56.8207 61.5631 56.8276 61.5449C56.8392 61.5221 56.8468 61.4976 56.8503 61.4722ZM56.069 61.2451C56.0802 61.2138 56.0939 61.1835 56.1098 61.1543C56.1257 61.1293 56.153 61.0907 56.1485 61.0952L56.1666 61.068L56.2052 61.0157L56.2779 60.9135L56.4278 60.7114C56.5278 60.5774 56.63 60.4456 56.7322 60.3139C56.9389 60.0527 57.1524 59.7983 57.3704 59.5462C57.8042 59.0442 58.2585 58.5559 58.7332 58.088C59.6862 57.147 60.7198 56.2913 61.8221 55.5306C62.3791 55.1493 62.9553 54.7968 63.5483 54.4744C64.152 54.1594 64.773 53.8788 65.4085 53.634C66.0526 53.3949 66.712 53.1992 67.3822 53.0481C67.7206 52.9845 68.0636 52.9118 68.4043 52.8754C68.7554 52.8221 69.1098 52.7933 69.465 52.7891C70.8997 52.7833 72.3125 53.1412 73.5715 53.8294C74.7888 54.4926 75.8997 55.3348 76.8671 56.3278C77.8115 57.2955 78.6681 58.3452 79.4268 59.4644C79.8061 60.0209 80.1582 60.6001 80.4921 61.1724C80.8259 61.7448 81.1371 62.3353 81.4255 62.9758L81.5096 63.2597L81.4914 63.3301C81.3054 64.001 81.1665 64.6841 81.0758 65.3743C80.9834 66.0602 80.9122 66.7469 80.8623 67.4344C80.8146 68.1157 80.776 68.8108 80.7419 69.499C80.7078 70.1871 80.6669 70.8753 80.6124 71.5635V71.5C80.6215 71.7545 80.6154 72.0093 80.5943 72.2631C80.5761 72.5107 80.5488 72.7537 80.5125 72.9967C80.4409 73.4816 80.3369 73.9612 80.2013 74.4322C79.649 76.3104 78.5953 78.0026 77.1533 79.3268C76.4485 79.9861 75.6668 80.558 74.8252 81.0303C73.1497 81.9633 71.3329 82.6161 69.4468 82.9631C68.9762 83.0627 68.5009 83.1385 68.0227 83.1902C67.5353 83.2334 67.0451 83.2334 66.5577 83.1902C66.068 83.1349 65.5849 83.0315 65.1155 82.8813C64.6478 82.7235 64.1974 82.5188 63.7709 82.2704C62.9288 81.7642 62.1773 81.1209 61.5473 80.367C60.9232 79.6265 60.376 78.8244 59.9142 77.9731C59.0232 76.2748 58.3202 74.4842 57.8178 72.6333C57.307 70.7991 56.908 68.9354 56.6231 67.0528C56.4755 66.1125 56.3574 65.1699 56.262 64.225C56.2136 63.7526 56.1719 63.2787 56.1371 62.8032L56.0871 62.0923L56.0667 61.7334V61.5563V61.4654V61.3973C56.0648 61.3777 56.0648 61.3579 56.0667 61.3382C56.0634 61.3034 56.0642 61.2684 56.069 61.2338V61.2451Z" fill="#161B26"></path>
  <path d="M62.1832 22.0314C62.1112 20.9999 61.9593 19.9755 61.729 18.9674C61.4945 17.9482 61.1296 16.9634 60.6433 16.0375C59.6284 14.1708 58.1033 12.6315 56.2461 11.5994C56.1288 11.5334 56.0074 11.475 55.8827 11.4245C55.76 11.37 55.6396 11.3087 55.5125 11.2632C55.2618 11.1682 55.0063 11.0863 54.747 11.018L54.3564 10.918C54.2269 10.8885 54.0952 10.868 53.9634 10.8431C53.7022 10.7886 53.4365 10.7613 53.173 10.7318C52.1226 10.6455 51.0671 10.6409 50.016 10.7181C48.9579 10.7808 47.9106 10.966 46.8952 11.2701C45.8692 11.5804 44.902 12.0593 44.0334 12.6873C42.3048 13.9605 40.9818 15.7071 40.2245 17.716C39.8701 18.7025 39.5765 19.7098 39.3455 20.7322C39.0833 21.7423 38.8853 22.7679 38.7527 23.803C38.6467 24.8381 38.6156 25.8796 38.6595 26.9192C38.6823 27.437 38.7072 27.9549 38.7504 28.4705C38.7935 28.9861 38.8231 29.4994 38.8708 30.0104C39.032 32.0546 39.2433 34.0987 39.5522 36.1429C39.6294 36.6516 39.7248 37.1581 39.8202 37.6669C39.8633 37.9213 39.911 38.1757 39.9519 38.4323C39.9928 38.689 40.0382 38.9434 40.0904 39.1977C40.1154 39.3249 40.1381 39.4544 40.1677 39.5816L40.2676 39.9586C40.3357 40.2107 40.4221 40.4583 40.5106 40.7036C41.0446 42.1909 41.8744 43.5546 42.95 44.7124L43.2203 45.0009L43.5087 45.2689C43.6972 45.4551 43.9039 45.6164 44.1061 45.789C44.3082 45.9616 44.5285 46.107 44.7398 46.2682C44.951 46.4295 45.194 46.5544 45.4211 46.6839C46.3625 47.179 47.3861 47.4984 48.442 47.6265C49.4786 47.7536 50.5244 47.7894 51.5672 47.7332C52.0874 47.7151 52.6052 47.6878 53.1253 47.631C53.6491 47.5828 54.169 47.4986 54.6812 47.3789C55.1988 47.251 55.7013 47.0683 56.1802 46.8338C56.6587 46.5891 57.0944 46.2685 57.4703 45.8844C57.8325 45.4995 58.1737 45.0954 58.4924 44.6738C58.7979 44.2477 59.0771 43.8032 59.3282 43.3428L59.5145 42.9953L59.6871 42.6433C59.8074 42.4162 59.9028 42.1663 60.0051 41.9233C60.2096 41.4432 60.3692 40.9451 60.482 40.4356C60.9714 38.4268 61.3288 36.3881 61.5518 34.3327C61.7994 32.2885 61.8879 30.2444 62.0765 28.2002C62.165 27.1758 62.2423 26.156 62.2582 25.1203C62.2865 24.0901 62.2615 23.0591 62.1832 22.0314ZM53.759 39.2205C52.3372 38.6345 52.0964 37.9622 50.2067 37.8963C48.6486 37.8418 46.9088 39.6179 46.0253 38.6072C44.9442 37.3694 46.8793 34.3985 50.8064 34.8914C51.9715 35.0368 55.015 35.5546 55.4171 36.7788C55.8191 38.003 55.1786 39.7974 53.759 39.2114V39.2205ZM56.187 35.2389C53.6727 33.3878 45.9117 33.3742 43.5087 35.2389C41.1057 37.1036 41.1807 27.0032 41.8234 25.427C42.4662 23.8507 43.8676 20.2235 45.4757 20.1621C47.6243 20.0826 51.6217 23.2488 56.5868 20.4915C58.2266 19.583 58.3675 24.4276 59.3555 26.0652C61.9765 30.392 58.6991 37.0809 56.187 35.2298V35.2389Z" fill="#161B26"></path>
  <path d="M50.3385 25.9448C50.3294 27.833 50.3233 29.7197 50.3203 31.6048L50.7745 31.4209C50.3996 31.0636 49.9528 30.7903 49.464 30.6191C49.146 30.5055 49.0098 31.0097 49.3232 31.121C49.7274 31.2647 50.0966 31.4922 50.4066 31.7888C50.443 31.8271 50.4902 31.8535 50.5418 31.8646C50.5935 31.8758 50.6473 31.8711 50.6963 31.8513C50.7453 31.8315 50.7872 31.7974 50.8165 31.7534C50.8459 31.7094 50.8613 31.6577 50.8608 31.6048C50.8608 29.7166 50.8669 27.83 50.879 25.9448C50.879 25.8755 50.8515 25.8091 50.8025 25.7601C50.7535 25.7111 50.6871 25.6836 50.6178 25.6836C50.5485 25.6836 50.4821 25.7111 50.4331 25.7601C50.3841 25.8091 50.3566 25.8755 50.3566 25.9448H50.3385Z" fill="#161B26"></path>
  <path d="M45.1417 27.9186C45.7752 27.9186 46.2887 27.4051 46.2887 26.7716C46.2887 26.1382 45.7752 25.6246 45.1417 25.6246C44.5083 25.6246 43.9948 26.1382 43.9948 26.7716C43.9948 27.4051 44.5083 27.9186 45.1417 27.9186Z" fill="#161B26"></path>
  <path d="M46.3546 26.7716C46.3425 27.0904 46.215 27.3939 45.9958 27.6256C45.77 27.8561 45.4642 27.9911 45.1417 28.0026C44.9758 28.0111 44.81 27.9853 44.6544 27.927C44.4989 27.8687 44.357 27.779 44.2375 27.6636C44.1181 27.5482 44.0236 27.4095 43.9599 27.256C43.8963 27.1026 43.8649 26.9377 43.8676 26.7716C43.8507 26.4256 43.9679 26.0864 44.1946 25.8245C44.3127 25.6914 44.459 25.5865 44.6229 25.5173C44.7868 25.4481 44.9641 25.4165 45.1417 25.4247C45.3163 25.434 45.487 25.4791 45.6433 25.5572C45.7996 25.6354 45.9382 25.7449 46.0503 25.879C46.2576 26.1292 46.3659 26.4468 46.3546 26.7716ZM46.2252 26.7716C46.2189 26.633 46.1835 26.4972 46.1213 26.3731C46.0591 26.2491 45.9714 26.1395 45.864 26.0516C45.6601 25.8883 45.4024 25.8072 45.1417 25.8245C44.8908 25.8396 44.6516 25.936 44.4604 26.0993C44.3578 26.1821 44.2739 26.2856 44.214 26.403C44.1541 26.5204 44.1197 26.6491 44.1129 26.7807C44.118 27.0541 44.2257 27.3156 44.4146 27.5133C44.6035 27.7111 44.8598 27.8306 45.1327 27.8482C45.2746 27.8528 45.4159 27.8291 45.5485 27.7784C45.6811 27.7277 45.8023 27.651 45.9049 27.5529C46.0111 27.4532 46.0946 27.3319 46.1499 27.1971C46.2051 27.0623 46.2308 26.9172 46.2252 26.7716Z" fill="#161B26"></path>
  <path d="M55.417 28.2411C56.0505 28.2411 56.564 27.7276 56.564 27.0941C56.564 26.4607 56.0505 25.9471 55.417 25.9471C54.7835 25.9471 54.27 26.4607 54.27 27.0941C54.27 27.7276 54.7835 28.2411 55.417 28.2411Z" fill="#161B26"></path>
  <path d="M56.6072 27.0942C56.6033 27.4096 56.4809 27.7121 56.2642 27.9414C56.1558 28.0586 56.0249 28.153 55.8794 28.2189C55.7339 28.2849 55.5767 28.321 55.417 28.3252C55.2552 28.3262 55.0949 28.2929 54.9469 28.2275C54.8063 28.1525 54.6783 28.0559 54.5676 27.9414C54.4501 27.8321 54.3477 27.7076 54.2632 27.5711C54.18 27.4249 54.1304 27.262 54.1179 27.0942C54.1014 26.9204 54.1252 26.7452 54.1874 26.5821C54.2497 26.419 54.3487 26.2725 54.4767 26.1539C54.6009 26.0347 54.7488 25.9431 54.9109 25.8851C55.073 25.8272 55.2455 25.8042 55.417 25.8177C55.5817 25.8298 55.7423 25.8746 55.8895 25.9494C56.029 26.0276 56.1543 26.129 56.2597 26.2493C56.4758 26.4784 56.5996 26.7793 56.6072 27.0942ZM56.5209 27.0942C56.5244 26.9485 56.4973 26.8037 56.4413 26.6691C56.3854 26.5345 56.3018 26.4131 56.1961 26.3129C56.0871 26.2204 55.9592 26.153 55.8213 26.1153C55.6903 26.0763 55.5533 26.0616 55.417 26.0721C55.1568 26.0998 54.915 26.2199 54.7356 26.4105C54.5987 26.5512 54.5006 26.7249 54.4508 26.9148C54.4011 27.1047 54.4014 27.3042 54.4517 27.4939C54.4805 27.6342 54.5473 27.7638 54.6448 27.8687C54.7473 27.9684 54.8729 28.041 55.0105 28.0799C55.1408 28.1306 55.2794 28.1568 55.4193 28.1571C55.7051 28.1651 55.9829 28.0617 56.1938 27.8687C56.2988 27.7691 56.382 27.6489 56.4383 27.5156C56.4946 27.3823 56.5227 27.2388 56.5209 27.0942Z" fill="#161B26"></path>
  <path d="M19.3941 68.2661C18.9082 67.1595 18.6242 64.2809 18.543 62.98L18.1795 64.9936L16.4589 65.2972L12.2753 64.3863L9.6438 61.2486V57.3687L11.1283 56.053L12.444 52.9491L12.6802 48.2258L15.3793 44.076L20.5749 42.4903L25.2645 44.4134L28.1322 42.4903C28.9307 42.3329 31.0472 42.0653 33.1255 42.2542C35.2037 42.4431 36.1506 44.7845 36.3643 45.9316C36.5105 45.9091 37.0998 45.8102 38.2874 45.5943C39.475 45.3783 41.4812 46.6513 42.3359 47.3148L42.5384 51.1271H44.1241L47.5991 53.1515V57.3687L46.1821 59.4269L45.5411 61.08L45.8447 62.98L45.5411 65.7358L43.3481 68.03L40.008 69.1433L36.8029 68.9072L35.7233 70.6278C34.9136 71.3138 32.9973 72.8545 31.8097 73.5293C30.3252 74.3727 26.749 74.7101 23.78 73.8329C20.8111 72.9557 20.0014 69.6494 19.3941 68.2661Z" fill="white"></path>
  <path d="M48.6237 10.2412C48.6101 10.2436 48.5961 10.2429 48.5829 10.2392C48.5696 10.2354 48.5573 10.2287 48.547 10.2195C48.5367 10.2103 48.5287 10.1989 48.5235 10.1861C48.5183 10.1733 48.516 10.1595 48.5169 10.1458C48.5555 9.55977 48.9008 6.916 52.0102 6.92054C55.4784 6.92054 55.4693 9.58702 55.4171 10.1548C55.4161 10.1679 55.4123 10.1807 55.406 10.1921C55.3996 10.2036 55.3908 10.2136 55.3803 10.2214C55.3697 10.2291 55.3576 10.2345 55.3447 10.2372C55.3318 10.2398 55.3186 10.2396 55.3058 10.2366C54.8833 10.1344 53.223 9.7551 52.1101 9.82551C50.5724 9.92317 49.0393 10.1707 48.6237 10.2412Z" fill="#161B26"></path>
  <path d="M48.6259 10.2639C48.5971 10.2686 48.5675 10.2621 48.5434 10.2456C48.5193 10.2291 48.5025 10.2039 48.4964 10.1753C48.4929 10.1269 48.4929 10.0784 48.4964 10.03C48.5078 9.93685 48.5169 9.846 48.5305 9.75288C48.556 9.5671 48.5916 9.38285 48.6373 9.20096C48.7239 8.82958 48.8663 8.47348 49.0597 8.14481C49.2651 7.80913 49.5393 7.5208 49.8642 7.29882C50.1892 7.07684 50.5575 6.92626 50.9449 6.85699C51.6988 6.74312 52.4681 6.78564 53.2048 6.98191C53.5729 7.07214 53.9251 7.21764 54.2496 7.41346C54.3305 7.45942 54.4066 7.51345 54.4767 7.57472C54.5517 7.63604 54.6312 7.68828 54.7039 7.75642L54.9037 7.96538C54.9673 8.03579 55.0196 8.11756 55.0786 8.19251C55.2983 8.51526 55.4526 8.87792 55.5329 9.26001C55.5735 9.45002 55.5993 9.6429 55.6101 9.83692C55.6101 9.93458 55.6101 10.0322 55.6101 10.1322V10.1708C55.6075 10.207 55.5982 10.2424 55.5828 10.2753C55.5664 10.3088 55.5435 10.3387 55.5154 10.3632C55.4874 10.3878 55.4547 10.4065 55.4193 10.4184C55.3845 10.4314 55.3473 10.4368 55.3103 10.4343C55.2922 10.4366 55.2739 10.4366 55.2558 10.4343H55.2399L55.174 10.4206C54.4589 10.2701 53.7364 10.1571 53.0095 10.0822C52.6526 10.0451 52.2935 10.0353 51.9352 10.0527C51.5672 10.0686 51.197 10.0777 50.8268 10.0868C50.09 10.0953 49.3546 10.1544 48.6259 10.2639ZM48.6259 10.2208C49.3573 10.1004 50.0818 9.93685 50.8154 9.7983C51.1834 9.73017 51.5513 9.66884 51.9238 9.6325C52.3011 9.59319 52.6813 9.58863 53.0594 9.61887C53.8079 9.69213 54.5493 9.82581 55.2762 10.0186L55.3444 10.0368C55.3301 10.0346 55.3155 10.0346 55.3012 10.0368C55.2752 10.0466 55.254 10.0661 55.2421 10.0913C55.2356 10.1032 55.2317 10.1164 55.2308 10.1299V10.1004C55.2308 10.0141 55.2308 9.9255 55.2308 9.83919C55.233 9.66293 55.2216 9.48676 55.1967 9.31225C55.1486 8.96239 55.0402 8.62351 54.8765 8.31061C54.6953 7.9983 54.4486 7.72897 54.1534 7.52115C53.8581 7.31334 53.5213 7.17199 53.1662 7.10684C52.989 7.07277 52.8051 7.05687 52.6256 7.03415C52.4462 7.01144 52.26 7.03415 52.0782 7.03415C51.8965 7.03415 51.7194 7.07049 51.54 7.08412C51.3605 7.09775 51.1902 7.16135 51.0176 7.19314C50.8449 7.22494 50.6814 7.29989 50.5224 7.36803C50.365 7.43552 50.2131 7.51526 50.0682 7.60652C49.9923 7.64888 49.9201 7.6975 49.8524 7.75188L49.6457 7.91087C49.5844 7.97219 49.5231 8.03579 49.4572 8.09484C49.3946 8.15667 49.3355 8.22188 49.28 8.29017C49.0505 8.57085 48.8679 8.88687 48.7395 9.22594C48.6794 9.40197 48.6346 9.58282 48.6055 9.76651C48.5827 9.85736 48.5759 9.94821 48.5623 10.0391C48.5623 10.0822 48.5623 10.1367 48.5623 10.1708C48.5658 10.1838 48.573 10.1955 48.5831 10.2044C48.5932 10.2133 48.6057 10.219 48.6191 10.2208H48.6259Z" fill="#161B26"></path>
  <path d="M40.8968 25.5542C40.6169 25.2564 40.2741 25.0245 39.8934 24.8756C39.5127 24.7267 39.1037 24.6645 38.6959 24.6934C38.2689 24.7198 37.8546 24.8487 37.488 25.0694C37.1215 25.29 36.8136 25.5958 36.5904 25.9608C36.3822 26.3008 36.2495 26.6816 36.2013 27.0774C36.1531 27.4732 36.1905 27.8747 36.3111 28.2548C36.6043 29.0213 37.1705 29.6523 37.901 30.0264C38.6982 30.4648 39.5931 30.7078 40.4539 30.9803C40.6559 31.0336 40.8707 31.0057 41.0524 30.9025C41.2341 30.7994 41.3682 30.6292 41.426 30.4284C41.4769 30.2265 41.4479 30.0127 41.3451 29.8316C41.2423 29.6505 41.0735 29.5161 40.8741 29.4563C40.5243 29.345 40.1745 29.2292 39.827 29.1224C39.693 29.077 39.5613 29.0338 39.4295 28.9861L39.2456 28.918C39.191 28.8953 38.9844 28.8044 39.1343 28.8749C38.8704 28.7591 38.6167 28.6216 38.3757 28.4638L38.3007 28.4092C38.3007 28.4092 38.4029 28.4955 38.337 28.4388C38.2712 28.382 38.228 28.3456 38.1758 28.2957C38.1235 28.2457 38.0895 28.2094 38.0486 28.1639L37.9895 28.0958C37.9169 28.0163 38.0849 28.2457 37.9895 28.0958C37.9555 28.0436 37.9214 27.9913 37.8919 27.9368C37.8623 27.8823 37.8192 27.7733 37.8669 27.9027C37.8419 27.8346 37.8192 27.7687 37.801 27.7006L37.7806 27.6143C37.7556 27.5121 37.7624 27.6007 37.7806 27.6438C37.7567 27.5147 37.7567 27.3823 37.7806 27.2532C37.7806 27.1578 37.7806 27.3145 37.7806 27.3145C37.7806 27.3145 37.7988 27.21 37.8033 27.1941C37.8187 27.1258 37.8377 27.0583 37.8601 26.992C37.8601 26.9624 37.8828 26.9352 37.8919 26.9057C37.8919 26.9329 37.8192 27.0533 37.8919 26.9284C37.9214 26.8761 37.9487 26.8216 37.9805 26.7694C38.0123 26.7171 38.0463 26.6694 38.0804 26.6195C37.9714 26.7716 38.1167 26.5899 38.1553 26.5536C38.194 26.5173 38.2893 26.4423 38.1781 26.5195C38.2371 26.4787 38.2962 26.44 38.3575 26.4037C38.4188 26.3674 38.5505 26.3197 38.4574 26.3515C38.3643 26.3833 38.4847 26.3515 38.5097 26.3378L38.6278 26.306L38.7164 26.2856C38.814 26.2629 38.7504 26.2856 38.6914 26.2856C38.7731 26.2856 38.8549 26.2856 38.9367 26.2856H39.0298C39.0525 26.2856 39.1842 26.3083 39.0798 26.2856C38.9753 26.2629 39.1002 26.2856 39.1252 26.2856L39.2456 26.3174C39.316 26.3356 39.3841 26.3605 39.4522 26.3855C39.2774 26.3197 39.4931 26.4173 39.5386 26.4423L39.6158 26.4923C39.6589 26.5218 39.7362 26.6127 39.6294 26.4923C39.6862 26.5513 39.7475 26.6036 39.8043 26.6649C39.9531 26.8119 40.1538 26.8944 40.363 26.8944C40.5722 26.8944 40.773 26.8119 40.9218 26.6649C41.0656 26.5144 41.1459 26.3143 41.1459 26.1062C41.1459 25.898 41.0656 25.6979 40.9218 25.5474L40.8968 25.5542Z" fill="#161B26"></path>
  <path d="M62.1106 27.8936C62.2264 27.8163 62.3377 27.7391 62.4649 27.6664C62.4876 27.6528 62.692 27.5733 62.5239 27.6278C62.5888 27.6055 62.6547 27.5865 62.7215 27.571C62.5626 27.6119 62.742 27.5392 62.7624 27.571L62.6648 27.5551L62.7761 27.5801C62.7011 27.5302 62.9123 27.6051 62.7761 27.5801C62.7942 27.5915 62.9646 27.6869 62.8646 27.6256C62.7647 27.5642 62.9146 27.6755 62.935 27.696L62.9964 27.7618C62.9396 27.6869 62.9282 27.671 62.9623 27.7187C62.9964 27.7664 63.0145 27.8027 63.0395 27.8459C63.0645 27.889 63.0759 27.9163 63.0918 27.9526L63.0577 27.8731C63.0872 27.8981 63.094 28.0049 63.1054 28.0457C63.1508 28.2161 63.1054 27.8913 63.1054 28.0685C63.1054 28.1343 63.1054 28.2025 63.1054 28.2661C63.1054 28.0889 63.1054 28.2661 63.0895 28.316C63.0736 28.366 63.0531 28.4409 63.0327 28.5045C62.9873 28.659 63.0986 28.4046 63.01 28.5568C62.9518 28.6652 62.8881 28.7706 62.8192 28.8725C62.801 28.902 62.7806 28.9293 62.7624 28.9565C62.8101 28.8929 62.8147 28.8838 62.7806 28.927C62.7465 28.9702 62.7056 29.0133 62.6693 29.0542C62.5742 29.1561 62.4734 29.2524 62.3672 29.3426C62.3127 29.3903 62.2537 29.4358 62.1969 29.4835C62.315 29.3881 62.1287 29.5334 62.1219 29.538L61.7585 29.7924C61.5132 29.9604 61.2679 30.1262 61.0317 30.3057C60.7024 30.5532 60.498 30.9871 60.7478 31.3868C60.9568 31.7116 61.4769 31.9364 61.8289 31.6684C62.4467 31.2028 63.1395 30.819 63.6937 30.2693C64.2708 29.7269 64.6261 28.9896 64.6907 28.2002C64.7032 27.8138 64.6141 27.431 64.4324 27.0898C64.2507 26.7487 63.9826 26.4612 63.655 26.256C63.272 26.0259 62.8175 25.945 62.3786 26.0288C61.9968 26.1215 61.6381 26.2916 61.3247 26.5285C61.2296 26.5779 61.1456 26.6461 61.0777 26.729C61.0098 26.8119 60.9595 26.9077 60.9298 27.0106C60.9 27.1135 60.8916 27.2214 60.9048 27.3277C60.9181 27.434 60.9528 27.5365 61.0069 27.629C61.061 27.7215 61.1333 27.802 61.2195 27.8656C61.3057 27.9293 61.4039 27.9748 61.5082 27.9993C61.6124 28.0238 61.7206 28.0269 61.8261 28.0083C61.9316 27.9898 62.0323 27.95 62.1219 27.8913L62.1106 27.8936Z" fill="#161B26"></path>
  <path d="M47.1723 36.4495C48.1331 36.9747 49.2105 37.25 50.3055 37.25C51.4005 37.25 52.4779 36.9747 53.4387 36.4495C54.1565 36.0361 53.5114 34.9277 52.7914 35.3388C51.9428 35.8145 50.9724 36.0287 50.0023 35.9543C49.5967 35.9274 49.1953 35.8558 48.8053 35.7408C48.4607 35.6524 48.1292 35.5188 47.8196 35.3434C47.0973 34.9413 46.4568 36.0497 47.1723 36.4518V36.4495Z" fill="#161B26"></path>
  <path d="M18.8267 63.9161C18.9172 65.0197 19.1173 66.1115 19.4241 67.1754C19.7193 68.2366 20.1442 69.2573 20.6892 70.2144C21.2209 71.155 21.9379 71.9779 22.7969 72.6333C23.6537 73.2653 24.6515 73.6793 25.7041 73.8394C25.969 73.8806 26.2359 73.9078 26.5036 73.9211C26.7785 73.937 27.051 73.9597 27.3236 73.9529C27.8692 73.9606 28.4148 73.9318 28.9566 73.8666C30.0386 73.732 31.0935 73.4317 32.0842 72.9763C33.0739 72.5093 33.9813 71.8849 34.7711 71.1275C35.5649 70.3732 36.2253 69.4901 36.7244 68.5155L37.165 68.7017C36.6731 69.7558 36.004 70.7176 35.1868 71.5454C34.3734 72.3767 33.4279 73.0675 32.3885 73.5895C31.3461 74.114 30.2267 74.469 29.0725 74.6411C28.496 74.7221 27.9148 74.7645 27.3327 74.7683C27.0419 74.7797 26.7535 74.7683 26.4628 74.7524C26.1683 74.7396 25.8749 74.71 25.5838 74.6638C24.3961 74.484 23.275 74.0005 22.329 73.2602C21.4074 72.5206 20.6462 71.6009 20.0918 70.5574C19.5451 69.5392 19.1285 68.4564 18.8517 67.3344C18.5647 66.2189 18.3889 65.0777 18.327 63.9275L18.8267 63.9161Z" fill="#161B26"></path>
  <path d="M25.309 44.0015C25.2466 43.9603 25.1754 43.9346 25.1012 43.9263C25.027 43.918 24.9518 43.9274 24.882 43.9538C24.8428 43.9703 24.8055 43.9908 24.7707 44.0151L24.8138 43.981L25.0091 43.8175C25.1431 43.7062 25.284 43.5904 25.4248 43.4791C25.7064 43.2535 25.9994 43.04 26.3038 42.8386C26.9131 42.4256 27.5658 42.0805 28.2503 41.8097C28.9478 41.5316 29.6825 41.3579 30.4307 41.2941C31.188 41.2367 31.9496 41.3019 32.6861 41.4872C34.176 41.8829 35.4846 42.7786 36.3928 44.0242C36.6278 44.3383 36.8302 44.6754 36.997 45.0304C37.0427 45.1287 37.0829 45.2296 37.1173 45.3324C37.1395 45.391 37.1577 45.4509 37.1719 45.5119C37.1943 45.5988 37.2073 45.6879 37.2105 45.7776C37.2105 45.8389 37.2105 45.7549 37.2105 45.7186C37.2035 45.6731 37.1905 45.6288 37.1719 45.5868C37.1334 45.4965 37.0715 45.418 36.9924 45.3597C36.9111 45.3006 36.8154 45.2645 36.7153 45.2552C36.673 45.2513 36.6304 45.2513 36.5881 45.2552H36.6063C36.6585 45.2552 36.7335 45.2257 36.813 45.2053C37.1705 45.1026 37.5338 45.0215 37.9009 44.9622C38.2969 44.9014 38.6988 44.8885 39.0979 44.9236C39.9144 44.9969 40.6975 45.2827 41.3692 45.7526C42.0469 46.2049 42.6062 46.8132 43 47.5265C43.3893 48.2618 43.578 49.0867 43.5473 49.9182C43.5339 50.3227 43.4776 50.7247 43.3793 51.1174L43.3611 51.1855C43.4061 51.0187 43.3899 50.8413 43.3153 50.6854C43.2407 50.5296 43.1127 50.4056 42.9545 50.3361C42.8822 50.3054 42.8056 50.2863 42.7274 50.2793H42.7638C42.8614 50.2793 42.9568 50.2952 43.0522 50.3066C43.243 50.327 43.4292 50.3543 43.6178 50.3861C44.3802 50.5055 45.1195 50.7423 45.8095 51.0879C46.5496 51.4543 47.1918 51.9915 47.6833 52.6551C47.9316 53.0025 48.1261 53.3853 48.2603 53.7907C48.3819 54.1609 48.4716 54.5408 48.5283 54.9263C48.6491 55.7074 48.6206 56.5044 48.4442 57.2748C48.2639 58.037 47.9443 58.7593 47.5016 59.4053C47.0722 60.0399 46.5483 60.6052 45.9481 61.0815L45.8345 61.1701C45.8783 61.1337 45.9116 61.0864 45.9312 61.0329C45.9507 60.9795 45.9558 60.9218 45.9458 60.8657C45.9437 60.8478 45.9391 60.8302 45.9322 60.8135C45.9322 60.7976 45.9322 60.8021 45.9322 60.8135L45.9458 60.8453L45.9958 60.977L46.0889 61.2405C46.2067 61.593 46.3052 61.9516 46.3842 62.3148C46.5525 63.0595 46.5993 63.8265 46.5227 64.5861C46.4775 64.9829 46.3813 65.3722 46.2365 65.7445C46.0876 66.1238 45.8807 66.4778 45.6233 66.7938C45.1535 67.3797 44.5993 67.8925 43.9789 68.3155C42.7421 69.1463 41.3105 69.641 39.8247 69.751C39.0981 69.8146 38.3669 69.8055 37.642 69.7237C37.5466 69.7237 37.4739 69.7056 37.3581 69.6874C37.1947 69.6613 37.0394 69.5984 36.9038 69.5034C36.7683 69.409 36.6549 69.286 36.5718 69.1432C36.4886 69.0004 36.4376 68.8412 36.4223 68.6767C36.4201 68.6358 36.4201 68.5949 36.4223 68.554V68.4496L36.4337 68.3201L36.4564 68.0612L36.4996 67.5456C36.6177 66.1646 36.7403 64.786 36.8448 63.405L37.0083 61.3336L37.0833 60.2979L37.1219 59.7801L37.1401 59.5189V59.3894V59.3576C37.1401 59.3304 37.1401 59.3576 37.1401 59.4053C37.1433 59.4852 37.1659 59.5632 37.2059 59.6324C37.2448 59.7 37.2993 59.7571 37.3649 59.799C37.4306 59.8409 37.5054 59.8664 37.583 59.8732C37.6397 59.8732 37.6238 59.8732 37.5989 59.8732H37.5421H37.4376C37.3163 59.8603 37.1963 59.8375 37.0787 59.8051C36.8751 59.7461 36.6768 59.6701 36.4859 59.5779C36.1426 59.4108 35.8136 59.2155 35.5025 58.9942C35.3457 58.8852 35.2117 58.7898 35.0482 58.6626C34.8762 58.5235 34.7194 58.3667 34.5803 58.1947C34.32 57.8661 34.1137 57.4981 33.9693 57.1045C33.8986 56.9173 33.8387 56.7262 33.7899 56.5321L33.7558 56.389V56.3573C33.7635 56.3989 33.7765 56.4393 33.7945 56.4776C33.8346 56.5663 33.8954 56.6442 33.9716 56.7048C34.0429 56.7579 34.1259 56.7932 34.2136 56.8078C34.3013 56.8224 34.3912 56.8159 34.4758 56.7888C34.57 56.7599 34.6552 56.7076 34.7234 56.6366C34.7556 56.6012 34.7838 56.5624 34.8075 56.5208C34.8234 56.4981 34.8529 56.4118 34.8415 56.4481C34.7095 56.8329 34.5302 57.1999 34.3078 57.5406C33.8476 58.235 33.2014 58.7859 32.443 59.1305C31.7111 59.4548 30.9201 59.6249 30.1195 59.6302C29.7083 59.6449 29.2968 59.6067 28.8953 59.5166C28.4963 59.4222 28.1098 59.2812 27.7438 59.0964C27.0551 58.743 26.4228 58.2891 25.8677 57.7495C25.5951 57.4906 25.3385 57.2181 25.0955 56.9364C24.9751 56.7956 24.8683 56.6502 24.7411 56.5026L24.5708 56.2755L24.5503 56.246C24.6222 56.3358 24.715 56.4068 24.8206 56.4526C24.9247 56.4982 25.0384 56.5175 25.1517 56.5088C25.2649 56.5001 25.3743 56.4636 25.4702 56.4027C25.5688 56.3409 25.6507 56.2559 25.7087 56.1551C25.7837 56.0052 25.736 56.0938 25.736 56.1051L25.6814 56.2414C25.6451 56.33 25.6065 56.4208 25.5656 56.5094C25.4861 56.6843 25.3998 56.8592 25.3044 57.0295C25.108 57.3769 24.8799 57.7054 24.623 58.0107C24.0846 58.6903 23.3441 59.181 22.5085 59.4121C22.2917 59.4651 22.0704 59.4971 21.8475 59.5075C21.7385 59.5075 21.6204 59.5075 21.5227 59.5075L21.257 59.4939C20.9027 59.4757 20.5461 59.453 20.1918 59.4212C19.8374 59.3894 19.4808 59.3508 19.122 59.2986C18.9425 59.2713 18.7631 59.2441 18.5791 59.21L18.5087 59.1964H18.4724C18.5065 59.1964 18.3452 59.1827 18.5405 59.1964C18.6854 59.1978 18.8265 59.1501 18.9408 59.061C19.0551 58.9719 19.1358 58.8466 19.1697 58.7058C19.2037 58.4037 19.1697 58.6399 19.1856 58.5808V58.6467V58.9056C19.1447 60.2911 19.1152 61.6766 19.122 63.0621V64.1001V64.6202C19.1227 64.8336 19.0513 65.041 18.9194 65.2088C18.7875 65.3766 18.6028 65.4949 18.3952 65.5446L18.3225 65.5582H18.2907L18.2226 65.5696L18.0885 65.59L17.8205 65.6264C17.6434 65.6491 17.4639 65.6672 17.2845 65.6831C16.9279 65.7149 16.5668 65.7354 16.2079 65.7422C14.7725 65.7649 13.2802 65.6423 11.8607 65.0063C11.1271 64.688 10.4737 64.21 9.94827 63.6072C9.4225 62.9867 9.04224 62.2564 8.83534 61.4699C8.63901 60.7164 8.55407 59.9382 8.58323 59.16C8.5982 58.3702 8.70646 57.585 8.90575 56.8206C9.11707 55.9908 9.50438 55.2162 10.0414 54.5493C10.3297 54.2038 10.6627 53.8983 11.0317 53.6408C11.1271 53.5749 11.2247 53.5113 11.3269 53.4523L11.4042 53.4091L11.4428 53.3864C11.47 53.3728 11.4632 53.3751 11.4269 53.3864C11.3318 53.4407 11.246 53.5097 11.1725 53.5908C11.0228 53.7627 10.937 53.9809 10.9295 54.2086C10.9249 54.2645 10.9249 54.3208 10.9295 54.3767C10.9295 54.4039 10.9295 54.4312 10.9454 54.4585L10.909 54.3086C10.5487 52.7728 10.5487 51.1745 10.909 49.6388C11.2614 48.0976 11.9762 46.6626 12.9941 45.4528C13.4923 44.8633 14.0537 44.3302 14.668 43.8629C15.2848 43.3886 15.9624 42.9991 16.6826 42.7046C17.4099 42.4169 18.1749 42.2356 18.9539 42.1663C19.7127 42.1015 20.4769 42.1405 21.2252 42.2821C21.9558 42.4217 22.6698 42.6372 23.3556 42.9249C24.0429 43.2138 24.6977 43.5747 25.309 44.0015ZM24.6276 45.0008C23.5308 44.3146 22.2947 43.8816 21.0094 43.7335C20.3887 43.6695 19.7621 43.6901 19.147 43.7948C18.5476 43.9037 17.9681 44.102 17.4276 44.3831C16.8884 44.6698 16.3884 45.0248 15.9399 45.4392C15.4794 45.8504 15.0658 46.3112 14.7066 46.8133C14.007 47.795 13.56 48.9339 13.4052 50.1294C13.2622 51.3231 13.3206 52.5323 13.5778 53.7067L13.6005 53.8111L13.6141 53.8702C13.6255 53.9179 13.6346 53.9656 13.6414 54.0156C13.6547 54.1142 13.66 54.2137 13.6573 54.3131C13.6445 54.7152 13.4928 55.1005 13.228 55.4033C13.0974 55.5497 12.944 55.6739 12.7737 55.7713L12.6829 55.819L12.6466 55.8371L12.4966 55.9166C12.2884 56.0365 12.0908 56.174 11.9061 56.3277C11.4894 56.671 11.1477 57.0962 10.9022 57.5769C10.6368 58.1168 10.4743 58.7014 10.423 59.3008C10.3493 59.9053 10.3623 60.5171 10.4616 61.1179C10.5566 61.6882 10.7828 62.2286 11.1225 62.6964C11.4785 63.1705 11.9365 63.5586 12.4626 63.832C13.0269 64.1181 13.6298 64.3209 14.2524 64.4339C14.8981 64.5595 15.5546 64.6211 16.2125 64.6179C16.5441 64.6179 16.8757 64.6065 17.2096 64.5816C17.3754 64.5702 17.5412 64.5543 17.707 64.5384L17.9432 64.5043L18.1499 64.4771C18.1123 64.4859 18.0789 64.5075 18.0553 64.5381C18.0317 64.5687 18.0194 64.6065 18.0204 64.6452V64.1273V63.0893C18.0068 61.7038 17.9568 60.3206 17.8978 58.9352V58.6762V58.6104C17.8978 58.5309 17.8773 58.7444 17.9137 58.4218C17.9492 58.269 18.0364 58.1331 18.1605 58.0371C18.2847 57.941 18.4382 57.8908 18.595 57.8949L18.8222 57.9176C18.9789 57.9358 19.1447 57.9494 19.3105 57.9585C19.6398 57.9835 19.976 57.9948 20.3121 58.0017C20.6483 58.0085 20.9935 58.0017 21.3229 58.0017H21.575C21.6499 58.0017 21.7067 58.0017 21.7703 57.9858C21.8927 57.9705 22.0135 57.9447 22.1314 57.9085C22.6306 57.7316 23.0655 57.4098 23.3806 56.9841C23.5656 56.7543 23.7291 56.508 23.869 56.2482C23.9394 56.1142 24.0098 55.9802 24.0734 55.8417L24.1665 55.6327L24.2097 55.5282C24.2291 55.4688 24.255 55.4117 24.2869 55.3579C24.4053 55.1509 24.5958 54.9947 24.8221 54.9193C25.0483 54.8439 25.2944 54.8545 25.5134 54.9491C25.6593 55.0111 25.7874 55.1087 25.8859 55.233L25.9449 55.3147L26.088 55.5032C26.1857 55.6304 26.2856 55.7554 26.3901 55.878C26.5968 56.121 26.8148 56.355 27.0419 56.5753C27.4767 57.0069 27.9698 57.3754 28.5069 57.6701C28.757 57.8043 29.0224 57.9081 29.2973 57.9789C29.5705 58.0469 29.8517 58.0774 30.1332 58.0698C30.722 58.0887 31.3086 57.9875 31.8571 57.7723C32.3742 57.5588 32.8195 57.2017 33.1403 56.7434C33.3057 56.51 33.4408 56.2566 33.5423 55.9893C33.5423 56.0052 33.5764 55.8985 33.6037 55.8553C33.6613 55.7514 33.7406 55.661 33.8361 55.5903C33.9316 55.5196 34.0412 55.4702 34.1575 55.4455C34.2737 55.4207 34.3939 55.4212 34.5099 55.4468C34.626 55.4725 34.7352 55.5227 34.8302 55.5941C34.942 55.6765 35.0311 55.7859 35.0891 55.9121C35.1162 55.97 35.1361 56.031 35.1481 56.0938V56.1256L35.1709 56.2346C35.1998 56.3779 35.2385 56.519 35.2867 56.6571C35.3701 56.9196 35.4959 57.1666 35.6592 57.3884C35.7338 57.489 35.8191 57.5811 35.9136 57.6632C36.0203 57.7541 36.1634 57.8654 36.2883 57.9585C36.5355 58.1467 36.7976 58.3146 37.0719 58.4605C37.1918 58.523 37.3163 58.5762 37.4444 58.6194C37.4935 58.6343 37.5436 58.6456 37.5943 58.6535H37.6193H37.7079C37.8891 58.6714 38.0578 58.7541 38.183 58.8863C38.3081 59.0186 38.3814 59.1916 38.3893 59.3735C38.3893 59.4439 38.3893 59.4916 38.3893 59.4848V59.5166L38.3756 59.6461L38.3484 59.905L38.2939 60.4206L38.1848 61.454L37.9804 63.5209C37.8396 64.8995 37.7192 66.2782 37.5898 67.6592L37.4762 68.5926C37.4789 68.609 37.4879 68.6237 37.5012 68.6335H37.5216L37.7488 68.6608C38.402 68.7267 39.0602 68.7267 39.7134 68.6608C41.0049 68.558 42.2468 68.1187 43.3157 67.3866C43.8321 67.0131 44.2912 66.5663 44.6784 66.0602C45.0295 65.595 45.2378 65.038 45.2781 64.4566C45.3234 63.8344 45.2658 63.209 45.1077 62.6056C45.0296 62.2978 44.9348 61.9945 44.8238 61.697L44.7352 61.4699L44.6898 61.3586L44.6784 61.3314L44.6535 61.2723C44.6328 61.2146 44.6169 61.1554 44.6058 61.0951C44.5627 60.8473 44.6111 60.5922 44.742 60.3774C44.8063 60.2709 44.8894 60.177 44.9873 60.1003L45.0759 60.0276C46.0295 59.2412 46.6963 58.1616 46.9724 56.9569C47.0839 56.3693 47.0839 55.766 46.9724 55.1785C46.9212 54.8819 46.8452 54.5902 46.7453 54.3063C46.6554 54.0551 46.5275 53.8192 46.366 53.6067C45.7187 52.7436 44.5172 52.2667 43.2998 52.0009C43.1453 51.9691 42.9909 51.9442 42.8455 51.9214L42.6184 51.8942H42.5911C42.4919 51.8858 42.3946 51.862 42.3027 51.8238C42.1037 51.7366 41.9426 51.5811 41.8484 51.3854C41.8005 51.2872 41.7713 51.1809 41.7621 51.072C41.7548 50.9666 41.7648 50.8607 41.7916 50.7585L41.8075 50.704C41.889 50.4267 41.9385 50.1409 41.9552 49.8523C41.9969 49.2923 41.8895 48.7312 41.644 48.2261C41.3803 47.7144 40.995 47.2753 40.522 46.9473C40.0618 46.6048 39.5199 46.3886 38.9503 46.3205C38.6598 46.2864 38.3663 46.2864 38.0758 46.3205C37.7574 46.3644 37.4419 46.4274 37.131 46.509C37.0424 46.5294 36.9493 46.5521 36.8312 46.5726H36.7857C36.7224 46.5799 36.6583 46.5799 36.595 46.5726C36.4514 46.5611 36.3138 46.5099 36.1975 46.4249C36.084 46.3418 35.9941 46.2306 35.9363 46.1024C35.9098 46.0397 35.8907 45.9742 35.8795 45.9071C35.8763 45.8663 35.8763 45.8253 35.8795 45.7844C35.8795 45.8071 35.8795 45.8208 35.8795 45.7844C35.8795 45.7617 35.8795 45.7458 35.8591 45.7163C35.8399 45.6545 35.8171 45.5938 35.7909 45.5346C35.6668 45.2585 35.5146 44.9959 35.3367 44.751C34.8072 43.9734 34.0832 43.3481 33.2367 42.9376C32.3902 42.5271 31.4509 42.3458 30.5125 42.4116C29.8781 42.4612 29.2545 42.6036 28.6614 42.834C28.0566 43.0739 27.4819 43.3833 26.9488 43.7562C26.6785 43.9424 26.4196 44.1468 26.1652 44.3581L25.7836 44.6874L25.586 44.8623L25.5293 44.9123L25.4611 44.9645C25.3391 45.047 25.1951 45.0911 25.0478 45.0911C24.9004 45.0911 24.7564 45.047 24.6344 44.9645L24.6276 45.0008Z" fill="#161B26"></path>
  <path d="M27.4144 58.3334C27.319 59.9233 27.2509 61.5132 27.21 63.1031C27.1896 63.8889 27.1759 64.6771 27.1668 65.4629C27.1668 65.7355 27.076 66.1602 27.3213 66.3555C27.5666 66.5509 28.0027 66.5259 28.2911 66.5327C28.3559 66.5266 28.4161 66.4966 28.4599 66.4485C28.5037 66.4004 28.528 66.3377 28.528 66.2726C28.528 66.2076 28.5037 66.1449 28.4599 66.0968C28.4161 66.0487 28.3559 66.0186 28.2911 66.0126C28.0958 66.0126 27.9027 65.9694 27.7097 65.9626C27.6166 65.9626 27.6665 65.924 27.687 65.9626C27.6711 65.8694 27.6711 65.7742 27.687 65.681C27.687 65.3448 27.687 64.9996 27.687 64.6703C27.687 63.9571 27.7142 63.2462 27.7347 62.533C27.7771 61.1278 27.8407 59.7234 27.9254 58.3197C27.9459 57.9836 27.4235 57.9859 27.4031 58.3197L27.4144 58.3334Z" fill="#161B26"></path>
  <path d="M31.0848 62.1196C31.5925 62.5395 32.1993 62.8226 32.8473 62.9418C33.8848 63.1267 34.9541 62.9813 35.9045 62.5261C36.085 62.42 36.2162 62.2467 36.2694 62.0441C36.3226 61.8415 36.2935 61.6262 36.1884 61.445C36.0783 61.2689 35.905 61.1414 35.7041 61.0886C35.5032 61.0359 35.2897 61.0618 35.1073 61.1611L35.0368 61.1929C35.1004 61.1656 35.105 61.1634 35.055 61.1929L34.8847 61.2565C34.787 61.2906 34.6871 61.3223 34.5871 61.3496C34.4872 61.3769 34.3736 61.4041 34.2646 61.4246C34.2139 61.4404 34.1611 61.4488 34.1079 61.4495C34.1511 61.4609 34.2442 61.4359 34.1352 61.4495C33.9427 61.4677 33.7491 61.4722 33.556 61.4632C33.4742 61.4632 33.3947 61.4495 33.3129 61.4427C33.2312 61.4359 33.4878 61.4745 33.3425 61.4427L33.2198 61.42C33.0729 61.3908 32.928 61.3521 32.786 61.3042C32.7247 61.2837 32.6656 61.2588 32.602 61.2383C32.5384 61.2179 32.7792 61.3178 32.6588 61.261C32.6316 61.2474 32.5998 61.236 32.5725 61.2201C32.4725 61.173 32.3754 61.1199 32.2818 61.0612L32.1591 60.9794C32.0251 60.8885 32.3204 61.1111 32.2023 61.0135C32.0524 60.8686 31.852 60.7876 31.6436 60.7876C31.4351 60.7876 31.2347 60.8686 31.0848 61.0135C30.8168 61.3065 30.7487 61.8447 31.0848 62.1309V62.1196Z" fill="#161B26"></path>
  <path d="M76.917 68.4632C76.8943 67.5547 76.0085 66.9664 75.2159 66.762C74.72 66.6304 74.199 66.6261 73.7011 66.7496C73.2032 66.8731 72.7445 67.1203 72.3677 67.4684C72.2206 67.6172 72.1382 67.818 72.1382 68.0271C72.1382 68.2363 72.2206 68.4371 72.3677 68.5859C72.5176 68.7307 72.7179 68.8117 72.9264 68.8117C73.1349 68.8117 73.3352 68.7307 73.4851 68.5859L73.5896 68.4927C73.4352 68.6018 73.7032 68.3905 73.5896 68.4927C73.6623 68.4432 73.7382 68.3984 73.8167 68.3587C73.8894 68.3224 74.0143 68.311 73.8008 68.3587C73.841 68.3467 73.8805 68.3323 73.919 68.3156C73.9962 68.2906 74.0757 68.2702 74.1574 68.252C74.196 68.252 74.2369 68.252 74.2755 68.2315C74.0484 68.2861 74.1552 68.2474 74.2256 68.2315C74.296 68.2156 74.3823 68.2315 74.4527 68.2315C74.5231 68.2315 74.6071 68.2429 74.6798 68.2474C74.3959 68.2338 74.6639 68.2474 74.748 68.2679C74.832 68.2883 74.8888 68.3065 74.9569 68.3292L75.0569 68.3656C75.1182 68.3837 74.8502 68.2702 75.0114 68.3474C75.0714 68.3753 75.1297 68.4064 75.1863 68.4405L75.2658 68.4905C75.334 68.5336 75.3567 68.595 75.2045 68.4382C75.2431 68.4791 75.2931 68.5109 75.3317 68.5518C75.3486 68.5733 75.3668 68.5938 75.3862 68.6131C75.2159 68.4678 75.284 68.4655 75.3249 68.5336C75.3356 68.5556 75.3478 68.5768 75.3612 68.5972C75.4316 68.7085 75.3112 68.5132 75.3203 68.4927C75.3232 68.5186 75.3301 68.5439 75.3408 68.5677C75.368 68.6336 75.3181 68.3088 75.3226 68.4541C75.3226 68.665 75.4064 68.8672 75.5554 69.0162C75.7045 69.1653 75.9067 69.2491 76.1176 69.2491C76.3284 69.2491 76.5306 69.1653 76.6797 69.0162C76.8287 68.8672 76.9125 68.665 76.9125 68.4541L76.917 68.4632Z" fill="#161B26"></path>
  <path d="M64.5295 68.9698C64.509 68.0613 63.621 67.473 62.8305 67.2686C62.3344 67.137 61.813 67.1327 61.3147 67.2562C60.8164 67.3797 60.3574 67.6269 59.9801 67.975C59.8331 68.1238 59.7506 68.3245 59.7506 68.5337C59.7506 68.7429 59.8331 68.9436 59.9801 69.0924C60.13 69.2373 60.3303 69.3183 60.5388 69.3183C60.7473 69.3183 60.9476 69.2373 61.0976 69.0924L61.202 68.9993C61.0476 69.1083 61.3156 68.8971 61.202 68.9993C61.2751 68.9503 61.3509 68.9055 61.4292 68.8653C61.5018 68.829 61.6268 68.8176 61.4155 68.8653C61.4549 68.8529 61.4935 68.8385 61.5314 68.8222C61.6109 68.7972 61.6904 68.7767 61.7585 68.7586C61.7971 68.7586 61.838 68.7472 61.8766 68.7381C61.6495 68.7926 61.7562 68.754 61.8266 68.7381C61.897 68.7222 61.9834 68.7381 62.0538 68.7381C62.1242 68.7381 62.2082 68.7495 62.2809 68.754C61.9993 68.7404 62.265 68.754 62.349 68.7745L62.5603 68.8358L62.6602 68.8721C62.7215 68.8903 62.4512 68.7767 62.6125 68.854C62.6727 68.8814 62.7311 68.9125 62.7874 68.9471L62.8692 68.997C62.935 69.0402 62.9577 69.1015 62.8056 68.9448C62.8464 68.9857 62.8941 69.0175 62.9327 69.0606L62.9873 69.1197C62.8169 68.9743 62.8851 68.9721 62.9259 69.0402C62.9259 69.0629 62.9509 69.0834 62.9623 69.1038C63.0327 69.2151 62.9123 69.0198 62.9214 68.9993C62.9253 69.025 62.9321 69.0502 62.9418 69.0743C62.9691 69.1401 62.9214 68.8153 62.9237 68.9607C62.9237 69.1715 63.0074 69.3737 63.1565 69.5228C63.3056 69.6719 63.5078 69.7557 63.7186 69.7557C63.9295 69.7557 64.1316 69.6719 64.2807 69.5228C64.4298 69.3737 64.5136 69.1715 64.5136 68.9607L64.5295 68.9698Z" fill="#161B26"></path>
  <path d="M63.9912 65.0041C63.8072 64.3613 63.0191 64.2387 62.449 64.2478C61.6979 64.253 60.9612 64.4542 60.3117 64.8315C59.9953 65.0044 59.7482 65.2812 59.6121 65.6151C59.4986 65.9308 60.0028 66.0693 60.1141 65.7536C60.1668 65.6375 60.2443 65.5344 60.3412 65.4516C60.4649 65.3455 60.6015 65.2554 60.7478 65.1835C61.0989 65.0099 61.474 64.8897 61.8607 64.827C62.2131 64.7559 62.5754 64.7482 62.9305 64.8042C63.0668 64.8257 63.1983 64.8711 63.3189 64.9382C63.3986 64.9822 63.4581 65.0555 63.4847 65.1427C63.503 65.2095 63.5472 65.2663 63.6075 65.3006C63.6678 65.3349 63.7392 65.3439 63.806 65.3255C63.8729 65.3071 63.9297 65.2629 63.964 65.2027C63.9983 65.1424 64.0073 65.071 63.9889 65.0041H63.9912Z" fill="#161B26"></path>
  <path d="M73.2875 64.9882C73.3011 64.9519 73.2875 64.9882 73.3125 64.9405C73.3375 64.8928 73.3125 64.9269 73.3443 64.8974C73.3787 64.8551 73.4232 64.8223 73.4737 64.802C73.5864 64.7517 73.7057 64.718 73.8281 64.702C74.2007 64.6651 74.577 64.6959 74.9387 64.7929C75.3238 64.8804 75.693 65.0267 76.0335 65.2267C76.1725 65.3087 76.3007 65.4079 76.415 65.522C76.5073 65.6086 76.576 65.7173 76.6149 65.8377C76.6333 65.9045 76.6775 65.9614 76.7377 65.9957C76.798 66.0299 76.8694 66.0389 76.9363 66.0205C77.0032 66.0021 77.06 65.958 77.0943 65.8977C77.1286 65.8374 77.1375 65.766 77.1191 65.6991C76.9306 65.0473 76.2106 64.6793 75.6224 64.4567C74.9751 64.2137 74.1756 64.0479 73.4942 64.2296C73.3345 64.265 73.1861 64.3393 73.0621 64.4459C72.938 64.5525 72.8423 64.6881 72.7833 64.8406C72.672 65.1563 73.1762 65.2948 73.2875 64.9791V64.9882Z" fill="#161B26"></path>
  <path d="M19.9397 61.9106C21.2229 63.0667 23.2103 63.1757 24.7503 62.5375C25.1296 62.3785 25.4453 62.006 25.3022 61.5654C25.1841 61.1997 24.7389 60.8431 24.3301 61.0135C24.0968 61.1106 23.857 61.1911 23.6123 61.2542C23.5101 61.2792 23.4079 61.2996 23.3057 61.3178C23.2035 61.336 23.1694 61.336 23.283 61.3178C23.2285 61.3178 23.1763 61.3292 23.1217 61.3314C22.9282 61.3462 22.7338 61.3462 22.5403 61.3314C22.4903 61.3314 22.4426 61.3314 22.3949 61.3178C22.2428 61.3019 22.3677 61.3451 22.4108 61.3178C22.3722 61.3383 22.1837 61.2769 22.1451 61.2656C21.9912 61.2308 21.8395 61.1868 21.6908 61.1338L21.5818 61.093C21.4523 61.043 21.7113 61.1543 21.6272 61.1111C21.5432 61.068 21.5114 61.0589 21.4569 61.0294C21.3476 60.973 21.2415 60.9109 21.1389 60.8431C21.1048 60.8204 20.9663 60.7159 21.0958 60.8159C21.2252 60.9158 21.0958 60.8045 21.0549 60.7772C20.9055 60.635 20.7064 60.5567 20.5001 60.5593C20.2939 60.5618 20.0967 60.6448 19.9509 60.7907C19.805 60.9366 19.7219 61.1337 19.7194 61.34C19.7169 61.5463 19.7951 61.7453 19.9374 61.8947L19.9397 61.9106Z" fill="#161B26"></path>
  <path d="M24.2846 69.4581C24.9828 70.1512 25.8758 70.6147 26.8444 70.7868C28.6614 71.0934 30.4171 70.387 31.8616 69.29C32.0374 69.1795 32.1644 69.0062 32.2167 68.8053C32.269 68.6044 32.2428 68.3911 32.1433 68.2089C31.9479 67.875 31.4051 67.666 31.0621 67.925C30.3888 68.4701 29.618 68.8824 28.7909 69.1401C28.6251 69.1855 28.457 69.2173 28.2889 69.2537C28.1935 69.2673 28.1958 69.2696 28.2889 69.2537L28.1526 69.2696C28.0663 69.2696 27.9777 69.2832 27.8914 69.2855C27.7447 69.2946 27.5975 69.2946 27.4508 69.2855C27.3917 69.2855 27.3327 69.2855 27.2736 69.2696C27.2146 69.2537 27.1941 69.2696 27.31 69.2696L27.1964 69.2491C26.9523 69.2025 26.7123 69.1364 26.4787 69.0515C26.2675 68.9766 26.5605 69.097 26.4424 69.0379L26.2924 68.9675C26.1948 68.9175 26.0971 68.8653 26.0017 68.8085C25.9063 68.7517 25.8427 68.7108 25.7746 68.6563C25.7383 68.6336 25.7042 68.6064 25.6701 68.5814C25.5293 68.486 25.8064 68.6995 25.7065 68.6109C25.6065 68.5223 25.4975 68.436 25.3998 68.3383C24.6821 67.6161 23.5646 68.7335 24.2824 69.4558L24.2846 69.4581Z" fill="#161B26"></path>
  <path d="M80.9736 65.2925C80.9736 65.2925 81.982 60.4297 81.7367 58.3333C81.5368 56.5981 80.3739 53.1094 77.796 51.4491C73.2535 48.5282 65.1155 46.4523 57.3659 48.8439C53.65 49.9796 50.0432 57.041 55.3967 60.7568C60.7501 64.4726 66.8485 56.4005 68.3634 58.3333C69.8783 60.2662 67.6389 62.9418 70.0442 62.9985C72.4494 63.0553 75.9495 59.6098 76.6559 60.8113C77.3622 62.0128 77.5848 65.3471 80.9736 65.2925Z" fill="#161B26"></path>
  <path d="M80.9394 65.2516C80.9122 65.2335 80.9258 65.1699 80.9236 65.1131V64.9473V64.6111C80.9236 64.384 80.9372 64.1569 80.9485 63.9457L81.0053 62.6192C81.0258 62.1786 81.053 61.7425 81.0644 61.3042C81.0757 60.8658 81.103 60.4365 81.0984 60.0073C81.0939 59.578 81.0984 59.1578 81.0666 58.7558C81.0348 58.3538 80.9576 57.9813 80.9054 57.5679C80.8032 56.7457 80.7214 55.8554 80.3376 55.0854C79.9704 54.3202 79.468 53.6277 78.8544 53.0412C78.5558 52.7602 78.2327 52.5064 77.8891 52.2826C77.7188 52.1713 77.553 52.0737 77.3713 51.9783L76.8103 51.6739L74.539 50.4883C73.7775 50.0671 72.9935 49.6879 72.1905 49.3527C70.5494 48.7452 68.8255 48.3906 67.0778 48.3011C65.3435 48.1615 63.5992 48.2064 61.8743 48.4351C61.0158 48.5486 60.1663 48.7008 59.3191 48.8734C58.8967 48.9597 58.4765 49.062 58.0563 49.1596L57.4317 49.3163C57.2393 49.3652 57.0509 49.429 56.8684 49.5071C56.1017 49.8481 55.4147 50.3455 54.8515 50.9676C54.2774 51.6045 53.8234 52.3401 53.5115 53.1389C52.8937 54.7288 52.8301 56.5345 53.5546 58.0131C53.7344 58.3799 53.9554 58.7251 54.2133 59.042C54.4699 59.3626 54.7591 59.6556 55.0764 59.9164C55.6909 60.4583 56.4053 60.8749 57.1796 61.1429C57.9729 61.406 58.8159 61.4837 59.6439 61.37C60.5014 61.2469 61.3316 60.9788 62.0992 60.5773C62.8641 60.149 63.6063 59.6813 64.3228 59.176C65.0671 58.6623 65.8643 58.2298 66.7008 57.8859C66.9341 57.798 67.1763 57.7356 67.4231 57.6996C67.5618 57.6825 67.7022 57.6825 67.841 57.6996C67.9953 57.7198 68.1442 57.77 68.2793 57.8473C68.4099 57.9273 68.5228 58.0332 68.6109 58.1584C68.6829 58.2592 68.7482 58.3647 68.8063 58.4741C68.9232 58.6882 69.0096 58.9175 69.0629 59.1555C69.29 60.1095 69.0334 61.0271 69.0425 61.8629C69.0379 62.0519 69.0751 62.2396 69.1515 62.4125C69.1925 62.4853 69.2479 62.549 69.3143 62.5997C69.3807 62.6505 69.4566 62.6873 69.5376 62.7078C69.7295 62.7575 69.9278 62.7782 70.1259 62.7691C70.3312 62.7597 70.5351 62.73 70.7346 62.6806C71.5522 62.4807 72.3245 62.0582 73.0854 61.638L74.2392 60.9816C74.6399 60.7638 75.0586 60.5806 75.4906 60.4343C75.731 60.3458 75.9866 60.3064 76.2424 60.3184C76.3997 60.3312 76.5494 60.3914 76.6717 60.491C76.7311 60.5438 76.7824 60.605 76.8239 60.6727C76.858 60.7341 76.8829 60.7818 76.9102 60.8385C77.0844 61.2533 77.236 61.6771 77.3645 62.1082C77.6416 62.9327 77.98 63.7503 78.5955 64.3522C78.901 64.6528 79.2695 64.8816 79.6744 65.0222C79.8786 65.0949 80.0892 65.1481 80.3035 65.1812C80.4102 65.2017 80.5193 65.2062 80.626 65.2198C80.7328 65.2335 80.835 65.2403 80.9394 65.2516ZM81.0053 65.3334C80.8895 65.3334 80.7577 65.3493 80.6374 65.347C80.517 65.3448 80.4102 65.347 80.3035 65.3221C80.0787 65.2999 79.8565 65.2558 79.6403 65.1903C79.2003 65.0618 78.7945 64.8368 78.4524 64.5316C77.7574 63.9184 77.3576 63.0644 77.0351 62.2422C76.8693 61.8311 76.724 61.4064 76.5332 61.043C76.5082 60.9998 76.4809 60.9521 76.4582 60.918C76.4412 60.8917 76.4197 60.8687 76.3946 60.8499C76.3419 60.8133 76.2794 60.7935 76.2152 60.7931C76.0274 60.7993 75.8424 60.8409 75.6701 60.9158C75.2811 61.0927 74.902 61.2906 74.5344 61.5086L73.3625 62.1377C72.5731 62.585 71.7264 62.9228 70.8459 63.1416C70.3757 63.2528 69.8851 63.2434 69.4195 63.1144C69.2871 63.0761 69.1636 63.0118 69.0564 62.9252C68.9491 62.8387 68.8602 62.7315 68.7949 62.6101C68.6882 62.3791 68.6369 62.1263 68.645 61.872C68.645 61.6449 68.6632 61.4177 68.6813 61.1906C68.6995 60.9635 68.7131 60.7522 68.72 60.5365C68.7408 60.1192 68.687 59.7015 68.561 59.3032C68.4693 59.0224 68.3235 58.7623 68.1317 58.5377C68.0876 58.4853 68.0335 58.4421 67.9727 58.4105C67.7615 58.2993 67.3572 58.4105 66.9938 58.5832C66.6304 58.7558 66.2533 58.9738 65.8763 59.1919C65.4993 59.4099 65.12 59.6325 64.7407 59.846C63.9594 60.2685 63.1349 60.6319 62.3127 60.9816C61.4894 61.3572 60.6352 61.6612 59.7597 61.8901C58.8487 62.1288 57.8945 62.1521 56.9729 61.9583C56.5051 61.8508 56.0547 61.678 55.6351 61.445C55.2231 61.2139 54.8358 60.9415 54.479 60.6319C53.7546 60.016 53.1841 59.2394 52.813 58.3639C52.442 57.4885 52.2806 56.5385 52.3417 55.5896C52.4096 54.6668 52.6403 53.7633 53.0231 52.9209C53.3897 52.0838 53.8639 51.2982 54.4336 50.5837C55.0013 49.839 55.7049 49.2086 56.5073 48.7258C56.7189 48.6047 56.939 48.4992 57.1659 48.4101C57.3931 48.3261 57.5975 48.2647 57.8133 48.183C58.029 48.1012 58.2471 48.0535 58.4651 47.9922C58.6832 47.9309 58.9012 47.8763 59.1215 47.8286C59.9966 47.6331 60.8847 47.5018 61.7789 47.4357C63.5732 47.2996 65.3766 47.3445 67.1619 47.5697C68.9403 47.8105 70.6778 48.2079 72.4267 48.6054C73.3153 48.7871 74.1939 49.0145 75.0591 49.2868C75.9255 49.5799 76.753 49.9773 77.5234 50.4701C77.721 50.5905 77.9073 50.7245 78.0958 50.8563C78.2911 50.9981 78.4791 51.1498 78.6591 51.3105C79.0091 51.6356 79.3284 51.9922 79.613 52.3758C80.1547 53.1237 80.6254 53.9206 81.0189 54.7561C81.2188 55.1649 81.4369 55.5669 81.6526 55.978C81.8787 56.3884 82.0701 56.8168 82.225 57.259C82.2978 57.4817 82.354 57.7094 82.3931 57.9404C82.4281 58.1849 82.4471 58.4315 82.4499 58.6786C82.4507 59.1456 82.4211 59.6122 82.3613 60.0754C82.3022 60.5297 82.2273 60.9839 82.1455 61.4177C82.0637 61.8515 81.957 62.2944 81.8457 62.7282C81.7344 63.1621 81.6186 63.5936 81.4732 64.0206C81.4073 64.2341 81.3369 64.4453 81.2597 64.6566C81.2234 64.7633 81.187 64.8678 81.1439 64.9723L81.0848 65.1313C81.0624 65.2002 81.0358 65.2677 81.0053 65.3334Z" fill="#161B26"></path>
  <path d="M64.3546 74.9523C64.2657 74.9388 64.1748 74.948 64.0904 74.9791C64.006 75.0103 63.9309 75.0623 63.8721 75.1304C63.8133 75.1985 63.7728 75.2804 63.7543 75.3684C63.7358 75.4564 63.7399 75.5477 63.7663 75.6337C64.207 77.0078 65.5834 79.3018 68.6155 79.0588C72.4086 78.7545 73.3534 75.6882 73.2807 74.6684C73.208 73.6486 70.1804 75.3748 68.4202 75.4338C67.1483 75.4747 65.3721 75.1022 64.3546 74.9523Z" fill="#161B26" stroke="#161B26" stroke-width="0.2135" stroke-miterlimit="10"></path>
  <path d="M67.7069 66.3532C67.865 67.2882 67.7376 68.2491 67.3412 69.1106C66.9665 69.9146 66.3146 70.4733 65.8308 71.2092C65.4084 71.8406 65.1017 72.8218 65.9353 73.2534C66.7689 73.6849 67.8159 73.4215 68.6858 73.1398C69.0038 73.0376 68.8675 72.5334 68.5473 72.6379C68.12 72.7933 67.6766 72.9 67.2254 72.9558C66.862 72.9876 66.2396 72.9808 65.9898 72.656C65.74 72.3312 66.0648 71.8066 66.2328 71.5408C66.4545 71.2227 66.6965 70.9192 66.9574 70.6323C67.4796 70.0342 67.8629 69.3279 68.0796 68.5641C68.2964 67.8003 68.3413 66.9979 68.2111 66.2147C68.1543 65.8853 67.6501 66.0262 67.7069 66.3532Z" fill="#161B26"></path>
  <path d="M81.3892 66.8347L81.4937 66.7848H81.4642C81.5187 66.7666 81.5732 66.7461 81.63 66.7302C81.6868 66.7143 81.7413 66.703 81.7958 66.6894C81.8503 66.6757 81.8707 66.6735 81.7526 66.6894H81.8639C81.9183 66.6847 81.973 66.6847 82.0274 66.6894C81.9048 66.6697 81.8866 66.6697 81.9729 66.6894L82.0502 66.7075L82.1251 66.7325C82.0161 66.6825 82.0002 66.678 82.0774 66.7166C82.1955 66.8461 81.9525 66.5917 82.0888 66.7166C82.1342 66.762 82.1819 66.8029 82.225 66.8506L82.2818 66.9119C82.3363 66.9778 82.3295 66.9687 82.2614 66.8824C82.2863 66.9312 82.3168 66.9769 82.3522 67.0187C82.3863 67.0755 82.4113 67.1323 82.4431 67.189C82.4749 67.2458 82.459 67.2208 82.4158 67.1254C82.4295 67.1595 82.4408 67.1936 82.4522 67.2277C82.4635 67.2617 82.4794 67.3321 82.4908 67.3844C82.5271 67.5434 82.4908 67.2072 82.4908 67.4139C82.4908 67.4412 82.4908 67.4661 82.4908 67.4934C82.4908 67.582 82.4908 67.5638 82.5044 67.4434C82.497 67.4969 82.4841 67.5494 82.4658 67.6001C82.4385 67.6819 82.4454 67.6683 82.4908 67.5593C82.4772 67.5911 82.4613 67.6229 82.4454 67.6524C82.4295 67.6819 82.3909 67.741 82.3636 67.7864C82.2796 67.9249 82.4658 67.6819 82.3636 67.7864C82.3091 67.8409 82.1751 68.0294 82.0933 68.043L82.1251 68.0181L82.0797 68.0499C82.0206 68.093 81.9616 68.1316 81.9003 68.1725C81.3938 68.4973 80.86 68.7812 80.3376 69.081C80.1641 69.1905 80.04 69.3632 79.9915 69.5626C79.943 69.762 79.974 69.9724 80.0778 70.1494C80.1816 70.3263 80.3502 70.456 80.5479 70.5109C80.7455 70.5659 80.9569 70.5418 81.1371 70.4438C81.6345 70.1553 82.141 69.8828 82.6293 69.5784C83.1234 69.3055 83.5364 68.9067 83.8263 68.4223C83.9692 68.1516 84.0523 67.8533 84.07 67.5477C84.0876 67.242 84.0394 66.9361 83.9285 66.6508C83.7169 66.0428 83.2736 65.5432 82.6952 65.2607C82.0138 64.97 81.2484 65.1403 80.6011 65.4651C80.421 65.5717 80.2902 65.745 80.237 65.9474C80.1839 66.1498 80.2127 66.365 80.3172 66.5463C80.4262 66.7237 80.5994 66.8522 80.8008 66.9051C81.0022 66.958 81.2162 66.9312 81.3983 66.8302L81.3892 66.8347Z" fill="#161B26"></path>
  <path d="M57.5952 68.3656C57.5952 67.6569 56.6617 67.4184 56.1007 67.5388C55.3194 67.7114 54.9378 68.5495 55.0105 69.2877C55.1121 70.0066 55.4407 70.6743 55.9485 71.1933C56.1484 71.4319 56.3713 71.6502 56.614 71.8452C56.7434 71.9451 56.8752 72.0405 57.0069 72.1382L57.1 72.2086C57.0455 72.1654 57.0478 72.1677 57.1 72.2086C57.1523 72.2495 57.2022 72.2972 57.2522 72.3471C57.374 72.461 57.5353 72.5232 57.702 72.5204C57.8688 72.5176 58.0279 72.4501 58.1458 72.3322C58.2638 72.2143 58.3312 72.0552 58.334 71.8884C58.3368 71.7217 58.2747 71.5604 58.1607 71.4386C57.9797 71.2725 57.786 71.1206 57.5816 70.9843L57.4634 70.898C57.4362 70.8753 57.3249 70.7868 57.4112 70.8594C57.3311 70.7883 57.2552 70.7124 57.1841 70.6323C57.0251 70.4665 56.8684 70.2962 56.7298 70.119C56.5913 69.9418 56.7911 70.2121 56.6776 70.0486C56.6412 69.9986 56.6049 69.9464 56.5708 69.8941C56.5118 69.7987 56.4618 69.6988 56.4073 69.5989C56.3755 69.5398 56.4277 69.6647 56.3914 69.5557C56.3732 69.4989 56.3528 69.4422 56.3369 69.3831C56.321 69.324 56.3096 69.265 56.3005 69.2059C56.3142 69.3013 56.3005 69.2196 56.3005 69.1696C56.3005 69.1196 56.3005 69.0492 56.3005 68.9902C56.3005 68.9311 56.2733 69.0651 56.3005 68.9561C56.3164 68.9107 56.3687 68.7994 56.3142 68.8925C56.3346 68.8562 56.4232 68.7653 56.3437 68.838L56.3846 68.7971C56.4421 68.7441 56.4421 68.7441 56.3846 68.7971L56.4277 68.7744C56.3528 68.8016 56.3392 68.8085 56.3846 68.7948C56.4059 68.7872 56.428 68.7818 56.4505 68.7789C56.3619 68.7789 56.3437 68.7926 56.3937 68.7789H56.5027C56.6549 68.813 56.4845 68.7789 56.4868 68.7653L56.5686 68.8085C56.43 68.8085 56.3255 68.2906 56.3278 68.3542C56.3226 68.4417 56.3353 68.5293 56.3652 68.6117C56.3951 68.694 56.4415 68.7694 56.5016 68.8332C56.5617 68.897 56.6342 68.9478 56.7147 68.9825C56.7951 69.0173 56.8818 69.0352 56.9694 69.0352C57.0571 69.0352 57.1438 69.0173 57.2242 68.9825C57.3047 68.9478 57.3772 68.897 57.4373 68.8332C57.4973 68.7694 57.5438 68.694 57.5737 68.6117C57.6036 68.5293 57.6163 68.4417 57.6111 68.3542L57.5952 68.3656Z" fill="#161B26"></path>
</svg>
