<?xml version="1.0" encoding="UTF-8"?>
<svg xmlns="http://www.w3.org/2000/svg" width="100" height="100" viewBox="0 0 100 100" fill="none">
  <path d="M25.9835 54.806C26.5786 53.8089 27.21 52.83 27.8596 51.8534C27.5393 47.4425 27.3485 44.2014 27.3485 44.2014L28.8021 40.4924L28.4705 38.2552C28.4705 38.2552 31.698 37.3989 32.6247 34.528C34.1533 29.7879 30.0536 27.2213 30.0536 27.2213L53.2207 25.8926C54.5558 25.0026 55.938 24.1853 57.3612 23.4442C57.7474 23.2443 58.138 23.0527 58.5332 22.8695C59.3442 22.562 60.1751 22.3101 61.0203 22.1155C61.0203 22.145 61.0203 22.1745 61.0203 22.204C60.8962 22.7183 60.7446 23.2256 60.566 23.7235C60.2632 24.3368 59.9414 24.9372 59.6007 25.5247L72.0928 24.8092C72.4564 24.7879 72.8195 24.8575 73.1495 25.0117C73.4794 25.166 73.7657 25.4 73.9825 25.6927L75.2158 27.353C75.677 27.9767 75.9914 28.6964 76.1356 29.4585C76.3968 28.8135 76.6399 28.1616 76.8397 27.5007C77.2781 26.0652 77.4371 24.5662 77.6097 23.0808C77.6937 22.3541 77.6937 21.6202 77.6097 20.8935C77.4439 19.4808 77.3303 17.9908 76.8125 16.6439C76.2946 15.2971 75.7632 13.9116 74.9251 12.7192C74.3135 11.8227 73.6443 10.9669 72.9218 10.1572C72.6745 9.88906 72.4081 9.63932 72.1246 9.40991C71.3399 8.72632 70.5047 8.10298 69.6261 7.54519C68.6962 7.04624 67.7296 6.61876 66.7348 6.26646C65.4129 5.75315 63.9025 5.63277 62.5239 5.48968C61.7634 5.41619 60.9971 5.42685 60.2389 5.52148C58.6786 5.70772 57.125 5.88488 55.6146 6.32097C54.0474 6.77522 52.5552 7.45661 51.0584 8.08575C49.1001 8.94323 47.2161 9.96121 45.4256 11.1293C42.8154 12.8462 40.2983 14.7007 37.885 16.6848C35.8408 18.3247 33.8762 20.0554 31.9683 21.8497C29.9999 23.7001 28.0927 25.6147 26.2469 27.5938C24.439 29.5274 22.6894 31.5118 20.998 33.5468C18.9932 35.9695 17.0649 38.4498 15.2131 40.9875C13.9661 42.7001 12.7714 44.4671 11.6789 46.2887C10.4687 48.3542 9.41634 50.5082 8.53095 52.7323C8.28805 53.3088 8.0832 53.9006 7.9177 54.5039C7.57172 55.5775 7.51995 56.7242 7.76779 57.8246C7.81744 58.925 8.15839 59.9925 8.7558 60.918C9.2603 61.8667 9.99919 62.6705 10.9022 63.2529C11.7012 63.9858 12.6761 64.4998 13.7322 64.7452L15.9467 65.0404C17.4228 65.0437 18.8729 64.6516 20.1463 63.9048L21.8316 62.6033C22.8511 61.5853 23.5884 60.3197 23.9711 58.9307C24.0597 58.6013 24.1642 58.2765 24.2777 57.954C24.7888 56.8774 25.3725 55.8304 25.9835 54.806Z" fill="#FFCA41"></path>
  <path d="M93.1385 41.6734C93.0907 40.5719 92.7496 39.5032 92.1505 38.5777C91.6473 37.6288 90.9091 36.8249 90.0064 36.2428C89.2078 35.5093 88.2328 34.9952 87.1764 34.7506L84.9642 34.453C83.4873 34.4499 82.0365 34.842 80.7623 35.5887L79.0793 36.8901C78.2628 37.7062 77.626 38.6841 77.21 39.761L78.1185 48.644L78.7999 56.1756C78.8678 56.7487 78.7753 57.3295 78.5327 57.8532C78.2901 58.3769 77.9069 58.823 77.4258 59.1419L73.2602 61.8992L64.5385 65.699L62.7942 66.5099C60.9875 68.5161 59.0682 70.418 57.0456 72.2063C56.3536 72.8119 55.648 73.4063 54.9287 73.9892C53.0607 75.3905 51.0785 76.6326 49.0029 77.7028C48.7122 77.8504 48.4192 77.9912 48.1262 78.1298C47.0709 78.5302 45.9856 78.8469 44.8806 79.0769C44.4263 79.1042 43.9774 79.1095 43.5337 79.0928C43.3066 79.0383 43.0794 78.977 42.8523 78.9088C42.6842 78.8157 42.5184 78.718 42.3572 78.6181C42.0892 78.366 41.8302 78.1048 41.5849 77.8322C41.3306 77.4507 41.0943 77.0577 40.8763 76.6534C40.8604 76.6012 40.849 76.5467 40.8331 76.4944C39.5544 77.0396 38.6822 77.3848 38.4324 77.4279C36.9016 77.6937 32.4362 78.3592 30.8304 75.7972C30.0332 74.5252 29.2587 68.1929 28.6432 61.5267C27.9672 62.6109 27.3603 63.7367 26.8262 64.8973C25.854 67.0255 24.8751 69.2422 24.5117 71.5749C24.2846 73.0307 24.0211 74.5525 24.0575 76.0425C24.0677 76.4132 24.0973 76.7832 24.146 77.1508C24.2492 78.2533 24.4145 79.349 24.6412 80.4329C24.7347 80.8077 24.8492 81.177 24.9841 81.539C25.3547 82.5617 25.7777 83.5647 26.2515 84.5439C26.6954 85.4505 27.228 86.311 27.8414 87.1127C28.8431 88.4323 29.8106 89.7814 31.0894 90.8444C32.2886 91.8415 33.556 92.8886 34.9801 93.57C35.9939 94.067 37.0368 94.5024 38.1031 94.8737C38.5134 95.0142 38.9321 95.1287 39.3568 95.2166C40.5008 95.4429 41.6563 95.6059 42.8183 95.705C43.2545 95.7473 43.6927 95.7671 44.1311 95.764C44.5853 95.764 45.0449 95.7383 45.5097 95.6868C46.7021 95.5619 47.8991 95.412 49.0779 95.1894C50.0551 95.0021 51.0169 94.7424 51.9556 94.4126C53.6348 93.8218 55.2781 93.134 56.8775 92.3525C57.9086 91.8551 58.9216 91.2987 59.8915 90.7036C62.6038 89.0063 65.1851 87.1083 67.6138 85.0254C69.6914 83.2778 71.6634 81.4082 73.5192 79.4267C75.889 76.8631 78.1247 74.1786 80.2172 71.3841C81.9339 69.1417 83.5313 66.8104 85.0028 64.3999C86.4202 62.085 87.6967 59.6867 88.8253 57.2181C90.1472 54.3086 91.3874 51.3309 92.2459 48.2488C92.5457 47.1745 92.8001 46.0888 92.9954 44.9895C93.3377 43.9166 93.3871 42.7718 93.1385 41.6734Z" fill="#FFCA41"></path>
  <path d="M73.0217 21.8043C73.6154 21.6534 74.2334 21.6241 74.8386 21.7182C75.4439 21.8122 76.0238 22.0277 76.5437 22.3517C77.0635 22.6757 77.5124 23.1015 77.8635 23.6034C78.2145 24.1054 78.4604 24.6731 78.5864 25.2725C78.6349 25.4484 78.7512 25.5979 78.9099 25.6879C79.0686 25.778 79.2565 25.8014 79.4324 25.7529C79.6083 25.7044 79.7577 25.588 79.8478 25.4294C79.9379 25.2707 79.9613 25.0828 79.9128 24.9069C79.7385 24.1319 79.4101 23.3999 78.9473 22.7544C78.4845 22.1088 77.8965 21.5629 77.2185 21.1491C76.5405 20.7353 75.7862 20.462 75.0005 20.3456C74.2147 20.2291 73.4136 20.2717 72.6447 20.471C71.7862 20.6823 72.1496 22.011 73.0104 21.7975L73.0217 21.8043Z" fill="#161B26"></path>
  <path d="M26.5 42.4999L31 70.4999L30.5 72.9999L32 76.4999H37L47.5 71.9999L62.5 66.4999L72 62.4999L78.5 56.4999V52.9999L76 30.9999L75.5 26.9999L73 24.9999H67L42.5 25.4999L28.5 25.9999C23 25.9999 26 34.9999 26.5 42.4999Z" fill="white"></path>
  <path d="M26.0017 79.1042C26.27 79.7409 26.6552 80.3218 27.1373 80.8168C27.5897 81.3364 28.1081 81.7945 28.6795 82.1795C29.3877 82.6106 30.1439 82.9574 30.9326 83.213C31.7768 83.5275 32.6735 83.6771 33.5741 83.6536C33.753 83.6479 33.9231 83.5743 34.0496 83.4477C34.1762 83.3211 34.2498 83.1511 34.2555 82.9722C34.2515 82.7928 34.1784 82.6218 34.0514 82.4949C33.9245 82.368 33.7536 82.2949 33.5741 82.2908C32.8321 82.3122 32.0929 82.1919 31.396 81.9365C30.7085 81.7137 30.0487 81.4134 29.429 81.0416C28.9716 80.7369 28.5562 80.3734 28.1934 79.9605C28.0071 79.7647 27.8348 79.5559 27.6779 79.3359C27.5958 79.2212 27.52 79.1021 27.4507 78.9793C27.4235 78.9339 27.4008 78.8862 27.3735 78.8385C27.2917 78.6863 27.3735 78.8748 27.3372 78.7612C27.2843 78.588 27.167 78.4416 27.0093 78.3524C26.8516 78.2632 26.6657 78.238 26.49 78.282C26.4024 78.3053 26.3203 78.3459 26.2486 78.4014C26.1769 78.4568 26.117 78.526 26.0724 78.6049C26.0278 78.6838 25.9993 78.7708 25.9887 78.8608C25.9781 78.9509 25.9856 79.0421 26.0107 79.1292L26.0017 79.1042Z" fill="#161B26"></path>
  <path d="M17.7978 77.1282C18.7817 79.4995 20.2288 81.6508 22.0542 83.456C24.4572 85.8863 27.5053 87.7124 30.8781 88.3847C33.2217 88.8328 35.6319 88.7996 37.9622 88.287C38.1381 88.2386 38.2876 88.1222 38.3776 87.9635C38.4677 87.8048 38.4911 87.6169 38.4426 87.441C38.3941 87.2651 38.2777 87.1157 38.1191 87.0256C37.9604 86.9355 37.7725 86.9121 37.5966 86.9606C36.5999 87.1747 35.5857 87.2971 34.5667 87.3263C34.067 87.3399 33.565 87.3263 33.0676 87.299C32.6134 87.2672 32.1977 87.2218 31.823 87.1628C30.1512 86.9009 28.5375 86.3515 27.0533 85.5388C26.3489 85.154 25.6727 84.7199 25.0296 84.2396C24.832 84.092 24.8638 84.117 24.6684 83.9603C24.514 83.8376 24.3618 83.7104 24.2142 83.5832C23.9257 83.3357 23.6463 83.0835 23.3738 82.8201C22.855 82.3163 22.3629 81.7856 21.8997 81.2302C21.793 81.1007 21.6862 80.9713 21.5817 80.8395L21.4455 80.6669C21.5431 80.7918 21.3864 80.5874 21.3546 80.5465C21.1547 80.2831 20.9617 80.0135 20.7754 79.7379C20.4083 79.2057 20.0694 78.6545 19.7602 78.0867C19.6216 77.8346 19.4922 77.5802 19.3695 77.319C19.3173 77.2077 19.265 77.0919 19.2151 76.9806C19.1651 76.8693 19.1379 76.7944 19.2014 76.9488L19.1242 76.7694C19.0714 76.596 18.9541 76.4495 18.7965 76.3599C18.6389 76.2703 18.453 76.2446 18.277 76.2879C17.95 76.3787 17.6592 76.7875 17.7978 77.135V77.1282Z" fill="#161B26"></path>
  <path d="M45.487 65.02L38.6731 67.1822C38.5784 67.2122 38.4781 67.2205 38.3798 67.2066C38.2814 67.1926 38.1874 67.1567 38.1048 67.1015C38.0221 67.0464 37.953 66.9733 37.9023 66.8878C37.8517 66.8024 37.8209 66.7066 37.8123 66.6076L37.3285 60.7182C37.3154 60.5583 37.3606 60.3992 37.4558 60.2701C37.5511 60.1411 37.6898 60.0509 37.8464 60.0163L44.5716 58.5377C44.6623 58.5181 44.7561 58.5177 44.847 58.5366C44.9378 58.5555 45.0237 58.5932 45.0991 58.6474C45.1744 58.7015 45.2376 58.7709 45.2844 58.851C45.3313 58.9311 45.3608 59.0201 45.3711 59.1124L45.9389 64.3181C45.9563 64.4693 45.9207 64.6219 45.8383 64.7498C45.7559 64.8777 45.6318 64.9732 45.487 65.02Z" fill="#585A61" stroke="#434C62" stroke-width="2.09639" stroke-miterlimit="10"></path>
  <path d="M25.7268 21.0685L25.1113 21.1457C24.9001 21.1707 24.6866 21.2025 24.4753 21.2343C24.0529 21.2933 23.6327 21.3705 23.2171 21.4478C22.4054 21.6015 21.6055 21.8118 20.8231 22.0769C20.4554 22.2044 20.0965 22.3561 19.7488 22.5312C19.4301 22.6851 19.1261 22.8675 18.8403 23.0763C18.5919 23.2593 18.3668 23.4721 18.1703 23.71C18.002 23.9251 17.8679 24.1649 17.7728 24.4209C17.6792 24.6993 17.6279 24.9903 17.6206 25.284C17.6127 25.6171 17.6424 25.95 17.7092 26.2765C17.7601 26.554 17.8667 26.8182 18.0226 27.0533C18.1741 27.272 18.3822 27.4455 18.6245 27.5552C18.9314 27.6945 19.259 27.7827 19.5944 27.8164C19.9881 27.8587 20.3844 27.8709 20.78 27.8528C21.609 27.8164 22.4834 27.6938 23.3897 27.5666C24.346 27.4133 25.3125 27.3328 26.281 27.3258C26.8346 27.3316 27.3857 27.4017 27.9232 27.5348C28.5424 27.6858 29.1248 27.96 29.6357 28.3411C30.166 28.7436 30.6004 29.2587 30.9076 29.8492C31.0513 30.1204 31.172 30.403 31.2688 30.6941C31.3649 30.9714 31.4408 31.2553 31.4959 31.5436C31.6334 32.1882 31.6334 32.8546 31.4959 33.4992C31.3369 34.1925 31.0083 34.8356 30.5397 35.3707C30.1192 35.8369 29.6223 36.2279 29.0702 36.5268C28.5892 36.7889 28.0842 37.0042 27.562 37.1696C26.6094 37.4627 25.6303 37.662 24.6389 37.7647C22.7734 37.9568 20.8936 37.9652 19.0265 37.7896C18.7324 37.7608 18.4595 37.6236 18.261 37.4046C18.0625 37.1857 17.9525 36.9007 17.9525 36.6052C17.9525 36.3096 18.0625 36.0246 18.261 35.8057C18.4595 35.5868 18.7324 35.4495 19.0265 35.4207C20.7936 35.2503 22.5493 35.1027 24.2119 34.8006C25.0094 34.6665 25.7948 34.4682 26.5604 34.2078C27.2713 33.9557 27.8914 33.6105 28.1866 33.2766C28.3254 33.1392 28.427 32.9688 28.4819 32.7815C28.5414 32.5423 28.5537 32.2939 28.5182 32.0501C28.4986 31.8966 28.4674 31.7447 28.4251 31.5958C28.3896 31.4559 28.3425 31.3192 28.2843 31.187C28.1923 30.9644 28.051 30.7656 27.8709 30.6056C27.6665 30.4332 27.4282 30.3055 27.1714 30.2308C26.8369 30.129 26.4929 30.062 26.1447 30.0309C25.3131 29.9691 24.478 29.9691 23.6463 30.0309C22.756 30.0764 21.8293 30.1672 20.864 30.1831C20.3576 30.1995 19.8507 30.1813 19.3468 30.1286C18.7824 30.0771 18.2281 29.9463 17.7001 29.7402C17.1031 29.5046 16.5678 29.1355 16.1352 28.6614C15.723 28.1968 15.4044 27.6569 15.1972 27.0715C15.0056 26.5329 14.885 25.9717 14.8383 25.4021C14.7862 24.7912 14.8431 24.176 15.0064 23.585C15.0935 23.2803 15.2075 22.9839 15.3471 22.6992C15.4921 22.4217 15.6608 22.1573 15.8513 21.9088C16.2141 21.4396 16.6469 21.029 17.1346 20.6914C18.0031 20.0923 18.968 19.6467 19.9873 19.3741C20.9346 19.1193 21.9045 18.9573 22.8832 18.8903C23.3647 18.8517 23.8485 18.8517 24.3209 18.8517C24.548 18.8517 24.7979 18.863 25.0364 18.8744C25.2748 18.8858 25.5042 18.9062 25.7745 18.9335C26.0374 18.9596 26.2814 19.0817 26.4599 19.2764C26.6384 19.471 26.739 19.7247 26.7424 19.9888C26.7457 20.2529 26.6517 20.509 26.4782 20.7082C26.3047 20.9073 26.0639 21.0356 25.8018 21.0685H25.7268Z" fill="#161B26"></path>
  <path d="M21.1865 17.2618L24.3663 28.3774L27.5893 39.4795C27.654 39.8002 27.596 40.1336 27.4267 40.4137C27.2574 40.6937 26.9891 40.9 26.675 40.9917C26.3608 41.0833 26.0237 41.0537 25.7303 40.9087C25.437 40.7637 25.2088 40.5138 25.0908 40.2085L21.8929 29.0838L18.6609 17.9818C18.6043 17.8137 18.5824 17.636 18.5963 17.4592C18.6102 17.2825 18.6597 17.1104 18.7419 16.9533C18.824 16.7961 18.9371 16.6572 19.0743 16.5449C19.2114 16.4326 19.3699 16.3492 19.5402 16.2997C19.7104 16.2502 19.8889 16.2357 20.0649 16.2569C20.241 16.2782 20.4109 16.3348 20.5644 16.4234C20.718 16.512 20.8521 16.6307 20.9586 16.7725C21.0651 16.9142 21.1419 17.076 21.1842 17.2482L21.1865 17.2618Z" fill="#161B26"></path>
  <path d="M79.5766 54.9854L79.0406 50.5564C78.8544 49.0801 78.6931 47.6038 78.5273 46.1297L78.0322 41.7007C77.8709 40.2244 77.6938 38.7481 77.5438 37.2695H77.5734C77.3031 34.6825 77.0464 32.0909 76.8216 29.4994C76.7875 29.1701 76.7784 28.8748 76.7171 28.4773C76.6588 28.1025 76.5613 27.7348 76.4264 27.3803C76.1518 26.669 75.7326 26.0224 75.1953 25.4815C74.6572 24.9347 74.0082 24.5095 73.292 24.2346C72.9351 24.0989 72.5652 23.9999 72.1882 23.9393C71.9996 23.9098 71.8089 23.8893 71.6181 23.878C71.4273 23.8666 71.2592 23.878 71.0775 23.878L67.1686 23.9257C65.8672 23.9438 64.5657 23.9529 63.2643 23.987L55.4534 24.1573L47.6401 24.3277L43.7335 24.4117C42.4321 24.4367 41.1284 24.4935 39.8247 24.5321L32.0069 24.7956H31.748L31.4868 24.8137L31.1802 24.8433C31.0734 24.8569 30.9712 24.8728 30.8713 24.891C30.6646 24.9296 30.492 24.9682 30.2898 25.0204C30.0877 25.0727 29.8924 25.1408 29.697 25.2158C29.0492 25.4662 28.4486 25.8249 27.9209 26.2764C28.9036 26.5116 29.8157 26.9789 30.5805 27.6392L30.6419 27.6097C30.7509 27.5643 30.869 27.5234 30.9735 27.4916C31.078 27.4598 31.2279 27.4234 31.3437 27.4007C31.4028 27.3871 31.4595 27.378 31.5163 27.3689C31.5731 27.3598 31.614 27.3553 31.6935 27.3485C31.773 27.3417 31.8502 27.3303 31.9206 27.3258L32.1477 27.3122L39.9291 26.8761C41.226 26.8079 42.5229 26.7239 43.8221 26.6694L47.7196 26.499L55.5147 26.1583L63.3097 25.8176C64.6089 25.7563 65.9103 25.7177 67.2095 25.6723L71.0911 25.5292C71.2365 25.5292 71.3909 25.5292 71.5272 25.5292C71.6617 25.5338 71.7959 25.5451 71.9292 25.5633C72.1956 25.5994 72.4575 25.6633 72.7106 25.7541C73.22 25.9361 73.6846 26.2249 74.0733 26.6012C74.4675 26.9787 74.7771 27.4354 74.9818 27.9413C75.0848 28.1938 75.1609 28.4565 75.209 28.7249C75.2521 28.9702 75.2771 29.3245 75.3112 29.6334C75.5504 31.991 75.7775 34.3493 75.9926 36.7084L70.6187 37.4761L64.5339 38.3074L52.3553 39.9132L40.1767 41.4577C38.1462 41.6909 36.1164 41.9059 34.0874 42.1027C32.5316 42.2413 30.978 42.3708 29.4222 42.4707L29.3018 40.6014L29.1065 38.0508C28.8975 38.1303 28.6886 38.2052 28.4705 38.2665C27.8845 38.4278 29.4903 41.6508 26.6217 42.264L26.6444 42.6342L26.7375 44.0333C26.9647 47.6129 27.2395 51.2219 27.5847 54.8128L27.8573 57.5088L28.1412 60.189L28.7272 65.5356L29.0202 68.2111L29.2473 70.8753L29.32 72.1677V72.5061C29.32 72.6424 29.3336 72.7832 29.3472 72.9218C29.3701 73.1963 29.4126 73.4688 29.4744 73.7372L29.5176 73.9234C29.5176 73.9756 29.5607 74.0847 29.5789 74.1505C29.6198 74.2823 29.6652 74.414 29.7129 74.5435C29.8121 74.8033 29.9274 75.0566 30.0582 75.3021C30.3252 75.806 30.6684 76.2656 31.0757 76.6648C31.4791 77.0635 31.9381 77.4017 32.4385 77.6687C33.4324 78.1939 34.5537 78.4299 35.675 78.3501C35.8136 78.3501 35.9544 78.3274 36.093 78.3092L36.2996 78.2775L36.4927 78.2388L36.6903 78.198C36.763 78.1798 36.8379 78.1616 36.9061 78.1412C37.0469 78.1026 37.1786 78.0594 37.3035 78.014C37.5466 77.9322 37.7578 77.8323 37.9849 77.7323L38.6254 77.4416L39.8542 76.8738L42.2981 75.7382L47.1813 73.4669L52.076 71.2138L56.9706 69.0083L61.9129 66.8552L64.5271 65.7195C63.8699 65.3394 63.2468 64.9032 62.6647 64.4158L61.1361 65.0563L56.1688 67.1436L51.222 69.2741L46.2933 71.4636L41.376 73.6736L38.9207 74.7774L37.6965 75.3225L37.1082 75.5837C36.9252 75.669 36.738 75.7448 36.5472 75.8108C36.4586 75.8404 36.3769 75.8653 36.2996 75.8858L36.1906 75.913L36.0566 75.938L35.9203 75.963L35.7931 75.9812C35.7114 75.9925 35.6251 75.9994 35.541 76.0039C35.1995 76.0207 34.8573 75.9917 34.5235 75.9176C33.8617 75.7726 33.2569 75.4371 32.7837 74.9523C32.6679 74.8333 32.5594 74.7074 32.4589 74.5753C32.3633 74.4416 32.2775 74.3012 32.2022 74.1551C32.1228 74.004 32.0537 73.8477 31.9956 73.6872C31.966 73.6054 31.9388 73.5237 31.9161 73.4396C31.9049 73.4069 31.8958 73.3735 31.8888 73.3397L31.8593 73.1966C31.8248 73.0267 31.8043 72.8543 31.798 72.681C31.798 72.597 31.7821 72.5129 31.7843 72.4244V72.0905L31.7253 70.6914L31.5163 67.9863L31.2574 65.2993L30.735 59.9255L30.4579 57.2363L30.2308 54.5675C29.9696 51.4377 29.7765 48.3124 29.5948 45.1667C31.1961 44.9736 32.7905 44.7692 34.3827 44.5398C36.4208 44.2582 38.4536 43.9553 40.4811 43.6313L52.6188 41.6826L64.7611 39.8246L70.8368 38.9161L76.1538 38.1575C76.2697 39.3817 76.3969 40.6082 76.5172 41.8347L76.9715 46.2774C77.1214 47.7582 77.2645 49.2414 77.4257 50.72L77.9209 55.1513C78.0092 55.8814 77.8717 56.6212 77.527 57.2709C77.1822 57.9206 76.6467 58.4491 75.9926 58.7853C75.9108 58.8307 75.8404 58.8603 75.7495 58.9011L75.4384 59.0329L74.8183 59.2941L73.5759 59.8142L72.0928 60.4365L71.8384 61.5722C71.8059 61.7202 71.8123 61.8741 71.8568 62.019C71.9014 62.1639 71.9827 62.2947 72.0928 62.3989L74.2846 61.4427L75.5201 60.9044L76.1334 60.6432L76.4423 60.5092C76.5558 60.457 76.6921 60.3934 76.8057 60.3298C77.7573 59.8204 78.5325 59.0349 79.0293 58.0767C79.2755 57.6014 79.4479 57.0913 79.5403 56.564C79.6307 56.0425 79.643 55.5105 79.5766 54.9854Z" fill="#161B26"></path>
  <path d="M74.7252 57.0386L73.3148 56.6957C72.8378 56.5844 72.3585 56.4822 71.8838 56.3868C71.4091 56.2914 70.9367 56.2119 70.4688 56.146C70.001 56.0802 69.5399 56.0302 69.0879 55.9984C68.2694 55.9267 67.4447 55.9787 66.6417 56.1528C66.349 56.2237 66.0676 56.3353 65.8059 56.4844C65.5941 56.608 65.4076 56.7707 65.2562 56.9637C64.9564 57.3112 64.6702 58.2742 64.6657 58.9147C64.6535 59.2367 64.7084 59.5577 64.827 59.8573C64.96 60.18 65.1544 60.4739 65.3993 60.7227C65.69 61.0224 66.0156 61.2863 66.3692 61.5085C66.7612 61.7648 67.1685 61.9969 67.5888 62.2035C68.4565 62.6442 69.4059 63.0326 70.4007 63.4845C71.4666 63.9435 72.4782 64.5194 73.417 65.2016C73.9418 65.5956 74.4156 66.0534 74.8274 66.5644C75.2699 67.1162 75.6232 67.7339 75.8745 68.395C76.1213 69.051 76.2698 69.7398 76.3151 70.4392C76.3404 70.7717 76.3442 71.1055 76.3265 71.4386C76.3265 71.6044 76.3083 71.7634 76.2947 71.9223C76.2947 72.0087 76.2833 72.0745 76.2697 72.1745C76.2561 72.2744 76.2424 72.3766 76.222 72.4788C76.0639 73.3415 75.6709 74.1439 75.0863 74.7978C74.5374 75.3936 73.8623 75.8592 73.1103 76.1606C71.8749 76.6373 70.5497 76.8366 69.2287 76.7443C68.0652 76.6797 66.9119 76.4924 65.7877 76.1855C65.2403 76.0424 64.7066 75.8789 64.1819 75.6927C63.6573 75.5064 63.1417 75.3134 62.6397 75.0976C61.6377 74.6737 60.6643 74.1851 59.7257 73.6349C59.4005 73.444 59.1574 73.1397 59.0431 72.7804C58.9287 72.4211 58.9512 72.0323 59.1061 71.6885C59.2611 71.3448 59.5376 71.0705 59.8826 70.9183C60.2275 70.7661 60.6165 70.7467 60.9749 70.8639H60.9862C62.8367 71.5068 64.7275 72.0273 66.6463 72.422C67.5401 72.5977 68.4474 72.6965 69.3582 72.7173C70.1143 72.7507 70.8703 72.6492 71.5908 72.4175C71.8078 72.3422 72.0094 72.2283 72.1859 72.0813C72.312 71.9729 72.4036 71.83 72.4494 71.6702C72.4494 71.6475 72.463 71.6203 72.4721 71.593C72.4812 71.5658 72.4857 71.5022 72.4925 71.4567C72.5084 71.3591 72.5266 71.2614 72.5334 71.1683C72.5402 71.0752 72.5561 70.9775 72.5561 70.8866C72.5561 70.7958 72.5675 70.7004 72.5561 70.6118C72.5566 70.2736 72.5084 69.937 72.4131 69.6125C72.1818 68.934 71.7676 68.3327 71.2161 67.8749C70.5165 67.279 69.755 66.7597 68.9448 66.3259C68.0794 65.8399 67.1482 65.3742 66.1807 64.8496C65.1202 64.3095 64.1389 63.6262 63.2643 62.819C62.4945 62.1026 61.9279 61.1951 61.6222 60.1889C61.5228 59.8466 61.4537 59.4962 61.4155 59.1418C61.3434 58.474 61.3609 57.7995 61.4677 57.1363C61.4973 56.9773 61.52 56.8274 61.5541 56.6616C61.5881 56.4958 61.6313 56.3141 61.6881 56.1392C61.7959 55.7761 61.9428 55.4258 62.1264 55.0944C62.5107 54.3934 63.0555 53.7933 63.7163 53.3433C64.3277 52.9297 65.0098 52.6317 65.7287 52.4643C66.958 52.1961 68.2264 52.1584 69.4695 52.353C70.0395 52.4285 70.6045 52.5377 71.1616 52.68C71.7112 52.8163 72.2473 52.973 72.7696 53.157C73.292 53.341 73.8099 53.5409 74.3118 53.7612C74.5662 53.8702 74.8138 53.9883 75.0614 54.111C75.3089 54.2336 75.5429 54.3585 75.8154 54.5107C76.1055 54.6754 76.3265 54.9392 76.4377 55.2537C76.5489 55.5681 76.5429 55.9122 76.4208 56.2226C76.2988 56.533 76.0688 56.789 75.7732 56.9435C75.4775 57.098 75.1361 57.1407 74.8115 57.0636L74.7252 57.0386Z" fill="#161B26"></path>
  <path d="M72.4539 50.6973L71.818 54.1769L71.2002 57.6611L69.9691 64.6316L68.7813 71.6067L68.1885 75.0954L67.6138 78.5864C67.5909 78.7778 67.5295 78.9625 67.4333 79.1296C67.3372 79.2966 67.2083 79.4425 67.0544 79.5585C66.9005 79.6746 66.7247 79.7583 66.5377 79.8047C66.3506 79.8511 66.1561 79.8592 65.9658 79.8286C65.7755 79.798 65.5934 79.7293 65.4303 79.6265C65.2672 79.5238 65.1266 79.3891 65.0169 79.2307C64.9071 79.0723 64.8305 78.8933 64.7916 78.7045C64.7527 78.5157 64.7524 78.321 64.7906 78.1321C64.7906 78.1321 64.7906 78.1071 64.7906 78.0981L65.4493 74.6207L66.0943 71.132L67.3708 64.1706L68.6064 57.2045L69.2219 53.7181L69.8192 50.2317C69.8795 49.8826 70.0759 49.5718 70.3654 49.3675C70.6548 49.1633 71.0135 49.0824 71.3626 49.1426C71.7117 49.2029 72.0225 49.3993 72.2268 49.6887C72.431 49.9782 72.5119 50.3369 72.4517 50.686L72.4539 50.6973Z" fill="#161B26"></path>
</svg>
