<svg width="21" height="20" viewBox="0 0 21 20" fill="none" xmlns="http://www.w3.org/2000/svg">
<path fill-rule="evenodd" clip-rule="evenodd" d="M0.75 10C0.75 4.47715 5.22715 0 10.75 0C16.2728 0 20.75 4.47715 20.75 10C20.75 15.5228 16.2728 20 10.75 20C5.22715 20 0.75 15.5228 0.75 10ZM12.2326 7.77912H15.0573V6.96984H12.2326V7.77912ZM14.8084 8.45847C14.4684 8.30812 14.0865 8.23264 13.6619 8.23264C12.9476 8.23264 12.3675 8.45599 11.919 8.89961C11.4719 9.34447 11.248 9.9836 11.248 10.817C11.248 11.7055 11.4951 12.3477 11.9924 12.7418C12.4872 13.1366 13.0598 13.3333 13.7089 13.3333C14.4948 13.3333 15.1062 13.0995 15.5428 12.6323C15.8225 12.3378 15.9805 12.0476 16.015 11.763H14.7136C14.6384 11.9041 14.5506 12.0142 14.4509 12.094C14.2696 12.2407 14.0332 12.3143 13.7441 12.3143C13.4694 12.3143 13.2354 12.2537 13.041 12.133C12.7199 11.9394 12.5518 11.6009 12.5305 11.1189H16.0821C16.0878 10.7038 16.074 10.3845 16.0395 10.1643C15.9805 9.78747 15.8513 9.45584 15.65 9.16999C15.4292 8.84578 15.1489 8.6082 14.8084 8.45847ZM10.3104 7.35963C9.97485 6.9092 9.40602 6.67842 8.602 6.66667H5.41667V13.1694H8.38688C8.72179 13.1694 9.0316 13.1409 9.31821 13.0821C9.60483 13.0227 9.85255 12.9145 10.0626 12.7555C10.2495 12.6169 10.4051 12.4461 10.5293 12.2438C10.7256 11.9381 10.8234 11.5923 10.8234 11.2068C10.8234 10.8331 10.7375 10.5151 10.5669 10.254C10.3944 9.99227 10.141 9.80108 9.80489 9.67981C10.0263 9.56845 10.1937 9.4447 10.3079 9.30982C10.5117 9.06852 10.6127 8.74865 10.6127 8.35205C10.6127 7.96659 10.5117 7.63619 10.3104 7.35963Z" fill="#FF8B20"/>
<path fill-rule="evenodd" clip-rule="evenodd" d="M6.73059 7.7959H8.16553C8.48099 7.7959 8.74063 7.82993 8.94508 7.89737C9.1809 7.99513 9.2988 8.19497 9.2988 8.49876C9.2988 8.771 9.20912 8.96156 9.031 9.06922C8.85164 9.17687 8.61896 9.2307 8.33361 9.2307H6.73059V7.7959ZM12.9018 9.54501C13.0818 9.36187 13.3364 9.2703 13.6626 9.2703C13.9636 9.2703 14.2151 9.3563 14.4195 9.52892C14.6215 9.70278 14.7356 9.95522 14.7588 10.2893H12.5619C12.6083 9.97625 12.7218 9.72815 12.9018 9.54501ZM6.73059 10.3066H8.35367C8.6359 10.3091 8.85603 10.3462 9.01282 10.4168C9.29316 10.5436 9.43239 10.7756 9.43239 11.1147C9.43239 11.5144 9.28814 11.7841 8.99902 11.9264C8.84035 12.0025 8.61708 12.0409 8.3311 12.0409H6.73059V10.3066Z" fill="#FF8B20"/>
</svg>
