<svg width="21" height="20" viewBox="0 0 21 20" fill="none" xmlns="http://www.w3.org/2000/svg">
<path fill-rule="evenodd" clip-rule="evenodd" d="M10.5 0.0981445C5.03144 0.0981445 0.598267 4.53132 0.598267 9.99991C0.598267 15.4685 5.03144 19.9017 10.5 19.9017C15.9686 19.9017 20.4018 15.4685 20.4018 9.99991C20.4018 4.53132 15.9686 0.0981445 10.5 0.0981445ZM7.74351 6.2136C7.74351 6.86097 7.25622 7.37897 6.47379 7.37897H6.45945C5.7061 7.37897 5.21907 6.86097 5.21907 6.2136C5.21907 5.55254 5.72093 5.04903 6.48857 5.04903C7.25622 5.04903 7.72895 5.55254 7.74351 6.2136ZM7.59574 8.29922V15.0414H5.35178V8.29922H7.59574ZM15.6882 15.0414L15.6883 11.1756C15.6883 9.10473 14.5813 8.1409 13.1047 8.1409C11.9133 8.1409 11.3799 8.7953 11.082 9.25437V8.2994H8.83782C8.86739 8.93205 8.83782 15.0416 8.83782 15.0416H11.082V11.2762C11.082 11.0747 11.0966 10.8737 11.1559 10.7294C11.3181 10.3268 11.6874 9.91007 12.3073 9.91007C13.1196 9.91007 13.4443 10.5283 13.4443 11.4343V15.0414H15.6882Z" fill="#FF8B20"/>
</svg>
