<svg width="40" height="40" viewBox="0 0 40 40" fill="none" xmlns="http://www.w3.org/2000/svg">
<path d="M30 21.6667C28.4333 21.6667 26.9833 22.2167 25.8333 23.1333C24.3 24.35 23.3333 26.2333 23.3333 28.3333C23.3333 29.5833 23.6833 30.7667 24.3 31.7667C25.45 33.7 27.5667 35 30 35C31.6833 35 33.2167 34.3833 34.3833 33.3333C34.9 32.9 35.35 32.3667 35.7 31.7667C36.3167 30.7667 36.6667 29.5833 36.6667 28.3333C36.6667 24.65 33.6833 21.6667 30 21.6667ZM33.45 27.6167L29.9 30.9C29.6667 31.1166 29.35 31.2333 29.05 31.2333C28.7333 31.2333 28.4167 31.1167 28.1667 30.8667L26.5167 29.2167C26.0333 28.7334 26.0333 27.9333 26.5167 27.4499C27 26.9666 27.8 26.9666 28.2833 27.4499L29.0833 28.25L31.75 25.7833C32.25 25.3166 33.05 25.35 33.5166 25.85C33.9833 26.35 33.95 27.1333 33.45 27.6167Z" fill="#FF8B20"/>
<path opacity="0.4" d="M35.15 35.8333C35.15 36.3 34.7833 36.6667 34.3167 36.6667H5.68334C5.21667 36.6667 4.85001 36.3 4.85001 35.8333C4.85001 28.9333 11.65 23.3333 20 23.3333C21.7167 23.3333 23.3834 23.5666 24.9167 24.0166C23.9334 25.1833 23.3333 26.7 23.3333 28.3333C23.3333 29.5833 23.6833 30.7667 24.3 31.7667C24.6333 32.3333 25.0667 32.85 25.5667 33.2833C26.7333 34.35 28.2833 35 30 35C31.8667 35 33.55 34.2333 34.75 33C35.0167 33.9 35.15 34.85 35.15 35.8333Z" fill="#FF8B20"/>
<path d="M20 20C24.6024 20 28.3333 16.269 28.3333 11.6667C28.3333 7.0643 24.6024 3.33334 20 3.33334C15.3976 3.33334 11.6667 7.0643 11.6667 11.6667C11.6667 16.269 15.3976 20 20 20Z" fill="#FF8B20"/>
</svg>
