<svg width="40" height="40" viewBox="0 0 40 40" fill="none" xmlns="http://www.w3.org/2000/svg">
<path d="M35.4167 36.6667H4.58333C3.89999 36.6667 3.33333 36.1 3.33333 35.4167C3.33333 34.7333 3.89999 34.1667 4.58333 34.1667H35.4167C36.1 34.1667 36.6667 34.7333 36.6667 35.4167C36.6667 36.1 36.1 36.6667 35.4167 36.6667Z" fill="#FF8B20"/>
<path opacity="0.4" d="M34.3167 22.8333L22.2667 34.8833C19.9 37.25 16.0833 37.25 13.7333 34.9L6.05 27.2167L26.65 6.61667L34.3333 14.3C36.6833 16.65 36.6833 20.4667 34.3167 22.8333Z" fill="#FF8B20"/>
<path d="M26.65 6.61666L6.03333 27.2167L4.51666 25.7C2.16666 23.35 2.16666 19.5333 4.53333 17.1667L16.5833 5.11666C18.95 2.74999 22.7667 2.74999 25.1167 5.09999L26.65 6.61666Z" fill="#FF8B20"/>
<path d="M21.4833 29.3333L19.2333 31.5833C18.7667 32.05 18.0167 32.05 17.55 31.5833C17.0833 31.1167 17.0833 30.3667 17.55 29.9L19.8 27.65C20.2667 27.1833 21.0167 27.1833 21.4833 27.65C21.95 28.1167 21.95 28.8667 21.4833 29.3333Z" fill="#FF8B20"/>
<path d="M28.7833 22.0333L24.3 26.5167C23.8333 26.9833 23.0833 26.9833 22.6167 26.5167C22.15 26.05 22.15 25.3 22.6167 24.8333L27.1 20.35C27.5667 19.8833 28.3167 19.8833 28.7833 20.35C29.2333 20.8167 29.2333 21.5667 28.7833 22.0333Z" fill="#FF8B20"/>
</svg>
