<svg width="40" height="40" viewBox="0 0 40 40" fill="none" xmlns="http://www.w3.org/2000/svg">
<path opacity="0.4" d="M30.95 36.6667H23.3333C19.5167 36.6667 17.6167 34.7667 17.6167 30.95V19.05C17.6167 15.2333 19.5167 13.3333 23.3333 13.3333H30.95C34.7667 13.3333 36.6667 15.2333 36.6667 19.05V30.95C36.6667 34.7667 34.7667 36.6667 30.95 36.6667Z" fill="#FF8B20"/>
<path d="M22.3833 9.05V11.2833C18.0167 11.6333 15.5333 14.4333 15.5333 19.05V26.6667H9.04999C5.23333 26.6667 3.33333 24.7667 3.33333 20.95V9.05C3.33333 5.23333 5.23333 3.33333 9.04999 3.33333H16.6667C20.4833 3.33333 22.3833 5.23333 22.3833 9.05Z" fill="#FF8B20"/>
<path d="M30.2167 23.75H28.75V22.2833C28.75 21.6 28.1833 21.0333 27.5 21.0333C26.8167 21.0333 26.25 21.6 26.25 22.2833V23.75H24.7833C24.1 23.75 23.5333 24.3167 23.5333 25C23.5333 25.6833 24.1 26.25 24.7833 26.25H26.25V27.7167C26.25 28.4 26.8167 28.9667 27.5 28.9667C28.1833 28.9667 28.75 28.4 28.75 27.7167V26.25H30.2167C30.9 26.25 31.4667 25.6833 31.4667 25C31.4667 24.3167 30.9 23.75 30.2167 23.75Z" fill="#FF8B20"/>
</svg>
