<svg width="40" height="40" viewBox="0 0 40 40" fill="none" xmlns="http://www.w3.org/2000/svg">
<path opacity="0.4" d="M20 28.3333V32.3C20 35.4167 18.75 36.6667 15.6167 36.6667H7.69999C4.58333 36.6667 3.33333 35.4167 3.33333 32.3V24.3833C3.33333 21.25 4.58333 20 7.69999 20H11.6667V23.95C11.6667 27.0833 12.9167 28.3333 16.0333 28.3333H20Z" fill="#FF8B20"/>
<path opacity="0.6" d="M28.3333 20V23.95C28.3333 27.0833 27.0833 28.3333 23.95 28.3333H16.0333C12.9167 28.3333 11.6667 27.0833 11.6667 23.95V16.0333C11.6667 12.9167 12.9167 11.6667 16.0333 11.6667H20V15.6167C20 18.75 21.25 20 24.3667 20H28.3333Z" fill="#FF8B20"/>
<path d="M36.6667 7.70001V15.6167C36.6667 18.75 35.4167 20 32.2833 20H24.3667C21.25 20 20 18.75 20 15.6167V7.70001C20 4.58334 21.25 3.33334 24.3667 3.33334H32.2833C35.4167 3.33334 36.6667 4.58334 36.6667 7.70001Z" fill="#FF8B20"/>
</svg>
