<?xml version="1.0" encoding="UTF-8"?>
<svg xmlns="http://www.w3.org/2000/svg" width="85" height="26" viewBox="0 0 85 26" fill="none">
  <g clip-path="url(#clip0_2121_1181)">
    <path d="M13.4881 8.78308C14.7837 9.57899 15.8504 10.721 16.5771 12.0903C17.3425 13.5208 17.7359 15.1338 17.7185 16.7703C17.7373 18.4157 17.3357 20.0369 16.5545 21.4685C15.7991 22.856 14.6951 24.0045 13.3604 24.7913C11.9888 25.6034 10.4333 26.0208 8.85457 26.0003C7.27583 26.0207 5.72043 25.6033 4.34874 24.7913C3.0168 24.0033 1.91551 22.855 1.16211 21.4685C0.382866 20.0362 -0.0178478 18.4153 0.000610015 16.7703V8.99627C-0.00257474 8.89978 0.00839826 8.80334 0.0331521 8.71028V1.28988C0.0270651 1.1204 0.0533514 0.951358 0.110494 0.792493C0.167636 0.633628 0.254504 0.48809 0.366083 0.364277C0.479087 0.242777 0.61559 0.147521 0.766603 0.0847806C0.917616 0.0220405 1.07971 -0.00675972 1.24222 0.000276574C1.40857 -0.00748006 1.57465 0.020837 1.72989 0.0834237C1.88512 0.14601 2.0261 0.241494 2.14385 0.363793C2.2616 0.486091 2.35353 0.632522 2.41378 0.793757C2.47404 0.954991 2.50131 1.12749 2.49384 1.30028V10.9827C3.23362 9.92758 4.20507 9.07101 5.3275 8.48408C6.50381 7.87133 7.80404 7.55933 9.11991 7.57408C10.6549 7.55549 12.1655 7.9736 13.4881 8.78308ZM12.1513 22.7737C13.1229 22.1778 13.9219 21.3209 14.4643 20.2933C15.0392 19.216 15.3342 18.0019 15.3204 16.7703C15.3338 15.5387 15.0388 14.3247 14.4643 13.2473C13.923 12.2249 13.1233 11.3753 12.1513 10.7903C11.1487 10.1928 10.0104 9.88493 8.85457 9.89848C7.27601 9.85782 5.74242 10.4468 4.56902 11.5443C3.3948 12.6406 2.65216 14.1491 2.48382 15.7797C2.48546 15.8359 2.4752 15.8918 2.45379 15.9435C2.42732 16.2182 2.41646 16.4943 2.42124 16.7703C2.40366 18.0007 2.69437 19.2148 3.26483 20.2933C3.81354 21.3305 4.62367 22.193 5.60838 22.7885C6.59309 23.3839 7.71525 23.6898 8.85457 23.6733C10.0119 23.6913 11.152 23.3802 12.1513 22.7737Z" fill="#FF0000"></path>
    <path d="M39.1404 24.7754C39.1351 24.9495 39.0921 25.1201 39.0145 25.2745C38.9369 25.429 38.8268 25.5632 38.6923 25.6672C38.4804 25.85 38.2165 25.9551 37.9413 25.9662C37.7726 25.9665 37.6062 25.9246 37.4563 25.8441C37.3064 25.7635 37.1774 25.6467 37.0802 25.5034L30.5092 17.134L28.1211 19.383V24.57C28.1285 24.7399 28.1028 24.9096 28.0453 25.0689C27.9878 25.2281 27.8999 25.3736 27.7867 25.4966C27.6736 25.6195 27.5377 25.7174 27.3871 25.7843C27.2366 25.8511 27.0745 25.8856 26.9108 25.8856C26.747 25.8856 26.585 25.8511 26.4344 25.7843C26.2839 25.7174 26.148 25.6195 26.0348 25.4966C25.9217 25.3736 25.8338 25.2281 25.7763 25.0689C25.7188 24.9096 25.693 24.7399 25.7005 24.57V1.25582C25.6934 1.08859 25.7193 0.921625 25.7766 0.76515C25.8338 0.608676 25.9212 0.465986 26.0334 0.345823C26.2748 0.123047 26.5866 0 26.9095 0C27.2325 0 27.5442 0.123047 27.7857 0.345823C27.8982 0.465859 27.986 0.608465 28.0437 0.764928C28.1013 0.921391 28.1277 1.08842 28.1211 1.25582V16.3072L37.1002 7.87282C37.3011 7.66739 37.5694 7.5485 37.8512 7.54002C38.0062 7.53535 38.1602 7.56814 38.3009 7.63582C38.4417 7.7035 38.5654 7.80421 38.6622 7.93002C38.8641 8.1452 38.9879 8.42633 39.0127 8.72562C39.0085 8.88717 38.9689 9.0456 38.8969 9.18886C38.8249 9.33213 38.7224 9.45646 38.5972 9.55242L32.2364 15.5454L38.86 24.0162C39.0432 24.2229 39.1435 24.4945 39.1404 24.7754Z" fill="#FF0000"></path>
    <path d="M51.61 3.76986C50.8974 4.74226 50.5411 6.03272 50.5411 7.64126V8.40046H54.3635C54.5119 8.39228 54.6602 8.41549 54.7996 8.46868C54.9391 8.52186 55.0666 8.60392 55.1746 8.70986C55.2757 8.81647 55.3547 8.94344 55.4068 9.08294C55.4588 9.22244 55.4829 9.37154 55.4775 9.52106C55.4821 9.66581 55.4575 9.80996 55.4053 9.94428C55.3532 10.0786 55.2746 10.2001 55.1746 10.3011C55.0672 10.408 54.9398 10.4908 54.8002 10.5445C54.6607 10.5982 54.5121 10.6215 54.3635 10.6131H50.5411V24.5439C50.5498 24.7166 50.5245 24.8893 50.4669 25.0516C50.4092 25.2139 50.3203 25.3622 50.2057 25.4877C50.0794 25.61 49.9302 25.7038 49.7674 25.7633C49.6045 25.8228 49.4316 25.8467 49.2594 25.8335C49.1032 25.8388 48.9475 25.8109 48.802 25.7514C48.6565 25.6919 48.5242 25.6022 48.4133 25.4877C48.2995 25.3618 48.2113 25.2133 48.1541 25.0511C48.0969 24.8889 48.0718 24.7164 48.0804 24.5439V10.6157H46.0403C45.8917 10.6239 45.7431 10.6005 45.6036 10.5469C45.4641 10.4932 45.3367 10.4104 45.2292 10.3037C45.1292 10.2027 45.0506 10.0812 44.9985 9.94688C44.9463 9.81256 44.9217 9.66841 44.9263 9.52366C44.9218 9.37296 44.9473 9.22292 45.0012 9.0829C45.055 8.94289 45.136 8.8159 45.2392 8.70986C45.3469 8.60324 45.4743 8.52039 45.6137 8.46632C45.7531 8.41225 45.9016 8.38807 46.0503 8.39526H48.0904V7.77126C48.0904 5.41392 48.6745 3.52892 49.8427 2.11626C51.0109 0.703591 52.6522 -0.00187558 54.7666 -0.000142248C55.0933 -0.012157 55.4121 0.105967 55.6577 0.330058C55.7743 0.433226 55.8672 0.562198 55.9296 0.707515C55.992 0.852833 56.0222 1.01081 56.0182 1.16986C56.0216 1.32592 55.992 1.48086 55.9314 1.62372C55.8709 1.76659 55.7809 1.8939 55.6677 1.99666C55.4186 2.22047 55.0955 2.33512 54.7666 2.31646C53.3714 2.31646 52.3192 2.80092 51.61 3.76986Z" fill="#FF0000"></path>
    <path d="M75.1885 24.7442C75.1917 24.8917 75.1636 25.0381 75.106 25.1729C75.0485 25.3077 74.9629 25.4277 74.8555 25.5242C74.6537 25.7259 74.3846 25.8387 74.1046 25.8388C73.8848 25.8462 73.6663 25.8008 73.4662 25.7062C73.2729 25.5958 73.1093 25.4366 72.9906 25.2434L67.7814 18.33L62.3543 25.4358C62.2535 25.5701 62.1225 25.6765 61.9728 25.7459C61.8231 25.8153 61.6593 25.8454 61.4957 25.8336C61.3501 25.8408 61.2045 25.8168 61.0681 25.7632C60.9317 25.7096 60.8073 25.6275 60.7027 25.5219C60.5981 25.4164 60.5154 25.2897 60.4597 25.1497C60.4041 25.0097 60.3767 24.8593 60.3793 24.7078C60.3714 24.3788 60.4862 24.0593 60.6997 23.816L66.2068 16.6712L60.9851 9.78902C60.772 9.54674 60.6579 9.22785 60.6672 8.89982C60.6572 8.59571 60.7593 8.29911 60.9525 8.07042C61.0586 7.95742 61.1868 7.86945 61.3285 7.81248C61.4701 7.7555 61.6219 7.73086 61.7736 7.74022C61.9456 7.73702 62.1164 7.7707 62.2753 7.83915C62.4343 7.90759 62.5779 8.00933 62.6973 8.13802L67.8264 14.9838L72.8905 8.33562C73.0065 8.15626 73.1624 8.00853 73.3449 7.90491C73.5275 7.80128 73.7313 7.74479 73.9393 7.74022C74.0897 7.73266 74.2399 7.75816 74.3801 7.81507C74.5203 7.87197 74.6473 7.95898 74.7529 8.07042C74.951 8.28373 75.0598 8.5697 75.0558 8.86602C75.0482 9.21775 74.9235 9.55588 74.7028 9.82282L69.4235 16.6374L74.838 23.8498C75.0495 24.0978 75.1732 24.4133 75.1885 24.7442Z" fill="#FF0000"></path>
    <path d="M81.8454 25.4388C81.6724 25.2574 81.5356 25.0424 81.4428 24.8059C81.35 24.5695 81.3031 24.3163 81.3047 24.061C81.3064 23.8056 81.3565 23.5531 81.4523 23.318C81.5481 23.0828 81.6877 22.8696 81.863 22.6906C82.0311 22.5127 82.2317 22.3714 82.4531 22.2749C82.6744 22.1785 82.9121 22.1289 83.1521 22.129C83.3964 22.1259 83.6386 22.1759 83.8632 22.2757C84.0878 22.3756 84.2899 22.5231 84.4563 22.7088C84.6309 22.8881 84.769 23.1021 84.8623 23.3379C84.9556 23.5737 85.0023 23.8267 84.9995 24.0816C84.9997 24.4613 84.8914 24.8324 84.6884 25.1481C84.4854 25.4638 84.1969 25.7099 83.8592 25.8551C83.5215 26.0004 83.15 26.0384 82.7915 25.9643C82.433 25.8902 82.1038 25.7074 81.8454 25.4388Z" fill="#FF0000"></path>
  </g>
  <defs>
    <clipPath id="clip0_2121_1181">
      <rect width="85" height="26" fill="white"></rect>
    </clipPath>
  </defs>
</svg>
