<svg width="24" height="30" viewBox="0 0 24 30" fill="none" xmlns="http://www.w3.org/2000/svg">
<path d="M21.4501 0.694756C20.6448 0.363177 19.579 0.197388 18.2527 0.197388H5.74743C1.62638 0.197388 0.157959 1.66581 0.157959 5.83423V24.1658C0.157959 25.5395 0.323749 26.6053 0.679012 27.4342C1.41322 29.1395 2.97638 29.8027 5.74743 29.8027H18.2527C22.3737 29.8027 23.8422 28.3105 23.8422 24.1658V5.83423C23.8422 3.01581 23.179 1.42897 21.4501 0.694756ZM14.3685 24.4737H9.63164C9.58428 24.4737 9.51322 24.4737 9.46585 24.45C9.11059 24.4263 8.8027 24.3079 8.54217 24.0711C8.11585 23.7632 7.85533 23.2658 7.85533 22.6974C7.85533 21.7263 8.66059 20.9211 9.63164 20.9211H14.3685C15.3395 20.9211 16.1448 21.7263 16.1448 22.6974C16.1448 23.6684 15.3395 24.4737 14.3685 24.4737Z" fill="#161B26"/>
</svg>
