<svg width="30" height="30" viewBox="0 0 30 30" fill="none" xmlns="http://www.w3.org/2000/svg">
<path d="M21.0278 1.57886H9.77533C4.88764 1.57886 1.97382 4.49123 1.97382 9.37649V20.6099C1.97382 25.5086 4.88764 28.421 9.77533 28.421H21.0144C25.9021 28.421 28.8159 25.5086 28.8159 20.6233V9.37649C28.8293 4.49123 25.9155 1.57886 21.0278 1.57886ZM13.374 21.3346C12.9174 21.791 12.3132 22.0996 11.5747 22.1936L9.76191 22.3949C8.76825 22.5023 7.92231 21.6568 8.02973 20.6502L8.23114 18.8249C8.4057 17.201 9.76191 16.1675 11.1987 16.1407C11.333 16.1273 11.4941 16.1407 11.6418 16.1541C12.2729 16.2346 12.8771 16.5299 13.3874 17.0265C13.8842 17.5231 14.1662 18.1136 14.2468 18.7175C14.2602 18.8652 14.2736 19.0128 14.2736 19.147C14.2736 19.9791 13.9648 20.7441 13.374 21.3346ZM22.7063 9.02754C21.7395 11.4433 19.5239 14.6107 17.4157 16.6775C17.1069 14.7718 15.5895 13.2686 13.656 13.0002C15.7238 10.8796 18.9196 8.63833 21.35 7.65859C21.7797 7.49754 22.2094 7.61833 22.478 7.88675C22.7465 8.18201 22.8808 8.59807 22.7063 9.02754Z" fill="#FDFAF6"/>
</svg>
