<svg width="31" height="30" viewBox="0 0 31 30" fill="none" xmlns="http://www.w3.org/2000/svg">
<path fill-rule="evenodd" clip-rule="evenodd" d="M9.32097 1.67397C10.9021 1.50267 12.895 1.50267 15.4373 1.50269H15.5626C18.105 1.50267 20.0979 1.50267 21.679 1.67397C23.2925 1.84878 24.5998 2.21191 25.716 3.0229C26.3918 3.51386 26.9861 4.10813 27.477 4.78388C28.288 5.9001 28.6511 7.20744 28.826 8.82094C28.9973 10.402 28.9972 12.395 28.9972 14.9373V15.0082C28.9972 16.3016 28.9972 17.4477 28.9762 18.4615C28.9145 21.4435 28.6812 23.5585 27.477 25.216C26.9861 25.8918 26.3918 26.486 25.716 26.977C24.5998 27.788 23.2925 28.1511 21.679 28.3259C20.0979 28.4972 18.1051 28.4972 15.5627 28.4972H15.4373C12.895 28.4972 10.902 28.4972 9.32097 28.3259C7.70747 28.1511 6.40014 27.788 5.28391 26.977C4.63268 26.5038 4.05713 25.9348 3.57679 25.2893C3.55869 25.2649 3.54074 25.2405 3.52293 25.216C2.71194 24.0998 2.34881 22.7924 2.174 21.179C2.0027 19.5979 2.0027 17.605 2.00272 15.0626V14.9373C2.00271 12.3949 2.0027 10.402 2.174 8.82094C2.34881 7.20744 2.71194 5.9001 3.52293 4.78388C4.01389 4.10813 4.60816 3.51386 5.28391 3.0229C6.40014 2.21191 7.70747 1.84878 9.32097 1.67397ZM26.9143 17.4248L26.827 17.3406C26.445 16.9736 26.1627 16.7253 25.8972 16.5368C22.9226 14.4247 18.8193 14.984 16.5185 17.8151C16.2406 18.1571 15.9625 18.6127 15.5252 19.3775L14.8078 19.1529C13.1528 18.8219 12.3253 18.6564 11.5658 18.6726C9.53328 18.7157 7.6225 19.6503 6.34058 21.2282C5.91324 21.7542 5.56677 22.4116 4.96106 23.6192C5.03576 23.7514 5.11625 23.8763 5.20285 23.9955L5.24266 24.0496C5.5977 24.5267 6.02311 24.9474 6.50445 25.2971C7.2077 25.808 8.10781 26.1058 9.54463 26.2615C11.0009 26.4193 12.8814 26.4207 15.5 26.4207C18.1185 26.4207 19.9991 26.4193 21.4553 26.2615C22.8921 26.1058 23.7923 25.808 24.4955 25.2971C24.995 24.9342 25.4342 24.4949 25.7971 23.9955C26.5746 22.9253 26.8376 21.4407 26.9002 18.4185C26.9068 18.1016 26.9112 17.7709 26.9143 17.4248ZM14.1156 13.6156C12.5865 13.6156 11.347 12.376 11.347 10.8469C11.347 9.31785 12.5865 8.07827 14.1156 8.07827C15.6447 8.07827 16.8843 9.31785 16.8843 10.8469C16.8843 12.376 15.6447 13.6156 14.1156 13.6156Z" fill="#FDFAF6"/>
</svg>
