<svg width="214" height="56" viewBox="0 0 214 56" fill="none" xmlns="http://www.w3.org/2000/svg">
<path d="M77.0526 11H82.7267V45.8737H77.0526V11Z" fill="#17313B"/>
<path d="M102.456 34.822C102.456 40.2221 98.0166 40.7181 96.5367 40.7181C93.0859 40.7181 92.588 37.5255 92.588 35.807V22.2963H86.9139V35.5555C86.9139 38.7481 87.9028 41.6961 89.8737 43.4147C91.599 45.1332 93.8224 45.8737 96.5297 45.8737C98.5005 45.8737 100.969 45.3847 102.449 43.9107V45.8737H108.123V22.2963H102.449C102.456 22.2963 102.456 34.822 102.456 34.822Z" fill="#17313B"/>
<path d="M119.219 13.7035H113.545V22.2962H109.351V27.6963H113.545V45.8736H119.219V27.7033H123.413V22.3031H119.219V13.7035Z" fill="#17313B"/>
<path d="M141.165 38.755C139.93 39.74 138.205 40.4735 136.48 40.4735C132.531 40.4735 129.824 37.5255 129.824 33.5994C129.824 29.6663 132.538 26.9697 136.48 26.9697C138.205 26.9697 139.93 27.4588 141.165 28.6883L141.901 29.4218L145.85 25.7402L144.861 25.0067C142.645 23.0437 139.685 21.8141 136.48 21.8141C129.578 21.8141 124.395 26.9697 124.395 33.8509C124.395 40.732 129.571 45.8876 136.48 45.8876C139.685 45.8876 142.645 44.6581 144.861 42.695L145.85 41.9615L141.901 38.0284L141.165 38.755Z" fill="#17313B"/>
<path d="M165.825 24.2662C164.1 22.5477 162.374 21.8072 159.66 21.8072C157.689 21.8072 155.711 22.2962 154.238 23.7702V11H148.564V45.8737H154.238V32.8589C154.238 27.4588 157.935 26.9628 159.414 26.9628C162.865 26.9628 162.62 30.1554 162.62 31.8739V45.6292H168.294V32.1254C168.287 28.9328 167.55 25.9848 165.825 24.2662Z" fill="#17313B"/>
<path d="M136.234 37.777C138.415 37.777 140.183 36.0161 140.183 33.8439C140.183 31.6717 138.415 29.9108 136.234 29.9108C134.053 29.9108 132.286 31.6717 132.286 33.8439C132.286 36.0161 134.053 37.777 136.234 37.777Z" fill="#EF4335"/>
<path d="M69.1622 37.281C67.1913 39.2441 64.2316 40.4736 61.0263 40.4736C54.8613 40.4736 50.4216 35.5625 50.4216 28.9329C50.4216 22.3032 54.8613 17.3921 61.2718 17.3921C64.2316 17.3921 67.1913 18.6217 69.4077 20.8292L70.1441 21.5627L73.8403 17.8811L73.1039 17.1476C69.8986 13.9551 65.7044 12.2365 61.2648 12.2365C51.9015 11.985 45 19.3552 45 28.9329C45 38.5105 51.9015 45.8737 61.0263 45.8737C65.466 45.8737 69.9056 44.1551 72.8654 40.9626L73.6019 40.2291L69.9056 36.5475L69.1622 37.281Z" fill="#17313B"/>
</svg>
