<svg width="214" height="56" viewBox="0 0 214 56" fill="none" xmlns="http://www.w3.org/2000/svg">
<g clip-path="url(#clip0_6185_6528)">
<mask id="mask0_6185_6528" style="mask-type:luminance" maskUnits="userSpaceOnUse" x="14" y="6" width="186" height="44">
<path d="M200 6H14V50H200V6Z" fill="white"/>
</mask>
<g mask="url(#mask0_6185_6528)">
<path d="M44.2685 21.3932H40.9927V6.25616H44.2685V21.3932Z" fill="#333333"/>
<path d="M57.7647 21.3942H54.8165V14.7236C54.8165 13.3767 54.0957 12.6711 52.7199 12.6711C51.6717 12.6711 50.82 13.1201 50.1649 13.9539V21.3942H47.2166V10.4262H50.1649V11.8373C51.1476 10.6828 52.4578 10.1055 54.0957 10.1055C55.2751 10.1055 56.1923 10.4262 56.8474 11.0676C57.5026 11.709 57.7647 12.5428 57.7647 13.6332V21.3942Z" fill="#333333"/>
<path d="M64.3172 21.3936H61.369V12.9271H59.5346V10.4257H61.369V9.8484C61.369 8.69388 61.6966 7.73178 62.4172 7.09038C63.138 6.3207 64.0551 6 65.1689 6C66.0206 6 66.7414 6.12828 67.3309 6.44898L66.6758 8.5656C66.4138 8.37318 66.0862 8.30904 65.693 8.30904C65.2344 8.30904 64.9069 8.43732 64.6448 8.69388C64.3827 8.95044 64.2517 9.33527 64.2517 9.8484V10.4257H66.5447V12.9271H64.2517V21.3936H64.3172ZM71.2619 21.3936H68.3137V6.25656H71.2619V21.3936Z" fill="#333333"/>
<path d="M84.691 21.3945H81.7428V19.9834C80.7601 21.0738 79.4497 21.651 77.8118 21.651C76.6326 21.651 75.7153 21.3303 75.1256 20.7531C74.536 20.1758 74.2085 19.2779 74.2085 18.1875V10.4266H77.1567V17.0971C77.1567 18.444 77.8773 19.1496 79.2531 19.1496C80.3014 19.1496 81.1531 18.7647 81.8083 17.931V10.4266H84.7565V21.3945H84.691Z" fill="#333333"/>
<path d="M92.8829 21.6507C91.1795 21.6507 89.738 21.1376 88.5588 20.0472C87.445 18.9568 86.8553 17.6099 86.8553 15.8782C86.8553 14.2746 87.3795 12.8635 88.4932 11.7732C89.607 10.6828 90.9829 10.1055 92.6863 10.1055C94.3896 10.1055 95.7 10.6828 96.7483 11.7732C97.7965 12.8635 98.3206 14.3387 98.3206 16.1347V16.7761H90.0001C90.0656 17.4816 90.3932 18.123 90.9829 18.572C91.5725 19.0851 92.2932 19.2775 93.2104 19.2775C93.7345 19.2775 94.2587 19.1493 94.8483 18.9568C95.438 18.7644 95.8965 18.5079 96.2241 18.1872L97.5344 20.0472C96.3551 21.1376 94.8484 21.6507 92.8829 21.6507ZM95.438 14.8519C95.3725 14.2105 95.1104 13.6974 94.6517 13.1843C94.1931 12.6711 93.538 12.4146 92.6208 12.4146C91.769 12.4146 91.1138 12.6711 90.6553 13.1843C90.1967 13.6974 89.9347 14.2105 89.8692 14.8519H95.438Z" fill="#333333"/>
<path d="M110.964 21.3942H108.016V14.7236C108.016 13.3767 107.295 12.6711 105.919 12.6711C104.871 12.6711 104.019 13.1201 103.364 13.9539V21.3942H100.415V10.4262H103.364V11.8373C104.347 10.6828 105.657 10.1055 107.295 10.1055C108.474 10.1055 109.392 10.4262 110.047 11.0676C110.701 11.709 110.964 12.5428 110.964 13.6332V21.3942Z" fill="#333333"/>
<path d="M119.086 21.6515C117.383 21.6515 115.942 21.1384 114.827 20.048C113.714 18.9576 113.124 17.6107 113.124 15.8789C113.124 14.2112 113.714 12.8001 114.827 11.7739C115.942 10.6835 117.383 10.1704 119.086 10.1704C121.051 10.1704 122.559 10.8118 123.541 12.1588L121.641 13.9547C121.117 13.185 120.331 12.8001 119.283 12.8001C118.366 12.8001 117.644 13.1209 117.12 13.6981C116.531 14.2754 116.269 15.0451 116.269 16.0072C116.269 16.9693 116.531 17.739 117.12 18.3162C117.71 18.8935 118.431 19.2142 119.283 19.2142C120.265 19.2142 121.051 18.8293 121.641 18.0597L123.541 19.7914C122.559 21.0101 121.117 21.6515 119.086 21.6515Z" fill="#333333"/>
<path d="M130.75 21.6507C129.047 21.6507 127.605 21.1376 126.426 20.0472C125.313 18.9568 124.723 17.6099 124.723 15.8782C124.723 14.2746 125.247 12.8635 126.361 11.7732C127.474 10.6828 128.85 10.1055 130.554 10.1055C132.257 10.1055 133.567 10.6828 134.615 11.7732C135.664 12.8635 136.188 14.3387 136.188 16.1347V16.7761H127.868C127.933 17.4816 128.261 18.123 128.85 18.572C129.44 19.0851 130.161 19.2775 131.078 19.2775C131.602 19.2775 132.126 19.1493 132.716 18.9568C133.306 18.7644 133.764 18.5079 134.091 18.1872L135.402 20.0472C134.223 21.1376 132.716 21.6507 130.75 21.6507ZM133.306 14.8519C133.24 14.2105 132.978 13.6974 132.519 13.1843C132.061 12.6711 131.406 12.4146 130.489 12.4146C129.637 12.4146 128.981 12.6711 128.522 13.1843C128.064 13.6974 127.802 14.2105 127.737 14.8519H133.306Z" fill="#333333"/>
<path d="M141.234 21.3942H138.285V10.4262H141.234V11.9015C141.627 11.3883 142.217 10.9393 142.806 10.6187C143.461 10.298 144.117 10.1055 144.772 10.1055V12.9277C144.575 12.8635 144.313 12.8635 143.985 12.8635C143.461 12.8635 142.937 12.9918 142.413 13.2484C141.824 13.5049 141.43 13.7615 141.234 14.1463V21.3942Z" fill="#333333"/>
<path d="M74.4059 41.0842H72.5059V28.5769L67.2646 41.0842H66.4129L61.1716 28.5769V41.0842H59.2061V25.9472H61.9578L66.7405 37.3641L71.5887 25.9472H74.3403V41.0842H74.4059Z" fill="#333333"/>
<path d="M86.6552 41.0859H84.8863V39.8673C83.969 40.8935 82.7243 41.4066 81.1519 41.4066C80.1036 41.4066 79.1864 41.0859 78.4002 40.4445C77.614 39.8031 77.2209 38.9052 77.2209 37.8148C77.2209 36.6603 77.614 35.7623 78.4002 35.1209C79.1864 34.4795 80.1036 34.1588 81.1519 34.1588C82.7243 34.1588 83.969 34.672 84.8863 35.6341V33.6457C84.8863 32.9402 84.6242 32.3629 84.1001 31.9139C83.576 31.5291 82.9208 31.2725 82.0691 31.2725C80.7588 31.2725 79.5795 31.7857 78.6623 32.8119L77.876 31.6574C79.0554 30.4387 80.5623 29.8615 82.3312 29.8615C83.6415 29.8615 84.6898 30.1822 85.476 30.7594C86.2621 31.3367 86.6552 32.2988 86.6552 33.5816V41.0859ZM81.8726 40.1238C83.2484 40.1238 84.2966 39.6749 84.9518 38.7769V36.7245C84.2966 35.8264 83.2484 35.3775 81.8726 35.3775C81.0864 35.3775 80.4312 35.5699 79.9071 36.0189C79.383 36.4678 79.1209 37.0452 79.1209 37.7506C79.1209 38.4562 79.383 39.0335 79.9071 39.4824C80.3657 39.9314 81.0209 40.1238 81.8726 40.1238Z" fill="#333333"/>
<path d="M91.8988 41.0833H90.1298V30.1155H91.8988V31.9113C92.947 30.5644 94.1918 29.923 95.6331 29.923V31.6548C95.4366 31.5906 95.1745 31.5906 94.9125 31.5906C94.3884 31.5906 93.7987 31.7831 93.2091 32.1038C92.6194 32.4886 92.1608 32.8734 91.8988 33.3224V41.0833Z" fill="#333333"/>
<path d="M107.686 41.0842H105.459L101.397 36.1455L99.5626 37.9414V41.0842H97.7936V25.9472H99.5626V35.9531L105.459 30.1163H107.686L102.707 35.1192L107.686 41.0842Z" fill="#333333"/>
<path d="M114.764 41.3418C113.06 41.3418 111.75 40.8287 110.636 39.7383C109.588 38.6479 109.064 37.301 109.064 35.5692C109.064 33.9657 109.588 32.6188 110.636 31.4642C111.685 30.3739 112.994 29.7966 114.567 29.7966C116.205 29.7966 117.515 30.3739 118.498 31.4642C119.481 32.5546 119.939 33.9657 119.939 35.6974V36.1465H110.833C110.898 37.2369 111.292 38.1348 112.012 38.8404C112.733 39.5459 113.716 39.9307 114.829 39.9307C116.205 39.9307 117.385 39.4818 118.302 38.5197L119.153 39.61C118.039 40.7645 116.598 41.3418 114.764 41.3418ZM118.236 34.9278C118.236 33.9657 117.909 33.1319 117.253 32.3622C116.598 31.5925 115.681 31.2077 114.567 31.2077C113.453 31.2077 112.601 31.5925 111.946 32.2981C111.292 33.0677 110.964 33.9016 110.898 34.8637H118.236V34.9278Z" fill="#333333"/>
<path d="M125.574 41.3408C124.722 41.3408 124.132 41.1484 123.739 40.6994C123.346 40.2504 123.084 39.609 123.084 38.7752V31.5915H121.25V30.1163H123.084V27.1017H124.853V30.1163H127.147V31.5915H124.853V38.3903C124.853 38.8393 124.919 39.16 125.115 39.4166C125.312 39.6731 125.574 39.8014 125.967 39.8014C126.491 39.8014 126.884 39.6731 127.147 39.3524L127.671 40.6352C127.147 41.1484 126.491 41.3408 125.574 41.3408Z" fill="#333333"/>
<path d="M130.422 28.5125C130.095 28.5125 129.832 28.3842 129.636 28.1918C129.373 27.9993 129.308 27.6786 129.308 27.3579C129.308 27.0372 129.439 26.7807 129.636 26.5241C129.898 26.2675 130.16 26.2034 130.422 26.2034C130.749 26.2034 131.012 26.3316 131.273 26.5241C131.536 26.7807 131.601 27.0372 131.601 27.3579C131.601 27.6786 131.47 27.9351 131.273 28.1918C131.012 28.4483 130.749 28.5125 130.422 28.5125ZM131.339 41.0838H129.571V30.116H131.339V41.0838Z" fill="#333333"/>
<path d="M144.118 41.0859H142.348V33.9023C142.348 33.0043 142.152 32.2988 141.694 31.9139C141.235 31.5291 140.645 31.3367 139.859 31.3367C139.203 31.3367 138.549 31.5291 137.959 31.8498C137.369 32.1705 136.845 32.5553 136.517 33.0685V41.0859H134.749V30.118H136.517V31.7215C136.976 31.2084 137.501 30.7594 138.286 30.4387C139.007 30.0539 139.793 29.8615 140.514 29.8615C142.873 29.8615 144.118 31.016 144.118 33.3892V41.0859Z" fill="#333333"/>
<path d="M152.107 45.5109C151.124 45.5109 150.273 45.3826 149.552 45.1902C148.831 44.9336 148.176 44.5488 147.586 43.9074L148.438 42.6246C149.29 43.6508 150.534 44.0998 152.107 44.0998C153.155 44.0998 154.007 43.8433 154.662 43.266C155.318 42.7529 155.71 41.919 155.71 40.7645V39.2252C155.318 39.8024 154.727 40.2514 154.072 40.6362C153.418 41.0211 152.697 41.2136 151.91 41.2136C150.403 41.2136 149.225 40.7004 148.307 39.6741C147.39 38.6479 146.931 37.2369 146.931 35.5051C146.931 33.7733 147.39 32.3622 148.307 31.336C149.225 30.3097 150.403 29.7966 151.91 29.7966C153.418 29.7966 154.727 30.438 155.645 31.7208V30.0532H157.414V40.7004C157.414 42.368 156.89 43.5867 155.907 44.3564C154.924 45.1902 153.614 45.5109 152.107 45.5109ZM152.369 39.7383C153.024 39.7383 153.679 39.5459 154.335 39.2252C154.99 38.9045 155.448 38.4555 155.71 37.9424V33.1319C155.383 32.6188 154.924 32.2339 154.335 31.8491C153.745 31.5284 153.09 31.336 152.369 31.336C151.255 31.336 150.403 31.7208 149.749 32.4905C149.093 33.2602 148.766 34.2864 148.766 35.5051C148.766 36.7237 149.093 37.7499 149.749 38.5197C150.403 39.3534 151.255 39.7383 152.369 39.7383Z" fill="#333333"/>
<path d="M173.597 41.0842H172.221V33.9006H162.394V41.0842H161.084V25.9472H162.394V32.746H172.221V25.9472H173.597V41.0842Z" fill="#333333"/>
<path d="M186.177 41.0855H184.998V39.482C184.474 40.0594 183.884 40.5083 183.163 40.829C182.443 41.1497 181.722 41.3422 180.935 41.3422C179.757 41.3422 178.905 41.0855 178.315 40.5083C177.725 39.9311 177.463 39.0331 177.463 37.8144V30.1177H178.642V37.5579C178.642 38.5841 178.905 39.2897 179.363 39.6745C179.822 40.0594 180.477 40.2518 181.394 40.2518C182.115 40.2518 182.77 40.0594 183.426 39.7387C184.08 39.4179 184.604 38.969 184.998 38.4558V30.1177H186.177V41.0855Z" fill="#333333"/>
<path d="M191.091 41.0842H189.911V25.9472H191.091V31.9122C192.073 30.5653 193.384 29.8597 195.021 29.8597C196.529 29.8597 197.708 30.3729 198.625 31.4632C199.542 32.5536 200.001 33.9006 200.001 35.6324C200.001 37.3641 199.542 38.7752 198.625 39.8015C197.708 40.8277 196.463 41.3408 195.021 41.3408C194.236 41.3408 193.449 41.1484 192.794 40.7635C192.073 40.3787 191.549 39.9297 191.156 39.2883V41.0842H191.091ZM191.091 38.3262C191.419 38.9035 191.943 39.3524 192.597 39.7373C193.253 40.1222 193.973 40.3145 194.76 40.3145C196.004 40.3145 196.921 39.8656 197.642 38.9676C198.363 38.0697 198.69 36.9793 198.69 35.6324C198.69 34.2854 198.363 33.1309 197.642 32.2329C196.921 31.335 196.004 30.886 194.76 30.886C194.039 30.886 193.318 31.0784 192.597 31.4632C191.877 31.8481 191.419 32.2971 191.025 32.8743V38.3262H191.091Z" fill="#333333"/>
<path d="M54.3589 26.6542H15.6389L34.9661 45.5754L54.3589 26.6542Z" fill="#C12559"/>
<path d="M15.7053 26.7158L34.967 45.6371V26.7158H15.7053Z" fill="#32B776"/>
<path d="M34.9636 7.73175V45.6384L15.702 26.7171L34.9636 7.73175Z" fill="#F14074"/>
</g>
</g>
<defs>
<clipPath id="clip0_6185_6528">
<rect width="186" height="44" fill="white" transform="translate(14 6)"/>
</clipPath>
</defs>
</svg>
