<svg width="30" height="28" viewBox="0 0 30 28" fill="none" xmlns="http://www.w3.org/2000/svg">
<path fill-rule="evenodd" clip-rule="evenodd" d="M18.4039 0.755982C20.0939 0.755976 21.4188 0.755971 22.4837 0.842975C23.568 0.931567 24.4638 1.11496 25.2746 1.52808C26.6075 2.20724 27.6912 3.29095 28.3704 4.62387C28.7835 5.43468 28.9669 6.33047 29.0555 7.41479C29.1425 8.4796 29.1425 9.80451 29.1425 11.4943V11.5773C29.1425 13.2671 29.1425 14.5921 29.0555 15.6569C28.9669 16.7413 28.7835 17.6371 28.3704 18.4479C27.6912 19.7808 26.6075 20.8645 25.2746 21.5437C24.4638 21.9568 23.568 22.1402 22.4837 22.2288C21.4189 22.3158 20.094 22.3158 18.4042 22.3158H15.5906V24.5752C16.3598 24.629 17.1255 24.75 17.8788 24.9383L19.8187 25.4233C20.3138 25.5471 20.6148 26.0487 20.491 26.5438C20.3672 27.0389 19.8656 27.3399 19.3705 27.2161L17.4306 26.7311C16.5232 26.5043 15.5949 26.3909 14.6666 26.3909C13.7384 26.3909 12.8101 26.5043 11.9027 26.7311L9.9628 27.2161C9.46773 27.3399 8.96606 27.0389 8.84229 26.5438C8.71853 26.0487 9.01953 25.5471 9.5146 25.4233L11.4545 24.9383C12.2078 24.75 12.9734 24.629 13.7427 24.5752V22.3158H10.9293C9.23944 22.3158 7.91442 22.3158 6.84961 22.2288C5.76528 22.1402 4.86949 21.9568 4.05869 21.5437C2.72576 20.8645 1.64206 19.7808 0.962898 18.4479C0.549771 17.6371 0.366382 16.7413 0.277789 15.6569C0.190786 14.5921 0.19079 13.2672 0.190796 11.5772V11.4945C0.19079 9.80458 0.190786 8.47966 0.277789 7.41479C0.366382 6.33047 0.549771 5.43468 0.962898 4.62387C1.64206 3.29095 2.72576 2.20724 4.05869 1.52808C4.86949 1.11496 5.76528 0.931567 6.84961 0.842975C7.91447 0.755971 9.2394 0.755976 10.9293 0.755982H18.4039ZM13.7427 17.6958C13.7427 18.2061 14.1563 18.6198 14.6666 18.6198L22.0586 18.6198C22.5689 18.6198 22.9826 18.2061 22.9826 17.6958C22.9826 17.1855 22.5689 16.7718 22.0586 16.7718L14.6666 16.7718C14.1563 16.7718 13.7427 17.1855 13.7427 17.6958ZM9.7387 17.6958C9.7387 18.3762 9.18712 18.9278 8.50671 18.9278C7.8263 18.9278 7.27472 18.3762 7.27472 17.6958C7.27472 17.0154 7.8263 16.4638 8.50671 16.4638C9.18712 16.4638 9.7387 17.0154 9.7387 17.6958Z" fill="white"/>
</svg>
