<svg xmlns="http://www.w3.org/2000/svg" xmlns:xlink="http://www.w3.org/1999/xlink" id="Layer_1" x="0px" y="0px" viewBox="0 0 150 150" style="enable-background:new 0 0 150 150;" xml:space="preserve"><g>	<path d="M51.2,5.3c0.2,0.1,0.4,0.2,0.6,0.4c2.1,1.4,3.4,3.4,4,5.9c0.5,2.7,0,5.2-1.5,7.5c-1.4,2-3,3.1-5.3,3.9  c-0.5,4.2,0.7,6.8,3,10.2c1.3-0.4,2.5-1,3.7-1.7c0.4-0.2,0.8-0.5,1.3-0.7c0.2-0.1,0.5-0.3,0.7-0.4c1.7-1,3.5-2,5.2-3  c1.4-0.8,2.8-1.6,4.2-2.5c3.3-2,6.4-3.6,10.4-2.7c2.1,0.7,3.9,1.7,5.8,2.9c0.6,0.3,1.2,0.7,1.7,1c0.3,0.2,0.6,0.4,0.9,0.5  c1.6,0.9,3.2,1.8,4.7,2.7c0.6,0.3,1.1,0.7,1.7,1c0.3,0.2,0.5,0.3,0.8,0.5c0.6,0.3,1.2,0.7,1.8,1c0.4,0.3,0.4,0.3,0.9,0.5  c0.3,0.2,0.5,0.3,0.8,0.5c0.6,0.4,0.6,0.4,1.2,0.4c2.4-2.8,3.4-5.7,3.1-9.3c-0.1-0.4-0.1-0.4-0.1-0.9c-0.2-0.1-0.4-0.2-0.6-0.3  c-2.8-1.3-4.7-2.9-5.8-5.8c-0.8-2.5-0.6-5.1,0.4-7.5c1.1-2.2,2.9-3.9,5.1-5c2.4-0.8,5.8-0.7,8.1,0.4c2.6,1.7,4.1,3.6,5.1,6.5  c0.2,3.2,0.1,5.8-2,8.4c-1.5,1.6-2.7,2.7-4.9,3c0,0.3,0,0.3,0,0.5c0.4,4.4-0.2,7.4-2.7,11.1c-0.4,0.7-0.4,0.7-0.9,1.9  c1.1,0.6,2.2,1.3,3.3,1.9c0.7-0.9,1.3-1.6,1.8-2.6c0.1-0.2,0.3-0.5,0.4-0.7c0.3-0.5,0.5-1,0.8-1.4c0.1-0.2,0.3-0.5,0.4-0.7  c0.2-0.3,0.2-0.3,0.3-0.6c0.4-0.6,0.8-1,1.5-1.4c0.7-0.1,0.7-0.1,1.6-0.1c0.3,0,0.6,0,1,0c0.3,0,0.7,0,1,0c0.5,0,0.5,0,1.1,0  c0.9,0,1.8,0,2.8,0c0.9,0,1.9,0,2.8,0c1.8,0,3.7,0,5.5-0.1c0.1-0.2,0.2-0.5,0.3-0.7c0.1-0.3,0.3-0.6,0.4-0.9  c0.2-0.4,0.2-0.4,0.4-0.9c1.3-2.3,3.5-3.6,6-4.3c2.7-0.5,5.3,0,7.7,1.4c1.9,1.3,3.6,3.3,4,5.6c0.3,3.5,0.1,6.1-2.2,8.9  c-1.7,1.8-3.9,3-6.4,3c-3,0-5.4-0.5-7.6-2.7c-1.1-1.2-2.2-2.6-2.2-4.3c-1.9-0.1-3.8-0.1-5.6-0.1c-0.6,0-1.3,0-1.9-0.1  c-3.5-0.3-3.5-0.3-6.6,0.9c-1,1.3-1.6,2.7-2.2,4.2c-0.1,0.2-0.2,0.4-0.3,0.6c0.2,0.1,0.4,0.1,0.6,0.2c1.4,0.5,2.7,1.3,4,2.1  c0.3,0.2,0.5,0.3,0.8,0.5c2.2,1.3,4,2.7,5.1,5c0.2,0.4,0.2,0.4,0.4,0.8c0.6,1.5,0.6,2.9,0.6,4.5c0,0.3,0,0.3,0,0.6  c0,0.6,0,1.1,0,1.7c0,0.4,0,0.8,0,1.2c0,1,0,1.9,0,2.9c0.3,0,0.5,0,0.8,0c1,0,1.9,0,2.9,0c0.4,0,0.8,0,1.3,0c0.6,0,1.2,0,1.8,0  c0.4,0,0.7,0,1.1,0c1.2,0.1,2,0.3,2.9,1.1c0.5,0.9,0.5,1.5,0.3,2.6c-0.8,1-1.2,1.3-2.4,1.5c-0.4,0-0.8,0-1.2,0c-0.2,0-0.4,0-0.6,0  c-0.7,0-1.4,0-2.1,0c-1.6,0-3.1-0.1-4.8-0.1c0,5.2,0,10.4,0,15.8c3.1-0.1,3.1-0.1,6.2-0.1c0.4,0,0.8,0,1.2,0c0.2,0,0.4,0,0.6,0  c1.1,0,1.6,0.1,2.5,0.8c0.6,0.7,0.7,1,0.7,1.8c-0.2,1.1-0.2,1.1-0.7,1.8c-0.8,0.6-1.3,0.7-2.3,0.8c-0.4,0-0.4,0-0.8,0  c-0.3,0-0.5,0-0.8,0s-0.6,0-0.8,0c-0.6,0-1.2,0-1.8,0c-0.9,0-1.8,0-2.7,0c-0.6,0-1.1,0-1.7,0c-0.3,0-0.5,0-0.8,0  c-2.4,0-2.4,0-3.5-0.9c-0.3-0.7-0.3-1.1-0.3-1.8c0-0.3,0-0.5,0-0.8s0-0.6,0-0.9s0-0.6,0-0.9c0-0.7,0-1.3,0-2c0-1.1,0-2.1,0-3.2  c0-3,0-6.1,0-9.1c0-1.9,0-3.7,0-5.6c0-0.7,0-1.4,0-2.1c0-1,0-2,0-3c0-0.3,0-0.6,0-0.9c0-2-0.2-3.7-1.6-5.2  c-1.3-0.9-2.7-1.7-4.1-2.5c-0.7-0.4-1.4-0.8-2.1-1.2c-0.4-0.2-0.7-0.4-1.1-0.6c-1.6-0.9-3.3-1.9-4.9-2.8c-3.2-1.9-6.4-3.7-9.6-5.5  c-1.5-0.9-3-1.7-4.5-2.6c-0.6-0.3-1.2-0.7-1.8-1c-1.1-0.6-2.2-1.3-3.3-1.9c-0.5-0.3-1-0.6-1.5-0.9c-0.6-0.4-1.2-0.7-1.9-1.1  c-0.5-0.3-1.1-0.6-1.6-0.9c-0.4-0.3-0.9-0.5-1.3-0.8c-1.2-0.7-2.1-1.1-3.6-1c-1.9,0.6-3.5,1.5-5.2,2.6c-0.6,0.4-1.2,0.7-1.8,1.1  c-0.3,0.2-0.6,0.4-0.9,0.5c-1.5,0.9-3,1.7-4.5,2.6c-0.6,0.3-1.2,0.7-1.8,1c-0.3,0.2-0.6,0.3-0.9,0.5c-1.5,0.9-3,1.7-4.5,2.6  c-0.6,0.3-1.2,0.7-1.8,1c-0.3,0.2-0.6,0.3-0.9,0.5c-2.7,1.6-2.7,1.6-3.6,2.1c-0.6,0.3-1.2,0.7-1.8,1c-1.4,0.8-2.8,1.6-4.2,2.4  c-0.5,0.3-1,0.6-1.5,0.8c-0.6,0.4-1.2,0.7-1.8,1.1c-3.8,1.9-3.8,1.9-6.2,5.2c-0.2,0.8-0.2,1.6-0.2,2.4c0,0.2,0,0.4,0,0.5  c0,0.6,0,1.2,0,1.8c0,0.4,0,0.9,0,1.3c0,1.2,0,2.3,0,3.5c0,0.7,0,1.5,0,2.2c0,2.3,0,4.6,0,6.9c0,2.7,0,5.3,0,8c0,2.1,0,4.1,0,6.2  c0,1.2,0,2.4,0,3.7c0,1.2,0,2.3,0,3.5c0,0.4,0,0.8,0,1.3c-0.1,3.6-0.1,3.6,1.6,6.6c1.3,0.9,2.7,1.7,4.1,2.5  c0.7,0.4,1.4,0.8,2.1,1.2c0.4,0.2,0.7,0.4,1.1,0.6c1.6,0.9,3.3,1.9,4.9,2.8c3.2,1.9,6.4,3.7,9.6,5.5c1.5,0.9,3,1.7,4.5,2.6  c0.6,0.3,1.2,0.7,1.8,1c1.1,0.6,2.2,1.3,3.3,1.9c0.5,0.3,1,0.6,1.5,0.9c0.6,0.4,1.2,0.7,1.9,1.1c0.5,0.3,1.1,0.6,1.6,0.9  c0.4,0.3,0.9,0.5,1.3,0.8c1.2,0.7,2.1,1.1,3.6,1c1.9-0.6,3.5-1.5,5.2-2.6c0.6-0.4,1.2-0.7,1.8-1.1c0.3-0.2,0.6-0.4,0.9-0.5  c1.5-0.9,3-1.7,4.5-2.6c0.6-0.3,1.2-0.7,1.8-1c0.3-0.2,0.6-0.3,0.9-0.5c1.5-0.9,3-1.7,4.5-2.6c0.6-0.3,1.2-0.7,1.8-1  c0.3-0.2,0.6-0.3,0.9-0.5c2.7-1.6,2.7-1.6,3.6-2.1c0.6-0.3,1.2-0.7,1.8-1c1.4-0.8,2.8-1.6,4.2-2.4c0.5-0.3,1-0.6,1.5-0.8  c0.6-0.4,1.2-0.7,1.8-1.1c3.5-1.8,3.5-1.8,6-4.7c0.1-0.5,0.2-0.9,0.3-1.4c0.2-0.8,0.3-1.3,0.7-2.1c1-0.6,2-0.6,3.2-0.4  c0.7,0.4,0.7,0.4,1.1,1.1c0.5,2.2,0.1,4.1-1,6.1c-1.7,2.6-4.1,4.1-6.7,5.5c-0.3,0.2-0.6,0.3-0.9,0.5c-2.1,1.2-2.1,1.2-2.7,1.2  c0.5,0.8,0.9,1.6,1.4,2.5c0.1,0.2,0.3,0.5,0.4,0.7s0.2,0.4,0.4,0.7c0.1,0.2,0.2,0.4,0.3,0.6c0.3,0.5,0.3,0.5,0.6,0.8  c0.4,0,0.8,0,1.3,0.1c0.3,0,0.5,0,0.8,0s0.6,0,0.9,0s0.6,0,0.9,0c1,0,1.9,0,2.9,0.1c0.7,0,1.3,0,2,0c1.6,0,3.2,0.1,4.8,0.1  c0-0.3,0.1-0.5,0.1-0.8c0.4-1.9,1.7-3.5,3.3-4.6c0.4-0.2,0.8-0.5,1.3-0.7c0.2-0.1,0.3-0.2,0.5-0.3c2.2-1,5.4-0.9,7.6-0.1  c2.6,1.3,4.4,3.3,5.4,6c0.7,2,0.7,5-0.2,6.9c-0.3,0.6-0.3,0.6-0.7,1.1c-0.1,0.2-0.2,0.4-0.4,0.6c-1.4,2.1-3.4,3.4-5.8,4  c-2.7,0.5-5,0.1-7.4-1.3c-2-1.4-3.1-3.2-4.1-5.4c-0.2,0-0.4,0-0.6,0c-1.8,0-3.7,0-5.5,0c-0.9,0-1.9,0-2.8,0c-1.1,0-2.2,0-3.3,0  c-0.3,0-0.7,0-1,0s-0.6,0-1,0c-0.3,0-0.6,0-0.8,0c-1.2-0.2-1.9-0.9-2.5-1.8c-0.1-0.2-0.2-0.4-0.3-0.6c-0.1-0.2-0.2-0.4-0.3-0.7  c-0.1-0.2-0.2-0.4-0.3-0.7c-0.2-0.4-0.5-0.9-0.7-1.3c-0.1-0.2-0.2-0.4-0.3-0.6c-0.4-0.8-0.4-0.8-1.5-2c-1.1,0.6-2.2,1.3-3.3,1.9  c0.4,1,0.7,1.6,1.3,2.5c2.4,3.7,2.7,6.7,2.3,11.1c0.2,0,0.5,0.1,0.7,0.1c1.9,0.4,3.5,1.7,4.6,3.4c0.2,0.4,0.5,0.8,0.7,1.3  c0.1,0.2,0.2,0.3,0.3,0.5c1,2.2,0.9,5.4,0.1,7.6c-1.2,2.5-3.2,4.4-5.7,5.4c-2,0.7-5.2,0.7-7.2-0.2c-0.6-0.3-0.6-0.3-1.1-0.7  c-0.2-0.1-0.4-0.2-0.6-0.4c-2.1-1.4-3.4-3.4-4-5.9c-0.5-2.7,0-5.2,1.5-7.5c1.4-2,3-3.1,5.3-3.9c0.5-4.2-0.7-6.8-3-10.2  c-1,0.4-1.9,0.8-2.8,1.3c-0.3,0.2-0.5,0.3-0.8,0.5s-0.6,0.3-0.9,0.5s-0.6,0.3-0.9,0.5c-2.1,1.2-4.3,2.4-6.4,3.7  c-0.3,0.2-0.6,0.3-0.8,0.5c-1.2,0.7-2.3,1.4-3.4,2c-3,1.8-5.9,2.8-9.3,2.1c-2.1-0.7-3.9-1.7-5.8-2.9c-0.6-0.3-1.2-0.7-1.7-1  s-0.5-0.3-0.9-0.5c-1.6-0.9-3.2-1.8-4.7-2.7c-0.6-0.3-1.1-0.7-1.7-1c-0.3-0.2-0.5-0.3-0.8-0.5c-0.6-0.3-1.2-0.7-1.8-1  c-0.3-0.2-0.6-0.4-0.9-0.5c-0.3-0.2-0.5-0.3-0.8-0.5c-0.6-0.4-0.6-0.4-1.2-0.4c-2.4,2.8-3.4,5.7-3.1,9.3c0,0.3,0.1,0.6,0.1,0.9  c0.2,0.1,0.4,0.2,0.6,0.3c2.8,1.3,4.7,2.9,5.8,5.8c0.8,2.5,0.6,5.1-0.4,7.5c-1.1,2.2-2.9,3.9-5.1,5c-2.4,0.8-5.8,0.7-8.1-0.4  c-2.6-1.7-4.1-3.6-5.1-6.5c-0.2-3.4,0.1-6.1,2.3-8.9c1.4-1.4,2.7-2.2,4.6-2.4c0-0.2,0-0.3,0-0.5c-0.4-4.4,0.2-7.4,2.7-11.1  c0.4-0.7,0.4-0.7,0.9-1.9c-1.1-0.6-2.2-1.3-3.3-1.9c-0.7,0.9-1.3,1.6-1.8,2.6c-0.1,0.2-0.3,0.5-0.4,0.7c-0.3,0.5-0.5,1-0.8,1.4  c-0.1,0.2-0.3,0.5-0.4,0.7c-0.2,0.3-0.2,0.3-0.3,0.6c-0.4,0.6-0.8,1-1.5,1.4c-0.7,0.1-0.7,0.1-1.6,0.1c-0.3,0-0.6,0-1,0  c-0.5,0-0.5,0-1,0s-0.5,0-1.1,0c-0.9,0-1.8,0-2.8,0c-0.9,0-1.9,0-2.8,0c-1.8,0-3.7,0-5.5,0.1c-0.1,0.2-0.2,0.5-0.3,0.7  c-0.1,0.3-0.3,0.6-0.4,0.9s-0.3,0.6-0.4,0.9c-1.3,2.3-3.5,3.6-6,4.3c-2.7,0.5-5.3,0-7.7-1.4c-1.9-1.3-3.6-3.3-4-5.6  c-0.3-3.5-0.1-6.1,2.2-8.9c1.7-1.8,3.9-3,6.4-3c3,0,5.4,0.5,7.6,2.7c1.1,1.2,2.2,2.6,2.2,4.3c1.9,0.1,3.8,0.1,5.6,0.1  c0.6,0,1.3,0,1.9,0.1c3.5,0.3,3.5,0.3,6.6-0.9c1-1.3,1.6-2.7,2.2-4.2c0.1-0.2,0.2-0.4,0.3-0.6c-0.3-0.1-0.3-0.1-0.6-0.2  c-1.4-0.5-2.7-1.3-4-2.1c-0.3-0.2-0.5-0.3-0.8-0.5c-2.2-1.3-4-2.6-5.1-5c-0.1-0.3-0.3-0.5-0.4-0.8c-0.7-1.7-0.6-3.5-0.6-5.4  c0-0.2,0-0.5,0-0.7c0-0.8,0-1.5,0-2.3c0-0.5,0-1,0-1.6c0-1.3,0-2.6,0-3.8c-0.3,0-0.6,0-0.8,0c-1,0-2.1,0-3.1,0c-0.4,0-0.9,0-1.3,0  c-0.6,0-1.3,0-1.9,0c-0.3,0-0.3,0-0.6,0c-1,0-1.8,0-2.7-0.6c-0.6-0.9-0.6-1.4-0.7-2.5c0.3-1,0.8-1.4,1.5-2c0.8-0.1,1.4-0.2,2.3-0.1  c0.2,0,0.4,0,0.6,0c0.7,0,1.4,0,2.1,0c1.6,0,3.1,0.1,4.8,0.1c0-5.2,0-10.4,0-15.8c-3.1,0.1-3.1,0.1-6.2,0.1c-0.4,0-0.8,0-1.2,0  c-0.2,0-0.4,0-0.6,0c-1.1,0-1.6-0.1-2.5-0.8C17.2,65,17.2,65,17.1,64c0.2-1.1,0.4-1.6,1.3-2.4c1-0.4,2.1-0.3,3.1-0.3  c0.3,0,0.3,0,0.6,0c0.6,0,1.2,0,1.9,0c0.4,0,0.8,0,1.3,0c1,0,2.1,0,3.1,0c0-0.2,0-0.5,0-0.7c0-0.9,0-1.7,0-2.6c0-0.6,0-1.1,0-1.7  c0-3.5,0.2-6.5,2.8-9.2c1.6-1.5,3.3-2.6,5.3-3.6c0.3-0.2,0.6-0.3,0.9-0.5c2.1-1.2,2.1-1.2,2.7-1.2c-0.5-0.8-0.9-1.6-1.4-2.5  c-0.1-0.2-0.3-0.5-0.4-0.7c-0.2-0.3-0.2-0.3-0.4-0.7c-0.1-0.2-0.2-0.4-0.3-0.6c-0.3-0.5-0.3-0.5-0.6-0.8c-0.4,0-0.8,0-1.3-0.1  c-0.3,0-0.5,0-0.8,0s-0.6,0-0.9,0c-0.3,0-0.6,0-0.9,0c-1,0-1.9,0-2.9-0.1c-0.7,0-1.3,0-2,0c-1.6,0-3.2-0.1-4.8-0.1  c0,0.3-0.1,0.5-0.1,0.8c-0.4,2.1-2.3,3.8-4,5c-2.4,1.5-5.3,1.5-8,0.9c-2.4-0.8-4.4-2.6-5.6-4.9c-1-2.3-1.2-5.1-0.6-7.6  c0.3-0.6,0.6-1.1,0.9-1.7c0.1-0.2,0.2-0.4,0.4-0.6c1.4-2.1,3.4-3.4,5.8-4c2.7-0.5,5-0.1,7.4,1.3c2,1.4,3.1,3.2,4.1,5.4  c0.2,0,0.4,0,0.6,0c1.8,0,3.7,0,5.5,0c0.9,0,1.9,0,2.8,0c1.1,0,2.2,0,3.3,0c0.3,0,0.7,0,1,0s0.6,0,1,0c0.3,0,0.6,0,0.8,0  c1.2,0.2,1.9,0.9,2.5,1.8c0.1,0.2,0.2,0.4,0.3,0.6c0.1,0.2,0.2,0.4,0.3,0.7c0.1,0.2,0.2,0.4,0.3,0.7c0.2,0.4,0.5,0.9,0.7,1.3  c0.1,0.2,0.2,0.4,0.3,0.6C43,37,43,37,44,38.2c1.6-1,1.6-1,3.3-1.9c-0.4-1-0.7-1.6-1.3-2.5c-2.4-3.7-2.7-6.7-2.3-11.1  c-0.2,0-0.5-0.1-0.7-0.1c-1.9-0.4-3.5-1.7-4.6-3.4c-0.2-0.4-0.5-0.8-0.7-1.3c-0.1-0.2-0.2-0.3-0.3-0.5c-1-2.2-0.9-5.4-0.1-7.6  c1.2-2.5,3.2-4.4,5.7-5.4C45.4,3.6,49,3.9,51.2,5.3z M42.5,11c-0.9,1.3-0.9,2.4-0.7,4c0.4,1.1,1,1.8,1.9,2.6  c1.5,0.7,2.7,0.9,4.3,0.4c1.4-0.6,2-1.5,2.8-2.8c0.3-1.5,0.1-2.8-0.6-4.1c-1-1.1-1.8-1.7-3.3-2C44.9,9,43.9,9.5,42.5,11z   M99.8,11.1c-0.7,1.3-1,2.6-0.5,4c0.7,1.5,1.6,2.4,3.1,3.1c1.5,0.3,2.6,0.2,4-0.5c1.1-1,1.7-1.8,2-3.3c0.1-1.6-0.1-2.5-1.2-3.7  c-1.4-1.2-2.2-1.5-4-1.5C101.6,9.3,100.7,9.9,99.8,11.1z M9.9,30.4C9,31.7,9,33.1,9.2,34.6c0.6,1.2,1.4,2,2.5,2.8  c1.3,0.4,2.6,0.5,3.9,0.1c1.2-0.6,1.9-1.4,2.5-2.6c0.4-1.3,0.4-2.4-0.2-3.7C17,29.8,16,29,14.4,28.6C12.6,28.3,11.1,29.1,9.9,30.4z   M132.7,30.3c-0.9,1.4-1.1,2.3-0.9,4c0.3,1.4,1,2.1,2.1,2.9c1.2,0.6,2.3,0.6,3.5,0.4c1.6-0.5,2.6-1.6,3.3-3  c0.2-1.9,0.1-3.2-1.1-4.7c-1.1-1-2.1-1.3-3.5-1.4C134.7,28.6,133.7,29.3,132.7,30.3z M9.9,114.2c-0.9,1.3-0.9,2.4-0.7,4  c0.4,1.1,1,1.8,1.8,2.6c1.3,0.7,2.6,1,4,0.5c1.5-0.7,2.3-1.5,3.1-2.9c0.4-1.5,0.1-2.8-0.5-4.2c-1-1.1-1.8-1.7-3.3-2  C12.3,112.1,11.2,112.7,9.9,114.2z M132.4,114.2c-0.7,1.3-1,2.6-0.5,4c0.7,1.5,1.5,2.3,2.9,3.1c1.5,0.4,2.8,0.1,4.2-0.5  c1.1-1,1.7-1.8,2-3.3c0.1-1.6-0.1-2.5-1.2-3.7c-1.4-1.2-2.2-1.5-4-1.5C134.2,112.4,133.4,113.1,132.4,114.2z M43,133.2  c-1.1,1.3-1.3,2.2-1.2,3.9c0.2,1.4,0.9,2.1,1.9,3c1.3,0.9,2.4,0.9,4,0.7c1.1-0.4,1.8-1,2.6-1.8c0.7-1.3,1-2.6,0.5-4  c-0.7-1.5-1.6-2.4-3.2-3.1C45.7,131.4,44.4,132,43,133.2z M100.5,132.9c-0.9,1-1.5,1.9-1.5,3.2c0.1,1.5,0.4,2.4,1.4,3.6  c1.3,1,2.4,1.3,4,1.2c1.3-0.2,2.1-1,3-1.9c0.9-1.3,0.9-2.4,0.7-4c-0.4-1.1-1-1.8-1.9-2.6C104.3,131.4,102.3,131.4,100.5,132.9z"></path>	<path d="M66.7,41.4c0.3,0,0.3,0,0.7,0c2.3,0,4.4,0.5,6.3,1.8c0.7,0.5,0.7,0.5,1.4,0.4c1-0.3,1.8-0.8,2.8-1.2  c2.9-1.3,6.7-1.4,9.7-0.5c3.1,1.3,5.6,3.4,7,6.4c0.3,0.8,0.6,1.5,0.9,2.3C96,51,96,51,96.8,51.4c4.3,2.2,7.6,6.4,9.2,10.9  c1.2,4.2,0.9,8.1-0.2,12.3c-0.1,0.8,0,1.4,0.3,2.1c1.4,4.7,0.9,9.7-1.5,14c-0.1,0.2-0.3,0.5-0.4,0.8c-2.1,3.6-5,6-8.7,7.8  c-0.2,0.5-0.4,1-0.6,1.5c-1.3,3.2-3.3,5.2-6.4,6.7c-1.8,0.7-3.5,1-5.4,1c-0.2,0-0.4,0-0.7,0c-2.2,0-4.3-0.5-6.2-1.8  c-0.7-0.5-0.7-0.5-1.4-0.4c-1,0.3-1.8,0.8-2.8,1.2c-3.2,1.5-7.2,1.3-10.5,0.2c-3.5-1.6-5.5-4-6.9-7.6c-0.1-0.3-0.2-0.5-0.3-0.8  c-0.6-0.4-0.6-0.4-1.3-0.7c-4.3-2.2-7.7-6.4-9.2-10.9c-1.2-4.3-0.9-8.1,0.2-12.3c0.1-0.8,0-1.4-0.3-2.1c-1.5-5.2-0.7-10.1,1.9-14.8  c1.9-3.2,4.7-6.2,8.2-7.5c0.8-0.5,0.9-1.1,1.2-1.9c1.3-3.2,3.3-5.2,6.4-6.7C63.3,41.7,64.9,41.4,66.7,41.4z M60.6,49.3  c-0.6,1-1,2-1.2,3.1c-0.1,0.8-0.3,1.2-0.7,1.9c-0.8,0.5-1.6,1-2.5,1.4c-3.6,1.8-6,4.8-7.4,8.6c-0.9,3.1-0.7,6.3,0.6,9.3  c0.6,1.7-0.1,3.5-0.7,5.1c-1,2.9-0.5,6.1,0.7,8.8c1.8,3.5,4.5,6.1,8.1,7.6c1.2,0.6,1.2,0.6,1.6,1.3c0.1,0.4,0.2,0.8,0.3,1.3  c0.5,2.1,1.6,3.9,3.5,5.1c1.9,1.1,4.4,1.2,6.5,0.6c1.4-0.6,2.4-1.4,3.5-2.4c0.8-0.7,1.4-1,2.5-1c1.2,0.3,1.6,0.8,2.4,1.7  c1.7,1.7,3.9,2,6.2,2c2.1-0.2,4-1.2,5.4-2.8c0.6-1,1-2,1.2-3.1c0.1-0.8,0.3-1.2,0.7-1.9c0.8-0.5,1.6-1,2.5-1.4  c3.7-1.8,6-4.8,7.4-8.6c0.9-2.8,0.7-5.7-0.3-8.4c-0.7-1.9-0.5-3.3,0.2-5.2c1.1-3.2,0.8-6.5-0.5-9.6c-1.8-3.5-4.5-6.1-8.1-7.6  c-1.2-0.6-1.2-0.6-1.6-1.3c-0.1-0.4-0.2-0.8-0.3-1.3c-0.5-2.1-1.6-3.9-3.5-5.1c-1.9-1.1-4.4-1.2-6.5-0.6c-1.4,0.6-2.4,1.4-3.5,2.4  c-0.8,0.7-1.4,1-2.5,1c-1.2-0.3-1.6-0.8-2.4-1.7c-1.7-1.7-3.9-2-6.2-2C63.8,46.6,62,47.7,60.6,49.3z"></path>	<path d="M70.6,63.4c1.2,1.1,1.7,2.6,2.3,4.1c0.1,0.3,0.2,0.5,0.3,0.8c0.4,0.8,0.7,1.7,1,2.5c0.2,0.5,0.5,1.1,0.7,1.6  c0.3,0.8,0.7,1.6,1,2.4c0.5,1.3,1.1,2.6,1.7,3.9c0.1,0.2,0.2,0.5,0.3,0.7c0.2,0.4,0.4,0.9,0.6,1.3c0.6,1.4,1,2.5,0.4,4  c-0.3,0.5-0.3,0.5-1.2,1c-1.9,0.2-1.9,0.2-3-0.6c-0.6-0.8-0.6-0.8-1.4-2.7c-2.7,0-5.5,0-8.3,0c-0.5,0.9-0.9,1.8-1.4,2.8  c-1,0.7-1.9,0.7-3,0.6c-0.9-0.6-1.1-1-1.3-2c-0.1-1.2,0.2-2,0.7-3.1c0.1-0.2,0.2-0.4,0.3-0.6c0.3-0.6,0.5-1.3,0.8-1.9  c0.2-0.4,0.4-0.9,0.6-1.3c0.4-0.9,0.8-1.8,1.2-2.7c0.6-1.3,1.1-2.6,1.6-3.9c0.2-0.4,0.3-0.8,0.5-1.2c0.2-0.6,0.5-1.1,0.7-1.7  c0.2-0.5,0.4-1,0.6-1.6c0.1-0.3,0.2-0.6,0.4-0.9c0.3-0.7,0.6-1.1,1.2-1.6C68.8,63,69.5,63.1,70.6,63.4z M69.2,72.5  c-0.3,0.5-0.5,1-0.8,1.6c-0.2,0.3-0.3,0.6-0.5,0.9c-0.5,0.9-0.5,0.9-0.7,2.2c1.3,0,2.6,0,3.9,0c-0.2-1.2-0.5-2-1-3.1  c-0.1-0.3-0.3-0.6-0.4-0.9s-0.1-0.3-0.3-0.7C69.4,72.5,69.3,72.5,69.2,72.5z"></path>	<path d="M86.6,63.4c0.8,0.7,1.1,1.2,1.2,2.3c0,0.3,0,0.7,0,1c0,0.2,0,0.4,0,0.6c0,0.6,0,1.2,0,1.8c0,0.4,0,0.9,0,1.3  c0,0.9,0,1.8,0,2.7c0,1.1,0,2.3,0,3.4c0,0.9,0,1.8,0,2.7c0,0.4,0,0.8,0,1.3c0,0.6,0,1.2,0,1.8c0,0.3,0,0.7,0,1  c-0.1,1-0.4,1.5-0.9,2.3C86,85.9,85,86,84.1,85.8c-0.9-0.7-1.3-1.1-1.6-2.3c0-0.3,0-0.7,0-1c0-0.2,0-0.4,0-0.6c0-0.6,0-1.2,0-1.9  c0-0.4,0-0.9,0-1.3c0-0.9,0-1.8,0-2.7c0-1.2,0-2.3,0-3.5c0-0.9,0-1.8,0-2.7c0-0.4,0-0.9,0-1.3c0-0.6,0-1.2,0-1.8c0-0.3,0-0.7,0-1  c0.2-1.1,0.5-1.5,1.2-2.3C84.9,63,85.5,63.1,86.6,63.4z"></path></g></svg>