<svg xmlns="http://www.w3.org/2000/svg" xmlns:xlink="http://www.w3.org/1999/xlink" id="Layer_1" x="0px" y="0px" viewBox="0 0 150 150" style="enable-background:new 0 0 150 150;" xml:space="preserve"><g>	<path d="M17.5,3.3c0.3,0,0.3,0,0.6,0c0.7,0,1.4,0,2,0c0.5,0,1,0,1.5,0c1.3,0,2.7,0,4,0c1.5,0,2.9,0,4.4,0c3.5,0,7,0,10.5,0  c1.7,0,3.3,0,5,0c5.5,0,11,0,16.5,0c1.4,0,2.8,0,4.3,0c0.4,0,0.7,0,1.1,0c5.7,0,11.5,0,17.2,0c5.9,0,11.8,0,17.7,0  c3.3,0,6.6,0,9.9,0c2.8,0,5.6,0,8.4,0c1.4,0,2.9,0,4.3,0c1.3,0,2.6,0,3.9,0c0.5,0,0.9,0,1.4,0c4.8,0,8.8,1,12.4,4.4  c2.6,2.7,4.2,6.1,4.2,9.9c0,0.4,0,0.7,0,1.1c0,0.4,0,0.8,0,1.2c0,0.4,0,0.8,0,1.3c0,1.2,0,2.3,0,3.5c0,1.3,0,2.5,0,3.8  c0,3,0,6.1,0,9.1c0,1.4,0,2.9,0,4.3c0,4.8,0,9.5,0,14.3c0,1.2,0,2.5,0,3.7c0,0.3,0,0.6,0,0.9c0,5,0,9.9,0,14.9c0,5.1,0,10.2,0,15.3  c0,2.9,0,5.7,0,8.6c0,2.4,0,4.9,0,7.3c0,1.2,0,2.5,0,3.7c0,1.1,0,2.3,0,3.4c0,0.4,0,0.8,0,1.2c0,4.6-1.2,8.5-4.4,11.9  c-3.1,3-7.1,4.5-11.4,4.5c-0.3,0-0.6,0-0.9,0c-0.1,0.2-0.1,0.4-0.2,0.6c-2.5,5.8-8.7,10.2-14.4,12.5c-7.5,2.9-15.8,2.8-23.1-0.4  c-2.2-1.1-4.2-2.3-6.2-3.7c-4.6-3.1-9.8-4.2-15.2-3.2c-3.2,0.7-5.8,2-8.6,3.9c-5.3,3.6-10.8,5.4-17.2,5.4c-0.4,0-0.7,0-1.1,0  c-7-0.1-12.8-2.5-18.2-6.8c-0.3-0.3-0.3-0.3-0.7-0.5c-2.3-1.9-4.4-4.4-5.8-7.1c0-0.2,0-0.4,0-0.6c-0.3,0-0.6,0-0.9,0  c-4.7-0.2-8.7-1.6-12-5c-2.2-2.6-3.7-5.9-3.7-9.3c0-0.4,0-0.7,0-1.1c0-0.4,0-0.8,0-1.2c0-0.4,0-0.9,0-1.3c0-1.2,0-2.3,0-3.5  c0-1.3,0-2.5,0-3.8c0-3.1,0-6.1,0-9.2c0-1.4,0-2.9,0-4.3c0-4.8,0-9.6,0-14.3c0-1.2,0-2.5,0-3.7c0-0.3,0-0.6,0-0.9c0-5,0-10,0-15  c0-5.1,0-10.3,0-15.4c0-2.9,0-5.8,0-8.6c0-2.5,0-4.9,0-7.4c0-1.2,0-2.5,0-3.7c0-1.1,0-2.3,0-3.4c0-0.4,0-0.8,0-1.2  c0-4.5,1.3-8.3,4.4-11.6C10.2,4.9,13.6,3.3,17.5,3.3z M9.8,10.4c-5.5,6.2-3.3,16-3.3,23.3c45.2,0,90.4,0,137,0  c1.1-12.5,1.1-12.5-3.7-23.6c-3.8-3.3-8-3.3-12.7-3.3c-0.5,0-0.9,0-1.4,0c-1.3,0-2.6,0-3.8,0c-1.4,0-2.8,0-4.1,0  c-2.7,0-5.4,0-8.1,0c-2.2,0-4.4,0-6.6,0c-6.2,0-12.5,0-18.7,0c-0.3,0-0.7,0-1,0c-0.3,0-0.7,0-1,0c-5.5,0-10.9,0-16.4,0  c-5.6,0-11.2,0-16.8,0c-3.1,0-6.3,0-9.4,0c-2.7,0-5.4,0-8,0c-1.4,0-2.7,0-4.1,0c-1.3,0-2.5,0-3.8,0c-0.5,0-0.9,0-1.4,0  C17.7,6.6,13.4,7,9.8,10.4z M6.5,37.1c0,13,0,26,0,39.4c0,4.1,0,8.2,0,12.4c0,3.7,0,3.7,0,7.4c0,1.6,0,3.3,0,4.9c0,1.9,0,3.8,0,5.7  c0,1,0,1.9,0,2.9c0,1,0,2.1,0,3.1c0,0.3,0,0.6,0,0.9c0,4.1,0.8,7.9,3.7,11c2.2,1.9,4.7,3.1,7.6,3c-0.1-0.4-0.1-0.4-0.2-0.7  c-2.5-8.4-2-17,2.2-24.8c1-1.9,2.3-3.5,3.7-5.1c0.1-0.2,0.3-0.4,0.4-0.6c4.2-5.2,10.9-7.8,17.3-8.6c2.2-0.2,4.5-0.2,6.8-0.2  c0.5,0,1,0,1.5,0c1.3,0,2.7,0,4,0c1.4,0,2.7,0,4.1,0c2.7,0,5.3-0.1,8-0.1c0-0.3,0-0.6,0-0.9c0-0.4,0-0.8,0.1-1.2c0-0.2,0-0.4,0-0.6  c0.1-1.6,0.2-2.5,1.3-3.7c1.8-1.6,4.2-1.3,6.5-1.4c0-0.3,0-0.3,0-0.5c0-0.8,0.1-1.5,0.1-2.3c0-0.3,0-0.5,0-0.8c0-0.3,0-0.5,0-0.8  c0-0.4,0-0.4,0-0.7c0.1-0.5,0.1-0.5,0.3-0.8c0.5,0,0.5,0,1.1,0c0.2,0,0.4,0,0.6,0c0.5,0,0.5,0,0.8,0.3c0,0.4,0.1,0.8,0.1,1.3  c0,0.3,0,0.5,0,0.8c0,0.3,0,0.5,0,0.8c0,0.3,0,0.5,0,0.8c0,0.7,0.1,1.3,0.1,2c0.3,0,0.6,0,0.9,0c4.1,0.1,4.1,0.1,5.5,1.4  c1.2,1.3,1.2,2.6,1.3,4.3c0,0.2,0,0.4,0,0.6c0,0.5,0.1,1,0.1,1.5c0.4,0,0.4,0,0.8,0c2.6,0,5.3,0,7.9,0.1c1.4,0,2.7,0,4.1,0  c1.3,0,2.6,0,3.9,0c0.5,0,1,0,1.5,0c7.7,0.1,15.1,1.3,21,6.6c0.2,0.1,0.4,0.3,0.6,0.4c5.4,4.3,8.7,11.8,9.5,18.5  c0.4,4.9,0,9.7-1.6,14.4c3.1,0,5.7-1.3,7.9-3.4c3-3.4,3.3-7.1,3.3-11.4c0-0.3,0-0.6,0-1c0-0.9,0-1.8,0-2.7c0-1,0-2,0-2.9  c0-1.9,0-3.8,0-5.7c0-2.2,0-4.4,0-6.6c0-5.8,0-11.6,0-17.5c0-13,0-26,0-39.4C98.3,37.1,53.1,37.1,6.5,37.1z M69.1,83.9  c-0.4,1.1-0.4,1.1-0.3,3.6c4.1,0,8.2,0,12.4,0c0.2-2.4,0.2-2.4-0.8-4.2c-1.5-0.5-3.1-0.3-4.7-0.3c-0.6,0-1.3,0-1.9,0  c-0.4,0-0.8,0-1.2,0c-0.4,0-0.7,0-1.1,0C70.4,83.1,69.9,83.3,69.1,83.9z M26.1,99.2c-5.1,5.9-7.1,13-6.7,20.7  c0.6,6.8,4.2,12.9,9.3,17.3c5.6,4.4,12.4,6.6,19.5,5.8c4.6-0.6,8.9-2.3,12.7-5c5.5-3.9,12-5.3,18.7-4.3c3.7,0.8,6.8,2.3,9.9,4.5  c6,4.1,12.7,5.8,20,4.6c6.5-1.3,12.5-5,16.4-10.4c4-6,5.7-13.1,4.4-20.3c-1-4.5-2.8-8.6-5.8-12.1c-0.2-0.2-0.4-0.5-0.6-0.7  c-4.1-4.8-9.8-7.4-16-8c-0.9,0-1.8,0-2.7,0c-0.3,0-0.5,0-0.8,0c-0.9,0-1.8,0-2.7,0c-0.6,0-1.3,0-1.9,0c-1.7,0-3.5,0-5.2,0  c-1.1,0-2.2,0-3.3,0c-3,0-6,0-9,0c-0.2,0-0.4,0-0.6,0c-0.3,0-0.3,0-0.6,0c-0.4,0-0.8,0-1.2,0c-0.2,0-0.4,0-0.6,0  c-3.1,0-6.3,0-9.4,0c-3.2,0-6.5,0-9.7,0c-1.8,0-3.6,0-5.4,0c-1.7,0-3.4,0-5.1,0c-0.6,0-1.2,0-1.9,0C39.3,91.1,32.1,92.8,26.1,99.2z  "></path>	<path d="M44.6,101c0.3,0,0.6,0,0.9,0c1.9,0,3,0.1,4.5,1.2c1.1,1.2,1.4,2,1.4,3.6c0,0.4,0,0.4,0,0.8c0,0.4,0,0.4,0,0.8  c0,0.3,0,0.5,0,0.8c0,0.7,0,1.3,0,2c0.2,0,0.2,0,0.5,0c0.7,0,1.5,0,2.2-0.1c0.3,0,0.5,0,0.8,0c1.7,0,2.7,0.2,4.1,1.2  c1.6,1.7,1.5,3.3,1.5,5.5c0,0.5,0,0.5,0,0.9c0,1.9-0.1,3-1.2,4.5c-1.2,1.1-2,1.4-3.6,1.4c-0.3,0-0.5,0-0.8,0c-0.4,0-0.4,0-0.8,0  c-0.3,0-0.5,0-0.8,0c-0.7,0-1.3,0-2,0c0,0.2,0,0.2,0,0.5c0,0.7,0,1.5,0.1,2.2c0,0.3,0,0.5,0,0.8c0,1.7-0.2,2.7-1.2,4.1  c-1.7,1.6-3.3,1.5-5.5,1.5c-0.5,0-0.5,0-0.9,0c-1.9,0-3-0.1-4.5-1.2c-1.1-1.2-1.4-2-1.4-3.6c0-0.3,0-0.5,0-0.8c0-0.3,0-0.5,0-0.8  c0-0.3,0-0.5,0-0.8c0-0.7,0-1.3,0-2c-0.2,0-0.2,0-0.5,0c-0.7,0-1.5,0-2.2,0.1c-0.3,0-0.5,0-0.8,0c-1.7,0-2.7-0.2-4.1-1.2  c-1.6-1.7-1.5-3.3-1.5-5.5c0-0.3,0-0.6,0-0.9c0-1.9,0.1-3,1.2-4.5c1.2-1.1,2-1.4,3.6-1.4c0.3,0,0.5,0,0.8,0c0.4,0,0.4,0,0.8,0  c0.3,0,0.5,0,0.8,0c0.7,0,1.3,0,2,0c0-0.2,0-0.3,0-0.5c0-0.7,0-1.5-0.1-2.2c0-0.3,0-0.5,0-0.8c0-1.7,0.2-2.7,1.2-4.1  C40.8,100.9,42.4,101,44.6,101z M41.6,105.3c-0.3,0.9-0.3,1.5-0.4,2.4c0,0.3,0,0.6,0,0.9c0,0.6,0,1.3-0.1,1.9c0,0.3,0,0.6,0,0.9  c0,0.4,0,0.4,0,0.8c-0.1,0.6-0.1,0.6-0.3,0.9c-0.5,0-1,0.1-1.5,0.1c-0.3,0-0.6,0-0.9,0c-0.6,0-1.3,0-1.9,0c-0.3,0-0.6,0-0.9,0  c-0.3,0-0.5,0-0.8,0c-0.9,0.1-1.4,0.4-2.2,1c-0.3,0.9-0.3,1.6-0.4,2.5c0,0.3,0,0.6,0,0.9c0.1,1,0.3,1.5,0.9,2.2  c0.9,0.3,1.5,0.3,2.4,0.4c0.3,0,0.6,0,0.9,0c0.6,0,1.3,0,1.9,0.1c0.3,0,0.6,0,0.9,0c0.3,0,0.6,0,0.8,0c0.6,0.1,0.6,0.1,0.9,0.3  c0,0.5,0.1,1,0.1,1.5c0,0.3,0,0.6,0,0.9c0,0.6,0,1.3,0,1.9c0,0.3,0,0.6,0,0.9c0,0.3,0,0.5,0,0.8c0.1,0.9,0.4,1.4,1,2.2  c0.9,0.3,1.6,0.3,2.5,0.4c0.3,0,0.6,0,0.9,0c1-0.1,1.5-0.3,2.2-0.9c0.3-0.9,0.3-1.5,0.4-2.4c0-0.3,0-0.6,0-0.9c0-0.6,0-1.3,0.1-1.9  c0-0.3,0-0.6,0-0.9c0-0.3,0-0.6,0-0.8c0.1-0.6,0.1-0.6,0.3-0.9c0.5,0,1-0.1,1.5-0.1c0.3,0,0.6,0,0.9,0c0.6,0,1.3,0,1.9,0  c0.4,0,0.4,0,0.9,0c0.3,0,0.5,0,0.8,0c0.9-0.1,1.4-0.4,2.2-1c0.3-0.9,0.3-1.6,0.4-2.5c0-0.3,0-0.6,0-0.9c-0.1-1-0.3-1.5-0.9-2.2  c-0.9-0.3-1.5-0.3-2.4-0.4c-0.3,0-0.6,0-0.9,0c-0.6,0-1.3,0-1.9-0.1c-0.3,0-0.6,0-0.9,0c-0.3,0-0.6,0-0.8,0  c-0.6-0.1-0.6-0.1-0.9-0.3c0-0.5-0.1-1-0.1-1.5c0-0.3,0-0.6,0-0.9c0-0.6,0-1.3,0-1.9c0-0.3,0-0.6,0-0.9c0-0.4,0-0.4,0-0.8  c-0.1-0.9-0.4-1.4-1-2.2c-0.9-0.3-1.6-0.3-2.5-0.4c-0.3,0-0.6,0-0.9,0C42.9,104.4,42.4,104.7,41.6,105.3z"></path>	<path d="M60.7,39.9c1.3,0.5,2.2,1.2,2.9,2.4c0.7,1.6,0.9,2.9,0.4,4.6c-0.6,1.4-1.6,2.5-2.5,3.7c-0.1,0.2-0.3,0.4-0.4,0.5  c-1,1.2-1.9,2.4-2.9,3.7c0.4,1.3,1.1,2.2,2,3.1c4.3,5,4.3,5,4.1,7.6c-0.2,1.6-0.9,2.7-2,3.9c-1.5,1-2.9,1.2-4.7,0.9  c-3.1-0.7-5.2-4.6-7.1-7c-0.6-0.7-1.1-1.4-1.7-2.2c-0.2-0.2-0.3-0.4-0.5-0.6c-0.3-0.4-0.6-0.7-0.9-1c-1.2-1.5-2.2-3.1-2-5.1  c0.4-2.5,2.3-4.4,3.9-6.2c1.1-1.4,2.3-2.7,3.3-4.1C55.1,41,56.6,39.4,60.7,39.9z M55,47c-0.2,0.2-0.3,0.4-0.5,0.6  c-0.5,0.6-1,1.2-1.5,1.8c-0.2,0.2-0.3,0.4-0.5,0.6c-0.4,0.5-0.8,1.1-1.3,1.6c-0.1,0.2-0.3,0.3-0.4,0.5c-0.3,0.4-0.7,0.9-1,1.3  c-0.2,0.2-0.4,0.5-0.5,0.7c-0.4,0.7-0.4,0.7-0.2,1.5c0.5,1,1.1,1.7,1.8,2.5c0.3,0.3,0.6,0.6,0.8,1c0.2,0.2,0.2,0.2,0.4,0.5  c0.7,0.8,1.4,1.7,2.1,2.6c0.2,0.2,0.2,0.2,0.4,0.5c0.8,1.1,1.6,2.1,2.4,3.2c0.5,0.6,0.9,0.7,1.7,0.8c0.9,0,0.9,0,1.4-0.7  c0.4-0.8,0.4-0.8,0-1.6c-0.7-1.1-1.4-2.1-2.3-3.1c-0.3-0.4-0.7-0.8-1-1.2c-0.2-0.2-0.3-0.4-0.5-0.6c-0.6-0.7-1.2-1.5-1.8-2.3  c-0.2-0.2-0.4-0.5-0.5-0.7c-0.5-0.9-0.5-1.4-0.4-2.4c0.5-0.8,0.5-0.8,1.2-1.7c0.1-0.2,0.2-0.3,0.4-0.5c0.4-0.5,0.8-1,1.2-1.5  c0.5-0.6,0.9-1.1,1.4-1.7c0.3-0.4,0.6-0.7,0.9-1.1c0.7-0.9,1.4-1.7,1.7-2.8c-0.2-0.8-0.2-0.8-0.8-1.4C57.6,43,56.3,45.4,55,47z"></path>	<path d="M93.8,40.3c2.2,1.9,3.9,4.2,5.6,6.4c0.6,0.7,1.1,1.4,1.7,2.2c0.2,0.3,0.2,0.3,0.5,0.6c0.3,0.4,0.6,0.7,0.9,1  c1.2,1.5,2.2,3.1,2,5.1c-0.4,2.5-2.3,4.4-3.9,6.2c-1.1,1.4-2.3,2.7-3.3,4.1c-2.8,3.6-2.8,3.6-4.6,4.2c-1.9,0.2-3.6,0.2-5.2-1  c-1.2-1.1-1.8-2.4-1.9-4.1c0.1-2.2,1.3-3.8,2.6-5.4c0.5-0.6,0.9-1.1,1.4-1.7c0.3-0.4,0.7-0.8,1-1.1c0.4-0.5,0.8-1,1.2-1.7  c-0.1-1.3-1.2-2.2-2-3.1c-4.3-4.9-4.3-4.9-4.1-7.8c0.2-1.6,0.8-2.6,2-3.7C89.7,39.4,91.7,39.3,93.8,40.3z M90.2,43.5  c-0.6,0.5-0.6,0.5-0.9,1.1c0,1.6,1.6,3,2.6,4.1c2.3,2.8,2.3,2.8,3.3,4.1c0.2,0.2,0.4,0.5,0.5,0.7c0.5,0.9,0.5,1.4,0.4,2.4  c-0.5,0.8-0.5,0.8-1.2,1.6c-0.1,0.2-0.2,0.3-0.4,0.5c-0.6,0.7-1.2,1.4-1.7,2.1c-0.3,0.4-0.7,0.8-1,1.2c-0.3,0.4-0.7,0.8-1,1.2  c-1.1,1.3-1.1,1.3-1.5,2.9c0.4,0.7,0.6,1,1.4,1.4c0.8,0,1-0.1,1.7-0.5c0.5-0.6,0.9-1.1,1.4-1.7c0.3-0.4,0.5-0.7,0.8-1.1  c0.1-0.2,0.3-0.4,0.4-0.6c0.6-0.8,1.2-1.6,1.9-2.3c1.7-2.1,1.7-2.1,3.3-4.2c0.1-0.2,0.3-0.3,0.4-0.5c0.3-0.9,0-1.4-0.4-2.2  c-0.4-0.6-0.9-1.1-1.4-1.7c-0.3-0.3-0.6-0.6-0.8-1c-0.1-0.2-0.3-0.3-0.4-0.5c-0.7-0.8-1.4-1.7-2.1-2.6c-0.1-0.2-0.3-0.3-0.4-0.5  c-0.7-0.9-1.4-1.8-2-2.7c-0.5-0.6-0.8-0.9-1.5-1.4C91,43.2,91,43.2,90.2,43.5z"></path>	<path d="M80.1,40.3c1.2,1,2.3,2.1,2.5,3.8c0.1,2.4-0.5,4.7-1,7c-0.1,0.4-0.2,0.9-0.3,1.3c-0.2,0.9-0.4,1.8-0.6,2.7  c-0.3,1.1-0.5,2.3-0.8,3.4c-0.2,0.9-0.4,1.8-0.6,2.7c-0.1,0.4-0.2,0.8-0.3,1.3c-1.3,5.7-1.3,5.7-3.5,7.2c-1.4,0.8-2.9,0.7-4.5,0.6  c-1.6-0.5-2.6-1.7-3.4-3.1c-0.9-2.6,0.1-5.5,0.7-8.1c0.1-0.5,0.2-0.9,0.3-1.4c0.2-1,0.4-1.9,0.7-2.9c0.3-1.2,0.6-2.4,0.8-3.7  c0.2-0.9,0.4-1.9,0.6-2.8c0.1-0.5,0.2-0.9,0.3-1.4c0.1-0.6,0.3-1.3,0.4-1.9c0.1-0.4,0.2-0.7,0.2-1.1c0.5-1.6,1.4-2.8,2.8-3.8  C76.6,39.4,78.3,39.4,80.1,40.3z M76,44c-0.5,0.8-0.7,1.6-0.9,2.6c0,0.2-0.1,0.4-0.1,0.6c-0.1,0.6-0.3,1.2-0.4,1.9  c-0.1,0.4-0.2,0.9-0.3,1.3c-0.2,0.9-0.4,1.8-0.6,2.7c-0.3,1.2-0.5,2.3-0.8,3.5c-0.2,0.9-0.4,1.8-0.6,2.7c-0.1,0.4-0.2,0.9-0.3,1.3  c-0.1,0.6-0.3,1.2-0.4,1.8c-0.1,0.3-0.2,0.7-0.2,1c-0.3,1.5-0.3,1.5,0.2,2.8c0.8,0.5,1.3,0.5,2.2,0.3c0.9-0.9,1.1-1.8,1.3-3  c0-0.2,0.1-0.4,0.1-0.6c0.1-0.6,0.3-1.2,0.4-1.9c0.1-0.4,0.2-0.9,0.3-1.3c0.2-0.9,0.4-1.8,0.6-2.7c0.3-1.2,0.5-2.3,0.8-3.5  c0.2-0.9,0.4-1.8,0.6-2.7c0.1-0.4,0.2-0.9,0.3-1.3c0.1-0.6,0.3-1.2,0.4-1.8c0.1-0.3,0.2-0.7,0.2-1c0.3-1.5,0.3-1.5-0.2-2.8  C77.7,43.3,76.7,43.2,76,44z"></path>	<path d="M110.7,15.7c0.2,0,0.4,0,0.6,0c0.7,0,1.4,0,2,0c0.2,0,0.5,0,0.7,0c1.2,0,2.5,0,3.7,0c1.3,0,2.5,0,3.8,0c1,0,2,0,2.9,0  c0.5,0,0.9,0,1.4,0c0.7,0,1.3,0,2,0c0.2,0,0.4,0,0.6,0c1.5,0,2.3,0.4,3.6,1.3c1.4,1.5,1.5,2.8,1.5,4.8c-0.1,1.6-0.8,2.4-1.9,3.5  c-1.2,0.8-2.2,0.8-3.5,0.8c-0.2,0-0.4,0-0.6,0c-0.7,0-1.4,0-2,0c-0.2,0-0.5,0-0.7,0c-1.2,0-2.5,0-3.7,0c-1.3,0-2.5,0-3.8,0  c-1,0-2,0-2.9,0c-0.5,0-0.9,0-1.4,0c-0.7,0-1.3,0-2,0c-0.2,0-0.4,0-0.6,0c-1.5,0-2.3-0.4-3.6-1.3c-1.4-1.5-1.5-2.8-1.5-4.8  c0.1-1.6,0.8-2.4,1.9-3.5C108.3,15.7,109.4,15.7,110.7,15.7z M109,19.9c-0.2,0.8-0.2,0.8,0,1.7c1.1,0.8,1.9,0.9,3.2,1  c0.4,0,0.7,0,1.1,0c0.4,0,0.8,0,1.2,0c0.4,0,0.8,0,1.2,0c0.8,0,1.7,0,2.5,0c1.1,0,2.1,0,3.2,0c0.8,0,1.6,0,2.5,0c0.4,0,0.8,0,1.2,0  c0.5,0,1.1,0,1.6,0c0.3,0,0.6,0,0.9,0c1-0.1,1.5-0.4,2.2-0.9c0.2-0.8,0.2-0.8,0-1.7c-1.1-0.8-1.9-0.9-3.2-1c-0.4,0-0.7,0-1.1,0  c-0.4,0-0.8,0-1.2,0c-0.4,0-0.8,0-1.2,0c-0.8,0-1.7,0-2.5,0c-1.1,0-2.1,0-3.2,0c-0.8,0-1.6,0-2.5,0c-0.4,0-0.8,0-1.2,0  c-0.5,0-1.1,0-1.6,0c-0.3,0-0.6,0-0.9,0C110.3,19.1,109.7,19.3,109,19.9z"></path>	<path d="M108.4,123.4c1.3,1.1,2.6,2.2,3.1,3.8c0.2,2.1,0.3,4-1,5.7c-1.2,1.3-2.4,2.3-4.1,2.5c-2.1,0-3.7,0-5.3-1.5  c-1.4-1.4-2.1-2.6-2.1-4.7c0-2,0.5-3.4,1.8-4.9C102.8,122.6,106,122.2,108.4,123.4z M102.8,128c-0.2,0.8-0.2,1.4,0,2.2  c0.6,0.8,1,1.3,1.9,1.5c1.1,0.1,1.6-0.1,2.5-0.7c0.6-0.9,0.8-1.4,0.7-2.5c-0.2-1-0.7-1.4-1.5-1.9  C104.8,126.2,103.7,126.6,102.8,128z"></path>	<path d="M119.6,111.6c1.3,1.1,2.6,2.2,3.1,3.8c0.2,2.1,0.3,4-1,5.7c-1.2,1.3-2.4,2.3-4.1,2.5c-2.1,0-3.7,0-5.3-1.5  c-1.4-1.4-2.1-2.6-2.1-4.7c0-2,0.5-3.4,1.8-4.9C114,110.8,117.3,110.4,119.6,111.6z M114,116.2c-0.2,0.8-0.2,1.4,0,2.2  c0.6,0.8,1,1.3,1.9,1.5c1.1,0.1,1.6-0.1,2.5-0.7c0.6-0.9,0.8-1.4,0.7-2.5c-0.2-1-0.7-1.4-1.5-1.9C116,114.4,115,114.8,114,116.2z"></path>	<path d="M97.2,111.6c1.3,1.1,2.6,2.2,3.1,3.8c0.2,2.1,0.3,4-1,5.7c-1.2,1.3-2.4,2.3-4.1,2.5c-2.1,0-3.7,0-5.3-1.5  c-1.4-1.4-2.1-2.6-2.1-4.7c0-2,0.5-3.4,1.8-4.9C91.5,110.8,94.8,110.4,97.2,111.6z M91.6,116.2c-0.2,0.8-0.2,1.4,0,2.2  c0.6,0.8,1,1.3,1.9,1.5c1.1,0.1,1.6-0.1,2.5-0.7c0.6-0.9,0.8-1.4,0.7-2.5c-0.2-1-0.7-1.4-1.5-1.9C93.6,114.4,92.5,114.8,91.6,116.2  z"></path>	<path d="M108,99.6c1.5,0.9,2.8,2.3,3.5,4c0.2,2.1,0.3,4-1,5.7c-1.2,1.3-2.4,2.3-4.1,2.5c-3.5,0-3.5,0-5-1.2  c-1.6-1.6-2.3-2.6-2.4-4.9c0-1.9,0.2-3.2,1.5-4.6C102.6,99.2,105.3,98.6,108,99.6z M102.8,104.4c-0.2,0.8-0.2,1.4,0,2.2  c0.6,0.8,1,1.3,1.9,1.5c1.1,0.1,1.6-0.1,2.5-0.7c0.6-0.9,0.8-1.4,0.7-2.5c-0.2-1-0.7-1.4-1.5-1.9  C104.8,102.6,103.7,103,102.8,104.4z"></path>	<path d="M58.8,15.9c1.4,0.7,2.3,1.7,2.7,3.2c0.2,2.1,0.2,3.6-1.1,5.3c-1.5,1.4-2.8,1.5-4.8,1.5c-1.6-0.1-2.4-0.8-3.5-1.9  c-1-1.5-0.9-3.2-0.7-4.9c0.4-1.4,1.3-2.3,2.5-3.1C55.5,15.5,57.3,15.4,58.8,15.9z M55.1,19.9c-0.1,0.8-0.1,0.8,0,1.7  c0.5,0.6,0.5,0.6,1.4,0.6c0.9,0,0.9,0,1.4-0.6c0.1-0.8,0.1-0.8,0-1.7c-0.5-0.6-0.5-0.6-1.4-0.6C55.6,19.3,55.6,19.3,55.1,19.9z"></path>	<path d="M40.8,15.9c1.4,0.7,2.3,1.7,2.7,3.2c0.2,2.1,0.2,3.6-1.1,5.3c-1.5,1.4-2.8,1.5-4.8,1.5c-1.6-0.1-2.4-0.8-3.5-1.9  c-1-1.5-0.9-3.2-0.7-4.9c0.4-1.4,1.3-2.3,2.5-3.1C37.5,15.5,39.3,15.4,40.8,15.9z M37.1,19.9c-0.1,0.8-0.1,0.8,0,1.7  c0.5,0.6,0.5,0.6,1.4,0.6c0.9,0,0.9,0,1.4-0.6c0.1-0.8,0.1-0.8,0-1.7c-0.5-0.6-0.5-0.6-1.4-0.6C37.6,19.3,37.6,19.3,37.1,19.9z"></path>	<path d="M22.8,15.9c1.4,0.7,2.3,1.7,2.7,3.2c0.2,2.1,0.2,3.6-1.1,5.3c-1.5,1.4-2.8,1.5-4.8,1.5c-1.6-0.1-2.4-0.8-3.5-1.9  c-1-1.5-0.9-3.2-0.7-4.9c0.4-1.4,1.3-2.3,2.5-3.1C19.5,15.5,21.3,15.4,22.8,15.9z M19.1,19.9c-0.1,0.8-0.1,0.8,0,1.7  c0.5,0.6,0.5,0.6,1.4,0.6c0.9,0,0.9,0,1.4-0.6c0.1-0.8,0.1-0.8,0-1.7c-0.5-0.6-0.5-0.6-1.4-0.6C19.7,19.3,19.7,19.3,19.1,19.9z"></path></g></svg>