<svg width="30" height="30" viewBox="0 0 30 30" fill="none" xmlns="http://www.w3.org/2000/svg">
<g clip-path="url(#clip0_6692_413)">
<path fill-rule="evenodd" clip-rule="evenodd" d="M18.7373 1.75598C20.4273 1.75598 21.7522 1.75597 22.8171 1.84297C23.9014 1.93157 24.7972 2.11496 25.608 2.52808C26.9409 3.20724 28.0246 4.29095 28.7038 5.62387C29.1169 6.43468 29.3003 7.33047 29.3889 8.41479C29.4759 9.4796 29.4759 10.8045 29.4759 12.4943V12.5773C29.4759 14.2671 29.4759 15.5921 29.3889 16.6569C29.3003 17.7413 29.1169 18.6371 28.7038 19.4479C28.0246 20.7808 26.9409 21.8645 25.608 22.5437C24.7972 22.9568 23.9014 23.1402 22.8171 23.2288C21.7522 23.3158 20.4273 23.3158 18.7375 23.3158H15.924V25.5752C16.6932 25.629 17.4589 25.75 18.2121 25.9383L20.1521 26.4233C20.6471 26.5471 20.9481 27.0487 20.8244 27.5438C20.7006 28.0389 20.1989 28.3399 19.7039 28.2161L17.7639 27.7311C16.8566 27.5043 15.9283 27.3909 15 27.3909C14.0717 27.3909 13.1435 27.5043 12.2361 27.7311L10.2962 28.2161C9.8011 28.3399 9.29944 28.0389 9.17567 27.5438C9.0519 27.0487 9.3529 26.5471 9.84797 26.4233L11.7879 25.9383C12.5412 25.75 13.3068 25.629 14.076 25.5752V23.3158H11.2626C9.57282 23.3158 8.24779 23.3158 7.18298 23.2288C6.09866 23.1402 5.20287 22.9568 4.39206 22.5437C3.05913 21.8645 1.97543 20.7808 1.29627 19.4479C0.883145 18.6371 0.699756 17.7413 0.611163 16.6569C0.52416 15.5921 0.524164 14.2672 0.52417 12.5772V12.4945C0.524164 10.8046 0.52416 9.47966 0.611163 8.41479C0.699756 7.33047 0.883145 6.43468 1.29627 5.62387C1.97543 4.29095 3.05913 3.20724 4.39206 2.52808C5.20287 2.11496 6.09866 1.93157 7.18298 1.84297C8.24785 1.75597 9.57277 1.75598 11.2627 1.75598H18.7373ZM14.076 18.6958C14.076 19.2061 14.4897 19.6198 15 19.6198L22.3919 19.6198C22.9022 19.6198 23.3159 19.2061 23.3159 18.6958C23.3159 18.1855 22.9022 17.7718 22.3919 17.7718L15 17.7718C14.4897 17.7718 14.076 18.1855 14.076 18.6958ZM10.0721 18.6958C10.0721 19.3762 9.52049 19.9278 8.84008 19.9278C8.15968 19.9278 7.6081 19.3762 7.6081 18.6958C7.6081 18.0154 8.15968 17.4638 8.84008 17.4638C9.52049 17.4638 10.0721 18.0154 10.0721 18.6958Z" fill="white"/>
</g>
<defs>
<clipPath id="clip0_6692_413">
<rect width="30" height="30" rx="6" fill="white"/>
</clipPath>
</defs>
</svg>
