<svg width="407" height="412" viewBox="0 0 407 412" fill="none" xmlns="http://www.w3.org/2000/svg">
<rect x="0.5" y="6" width="400" height="400" rx="200" stroke="#14141A" stroke-opacity="0.2" stroke-linecap="round" stroke-linejoin="round"/>
<path d="M134.788 244.44C130.404 244.44 126.42 243.384 122.836 241.272C119.284 239.16 116.452 236.28 114.34 232.632C112.26 228.952 111.22 224.808 111.22 220.2V197.208C111.22 192.376 112.26 188.104 114.34 184.392C116.452 180.648 119.332 177.736 122.98 175.656C126.66 173.544 130.852 172.488 135.556 172.488C139.364 172.488 142.9 173.272 146.164 174.84C149.46 176.376 152.228 178.6 154.468 181.512L148.084 187.176C146.708 185.16 144.916 183.56 142.708 182.376C140.5 181.192 138.116 180.6 135.556 180.6C132.516 180.6 129.812 181.336 127.444 182.808C125.108 184.248 123.268 186.168 121.924 188.568C120.58 190.936 119.908 193.496 119.908 196.248V210.12L118.036 208.008C120.052 205.128 122.612 202.824 125.716 201.096C128.82 199.368 132.18 198.504 135.796 198.504C140.084 198.504 143.924 199.512 147.316 201.528C150.74 203.544 153.428 206.28 155.38 209.736C157.364 213.16 158.356 217.016 158.356 221.304C158.356 225.592 157.284 229.48 155.14 232.968C152.996 236.456 150.132 239.24 146.548 241.32C142.996 243.4 139.076 244.44 134.788 244.44ZM134.788 236.184C137.54 236.184 140.052 235.528 142.324 234.216C144.596 232.872 146.388 231.08 147.7 228.84C149.044 226.568 149.716 224.056 149.716 221.304C149.716 218.552 149.044 216.04 147.7 213.768C146.388 211.496 144.596 209.704 142.324 208.392C140.084 207.048 137.588 206.376 134.836 206.376C132.084 206.376 129.572 207.048 127.3 208.392C125.06 209.704 123.268 211.496 121.924 213.768C120.58 216.04 119.908 218.552 119.908 221.304C119.908 224.024 120.564 226.52 121.876 228.792C123.22 231.032 125.012 232.824 127.252 234.168C129.524 235.512 132.036 236.184 134.788 236.184ZM172.573 243L197.437 182.088H166.045V173.88H206.605V182.088L181.789 243H172.573ZM223.904 243L218.144 237.24L281.6 173.88L287.36 179.64L223.904 243ZM272.96 244.44C269.792 244.44 266.896 243.672 264.272 242.136C261.68 240.568 259.6 238.488 258.032 235.896C256.464 233.272 255.68 230.36 255.68 227.16C255.68 224.024 256.48 221.144 258.08 218.52C259.68 215.896 261.792 213.8 264.416 212.232C267.04 210.664 269.888 209.88 272.96 209.88C276.128 209.88 279.024 210.664 281.648 212.232C284.272 213.768 286.352 215.848 287.888 218.472C289.456 221.064 290.24 223.96 290.24 227.16C290.24 230.36 289.456 233.272 287.888 235.896C286.352 238.488 284.272 240.568 281.648 242.136C279.024 243.672 276.128 244.44 272.96 244.44ZM272.96 236.904C274.72 236.904 276.336 236.456 277.808 235.56C279.312 234.664 280.496 233.48 281.36 232.008C282.256 230.536 282.704 228.92 282.704 227.16C282.704 225.4 282.256 223.784 281.36 222.312C280.496 220.808 279.312 219.624 277.808 218.76C276.336 217.864 274.72 217.416 272.96 217.416C271.2 217.416 269.584 217.864 268.112 218.76C266.64 219.624 265.456 220.808 264.56 222.312C263.664 223.784 263.216 225.4 263.216 227.16C263.216 228.92 263.664 230.536 264.56 232.008C265.456 233.48 266.64 234.664 268.112 235.56C269.584 236.456 271.2 236.904 272.96 236.904ZM232.544 207C229.376 207 226.48 206.232 223.856 204.696C221.232 203.128 219.136 201.048 217.568 198.456C216.032 195.832 215.264 192.92 215.264 189.72C215.264 186.584 216.064 183.704 217.664 181.08C219.264 178.456 221.376 176.36 224 174.792C226.624 173.224 229.472 172.44 232.544 172.44C235.712 172.44 238.592 173.224 241.184 174.792C243.808 176.328 245.904 178.408 247.472 181.032C249.04 183.624 249.824 186.52 249.824 189.72C249.824 192.92 249.04 195.832 247.472 198.456C245.904 201.048 243.808 203.128 241.184 204.696C238.592 206.232 235.712 207 232.544 207ZM232.544 199.464C234.304 199.464 235.92 199.016 237.392 198.12C238.896 197.224 240.08 196.04 240.944 194.568C241.84 193.096 242.288 191.48 242.288 189.72C242.288 187.96 241.84 186.344 240.944 184.872C240.08 183.368 238.896 182.184 237.392 181.32C235.92 180.424 234.304 179.976 232.544 179.976C230.784 179.976 229.168 180.424 227.696 181.32C226.224 182.184 225.04 183.368 224.144 184.872C223.248 186.344 222.8 187.96 222.8 189.72C222.8 191.48 223.248 193.096 224.144 194.568C225.04 196.04 226.224 197.224 227.696 198.12C229.168 199.016 230.784 199.464 232.544 199.464Z" fill="url(#paint0_linear_6312_1719)"/>
<path d="M200.5 6C235.785 6 270.442 15.3349 300.953 33.0573C331.464 50.7797 356.744 76.2587 374.226 106.908C391.709 137.558 400.771 172.287 400.494 207.571C400.217 242.855 390.61 277.437 372.648 307.808C354.687 338.179 329.01 363.258 298.224 380.499C267.438 397.74 232.639 406.53 197.359 405.975C162.078 405.421 127.572 395.543 97.3428 377.344C67.1137 359.144 42.2373 333.271 25.2387 302.351" stroke="url(#paint1_linear_6312_1719)" stroke-width="12" stroke-linecap="round" stroke-linejoin="round" stroke-dasharray="1 20"/>
<defs>
<linearGradient id="paint0_linear_6312_1719" x1="104.5" y1="249" x2="302.41" y2="232.063" gradientUnits="userSpaceOnUse">
<stop stop-color="#490693"/>
<stop offset="1" stop-color="#FF00FB"/>
</linearGradient>
<linearGradient id="paint1_linear_6312_1719" x1="400.5" y1="406" x2="384.603" y2="-8.72362" gradientUnits="userSpaceOnUse">
<stop stop-color="#490693"/>
<stop offset="1" stop-color="#FF00FB"/>
</linearGradient>
</defs>
</svg>
