<svg width="412" height="412" viewBox="0 0 412 412" fill="none" xmlns="http://www.w3.org/2000/svg">
<rect x="5.98315" y="6" width="400" height="400" rx="200" stroke="#14141A" stroke-opacity="0.2" stroke-linecap="round" stroke-linejoin="round"/>
<path d="M135.803 244.44C131.387 244.44 127.483 243.56 124.091 241.8C120.699 240.008 118.043 237.528 116.123 234.36C114.203 231.192 113.243 227.496 113.243 223.272C113.243 219.144 114.219 215.416 116.171 212.088C118.155 208.76 121.131 206.2 125.099 204.408L124.955 207.528C121.723 205.96 119.243 203.752 117.515 200.904C115.787 198.024 114.923 194.84 114.923 191.352C114.923 187.448 115.819 184.088 117.611 181.272C119.403 178.456 121.867 176.28 125.003 174.744C128.139 173.208 131.739 172.44 135.803 172.44C139.867 172.44 143.467 173.208 146.603 174.744C149.739 176.28 152.203 178.456 153.995 181.272C155.787 184.088 156.683 187.448 156.683 191.352C156.683 194.84 155.867 198.008 154.235 200.856C152.603 203.672 150.091 205.896 146.699 207.528L146.507 204.456C150.475 206.184 153.451 208.728 155.435 212.088C157.451 215.416 158.459 219.144 158.459 223.272C158.459 227.496 157.483 231.192 155.531 234.36C153.611 237.528 150.939 240.008 147.515 241.8C144.123 243.56 140.219 244.44 135.803 244.44ZM135.803 236.28C139.835 236.28 143.099 235.176 145.595 232.968C148.123 230.728 149.387 227.496 149.387 223.272C149.387 219.016 148.139 215.784 145.643 213.576C143.179 211.336 139.899 210.216 135.803 210.216C131.739 210.216 128.459 211.336 125.963 213.576C123.499 215.784 122.267 219.016 122.267 223.272C122.267 227.496 123.515 230.728 126.011 232.968C128.507 235.176 131.771 236.28 135.803 236.28ZM135.803 202.008C139.323 202.008 142.171 201.128 144.347 199.368C146.523 197.576 147.611 194.904 147.611 191.352C147.611 187.8 146.523 185.144 144.347 183.384C142.171 181.592 139.323 180.696 135.803 180.696C132.315 180.696 129.467 181.592 127.259 183.384C125.083 185.144 123.995 187.8 123.995 191.352C123.995 194.904 125.083 197.576 127.259 199.368C129.467 201.128 132.315 202.008 135.803 202.008ZM198.858 243V230.28H167.082V222.168L189.882 173.88H199.578L176.778 222.168H198.858V202.728H207.498V222.168H214.698V230.28H207.498V243H198.858ZM231.949 243L226.189 237.24L289.645 173.88L295.405 179.64L231.949 243ZM281.005 244.44C277.837 244.44 274.941 243.672 272.317 242.136C269.725 240.568 267.645 238.488 266.077 235.896C264.509 233.272 263.725 230.36 263.725 227.16C263.725 224.024 264.525 221.144 266.125 218.52C267.725 215.896 269.837 213.8 272.461 212.232C275.085 210.664 277.933 209.88 281.005 209.88C284.173 209.88 287.069 210.664 289.693 212.232C292.317 213.768 294.397 215.848 295.933 218.472C297.501 221.064 298.285 223.96 298.285 227.16C298.285 230.36 297.501 233.272 295.933 235.896C294.397 238.488 292.317 240.568 289.693 242.136C287.069 243.672 284.173 244.44 281.005 244.44ZM281.005 236.904C282.765 236.904 284.381 236.456 285.853 235.56C287.357 234.664 288.541 233.48 289.405 232.008C290.301 230.536 290.749 228.92 290.749 227.16C290.749 225.4 290.301 223.784 289.405 222.312C288.541 220.808 287.357 219.624 285.853 218.76C284.381 217.864 282.765 217.416 281.005 217.416C279.245 217.416 277.629 217.864 276.157 218.76C274.685 219.624 273.501 220.808 272.605 222.312C271.709 223.784 271.261 225.4 271.261 227.16C271.261 228.92 271.709 230.536 272.605 232.008C273.501 233.48 274.685 234.664 276.157 235.56C277.629 236.456 279.245 236.904 281.005 236.904ZM240.589 207C237.421 207 234.525 206.232 231.901 204.696C229.277 203.128 227.181 201.048 225.613 198.456C224.077 195.832 223.309 192.92 223.309 189.72C223.309 186.584 224.109 183.704 225.709 181.08C227.309 178.456 229.421 176.36 232.045 174.792C234.669 173.224 237.517 172.44 240.589 172.44C243.757 172.44 246.637 173.224 249.229 174.792C251.853 176.328 253.949 178.408 255.517 181.032C257.085 183.624 257.869 186.52 257.869 189.72C257.869 192.92 257.085 195.832 255.517 198.456C253.949 201.048 251.853 203.128 249.229 204.696C246.637 206.232 243.757 207 240.589 207ZM240.589 199.464C242.349 199.464 243.965 199.016 245.437 198.12C246.941 197.224 248.125 196.04 248.989 194.568C249.885 193.096 250.333 191.48 250.333 189.72C250.333 187.96 249.885 186.344 248.989 184.872C248.125 183.368 246.941 182.184 245.437 181.32C243.965 180.424 242.349 179.976 240.589 179.976C238.829 179.976 237.213 180.424 235.741 181.32C234.269 182.184 233.085 183.368 232.189 184.872C231.293 186.344 230.845 187.96 230.845 189.72C230.845 191.48 231.293 193.096 232.189 194.568C233.085 196.04 234.269 197.224 235.741 198.12C237.213 199.016 238.829 199.464 240.589 199.464Z" fill="url(#paint0_linear_6312_1726)"/>
<path d="M205.983 6C250.369 6 293.493 20.7648 328.565 47.969C363.636 75.1732 388.662 113.271 399.7 156.262C410.738 199.253 407.162 244.695 389.534 285.43C371.906 326.165 341.229 359.878 302.334 381.261C263.439 402.644 218.535 410.481 174.696 403.538C130.857 396.594 90.5734 375.265 60.1895 342.909C29.8055 310.554 11.0478 269.01 6.87077 224.822C2.69371 180.633 13.3346 136.311 37.1175 98.8347" stroke="url(#paint1_linear_6312_1726)" stroke-width="12" stroke-linecap="round" stroke-linejoin="round" stroke-dasharray="1 20"/>
<defs>
<linearGradient id="paint0_linear_6312_1726" x1="107.483" y1="249" x2="310.47" y2="231.176" gradientUnits="userSpaceOnUse">
<stop stop-color="#490693"/>
<stop offset="1" stop-color="#FF00FB"/>
</linearGradient>
<linearGradient id="paint1_linear_6312_1726" x1="405.983" y1="406" x2="390.086" y2="-8.72362" gradientUnits="userSpaceOnUse">
<stop stop-color="#490693"/>
<stop offset="1" stop-color="#FF00FB"/>
</linearGradient>
</defs>
</svg>
