<svg width="407" height="407" viewBox="0 0 407 407" fill="none" xmlns="http://www.w3.org/2000/svg">
<rect x="0.5" y="6" width="400" height="400" rx="200" stroke="#14141A" stroke-opacity="0.2" stroke-linecap="round" stroke-linejoin="round"/>
<path d="M147.576 243V230.28H115.8V222.168L138.6 173.88H148.296L125.496 222.168H147.576V202.728H156.216V222.168H163.416V230.28H156.216V243H147.576ZM185.036 243V183.336L172.028 191.208V181.656L185.036 173.88H193.724V243H185.036ZM217.748 243L211.988 237.24L275.444 173.88L281.204 179.64L217.748 243ZM266.804 244.44C263.636 244.44 260.74 243.672 258.116 242.136C255.524 240.568 253.444 238.488 251.876 235.896C250.308 233.272 249.524 230.36 249.524 227.16C249.524 224.024 250.324 221.144 251.924 218.52C253.524 215.896 255.636 213.8 258.26 212.232C260.884 210.664 263.732 209.88 266.804 209.88C269.972 209.88 272.868 210.664 275.492 212.232C278.116 213.768 280.196 215.848 281.732 218.472C283.3 221.064 284.084 223.96 284.084 227.16C284.084 230.36 283.3 233.272 281.732 235.896C280.196 238.488 278.116 240.568 275.492 242.136C272.868 243.672 269.972 244.44 266.804 244.44ZM266.804 236.904C268.564 236.904 270.18 236.456 271.652 235.56C273.156 234.664 274.34 233.48 275.204 232.008C276.1 230.536 276.548 228.92 276.548 227.16C276.548 225.4 276.1 223.784 275.204 222.312C274.34 220.808 273.156 219.624 271.652 218.76C270.18 217.864 268.564 217.416 266.804 217.416C265.044 217.416 263.428 217.864 261.956 218.76C260.484 219.624 259.3 220.808 258.404 222.312C257.508 223.784 257.06 225.4 257.06 227.16C257.06 228.92 257.508 230.536 258.404 232.008C259.3 233.48 260.484 234.664 261.956 235.56C263.428 236.456 265.044 236.904 266.804 236.904ZM226.388 207C223.22 207 220.324 206.232 217.7 204.696C215.076 203.128 212.98 201.048 211.412 198.456C209.876 195.832 209.108 192.92 209.108 189.72C209.108 186.584 209.908 183.704 211.508 181.08C213.108 178.456 215.22 176.36 217.844 174.792C220.468 173.224 223.316 172.44 226.388 172.44C229.556 172.44 232.436 173.224 235.028 174.792C237.652 176.328 239.748 178.408 241.316 181.032C242.884 183.624 243.668 186.52 243.668 189.72C243.668 192.92 242.884 195.832 241.316 198.456C239.748 201.048 237.652 203.128 235.028 204.696C232.436 206.232 229.556 207 226.388 207ZM226.388 199.464C228.148 199.464 229.764 199.016 231.236 198.12C232.74 197.224 233.924 196.04 234.788 194.568C235.684 193.096 236.132 191.48 236.132 189.72C236.132 187.96 235.684 186.344 234.788 184.872C233.924 183.368 232.74 182.184 231.236 181.32C229.764 180.424 228.148 179.976 226.388 179.976C224.628 179.976 223.012 180.424 221.54 181.32C220.068 182.184 218.884 183.368 217.988 184.872C217.092 186.344 216.644 187.96 216.644 189.72C216.644 191.48 217.092 193.096 217.988 194.568C218.884 196.04 220.068 197.224 221.54 198.12C223.012 199.016 224.628 199.464 226.388 199.464Z" fill="url(#paint0_linear_6312_1705)"/>
<path d="M200.5 6C243.81 6 285.95 20.0589 320.584 46.0631C355.218 72.0673 380.476 108.611 392.559 150.202C404.642 191.792 402.898 236.181 387.589 276.695C372.28 317.209 344.233 351.659 307.665 374.866" stroke="url(#paint1_linear_6312_1705)" stroke-width="12" stroke-linecap="round" stroke-linejoin="round" stroke-dasharray="1 20"/>
<defs>
<linearGradient id="paint0_linear_6312_1705" x1="111" y1="249" x2="295.686" y2="234.265" gradientUnits="userSpaceOnUse">
<stop stop-color="#490693"/>
<stop offset="1" stop-color="#FF00FB"/>
</linearGradient>
<linearGradient id="paint1_linear_6312_1705" x1="400.5" y1="406" x2="384.603" y2="-8.72362" gradientUnits="userSpaceOnUse">
<stop stop-color="#490693"/>
<stop offset="1" stop-color="#FF00FB"/>
</linearGradient>
</defs>
</svg>
