<svg width="170" height="48" viewBox="0 0 170 48" fill="none" xmlns="http://www.w3.org/2000/svg">
<g clip-path="url(#clip0_5040_771)">
<mask id="mask0_5040_771" style="mask-type:luminance" maskUnits="userSpaceOnUse" x="0" y="0" width="170" height="48">
<path d="M169.674 0.558105H0V47.4418H169.674V0.558105Z" fill="white"/>
</mask>
<g mask="url(#mask0_5040_771)">
<path d="M55.2647 33.9537C54.6841 33.9537 54.2006 33.7849 53.8135 33.4473C53.4482 33.0874 53.2656 32.5811 53.2656 31.9287V18.901C53.2656 18.2484 53.4482 17.7534 53.8135 17.4159C54.2006 17.0784 54.6841 16.9096 55.2647 16.9096C55.8449 16.9096 56.3285 17.0784 56.7155 17.4159C57.1024 17.7534 57.296 18.2484 57.296 18.901V31.9287C57.296 32.5811 57.1024 33.0874 56.7155 33.4473C56.3285 33.7849 55.8449 33.9537 55.2647 33.9537ZM55.2647 13.9058C54.5335 13.9058 53.9533 13.7033 53.5234 13.2984C53.0934 12.8708 52.8785 12.3195 52.8785 11.6445C52.8785 10.9695 53.0934 10.4295 53.5234 10.0245C53.9533 9.61951 54.5335 9.41699 55.2647 9.41699C55.974 9.41699 56.5436 9.61951 56.9735 10.0245C57.425 10.4295 57.6506 10.9695 57.6506 11.6445C57.6506 12.3195 57.4356 12.8708 57.0059 13.2984C56.5758 13.7033 55.9955 13.9058 55.2647 13.9058Z" fill="#161B26"/>
<path d="M70.6104 16.8423C72.5022 16.8423 73.91 17.4048 74.8345 18.5298C75.7588 19.6549 76.2209 21.3536 76.2209 23.6261V31.9289C76.2209 32.5587 76.0382 33.0538 75.6728 33.4139C75.3289 33.7738 74.8451 33.954 74.2218 33.954C73.5984 33.954 73.104 33.7738 72.7386 33.4139C72.3731 33.0538 72.1904 32.5587 72.1904 31.9289V23.8625C72.1904 22.58 71.954 21.6461 71.4811 21.0612C71.0297 20.4761 70.3096 20.1835 69.3208 20.1835C68.1598 20.1835 67.2247 20.5661 66.5155 21.3311C65.8275 22.0962 65.4836 23.1199 65.4836 24.4023V31.9289C65.4836 32.5587 65.3008 33.0538 64.9354 33.4139C64.57 33.7738 64.0756 33.954 63.4523 33.954C62.8288 33.954 62.3344 33.7738 61.969 33.4139C61.625 33.0538 61.4531 32.5587 61.4531 31.9289V18.8673C61.4531 18.2823 61.6358 17.8098 62.0011 17.4498C62.3666 17.0898 62.861 16.9098 63.4844 16.9098C64.0433 16.9098 64.4948 17.0898 64.8388 17.4498C65.2043 17.7873 65.3869 18.2373 65.3869 18.7998V19.7111C65.9243 18.7885 66.6444 18.0798 67.5472 17.5848C68.4501 17.0898 69.4712 16.8423 70.6104 16.8423Z" fill="#161B26"/>
<path d="M88.5045 30.815C89.5792 30.8826 90.1167 31.3889 90.1167 32.3338C90.1167 32.8738 89.9016 33.2903 89.4718 33.5827C89.0634 33.8527 88.4722 33.965 87.6984 33.9201L86.8277 33.8527C83.2164 33.5827 81.4106 31.5577 81.4106 27.7776V20.42H79.7985C79.2181 20.42 78.7666 20.2849 78.4442 20.015C78.1432 19.7449 77.9929 19.3512 77.9929 18.8337C77.9929 18.3162 78.1432 17.9224 78.4442 17.6524C78.7666 17.3825 79.2181 17.2474 79.7985 17.2474H81.4106V14.1423C81.4106 13.5349 81.5935 13.0511 81.9588 12.6911C82.3243 12.3311 82.8187 12.1511 83.442 12.1511C84.044 12.1511 84.5277 12.3311 84.8931 12.6911C85.2586 13.0511 85.4412 13.5349 85.4412 14.1423V17.2474H88.182C88.7624 17.2474 89.2032 17.3825 89.504 17.6524C89.8265 17.9224 89.9877 18.3162 89.9877 18.8337C89.9877 19.3512 89.8265 19.7449 89.504 20.015C89.2032 20.2849 88.7624 20.42 88.182 20.42H85.4412V28.0814C85.4412 29.7465 86.1722 30.6351 87.634 30.7477L88.5045 30.815Z" fill="#161B26"/>
<path d="M104.696 29.2287C105.061 29.2287 105.352 29.375 105.567 29.6675C105.803 29.96 105.921 30.3537 105.921 30.8487C105.921 31.5462 105.524 32.1313 104.728 32.6037C103.997 33.0312 103.17 33.3801 102.245 33.6501C101.321 33.8976 100.44 34.0213 99.6013 34.0213C97.0648 34.0213 95.0549 33.2563 93.5716 31.7264C92.0884 30.1962 91.3467 28.1036 91.3467 25.4487C91.3467 23.7611 91.6693 22.2649 92.3142 20.9599C92.9591 19.6549 93.8618 18.6423 95.0226 17.9223C96.2049 17.2023 97.5377 16.8423 99.0209 16.8423C100.44 16.8423 101.676 17.1686 102.729 17.821C103.782 18.4736 104.599 19.3961 105.18 20.5886C105.76 21.7811 106.05 23.1874 106.05 24.8075C106.05 25.775 105.642 26.2587 104.825 26.2587H95.3128C95.4418 27.8113 95.861 28.9587 96.5703 29.7013C97.2798 30.4213 98.3117 30.7813 99.6659 30.7813C100.354 30.7813 100.956 30.6912 101.472 30.5113C102.009 30.3312 102.611 30.0837 103.277 29.7688C103.922 29.4087 104.395 29.2287 104.696 29.2287ZM99.1177 19.8124C98.0213 19.8124 97.1399 20.1724 96.4737 20.8924C95.8288 21.6124 95.4418 22.6474 95.3128 23.9974H102.6C102.557 22.6249 102.235 21.5899 101.633 20.8924C101.031 20.1724 100.193 19.8124 99.1177 19.8124Z" fill="#161B26"/>
<path d="M118.149 16.9096C118.708 16.8646 119.149 16.9883 119.472 17.2809C119.795 17.5734 119.955 18.0122 119.955 18.5971C119.955 19.2047 119.816 19.6547 119.537 19.9471C119.257 20.2397 118.752 20.4309 118.021 20.5209L117.053 20.6222C115.785 20.7571 114.851 21.2072 114.248 21.9722C113.667 22.7372 113.377 23.6935 113.377 24.8411V31.9287C113.377 32.5812 113.184 33.0874 112.797 33.4473C112.41 33.785 111.927 33.9537 111.346 33.9537C110.766 33.9537 110.282 33.785 109.895 33.4473C109.53 33.0874 109.347 32.5812 109.347 31.9287V18.8671C109.347 18.2372 109.53 17.7534 109.895 17.4159C110.282 17.0784 110.755 16.9096 111.314 16.9096C111.872 16.9096 112.324 17.0784 112.668 17.4159C113.012 17.7309 113.184 18.1921 113.184 18.7997V20.1497C113.593 19.1597 114.194 18.3946 114.99 17.8547C115.807 17.3146 116.709 17.0109 117.698 16.9433L118.149 16.9096Z" fill="#161B26"/>
<path d="M133.854 29.2287C134.22 29.2287 134.509 29.375 134.725 29.6675C134.961 29.96 135.08 30.3537 135.08 30.8487C135.08 31.5462 134.681 32.1313 133.886 32.6037C133.155 33.0312 132.327 33.3801 131.404 33.6501C130.48 33.8976 129.598 34.0213 128.759 34.0213C126.223 34.0213 124.213 33.2563 122.729 31.7264C121.247 30.1962 120.505 28.1036 120.505 25.4487C120.505 23.7611 120.827 22.2649 121.472 20.9599C122.118 19.6549 123.019 18.6423 124.18 17.9223C125.364 17.2023 126.695 16.8423 128.179 16.8423C129.598 16.8423 130.833 17.1686 131.887 17.821C132.94 18.4736 133.757 19.3961 134.337 20.5886C134.919 21.7811 135.208 23.1874 135.208 24.8075C135.208 25.775 134.8 26.2587 133.982 26.2587H124.471C124.6 27.8113 125.019 28.9587 125.729 29.7013C126.439 30.4213 127.469 30.7813 128.824 30.7813C129.512 30.7813 130.115 30.6912 130.629 30.5113C131.167 30.3312 131.769 30.0837 132.435 29.7688C133.081 29.4087 133.554 29.2287 133.854 29.2287ZM128.276 19.8124C127.18 19.8124 126.298 20.1724 125.632 20.8924C124.986 21.6124 124.6 22.6474 124.471 23.9974H131.759C131.714 22.6249 131.393 21.5899 130.791 20.8924C130.189 20.1724 129.351 19.8124 128.276 19.8124Z" fill="#161B26"/>
<path d="M151.862 30.6458C152.249 31.0509 152.442 31.5121 152.442 32.0295C152.442 32.5245 152.26 32.9747 151.894 33.3797C151.529 33.7623 151.098 33.9534 150.605 33.9534C150.067 33.9534 149.606 33.7171 149.219 33.2445L144.672 27.9795L140.127 33.2445C139.717 33.6947 139.256 33.9196 138.739 33.9196C138.266 33.9196 137.847 33.7285 137.481 33.3458C137.116 32.9634 136.934 32.5245 136.934 32.0295C136.934 31.5121 137.127 31.0509 137.513 30.6458L142.221 25.2795L137.772 20.2169C137.385 19.812 137.192 19.3507 137.192 18.8332C137.192 18.3157 137.374 17.8769 137.74 17.5169C138.105 17.1343 138.525 16.9431 138.997 16.9431C139.513 16.9431 139.975 17.1682 140.383 17.6181L144.672 22.5457L148.961 17.6181C149.368 17.1682 149.831 16.9431 150.346 16.9431C150.842 16.9431 151.261 17.1343 151.604 17.5169C151.969 17.8769 152.153 18.3157 152.153 18.8332C152.153 19.3507 151.96 19.812 151.572 20.2169L147.122 25.2795L151.862 30.6458Z" fill="#161B26"/>
<path d="M166.094 18.1243C166.268 17.7193 166.493 17.4267 166.772 17.2467C167.073 17.0443 167.396 16.943 167.74 16.943C168.233 16.943 168.675 17.1229 169.062 17.4829C169.471 17.8205 169.674 18.248 169.674 18.7656C169.674 19.013 169.611 19.2718 169.481 19.5418L160.678 38.8471C160.312 39.6121 159.744 39.9946 158.968 39.9946C158.475 39.9946 158.034 39.8259 157.648 39.4883C157.281 39.1733 157.098 38.7683 157.098 38.2732C157.098 38.0257 157.163 37.7445 157.293 37.4296L159.485 32.6032L153.488 19.5418C153.381 19.3168 153.326 19.058 153.326 18.7656C153.326 18.248 153.531 17.8092 153.939 17.4492C154.369 17.0892 154.852 16.9092 155.39 16.9092C155.757 16.9092 156.089 17.0104 156.39 17.213C156.691 17.393 156.928 17.6854 157.098 18.0905L161.614 28.5194L166.094 18.1243Z" fill="#161B26"/>
<path d="M27.0857 23.4964C27.0857 19.7431 22.9536 18.099 22.9536 18.099C22.9536 18.099 25.2931 16.2378 30.1543 18.2541C35.0158 20.2704 35.6234 23.9927 35.6234 23.9927C35.6234 23.9927 35.593 27.7462 31.3394 28.9248C27.0857 30.1036 23.7435 28.6457 23.7435 28.6457C23.7435 28.6457 27.0857 27.2498 27.0857 23.4964Z" fill="url(#paint0_linear_5040_771)"/>
<path d="M27.6933 17.2615C27.6933 17.2615 30.3063 18.8745 30.7012 21.9143C31.0963 24.9543 29.4252 26.4742 29.4252 26.4742" stroke="url(#paint1_linear_5040_771)" stroke-width="0.216912" stroke-linecap="round"/>
<path d="M0.654083 35.5322H10.1484C10.2879 35.5322 10.415 35.4558 10.4816 35.3307C11.0005 34.3571 13.3554 30.0055 16.2997 25.6058C19.1557 21.6043 21.252 17.5718 25.9615 17.5718C33.1016 17.5718 35.6234 24.0549 35.6234 24.0549C35.6234 24.0549 36.0791 19.65 34.4385 16.1138C32.7976 12.5776 26.3565 7.54093 19.3987 10.5613C12.4246 13.5888 2.22483 31.5373 0.32496 34.9662C0.183349 35.2218 0.366469 35.5322 0.654083 35.5322Z" fill="url(#paint2_linear_5040_771)"/>
<path d="M0.654083 35.5322H10.1484C10.2879 35.5322 10.415 35.4558 10.4816 35.3307C11.0005 34.3571 13.3554 30.0055 16.2997 25.6058C19.1557 21.6043 21.252 17.5718 25.9615 17.5718C33.1016 17.5718 35.6234 24.0549 35.6234 24.0549C35.6234 24.0549 36.0791 19.65 34.4385 16.1138C32.7976 12.5776 26.3565 7.54093 19.3987 10.5613C12.4246 13.5888 2.22483 31.5373 0.32496 34.9662C0.183349 35.2218 0.366469 35.5322 0.654083 35.5322Z" fill="url(#paint3_linear_5040_771)" fill-opacity="0.2"/>
<path d="M6.54669 33.1433C6.54669 33.1433 9.4027 27.8389 11.56 24.4578C13.7172 21.0767 18.1227 14.1902 23.379 13.4148C27.5152 12.8045 30.2456 14.6865 31.5824 15.9273C32.9939 17.2373 33.9523 19.6187 33.9523 19.6187" stroke="url(#paint4_linear_5040_771)" stroke-width="0.216912" stroke-linecap="round"/>
<path d="M30.3064 28.9847C35.0159 28.0062 35.6235 24.0013 35.6235 24.0013C35.6235 24.0013 34.7119 30.4215 31.5217 33.1424C28.3315 35.8634 23.8348 36.4442 19.9761 34.1207C16.1175 31.7972 11.7424 26.9058 9.98009 24.6434C8.43844 22.6641 5.2225 17.6199 4.44165 16.3882C4.34412 16.2344 4.38196 16.0298 4.52743 15.9224C4.64481 15.8357 4.79967 15.8326 4.9176 15.9185C5.94948 16.6696 10.8308 20.2289 12.9575 21.8919C15.3427 23.7567 17.8493 25.4383 19.4596 26.3554C21.0699 27.2725 25.5971 29.9629 30.3064 28.9847Z" fill="url(#paint5_linear_5040_771)"/>
<path d="M4.45026 15.7773C4.45026 15.7773 11.0514 23.0337 13.0895 24.9989C15.1277 26.9644 18.7476 30.7134 22.7631 31.8321C26.7784 32.9509 29.6075 31.6205 29.6075 31.6205" stroke="url(#paint6_linear_5040_771)" stroke-width="0.216912" stroke-linecap="round"/>
<path d="M2.04995 14.4696C3.17423 14.4696 4.08562 13.5392 4.08562 12.3913C4.08562 11.2434 3.17423 10.313 2.04995 10.313C0.925682 10.313 0.0142822 11.2434 0.0142822 12.3913C0.0142822 13.5392 0.925682 14.4696 2.04995 14.4696Z" fill="url(#paint7_radial_5040_771)"/>
</g>
</g>
<defs>
<linearGradient id="paint0_linear_5040_771" x1="29.3036" y1="15.6484" x2="33.157" y2="30.2199" gradientUnits="userSpaceOnUse">
<stop offset="0.333333" stop-color="#432D78"/>
<stop offset="0.578125" stop-color="#66638E"/>
<stop offset="0.744792" stop-color="#8EA1A6"/>
<stop offset="1" stop-color="#BBFFBB"/>
</linearGradient>
<linearGradient id="paint1_linear_5040_771" x1="30.1545" y1="26.5053" x2="29.2182" y2="18.7085" gradientUnits="userSpaceOnUse">
<stop stop-color="#AD95E0" stop-opacity="0"/>
<stop offset="1" stop-color="#8059D2"/>
</linearGradient>
<linearGradient id="paint2_linear_5040_771" x1="5.42249" y1="21.0459" x2="37.1128" y2="20.3912" gradientUnits="userSpaceOnUse">
<stop offset="0.0975669" stop-color="#583E88"/>
<stop offset="0.375" stop-color="#6F4FAA"/>
<stop offset="0.661458" stop-color="#A27CE8"/>
<stop offset="0.833333" stop-color="#86A6CB"/>
<stop offset="1" stop-color="#4BEB30"/>
</linearGradient>
<linearGradient id="paint3_linear_5040_771" x1="7.15433" y1="30.569" x2="17.1022" y2="25.982" gradientUnits="userSpaceOnUse">
<stop stop-color="#413588" stop-opacity="0"/>
<stop offset="0.385417" stop-color="#120F26"/>
<stop offset="0.536784"/>
<stop offset="1" stop-color="#413588" stop-opacity="0"/>
</linearGradient>
<linearGradient id="paint4_linear_5040_771" x1="5.51365" y1="33.1433" x2="33.89" y2="17.6988" gradientUnits="userSpaceOnUse">
<stop stop-color="#946CE8" stop-opacity="0"/>
<stop offset="0.58438" stop-color="#9F7EE7"/>
<stop offset="1" stop-color="#E6DAFF" stop-opacity="0"/>
</linearGradient>
<linearGradient id="paint5_linear_5040_771" x1="35.107" y1="26.7834" x2="3.74463" y2="16.5955" gradientUnits="userSpaceOnUse">
<stop stop-color="#593F89"/>
<stop offset="0.327559" stop-color="#CD56C1"/>
<stop offset="1" stop-color="#F18281"/>
</linearGradient>
<linearGradient id="paint6_linear_5040_771" x1="26.0052" y1="33.5227" x2="6.298" y2="17.9074" gradientUnits="userSpaceOnUse">
<stop stop-color="#BE8CF1" stop-opacity="0"/>
<stop offset="1" stop-color="#FFBDC5"/>
</linearGradient>
<radialGradient id="paint7_radial_5040_771" cx="0" cy="0" r="1" gradientUnits="userSpaceOnUse" gradientTransform="translate(2.01957 11.5227) rotate(90) scale(2.57463 3.17968)">
<stop stop-color="#8967C7"/>
<stop offset="1" stop-color="#413588"/>
</radialGradient>
<clipPath id="clip0_5040_771">
<rect width="169.674" height="48" fill="white"/>
</clipPath>
</defs>
</svg>
