<svg width="83" height="48" viewBox="0 0 83 48" fill="none" xmlns="http://www.w3.org/2000/svg">
<path d="M9.95106 30.6032H8.55591V39.6255H9.95106C10.244 39.6255 10.4829 39.5252 10.691 39.317C10.8914 39.1165 10.9994 38.8697 10.9994 38.5767V31.6442C10.9994 31.3589 10.8991 31.1121 10.691 30.9039C10.4829 30.7034 10.244 30.6032 9.95106 30.6032ZM49.0847 18.4424H47.6895V27.2025H49.0847C49.3776 27.2025 49.6243 27.1022 49.8247 26.894C50.0251 26.6935 50.133 26.4467 50.133 26.1537V19.4834C50.133 19.1904 50.0328 18.9436 49.8247 18.7431C49.6243 18.5426 49.3776 18.4424 49.0847 18.4424ZM9.95106 18.4424H8.55591V25.853H9.95106C10.244 25.853 10.4829 25.7527 10.691 25.5445C10.8914 25.344 10.9994 25.0973 10.9994 24.8042V19.4911C10.9994 19.1981 10.8991 18.9513 10.691 18.7508C10.4829 18.5426 10.244 18.4424 9.95106 18.4424ZM82.6454 5.7803C81.944 4.63902 80.1712 3.63654 78.6296 4.80867L68.7864 11.8029C68.455 11.8106 68.1389 11.6409 67.9694 11.3325C67.8769 11.1551 67.8537 10.9623 67.8846 10.7773L71.2992 4.66215C71.8388 3.89101 71.9698 3.51316 71.9698 2.78058C71.9698 1.35398 70.7211 0.0661791 69.2874 0.0661791C69.087 0.0661791 68.771 -0.0340686 68.5783 0.0121996H3.66131C1.64181 0.00448825 0 1.64701 0 3.6751V44.3371C0 46.3652 1.64181 48 3.66131 48H79.3387C81.3659 48 83 46.3575 83 44.3371V6.87531C82.9692 6.50517 82.869 6.15044 82.6454 5.7803ZM29.3907 7.35342C30.6702 7.35342 31.7108 8.39445 31.7108 9.68225C31.7108 10.97 30.6702 12.0111 29.3907 12.0111C28.1035 12.0111 27.0629 10.97 27.0629 9.68225C27.0629 8.40216 28.1035 7.35342 29.3907 7.35342ZM21.2896 7.35342C22.5768 7.35342 23.6174 8.39445 23.6174 9.68225C23.6174 10.97 22.5768 12.0111 21.2896 12.0111C20.01 12.0111 18.9617 10.97 18.9617 9.68225C18.9694 8.40216 20.01 7.35342 21.2896 7.35342ZM16.0944 23.6321C16.0944 24.9662 15.6858 26.0843 14.8765 26.9865C14.4371 27.4492 13.9207 27.8271 13.304 28.1201C13.9438 28.3515 14.4603 28.6676 14.8765 29.0763C15.285 29.485 15.5856 29.9631 15.7937 30.5183C15.9941 31.0659 16.0944 31.6828 16.0944 32.3459V38.7926C16.0944 39.5483 15.9479 40.2578 15.6627 40.9287C15.3698 41.5996 14.9844 42.1779 14.4834 42.6714C13.9901 43.165 13.412 43.5583 12.7414 43.8513C12.0708 44.1443 11.3616 44.2831 10.6062 44.2831H4.06984C3.66131 44.2831 3.4609 44.0826 3.4609 43.6739V14.3862C3.4609 13.9775 3.66131 13.777 4.06984 13.777H10.6062C11.3616 13.777 12.0708 13.9235 12.7414 14.2165C13.412 14.5096 13.9901 14.8951 14.4834 15.3887C14.9767 15.8822 15.3698 16.4682 15.6627 17.1314C15.9556 17.8023 16.0944 18.5118 16.0944 19.2675V23.6321ZM23.9488 43.3269C23.9488 43.7356 23.7484 43.9361 23.3399 43.9361H19.4628C19.0542 43.9361 18.8538 43.7356 18.8538 43.3269V14.3785C18.8538 13.9698 19.0542 13.7693 19.4628 13.7693H23.3399C23.7484 13.7693 23.9488 13.9698 23.9488 14.3785V43.3269ZM39.5113 39.1011C39.5113 39.8568 39.3649 40.5662 39.072 41.2371C38.7791 41.908 38.3937 42.4864 37.9004 42.9799C37.407 43.4734 36.8212 43.8667 36.1583 44.1597C35.4877 44.4528 34.7786 44.5916 34.0232 44.5916H32.3737C31.6183 44.5916 30.9015 44.4451 30.2386 44.1597C29.568 43.8667 28.9899 43.4734 28.4966 42.9799C28.0033 42.4864 27.6101 41.9003 27.3172 41.2371C27.0243 40.574 26.8779 39.8568 26.8779 39.1011V22.7299C26.8779 22.6913 26.8625 22.6528 26.8625 22.6065V14.3785C26.8625 13.9698 27.0629 13.7693 27.4714 13.7693H31.3485C31.7571 13.7693 31.9575 13.9698 31.9575 14.3785V22.1515C31.9652 22.1901 31.9729 22.2209 31.9729 22.2672V38.8775C31.9729 39.1705 32.0731 39.4173 32.2812 39.6177C32.4816 39.8182 32.7283 39.9185 33.0212 39.9185H33.368C33.6609 39.9185 33.9076 39.8182 34.108 39.6177C34.3084 39.4173 34.4086 39.1628 34.4086 38.8775V14.525C34.4086 14.1163 34.609 13.9158 35.0176 13.9158H38.8947C39.3032 13.9158 39.5036 14.1163 39.5036 14.525V39.1011H39.5113ZM55.6673 44.2831H51.7054C51.5358 44.2831 51.3663 44.2214 51.2044 44.1058C51.0425 43.9901 50.9346 43.8436 50.8807 43.6739L47.6973 33.0014V44.2908L47.6587 43.859C47.597 44.152 47.4121 44.2908 47.0883 44.2908H43.2112C42.8027 44.2908 42.6022 44.0903 42.6022 43.6816V14.3862C42.6022 13.9775 42.8027 13.777 43.2112 13.777H49.7476C50.503 13.777 51.2121 13.9235 51.8827 14.2165C52.5533 14.5096 53.1314 14.8951 53.6247 15.3887C54.118 15.8822 54.5111 16.4682 54.804 17.1314C55.097 17.8023 55.2434 18.5118 55.2434 19.2675V26.3696C55.2434 27.4415 54.9659 28.4131 54.4186 29.2691C53.8637 30.1251 53.1391 30.7882 52.2373 31.2509L56.1144 43.6739C56.1915 44.0826 56.045 44.2831 55.6673 44.2831ZM70.8676 39.1011C70.8676 39.8568 70.7211 40.5662 70.4282 41.2371C70.1353 41.908 69.7499 42.4864 69.2489 42.9799C68.7556 43.4734 68.1775 43.8667 67.5069 44.1597C66.844 44.4528 66.1271 44.5916 65.3717 44.5916H63.7145C62.9591 44.5916 62.25 44.4451 61.5794 44.1597C60.9088 43.8667 60.3307 43.4734 59.8374 42.9799C59.3441 42.4864 58.951 41.9003 58.6658 41.2371C58.3729 40.574 58.2264 39.8568 58.2264 39.1011V18.9667C58.2264 18.211 58.3729 17.5016 58.6658 16.8307C58.951 16.1598 59.3441 15.5814 59.8374 15.0879C60.3307 14.5944 60.9088 14.2011 61.5794 13.9158C62.2423 13.6228 62.9591 13.4839 63.7145 13.4839H65.3717C66.1271 13.4839 66.8363 13.6305 67.5069 13.9158C68.1775 14.2088 68.7556 14.5944 69.2489 15.0879C69.7499 15.5814 70.1353 16.1675 70.4282 16.8307C70.7211 17.5016 70.8676 18.211 70.8676 18.9667V39.1011ZM64.7243 18.1339H64.3774C64.0845 18.1339 63.8379 18.2419 63.6374 18.4424C63.437 18.6428 63.3291 18.8896 63.3291 19.1826V38.8775C63.3291 39.1705 63.4293 39.4173 63.6374 39.6177C63.8379 39.8182 64.0845 39.9185 64.3774 39.9185H64.7243C65.0172 39.9185 65.2638 39.8182 65.4642 39.6177C65.6724 39.4173 65.7726 39.1628 65.7726 38.8775V19.1826C65.7726 18.8896 65.6724 18.6428 65.4642 18.4424C65.2638 18.2419 65.0172 18.1339 64.7243 18.1339Z" fill="#149A83"/>
</svg>
