<svg width="61" height="48" viewBox="0 0 61 48" fill="none" xmlns="http://www.w3.org/2000/svg">
<path d="M7.31388 34.1998C5.68966 34.0519 4.02326 34.1153 2.39905 34.1998C2.2092 34.1998 2.01936 34.1998 1.85061 34.1998H1.34436V9.71021H11.617C11.617 14.1475 11.617 18.6059 11.617 23.0432V24.6068C15.1186 25.3675 18.4303 26.9311 21.2357 29.1286C21.0881 29.2554 20.9193 29.3611 20.7717 29.4879C19.8435 30.164 18.8943 30.7979 17.8818 31.3262C16.8693 31.8755 15.8357 32.3404 14.76 32.7207C13.6842 33.1222 12.5873 33.4392 11.4693 33.6716C10.3514 33.904 8.64278 34.1153 7.48263 34.1998C7.48263 34.1998 7.46153 34.1998 7.44044 34.1998H7.35607" fill="#31B1FF"/>
<path d="M30.4115 47.7652C28.7029 47.9343 26.9732 48.1244 25.2647 47.892C23.5561 47.6596 21.8686 46.9623 20.7295 45.6734C19.7381 44.5323 19.2951 43.0532 18.6201 41.7009C16.9537 38.3201 13.7897 35.7 10.1616 34.7069C9.40218 34.4956 8.15765 34.3054 8.15765 34.3054C18.5358 33.904 22.9865 30.9035 23.1131 30.7979H23.1342C23.8092 31.4529 24.4631 32.1502 25.0537 32.8897C28.4709 37.0523 30.3693 42.3982 30.4115 47.7652Z" fill="#31B1FF"/>
<path d="M29.6943 16.1337C28.6607 20.2963 26.5091 24.0997 23.3662 27.2058C22.6912 27.8819 21.974 28.5158 21.2146 29.0864C21.0669 29.2131 20.8982 29.3399 20.7294 29.4456C19.8013 30.1217 18.831 30.7556 17.8396 31.2839C16.8271 31.8332 15.7935 32.2981 14.7177 32.6784C13.642 33.0799 12.5451 33.3969 11.4271 33.6293C10.2881 33.8617 8.55837 34.073 7.41931 34.1575C7.37712 34.1575 7.35603 34.1575 7.31384 34.1575C6.49119 34.1998 4.23416 34.1787 2.7576 34.1575C2.69432 34.1575 2.65213 34.1575 2.58885 34.1575C2.52557 34.1575 2.46229 34.1575 2.4201 34.1575C2.23026 34.1575 2.04042 34.1575 1.87167 34.1575H1.36542V24.0363C3.87557 24.0363 6.55447 24.2476 9.02243 23.7827C9.33884 23.7193 9.65524 23.6559 9.97165 23.5714C10.2881 23.4869 10.6045 23.4024 10.8998 23.2967C11.1318 23.2122 11.3849 23.1277 11.617 23.022C11.6802 23.0009 11.7435 22.9798 11.8068 22.9375C12.1021 22.8107 12.3974 22.684 12.6716 22.5361C12.9459 22.3881 13.2412 22.2402 13.5154 22.0712C13.7896 21.9022 14.0638 21.7331 14.317 21.543C14.5701 21.3528 14.8232 21.1626 15.0763 20.9724C15.3295 20.7823 15.5615 20.571 15.7935 20.3597C16.0255 20.1484 16.2576 19.9159 16.4685 19.6835C16.6795 19.4511 16.8904 19.2187 17.1013 18.9651C17.3123 18.7115 17.5021 18.458 17.6709 18.2044C17.8607 17.9509 18.0294 17.6762 18.1982 17.4015C18.3669 17.1268 18.5146 16.8521 18.6623 16.5774C18.7466 16.4295 18.8099 16.2605 18.8943 16.1125H29.6943V16.1337Z" fill="#0025FF"/>
<path d="M36.8239 30.0583V35.362H34.9044V30.0583H36.8239Z" fill="#0025FF"/>
<path d="M34.9044 21.3104H37.4779V23.9306L39.1443 21.2893H42.1396L39.756 24.649L42.1607 28.4101H39.1653L37.4779 25.4942V28.4101H34.9044V21.3104Z" fill="#0025FF"/>
<path d="M45.2192 21.2893L45.2403 28.4101H42.6669L42.6458 21.2893H45.2192Z" fill="#0025FF"/>
<path d="M46.2107 21.2893H49.3747C51.8005 21.2893 53.4247 22.705 53.4247 24.8391C53.4247 26.9733 51.8216 28.4101 49.3747 28.4101H46.2107V21.2893ZM49.3747 23.1699H48.6787V26.5295H49.3747C50.2607 26.5295 50.8513 25.8534 50.8513 24.8391C50.8513 23.8249 50.2607 23.1699 49.3747 23.1699Z" fill="#0025FF"/>
<path d="M56.9896 28.6427C55.1333 28.6427 53.8044 27.5439 53.8044 26.0437H55.9982C55.9982 26.5297 56.4833 26.8678 57.074 26.8678C57.538 26.8678 57.8755 26.6565 57.8755 26.3818C57.8755 25.9803 57.3693 25.938 56.7154 25.8535C55.1966 25.6845 53.8255 25.2619 53.8255 23.5715C53.8255 22.0501 55.1544 21.057 56.9896 21.0359C58.8458 21.0359 60.1747 22.0924 60.1747 23.5504H58.0865C58.0865 23.1278 57.6646 22.8108 57.0951 22.8108C56.6521 22.8108 56.3146 23.001 56.3146 23.2545C56.3146 23.6349 56.8208 23.6771 57.4958 23.7405C58.9724 23.8673 60.3646 24.2899 60.3646 26.0014C60.3435 27.5862 58.9302 28.6427 56.9896 28.6427Z" fill="#0025FF"/>
<path d="M41.106 33.0376V30.0371H42.8778V35.3407H40.9583L39.4185 32.3614V35.3407H37.6466V30.0371H39.5661L41.106 33.0376Z" fill="#0025FF"/>
<path d="M46.4005 31.5796H45.0084V30.0371H49.7123V31.5796H48.3201V35.3407H46.4005V31.5796Z" fill="#0025FF"/>
<path d="M50.3029 35.3197V30.0161H52.2224V31.8544H53.6146V30.0161H55.5341V35.3197H53.6146V33.3335H52.2224V35.3197H50.3029Z" fill="#0025FF"/>
<path d="M58.1708 33.8406H60.2169V35.3197H56.3146V30.0161H60.2169V31.4952H58.1497V32.0023H60.2169V33.249H58.1497L58.1708 33.8406Z" fill="#0025FF"/>
<path d="M38.9755 40.5177H37.7732V39.3978H40.9372C41.1693 41.4686 39.8825 42.9477 37.8575 42.9477C35.9591 42.9477 34.588 41.6587 34.588 39.8838C34.588 38.1089 35.9591 36.7988 37.8575 36.7988C39.3341 36.7988 40.4732 37.644 40.7052 38.8273L38.8068 39.1443C38.7013 38.785 38.3216 38.5526 37.8575 38.5526C37.1614 38.5526 36.6763 39.102 36.6763 39.8627C36.6763 40.6234 37.2036 41.1727 37.963 41.1727C38.4693 41.215 38.9333 40.9192 38.9755 40.5177Z" fill="#0025FF"/>
<path d="M43.1943 42.0389L43.0045 42.7574H40.8529L42.5193 37.01H45.5568L47.2443 42.7574H45.0927L44.9029 42.0389H43.1943ZM44.0381 38.7427L43.5529 40.581H44.5021L44.0381 38.7427Z" fill="#0025FF"/>
<path d="M49.6489 42.7364H47.6661V36.989H50.2607L51.463 40.6445L52.6021 36.989H55.2599V42.7364H53.2771V39.419L52.2435 42.7364H50.7247L49.6911 39.4401L49.6489 42.7364Z" fill="#0025FF"/>
<path d="M57.9599 41.1305H60.1959V42.7364H55.9771V36.989H60.238V38.5949H57.9599V39.1443H60.1959V40.4966H57.9599V41.1305Z" fill="#0025FF"/>
<path d="M11.8279 2.08223C11.0264 2.58935 10.2459 3.1176 9.44434 3.62472C9.29669 2.56822 9.14903 1.49059 9.00138 0.434092C8.9381 -0.0941577 8.09435 -0.136418 7.86232 0.286182C7.35607 1.23703 6.89201 2.16675 6.36466 3.1176C5.85841 2.16675 5.39435 1.23703 4.86701 0.286182C4.63498 -0.136418 3.81232 -0.0941577 3.72795 0.434092C3.58029 1.49059 3.43264 2.56822 3.28498 3.62472C2.48342 3.1176 1.70295 2.58935 0.901392 2.08223C0.331862 1.70189 -0.174387 2.42031 0.0576434 2.92743C0.521705 3.9628 0.985767 5.0193 1.44983 6.05466C1.68186 6.58291 1.91389 7.11116 2.12483 7.61828C2.12483 7.61828 2.12483 7.61828 2.12483 7.63941C2.14592 7.68167 2.14592 7.7028 2.16701 7.72393C2.18811 7.74506 2.18811 7.76619 2.2092 7.78732C2.31467 7.95636 2.48342 8.06201 2.71545 8.06201C4.12873 8.06201 5.52091 8.08314 6.93419 8.08314C7.69357 8.08314 7.73575 7.00551 7.08185 6.8576C6.82872 6.8576 6.59669 6.8576 6.34357 6.8576H6.32247C5.2467 6.8576 4.17092 6.8576 3.11623 6.83647C3.01076 6.56178 2.8842 6.28709 2.77873 6.03353C2.52561 5.44189 2.25139 4.82913 1.99826 4.23749C2.48342 4.55444 2.96858 4.87139 3.45373 5.18833C3.74904 5.3785 4.31857 5.20947 4.36076 4.82913C4.46623 4.06845 4.5717 3.30777 4.67717 2.54709C5.07795 3.28664 5.41545 4.00506 5.81623 4.72348C5.92169 4.91365 6.13263 5.01929 6.34357 5.01929H6.36466C6.5756 5.01929 6.78654 4.91365 6.89201 4.72348C7.29279 4.00506 7.63028 3.26551 8.03106 2.54709C8.13653 3.30777 8.242 4.06845 8.34747 4.82913C8.41075 5.20947 8.95919 5.39963 9.2545 5.18833C9.73966 4.87139 10.2248 4.55444 10.71 4.23749C10.4568 4.82913 10.1826 5.44189 9.9295 6.03353C9.80294 6.30822 9.52872 6.83647 9.52872 6.83647C9.50763 6.8576 9.50762 6.89986 9.48653 6.92099C9.14903 7.63941 10.2248 8.27331 10.5623 7.55489C10.7943 7.04777 11.0264 6.56178 11.2584 6.05466V6.03353C11.7225 4.97703 12.1654 3.94167 12.6506 2.9063C12.9037 2.42031 12.3975 1.70189 11.8279 2.08223Z" fill="#0224F4"/>
<path d="M23.1552 30.7768C23.1341 30.7768 23.1341 30.7768 23.1552 30.7768C22.9865 30.8825 18.5568 33.904 8.17871 34.2844C8.17871 34.2844 7.50371 34.1999 7.35605 34.1999H7.33496H7.44043C7.44043 34.1999 7.46152 34.1999 7.48262 34.1999C8.64277 34.1153 10.3514 33.9252 11.4693 33.6716C12.5873 33.4392 13.6842 33.1222 14.7599 32.7208C15.8357 32.3193 16.8693 31.8544 17.8818 31.3262C18.8943 30.7768 19.8646 30.164 20.7717 29.4879C20.9193 29.3611 21.0881 29.2554 21.2357 29.1287C21.9107 29.6358 22.5435 30.1852 23.1552 30.7768Z" fill="#31B1FF"/>
<path opacity="0.3" d="M23.1552 30.7768C23.1341 30.7768 23.1341 30.7768 23.1552 30.7768C22.9865 30.8825 18.5568 33.904 8.17871 34.2844C8.17871 34.2844 7.50371 34.1999 7.35605 34.1999H7.33496H7.44043C7.44043 34.1999 7.46152 34.1999 7.48262 34.1999C8.64277 34.1153 10.3514 33.9252 11.4693 33.6716C12.5873 33.4392 13.6842 33.1222 14.7599 32.7208C15.8357 32.3193 16.8693 31.8544 17.8818 31.3262C18.8943 30.7768 19.8646 30.164 20.7717 29.4879C20.9193 29.3611 21.0881 29.2554 21.2357 29.1287C21.9107 29.6358 22.5435 30.1852 23.1552 30.7768Z" fill="#0025FF"/>
</svg>
