<svg width="100" height="100" viewBox="0 0 100 100" fill="none" xmlns="http://www.w3.org/2000/svg">
<g clip-path="url(#clip0_5118_3696)">
<path d="M78.2842 21.7158C71.0456 14.477 61.0456 10 50 10C38.9544 10 28.9544 14.477 21.7158 21.7158C14.477 28.9542 10 38.9542 10 50C10 61.0456 14.477 71.0456 21.7158 78.2842C28.9545 85.5228 38.9544 90 50 90C61.0456 90 71.0456 85.523 78.2842 78.2842C85.5228 71.0455 90 61.0456 90 50C90 38.9542 85.523 28.9542 78.2842 21.7158Z" fill="url(#paint0_linear_5118_3696)"/>
<path d="M50 17.2434C68.0622 17.2434 82.7565 31.9379 82.7565 50C82.7565 68.062 68.0622 82.7565 50 82.7565C31.9378 82.7565 17.2434 68.0622 17.2434 50C17.2434 31.9378 31.9379 17.2434 50 17.2434Z" fill="#FEF3D8"/>
<path d="M50 23.1992C49.3333 23.1992 48.7928 23.7395 48.7928 24.4064V29.0744C48.7928 29.7412 49.3333 30.2816 50 30.2816C50.6668 30.2816 51.2072 29.7412 51.2072 29.0744V24.4064C51.2072 23.7395 50.6668 23.1992 50 23.1992Z" fill="#2C3449"/>
<path d="M50 69.7183C49.3333 69.7183 48.7928 70.2586 48.7928 70.9255V75.5934C48.7928 76.2603 49.3333 76.8006 50 76.8006C50.6668 76.8006 51.2072 76.2603 51.2072 75.5934V70.9255C51.2072 70.2586 50.6668 69.7183 50 69.7183Z" fill="#2C3449"/>
<path d="M75.5935 48.7928H70.9256C70.2589 48.7928 69.7184 49.3332 69.7184 50C69.7184 50.6669 70.2589 51.2072 70.9256 51.2072H75.5935C76.2603 51.2072 76.8007 50.6669 76.8007 50C76.8007 49.3332 76.2603 48.7928 75.5935 48.7928Z" fill="#2C3449"/>
<path d="M30.2817 50C30.2817 49.3332 29.7413 48.7928 29.0745 48.7928H24.4064C23.7397 48.7928 23.1992 49.3332 23.1992 50C23.1992 50.6669 23.7397 51.2072 24.4064 51.2072H29.0744C29.7411 51.2072 30.2817 50.6669 30.2817 50Z" fill="#2C3449"/>
<path d="M38.2488 27.2317C37.9154 26.6543 37.1769 26.4568 36.5997 26.7898C36.0224 27.1232 35.8246 27.8615 36.1579 28.4389L37.6871 31.0876C37.9107 31.475 38.3165 31.6914 38.7336 31.6914C38.9383 31.6914 39.146 31.6392 39.3361 31.5295C39.9135 31.1962 40.1113 30.4578 39.778 29.8804L38.2488 27.2317Z" fill="#2C3449"/>
<path d="M62.3131 68.9123C61.9797 68.3348 61.2414 68.1373 60.6641 68.4704C60.0867 68.8039 59.8889 69.5422 60.2222 70.1195L61.7514 72.7683C61.975 73.1556 62.3808 73.372 62.798 73.372C63.0027 73.372 63.2103 73.3198 63.4005 73.2101C63.9778 72.8767 64.1756 72.1384 63.8423 71.5611L62.3131 68.9123Z" fill="#2C3449"/>
<path d="M69.517 39.9398C69.7217 39.9398 69.9294 39.8876 70.1195 39.7779L72.7683 38.2487C73.3456 37.9153 73.5435 37.177 73.2102 36.5996C72.8767 36.0221 72.1384 35.8248 71.5611 36.1578L68.9124 37.687C68.335 38.0203 68.1372 38.7587 68.4705 39.336C68.6942 39.7232 69.1 39.9398 69.517 39.9398Z" fill="#2C3449"/>
<path d="M29.8803 60.2221L27.2316 61.7514C26.6542 62.0848 26.4564 62.8231 26.7897 63.4004C27.0133 63.7878 27.4191 64.0042 27.8363 64.0042C28.0409 64.0042 28.2486 63.952 28.4388 63.8423L31.0875 62.3131C31.6649 61.9796 31.8627 61.2414 31.5294 60.664C31.1961 60.0864 30.4577 59.8889 29.8803 60.2221Z" fill="#2C3449"/>
<path d="M31.0875 37.6869L28.4387 36.1576C27.8612 35.8244 27.1229 36.022 26.7896 36.5995C26.4562 37.1769 26.6542 37.9153 27.2315 38.2486L29.8803 39.7778C30.0704 39.8877 30.2781 39.9397 30.4828 39.9397C30.9 39.9397 31.3057 39.7231 31.5293 39.3359C31.8628 38.7586 31.665 38.0203 31.0875 37.6869Z" fill="#2C3449"/>
<path d="M72.7682 61.7512L70.1195 60.222C69.5421 59.8884 68.8037 60.0864 68.4704 60.6639C68.137 61.2412 68.335 61.9797 68.9123 62.3129L71.5611 63.8422C71.7512 63.952 71.9589 64.004 72.1636 64.004C72.5807 64.004 72.9865 63.7875 73.2101 63.4003C73.5436 62.8229 73.3457 62.0847 72.7682 61.7512Z" fill="#2C3449"/>
<path d="M63.4004 26.7898C62.8231 26.4564 62.0846 26.6542 61.7514 27.2317L60.2221 29.8804C59.8887 30.4578 60.0867 31.1962 60.664 31.5295C60.8542 31.6393 61.0618 31.6914 61.2665 31.6914C61.6837 31.6914 62.0895 31.4748 62.3131 31.0876L63.8423 28.4389C64.1756 27.8615 63.9778 27.1232 63.4004 26.7898Z" fill="#2C3449"/>
<path d="M39.3361 68.4705C38.7588 68.137 38.0204 68.3348 37.6871 68.9123L36.1579 71.5611C35.8246 72.1384 36.0224 72.8769 36.5997 73.2102C36.7899 73.32 36.9975 73.372 37.2022 73.372C37.6194 73.372 38.0252 73.1555 38.2488 72.7683L39.778 70.1195C40.1113 69.5422 39.9135 68.8039 39.3361 68.4705Z" fill="#2C3449"/>
<path d="M66.13 48.7928H51.6095V51.2074H66.13C66.7967 51.2074 67.3372 50.6669 67.3372 50.0002C67.3373 49.3333 66.7967 48.7928 66.13 48.7928Z" fill="#2C3449"/>
<path d="M50 38.3701C49.3333 38.3701 48.7928 38.9106 48.7928 39.5773V48.2276H51.2074V39.5773C51.2072 38.9107 50.6668 38.3701 50 38.3701Z" fill="#2C3449"/>
<path d="M50 53.2194C51.778 53.2194 53.2194 51.778 53.2194 50C53.2194 48.222 51.778 46.7806 50 46.7806C48.222 46.7806 46.7806 48.222 46.7806 50C46.7806 51.778 48.222 53.2194 50 53.2194Z" fill="#2C3449"/>
</g>
<defs>
<linearGradient id="paint0_linear_5118_3696" x1="50" y1="10" x2="50" y2="90" gradientUnits="userSpaceOnUse">
<stop stop-color="#FF8B20"/>
<stop offset="1" stop-color="#FDB572"/>
</linearGradient>
<clipPath id="clip0_5118_3696">
<rect width="80" height="80" fill="white" transform="translate(10 10)"/>
</clipPath>
</defs>
</svg>
