<?xml version="1.0" encoding="UTF-8"?>
<svg xmlns="http://www.w3.org/2000/svg" width="40" height="40" viewBox="0 0 40 40" fill="none">
  <path d="M16 6.66663C12.5066 6.66663 9.66663 9.50663 9.66663 13C9.66663 16.4266 12.3466 19.2 15.84 19.32C15.9466 19.3066 16.0533 19.3066 16.1333 19.32C16.16 19.32 16.1733 19.32 16.2 19.32C16.2133 19.32 16.2133 19.32 16.2266 19.32C19.64 19.2 22.32 16.4266 22.3333 13C22.3333 9.50663 19.4933 6.66663 16 6.66663Z" fill="#434C62"></path>
  <path d="M22.7733 22.8667C19.0533 20.3867 12.9866 20.3867 9.23995 22.8667C7.54661 24 6.61328 25.5334 6.61328 27.1734C6.61328 28.8134 7.54661 30.3334 9.22661 31.4534C11.0933 32.7067 13.5466 33.3334 15.9999 33.3334C18.4533 33.3334 20.9066 32.7067 22.7733 31.4534C24.4533 30.32 25.3866 28.8 25.3866 27.1467C25.3733 25.5067 24.4533 23.9867 22.7733 22.8667Z" fill="#434C62"></path>
  <path d="M30.6534 13.7866C30.8667 16.3733 29.0267 18.64 26.48 18.9466C26.4667 18.9466 26.4667 18.9466 26.4534 18.9466H26.4134C26.3334 18.9466 26.2534 18.9466 26.1867 18.9733C24.8934 19.04 23.7067 18.6266 22.8134 17.8666C24.1867 16.64 24.9734 14.8 24.8134 12.8C24.72 11.72 24.3467 10.7333 23.7867 9.8933C24.2934 9.63997 24.88 9.47997 25.48 9.42664C28.0934 9.19997 30.4267 11.1466 30.6534 13.7866Z" fill="url(#paint0_linear_1597_4043)"></path>
  <path d="M33.32 26.12C33.2133 27.4133 32.3867 28.5333 31 29.2933C29.6667 30.0267 27.9867 30.3733 26.32 30.3333C27.28 29.4667 27.84 28.3867 27.9467 27.24C28.08 25.5867 27.2933 24 25.72 22.7333C24.8267 22.0267 23.7867 21.4667 22.6533 21.0533C25.6 20.2 29.3067 20.7733 31.5867 22.6133C32.8133 23.6 33.44 24.84 33.32 26.12Z" fill="url(#paint1_linear_1597_4043)"></path>
  <defs>
    <linearGradient id="paint0_linear_1597_4043" x1="26.7418" y1="9.40869" x2="26.7418" y2="18.9803" gradientUnits="userSpaceOnUse">
      <stop stop-color="#FF8B20"></stop>
      <stop offset="1" stop-color="#FDB572"></stop>
    </linearGradient>
    <linearGradient id="paint1_linear_1597_4043" x1="27.9939" y1="20.6661" x2="27.9939" y2="30.3364" gradientUnits="userSpaceOnUse">
      <stop stop-color="#FF8B20"></stop>
      <stop offset="1" stop-color="#FDB572"></stop>
    </linearGradient>
  </defs>
</svg>
