<?xml version="1.0" encoding="UTF-8"?>
<svg xmlns="http://www.w3.org/2000/svg" width="40" height="40" viewBox="0 0 40 40" fill="none">
  <path d="M27.4938 25.1395C28.5313 24.5182 29.8939 25.1959 29.8939 26.3255V28.1469C29.8939 29.94 28.3609 31.8602 26.5183 32.425L21.5787 33.9217C20.7116 34.1899 19.3025 34.1899 18.4508 33.9217L13.5113 32.425C11.6531 31.8602 10.1356 29.94 10.1356 28.1469V26.3114C10.1356 25.1959 11.4983 24.5182 12.5202 25.1254L15.7101 27.0173C16.9333 27.7657 18.4818 28.1328 20.0302 28.1328C21.5787 28.1328 23.1272 27.7657 24.3504 27.0173L27.4938 25.1395Z" fill="url(#paint0_linear_1597_4069)"></path>
  <path d="M32.3721 12.178L23.0969 6.62917C21.4245 5.6267 18.6683 5.6267 16.9959 6.62917L7.67425 12.178C4.68573 13.943 4.68573 17.9387 7.67425 19.7177L10.1518 21.1861L16.9959 25.2525C18.6683 26.255 21.4245 26.255 23.0969 25.2525L29.8946 21.1861L32.016 19.9154V24.2359C32.016 24.8148 32.5424 25.2949 33.1773 25.2949C33.8122 25.2949 34.3386 24.8148 34.3386 24.2359V17.2892C34.958 15.4678 34.3232 13.3499 32.3721 12.178Z" fill="#434C62"></path>
  <defs>
    <linearGradient id="paint0_linear_1597_4069" x1="11.5469" y1="26.0109" x2="31.4134" y2="28.9632" gradientUnits="userSpaceOnUse">
      <stop stop-color="#FFCA41"></stop>
      <stop offset="1" stop-color="#FFDA7A"></stop>
    </linearGradient>
  </defs>
</svg>
