<?xml version="1.0" encoding="UTF-8"?>
<svg xmlns="http://www.w3.org/2000/svg" width="40" height="40" viewBox="0 0 40 40" fill="none">
  <path d="M34.9282 27.1608C34.4324 31.1573 31.1572 34.4326 27.1607 34.9284C24.7418 35.2288 22.4882 34.5678 20.7303 33.2757C19.7237 32.5395 19.9641 30.977 21.166 30.6164C25.6883 29.2492 29.2491 25.6734 30.6313 21.1511C30.9919 19.9642 32.5544 19.7238 33.2906 20.7154C34.5677 22.4883 35.2287 24.7419 34.9282 27.1608Z" fill="#434C62"></path>
  <path d="M17.0044 5C10.3787 5 5 10.3787 5 17.0044C5 23.63 10.3787 29.0087 17.0044 29.0087C23.63 29.0087 29.0087 23.63 29.0087 17.0044C28.9937 10.3787 23.63 5 17.0044 5ZM15.5921 15.3216L19.2129 16.5837C20.52 17.0494 21.151 17.9659 21.151 19.3782C21.151 21.0008 19.859 22.338 18.2814 22.338H18.1462V22.4131C18.1462 23.0291 17.6354 23.5399 17.0194 23.5399C16.4034 23.5399 15.8926 23.0291 15.8926 22.4131V22.3229C14.2249 22.2478 12.8877 20.8506 12.8877 19.1077C12.8877 18.4918 13.3985 17.9809 14.0145 17.9809C14.6305 17.9809 15.1414 18.4918 15.1414 19.1077C15.1414 19.6486 15.532 20.0843 16.0128 20.0843H18.2664C18.6119 20.0843 18.8824 19.7688 18.8824 19.3782C18.8824 18.8523 18.7922 18.8223 18.4467 18.7021L14.8258 17.4401C13.5338 16.9893 12.8877 16.0729 12.8877 14.6456C12.8877 13.0229 14.1798 11.6858 15.7573 11.6858H15.8926V11.6257C15.8926 11.0097 16.4034 10.4989 17.0194 10.4989C17.6354 10.4989 18.1462 11.0097 18.1462 11.6257V11.7158C19.8139 11.791 21.151 13.1882 21.151 14.931C21.151 15.547 20.6402 16.0578 20.0242 16.0578C19.4082 16.0578 18.8974 15.547 18.8974 14.931C18.8974 14.3901 18.5068 13.9544 18.026 13.9544H15.7724C15.4268 13.9544 15.1564 14.2699 15.1564 14.6606C15.1414 15.1714 15.2315 15.2015 15.5921 15.3216Z" fill="url(#paint0_linear_1597_4054)"></path>
  <path d="M15.5921 15.3217L19.2129 16.5837C20.52 17.0495 21.151 17.9659 21.151 19.3782C21.151 21.0008 19.8589 22.338 18.2814 22.338H18.1462V22.4131C18.1462 23.0291 17.6354 23.5399 17.0194 23.5399C16.4034 23.5399 15.8925 23.0291 15.8925 22.4131V22.323C14.2249 22.2478 12.8877 20.8506 12.8877 19.1078C12.8877 18.4918 13.3985 17.981 14.0145 17.981C14.6305 17.981 15.1413 18.4918 15.1413 19.1078C15.1413 19.6487 15.532 20.0844 16.0127 20.0844H18.2664C18.6119 20.0844 18.8824 19.7688 18.8824 19.3782C18.8824 18.8524 18.7922 18.8223 18.4467 18.7021L14.8258 17.4401C13.5337 16.9894 12.8877 16.0729 12.8877 14.6456C12.8877 13.023 14.1798 11.6858 15.7573 11.6858H15.8925V11.6257C15.8925 11.0097 16.4034 10.4989 17.0194 10.4989C17.6354 10.4989 18.1462 11.0097 18.1462 11.6257V11.7159C19.8139 11.791 21.151 13.1882 21.151 14.931C21.151 15.547 20.6402 16.0579 20.0242 16.0579C19.4082 16.0579 18.8974 15.547 18.8974 14.931C18.8974 14.3902 18.5068 13.9545 18.026 13.9545H15.7723C15.4268 13.9545 15.1564 14.27 15.1564 14.6606C15.1413 15.1714 15.2315 15.2015 15.5921 15.3217Z" fill="#434C62"></path>
  <defs>
    <linearGradient id="paint0_linear_1597_4054" x1="6.71491" y1="7.89761" x2="31.27" y2="9.60143" gradientUnits="userSpaceOnUse">
      <stop stop-color="#FFCA41"></stop>
      <stop offset="1" stop-color="#FFDA7A"></stop>
    </linearGradient>
  </defs>
</svg>
