<?xml version="1.0" encoding="UTF-8"?>
<svg xmlns="http://www.w3.org/2000/svg" width="40" height="40" viewBox="0 0 40 40" fill="none">
  <path d="M32.1183 13.307C30.985 12.0537 29.0916 11.427 26.345 11.427H26.025V11.3737C26.025 9.13369 26.025 6.36035 21.0116 6.36035H18.985C13.9716 6.36035 13.9716 9.14702 13.9716 11.3737V11.4404H13.6516C10.8916 11.4404 9.01163 12.067 7.8783 13.3204C6.5583 14.787 6.5983 16.7604 6.73163 18.107L6.74497 18.2004L6.85576 19.3636C6.87002 19.5134 6.95086 19.6488 7.07662 19.7314C7.3836 19.9329 7.97425 20.3159 8.3183 20.507C8.50497 20.627 8.70497 20.7337 8.90497 20.8404C11.185 22.0937 13.6916 22.9337 16.2383 23.347C16.3583 24.6004 16.905 26.067 19.825 26.067C22.745 26.067 23.3183 24.6137 23.4116 23.3204C26.1316 22.8804 28.7583 21.9337 31.1316 20.547C31.2116 20.507 31.265 20.467 31.3316 20.427C31.8815 20.1162 32.4528 19.7304 32.9686 19.3561C33.0814 19.2743 33.1537 19.1483 33.1691 19.0098L33.1983 18.747L33.265 18.1204C33.2783 18.0404 33.2783 17.9737 33.2916 17.8804C33.3983 16.5337 33.3716 14.6937 32.1183 13.307ZM21.4516 22.4404C21.4516 23.8537 21.4516 24.067 19.8116 24.067C18.1716 24.067 18.1716 23.8137 18.1716 22.4537V20.7737H21.4516V22.4404ZM15.8783 11.427V11.3737C15.8783 9.10702 15.8783 8.26702 18.985 8.26702H21.0116C24.1183 8.26702 24.1183 9.12035 24.1183 11.3737V11.4404H15.8783V11.427Z" fill="url(#paint0_linear_1597_4032)"></path>
  <path d="M32.1022 22.1824C32.4552 22.0129 32.8604 22.2938 32.825 22.6838L32.3194 28.2533C32.0394 30.9199 30.9461 33.6399 25.0794 33.6399H14.9194C9.05272 33.6399 7.95938 30.9199 7.67938 28.2666L7.19867 22.9788C7.16363 22.5933 7.56032 22.3131 7.91244 22.4738C9.37008 23.1389 12.493 24.5168 14.3218 24.9778C14.4865 25.0194 14.6205 25.137 14.6894 25.2923C15.4811 27.0763 17.2516 28.0266 19.8261 28.0266C22.3751 28.0266 24.1688 27.0398 24.9626 25.2525C25.0316 25.0971 25.166 24.9794 25.3308 24.9377C27.2704 24.4473 30.5833 22.9115 32.1022 22.1824Z" fill="#434C62"></path>
  <defs>
    <linearGradient id="paint0_linear_1597_4032" x1="20" y1="6.36035" x2="20" y2="26.067" gradientUnits="userSpaceOnUse">
      <stop stop-color="#FF8B20"></stop>
      <stop offset="1" stop-color="#FDB572"></stop>
    </linearGradient>
  </defs>
</svg>
