<?xml version="1.0" encoding="UTF-8"?>
<svg xmlns="http://www.w3.org/2000/svg" width="24" height="23" viewBox="0 0 24 23" fill="none">
  <path d="M15.7637 20.9992C15.6164 20.9992 15.4668 20.9581 15.3346 20.8718L11.97 18.6947C11.6035 18.4572 11.4982 17.9672 11.7357 17.5998C11.9732 17.2333 12.4632 17.128 12.8305 17.3655L16.1951 19.5426C16.5617 19.7801 16.667 20.2701 16.4295 20.6375C16.2775 20.8718 16.0233 20.9992 15.7637 20.9992Z" fill="#838DA7"></path>
  <path d="M9.03617 20.9993C8.7765 20.9993 8.52238 20.8718 8.37117 20.6375C8.13367 20.2702 8.23896 19.7801 8.6055 19.5426L11.9701 17.3655C12.3374 17.1272 12.8275 17.2333 13.065 17.5999C13.3025 17.9672 13.1972 18.4572 12.8306 18.6947L9.46605 20.8718C9.33225 20.9581 9.18342 20.9993 9.03617 20.9993Z" fill="#838DA7"></path>
  <path d="M11.6082 17.041V20.2076C11.6082 20.6446 11.9628 20.9993 12.3998 20.9993C12.8368 20.9993 13.1915 20.6446 13.1915 20.2076V17.041H11.6082Z" fill="#838DA7"></path>
  <path d="M4.68123 7.14511H20.1187C20.2541 7.14511 20.3847 7.12532 20.5146 7.10474V13.2493C20.5146 14.9061 19.1714 16.2493 17.5146 16.2493H7.2854C5.62855 16.2493 4.2854 14.9061 4.2854 13.2493V7.10474C4.41523 7.12532 4.54586 7.14511 4.68123 7.14511Z" fill="url(#paint0_linear_1799_31737)"></path>
  <path d="M20.1187 6.35345H4.68115C3.69869 6.35345 2.8999 5.55466 2.8999 4.5722C2.8999 3.58975 3.69869 2.79095 4.68115 2.79095H20.1187C21.1011 2.79095 21.8999 3.58975 21.8999 4.5722C21.8999 5.55466 21.1011 6.35345 20.1187 6.35345Z" fill="#838DA7"></path>
  <defs>
    <linearGradient id="paint0_linear_1799_31737" x1="12.4" y1="7.10474" x2="12.4" y2="16.2493" gradientUnits="userSpaceOnUse">
      <stop stop-color="#FF8B20"></stop>
      <stop offset="1" stop-color="#FDB572"></stop>
    </linearGradient>
  </defs>
</svg>
