<?xml version="1.0" encoding="UTF-8"?>
<svg xmlns="http://www.w3.org/2000/svg" width="24" height="23" viewBox="0 0 24 23" fill="none">
  <path d="M2.97412 14.9875V15.9524C2.97412 16.2673 3.09923 16.5694 3.32193 16.7921C3.54463 17.0148 3.84668 17.1399 4.16162 17.1399H20.6382C20.9531 17.1399 21.2552 17.0148 21.4779 16.7921C21.7006 16.5694 21.8257 16.2673 21.8257 15.9524V14.9875H2.97412Z" fill="#434C62"></path>
  <path d="M16.2593 19.886H15.7653L15.2998 18.179H9.50003L9.03453 19.886H8.54053C8.40274 19.886 8.27059 19.9407 8.17316 20.0382C8.07573 20.1356 8.021 20.2677 8.021 20.4055C8.021 20.5433 8.07573 20.6755 8.17316 20.7729C8.27059 20.8703 8.40274 20.925 8.54053 20.925H16.2593C16.3971 20.925 16.5292 20.8703 16.6266 20.7729C16.7241 20.6755 16.7788 20.5433 16.7788 20.4055C16.7788 20.2677 16.7241 20.1356 16.6266 20.0382C16.5292 19.9407 16.3971 19.886 16.2593 19.886Z" fill="#434C62"></path>
  <path d="M10.5491 7.56567L11.9248 10.7081C11.9653 10.8006 12.0319 10.8793 12.1164 10.9345C12.2009 10.9898 12.2997 11.0192 12.4007 11.0192C12.5017 11.0192 12.6004 10.9898 12.685 10.9345C12.7695 10.8793 12.8361 10.8006 12.8766 10.7081L14.2505 7.56567H10.5491Z" fill="#FF8B20"></path>
  <path d="M14.251 1.72296C14.251 1.17068 13.8033 0.722963 13.251 0.722963H11.3218C10.7695 0.722963 10.3218 1.17028 10.3218 1.72257C10.3218 2.85168 10.3218 5.95676 10.3218 6.52662H14.251V1.72296Z" fill="#FF8B20"></path>
  <path d="M20.6382 2.96411H15.5171V7.1548C15.517 7.22634 15.5021 7.29708 15.4734 7.36261L13.8279 11.1246C13.7064 11.4023 13.5067 11.6385 13.2531 11.8044C12.9994 11.9703 12.703 12.0586 12.3999 12.0586C12.0969 12.0586 11.8004 11.9703 11.5468 11.8044C11.2931 11.6385 11.0934 11.4023 10.9719 11.1246L9.32636 7.36321C9.29766 7.29768 9.2828 7.22693 9.28271 7.15539V2.96411H4.16162C3.84668 2.96411 3.54463 3.08922 3.32193 3.31192C3.09923 3.53462 2.97412 3.83667 2.97412 4.15161V13.9485H21.8257V4.15161C21.8257 3.83667 21.7006 3.53462 21.4779 3.31192C21.2552 3.08922 20.9531 2.96411 20.6382 2.96411Z" fill="#FFCA41"></path>
</svg>
