<?xml version="1.0" encoding="UTF-8"?>
<svg xmlns="http://www.w3.org/2000/svg" width="24" height="23" viewBox="0 0 24 23" fill="none">
  <path d="M17.3805 3.06329L15.7781 2.68907C12.5733 1.93105 10.6639 2.55474 9.54124 4.87678C9.25339 5.46209 9.0231 6.17214 8.8312 6.98773L7.89086 11.0081C6.95053 15.0189 8.18832 16.9956 12.1895 17.9455L13.8015 18.3293C14.358 18.4636 14.8762 18.55 15.356 18.5884C18.3497 18.8762 19.9425 17.4753 20.7485 14.0114L21.6888 10.0006C22.6291 5.98983 21.4009 4.00362 17.3805 3.06329Z" fill="url(#paint0_linear_1799_31778)"></path>
  <path d="M13.0702 19.1325C13.3338 19.1938 13.358 19.5391 13.1012 19.6247L11.5852 20.1236C7.77586 21.3518 5.77046 20.3251 4.53268 16.5158L3.30449 12.7257C2.0763 8.91642 3.09339 6.90142 6.9027 5.67323L7.40548 5.50672C7.79204 5.37871 8.16824 5.76641 8.05847 6.15854C8.00406 6.35292 7.95173 6.55577 7.9006 6.76709L6.96027 10.7875C5.90479 15.3068 7.44963 17.8016 11.969 18.8763L13.0702 19.1325Z" fill="#2D264B"></path>
  <path d="M13.0702 19.1325C13.3338 19.1938 13.358 19.5391 13.1012 19.6247L11.5852 20.1236C7.77586 21.3518 5.77046 20.3251 4.53268 16.5158L3.30449 12.7257C2.0763 8.91642 3.09339 6.90142 6.9027 5.67323L7.40548 5.50672C7.79204 5.37871 8.16824 5.76641 8.05847 6.15854C8.00406 6.35292 7.95173 6.55577 7.9006 6.76709L6.96027 10.7875C5.90479 15.3068 7.44963 17.8016 11.969 18.8763L13.0702 19.1325Z" fill="url(#paint1_linear_1799_31778)"></path>
  <defs>
    <linearGradient id="paint0_linear_1799_31778" x1="8.62036" y1="4.34361" x2="23.3596" y2="5.25015" gradientUnits="userSpaceOnUse">
      <stop stop-color="#FFCA41"></stop>
      <stop offset="1" stop-color="#FFDA7A"></stop>
    </linearGradient>
    <linearGradient id="paint1_linear_1799_31778" x1="8.04634" y1="5.48181" x2="8.04634" y2="20.6152" gradientUnits="userSpaceOnUse">
      <stop stop-color="#FF8B20"></stop>
      <stop offset="1" stop-color="#FDB572"></stop>
    </linearGradient>
  </defs>
</svg>
