<?xml version="1.0" encoding="UTF-8"?>
<svg xmlns="http://www.w3.org/2000/svg" width="17" height="17" viewBox="0 0 17 17" fill="none">
  <path d="M6.71974 6.60245L7.73381 3.9661L6.35267 0.375362C6.26566 0.149207 6.04837 0 5.80608 0H2.05869C1.86578 0 1.68516 0.0950277 1.57594 0.254075C1.46673 0.413122 1.44281 0.615763 1.5121 0.795864L4.24215 7.89348C4.94454 7.28378 5.7896 6.8345 6.71974 6.60245Z" fill="#FFCA41"></path>
  <path d="M15.4241 0.254075C15.3149 0.0950277 15.1343 0 14.9414 0H11.1939C10.9517 0 10.7344 0.149207 10.6474 0.375362L8.31995 6.42613C10.0014 6.46686 11.5135 7.20265 12.5799 8.35626L15.4879 0.795807C15.5572 0.615763 15.5334 0.413122 15.4241 0.254075Z" fill="#FFCA41"></path>
  <path d="M8.17251 17C10.6979 17 12.7452 14.9527 12.7452 12.4273C12.7452 9.90186 10.6979 7.85458 8.17251 7.85458C5.64707 7.85458 3.59979 9.90186 3.59979 12.4273C3.59979 14.9527 5.64707 17 8.17251 17Z" fill="#FF8B20"></path>
  <path d="M7.81959 10.4708C7.93933 10.1023 8.46069 10.1023 8.58043 10.4708L8.89601 11.442C8.94956 11.6068 9.10314 11.7184 9.27643 11.7184H10.2976C10.6851 11.7184 10.8462 12.2143 10.5328 12.442L9.70658 13.0423C9.56638 13.1441 9.50772 13.3247 9.56127 13.4895L9.87684 14.4607C9.99658 14.8293 9.57479 15.1357 9.2613 14.9079L8.43513 14.3077C8.29493 14.2058 8.10509 14.2058 7.9649 14.3077L7.13872 14.9079C6.82524 15.1357 6.40345 14.8293 6.52319 14.4607L6.83876 13.4895C6.89231 13.3247 6.83364 13.1441 6.69345 13.0423L5.86727 12.442C5.55379 12.2143 5.7149 11.7184 6.10239 11.7184H7.1236C7.29689 11.7184 7.45047 11.6068 7.50402 11.442L7.81959 10.4708Z" fill="white"></path>
</svg>
