<?xml version="1.0" encoding="UTF-8"?>
<svg xmlns="http://www.w3.org/2000/svg" width="17" height="17" viewBox="0 0 17 17" fill="none">
  <g clip-path="url(#clip0_28_215)">
    <path d="M17 4.4791V6.24551C16.7576 5.96992 16.399 5.79395 16.0039 5.79395H15.6387V4.9373C15.6387 4.4791 15.2668 4.10723 14.8086 4.10723H2.85547C2.45039 4.10723 2.11172 4.39941 2.03867 4.78457C1.65352 4.8543 1.36133 5.19297 1.36133 5.60137V5.79395H0.996094C0.600977 5.79395 0.242383 5.96992 0 6.24551V2.60645C0 2.05527 0.444922 1.61035 0.996094 1.61035H5.09336C5.52168 1.61035 5.93672 1.7498 6.28203 2.00215L7.73965 3.08789C8.08496 3.34355 8.5 3.47969 8.92832 3.47969H16.0039C16.5551 3.47969 17 3.92793 17 4.4791ZM14.9746 5.60137V5.79395H15.3066V4.9373C15.3066 4.66172 15.0842 4.43926 14.8086 4.43926H2.85547C2.63965 4.43926 2.45371 4.57871 2.3873 4.77129H14.1445C14.6027 4.77129 14.9746 5.14316 14.9746 5.60137ZM14.6426 5.79395V5.60137C14.6426 5.32578 14.4201 5.10332 14.1445 5.10332H2.19141C1.91582 5.10332 1.69336 5.32578 1.69336 5.60137V5.79395H14.6426ZM0 7.12207V14.3936C0 14.9447 0.444922 15.3896 0.996094 15.3896H16.0039C16.5551 15.3896 17 14.9447 17 14.3936V7.12207C17 6.5709 16.5551 6.12598 16.0039 6.12598H0.996094C0.444922 6.12598 0 6.5709 0 7.12207Z" fill="url(#paint0_linear_28_215)"></path>
  </g>
  <path d="M14.6426 5.79394V5.60136C14.6426 5.32578 14.4201 5.10332 14.1445 5.10332H2.19141C1.91582 5.10332 1.69336 5.32578 1.69336 5.60136V5.79394H14.6426Z" fill="#838DA7"></path>
  <path d="M14.9746 5.60136V5.79394H15.3066V4.9373C15.3066 4.66172 15.0842 4.43925 14.8086 4.43925H2.85546C2.63964 4.43925 2.4537 4.57871 2.3873 4.77129H14.1445C14.6027 4.77129 14.9746 5.14316 14.9746 5.60136Z" fill="#434C62"></path>
  <defs>
    <linearGradient id="paint0_linear_28_215" x1="8.5" y1="1.61035" x2="8.5" y2="15.3896" gradientUnits="userSpaceOnUse">
      <stop stop-color="#FF8B20"></stop>
      <stop offset="1" stop-color="#FDB572"></stop>
    </linearGradient>
    <clipPath id="clip0_28_215">
      <rect y="1.61035" width="17" height="13.7793" rx="3" fill="white"></rect>
    </clipPath>
  </defs>
</svg>
