<?xml version="1.0" encoding="UTF-8"?>
<svg xmlns="http://www.w3.org/2000/svg" width="24" height="23" viewBox="0 0 24 23" fill="none">
  <path fill-rule="evenodd" clip-rule="evenodd" d="M5.27926 2.59393C4.30119 2.59393 3.49463 3.39991 3.49463 4.37799V9.13489C3.49463 10.113 4.30119 10.9189 5.27926 10.9189H10.0356C11.0137 10.9189 11.8202 10.113 11.8202 9.13489V4.37799C11.8202 3.39991 11.0137 2.59393 10.0356 2.59393H5.27926ZM14.7942 2.59393C13.8162 2.59393 13.0102 3.39991 13.0102 4.37799V9.13489C13.0102 10.113 13.8162 10.9189 14.7942 10.9189H19.5505C20.5286 10.9189 21.3352 10.113 21.3352 9.13489V4.37799C21.3352 3.39991 20.5286 2.59393 19.5505 2.59393H14.7942ZM5.27926 12.1089C4.30119 12.1089 3.49463 12.9155 3.49463 13.8935V18.6498C3.49463 19.6279 4.30119 20.4345 5.27926 20.4345H10.0356C11.0137 20.4345 11.8202 19.6279 11.8202 18.6498V13.8935C11.8202 12.9155 11.0137 12.1089 10.0356 12.1089H5.27926Z" fill="#FF8B20"></path>
  <path fill-rule="evenodd" clip-rule="evenodd" d="M17.1713 12.1089C14.8793 12.1089 13.0103 13.9808 13.0103 16.2728C13.0103 18.5649 14.8793 20.4345 17.1713 20.4345C19.4633 20.4345 21.3353 18.5649 21.3353 16.2728C21.3353 13.9808 19.4633 12.1089 17.1713 12.1089Z" fill="#FFCA41"></path>
</svg>
