<?xml version="1.0" encoding="UTF-8"?>
<svg xmlns="http://www.w3.org/2000/svg" width="24" height="23" viewBox="0 0 24 23" fill="none">
  <path d="M8.43166 7.05461C7.03663 8.95248 6.06119 10.7577 5.68769 11.5547C5.58392 11.7762 5.35837 11.9144 5.11389 11.9068L4.49903 11.8876C3.02142 11.8424 2.34549 10.0156 3.44138 9.0196L5.70953 6.95715C6.32669 6.39626 7.11735 6.09306 7.9252 6.07981C8.43208 6.0715 8.7319 6.6461 8.43166 7.05461ZM17.8196 15.9747C17.828 15.4661 17.2516 15.1689 16.8419 15.4702C14.9179 16.8855 13.1275 17.843 12.3459 18.21C12.1241 18.3142 11.985 18.5396 11.9926 18.7845L12.0118 19.4004C12.0571 20.8801 13.8855 21.5525 14.8798 20.458L16.9423 18.1899C17.503 17.5728 17.8062 16.7824 17.8196 15.9747ZM18.0179 13.5839C17.1331 14.3422 16.2221 15.0225 15.27 15.6423C15.0543 15.7827 14.7694 15.752 14.5874 15.57L8.32941 9.31203C8.14742 9.13004 8.11666 8.84511 8.25709 8.6294C8.93696 7.58504 9.61407 6.70027 10.3684 5.82024C12.9201 2.86437 16.8536 1.47854 20.7028 2.1784L21.1472 2.25885C21.3981 2.30443 21.595 2.50133 21.6406 2.75224L21.721 3.1966C22.3941 6.89425 21.1692 10.8653 18.0179 13.5839ZM17.472 6.42737C16.4419 5.3973 14.766 5.3973 13.7359 6.42737C12.7055 7.45744 12.7055 9.13375 13.7359 10.1634C14.7652 11.1934 16.4415 11.1939 17.472 10.1634C18.5021 9.13379 18.5021 7.45744 17.472 6.42737ZM7.88816 10.6043C7.62901 10.3452 7.19139 10.4091 7.02074 10.7334C6.9034 10.9564 6.79285 11.1734 6.68172 11.4C6.30704 12.1626 6.45896 13.0828 7.06326 13.6866L10.2129 16.8362C10.5959 17.2192 11.1062 17.4211 11.6237 17.4211C12.1659 17.4211 12.4861 17.2364 13.166 16.8787C13.4903 16.708 13.5542 16.2704 13.2951 16.0113L7.88816 10.6043Z" fill="#FF8B20"></path>
  <path d="M4.70789 16.3341L5.50157 15.5404C5.74095 15.3011 5.74095 14.913 5.50157 14.6736C5.26223 14.4343 4.87414 14.4343 4.6348 14.6736L3.84112 15.4673C3.45376 15.8546 3.73352 16.5136 4.27449 16.5136C4.43139 16.5136 4.58822 16.4538 4.70789 16.3341ZM8.46258 20.0888L9.25623 19.2951C9.49557 19.0558 9.49557 18.6677 9.25623 18.4283C9.01688 18.1889 8.62884 18.189 8.38946 18.4283L7.59581 19.222C7.20845 19.6094 7.48825 20.2683 8.02922 20.2683C8.18605 20.2683 8.34291 20.2085 8.46258 20.0888ZM5.22251 19.5437L7.91744 16.8487C8.15682 16.6094 8.15682 16.2213 7.91744 15.9819C7.6781 15.7426 7.29005 15.7426 7.05067 15.9819L4.35574 18.6769C3.96838 19.0642 4.24813 19.7232 4.7891 19.7232C4.94597 19.7232 5.10284 19.6634 5.22251 19.5437Z" fill="#FFCA41"></path>
</svg>
