<?xml version="1.0" encoding="UTF-8"?>
<svg xmlns="http://www.w3.org/2000/svg" width="80" height="80" viewBox="0 0 80 80" fill="none">
  <g clip-path="url(#clip0_3971_4039)">
    <path d="M68.2842 11.7158C61.0456 4.47703 51.0456 0 40 0C28.9544 0 18.9544 4.47703 11.7158 11.7158C4.47703 18.9542 0 28.9542 0 40C0 51.0456 4.47703 61.0456 11.7158 68.2842C18.9545 75.5228 28.9544 80 40 80C51.0456 80 61.0456 75.523 68.2842 68.2842C75.5228 61.0455 80 51.0456 80 40C80 28.9542 75.523 18.9542 68.2842 11.7158Z" fill="url(#paint0_linear_3971_4039)"></path>
    <path d="M40 7.24341C58.0622 7.24341 72.7565 21.9379 72.7565 40C72.7565 58.062 58.0622 72.7565 40 72.7565C21.9378 72.7565 7.24341 58.0622 7.24341 40C7.24341 21.9378 21.9379 7.24341 40 7.24341Z" fill="#FEF3D8"></path>
    <path d="M40 13.1992C39.3333 13.1992 38.7928 13.7395 38.7928 14.4064V19.0744C38.7928 19.7412 39.3333 20.2816 40 20.2816C40.6667 20.2816 41.2072 19.7412 41.2072 19.0744V14.4064C41.2072 13.7395 40.6667 13.1992 40 13.1992Z" fill="#2C3449"></path>
    <path d="M40 59.7183C39.3333 59.7183 38.7928 60.2586 38.7928 60.9255V65.5934C38.7928 66.2603 39.3333 66.8006 40 66.8006C40.6667 66.8006 41.2072 66.2603 41.2072 65.5934V60.9255C41.2072 60.2586 40.6667 59.7183 40 59.7183Z" fill="#2C3449"></path>
    <path d="M65.5936 38.7927H60.9256C60.2589 38.7927 59.7184 39.333 59.7184 39.9999C59.7184 40.6668 60.2589 41.2071 60.9256 41.2071H65.5936C66.2603 41.2071 66.8008 40.6668 66.8008 39.9999C66.8008 39.333 66.2603 38.7927 65.5936 38.7927Z" fill="#2C3449"></path>
    <path d="M20.2817 39.9999C20.2817 39.333 19.7413 38.7927 19.0745 38.7927H14.4064C13.7397 38.7927 13.1992 39.333 13.1992 39.9999C13.1992 40.6668 13.7397 41.2071 14.4064 41.2071H19.0744C19.7411 41.2071 20.2817 40.6668 20.2817 39.9999Z" fill="#2C3449"></path>
    <path d="M28.2487 17.2318C27.9153 16.6545 27.1769 16.457 26.5997 16.7899C26.0223 17.1234 25.8245 17.8616 26.1578 18.439L27.687 21.0877C27.9106 21.4751 28.3164 21.6915 28.7336 21.6915C28.9383 21.6915 29.1459 21.6393 29.3361 21.5296C29.9134 21.1963 30.1112 20.4579 29.778 19.8805L28.2487 17.2318Z" fill="#2C3449"></path>
    <path d="M52.3131 58.9123C51.9797 58.3348 51.2414 58.1373 50.6641 58.4704C50.0867 58.8039 49.8889 59.5422 50.2222 60.1195L51.7514 62.7683C51.975 63.1556 52.3808 63.372 52.798 63.372C53.0027 63.372 53.2103 63.3198 53.4005 63.2101C53.9778 62.8767 54.1756 62.1384 53.8423 61.5611L52.3131 58.9123Z" fill="#2C3449"></path>
    <path d="M59.517 29.9399C59.7217 29.9399 59.9294 29.8877 60.1195 29.778L62.7683 28.2488C63.3456 27.9154 63.5435 27.1771 63.2102 26.5998C62.8767 26.0223 62.1384 25.8249 61.5611 26.1579L58.9124 27.6871C58.335 28.0204 58.1372 28.7588 58.4705 29.3362C58.6942 29.7233 59.1 29.9399 59.517 29.9399Z" fill="#2C3449"></path>
    <path d="M19.8803 50.2223L17.2316 51.7515C16.6542 52.0849 16.4564 52.8232 16.7897 53.4005C17.0133 53.7879 17.4191 54.0043 17.8363 54.0043C18.0409 54.0043 18.2486 53.9521 18.4388 53.8424L21.0875 52.3132C21.6649 51.9798 21.8627 51.2415 21.5294 50.6641C21.1961 50.0865 20.4577 49.889 19.8803 50.2223Z" fill="#2C3449"></path>
    <path d="M21.0875 27.687L18.4388 26.1578C17.8613 25.8245 17.123 26.0221 16.7897 26.5996C16.4563 27.177 16.6542 27.9154 17.2316 28.2487L19.8803 29.7779C20.0705 29.8878 20.2781 29.9398 20.4828 29.9398C20.9 29.9398 21.3058 29.7232 21.5294 29.3361C21.8628 28.7587 21.665 28.0204 21.0875 27.687Z" fill="#2C3449"></path>
    <path d="M62.7683 51.7513L60.1196 50.2221C59.5422 49.8885 58.8038 50.0865 58.4705 50.664C58.1371 51.2413 58.335 51.9798 58.9124 52.3131L61.5611 53.8423C61.7513 53.9521 61.9589 54.0042 62.1636 54.0042C62.5808 54.0042 62.9866 53.7876 63.2102 53.4004C63.5436 52.8231 63.3458 52.0848 62.7683 51.7513Z" fill="#2C3449"></path>
    <path d="M53.4005 16.7899C52.8231 16.4565 52.0847 16.6543 51.7514 17.2318L50.2222 19.8805C49.8888 20.4579 50.0867 21.1963 50.6641 21.5296C50.8542 21.6395 51.0619 21.6915 51.2666 21.6915C51.6838 21.6915 52.0895 21.4749 52.3131 21.0877L53.8424 18.439C54.1756 17.8616 53.9778 17.1234 53.4005 16.7899Z" fill="#2C3449"></path>
    <path d="M29.3361 58.4706C28.7587 58.1371 28.0203 58.335 27.687 58.9125L26.1578 61.5612C25.8245 62.1386 26.0223 62.877 26.5997 63.2103C26.7898 63.3201 26.9975 63.3721 27.2022 63.3721C27.6194 63.3721 28.0251 63.1556 28.2487 62.7684L29.778 60.1196C30.1112 59.5423 29.9134 58.804 29.3361 58.4706Z" fill="#2C3449"></path>
    <path d="M56.13 38.7927H41.6096V41.2073H56.13C56.7967 41.2073 57.3372 40.6668 57.3372 40.0001C57.3374 39.3332 56.7967 38.7927 56.13 38.7927Z" fill="#2C3449"></path>
    <path d="M40 28.3701C39.3333 28.3701 38.7928 28.9106 38.7928 29.5773V38.2276H41.2073V29.5773C41.2072 28.9107 40.6667 28.3701 40 28.3701Z" fill="#2C3449"></path>
    <path d="M40 43.2193C41.778 43.2193 43.2194 41.7779 43.2194 39.9999C43.2194 38.2219 41.778 36.7805 40 36.7805C38.222 36.7805 36.7806 38.2219 36.7806 39.9999C36.7806 41.7779 38.222 43.2193 40 43.2193Z" fill="#2C3449"></path>
  </g>
  <defs>
    <linearGradient id="paint0_linear_3971_4039" x1="40" y1="0" x2="40" y2="80" gradientUnits="userSpaceOnUse">
      <stop stop-color="#FF8B20"></stop>
      <stop offset="1" stop-color="#FDB572"></stop>
    </linearGradient>
    <clipPath id="clip0_3971_4039">
      <rect width="80" height="80" fill="white"></rect>
    </clipPath>
  </defs>
</svg>
