<?xml version="1.0" encoding="UTF-8"?>
<svg xmlns="http://www.w3.org/2000/svg" width="100" height="100" viewBox="0 0 100 100" fill="none">
  <path d="M79.4239 39.1591L42.1277 76.4559C40.4419 78.1411 37.7094 78.1411 36.0242 76.4559L14.0765 54.5082C12.3913 52.8224 12.3913 50.0899 14.0765 48.4047L51.3727 11.1079C53.0585 9.4227 55.7911 9.4227 57.4762 11.1079L79.4239 33.0555C81.1097 34.7407 81.1097 37.4739 79.4239 39.1591Z" fill="url(#paint0_linear_3971_3963)"></path>
  <path d="M21.2481 52.9731C20.9478 52.9731 20.6481 52.8584 20.4193 52.6295C19.9615 52.1717 19.9615 51.4301 20.4193 50.9724L38.6877 32.7039C39.1455 32.2462 39.8877 32.2462 40.3448 32.7039C40.8026 33.1617 40.8026 33.9039 40.3448 34.361L22.0764 52.6301C21.8475 52.8584 21.5478 52.9731 21.2481 52.9731Z" fill="#2C3449"></path>
  <path d="M27.0538 58.7788C26.7535 58.7788 26.4538 58.664 26.2249 58.4352C25.7672 57.9774 25.7672 57.2358 26.2249 56.778L44.4934 38.5096C44.9511 38.0518 45.6933 38.0518 46.1505 38.5096C46.6082 38.9673 46.6082 39.7095 46.1505 40.1667L27.882 58.4352C27.6531 58.664 27.3535 58.7788 27.0538 58.7788Z" fill="#2C3449"></path>
  <path d="M50.7636 19.6088L47.1088 23.263C45.672 24.6998 45.672 27.0289 47.1088 28.4657C48.5455 29.9024 50.8753 29.9024 52.312 28.4657L55.9662 24.8115C57.403 23.3747 57.403 21.0456 55.9662 19.6088C54.5294 18.1721 52.1997 18.1721 50.7636 19.6088Z" fill="url(#paint1_linear_3971_3963)"></path>
  <path d="M82.9456 50.1733H30.2001C27.8167 50.1733 25.8843 52.1057 25.8843 54.4891V85.528C25.8843 87.9114 27.8167 89.8438 30.2001 89.8438H82.9456C85.3296 89.8438 87.2614 87.9114 87.2614 85.528V54.4891C87.262 52.1057 85.3296 50.1733 82.9456 50.1733Z" fill="url(#paint2_linear_3971_3963)"></path>
  <path d="M25.8843 59.9243H87.262V67.381H25.8843V59.9243Z" fill="#838DA7"></path>
  <path d="M72.1766 79.2958V83.8948C72.1766 84.2506 72.4647 84.5387 72.8205 84.5387H80.1356C80.4914 84.5387 80.7795 84.2506 80.7795 83.8948V79.2958C80.7795 78.9399 80.4914 78.6519 80.1356 78.6519H72.8205C72.4647 78.6519 72.1766 78.9399 72.1766 79.2958Z" fill="white"></path>
  <path d="M50.1208 79.2958V83.8948C50.1208 84.2506 50.4095 84.5387 50.7648 84.5387H66.2372C66.593 84.5387 66.8811 84.2506 66.8811 83.8948V79.2958C66.8811 78.9399 66.593 78.6519 66.2372 78.6519H50.7648C50.4095 78.6519 50.1208 78.9399 50.1208 79.2958Z" fill="white"></path>
  <path d="M43.8141 85.7105H36.106C35.4584 85.7105 34.9341 85.1855 34.9341 84.5386C34.9341 83.891 35.4584 83.3667 36.106 83.3667H43.8141C44.4617 83.3667 44.986 83.891 44.986 84.5386C44.986 85.1855 44.4617 85.7105 43.8141 85.7105Z" fill="#2C3449"></path>
  <defs>
    <linearGradient id="paint0_linear_3971_3963" x1="46.7504" y1="9.84399" x2="46.7504" y2="77.7198" gradientUnits="userSpaceOnUse">
      <stop stop-color="#FF8B20"></stop>
      <stop offset="1" stop-color="#FDB572"></stop>
    </linearGradient>
    <linearGradient id="paint1_linear_3971_3963" x1="46.8178" y1="19.8603" x2="58.081" y2="20.6419" gradientUnits="userSpaceOnUse">
      <stop stop-color="#FFCA41"></stop>
      <stop offset="1" stop-color="#FFDA7A"></stop>
    </linearGradient>
    <linearGradient id="paint2_linear_3971_3963" x1="30.2684" y1="54.9612" x2="92.6257" y2="61.6555" gradientUnits="userSpaceOnUse">
      <stop stop-color="#FFCA41"></stop>
      <stop offset="1" stop-color="#FFDA7A"></stop>
    </linearGradient>
  </defs>
</svg>
