<?xml version="1.0" encoding="UTF-8"?>
<svg xmlns="http://www.w3.org/2000/svg" width="101" height="100" viewBox="0 0 101 100" fill="none">
  <path d="M43.6659 56.4826H30.2755C29.6086 56.4826 29.0682 55.9421 29.0682 55.2754C29.0682 54.6086 29.6086 54.0681 30.2755 54.0681H43.6657C44.3326 54.0681 44.873 54.6086 44.873 55.2754C44.873 55.9421 44.3326 56.4826 43.6659 56.4826Z" fill="#2C3449"></path>
  <path d="M59.1911 61.8586H56.2431C55.5763 61.8586 55.0359 61.3181 55.0359 60.6513C55.0359 59.9846 55.5763 59.4441 56.2431 59.4441H59.1911C59.8579 59.4441 60.3983 59.9846 60.3983 60.6513C60.3983 61.3181 59.8579 61.8586 59.1911 61.8586Z" fill="#2C3449"></path>
  <path d="M50.5858 61.8586H33.8744C33.2075 61.8586 32.6671 61.3181 32.6671 60.6513C32.6671 59.9846 33.2075 59.4441 33.8744 59.4441H50.5858C51.2527 59.4441 51.7931 59.9846 51.7931 60.6513C51.7931 61.3181 51.2527 61.8586 50.5858 61.8586Z" fill="#2C3449"></path>
  <path d="M86.4219 60.3306H84.6642C84.0879 60.3306 83.5841 60.7137 83.4279 61.269C79.0287 76.9326 64.6432 88.4175 47.5744 88.4175C27.0062 88.4175 10.3334 71.7447 10.3334 51.1765C10.3334 30.597 27.164 13.8453 47.7418 13.9354C52.6159 13.958 57.2694 14.9157 61.5302 16.6396C62.8742 17.1837 63.2219 18.927 62.1982 19.9523L57.8794 24.2694C57.0199 25.129 55.7676 25.4622 54.5941 25.1467C52.3567 24.5447 50.0034 24.2244 47.5744 24.2244C46.797 24.2244 46.0259 24.2565 45.2646 24.3225C31.3957 25.4992 20.5209 37.1741 20.6223 51.3712C20.7205 65.4493 31.4634 76.8811 45.2758 78.0336C45.9084 78.0867 46.5475 78.1173 47.1913 78.127C58.3398 78.2815 67.9575 71.6674 72.2054 62.1334C72.5821 61.2851 71.9575 60.3306 71.0303 60.3306H69.3145C66.108 60.424 64.1957 56.3998 66.2593 53.9644L74.578 43.5982C76.2666 41.4944 79.4682 41.4944 81.1567 43.5982L89.4754 53.9644C91.539 56.3998 89.6283 60.424 86.4219 60.3306Z" fill="url(#paint0_linear_3971_4023)"></path>
  <path d="M81.0779 25.1048L54.541 51.6416L51.0803 50.5148L49.5028 49.9997L47.8787 44.9792L74.4139 18.4424L80.0187 19.9619L80.294 21.3011L81.0779 25.1048Z" fill="url(#paint1_linear_3971_4023)"></path>
  <path d="M86.5576 19.6257L81.0777 25.1056L74.4147 18.4426L79.8946 12.9627C81.7343 11.123 84.7181 11.1219 86.5589 12.9627C87.478 13.8818 87.9382 15.0891 87.9382 16.2936C87.9382 17.5006 87.478 18.7052 86.5576 19.6257Z" fill="#2C3449"></path>
  <path d="M54.541 51.642L52.6385 53.5445C52.0022 54.1808 51.2051 54.6334 50.3313 54.8535L43.9892 56.4584C43.4292 56.6001 42.921 56.0921 43.0625 55.5319L44.6665 49.1887C44.8866 48.3149 45.3392 47.5176 45.9755 46.8815L47.878 44.979L54.541 51.642Z" fill="#FFE39B"></path>
  <defs>
    <linearGradient id="paint0_linear_3971_4023" x1="16.0477" y1="22.9243" x2="97.808" y2="29.0178" gradientUnits="userSpaceOnUse">
      <stop stop-color="#FFCA41"></stop>
      <stop offset="1" stop-color="#FFDA7A"></stop>
    </linearGradient>
    <linearGradient id="paint1_linear_3971_4023" x1="64.4783" y1="18.4424" x2="64.4783" y2="51.6416" gradientUnits="userSpaceOnUse">
      <stop stop-color="#FF8B20"></stop>
      <stop offset="1" stop-color="#FDB572"></stop>
    </linearGradient>
  </defs>
</svg>
