<?xml version="1.0" encoding="UTF-8"?>
<svg xmlns="http://www.w3.org/2000/svg" width="40" height="41" viewBox="0 0 40 41" fill="none">
  <path d="M27.4939 25.5701C28.5313 24.9489 29.894 25.6266 29.894 26.7562V28.5775C29.894 30.3707 28.361 32.2909 26.5183 32.8557L21.5788 34.3523C20.7116 34.6206 19.3025 34.6206 18.4509 34.3523L13.5113 32.8557C11.6532 32.2909 10.1357 30.3707 10.1357 28.5775V26.742C10.1357 25.6266 11.4983 24.9489 12.5203 25.556L15.7101 27.448C16.9334 28.1963 18.4819 28.5634 20.0303 28.5634C21.5788 28.5634 23.1272 28.1963 24.3505 27.448L27.4939 25.5701Z" fill="#FF8B20"></path>
  <path d="M32.3721 12.6086L23.0969 7.05971C21.4245 6.05724 18.6683 6.05724 16.9959 7.05971L7.67425 12.6086C4.68573 14.3735 4.68573 18.3693 7.67425 20.1483L10.1518 21.6167L16.9959 25.683C18.6683 26.6855 21.4245 26.6855 23.0969 25.683L29.8946 21.6167L32.016 20.3459V24.6664C32.016 25.2453 32.5424 25.7254 33.1773 25.7254C33.8122 25.7254 34.3386 25.2453 34.3386 24.6664V17.7198C34.958 15.8984 34.3232 13.7805 32.3721 12.6086Z" fill="#434C62"></path>
</svg>
