<?xml version="1.0" encoding="UTF-8"?>
<svg xmlns="http://www.w3.org/2000/svg" width="40" height="41" viewBox="0 0 40 41" fill="none">
  <rect x="9.33331" y="9.76392" width="20" height="21.3333" fill="white"></rect>
  <path fill-rule="evenodd" clip-rule="evenodd" d="M28.9058 8.43066H10.246C8.52843 8.43066 7.13605 9.82216 7.13605 11.5387V30.1866C7.13605 31.9031 8.52843 33.2946 10.246 33.2946H28.9058C30.6172 33.2859 32 31.897 32 30.1866V11.5387C32 9.8283 30.6172 8.43935 28.9058 8.43066ZM12.316 11.5387H16.46C17.6044 11.5387 18.532 12.4663 18.532 13.6107V28.1146C18.532 29.2589 17.6044 30.1866 16.46 30.1866H12.316C11.1717 30.1866 10.244 29.2589 10.244 28.1146V13.6107C10.244 12.4663 11.1717 11.5387 12.316 11.5387ZM26.82 11.5387H22.676C21.5317 11.5387 20.604 12.4663 20.604 13.6107V20.8626C20.604 22.007 21.5317 22.9346 22.676 22.9346H26.82C27.9643 22.9346 28.892 22.007 28.892 20.8626V13.6107C28.892 12.4663 27.9643 11.5387 26.82 11.5387Z" fill="url(#paint0_linear_375_4112)"></path>
  <defs>
    <linearGradient id="paint0_linear_375_4112" x1="19.5759" y1="33.2946" x2="19.5759" y2="8.43066" gradientUnits="userSpaceOnUse">
      <stop stop-color="#0052CC"></stop>
      <stop offset="0.51698" stop-color="#217EF8"></stop>
      <stop offset="1" stop-color="#2684FF"></stop>
    </linearGradient>
  </defs>
</svg>
