<?xml version="1.0" encoding="UTF-8"?>
<svg xmlns="http://www.w3.org/2000/svg" width="40" height="41" viewBox="0 0 40 41" fill="none">
  <path d="M23.3334 8.43066C20.3997 8.43066 18.0215 10.7821 18.0215 13.6827C18.0215 16.5833 20.3997 18.9347 23.3334 18.9347C26.267 18.9347 28.6452 16.5833 28.6452 13.6827C28.6452 10.7821 26.267 8.43066 23.3334 8.43066Z" fill="#FF8B20"></path>
  <path d="M19.9785 20.5933C17.0449 20.5933 14.6667 22.9447 14.6667 25.8453C14.6667 28.7459 17.0449 31.0973 19.9785 31.0973H26.6882C29.6218 31.0973 32 28.7459 32 25.8453C32 22.9447 29.6218 20.5933 26.6882 20.5933H19.9785Z" fill="#FF8B20"></path>
  <path d="M15.3334 7.93066C12.1289 7.93066 9.52153 10.5006 9.52153 13.6827C9.52153 16.8648 12.1289 19.4347 15.3334 19.4347C18.5378 19.4347 21.1452 16.8648 21.1452 13.6827C21.1452 10.5006 18.5378 7.93066 15.3334 7.93066ZM11.9785 20.0933C8.77408 20.0933 6.16669 22.6632 6.16669 25.8453C6.16669 29.0274 8.77408 31.5973 11.9785 31.5973H18.6882C21.8926 31.5973 24.5 29.0274 24.5 25.8453C24.5 22.6632 21.8926 20.0933 18.6882 20.0933H11.9785Z" fill="#434C62" stroke="#FEF3D8"></path>
</svg>
