<?xml version="1.0" encoding="UTF-8"?>
<svg xmlns="http://www.w3.org/2000/svg" width="130" height="34" viewBox="0 0 130 34" fill="none">
  <path d="M42.3992 3.64404H46.7324V30.345H42.3992V3.64404Z" fill="#838DA7"></path>
  <path d="M61.7995 21.8833C61.7995 26.0179 58.4089 26.3976 57.2788 26.3976C54.6435 26.3976 54.2632 23.9532 54.2632 22.6374V12.293H49.9299V22.4449C49.9299 24.8893 50.6852 27.1464 52.1903 28.4622C53.5079 29.778 55.2059 30.345 57.2734 30.345C58.7785 30.345 60.6639 29.9706 61.7941 28.842V30.345H66.1273V12.293H61.7941C61.7995 12.293 61.7995 21.8833 61.7995 21.8833Z" fill="#838DA7"></path>
  <path d="M74.6012 5.71387H70.268V12.2928H67.0649V16.4274H70.268V30.3448H74.6012V16.4328H77.8043V12.2982H74.6012V5.71387Z" fill="#838DA7"></path>
  <path d="M91.3611 24.8945C90.4184 25.6487 89.1007 26.2103 87.7831 26.2103C84.7675 26.2103 82.7 23.9532 82.7 20.9472C82.7 17.9358 84.7729 15.8712 87.7831 15.8712C89.1007 15.8712 90.4184 16.2456 91.3611 17.187L91.9235 17.7486L94.9391 14.9298L94.1839 14.3682C92.4913 12.8652 90.2309 11.9238 87.7831 11.9238C82.5125 11.9238 78.5542 15.8712 78.5542 21.1397C78.5542 26.4082 82.5071 30.3556 87.7831 30.3556C90.2309 30.3556 92.4913 29.4142 94.1839 27.9112L94.9391 27.3496L91.9235 24.3383L91.3611 24.8945Z" fill="#838DA7"></path>
  <path d="M110.194 13.8013C108.876 12.4855 107.558 11.9186 105.486 11.9186C103.98 11.9186 102.47 12.293 101.345 13.4216V3.64404H97.012V30.345H101.345V20.3803C101.345 16.2457 104.168 15.8659 105.298 15.8659C107.933 15.8659 107.746 18.3103 107.746 19.6261V30.1578H112.079V19.8187C112.074 17.3743 111.511 15.1171 110.194 13.8013Z" fill="#838DA7"></path>
  <path d="M87.5957 24.1457C89.2611 24.1457 90.6113 22.7975 90.6113 21.1344C90.6113 19.4713 89.2611 18.123 87.5957 18.123C85.9302 18.123 84.5801 19.4713 84.5801 21.1344C84.5801 22.7975 85.9302 24.1457 87.5957 24.1457Z" fill="#B0B7C9"></path>
  <path d="M36.3733 23.766C34.8682 25.269 32.6078 26.2103 30.16 26.2103C25.4518 26.2103 22.0613 22.4502 22.0613 17.3742C22.0613 12.2983 25.4518 8.53809 30.3475 8.53809C32.6078 8.53809 34.8682 9.47947 36.5608 11.1697L37.1232 11.7313L39.9459 8.91251L39.3835 8.35089C36.9357 5.90651 33.7327 4.59072 30.3421 4.59072C23.1915 4.39817 17.9209 10.0411 17.9209 17.3742C17.9209 24.7073 23.1915 30.3449 30.16 30.3449C33.5505 30.3449 36.9411 29.0291 39.2014 26.5848L39.7638 26.0231L36.9411 23.2043L36.3733 23.766Z" fill="#838DA7"></path>
</svg>
