<svg width="30" height="30" viewBox="0 0 30 30" fill="none" xmlns="http://www.w3.org/2000/svg">
<g clip-path="url(#clip0_6172_1082)">
<path d="M18.5683 1.42638L11.5873 0.324906C5.7674 -0.583063 3.07326 1.38172 2.15041 7.20166L1.04894 14.1826C0.45355 17.9931 1.07871 20.464 3.237 21.9673C4.36824 22.7711 5.91625 23.307 7.92569 23.6195L14.9066 24.721C20.7266 25.629 23.4207 23.6642 24.3436 17.8443L25.4302 10.8633C25.6088 9.71718 25.6832 8.69013 25.6237 7.78216C25.4302 4.06098 23.2421 2.15573 18.5683 1.42638ZM10.1584 11.0568C8.41689 11.0568 7.00284 9.64276 7.00284 7.91613C7.00284 6.17461 8.41689 4.76056 10.1584 4.76056C11.885 4.76056 13.2991 6.17461 13.2991 7.91613C13.2991 9.64276 11.885 11.0568 10.1584 11.0568Z" fill="#161B26"/>
<path d="M28.4081 17.1892L26.1753 23.9023C24.3148 29.4989 21.3378 30.9874 15.7411 29.1268L9.02812 26.8941C6.92937 26.1945 5.41113 25.3312 4.42874 24.2446C5.36647 24.6167 6.45306 24.8995 7.68849 25.093L14.6843 26.1945C15.6369 26.3434 16.53 26.4178 17.3636 26.4178C22.2755 26.4178 24.9101 23.7683 25.8181 18.0674L26.9047 11.0865C27.0535 10.2232 27.1131 9.46406 27.1131 8.76447C29.3756 10.6251 29.703 13.2746 28.4081 17.1892Z" fill="#161B26"/>
</g>
<defs>
<clipPath id="clip0_6172_1082">
<rect width="30" height="30" rx="6" fill="white"/>
</clipPath>
</defs>
</svg>
