<svg width="214" height="56" viewBox="0 0 214 56" fill="none" xmlns="http://www.w3.org/2000/svg">
<g clip-path="url(#clip0_6185_6657)">
<path d="M73.0453 34.5861C70.5727 34.5861 68.2557 33.5423 66.1507 31.843L66.6633 29.4442L66.6856 29.3553C67.142 26.8012 68.59 22.5141 73.0453 22.5141C76.3865 22.5141 79.1043 25.2241 79.1043 28.5556C79.093 31.8762 76.3755 34.5861 73.0453 34.5861ZM73.0453 16.395C67.3536 16.395 62.9432 20.0821 61.1502 26.1458C58.4101 22.0478 56.3383 17.1281 55.1245 12.9855H48.9986V28.8777C48.9986 32.0095 46.4368 34.5636 43.2959 34.5636C40.155 34.5636 37.5935 32.0095 37.5935 28.8777V12.9855H31.467V28.8777C31.4448 35.3858 36.7576 40.7275 43.2843 40.7275C49.8113 40.7275 55.1242 35.3858 55.1242 28.8777V26.2125C56.3158 28.6889 57.7748 31.1876 59.5458 33.4089L55.7922 51.0001H62.063L64.7805 38.2398C67.164 39.7612 69.9041 40.7165 73.045 40.7165C79.761 40.7165 85.2298 35.2303 85.2298 28.5334C85.2298 21.8478 79.7613 16.395 73.0453 16.395Z" fill="#5EC933"/>
<path d="M103.93 17.0836L107.884 32.9757L112.24 17.0836H117.43L110.736 40.0501H105.545L101.436 24.0578L97.3369 40.0388H92.1468L85.4525 17.0726H90.6429L94.9977 32.9647L98.9516 17.0726H103.93V17.0839L103.93 17.0836ZM129.848 16.395C123.11 16.395 117.652 21.8477 117.652 28.5556C117.652 35.2747 123.121 40.7164 129.848 40.7164C136.587 40.7164 142.055 35.2747 142.055 28.5556C142.055 21.8367 136.587 16.395 129.848 16.395ZM129.848 35.7188C125.883 35.7188 122.676 32.5203 122.676 28.5668C122.676 24.613 125.894 21.4148 129.848 21.4148C133.814 21.4148 137.021 24.613 137.021 28.5668C137.021 32.5093 133.814 35.7188 129.848 35.7188ZM156.88 22.2255C153.394 22.2255 150.576 25.0462 150.576 28.5111V40.0388H145.352V17.0836H150.576V20.6151C150.576 20.6151 152.804 17.0723 157.381 17.0723H158.985V22.2255H156.88ZM174.411 27.6673C178.12 25.5793 180.637 21.6145 180.637 17.0723H175.413C175.413 20.9037 172.295 24.0133 168.452 24.0133H167.75V6H162.527V40.0385H167.75V29.2219H168.374C168.887 29.2219 169.555 29.5553 169.856 29.9659L177.273 40.0388H183.533L174.411 27.6673Z" fill="black"/>
</g>
<defs>
<clipPath id="clip0_6185_6657">
<rect width="173" height="45" fill="white" transform="translate(21 6)"/>
</clipPath>
</defs>
</svg>
