<svg width="214" height="56" viewBox="0 0 214 56" fill="none" xmlns="http://www.w3.org/2000/svg">
<g clip-path="url(#clip0_6185_6723)">
<path d="M171.429 39.4039C170.921 39.9212 170.043 40.2503 169.119 40.2503C167.871 40.2503 166.854 39.1217 166.854 37.5228V25.4841H172.076V20.8755H166.854V14.4329H161.587V38.2282C161.587 42.1784 164.267 45 168.102 45C169.904 45 171.799 44.2476 173.092 43.1189L171.429 39.4039ZM53.0899 30.2337C49.5319 29.1521 48.0995 28.7289 48.0995 27.177C48.0995 25.5311 49.7168 24.5906 51.7961 24.5906C53.9217 24.5906 56.3245 25.4841 58.4963 26.8949L60.6219 23.1328C58.1266 21.4398 54.9383 20.3112 51.7961 20.3112C46.6208 20.3582 43.0628 23.3679 43.0628 27.7414C43.0628 32.0207 46.2511 33.4315 51.2416 34.7953C54.0141 35.5477 56.1859 36.1591 56.1859 38.0401C56.1859 39.686 54.7072 40.7206 52.2582 40.7206C49.7168 40.7206 46.8056 39.686 44.3104 37.852L42 41.5201C44.7725 43.7773 48.6078 45.047 52.1658 45.047C57.5259 45.047 61.2688 42.1314 61.2688 37.5698C61.2688 32.6791 57.0176 31.3624 53.0899 30.2337ZM134.462 17.3485C136.172 17.3485 137.512 15.8437 137.512 14.1508C137.512 12.4578 136.172 11 134.462 11C132.707 11 131.32 12.4578 131.32 14.1508C131.32 15.8437 132.707 17.3485 134.462 17.3485ZM137.189 20.8755H131.736V44.4357H137.189V20.8755ZM126.931 12.5989H121.478V44.4827H126.931V12.5989ZM115.425 40.2974C114.177 40.2974 113.16 39.1687 113.16 37.5698V25.4841H118.382V20.8755H113.16V14.4329H110.157C110.157 16.0788 109.649 17.5837 108.817 18.7123C107.893 19.982 106.507 20.8285 104.982 20.8285H104.242L103.411 25.5311H107.847V38.2752C107.847 42.2254 110.527 45.047 114.362 45.047C116.164 45.047 118.059 44.2946 119.352 43.166L117.781 39.4039C117.227 39.9212 116.349 40.2974 115.425 40.2974ZM94.8621 25.8603V20.8755H89.4095V44.4357H94.8621V33.0553C94.8621 28.5878 97.4035 25.5311 101.84 25.5311L102.717 20.8755C97.727 20.8285 96.3407 22.8036 94.8621 25.8603ZM74.7153 20.3582C67.8765 20.3582 62.2392 25.8603 62.2392 32.6791C62.2392 39.4979 67.8303 45.047 74.7153 45.047C81.5079 45.047 87.0991 39.4979 87.0991 32.6791C87.0991 25.8603 81.5079 20.3582 74.7153 20.3582ZM74.7153 40.2974C70.8339 40.2974 67.6455 36.8645 67.6455 32.6791C67.6455 28.4938 70.8339 25.1079 74.7153 25.1079C78.5506 25.1079 81.6928 28.4938 81.6928 32.6791C81.6928 36.8645 78.5506 40.2974 74.7153 40.2974ZM151.144 30.2337C147.586 29.1521 146.153 28.7289 146.153 27.177C146.153 25.5311 147.77 24.5906 149.85 24.5906C151.975 24.5906 154.378 25.4841 156.55 26.8949L158.675 23.1328C156.18 21.4398 152.992 20.3112 149.85 20.3112C144.674 20.3112 141.116 23.3209 141.116 27.6943C141.116 31.9737 144.305 33.3845 149.295 34.7483C152.068 35.5007 154.24 36.112 154.24 37.9931C154.24 39.639 152.761 40.6736 150.312 40.6736C147.77 40.6736 144.859 39.639 142.364 37.805L140.054 41.473C142.826 43.7303 146.661 45 150.219 45C155.58 45 159.322 42.0844 159.322 37.5228C159.322 32.6791 155.071 31.3624 151.144 30.2337Z" fill="#0F0D0A"/>
</g>
<defs>
<clipPath id="clip0_6185_6723">
<rect width="131" height="34" fill="white" transform="translate(42 11)"/>
</clipPath>
</defs>
</svg>
