<svg width="31" height="30" viewBox="0 0 31 30" fill="none" xmlns="http://www.w3.org/2000/svg">
<path d="M21.3611 1.57898H10.1086C5.22095 1.57898 2.30713 4.49135 2.30713 9.37661V20.61C2.30713 25.5087 5.22095 28.4211 10.1086 28.4211H21.3477C26.2354 28.4211 29.1492 25.5087 29.1492 20.6235V9.37661C29.1626 4.49135 26.2488 1.57898 21.3611 1.57898ZM13.2239 18.3553C13.6133 18.7445 13.6133 19.3887 13.2239 19.7779C13.0225 19.9792 12.7673 20.0732 12.5122 20.0732C12.2571 20.0732 12.002 19.9792 11.8005 19.7779L8.45704 16.4361C7.6648 15.6442 7.6648 14.3692 8.45704 13.5774L11.8005 10.2356C12.1899 9.84635 12.8345 9.84635 13.2239 10.2356C13.6133 10.6248 13.6133 11.269 13.2239 11.6582L9.88038 15L13.2239 18.3553ZM23.0127 16.4227L19.6692 19.7645C19.4678 19.9658 19.2127 20.0598 18.9575 20.0598C18.7024 20.0598 18.4473 19.9658 18.2459 19.7645C17.8565 19.3753 17.8565 18.7311 18.2459 18.3419L21.5894 15L18.2459 11.6448C17.8565 11.2556 17.8565 10.6113 18.2459 10.2221C18.6353 9.83293 19.2798 9.83293 19.6692 10.2221L23.0127 13.564C23.8049 14.3558 23.8049 15.6442 23.0127 16.4227Z" fill="white"/>
</svg>
