<svg width="30" height="30" viewBox="0 0 30 30" fill="none" xmlns="http://www.w3.org/2000/svg">
<path d="M18.5684 1.42638L11.5875 0.324906C5.76753 -0.583063 3.07339 1.38172 2.15053 7.20166L1.04906 14.1826C0.453672 17.9931 1.07883 20.464 3.23712 21.9673C4.36836 22.7711 5.91637 23.307 7.92581 23.6195L14.9068 24.721C20.7267 25.629 23.4208 23.6642 24.3437 17.8443L25.4303 10.8633C25.6089 9.71718 25.6833 8.69013 25.6238 7.78216C25.4303 4.06098 23.2422 2.15573 18.5684 1.42638ZM10.1585 11.0568C8.41701 11.0568 7.00296 9.64276 7.00296 7.91613C7.00296 6.17461 8.41701 4.76056 10.1585 4.76056C11.8852 4.76056 13.2992 6.17461 13.2992 7.91613C13.2992 9.64276 11.8852 11.0568 10.1585 11.0568Z" fill="white"/>
<path d="M28.4082 17.1892L26.1755 23.9023C24.3149 29.4989 21.3379 30.9874 15.7413 29.1268L9.02824 26.8941C6.9295 26.1945 5.41125 25.3312 4.42886 24.2446C5.3666 24.6167 6.45318 24.8995 7.68862 25.093L14.6844 26.1945C15.6371 26.3434 16.5302 26.4178 17.3637 26.4178C22.2757 26.4178 24.9103 23.7683 25.8182 18.0674L26.9048 11.0865C27.0537 10.2232 27.1132 9.46406 27.1132 8.76447C29.3757 10.6251 29.7032 13.2746 28.4082 17.1892Z" fill="white"/>
</svg>
