<?xml version="1.0" encoding="UTF-8"?>
<svg xmlns="http://www.w3.org/2000/svg" width="31" height="30" viewBox="0 0 31 30" fill="none">
  <path d="M21.6941 1.57892H10.4417C5.55396 1.57892 2.64014 4.49129 2.64014 9.37655V20.61C2.64014 25.5087 5.55396 28.421 10.4417 28.421H21.6807C26.5684 28.421 29.4822 25.5087 29.4822 20.6234V9.37655C29.4956 4.49129 26.5818 1.57892 21.6941 1.57892ZM14.0403 21.3347C13.5837 21.791 12.9795 22.0997 12.241 22.1937L10.4282 22.395C9.43458 22.5023 8.58863 21.6568 8.69605 20.6502L8.89747 18.825C9.07203 17.201 10.4282 16.1676 11.865 16.1408C11.9993 16.1273 12.1604 16.1408 12.3081 16.1542C12.9392 16.2347 13.5435 16.53 14.0537 17.0266C14.5505 17.5231 14.8325 18.1137 14.9131 18.7176C14.9265 18.8652 14.9399 19.0129 14.9399 19.1471C14.9399 19.9792 14.6311 20.7442 14.0403 21.3347ZM23.3726 9.0276C22.4058 11.4434 20.1902 14.6108 18.082 16.6776C17.7732 14.7718 16.2559 13.2687 14.3223 13.0002C16.3901 10.8797 19.586 8.63839 22.0164 7.65866C22.4461 7.4976 22.8757 7.61839 23.1443 7.88681C23.4129 8.18208 23.5471 8.59813 23.3726 9.0276Z" fill="#161B26"></path>
</svg>
