<?xml version="1.0" encoding="UTF-8"?>
<svg xmlns="http://www.w3.org/2000/svg" width="231" height="60" viewBox="0 0 231 60" fill="none">
  <path d="M75.3888 6.43091H83.0553V53.5502H75.3888V6.43091Z" fill="#17313B"></path>
  <path d="M109.713 38.6178C109.713 45.9141 103.714 46.5843 101.715 46.5843C97.0521 46.5843 96.3793 42.2707 96.3793 39.9487V21.6937H88.7128V39.6089C88.7128 43.9225 90.049 47.9057 92.7119 50.2277C95.0431 52.5497 98.0471 53.5502 101.705 53.5502C104.368 53.5502 107.704 52.8895 109.703 50.8979V53.5502H117.37V21.6937H109.703C109.713 21.6937 109.713 38.6178 109.713 38.6178Z" fill="#17313B"></path>
  <path d="M132.362 10.0837H124.695V21.6937H119.028V28.99H124.695V53.5502H132.362V28.9994H138.029V21.7031H132.362V10.0837Z" fill="#17313B"></path>
  <path d="M162.014 43.9318C160.346 45.2627 158.015 46.2538 155.683 46.2538C150.348 46.2538 146.69 42.2706 146.69 36.9659C146.69 31.6518 150.358 28.0083 155.683 28.0083C158.015 28.0083 160.346 28.669 162.014 30.3303L163.009 31.3214L168.344 26.3471L167.008 25.356C164.013 22.7036 160.014 21.0424 155.683 21.0424C146.359 21.0424 139.355 28.0083 139.355 37.3057C139.355 46.6031 146.349 53.569 155.683 53.569C160.014 53.569 164.013 51.9078 167.008 49.2554L168.344 48.2643L163.009 42.9502L162.014 43.9318Z" fill="#17313B"></path>
  <path d="M195.333 24.3555C193.002 22.0335 190.671 21.033 187.003 21.033C184.34 21.033 181.668 21.6937 179.678 23.6853V6.43091H172.011V53.5502H179.678V35.9654C179.678 28.6691 184.672 27.9989 186.672 27.9989C191.334 27.9989 191.002 32.3125 191.002 34.6345V53.2198H198.669V34.9743C198.659 30.6607 197.664 26.6775 195.333 24.3555Z" fill="#17313B"></path>
  <path d="M155.352 42.6105C158.298 42.6105 160.687 40.2312 160.687 37.2963C160.687 34.3614 158.298 31.9822 155.352 31.9822C152.405 31.9822 150.016 34.3614 150.016 37.2963C150.016 40.2312 152.405 42.6105 155.352 42.6105Z" fill="#EF4335"></path>
  <path d="M64.7278 41.9403C62.0649 44.5926 58.0658 46.2539 53.735 46.2539C45.4051 46.2539 39.4065 39.6183 39.4065 30.6607C39.4065 21.7031 45.4051 15.0675 54.0667 15.0675C58.0658 15.0675 62.0649 16.7288 65.0594 19.7115L66.0545 20.7026L71.0486 15.7283L70.0536 14.7372C65.7228 10.4236 60.0558 8.10158 54.0572 8.10158C41.4061 7.76178 32.0812 17.7199 32.0812 30.6607C32.0812 43.6015 41.4061 53.5502 53.735 53.5502C59.7336 53.5502 65.7323 51.2282 69.7313 46.9146L70.7264 45.9235L65.7323 40.9492L64.7278 41.9403Z" fill="#17313B"></path>
</svg>
