<?xml version="1.0" encoding="UTF-8"?>
<svg xmlns="http://www.w3.org/2000/svg" width="100" height="100" viewBox="0 0 100 100" fill="none">
  <path d="M92.0619 53.1322C91.9421 52.3707 91.7426 51.6239 91.4668 50.904C90.9473 49.4637 90.3201 48.0644 89.5908 46.7181C89.119 45.8757 88.6004 45.0606 88.0372 44.2764C87.0469 42.8887 85.9931 41.5373 84.896 40.2358C83.351 38.4269 81.6991 36.712 79.9492 35.1005C78.039 33.3198 76.0426 31.6299 73.9916 30.0128C72.8151 29.0755 71.6211 28.1518 70.4098 27.2418L79.7402 68.6382C79.8478 69.0836 79.7849 69.5532 79.5639 69.9546C79.3428 70.356 78.9795 70.6602 78.5455 70.8073L78.3184 70.88C78.7091 70.8368 79.0974 70.78 79.4881 70.7278C80.1659 70.6586 80.8388 70.5471 81.5027 70.3939C81.83 70.3056 82.1509 70.1956 82.4635 70.0646C83.372 69.6944 84.3373 69.3514 85.189 68.8426C86.0255 68.303 86.8238 67.7065 87.5784 67.0574C87.8572 66.8331 88.1205 66.5903 88.3665 66.3306C89.0494 65.5808 89.6786 64.7839 90.2494 63.9457C90.4522 63.659 90.6293 63.355 90.7786 63.0372C91.133 62.2945 91.4487 61.5268 91.7439 60.7659C91.8053 60.6092 91.8598 60.448 91.9075 60.2844C92.1891 59.3146 92.2641 58.2403 92.3799 57.2704C92.5412 55.8895 92.2641 54.4881 92.0619 53.1322Z" fill="#FDA843"></path>
  <path d="M28.7318 18.6563C28.8435 18.3282 29.0488 18.0399 29.3225 17.8272C29.5962 17.6145 29.9262 17.4866 30.2718 17.4594L52.4872 15.8695C50.0569 14.6135 47.5744 13.5051 45.051 12.4489C43.5048 11.7765 41.9104 11.2208 40.2813 10.7863C39.0136 10.4973 37.7283 10.2917 36.4337 10.1708C35.3909 10.1275 34.3553 10.3627 33.4334 10.8522C32.4761 11.1655 31.6157 11.7201 30.935 12.4626C30.1917 13.1426 29.637 14.0032 29.3246 14.961C28.8391 15.8839 28.6078 16.9195 28.6546 17.9613C28.6705 18.1907 28.7023 18.4224 28.7318 18.6563Z" fill="#FDA843"></path>
  <path d="M70.428 78.5364C70.069 77.238 69.3796 76.0548 68.427 75.1022L67.4571 74.3572L44.7988 81.614C43.0499 82.1727 41.192 81.0371 40.8127 79.1724L37.5739 63.3143C36.8403 62.86 36.1134 62.3785 35.3957 61.8902C34.4705 61.2618 33.562 60.6122 32.6702 59.9414C30.1851 57.9965 27.8734 55.8398 25.7609 53.4955C25.3884 53.0776 25.0296 52.6483 24.6753 52.2145C23.7836 50.9987 23.0007 49.7066 22.3358 48.3533C22.1309 47.7782 21.961 47.1911 21.8271 46.5954C21.8271 46.3319 21.8134 46.0684 21.8271 45.8027C21.8664 45.6513 21.9073 45.4999 21.9497 45.3484C22.0587 45.1554 22.1769 44.9646 22.2904 44.7783C22.5471 44.4967 22.8151 44.231 23.0945 43.9743C23.1944 43.9107 23.2989 43.8471 23.4033 43.7881C23.5487 43.7472 23.6941 43.7063 23.8417 43.6722C24.2589 43.6575 24.6767 43.6643 25.0932 43.6927C26.3125 43.9472 27.5095 44.2988 28.6727 44.7443L29.1451 44.926C30.7805 45.6664 32.3704 46.5159 33.9285 47.4062C34.0806 47.4925 34.2305 47.5856 34.3827 47.6742L30.5692 29.0043C29.9651 28.843 29.3564 28.7045 28.7522 28.6C27.3147 28.3203 25.8573 28.1548 24.3936 28.1049C24.0257 28.1049 23.6577 28.1185 23.2898 28.1457C22.2515 28.232 21.2183 28.3707 20.194 28.5614C18.8472 28.8135 17.598 29.4018 16.3533 29.9514C15.6897 30.2464 15.063 30.6184 14.4863 31.0598C13.1939 32.0387 11.9107 32.9972 10.8727 34.2396C9.90058 35.4138 8.88077 36.6494 8.22437 38.0463C7.74725 39.0201 7.33377 40.0238 6.98652 41.0512C6.85899 41.4515 6.75733 41.8597 6.68217 42.2731C6.47668 43.3553 6.33787 44.4491 6.26653 45.5483C6.24418 45.9812 6.24797 46.415 6.27788 46.8475C6.36366 47.9611 6.5077 49.0695 6.70943 50.1681C6.78892 50.6223 6.89113 51.0516 7.01151 51.4854C7.4818 53.0268 8.07578 54.5277 8.78765 55.9735C9.98234 58.5219 11.704 60.7614 13.4529 62.9509C15.003 64.862 16.7019 66.6475 18.5337 68.2907C21.0226 70.5202 23.6431 72.5984 26.381 74.514C28.6746 76.1366 31.0513 77.6384 33.5015 79.0134C35.9603 80.3976 38.4902 81.6516 41.0807 82.7701C44.1492 84.092 47.2382 85.3434 50.443 86.2906C51.6672 86.6517 52.9028 86.9719 54.1497 87.2422C55.9667 87.6397 57.8246 87.885 59.6825 88.1258C60.7546 88.2693 61.8334 88.358 62.9146 88.3915C63.9558 88.4396 64.991 88.2083 65.9127 87.7215C66.854 87.3714 67.7089 86.8225 68.4191 86.1123C69.1293 85.4022 69.6781 84.5473 70.0282 83.6059C70.5178 82.6849 70.753 81.65 70.7096 80.6078L70.428 78.5364Z" fill="#FDA843"></path>
  <path d="M75.8359 75.9744L75.8245 75.9245L75.8018 75.8291L75.7564 75.6383L75.5747 74.8751L74.8933 72.011L44.9124 81.614C43.1635 82.1728 41.3078 81.0371 40.9263 79.1724L29.4949 23.1967L25.9313 23.3874L25.1477 23.4306H24.9523H24.9024H24.8138L24.6321 23.4533C24.39 23.4996 24.1559 23.5807 23.9371 23.6941C23.511 23.9216 23.1601 24.2677 22.9267 24.6906C22.6933 25.1134 22.5874 25.5949 22.622 26.0766C22.6301 26.1917 22.6445 26.3062 22.6652 26.4196L22.7038 26.6127L22.7787 26.9965L22.9286 27.7665L23.2307 29.3064C23.6554 31.3506 24.0643 33.4083 24.5026 35.4548L25.8245 41.5872L28.4501 53.8658C30.1967 62.0424 31.9138 70.2417 33.3765 78.4865C33.7581 80.5443 34.1215 82.6043 34.5122 84.6598C34.7075 85.6864 34.9142 86.704 35.1163 87.7397L35.1935 88.1235L35.2322 88.3166C35.2458 88.3847 35.2503 88.4211 35.2867 88.5619C35.4049 89.0367 35.6553 89.4683 36.0089 89.8065C36.367 90.157 36.8205 90.394 37.3127 90.4879C37.562 90.5352 37.8173 90.5429 38.069 90.5106C38.1945 90.4973 38.3184 90.4722 38.4392 90.4357L38.5301 90.4107L38.5778 90.3948L38.6709 90.3653L41.6576 89.4L44.6353 88.4097L50.5883 86.4178L62.5012 82.4521L74.4186 78.5001C74.8222 78.3663 75.1761 78.1138 75.4338 77.7756C75.6864 77.4472 75.8386 77.0528 75.8722 76.6399C75.8912 76.4373 75.8805 76.233 75.8404 76.0335L75.8359 75.9744Z" fill="#161B26"></path>
  <path d="M79.6767 68.6382C79.7848 69.0836 79.7222 69.5534 79.501 69.955C79.2799 70.3565 78.9163 70.6606 78.482 70.8073L44.7444 81.614C42.9955 82.1727 41.1398 81.0371 40.7583 79.1724L28.6069 19.6648C28.5507 19.4132 28.5486 19.1526 28.6008 18.9001C28.653 18.6477 28.7583 18.4093 28.9098 18.2007C29.0612 17.9921 29.2553 17.8181 29.4792 17.6903C29.7031 17.5625 29.9515 17.4838 30.2082 17.4594L65.9809 14.9019C66.4194 14.8769 66.8524 15.0094 67.2018 15.2755C67.5512 15.5417 67.794 15.9239 67.8865 16.3533L79.6767 68.6382Z" fill="white"></path>
  <path d="M80.4647 68.4587C80.549 68.822 80.5578 69.1988 80.4906 69.5656C80.4234 69.9325 80.2816 70.2816 80.0741 70.5915C79.8586 70.9069 79.5773 71.1719 79.2496 71.3682C79.085 71.4627 78.9106 71.5388 78.7295 71.5954L78.3615 71.718L75.4088 72.6992L69.5035 74.6593L57.6928 78.5977L51.7875 80.576L48.8348 81.5572L45.8822 82.5157L45.1417 82.7542C44.9668 82.7996 44.792 82.8541 44.6125 82.8859C44.4331 82.9178 44.2518 82.9383 44.0697 82.9472C43.3402 82.9827 42.6142 82.8261 41.9642 82.493C41.3252 82.1663 40.7737 81.6912 40.3561 81.1075C40.1543 80.8157 39.9867 80.5018 39.8565 80.1717C39.7908 80.0085 39.7369 79.8407 39.6952 79.6698L39.6316 79.4131L39.593 79.2178C39.1978 77.1736 38.8367 75.1295 38.4574 73.0853C37.006 64.9087 35.3025 56.7775 33.5696 48.6554L30.9644 36.4745L29.6516 30.3852C29.2155 28.3547 28.8112 26.3196 28.3888 24.2868L27.7914 21.2297L27.6415 20.4665L27.5688 20.0827L27.5302 19.8919C27.5166 19.8147 27.4984 19.6966 27.4871 19.6012C27.4408 19.1868 27.4824 18.7673 27.6092 18.37C27.736 17.9728 27.9452 17.6068 28.223 17.2958C28.4978 16.989 28.8356 16.7449 29.2132 16.5804C29.3132 16.544 29.4131 16.5054 29.513 16.4736C29.613 16.4418 29.7197 16.4237 29.8219 16.4032C29.9241 16.3828 30.0332 16.376 30.1354 16.3669H30.3284L31.8843 16.2828L34.9937 16.1261C39.141 15.9126 43.2861 15.6719 47.4312 15.4198C51.5763 15.1676 55.7236 14.9314 59.8642 14.6407L66.1375 14.2001C66.5 14.2063 66.8569 14.2906 67.1838 14.4474C67.5108 14.6042 67.8 14.8297 68.0317 15.1086C68.2645 15.3809 68.4378 15.6988 68.5405 16.0421C68.5973 16.2351 68.6154 16.3351 68.6472 16.4668L68.7358 16.8461L69.4513 19.876C70.4052 23.9189 71.3523 27.9618 72.2381 32.0183L72.9082 35.0482L73.5577 38.094L74.8592 44.1855C76.6058 52.3031 78.55 60.3775 80.4647 68.4587ZM78.8884 68.8199C77.1486 60.7 75.4384 52.5711 73.535 44.4876L72.095 38.4278L71.3728 35.3979L70.6709 32.3635C69.7306 28.3206 68.8539 24.2619 67.9772 20.2031L67.3208 17.1527L67.23 16.7734C67.2027 16.6508 67.1709 16.4986 67.1527 16.4396C67.1089 16.2818 67.0314 16.1353 66.9256 16.0103C66.8258 15.8876 66.7006 15.788 66.5587 15.7182C66.4168 15.6484 66.2615 15.6101 66.1034 15.606L63.0553 15.8104L59.9505 16.0375C55.8236 16.3532 51.6876 16.6917 47.5493 17.0346C43.411 17.3776 39.2727 17.716 35.1367 18.1067L32.0251 18.3974L30.4738 18.5337L30.2807 18.5518H30.2058C30.1831 18.561 30.1595 18.5679 30.1354 18.5723C30.1148 18.5827 30.0935 18.5918 30.0718 18.5995C29.9831 18.6418 29.9053 18.7039 29.8447 18.7812C29.781 18.8632 29.7343 18.9571 29.7074 19.0573C29.6805 19.1575 29.6739 19.2621 29.6879 19.365C29.6879 19.3968 29.6879 19.4081 29.7038 19.4581L29.7424 19.6489L29.8242 20.0282L29.9855 20.7913L30.6464 23.8485C31.0552 25.8926 31.4822 27.9141 31.8775 29.9537L33.0562 36.0702L35.432 48.2897C37.0219 56.4414 38.6436 64.5862 40.5174 72.6788C40.9717 74.707 41.4373 76.7285 41.8802 78.759L41.9211 78.9452L41.9551 79.0656C41.9774 79.1433 42.0055 79.2192 42.0392 79.2927C42.0704 79.3704 42.1061 79.4462 42.1459 79.5199C42.1845 79.5926 42.2345 79.6584 42.2754 79.7266C42.4693 79.9875 42.7213 80.1997 43.0113 80.3466C43.2936 80.4845 43.6058 80.5501 43.9198 80.5374C43.9959 80.5335 44.0718 80.5252 44.1469 80.5124C44.2241 80.5011 44.2968 80.4738 44.374 80.4579L45.1145 80.2308L48.083 79.2882L51.0607 78.3797L57.0092 76.5422L68.9175 72.8809L74.8683 71.0434L77.8437 70.1236L78.2161 70.0077C78.2813 69.9872 78.3445 69.9606 78.4047 69.9282C78.5254 69.8587 78.6305 69.7652 78.7136 69.6534C78.7972 69.5333 78.8557 69.3976 78.8858 69.2544C78.9158 69.1112 78.9167 68.9634 78.8884 68.8199Z" fill="#161B26"></path>
  <path d="M51.029 32.8337C52.9209 32.5679 54.8016 32.2091 56.6799 31.8684C58.9671 31.455 61.252 31.0325 63.5392 30.6169C64.325 30.4738 65.1109 30.3284 65.8991 30.2013C66.0072 30.1705 66.0989 30.0985 66.1545 30.0008C66.2102 29.9032 66.2253 29.7876 66.1966 29.6789C66.1643 29.5717 66.0921 29.4811 65.9949 29.4257C65.8976 29.3703 65.7828 29.3544 65.6742 29.3813C63.9457 29.6607 62.2264 29.9946 60.5048 30.3103C58.1744 30.7373 55.8464 31.1688 53.5115 31.5731C52.603 31.7298 51.7081 31.8865 50.8018 32.0137C50.6938 32.0445 50.6022 32.1165 50.547 32.2143C50.4917 32.3121 50.4772 32.4277 50.5066 32.5361C50.5388 32.6433 50.6111 32.7339 50.7083 32.7893C50.8055 32.8447 50.9203 32.8606 51.029 32.8337Z" fill="#161B26"></path>
  <path d="M54.2292 47.1201C56.0463 46.8657 57.8633 46.4114 59.6576 45.9844C61.8221 45.4847 63.973 44.9578 66.1376 44.4309C66.9325 44.2378 67.7275 44.0402 68.5224 43.854C69.0539 43.729 68.829 42.9091 68.2953 43.034C64.4137 43.9425 60.5547 44.9533 56.6527 45.7891C55.776 45.9753 54.8947 46.1661 54.0044 46.291C53.8963 46.3218 53.8045 46.3938 53.7489 46.4915C53.6933 46.5891 53.6782 46.7047 53.7068 46.8134C53.7391 46.9205 53.8114 47.0109 53.9087 47.066C54.0061 47.121 54.1209 47.1363 54.2292 47.1087V47.1201Z" fill="#161B26"></path>
  <path d="M57.8133 62.006C59.5183 61.7283 61.2063 61.3545 62.8691 60.8863C64.8679 60.3707 66.8575 59.8165 68.8244 59.1964C69.6148 58.9489 70.4143 58.6945 71.1775 58.3879C71.2842 58.3551 71.3743 58.2827 71.4292 58.1855C71.4842 58.0883 71.4997 57.9738 71.4727 57.8655C71.442 57.7573 71.37 57.6656 71.2723 57.61C71.1746 57.5543 71.059 57.5392 70.9503 57.5679C69.359 58.1675 67.7382 58.6861 66.0943 59.1215C64.1047 59.6938 62.1014 60.2276 60.0823 60.6909C59.2555 60.8794 58.4242 61.0657 57.5839 61.1838C57.4754 61.2141 57.3833 61.2859 57.3276 61.3838C57.2718 61.4816 57.257 61.5975 57.2863 61.7062C57.319 61.8129 57.3915 61.903 57.4887 61.958C57.5858 62.0129 57.7004 62.0285 57.8087 62.0015L57.8133 62.006Z" fill="#161B26"></path>
  <path d="M47.32 38.4574C45.8868 38.8163 44.4604 39.191 43.0341 39.5703L40.8832 40.1268C40.5266 40.2199 40.1677 40.3062 39.8088 40.3925H39.7748L39.7112 40.4062C39.6673 40.4096 39.6233 40.4096 39.5794 40.4062C39.4914 40.4087 39.4035 40.3988 39.3182 40.3766C39.1489 40.3305 38.9956 40.2383 38.8754 40.1105C38.7551 39.9826 38.6726 39.824 38.6369 39.6521L38.5778 39.3818C38.275 37.9373 37.9903 36.4897 37.7238 35.0391L37.3082 32.8655L37.081 31.7798L36.9697 31.237L36.9425 31.103L36.9289 31.0349C36.9289 31.0167 36.9152 30.9622 36.9107 30.9281C36.8963 30.7677 36.927 30.6064 36.9993 30.4625C37.0679 30.317 37.1766 30.194 37.3127 30.1082C37.3832 30.0641 37.4597 30.0304 37.5398 30.0082C37.5784 30.0082 37.6193 29.9901 37.6579 29.981H37.7329C37.9146 29.9537 38.0986 29.931 38.2803 29.8992L39.375 29.7289C40.1041 29.6108 40.8377 29.5335 41.5714 29.4586C42.305 29.3836 43.0386 29.3087 43.7745 29.2451L44.8783 29.1452L45.1532 29.1202L45.2917 29.1088C45.367 29.0978 45.4435 29.0978 45.5188 29.1088C45.6653 29.1325 45.8024 29.1961 45.915 29.2927C46.0276 29.3893 46.1113 29.5151 46.1571 29.6562L46.6113 31.8548C46.7612 32.5771 46.9339 33.2948 47.0951 34.0148C47.2564 34.7348 47.4176 35.4548 47.5721 36.177L47.7992 37.2582L47.8605 37.5285C47.8762 37.5856 47.8861 37.6442 47.8901 37.7033C47.893 37.7705 47.8869 37.8377 47.8719 37.9032C47.8418 38.0384 47.7739 38.1622 47.6762 38.2603C47.5785 38.3584 47.455 38.4268 47.32 38.4574ZM47.2155 38.0032C47.2649 37.9926 47.3103 37.9685 47.3468 37.9336C47.3833 37.8987 47.4094 37.8544 47.4222 37.8055C47.4255 37.7807 47.4255 37.7555 47.4222 37.7306C47.4205 37.6983 47.4152 37.6663 47.4063 37.6352L47.3472 37.3649L47.0951 36.2861C46.927 35.5683 46.7567 34.8506 46.6022 34.1283C46.4478 33.4061 46.2865 32.6883 46.1139 31.9706C46.0299 31.6118 45.939 31.2529 45.8482 30.8963L45.5847 29.8515C45.5708 29.8172 45.5474 29.7877 45.5172 29.7663C45.487 29.745 45.4513 29.7328 45.4144 29.7311C45.3948 29.7281 45.3749 29.7281 45.3553 29.7311L45.219 29.7539L44.9465 29.797L43.8517 29.9674C43.1226 30.0832 42.3936 30.1945 41.6622 30.2944C40.9309 30.3944 40.2018 30.5056 39.4659 30.567L38.3643 30.6669C38.1803 30.6828 37.9964 30.7032 37.8124 30.7214H37.7511H37.7329C37.7216 30.7228 37.7107 30.7267 37.7011 30.7328C37.6791 30.7438 37.6608 30.7612 37.6488 30.7827C37.6365 30.8048 37.6317 30.8304 37.6352 30.8554L37.6829 31.0826L37.7988 31.6231L38.0259 32.7043L38.5119 34.8642C38.8413 36.302 39.1615 37.742 39.4613 39.1797L39.5136 39.4522C39.5136 39.4659 39.5136 39.4704 39.5136 39.4772C39.5187 39.4844 39.5258 39.4899 39.534 39.4931H39.5476H39.559H39.5908C39.9519 39.4136 40.3131 39.3364 40.6742 39.266L42.8478 38.8367C44.3135 38.5793 45.7694 38.303 47.2155 38.0077V38.0032Z" fill="#161B26"></path>
  <path d="M50.5384 53.014L46.2343 54.3177C45.5166 54.5312 44.7989 54.7515 44.0743 54.9446C43.8926 54.9923 43.7132 55.0445 43.5315 55.09L43.259 55.1581L43.1227 55.1922L43.0545 55.2081C43.0141 55.2186 42.9732 55.2269 42.9319 55.233C42.7558 55.258 42.5763 55.2313 42.4151 55.1564C42.2538 55.0814 42.1178 54.9613 42.0234 54.8106C41.9479 54.6844 41.9007 54.5434 41.8848 54.3972L41.8371 54.1201C41.719 53.3797 41.5896 52.6415 41.4238 51.9102C41.258 51.1788 41.0649 50.4543 40.8877 49.7252C40.7106 48.9961 40.5607 48.2625 40.4335 47.5243L40.2336 46.4182C40.2018 46.2342 40.1632 46.0502 40.1291 45.8663C40.1291 45.8504 40.1155 45.7959 40.111 45.7595C40.1075 45.7172 40.1075 45.6747 40.111 45.6323C40.1135 45.5487 40.1288 45.466 40.1564 45.387C40.2052 45.2251 40.2999 45.0807 40.4289 44.9714C40.4928 44.9178 40.5639 44.8734 40.6402 44.8397C40.7075 44.8115 40.7775 44.7902 40.8491 44.7761L41.1217 44.7125C41.3056 44.6716 41.4896 44.633 41.6713 44.5875L42.7638 44.3241C43.4906 44.1424 44.2288 44.0038 44.9647 43.8698C45.7006 43.7358 46.4387 43.595 47.1792 43.4678L48.2853 43.277L48.4238 43.252L48.5147 43.2384C48.5518 43.2361 48.5889 43.2361 48.626 43.2384C48.7736 43.2414 48.9172 43.2872 49.0394 43.3701C49.1606 43.4504 49.256 43.564 49.3142 43.6972C49.3417 43.7595 49.3608 43.8252 49.371 43.8925L49.396 44.0311C49.6526 45.5074 49.9206 46.9837 50.2568 48.4442L50.7428 50.6382L50.9949 51.7353L51.0585 52.0078C51.094 52.1317 51.104 52.2615 51.0881 52.3894C51.0641 52.5345 50.9998 52.67 50.9027 52.7804C50.8055 52.8908 50.6793 52.9718 50.5384 53.014ZM50.3862 52.4575C50.4261 52.4478 50.4625 52.4274 50.4917 52.3986C50.5209 52.3698 50.5417 52.3337 50.552 52.294C50.5494 52.1406 50.5281 51.988 50.4884 51.8397L50.284 50.7336L49.8638 48.5259C49.5913 47.0519 49.2529 45.5914 48.9031 44.1333L48.869 43.997C48.8649 43.9712 48.8557 43.9465 48.8418 43.9243C48.8205 43.8868 48.789 43.856 48.7509 43.8357C48.7143 43.8177 48.6735 43.8099 48.6328 43.813H48.6033H48.5556L48.4193 43.8494L47.3291 44.1265C46.6023 44.315 45.8755 44.499 45.1464 44.6693C44.4173 44.8397 43.6882 45.0236 42.9501 45.1576L41.8462 45.3643C41.6622 45.3984 41.4783 45.4393 41.2943 45.4756L41.0195 45.5301L40.9581 45.5438L40.9309 45.5597C40.915 45.5732 40.9038 45.5915 40.8991 45.6119C40.8969 45.6216 40.8969 45.6317 40.8991 45.6414C40.8991 45.6414 40.8991 45.6414 40.8991 45.655C40.8991 45.6687 40.8991 45.655 40.8991 45.6868C40.94 45.8685 40.9786 46.0525 41.024 46.2342L41.2829 47.329C41.4555 48.0581 41.6055 48.7917 41.7372 49.5299C41.8689 50.268 41.9643 51.013 42.1165 51.7466C42.2687 52.4802 42.4345 53.2116 42.6207 53.9384C42.6443 54.0711 42.6809 54.2012 42.7297 54.3268C42.7396 54.3344 42.751 54.3397 42.7632 54.3425C42.7754 54.3452 42.788 54.3453 42.8002 54.3427L43.2885 54.1996C43.4679 54.1451 43.6496 54.0997 43.829 54.0497C44.5513 53.8498 45.2804 53.6749 46.0095 53.4955L50.3862 52.4575Z" fill="#161B26"></path>
  <path d="M53.8975 67.9795C52.478 68.511 51.0607 69.047 49.6207 69.5195L47.4698 70.2122L46.927 70.3848L46.6567 70.4711L46.5227 70.5143C46.4773 70.5279 46.4432 70.5416 46.3501 70.5643C46.1908 70.5988 46.0249 70.5867 45.8723 70.5295C45.7196 70.4723 45.5867 70.3724 45.4893 70.2417C45.4411 70.177 45.4021 70.1059 45.3734 70.0305C45.359 69.9929 45.3476 69.9542 45.3394 69.9147L45.3235 69.8397L45.2689 69.5604C45.1213 68.8177 44.9691 68.0772 44.7965 67.339C44.6239 66.6009 44.4308 65.8695 44.256 65.1314C44.0811 64.3932 43.9198 63.655 43.7722 62.9123L43.5564 61.7971L43.4496 61.2384L43.4247 61.0998L43.411 61.0294C43.4024 60.9867 43.3971 60.9435 43.3951 60.9C43.3857 60.7241 43.4266 60.5491 43.5132 60.3957C43.6001 60.2446 43.7286 60.1216 43.8835 60.0414C43.9221 60.0208 43.9624 60.0033 44.0038 59.9892C44.0379 59.9778 44.097 59.9597 44.1129 59.9574L44.2514 59.9279L44.8056 59.8007L45.914 59.5531L48.133 59.0648C48.8712 58.9012 49.6139 58.7422 50.3498 58.5651C50.7177 58.481 51.0857 58.3879 51.4536 58.2948L51.5899 58.2585L51.6581 58.2426C51.6909 58.2339 51.7243 58.2278 51.758 58.2244C51.8961 58.2066 52.0364 58.2286 52.1623 58.288C52.2878 58.3497 52.3939 58.4448 52.4689 58.5628C52.5056 58.6222 52.5339 58.6864 52.5529 58.7536C52.5711 58.8195 52.5757 58.8513 52.5893 58.9035C52.7642 59.6394 52.9368 60.3776 53.0822 61.1203C53.2275 61.863 53.3524 62.6102 53.5001 63.3529C53.6477 64.0957 53.8181 64.8338 54.0111 65.5674L54.3018 66.6667L54.3745 66.9416C54.3881 66.9915 54.3972 67.0211 54.4131 67.0892C54.4488 67.2733 54.4176 67.4641 54.3251 67.6273C54.2327 67.7905 54.0851 67.9154 53.9089 67.9795H53.8975ZM53.709 67.414C53.7484 67.4045 53.7842 67.3838 53.812 67.3544C53.8398 67.3249 53.8585 67.288 53.8657 67.2482C53.8703 67.2272 53.8703 67.2056 53.8657 67.1846C53.8657 67.1573 53.8521 67.096 53.8453 67.0551L53.7953 66.7735L53.6023 65.6538C53.4705 64.9088 53.3116 64.1683 53.148 63.4302C52.9845 62.692 52.7664 61.9629 52.5961 61.2248C52.4258 60.4866 52.2645 59.7484 52.1146 59.0057L52.0873 58.8762C52.0826 58.852 52.0734 58.8289 52.0601 58.8081C52.0353 58.7637 51.9982 58.7274 51.9533 58.7036C51.9078 58.6802 51.8567 58.67 51.8057 58.6741H51.7648L51.6967 58.69L51.5581 58.7263C51.1924 58.8172 50.8245 58.908 50.4588 59.008C49.7275 59.201 49.0007 59.4145 48.2716 59.6212L46.0843 60.2436L44.9918 60.5502L44.4445 60.7024L44.3059 60.741C44.2741 60.741 44.29 60.741 44.2787 60.741C44.2658 60.7503 44.2556 60.7628 44.2491 60.7773C44.2448 60.7914 44.2448 60.8064 44.2491 60.8205L44.2991 61.0476L44.424 61.6018L44.6716 62.7102C44.8336 63.4506 44.9813 64.1933 45.1145 64.9383C45.2462 65.6856 45.3575 66.4351 45.5006 67.1778C45.6437 67.9205 45.7936 68.6655 45.9549 69.4059L46.0162 69.683L46.0321 69.7466C46.0311 69.7534 46.0311 69.7603 46.0321 69.767C46.0376 69.7792 46.0444 69.7906 46.0525 69.8011C46.0699 69.8226 46.0929 69.8387 46.1191 69.8476C46.1452 69.8564 46.1734 69.8576 46.2002 69.8511L47.2381 69.49L49.3822 68.7404C50.7995 68.268 52.2554 67.8433 53.709 67.414Z" fill="#161B26"></path>
  <path d="M39.3636 32.7383C40.647 33.8969 41.6656 35.3184 42.3504 36.9061C42.6161 37.5148 43.729 37.3808 43.8267 36.713C44.3689 32.9501 45.5731 29.3129 47.3835 25.9699C47.9045 25.0138 48.473 24.0844 49.087 23.1853C49.1514 23.0938 49.1962 22.99 49.2184 22.8804C49.2407 22.7708 49.24 22.6577 49.2163 22.5484C49.1927 22.4391 49.1466 22.3358 49.081 22.2452C49.0153 22.1546 48.9317 22.0786 48.8352 22.022C48.7387 21.9654 48.6315 21.9295 48.5204 21.9164C48.4093 21.9034 48.2967 21.9135 48.1897 21.9462C48.0828 21.9789 47.9837 22.0334 47.8989 22.1063C47.8141 22.1793 47.7453 22.269 47.697 22.3699C45.4897 25.6157 43.8706 29.2245 42.9136 33.0313C42.6456 34.104 42.4319 35.1895 42.2731 36.2838L43.7495 36.0907C42.9986 34.381 41.894 32.8498 40.5083 31.5981C40.3554 31.452 40.152 31.3705 39.9405 31.3705C39.729 31.3705 39.5257 31.452 39.3727 31.5981C39.2245 31.75 39.1416 31.9537 39.1416 32.1659C39.1416 32.3781 39.2245 32.5819 39.3727 32.7337L39.3636 32.7383Z" fill="#FF8B20"></path>
  <path d="M42.4912 48.0921C43.7767 49.2493 44.7964 50.6712 45.4802 52.2599C45.746 52.8686 46.8589 52.7346 46.9566 52.0669C47.4974 48.3036 48.7017 44.6662 50.5134 41.3237C51.0327 40.3682 51.6006 39.4393 52.2168 38.5368C52.2702 38.4453 52.3051 38.3441 52.3194 38.239C52.3336 38.134 52.3271 38.0272 52.3001 37.9247C52.2731 37.8222 52.2262 37.726 52.162 37.6417C52.0978 37.5573 52.0177 37.4864 51.9261 37.433C51.8345 37.3796 51.7334 37.3448 51.6283 37.3305C51.5233 37.3162 51.4165 37.3227 51.314 37.3497C51.2115 37.3767 51.1153 37.4237 51.0309 37.4878C50.9466 37.552 50.8757 37.6321 50.8223 37.7237C48.616 40.9676 46.9969 44.574 46.039 48.3783C45.7712 49.4518 45.5574 50.5381 45.3985 51.633L46.8748 51.44C46.1232 49.73 45.0187 48.1983 43.6337 46.9451C43.4799 46.8006 43.2769 46.7201 43.0658 46.7201C42.8548 46.7201 42.6518 46.8006 42.498 46.9451C42.3504 47.0973 42.2678 47.3009 42.2678 47.5129C42.2678 47.7249 42.3504 47.9286 42.498 48.0808L42.4912 48.0921Z" fill="#FF8B20"></path>
</svg>
