<?xml version="1.0" encoding="UTF-8"?>
<svg xmlns="http://www.w3.org/2000/svg" width="100" height="100" viewBox="0 0 100 100" fill="none">
  <ellipse cx="50.9541" cy="47.5242" rx="27.4318" ry="27.6243" fill="white"></ellipse>
  <path d="M23.4305 56.0144C22.8968 54.2322 22.54 52.4018 22.3653 50.5497C22.1938 48.6987 22.2097 46.8351 22.413 44.9873C22.9085 40.3893 24.5275 35.9838 27.1271 32.159C29.7267 28.3342 33.2272 25.2076 37.3202 23.0547C41.4131 20.9017 45.9727 19.7886 50.5973 19.8133C55.2218 19.8381 59.7693 21 63.8389 23.1966C65.4534 24.0631 66.9787 25.0863 68.3928 26.2515C68.7403 26.5536 69.0946 26.842 69.4308 27.16C69.7669 27.478 70.1122 27.7778 70.4529 28.0821L71.4636 29.0202C71.7861 29.3472 72.1041 29.6834 72.4175 30.0218C73.0789 30.8271 73.6946 31.6688 74.2618 32.5429C74.7397 31.5101 75.1516 30.4481 75.4951 29.3631C75.9085 28.0004 76.0607 26.5854 76.2219 25.1794C76.3014 24.4913 76.3014 23.7962 76.2219 23.108C76.0652 21.7725 75.9562 20.3621 75.4678 19.0879C74.9795 17.8137 74.473 16.4895 73.6826 15.3675C73.106 14.5209 72.4755 13.7121 71.7952 12.9463C71.561 12.6917 71.3082 12.4548 71.0389 12.2377C70.2942 11.5903 69.5015 11.0004 68.6676 10.4729C67.7911 10.0016 66.8799 9.59765 65.9421 9.26457C64.6906 8.77625 63.2597 8.66496 61.956 8.52868C61.2364 8.45785 60.5111 8.46775 59.7937 8.55821C58.3174 8.73537 56.8411 8.90344 55.417 9.31681C53.9338 9.74381 52.5211 10.3798 51.1015 10.9862C49.2477 11.7936 47.464 12.753 45.7686 13.8548C43.2979 15.4776 40.9157 17.2313 38.6322 19.1083C36.7016 20.6596 34.8392 22.2881 33.0335 23.9961C31.171 25.7495 29.3661 27.562 27.6188 29.4336C25.9077 31.2612 24.252 33.1388 22.6515 35.0663C20.7527 37.3543 18.9281 39.7013 17.1777 42.1073C15.9966 43.7358 14.8655 45.4007 13.8298 47.1246C12.6853 49.0796 11.69 51.1182 10.8522 53.223C10.6212 53.7689 10.427 54.3296 10.2707 54.9014C9.94464 55.9172 9.89602 57.0017 10.1299 58.0426C10.1754 59.0845 10.4985 60.0952 11.0657 60.9703C11.5414 61.8691 12.2397 62.6308 13.0939 63.1825C13.8505 63.8758 14.7739 64.361 15.774 64.5907L17.8681 64.8724C19.265 64.8741 20.6371 64.5033 21.8429 63.7981L23.4328 62.5647C24.1202 61.8808 24.6746 61.0752 25.0681 60.189C24.4104 58.844 23.8627 57.4479 23.4305 56.0144Z" fill="#FDA843"></path>
  <path d="M90.9285 42.766C90.883 41.7238 90.5608 40.7124 89.995 39.836C89.5183 38.9378 88.8192 38.1769 87.9644 37.6261C87.2092 36.9317 86.2864 36.4456 85.2866 36.2156L83.1925 35.934C81.7935 35.9354 80.4204 36.311 79.2155 37.0219L77.6256 38.2529C77.5029 38.3756 77.3871 38.5028 77.2735 38.63C77.3984 38.9888 77.5188 39.35 77.6301 39.7134C79.8241 46.8799 79.0891 54.6239 75.586 61.2497C73.84 64.5356 71.4573 67.441 68.5768 69.7965C63.4473 73.9932 57.0135 76.2674 50.3861 76.2265C49.9841 76.4536 49.5752 76.6808 49.1619 76.8806C48.887 77.0214 48.6099 77.1554 48.3328 77.2849C47.3344 77.6642 46.3076 77.9642 45.2621 78.1821C44.8373 78.2071 44.4126 78.2116 43.9856 78.1957C43.7698 78.1457 43.5563 78.0867 43.3451 78.0231C43.1861 77.9345 43.0294 77.8436 42.875 77.746C42.6206 77.5098 42.3775 77.2622 42.1459 77.0033C41.9051 76.6414 41.678 76.2696 41.4645 75.8881C41.4054 75.6905 41.3487 75.4929 41.301 75.2907C41.301 75.0818 41.301 74.8728 41.301 74.6639C39.8853 74.1728 38.5113 73.569 37.1922 72.8582C33.9091 71.0885 31.0053 68.6917 28.6454 65.8036C28.4364 65.5469 28.2343 65.2857 28.0344 65.0245C27.1554 66.9574 26.2923 68.9675 25.963 71.0798C25.7359 72.4584 25.5087 73.9007 25.5405 75.3112C25.5405 75.6609 25.5814 76.0107 25.6246 76.3582C25.7237 77.4018 25.8807 78.4391 26.0947 79.4653C26.1794 79.8168 26.2833 80.1633 26.4059 80.5033C26.757 81.471 27.1573 82.4201 27.6051 83.347C28.0275 84.2059 28.5343 85.0208 29.1178 85.7795C30.0649 87.0264 30.9802 88.3029 32.1908 89.3114C33.3265 90.2539 34.5257 91.2419 35.8726 91.8893C36.8363 92.3582 37.8268 92.77 38.8389 93.1226C39.2279 93.2547 39.6246 93.3631 40.0268 93.4474C41.1093 93.6589 42.2027 93.8106 43.302 93.9016C43.7155 93.9425 44.131 93.9607 44.5466 93.9561C44.9804 93.9561 45.4165 93.9289 45.8503 93.8834C46.986 93.7676 48.1216 93.6245 49.2277 93.4156C50.1529 93.2366 51.0638 92.9907 51.9533 92.6797C53.5427 92.1205 55.0982 91.4691 56.6117 90.7286C57.5883 90.2562 58.5377 89.7315 59.4644 89.1683C62.0258 87.5658 64.4643 85.7749 66.7598 83.8103C68.7273 82.1558 70.5952 80.3864 72.3539 78.5114C74.5982 76.0852 76.7149 73.544 78.6953 70.8981C80.3207 68.7726 81.8325 66.5625 83.2243 64.2773C84.5661 62.0862 85.7743 59.8161 86.8424 57.4793C88.0916 54.7265 89.2682 51.9079 90.0813 48.9916C90.3652 47.974 90.6037 46.9474 90.7877 45.9072C91.1159 44.8918 91.1646 43.8067 90.9285 42.766Z" fill="#FDA843"></path>
  <path d="M55.0127 20.973C61.5845 22.056 67.5347 25.5016 71.7452 30.6623C81.3255 42.3867 79.6084 59.6416 67.9113 69.206C63.8237 72.5447 58.8577 74.6298 53.612 75.2102C48.3662 75.7905 43.0645 74.8411 38.346 72.4766C42.4236 75.4425 47.2208 77.2627 52.2394 77.7483C59.7881 78.4789 67.3191 76.1926 73.1875 71.3887C76.0917 69.0146 78.4931 66.085 80.2512 62.7714C82.5648 58.4294 83.7118 53.5611 83.5799 48.6429C83.4481 43.7246 82.0419 38.9248 79.499 34.7129C76.9561 30.501 73.3635 27.0213 69.0726 24.6141C64.7817 22.2069 59.9394 20.9546 55.0195 20.9798L55.0127 20.973Z" fill="#161B26"></path>
  <path d="M72.3698 30.0127C75.9171 34.3257 78.1103 39.591 78.6736 45.1469C79.237 50.7027 78.1454 56.3011 75.536 61.2383C73.789 64.5235 71.4055 67.4282 68.5246 69.7829C62.7066 74.5492 55.2372 76.8163 47.7514 76.088C44.0384 75.7239 40.4351 74.6245 37.1513 72.8537C33.0295 70.6515 29.5173 67.4625 26.9288 63.5716C24.3403 59.6807 22.756 55.2091 22.3176 50.5565C22.1461 48.7055 22.162 46.8419 22.3653 44.9941C22.9163 39.9359 24.8248 35.1209 27.8886 31.0586C30.9523 26.9963 35.0575 23.838 39.7694 21.918C44.4813 19.998 49.6248 19.3877 54.6552 20.1518C59.6856 20.9158 64.4158 23.0258 68.3451 26.2583C68.6926 26.5604 69.047 26.8488 69.3831 27.1668C69.7193 27.4848 70.0645 27.7846 70.4052 28.089L71.4159 29.027C71.7407 29.3382 72.0564 29.6743 72.3698 30.0127ZM71.1502 31.0098C70.8799 30.6691 70.6119 30.3284 70.3507 29.9719C70.0895 29.6153 69.7942 29.2905 69.5126 28.9589C69.2309 28.6273 68.9039 28.3274 68.5904 28.0208C68.277 27.7142 67.9295 27.4462 67.5979 27.1577C63.8837 24.0689 59.3952 22.0553 54.6185 21.3351C49.8418 20.6148 44.9591 21.2153 40.4993 23.0716C36.0395 24.9278 32.1727 27.9691 29.3177 31.8658C26.4627 35.7625 24.7284 40.3662 24.3027 45.1781C24.155 46.901 24.1687 48.634 24.3436 50.3543C24.7681 54.6701 26.2477 58.8152 28.652 62.4243C31.0562 66.0334 34.3112 68.9957 38.1303 71.0503C41.1826 72.6841 44.5222 73.7122 47.9649 74.0779C53.1721 74.6017 58.4177 73.5709 63.0394 71.1155C67.661 68.6602 71.4516 64.8905 73.9323 60.2824C76.413 55.6743 77.4727 50.4344 76.9776 45.2245C76.4824 40.0145 74.4546 35.0681 71.1502 31.0098Z" fill="#161B26"></path>
  <path d="M65.5287 51.6672C65.8436 52.169 66.1251 52.691 66.3714 53.2298C66.6212 53.7613 66.8484 54.2996 67.0528 54.8492C67.2572 55.3989 67.3935 55.9622 67.5615 56.5209L67.8068 57.3613L67.8386 57.4658L67.8545 57.5225L67.8931 57.6702C67.939 57.8704 67.9521 58.0767 67.9318 58.2811C67.8953 58.6869 67.7316 59.0707 67.464 59.3778C67.1965 59.685 66.8387 59.8997 66.4418 59.9914C66.3447 60.0136 66.2459 60.028 66.1465 60.0346H66.0738H65.9603H65.7332C65.4424 60.0346 65.1494 60.0209 64.8587 60.0209L63.1098 60.005C61.9447 59.9687 60.7772 59.9028 59.6075 59.7779C59.4137 59.7577 59.2338 59.6676 59.1016 59.5244C58.9694 59.3812 58.8939 59.1948 58.8892 58.9999C58.8844 58.8051 58.9508 58.6152 59.0759 58.4658C59.201 58.3164 59.3763 58.2176 59.5689 58.188C60.7318 58.004 61.8924 57.8837 63.0576 57.7905L64.8019 57.6883C65.0927 57.6747 65.3857 57.6543 65.6764 57.6338L65.9035 57.6179H65.958H65.9353H65.8558C65.745 57.6387 65.6436 57.6937 65.5658 57.7752C65.4879 57.8567 65.4377 57.9606 65.422 58.0722C65.4129 58.1309 65.4129 58.1906 65.422 58.2493C65.4209 58.263 65.4209 58.2766 65.422 58.2902L65.4061 58.2448L65.3698 58.1426L65.0722 57.3181C64.8769 56.7707 64.6588 56.2279 64.493 55.6692C64.3272 55.1104 64.1932 54.5335 64.0819 53.9657C63.9614 53.3851 63.8802 52.797 63.8389 52.2055C63.8207 52.0008 63.8723 51.7961 63.9855 51.6246C64.0986 51.4531 64.2665 51.325 64.4618 51.2612C64.6571 51.1974 64.8682 51.2017 65.0608 51.2734C65.2533 51.3451 65.4159 51.4799 65.5219 51.6558L65.5287 51.6672Z" fill="#161B26"></path>
  <path d="M44.8441 33.8807C45.2171 32.979 45.6822 32.1181 46.2319 31.3119C46.5022 30.9144 46.8111 30.5397 47.1018 30.1558L47.5424 29.5812L47.5969 29.5108L47.6287 29.4699L47.7082 29.3722C47.8765 29.1806 48.0876 29.0314 48.3244 28.9367C48.5612 28.842 48.817 28.8044 49.071 28.8271C49.4069 28.8555 49.725 28.9899 49.9795 29.211C50.0428 29.264 50.1013 29.3226 50.1544 29.3858C50.1748 29.4131 50.2135 29.4585 50.2203 29.4699L50.2475 29.5085L50.352 29.6561C50.4883 29.8537 50.6268 30.0536 50.7699 30.2489L51.6126 31.4255C52.1577 32.2227 52.6823 33.0358 53.1684 33.8807C53.2474 34.0199 53.2733 34.183 53.2415 34.3399C53.2097 34.4968 53.1222 34.6368 52.9951 34.7342C52.8681 34.8317 52.7101 34.8798 52.5504 34.8699C52.3906 34.86 52.2398 34.7926 52.1259 34.6802C51.4445 33.9988 50.7858 33.2766 50.1567 32.5429L49.2368 31.4255C49.0846 31.2369 48.9279 31.053 48.7825 30.8667L48.6644 30.7304L48.6372 30.6941C48.6258 30.6941 48.6372 30.7077 48.6372 30.71C48.6372 30.7123 48.6644 30.7441 48.6803 30.76C48.749 30.8254 48.8369 30.8669 48.931 30.8783C49.0251 30.8898 49.1204 30.8706 49.2027 30.8236C49.2459 30.8005 49.285 30.7706 49.3186 30.735L49.3413 30.7077L49.3186 30.7418L49.2686 30.8168L48.862 31.4164C48.5918 31.8138 48.3351 32.225 48.0421 32.6088C47.4519 33.3853 46.7829 34.0985 46.0456 34.737C45.9168 34.8452 45.7556 34.9073 45.5876 34.9136C45.4195 34.9199 45.2541 34.87 45.1175 34.7717C44.981 34.6735 44.8811 34.5326 44.8336 34.3712C44.7862 34.2098 44.7939 34.0372 44.8555 33.8807H44.8441Z" fill="#161B26"></path>
  <path d="M49.6252 31.7979C49.8228 33.1243 49.9432 34.4485 50.0476 35.7749C50.1521 37.1014 50.2203 38.4255 50.2589 39.7519C50.2975 41.0784 50.2702 42.4025 50.2475 43.729C50.2339 44.3922 50.2293 45.0531 50.2316 45.7163V46.3977C50.2341 46.4154 50.2379 46.4328 50.243 46.4499C50.2533 46.4838 50.2714 46.5148 50.2959 46.5405C50.3203 46.5661 50.3504 46.5857 50.3838 46.5976L50.134 46.3977C51.5217 47.1154 52.989 47.7082 54.3517 48.4668C55.7145 49.2255 57.0773 49.9977 58.3764 50.8426C59.6756 51.6875 60.9316 52.6324 62.1536 53.6136C63.3933 54.5944 64.5663 55.6567 65.665 56.7934C65.7967 56.9368 65.8777 57.1195 65.8957 57.3133C65.9137 57.5072 65.8676 57.7017 65.7645 57.8669C65.6614 58.0321 65.507 58.1589 65.3249 58.228C65.1429 58.297 64.9432 58.3045 64.7565 58.2493C63.2536 57.7493 61.7855 57.1507 60.3615 56.4572C58.9488 55.7758 57.5679 55.049 56.2346 54.245C54.9014 53.441 53.634 52.5302 52.3553 51.6376C51.0765 50.7449 49.9159 49.6661 48.669 48.7235L48.4555 48.5622L48.4191 48.5236C48.0199 48.0757 47.754 47.5249 47.6514 46.9337C47.628 46.7879 47.6136 46.6407 47.6083 46.4931V45.6936C47.6083 45.0304 47.6083 44.3695 47.5947 43.7062C47.5697 42.3798 47.5379 41.0557 47.581 39.7292C47.6242 38.4028 47.6991 37.0786 47.7945 35.7522C47.8899 34.4258 48.0217 33.1016 48.217 31.7752C48.2407 31.6053 48.325 31.4497 48.4544 31.3371C48.5838 31.2245 48.7496 31.1625 48.9211 31.1625C49.0926 31.1625 49.2584 31.2245 49.3878 31.3371C49.5172 31.4497 49.6015 31.6053 49.6252 31.7752V31.7979Z" fill="#161B26"></path>
  <path d="M34.6825 49.2868C34.5041 49.4983 34.2747 49.6607 34.0159 49.7585C33.757 49.8563 33.4775 49.8863 33.2039 49.8455C32.7178 49.8364 32.2318 49.8099 31.7457 49.766C31.2619 49.7229 30.7759 49.6616 30.2921 49.5775C29.8022 49.4962 29.3187 49.3801 28.8453 49.23C28.6606 49.1696 28.5005 49.0507 28.3893 48.8913C28.2782 48.7319 28.2219 48.5406 28.2291 48.3464C28.2363 48.1521 28.3065 47.9655 28.4292 47.8148C28.5518 47.664 28.7202 47.5572 28.9089 47.5106C29.3915 47.3953 29.8819 47.3148 30.3761 47.2699C30.8645 47.2199 31.3528 47.1949 31.8388 47.1881C32.3249 47.1813 32.8132 47.1881 33.2993 47.2154C33.5754 47.1931 33.8525 47.2425 34.104 47.3587C34.3555 47.4748 34.5727 47.6539 34.7347 47.8786C34.8928 48.0821 34.9741 48.3347 34.9646 48.5922C34.955 48.8497 34.8552 49.0956 34.6825 49.2868Z" fill="#FF8B20"></path>
  <path d="M73.1035 48.0921C72.9248 48.3039 72.6949 48.4663 72.4357 48.5641C72.1765 48.6619 71.8966 48.6918 71.6226 48.6509C71.1366 48.6418 70.6513 48.6153 70.1667 48.5714C69.6807 48.5282 69.1969 48.4669 68.7131 48.3829C68.2231 48.3018 67.7396 48.1857 67.2663 48.0354C67.0413 47.9586 66.8553 47.7967 66.7483 47.5844C66.6413 47.3721 66.6218 47.1263 66.6939 46.8997C66.7424 46.7567 66.8257 46.6281 66.9363 46.5254C67.0469 46.4227 67.1814 46.3491 67.3276 46.3115C67.8111 46.1963 68.3022 46.1158 68.7971 46.0707C69.2855 46.0207 69.7738 45.9958 70.2598 45.9889C70.7459 45.9821 71.2342 45.9889 71.718 46.0139C71.9943 45.9924 72.2714 46.0423 72.5228 46.1588C72.7742 46.2754 72.9914 46.4546 73.1534 46.6794C73.313 46.883 73.3955 47.1364 73.3863 47.3949C73.3772 47.6534 73.277 47.9003 73.1035 48.0921Z" fill="#FF8B20"></path>
  <path d="M49.1959 69.3558C48.9831 69.1785 48.8197 68.9492 48.7214 68.6902C48.6232 68.4311 48.5934 68.1511 48.6349 67.8772C48.6349 67.3912 48.669 66.9051 48.7099 66.4191C48.7508 65.933 48.8121 65.4492 48.8961 64.9655C48.9759 64.4756 49.0905 63.9921 49.2391 63.5186C49.3154 63.2932 49.4771 63.1067 49.6895 62.9992C49.9018 62.8918 50.1479 62.872 50.3747 62.944C50.5181 62.9921 50.6473 63.0753 50.7504 63.1859C50.8535 63.2966 50.9274 63.4313 50.9653 63.5777C51.0803 64.0605 51.1615 64.5508 51.2083 65.0449C51.2583 65.5333 51.2832 66.0216 51.2923 66.5077C51.3014 66.9937 51.2923 67.482 51.2696 67.9681C51.2917 68.2439 51.2425 68.5208 51.1267 68.7722C51.011 69.0235 50.8326 69.241 50.6087 69.4035C50.4055 69.5638 50.1522 69.647 49.8936 69.6383C49.635 69.6295 49.3878 69.5295 49.1959 69.3558Z" fill="#FF8B20"></path>
  <path d="M39.6429 27.1146C35.3002 29.3154 31.9001 33.2152 30.0649 37.7078C29.5932 38.8288 29.268 40.006 29.0973 41.2102C29.0519 41.5418 29.5743 41.5395 29.6175 41.2102C29.915 38.957 30.9121 36.7857 32.1022 34.8733C33.3571 32.8128 34.9656 30.9898 36.8538 29.4881C37.8066 28.7494 38.8289 28.1052 39.9064 27.5643C40.2062 27.4121 39.9404 26.9624 39.6429 27.11V27.1146Z" fill="#161B26"></path>
  <path d="M62.3285 83.1017C65.8377 82.468 69.2945 81.4369 72.4244 79.6948C75.6945 77.8646 78.4938 75.2985 80.601 72.1996C81.5363 70.8385 82.3437 69.3939 83.0131 67.8841C83.1124 67.7017 83.1383 67.4882 83.0855 67.2873C83.0328 67.0864 82.9053 66.9131 82.7292 66.803C82.393 66.6054 81.8207 66.694 81.648 67.0869C80.4232 69.9013 78.6883 72.4648 76.5308 74.648C73.9688 77.2237 70.7731 79.0407 67.3958 80.1968C65.6032 80.7919 63.769 81.2534 61.9083 81.5777C61.4881 81.6527 61.2519 82.1637 61.3564 82.5498C61.4162 82.7493 61.5506 82.918 61.7317 83.0208C61.9128 83.1236 62.1266 83.1526 62.3285 83.1017Z" fill="#161B26"></path>
  <path d="M68.6222 84.3077C73.3919 83.4378 77.7936 80.6441 80.7735 76.8284C81.4672 75.9626 82.0537 75.0162 82.5202 74.0097C82.6542 73.7099 82.209 73.4487 82.0659 73.7508C81.2096 75.6632 79.8241 77.3258 78.3024 78.7476C76.4988 80.4569 74.3983 81.8224 72.1041 82.7768C70.931 83.2444 69.7133 83.5914 68.47 83.8126C68.1429 83.8739 68.2815 84.369 68.6063 84.31L68.6222 84.3077Z" fill="#161B26"></path>
</svg>
