<?xml version="1.0" encoding="UTF-8"?>
<svg xmlns="http://www.w3.org/2000/svg" width="100" height="100" viewBox="0 0 100 100" fill="none">
  <path d="M28.2866 55.4488C29.3907 52.9612 30.6562 50.5485 32.0751 48.2261L27.9028 27.7982C26.4083 29.5357 24.9842 31.3278 23.5873 33.1494C21.9365 35.2899 20.3961 37.5133 18.9721 39.811C17.609 42.0028 16.3759 44.2726 15.279 46.609C14.0139 49.3345 12.8328 52.1305 11.997 55.0127C11.7063 56.0121 11.461 57.0228 11.2702 58.0449C10.9456 59.0508 10.897 60.1254 11.1293 61.1565C11.175 62.1861 11.4941 63.1848 12.0538 64.0501C12.5239 64.9377 13.2146 65.6894 14.0593 66.2328C14.8058 66.9189 15.7175 67.3994 16.7053 67.6274L18.7745 67.9113C20.1591 67.9138 21.5191 67.5452 22.7129 66.8438C23.2398 66.4395 23.7652 66.0337 24.2892 65.6264C25.2437 64.675 25.9341 63.4914 26.2924 62.1922C26.739 59.8856 27.4068 57.6273 28.2866 55.4488Z" fill="#BEC5D9"></path>
  <path d="M63.6232 14.9018C64.0614 14.8769 64.4941 15.0095 64.8431 15.2757C65.1922 15.5418 65.4346 15.924 65.5265 16.3532L68.3384 29.9809L70.2917 30.9961C70.4529 30.769 71.2388 31.3119 72.3812 32.6951C73.953 34.5939 74.8569 37.3194 75.3339 35.9339C75.5747 35.2298 76.3196 31.9614 76.4537 31.2278C76.6376 30.2012 76.7785 29.1632 76.8716 28.1252C76.9034 27.78 76.917 27.4439 76.9147 27.0873C76.9124 26.7472 76.8919 26.4076 76.8534 26.0697C76.7612 25.0532 76.6133 24.0425 76.4105 23.0421C76.3338 22.7044 76.2374 22.3715 76.1221 22.045C75.7834 21.1043 75.3929 20.183 74.9523 19.2854C74.271 17.9226 73.2739 16.7098 72.3381 15.5287C71.7836 14.8228 71.1478 14.1847 70.4438 13.6277C69.2764 12.7191 68.1589 11.7766 66.7962 11.1769C65.4334 10.5773 64.107 9.96408 62.6397 9.72105C61.1725 9.47802 59.6371 9.23954 58.1267 9.31222C57.0092 9.35992 55.8736 9.53935 54.7788 9.70515C54.3246 9.76875 53.8794 9.849 53.4433 9.94591C52.5067 10.1595 51.5861 10.438 50.6882 10.7795C48.0484 11.7478 45.5135 12.9814 43.1226 14.4612C42.0596 15.1426 41.0239 15.8467 40.0087 16.5917L63.6232 14.9018Z" fill="#BEC5D9"></path>
  <path d="M92.4412 42.7001C92.3975 41.6702 92.0782 40.671 91.5168 39.8065C91.0469 38.9188 90.3572 38.1665 89.5135 37.6215C88.7657 36.9363 87.8534 36.4559 86.8652 36.2269L84.7961 35.9498C83.4111 35.9487 82.0511 36.3189 80.8577 37.0219L79.2814 38.2393C78.3273 39.1919 77.637 40.3761 77.2782 41.6757C77.2077 41.9301 77.126 42.1822 77.0374 42.4321C76.5513 43.4496 75.3498 48.5486 74.7025 49.473C73.7486 50.8358 77.2941 53.2979 80.3194 55.9417C83.4992 58.7126 85.4434 59.637 82.9064 62.0741L73.2375 53.9202L77.2895 68.5859C78.1072 67.6547 78.912 66.7143 79.7039 65.7649C81.6284 63.4498 83.4795 61.0778 85.2572 58.649C86.4609 57.0023 87.617 55.3193 88.6777 53.5772C89.6875 51.9127 90.5713 50.1748 91.3215 48.3783C91.7019 47.5405 92.0289 46.6795 92.3004 45.8004C92.6229 44.798 92.6715 43.7276 92.4412 42.7001Z" fill="#BEC5D9"></path>
  <path d="M42.3822 81.614C40.6333 82.1727 38.7754 81.037 38.3961 79.1723L34.5235 60.1594L34.2805 60.4524C32.6588 62.467 31.0462 64.5226 29.6834 66.7257C29.2292 67.4571 28.8067 68.2066 28.4297 68.9788C27.9641 69.9305 27.5689 70.9208 27.1646 71.8974C27.0192 72.2517 26.8829 72.6083 26.7603 72.974C26.5281 73.6575 26.3586 74.3607 26.2538 75.0749C26.063 76.3877 25.7995 77.7528 25.9154 79.0928C26.0267 80.3579 26.1425 81.7775 26.5968 83.004C26.8829 83.783 27.2214 84.5439 27.5598 85.3002C27.6256 85.4501 27.6983 85.5978 27.7869 85.7431C27.9482 86.0437 28.1288 86.3335 28.3275 86.6108C28.896 87.4374 29.5174 88.2264 30.1877 88.9729C30.4177 89.2176 30.6652 89.4453 30.9281 89.6543C31.6708 90.2448 32.4362 90.9171 33.2834 91.385C33.4242 91.4622 33.5673 91.5326 33.715 91.5985C34.4668 91.9392 35.2254 92.2799 36.0021 92.5593C36.3081 92.6688 36.6216 92.7561 36.9402 92.8205C37.4376 92.9204 37.9509 92.9726 38.4483 93.0476C38.9457 93.1225 39.4613 93.1998 39.9701 93.2361C41.3601 93.336 42.791 93.068 44.1492 92.8659C46.4841 92.5206 48.6918 91.5326 50.8313 90.5719C52.7087 89.7028 54.514 88.6859 56.2302 87.5306C58.7126 85.8591 61.1095 84.0641 63.412 82.1523C65.3857 80.5374 67.289 78.8407 69.1379 77.0873C71.0351 75.2839 72.8749 73.4237 74.6571 71.5067L74.9365 71.2069L42.3822 81.614Z" fill="#BEC5D9"></path>
  <path d="M73.3034 75.9743L73.292 75.9243L73.2693 75.8289L73.2262 75.6382L73.0444 74.875L72.3631 72.0109L42.3821 81.6139C40.6333 82.1726 38.7753 81.037 38.396 79.1723L26.9624 23.1965L23.3942 23.3941L22.6106 23.4373H22.4153H22.3653H22.279L22.0973 23.46C21.4973 23.5719 20.9599 23.9018 20.5884 24.386C20.2169 24.8703 20.0376 25.4748 20.085 26.0833C20.0938 26.1984 20.1089 26.3129 20.1304 26.4263L20.1667 26.6194L20.244 27.0032L20.3939 27.7732L20.6959 29.3131C21.1184 31.3572 21.5272 33.415 21.9656 35.4615L23.2897 41.5939L25.9154 53.8725C27.6597 62.0491 29.3768 70.2484 30.8395 78.4932C31.2233 80.5509 31.5867 82.611 31.9751 84.6665C32.1682 85.6931 32.3771 86.7107 32.5793 87.7464L32.6542 88.1302L32.6929 88.3233C32.7088 88.3914 32.7133 88.4277 32.7474 88.5686C32.8675 89.0426 33.1177 89.4737 33.4696 89.8132C33.8283 90.1628 34.2816 90.3997 34.7734 90.4946C35.0235 90.5419 35.2795 90.5496 35.532 90.5173C35.6574 90.5037 35.7813 90.4787 35.9022 90.4424L35.993 90.4174L36.0385 90.4015L36.1338 90.372L39.1183 89.4067L42.0982 88.4164L48.0513 86.4245L59.9619 82.4588L71.8793 78.5068C72.2833 78.3725 72.6377 78.1201 72.8968 77.7822C73.1485 77.4534 73.3006 77.0593 73.3352 76.6466C73.3542 76.444 73.3435 76.2397 73.3034 76.0402V75.9743Z" fill="#161B26"></path>
  <path d="M73.1353 53.8975L77.21 68.6381C77.3182 69.0836 77.2555 69.5534 77.0344 69.9549C76.8132 70.3564 76.4496 70.6605 76.0153 70.8072L42.2709 81.6139C40.522 82.1727 38.6664 81.037 38.2848 79.1723L26.1312 19.6647C26.0741 19.4122 26.0717 19.1503 26.1242 18.8967C26.1766 18.6432 26.2826 18.4037 26.4351 18.1945C26.5875 17.9852 26.783 17.811 27.0083 17.6834C27.2336 17.5558 27.4836 17.4779 27.7415 17.4548L63.5142 14.8973C63.9524 14.8732 64.3848 15.0068 64.733 15.2738C65.0813 15.5409 65.3225 15.9237 65.413 16.3532L68.2271 29.9809C68.8736 29.9809 70.5666 30.4847 72.1666 32.5C74.1666 35.0191 74.6666 35.5 75.6666 38C76.4666 40 76.3333 41.5 76.1666 42L75.1666 47.5L72.6666 51.5L73.1353 53.8975Z" fill="white"></path>
  <path d="M73.9121 53.6817L76.9965 64.1909L77.7665 66.8188L78.1571 68.1316L78.2048 68.2974L78.2298 68.3791L78.2571 68.5177C78.2945 68.6947 78.3135 68.8751 78.3138 69.056C78.3176 69.4122 78.2568 69.7662 78.1344 70.1008C77.882 70.7928 77.374 71.3617 76.7149 71.6907C76.6322 71.7324 76.5473 71.7695 76.4605 71.8019L76.3378 71.8474L76.2561 71.8746L75.9335 71.9836L75.2862 72.2108L72.697 73.0875C69.2401 74.2458 65.7764 75.3815 62.299 76.4672C60.5592 77.01 58.8126 77.5324 57.0751 78.0571L51.8307 79.6061C50.0848 80.1285 48.3435 80.663 46.6068 81.2096L44.0016 82.0386L42.682 82.4474L42.5094 82.5019L42.2959 82.561C42.1535 82.5958 42.0082 82.6231 41.8598 82.6428C41.5647 82.6832 41.2658 82.6886 40.9694 82.6587C40.3794 82.5996 39.8094 82.4123 39.2993 82.1098C38.7893 81.8073 38.3515 81.397 38.0168 80.9075C37.8506 80.6664 37.7105 80.4083 37.5989 80.1375C37.5416 80.0035 37.4923 79.8663 37.4512 79.7264C37.4308 79.656 37.4081 79.5879 37.3922 79.5152L37.3467 79.3176L37.0628 77.9821L35.9272 72.6355C35.1701 69.0726 34.3994 65.5105 33.615 61.9491C33.2357 60.1662 32.8405 58.3878 32.4794 56.6003L31.9275 53.9224L31.4028 51.24L30.8895 48.5463L30.3943 45.8571L29.4109 40.4787C28.7477 36.8946 28.0716 33.3128 27.3826 29.7333L26.3469 24.3639L25.8177 21.6838L25.5497 20.3438L25.4816 20.0076L25.4498 19.8396C25.4498 19.785 25.4248 19.6942 25.4134 19.6124C25.3748 19.3024 25.3909 18.9879 25.4611 18.6835C25.609 18.0638 25.9822 17.5213 26.5082 17.1617C26.775 16.9869 27.0737 16.8665 27.3872 16.8074C27.7438 16.7483 27.9141 16.7529 28.1549 16.7302L30.8804 16.528L36.3315 16.0738C38.1485 15.9239 39.9655 15.774 41.7826 15.6422L44.5081 15.4401L47.2336 15.2607C49.0507 15.1357 50.8677 15.0335 52.6847 14.9268L58.1358 14.6043L63.6391 14.2408C64.2678 14.2419 64.8717 14.486 65.3244 14.9222C65.5497 15.1367 65.7337 15.3908 65.8672 15.6718C65.9031 15.7396 65.9335 15.8103 65.9581 15.883C65.9855 15.9574 66.009 16.0332 66.0285 16.1101L66.058 16.2237L66.0762 16.3077L66.1103 16.4758L66.6713 19.1514C67.4276 22.7173 68.1998 26.2809 69.0152 29.8377L67.4253 30.1625C66.7689 26.5784 66.0626 23.0035 65.3539 19.4307L64.8224 16.7506L64.7884 16.5848L64.7702 16.5008L64.7566 16.4485C64.7505 16.4162 64.7422 16.3843 64.7316 16.3531C64.7205 16.3178 64.7061 16.2835 64.6884 16.2509C64.6268 16.1158 64.5406 15.9933 64.434 15.8898C64.2259 15.6833 63.9459 15.5653 63.6527 15.5605H63.5323L63.362 15.5718L63.0213 15.5945L62.3399 15.6468L60.9772 15.7512L58.2516 15.9602L52.8005 16.4145C50.9835 16.5689 49.1665 16.7256 47.3495 16.8687L44.6239 17.0777L41.8984 17.2662C40.0814 17.3957 38.2643 17.5069 36.4473 17.616L30.9803 17.943L28.2548 18.1293C28.0413 18.1452 27.7551 18.1611 27.6597 18.1792C27.5265 18.2052 27.3998 18.2578 27.2872 18.3337C27.0542 18.4943 26.8916 18.7382 26.833 19.0151C26.8019 19.1552 26.7958 19.2998 26.8148 19.4421C26.8148 19.483 26.8148 19.5034 26.8352 19.5602L26.8693 19.7283L26.9397 20.0621L27.2191 21.3999L27.7778 24.0755L28.9316 29.4176C29.7069 32.9804 30.489 36.5388 31.2779 40.0926L32.4794 45.4255L33.0745 48.0943L33.6491 50.7653L34.2192 53.4386L34.762 56.1187C35.1322 57.9017 35.4661 59.6937 35.8159 61.4835C36.4912 65.0646 37.1794 68.6433 37.8805 72.2199L38.9253 77.5869L39.1865 78.9269L39.216 79.0632C39.216 79.1041 39.2364 79.1427 39.2455 79.1836C39.2674 79.2609 39.294 79.3367 39.325 79.4107C39.3866 79.5616 39.4627 79.7061 39.5522 79.8423C39.7306 80.111 39.9651 80.3378 40.2395 80.5072C40.514 80.6766 40.8219 80.7845 41.1421 80.8235C41.299 80.8417 41.4575 80.8417 41.6145 80.8235C41.6912 80.8137 41.7671 80.7985 41.8416 80.778C41.8802 80.778 41.9188 80.7553 41.9574 80.7463L42.1119 80.6985L43.4133 80.2784L46.014 79.4403C47.7462 78.874 49.4746 78.2971 51.1993 77.7095L56.3687 75.9243C58.0904 75.3292 59.8165 74.7387 61.5472 74.1686C65.0117 73.033 68.4875 71.9367 71.9747 70.8798L74.5912 70.0894L75.2453 69.8918L75.5724 69.7919L75.6542 69.7669L75.6905 69.7532C75.7122 69.7495 75.733 69.7418 75.7518 69.7305C75.9204 69.6543 76.053 69.516 76.1221 69.3444C76.177 69.2076 76.1958 69.059 76.1766 68.9129V68.8833L76.1539 68.7993L76.113 68.6335L75.7746 67.3139L75.0932 64.6724L72.3449 54.1041L73.9121 53.6817Z" fill="#161B26"></path>
  <path d="M38.8389 44.1946C42.1005 43.5132 45.3825 42.9113 48.6645 42.3321L50.2749 42.0482C50.8109 41.9528 50.5837 41.1397 50.0477 41.2283C47.1905 41.7302 44.3332 42.239 41.485 42.7932C40.5265 42.9817 39.5703 43.1725 38.6141 43.3747C38.0803 43.4882 38.3052 44.3059 38.8412 44.1946H38.8389Z" fill="#161B26"></path>
  <path d="M37.8215 39.8609C41.4805 39.1114 45.1714 38.5277 48.8463 37.8667C49.6481 37.7214 50.4498 37.5738 51.2493 37.4125C51.7831 37.3035 51.5559 36.4835 51.0222 36.5948C47.6153 37.2989 44.1652 37.81 40.7424 38.4391C39.693 38.6322 38.6414 38.832 37.5966 39.0478C37.0606 39.1568 37.2877 39.9745 37.8238 39.8655L37.8215 39.8609Z" fill="#161B26"></path>
  <path d="M36.8948 35.9385C41.0308 35.1322 45.2077 34.5553 49.3869 33.9488C50.842 33.7353 52.2979 33.5203 53.7545 33.3038C53.8627 33.273 53.9544 33.2011 54.01 33.1034C54.0657 33.0057 54.0808 32.8901 54.0521 32.7814C54.0198 32.6742 53.9476 32.5836 53.8503 32.5282C53.7531 32.4728 53.6383 32.457 53.5297 32.4839C49.0053 33.1652 44.4695 33.7626 39.9588 34.528C38.8625 34.7127 37.7693 34.9103 36.679 35.1208C36.143 35.2253 36.3701 36.0452 36.9062 35.9408L36.8948 35.9385Z" fill="#161B26"></path>
  <path d="M35.582 30.4352C41.8598 29.6198 48.1536 28.9475 54.4337 28.1026C56.1523 27.8709 57.8693 27.6218 59.5849 27.3553C60.0165 27.2872 60.2549 26.7489 60.1482 26.3628C60.0233 25.9085 59.5872 25.7314 59.1556 25.7972C53.0709 26.7512 46.9498 27.428 40.8355 28.1662C39.0866 28.3782 37.3385 28.5962 35.5911 28.8203C35.1596 28.8771 34.7848 29.1519 34.7848 29.6266C34.7848 30.0196 35.155 30.492 35.5911 30.4352H35.582Z" fill="#161B26"></path>
  <path d="M84.4735 61.0975C84.4729 60.9751 84.4514 60.8537 84.4099 60.7386C84.3666 60.6226 84.301 60.5161 84.2169 60.4252L84.0397 60.2548C83.9909 60.5564 83.8596 60.8386 83.6604 61.0702C83.2519 61.5068 82.7074 61.7918 82.1159 61.8788C82.008 61.896 81.8977 61.8886 81.793 61.8571C81.6884 61.8257 81.5923 61.771 81.5118 61.6971L70.939 52.0351C70.8993 51.9993 70.8642 51.9589 70.8345 51.9147L70.7482 51.9896C70.6992 52.0281 70.6543 52.0715 70.6142 52.1191C70.4363 52.3198 70.3255 52.5709 70.297 52.8375C70.2685 53.1042 70.3238 53.373 70.4552 53.6068C70.5005 53.687 70.5529 53.7631 70.6119 53.8339L70.7005 53.9316L70.7527 53.9815L70.9617 54.1882C71.5181 54.7356 72.1291 55.2285 72.7128 55.7463C73.2965 56.2642 73.8757 56.7888 74.4572 57.3112L77.9459 60.4433C78.525 60.9657 79.1133 61.4813 79.7016 61.9969C79.9923 62.2581 80.2898 62.5102 80.5874 62.7646L81.0416 63.1416L81.2687 63.3301L81.38 63.4233L81.4573 63.4868L81.5527 63.5527C81.7536 63.6738 81.9861 63.7323 82.2204 63.7208C82.2901 63.7172 82.3592 63.7073 82.4271 63.6913C82.6456 63.64 82.8575 63.5638 83.0585 63.4641C83.4583 63.2729 83.8088 62.9924 84.0829 62.6442C84.3404 62.2803 84.4785 61.8454 84.4781 61.3995C84.4781 61.3019 84.4735 61.1974 84.4735 61.0975Z" fill="#161B26"></path>
  <path d="M74.2164 50.0136C75.2635 51.022 76.3696 51.9623 77.4803 52.9026C78.5909 53.8429 79.6675 54.8151 80.7237 55.8121C81.7798 56.8092 82.811 57.8336 83.8512 58.8466C83.9148 58.9124 83.9807 58.9647 84.0625 59.0737C84.1347 59.1659 84.1893 59.2706 84.2237 59.3826C84.257 59.4921 84.2686 59.6071 84.2578 59.721C84.2578 59.8164 84.2396 59.9118 84.2283 60.0072C84.2129 60.4095 84.0931 60.8008 83.8808 61.1428C83.6397 61.4741 83.3298 61.7492 82.9722 61.9492C82.7935 62.0503 82.6047 62.1325 82.409 62.1944C82.3065 62.2284 82.2018 62.255 82.0955 62.2739C81.9565 62.2943 81.815 62.2897 81.6776 62.2603C81.5377 62.2282 81.4046 62.1713 81.2847 62.0922C81.2552 62.0718 81.2256 62.0514 81.1984 62.0286L81.1393 61.981L81.0348 61.8946L80.6124 61.5517C80.3307 61.3245 80.0559 61.0861 79.7765 60.8521C79.2292 60.3729 78.6772 59.9005 78.1344 59.4189L74.8819 56.5208L73.2557 55.0694C72.7129 54.5879 72.1382 54.1405 71.6158 53.634C71.4864 53.5091 71.3546 53.3819 71.2297 53.2501L71.1161 53.1343C71.0762 53.093 71.0412 53.0473 71.0117 52.998C70.9855 52.9535 70.9642 52.9063 70.9481 52.8572C70.9245 52.7838 70.913 52.7071 70.914 52.6301C70.913 52.5467 70.9261 52.4638 70.9526 52.3848C70.9805 52.3057 71.0163 52.2296 71.0594 52.1577C71.0907 52.1032 71.1256 52.0508 71.1638 52.0009C71.416 51.6895 71.7034 51.4083 72.0201 51.1628C72.3177 50.9221 72.6197 50.7086 72.9286 50.4814C73.0831 50.3702 73.2398 50.2543 73.4079 50.1612C73.4938 50.1053 73.5833 50.0552 73.6759 50.0113C73.7318 49.9834 73.7904 49.9613 73.8508 49.9454C73.8952 49.9334 73.941 49.9273 73.987 49.9273C74.0716 49.9266 74.1533 49.9573 74.2164 50.0136ZM73.8871 50.3747C73.9142 50.4013 73.9494 50.4181 73.987 50.4224C73.9608 50.4325 73.9356 50.4455 73.9121 50.461C73.8446 50.5021 73.7794 50.5468 73.7168 50.595C73.5858 50.7073 73.4607 50.8263 73.342 50.9516C73.1047 51.2155 72.884 51.4939 72.6811 51.7852C72.4873 52.0537 72.3134 52.3361 72.1609 52.6301C72.149 52.656 72.1383 52.6825 72.1291 52.7096C72.1291 52.7277 72.1291 52.7459 72.1291 52.7232C72.1407 52.6872 72.1468 52.6497 72.1473 52.6119C72.1453 52.5198 72.1195 52.4299 72.0724 52.3507C72.0521 52.3112 72.0277 52.2739 71.9997 52.2394H71.9883H72.0019L72.0269 52.2599L72.0814 52.303C72.2245 52.4166 72.3631 52.5301 72.5016 52.6505C73.0535 53.1229 73.5555 53.6522 74.0915 54.145L75.6928 55.6236L78.8885 58.5763C79.4222 59.0692 79.9446 59.5711 80.4784 60.0708C80.7373 60.3252 80.9985 60.5773 81.2551 60.8362L81.639 61.2223L81.798 61.3859C81.8265 61.4127 81.8596 61.4342 81.8957 61.4495C81.9336 61.466 81.9746 61.4745 82.016 61.4745C82.0728 61.4745 82.1659 61.4608 82.2432 61.4495C82.3982 61.4256 82.5504 61.3861 82.6974 61.3314C83 61.221 83.2756 61.0476 83.506 60.8226C83.7153 60.5728 83.8443 60.2656 83.8762 59.9413C83.8819 59.8559 83.8819 59.7701 83.8762 59.6847C83.8757 59.6165 83.8634 59.5488 83.8399 59.4848C83.8165 59.4243 83.7818 59.3688 83.7377 59.3213C83.6802 59.2641 83.6195 59.2103 83.556 59.16C82.4521 58.2152 81.3437 57.2749 80.2512 56.3164C79.1588 55.3579 78.0913 54.3744 77.0714 53.3478C76.0516 52.3212 74.9864 51.3309 73.8871 50.3747Z" fill="#161B26"></path>
  <path d="M76.088 42.741C75.9679 44.6078 75.4465 46.4268 74.5593 48.0738C73.6721 49.7207 72.4401 51.1569 70.9473 52.2843C69.4545 53.4118 67.736 54.2038 65.9091 54.6066C64.0823 55.0093 62.19 55.0131 60.3615 54.6179C58.5331 54.2226 56.8114 53.4375 55.314 52.3162C53.8166 51.1949 52.5787 49.7637 51.6848 48.1204C50.7909 46.477 50.2621 44.6602 50.1344 42.7938C50.0067 40.9275 50.2832 39.0556 50.9449 37.3058C50.6414 37.8218 50.3743 38.3584 50.1454 38.9116C49.4601 40.5613 49.1088 42.3305 49.112 44.1169C49.1151 45.9033 49.4725 47.6713 50.1636 49.3186C50.851 50.9645 51.8541 52.4599 53.1162 53.7203C54.3766 54.9801 55.8753 55.9761 57.5248 56.6503C59.5793 57.4883 61.8086 57.8078 64.0157 57.5804C66.2229 57.3531 68.3403 56.586 70.1808 55.3467C72.0214 54.1075 73.5286 52.4342 74.5695 50.4747C75.6104 48.5151 76.153 46.3294 76.1493 44.1105C76.1528 43.6533 76.1323 43.1961 76.088 42.741Z" fill="#161B26"></path>
  <path d="M72.697 51.4399C70.8133 53.3359 68.4114 54.6332 65.793 55.169C63.1746 55.7048 60.4562 55.4552 57.9791 54.4516C56.3292 53.7783 54.8303 52.7821 53.5706 51.5217C51.0202 48.977 49.5814 45.526 49.5686 41.9233C49.5622 40.135 49.9136 38.3634 50.602 36.7129C51.9914 33.3811 54.639 30.7318 57.97 29.3404C59.6211 28.6568 61.3935 28.3145 63.1804 28.3342C65.3907 28.3551 67.5621 28.9188 69.5036 29.9756C71.4451 31.0323 73.0972 32.5499 74.3147 34.3948C75.5323 36.2398 76.2779 38.3556 76.4862 40.5562C76.6944 42.7568 76.3588 44.9749 75.5089 47.0155C75.1739 47.8267 74.7592 48.6028 74.271 49.3322C74.1461 49.5093 74.0257 49.6933 73.894 49.8682C73.7623 50.0431 73.6351 50.2202 73.5101 50.3997L73.1195 50.9312C72.9832 51.1038 72.8401 51.2719 72.697 51.4399ZM72.0361 50.779C72.1837 50.6382 72.3359 50.4973 72.4903 50.3611C72.6448 50.2248 72.7856 50.0726 72.9332 49.925C73.0751 49.7744 73.2093 49.6167 73.3353 49.4526C73.4602 49.2868 73.5737 49.1141 73.6941 48.9438C75.0954 46.8645 75.8357 44.4102 75.8178 41.9028C75.8133 40.2462 75.4799 38.6069 74.8369 37.0801C74.194 35.5533 73.2543 34.1693 72.0724 33.0085C70.8951 31.8633 69.5036 30.9614 67.9774 30.3546C66.4512 29.7478 64.8203 29.4479 63.1781 29.4721C61.5486 29.4977 59.9388 29.8314 58.4334 30.4556C56.9274 31.0779 55.5589 31.991 54.4061 33.1427C53.2533 34.2943 52.3388 35.6619 51.7149 37.1672C51.0959 38.6739 50.7713 40.2853 50.7587 41.9142C50.7457 43.5483 51.0544 45.169 51.6672 46.6839C52.2871 48.1956 53.2012 49.5691 54.3564 50.7245C55.5131 51.8885 56.8877 52.8133 58.4018 53.4459C59.916 54.0786 61.5399 54.4067 63.1809 54.4115C64.8219 54.4164 66.4477 54.0979 67.9656 53.4742C69.4834 52.8505 70.8635 51.9339 72.027 50.7767L72.0361 50.779Z" fill="#161B26"></path>
  <path d="M71.198 49.6638C70.1806 50.692 68.9714 51.5108 67.6389 52.0736C66.3018 52.6345 64.8687 52.9307 63.4188 52.9458C61.9648 52.9592 60.5223 52.686 59.1738 52.1418C57.8227 51.5902 56.5957 50.7739 55.5647 49.741C54.0028 48.1892 52.9362 46.209 52.4999 44.0508C52.0637 41.8927 52.2774 39.6536 53.114 37.6169C53.6678 36.2584 54.4941 35.0278 55.542 34.0011C56.5843 32.9794 57.8336 32.1933 59.2056 31.6957C60.5576 31.2003 61.9881 30.954 63.4279 30.9689C66.3063 31.0282 69.051 32.1947 71.0912 34.2259C73.1439 36.2648 74.3074 39.0323 74.3282 41.9253C74.3491 44.8184 73.2256 47.6024 71.2025 49.6706L71.198 49.6638ZM70.4916 48.9575C71.9193 47.5648 72.9018 45.7801 73.315 43.829C73.7282 41.8779 73.5535 39.848 72.8129 37.9962C72.3109 36.7608 71.5717 35.6358 70.637 34.6847C69.6948 33.7387 68.5695 32.9947 67.33 32.4983C66.0904 32.002 64.7627 31.7636 63.4279 31.7979C62.1079 31.8174 60.8071 32.1178 59.6122 32.6792C58.4391 33.2405 57.3731 34.0022 56.4619 34.93C55.5609 35.8553 54.8394 36.9396 54.3337 38.128C53.3168 40.5397 53.2972 43.2561 54.2792 45.6823C54.7698 46.8857 55.4956 47.9791 56.4142 48.8984C57.3349 49.8269 58.4296 50.565 59.6356 51.0705C60.8416 51.576 62.1353 51.839 63.4429 51.8445C64.7506 51.85 66.0465 51.5978 67.2567 51.1025C68.4669 50.6071 69.5677 49.8782 70.4962 48.9575H70.4916Z" fill="#161B26"></path>
  <path d="M71.8997 51.2151C71.8997 51.2151 82.359 61.2769 83.1857 61.2473C83.674 61.2292 82.1705 62.0514 82.1705 62.0514L78.4796 59.3122L70.939 52.0441L71.8997 51.2151Z" fill="#161B26"></path>
  <path d="M71.5455 40.1336C71.783 40.9043 71.8541 41.7167 71.7543 42.517C71.6544 43.3173 71.3859 44.0873 70.9663 44.7761C70.6847 45.2462 71.4206 45.6846 71.6999 45.2053C72.1765 44.4187 72.4819 43.5404 72.5962 42.6277C72.7105 41.7151 72.6311 40.7886 72.3632 39.9087C72.2087 39.3863 71.3888 39.6089 71.5455 40.1358V40.1336Z" fill="#161B26"></path>
  <path d="M54.127 38.9115C54.42 38.7412 54.7221 38.5845 55.0356 38.4391C55.349 38.2937 55.5193 38.212 55.9032 38.0757C56.6009 37.8171 57.3121 37.5965 58.0336 37.4148C58.7605 37.2308 59.4941 37.0786 60.2323 36.9605C60.4117 36.9287 60.5934 36.9014 60.7728 36.8742L61.0204 36.8378L61.143 36.8219H61.2134C61.5519 36.7788 61.8948 36.7402 62.2355 36.7107C62.9169 36.6493 63.5983 36.6107 64.2797 36.6084C64.3893 36.6143 64.499 36.5977 64.602 36.5597C64.705 36.5218 64.7992 36.4633 64.8789 36.3877C64.9586 36.3122 65.022 36.2212 65.0654 36.1203C65.1087 36.0194 65.1311 35.9108 65.1311 35.801C65.1311 35.6912 65.1087 35.5826 65.0654 35.4817C65.022 35.3808 64.9586 35.2899 64.8789 35.2143C64.7992 35.1388 64.705 35.0802 64.602 35.0423C64.499 35.0043 64.3893 34.9878 64.2797 34.9936C62.893 35.0089 61.5095 35.1304 60.1414 35.357C58.6212 35.5829 57.126 35.9533 55.6761 36.4631C54.8619 36.7492 54.0745 37.1065 53.323 37.5306C53.1378 37.6387 53.0031 37.816 52.9486 38.0234C52.894 38.2309 52.9242 38.4515 53.0323 38.6367C53.1404 38.8219 53.3177 38.9566 53.5251 39.0111C53.7326 39.0657 53.9532 39.0356 54.1384 38.9274L54.127 38.9115Z" fill="#161B26"></path>
  <path d="M53.8295 42.9272C54.941 42.5138 56.0793 42.1761 57.2364 41.9165C58.8717 41.519 60.5252 41.1942 62.1833 40.9035C63.2871 40.7097 64.394 40.5325 65.5039 40.372C65.9354 40.3107 66.1739 39.7633 66.0672 39.3795C65.94 38.9252 65.5084 38.7526 65.0746 38.8162C61.7381 39.3 58.3789 39.8678 55.1332 40.7968C54.5472 40.9648 53.9635 41.1465 53.3934 41.3691C53.1903 41.4309 53.0186 41.5684 52.9138 41.753C52.809 41.9377 52.7791 42.1556 52.8301 42.3617C52.9369 42.7501 53.4139 43.0862 53.8227 42.9272H53.8295Z" fill="#161B26"></path>
  <path d="M54.1474 46.7088C57.3272 46.2228 60.4843 45.4982 63.605 44.7192C64.559 44.4814 65.5091 44.2316 66.4555 43.9697C67.4571 43.6903 67.0324 42.1322 66.0262 42.4116C62.7033 43.336 59.3305 44.1173 55.9417 44.7646C55.2036 44.9054 54.4609 45.0372 53.7181 45.1507C53.2866 45.2166 53.0481 45.7594 53.1549 46.1455C53.2798 46.5998 53.7136 46.7747 54.1474 46.7088Z" fill="#161B26"></path>
</svg>
