<svg width="122" height="113" viewBox="0 0 122 113" fill="none" xmlns="http://www.w3.org/2000/svg">
<g clip-path="url(#clip0_5_459)">
<path d="M120.655 60.4139C120.486 59.344 120.205 58.2933 119.818 57.2809C119.087 55.2562 118.206 53.2889 117.18 51.3951C116.516 50.2103 115.788 49.0637 114.996 47.9619C113.604 46.0106 112.122 44.1104 110.579 42.2805C108.408 39.7384 106.083 37.3272 103.624 35.0597C100.938 32.5559 98.1305 30.1798 95.2467 27.906C93.5924 26.587 91.9125 25.2904 90.2103 24.0098L103.33 82.2168C103.643 83.5134 102.915 84.8387 101.65 85.2667L101.331 85.3689C101.88 85.3082 102.426 85.2284 102.975 85.1549C103.927 85.0591 104.875 84.8994 105.808 84.6854C106.268 84.5609 106.718 84.4076 107.159 84.2224C108.436 83.7018 109.794 83.2196 110.991 82.5042C112.166 81.7441 113.291 80.9074 114.351 79.994C114.744 79.6778 115.114 79.3361 115.459 78.972C116.42 77.9181 117.305 76.7972 118.107 75.6187C118.391 75.2163 118.64 74.7884 118.851 74.3413C119.349 73.297 119.793 72.2175 120.208 71.1477C120.294 70.9273 120.371 70.7006 120.438 70.4706C120.834 69.1069 120.939 67.5963 121.102 66.2327C121.329 64.2909 120.939 62.3205 120.655 60.4139Z" fill="#FFCA41"/>
<path d="M31.6073 11.9377C31.9267 10.9956 32.7794 10.3345 33.7726 10.2547L65.0094 8.01917C61.5922 6.2531 58.1016 4.69461 54.5535 3.20957C52.3786 2.26426 50.1367 1.48182 47.8469 0.871841C46.0648 0.466251 44.2572 0.175631 42.4369 0.0063687C40.971 -0.0543102 39.5147 0.274633 38.2181 0.964456C36.8736 1.40518 35.6632 2.18442 34.7051 3.22874C33.6608 4.18363 32.8816 5.39401 32.4408 6.74172C31.7574 8.03833 31.4317 9.49463 31.4987 10.9605C31.5211 11.2831 31.5658 11.6088 31.6073 11.9377Z" fill="#FFCA41"/>
<path d="M90.2358 96.1344C89.7312 94.3076 88.7604 92.6437 87.4222 91.3056L86.0586 90.2581L54.199 100.462C51.7399 101.247 49.1275 99.6506 48.5942 97.0286L44.0401 74.7307C43.0085 74.092 41.9866 73.4149 40.9774 72.7283C39.6776 71.8437 38.4001 70.9303 37.145 69.9882C33.6512 67.2544 30.4001 64.2205 27.43 60.9247C26.9063 60.337 26.4017 59.7334 25.9035 59.1235C24.6484 57.4149 23.5498 55.5977 22.614 53.6943C22.3266 52.8863 22.0871 52.0592 21.8987 51.2224C21.8987 50.852 21.8795 50.4815 21.8987 50.1079C21.953 49.8939 22.0105 49.6831 22.0711 49.4691C22.2244 49.1977 22.3905 48.9294 22.5502 48.6675C22.9111 48.2715 23.2879 47.8979 23.6807 47.537C23.8212 47.4476 23.9681 47.3582 24.1151 47.2751C24.3194 47.2176 24.5238 47.1601 24.7314 47.1122C25.319 47.0899 25.9067 47.1027 26.4911 47.141C28.2061 47.4987 29.8891 47.9937 31.5243 48.6196L32.1885 48.8751C34.4879 49.9162 36.7235 51.1107 38.9143 52.3626C39.1283 52.4839 39.3391 52.6149 39.553 52.7394L34.1909 26.4878C33.3414 26.2611 32.4855 26.0663 31.636 25.9194C29.6145 25.5265 27.5642 25.2934 25.5075 25.2231C24.9901 25.2231 24.4727 25.2423 23.9554 25.2806C22.4959 25.402 21.0428 25.5968 19.6025 25.8651C17.7086 26.2196 15.9521 27.0467 14.202 27.8196C13.2695 28.2347 12.3881 28.7585 11.5769 29.378C9.75971 30.7545 7.95531 32.1022 6.49583 33.8491C5.12896 35.5002 3.69502 37.2376 2.77206 39.2016C2.1014 40.5717 1.52016 41.9833 1.03154 43.4268C0.852696 43.9889 0.708983 44.5637 0.603593 45.145C0.316167 46.6651 0.118162 48.2045 0.0191598 49.7502C-0.0127764 50.3602 -0.00638918 50.9701 0.0351279 51.5769C0.156486 53.1418 0.357684 54.7003 0.641916 56.246C0.753693 56.8847 0.897406 57.4883 1.06667 58.0983C1.72775 60.2668 2.56448 62.3746 3.56408 64.4089C5.24393 67.9922 7.6647 71.1411 10.1238 74.2197C12.3018 76.9056 14.6907 79.4189 17.2679 81.7279C20.7681 84.8641 24.4536 87.7862 28.3019 90.4785C31.5275 92.7587 34.868 94.8729 38.3139 96.805C41.7726 98.7499 45.3271 100.516 48.971 102.087C53.2856 103.946 57.6289 105.706 62.1351 107.037C63.8565 107.545 65.5938 107.995 67.3471 108.376C69.902 108.934 72.5144 109.279 75.1268 109.618C76.6342 109.819 78.1512 109.944 79.6713 109.992C81.134 110.059 82.5903 109.733 83.8869 109.049C86.5664 108.053 88.6773 105.942 89.6738 103.263C90.3636 101.966 90.6925 100.513 90.6318 99.047L90.2358 96.1344Z" fill="#FFCA41"/>
<path d="M97.8398 92.532L97.8239 92.4618L97.7919 92.3276L97.7281 92.0594L97.4726 90.9863L96.5145 86.9592L54.3587 100.462C51.8996 101.247 49.2904 99.6506 48.7539 97.0286L32.6803 18.3218L27.6695 18.59L26.5677 18.6507H26.2931H26.2228H26.0983L25.8428 18.6827C25.5011 18.7465 25.1721 18.8615 24.8655 19.0212C23.6424 19.6759 22.9174 20.9885 23.0164 22.3713C23.0292 22.5342 23.0484 22.6938 23.0771 22.8535L23.1314 23.125L23.2368 23.6647L23.4476 24.7473L23.8723 26.9126C24.4695 29.7869 25.0444 32.6803 25.6608 35.5578L27.5194 44.1806L31.2113 61.4453C33.6672 72.9423 36.0816 84.4713 38.1382 96.0642C38.6748 98.9576 39.1858 101.854 39.7351 104.744C40.0097 106.188 40.3003 107.619 40.5846 109.075L40.6931 109.615L40.7474 109.886C40.7666 109.982 40.773 110.033 40.8241 110.231C40.9902 110.899 41.3414 111.505 41.8397 111.981C42.3442 112.473 42.9798 112.808 43.6728 112.939C44.0241 113.006 44.3818 113.016 44.7363 112.971C44.9119 112.952 45.0876 112.917 45.2568 112.866L45.3846 112.831L45.4516 112.808L45.5826 112.767L49.7822 111.41L53.969 110.017L62.3395 107.216L79.0901 101.64L95.847 96.0833C96.4155 95.8949 96.9137 95.5404 97.2746 95.0646C97.6291 94.6015 97.843 94.049 97.8909 93.4678C97.9165 93.1835 97.9037 92.8961 97.8462 92.6151L97.8398 92.532Z" fill="#383838"/>
<path d="M103.24 82.2166C103.556 83.5164 102.825 84.8386 101.56 85.2665L54.1223 100.462C51.6633 101.247 49.0541 99.6506 48.5175 97.0286L31.4316 13.3557C31.1251 11.9792 31.9905 10.6123 33.367 10.3058C33.4724 10.2834 33.5778 10.2642 33.6832 10.2547L83.9827 6.65864C85.257 6.58519 86.3939 7.45066 86.6622 8.69937L103.24 82.2166Z" fill="white"/>
<path d="M104.348 81.9644C104.588 82.9959 104.39 84.0818 103.799 84.9632C103.496 85.4071 103.1 85.7808 102.64 86.0554C102.41 86.1896 102.164 86.2949 101.909 86.3748L101.391 86.5472L97.2395 87.9269L88.9361 90.683L72.3292 96.2207L64.0258 99.0024L59.8741 100.382L55.7224 101.73L54.6812 102.065C54.4353 102.129 54.1894 102.206 53.9371 102.25C53.6848 102.295 53.4293 102.324 53.1738 102.337C52.1487 102.388 51.1267 102.167 50.2134 101.698C49.3159 101.238 48.5399 100.57 47.9523 99.7497C47.668 99.3409 47.4317 98.897 47.2497 98.4339C47.1571 98.204 47.0804 97.9676 47.0229 97.7281L46.9335 97.3672L46.8792 97.0926C46.3235 94.2183 45.8157 91.3441 45.2824 88.4698C43.2417 76.9727 40.8465 65.5396 38.4097 54.1192L34.7466 36.9918L32.9007 28.4296C32.2875 25.5745 31.7191 22.7131 31.1251 19.8548L30.2851 15.5561L30.0744 14.4831L29.9722 13.9434L29.9179 13.6751C29.8987 13.5665 29.8732 13.4004 29.8572 13.2663C29.7263 12.0879 30.1031 10.9094 30.8919 10.0248C31.2784 9.59365 31.7542 9.24874 32.2844 9.01879C32.4249 8.9677 32.5654 8.9134 32.7059 8.86869C32.8464 8.82398 32.9965 8.79843 33.1402 8.76969C33.284 8.74095 33.4373 8.73137 33.581 8.71859H33.8524L36.0401 8.60043L40.4121 8.38007C46.2437 8.07987 52.072 7.74134 57.9004 7.38685C63.7288 7.03236 69.5603 6.70022 75.3823 6.29144L84.2031 5.67188C85.2346 5.69104 86.2087 6.15731 86.8666 6.94933C87.1955 7.33256 87.4382 7.77967 87.582 8.26191C87.6618 8.53336 87.6873 8.67388 87.7321 8.85911L87.8566 9.39245L88.8626 13.6527C90.2039 19.3374 91.5357 25.022 92.7812 30.7259L93.7233 34.9862L94.6367 39.2688L96.4666 47.8341C98.9225 59.2481 101.656 70.6015 104.348 81.9644ZM102.132 82.4722C99.6858 71.055 97.281 59.625 94.6047 48.2589L92.58 39.7383L91.5644 35.478L90.5776 31.2113C89.2554 25.5266 88.0227 19.8196 86.7899 14.1126L85.867 9.82359L85.7392 9.29025C85.7009 9.1178 85.6562 8.90382 85.6306 8.82079C85.57 8.60043 85.4614 8.39284 85.3113 8.21719C85.0271 7.86909 84.6055 7.6615 84.1552 7.64873L79.8694 7.93616L75.5037 8.25552C69.7009 8.69943 63.8853 9.17528 58.0665 9.65752C52.2477 10.1398 46.4289 10.6156 40.6133 11.1649L36.2381 11.5737L34.0568 11.7653L33.7854 11.7909H33.68C33.648 11.8036 33.6161 11.8132 33.581 11.8196C33.5522 11.8356 33.5235 11.8483 33.4915 11.8579C33.367 11.9186 33.2584 12.0048 33.1722 12.1134C32.9901 12.3466 32.9103 12.6436 32.9518 12.9342C32.9518 12.9789 32.9518 12.9949 32.9742 13.0651L33.0285 13.3334L33.1434 13.8667L33.3702 14.9398L34.2995 19.2384C34.8744 22.1127 35.4748 24.955 36.0305 27.8229L37.688 36.4233L41.0285 53.605C43.264 65.0669 45.5443 76.5193 48.179 87.8981C48.8177 90.7501 49.4724 93.5924 50.0952 96.4475L50.1527 96.7094L50.2006 96.8786C50.2325 96.9872 50.2708 97.0958 50.3187 97.198C50.3635 97.3066 50.4114 97.4151 50.4688 97.5173C50.5231 97.6195 50.5934 97.7122 50.6509 97.808C50.9223 98.1752 51.2768 98.4722 51.6856 98.6798C52.0816 98.8746 52.5223 98.9672 52.9631 98.9481C53.0716 98.9417 53.177 98.9321 53.2824 98.913C53.391 98.897 53.4932 98.8587 53.6018 98.8363L54.6429 98.5169L58.817 97.1916L63.0038 95.9141L71.3679 93.3305L88.1121 88.1824L96.4794 85.5987L100.663 84.3053L101.187 84.1424C101.279 84.1137 101.366 84.0754 101.452 84.0307C101.621 83.9317 101.768 83.8007 101.886 83.6442C102.126 83.3025 102.212 82.881 102.132 82.4722Z" fill="#383838"/>
<path d="M62.9591 31.8724C65.6194 31.4987 68.2637 30.9941 70.9049 30.5151C74.1208 29.9338 77.3336 29.3398 80.5496 28.7554C81.6546 28.5542 82.7596 28.3498 83.8678 28.1709C84.184 28.0815 84.3692 27.7558 84.2862 27.4364C84.1903 27.1234 83.8678 26.9382 83.5516 27.018C81.1213 27.4109 78.7037 27.8803 76.2829 28.3242C73.0063 28.9246 69.7328 29.5314 66.4497 30.0999C65.1723 30.3203 63.914 30.5406 62.6397 30.7195C62.3236 30.8089 62.1383 31.1378 62.2246 31.454C62.3204 31.767 62.6429 31.9522 62.9591 31.8724Z" fill="#383838"/>
<path d="M67.4589 51.9603C70.0138 51.6026 72.5687 50.9638 75.0917 50.3634C78.1352 49.6608 81.1596 48.9199 84.2031 48.179C85.3209 47.9075 86.4386 47.6297 87.5564 47.3678C88.3037 47.1922 87.9875 46.0393 87.237 46.2149C81.7791 47.4924 76.3532 48.9135 70.8665 50.0888C69.6338 50.3507 68.3946 50.6189 67.1427 50.7946C66.8266 50.884 66.6413 51.2098 66.7244 51.5291C66.817 51.8421 67.1427 52.0241 67.4589 51.9443V51.9603Z" fill="#383838"/>
<path d="M72.4985 72.8913C74.8969 72.5017 77.2697 71.9747 79.6075 71.3168C82.4179 70.5919 85.2155 69.8126 87.9811 68.9408C89.0925 68.5926 90.2167 68.235 91.2897 67.8038C91.6027 67.708 91.7848 67.3855 91.7049 67.0693C91.6155 66.7531 91.2897 66.5679 90.9704 66.6509C88.7317 67.494 86.4546 68.2222 84.1424 68.8354C81.3448 69.6402 78.528 70.3907 75.6889 71.0422C74.5264 71.3072 73.3575 71.5691 72.1759 71.7352C71.8597 71.8246 71.6713 72.1503 71.7575 72.4697C71.8534 72.7827 72.1759 72.9647 72.4921 72.8849L72.4985 72.8913Z" fill="#383838"/>
<path d="M57.7439 39.7797C55.7287 40.2843 53.7231 40.8113 51.7175 41.3446L48.6932 42.1271C48.1918 42.258 47.6872 42.3793 47.1826 42.5007H47.1347L47.0453 42.5199C46.9846 42.5263 46.9207 42.5263 46.86 42.5199C46.7355 42.5231 46.6141 42.5103 46.4928 42.4783C46.0073 42.3474 45.6369 41.9514 45.5347 41.4596L45.4517 41.0795C45.0269 39.0484 44.6245 37.0141 44.2509 34.9733L43.6664 31.917L43.3471 30.3905L43.1906 29.6272L43.1522 29.4388L43.1331 29.343C43.1331 29.3174 43.1139 29.2408 43.1075 29.1929C43.0884 28.9661 43.1299 28.7394 43.2321 28.5382C43.3279 28.3338 43.4812 28.1613 43.6728 28.04C43.7718 27.9793 43.8804 27.9314 43.9922 27.8995C44.0465 27.8995 44.1039 27.8739 44.1582 27.8611H44.2636C44.5191 27.8228 44.7778 27.7909 45.0333 27.7462L46.5726 27.5066C47.5978 27.3406 48.6293 27.232 49.6609 27.1266C50.6924 27.0212 51.7239 26.9158 52.7587 26.8264L54.3108 26.6859L54.6972 26.6507L54.892 26.6348C54.9974 26.6188 55.106 26.6188 55.2114 26.6348C55.6297 26.7018 55.9778 26.9989 56.1088 27.4044L56.7475 30.4959C56.9583 31.5114 57.201 32.5206 57.4278 33.533C57.6545 34.5454 57.8812 35.5578 58.0984 36.5733L58.4178 38.0935L58.504 38.4735C58.5264 38.5534 58.5391 38.6364 58.5455 38.7195C58.5487 38.8153 58.5423 38.9079 58.52 39.0005C58.4337 39.3901 58.1335 39.6935 57.7439 39.7797ZM57.597 39.141C57.7375 39.1123 57.8525 39.0037 57.8876 38.8632C57.8908 38.828 57.8908 38.7929 57.8876 38.7578C57.8844 38.7131 57.8781 38.6684 57.8653 38.6236L57.7822 38.2436L57.4278 36.7266C57.1914 35.7174 56.9519 34.7083 56.7347 33.6927C56.5176 32.6771 56.2908 31.6679 56.0481 30.6587C55.9299 30.1542 55.8022 29.6496 55.6744 29.1482L55.304 27.6791C55.2657 27.5801 55.1699 27.513 55.0645 27.5098C55.0357 27.5066 55.0102 27.5066 54.9814 27.5098L54.7898 27.5418L54.4066 27.6024L52.8673 27.842C51.8421 28.0048 50.8169 28.1613 49.7886 28.3019C48.7603 28.4424 47.7351 28.5989 46.7004 28.6851L45.1515 28.8256C44.8928 28.848 44.6341 28.8767 44.3754 28.9023H44.2892H44.2636C44.2477 28.9054 44.2317 28.9086 44.2189 28.9182C44.187 28.9342 44.1614 28.9597 44.1455 28.9885C44.1295 29.0204 44.1199 29.0555 44.1263 29.0907L44.1934 29.41L44.3562 30.1701L44.6756 31.6903L45.359 34.7274C45.8221 36.749 46.2724 38.7737 46.694 40.7953L46.7674 41.1785C46.7674 41.1977 46.7674 41.2041 46.7674 41.2137C46.7738 41.2233 46.7834 41.2328 46.7962 41.236H46.8153H46.8313H46.876C47.3838 41.1243 47.8916 41.0157 48.3994 40.9167L51.4557 40.3131C53.5156 39.9522 55.5627 39.5626 57.597 39.1474V39.141Z" fill="#383838"/>
<path d="M62.2693 60.2478L56.2174 62.0809C55.2082 62.3811 54.199 62.6909 53.1802 62.9623C52.9248 63.0294 52.6725 63.1029 52.417 63.1667L52.0337 63.2626L51.8421 63.3105L51.7463 63.3328C51.6888 63.3488 51.6313 63.3584 51.5739 63.3679C51.0693 63.4382 50.5679 63.2083 50.2964 62.7739C50.191 62.5951 50.124 62.3971 50.1016 62.1927L50.0345 61.8031C49.8685 60.7619 49.6864 59.724 49.4533 58.6957C49.2202 57.6673 48.9487 56.6485 48.6996 55.6234C48.4505 54.5982 48.2397 53.5667 48.0609 52.5288L47.7798 50.9735C47.7351 50.7148 47.6808 50.4561 47.6329 50.1974C47.6329 50.1751 47.6138 50.0984 47.6074 50.0473C47.6042 49.9866 47.6042 49.9292 47.6074 49.8685C47.6106 49.7503 47.6329 49.6353 47.6712 49.5236C47.7415 49.2968 47.8724 49.0924 48.0545 48.9391C48.1439 48.8625 48.2429 48.8018 48.3515 48.7539C48.4473 48.7156 48.5431 48.6836 48.6453 48.6645L49.0285 48.5751C49.2872 48.5176 49.5459 48.4633 49.8014 48.3994L51.3375 48.0289C52.3595 47.7735 53.3974 47.5786 54.4321 47.3902C55.4669 47.2018 56.5048 47.0038 57.5459 46.8249L59.1012 46.5567L59.296 46.5216L59.4238 46.5024C59.4749 46.4992 59.5292 46.4992 59.5803 46.5024C59.7879 46.5056 59.9891 46.5695 60.1615 46.6876C60.3308 46.7994 60.4649 46.9591 60.5479 47.1475C60.5863 47.2337 60.615 47.3264 60.6278 47.4222L60.6629 47.617C61.0238 49.6928 61.4006 51.7687 61.8733 53.8222L62.5567 56.9072L62.9112 58.4498L63.0006 58.833C63.0517 59.0086 63.0645 59.1907 63.0422 59.3695C62.9751 59.7879 62.6749 60.1264 62.2693 60.2478ZM62.0553 59.4653C62.1703 59.4366 62.2597 59.3504 62.2885 59.2354C62.2853 59.0182 62.2533 58.8042 62.199 58.5967L61.9116 57.0414L61.3208 53.9372C60.9376 51.8645 60.4617 49.811 59.9699 47.7607L59.922 47.5691C59.9156 47.5339 59.9028 47.4988 59.8837 47.4669C59.8549 47.4126 59.8102 47.3711 59.7559 47.3423C59.7048 47.3168 59.6473 47.3072 59.5898 47.3104H59.5483H59.4813L59.2896 47.3615L57.7567 47.7511C56.7348 48.0162 55.7128 48.2749 54.6876 48.5144C53.6625 48.7539 52.6373 49.0126 51.5994 49.201L50.0473 49.4916C49.7886 49.5395 49.5299 49.597 49.2713 49.6481L48.8848 49.7248L48.7986 49.7439L48.7603 49.7663C48.7379 49.7854 48.7219 49.811 48.7156 49.8397C48.7124 49.8525 48.7124 49.8685 48.7156 49.8813C48.7156 49.8813 48.7156 49.8813 48.7156 49.9004C48.7156 49.9196 48.7156 49.9004 48.7156 49.9451C48.773 50.2006 48.8273 50.4593 48.8912 50.7148L49.2553 52.2541C49.498 53.2793 49.7088 54.3108 49.894 55.3487C50.0792 56.3867 50.2134 57.4342 50.4273 58.4657C50.6413 59.4973 50.8744 60.5256 51.1363 61.5476C51.1683 61.7328 51.2194 61.918 51.2896 62.0937C51.3184 62.116 51.3535 62.1224 51.3886 62.116L52.0753 61.9148C52.3275 61.8382 52.583 61.7743 52.8353 61.7041C53.8509 61.423 54.8761 61.1771 55.9012 60.9248L62.0553 59.4653Z" fill="#383838"/>
<path d="M66.9927 81.2906C64.9967 82.0379 63.0038 82.7916 60.9791 83.4559L57.9547 84.43L57.1914 84.6727L56.8114 84.794L56.623 84.8547C56.5591 84.8739 56.5112 84.893 56.3803 84.925C55.9236 85.024 55.4509 84.8483 55.1699 84.4715C55.1028 84.3821 55.0485 84.2799 55.007 84.1745C54.9878 84.1202 54.9719 84.0659 54.9591 84.0116L54.9367 83.9062L54.8601 83.5134C54.6525 82.4691 54.4385 81.428 54.1958 80.39C53.9531 79.3521 53.6816 78.3238 53.4357 77.2858C53.1898 76.2479 52.9631 75.21 52.7555 74.1657L52.4521 72.5976L52.302 71.812L52.2669 71.6171L52.2477 71.5181C52.2349 71.4575 52.2285 71.3968 52.2253 71.3361C52.2126 71.0902 52.2701 70.8443 52.3914 70.6271C52.5128 70.4131 52.6948 70.2407 52.912 70.1289C52.9663 70.1002 53.0238 70.0746 53.0812 70.0555C53.1291 70.0395 53.2122 70.0139 53.2345 70.0108L53.4293 69.9692L54.2086 69.7904L55.7671 69.4423L58.8873 68.7557C59.9252 68.5257 60.9695 68.3022 62.0042 68.0531C62.5216 67.9349 63.039 67.804 63.5563 67.673L63.7479 67.6219L63.8438 67.5996C63.8885 67.5868 63.9364 67.5804 63.9843 67.574C64.1791 67.5485 64.3771 67.5804 64.5527 67.6634C64.7284 67.7497 64.8785 67.8838 64.9839 68.0499C65.035 68.1329 65.0765 68.2223 65.102 68.3181C65.1276 68.4107 65.134 68.4555 65.1531 68.5289C65.3991 69.5636 65.6418 70.6016 65.8462 71.6459C66.0505 72.6902 66.2262 73.7409 66.4338 74.7852C66.6414 75.8295 66.8809 76.8675 67.1524 77.899L67.5611 79.4447L67.6633 79.8311C67.6825 79.9014 67.6953 79.9429 67.7176 80.0387C67.8198 80.5721 67.5196 81.1054 67.0086 81.2906H66.9927ZM66.7276 80.4954C66.8394 80.4667 66.9256 80.3773 66.948 80.2623C66.9543 80.2335 66.9543 80.2016 66.948 80.1729C66.948 80.1345 66.9288 80.0483 66.9192 79.9908L66.849 79.5948L66.5775 78.0204C66.3923 76.9729 66.1687 75.9317 65.9388 74.8938C65.7088 73.8559 65.4022 72.8307 65.1627 71.7928C64.9232 70.7549 64.6965 69.7169 64.4857 68.6726L64.4474 68.4906C64.441 68.4555 64.4282 68.4235 64.409 68.3948C64.3739 68.3309 64.3228 68.2798 64.2589 68.2479C64.1951 68.2159 64.1216 68.2 64.0513 68.2064H63.9939L63.898 68.2287L63.7032 68.2798C63.1891 68.4076 62.6717 68.5353 62.1575 68.6758C61.1292 68.9473 60.1072 69.2475 59.0821 69.5381L56.0066 70.4131L54.4705 70.8443L53.7008 71.0583L53.506 71.1126C53.4613 71.1126 53.4836 71.1126 53.4677 71.1126C53.4517 71.1126 53.4677 71.1126 53.4677 71.1126C53.4485 71.1253 53.4357 71.1445 53.4262 71.1637C53.4198 71.1828 53.4198 71.2052 53.4262 71.2243L53.4964 71.5437L53.6721 72.3229L54.0202 73.8814C54.2469 74.9225 54.4545 75.9669 54.6429 77.0144C54.8282 78.0651 54.9846 79.119 55.1858 80.1633C55.387 81.2076 55.5978 82.2551 55.8246 83.2962L55.9108 83.6858L55.9331 83.7753C55.9331 83.7849 55.9331 83.7944 55.9331 83.804C55.9395 83.82 55.9491 83.8359 55.9619 83.8519C56.013 83.9126 56.0928 83.9413 56.1695 83.9222L57.629 83.4144L60.6437 82.3605C62.6366 81.6962 64.6837 81.099 66.7276 80.4954Z" fill="#383838"/>
<path d="M46.5567 31.7383C48.3611 33.3671 49.795 35.3663 50.7563 37.5986C51.1299 38.4545 52.6948 38.2661 52.8321 37.3272C53.5954 32.0353 55.288 26.9223 57.8333 22.2213C58.5647 20.8768 59.3663 19.5706 60.2285 18.3059C60.5894 17.7918 60.4681 17.0828 59.9539 16.7219C59.4397 16.361 58.7307 16.4824 58.3699 16.9965C58.3347 17.0476 58.3028 17.1019 58.2741 17.1594C55.1699 21.7231 52.8928 26.7978 51.5483 32.1503C51.1714 33.6577 50.8712 35.1842 50.6477 36.7236L52.7235 36.4521C51.6664 34.0473 50.1144 31.8948 48.1662 30.1351C47.7191 29.7072 47.0165 29.7072 46.5694 30.1351C46.1351 30.579 46.1351 31.288 46.5694 31.7319L46.5567 31.7383Z" fill="#383838"/>
<path d="M50.9543 53.3272C52.7619 54.9559 54.1958 56.9551 55.1571 59.1875C55.5307 60.0434 57.0956 59.855 57.2329 58.916C57.993 53.6242 59.6857 48.5112 62.2342 43.8102C62.9655 42.4657 63.7639 41.1595 64.6294 39.8916C64.9456 39.3487 64.7635 38.6557 64.2206 38.3395C63.6777 38.0233 62.9847 38.2054 62.6685 38.7483C59.5675 43.3088 57.2904 48.3803 55.9427 53.7296C55.5659 55.2402 55.2657 56.7667 55.0421 58.306L57.118 58.0346C56.0609 55.6298 54.5088 53.4773 52.5607 51.7144C52.1136 51.2928 51.411 51.2928 50.9639 51.7144C50.5327 52.1583 50.5327 52.8673 50.9639 53.3112L50.9543 53.3272Z" fill="#383838"/>
</g>
<defs>
<clipPath id="clip0_5_459">
<rect width="121.172" height="113" fill="white"/>
</clipPath>
</defs>
</svg>
